G04 #@! TF.GenerationSoftware,KiCad,Pcbnew,(5.1.4)-1*
G04 #@! TF.CreationDate,2019-11-29T20:46:52-07:00*
G04 #@! TF.ProjectId,CruiseController,43727569-7365-4436-9f6e-74726f6c6c65,rev?*
G04 #@! TF.SameCoordinates,Original*
G04 #@! TF.FileFunction,Soldermask,Top*
G04 #@! TF.FilePolarity,Negative*
%FSLAX46Y46*%
G04 Gerber Fmt 4.6, Leading zero omitted, Abs format (unit mm)*
G04 Created by KiCad (PCBNEW (5.1.4)-1) date 2019-11-29 20:46:52*
%MOMM*%
%LPD*%
G04 APERTURE LIST*
%ADD10C,0.100000*%
G04 APERTURE END LIST*
D10*
G36*
X118530476Y-104809261D02*
G01*
X118633645Y-104829782D01*
X118719036Y-104865153D01*
X118779416Y-104890163D01*
X118910608Y-104977822D01*
X119022178Y-105089392D01*
X119109837Y-105220584D01*
X119134847Y-105280964D01*
X119170218Y-105366355D01*
X119201000Y-105521109D01*
X119201000Y-105678891D01*
X119170218Y-105833645D01*
X119134847Y-105919036D01*
X119109837Y-105979416D01*
X119109836Y-105979417D01*
X119037584Y-106087552D01*
X119022178Y-106110608D01*
X118910608Y-106222178D01*
X118779416Y-106309837D01*
X118719036Y-106334847D01*
X118633645Y-106370218D01*
X118530476Y-106390739D01*
X118478892Y-106401000D01*
X118321108Y-106401000D01*
X118269524Y-106390739D01*
X118166355Y-106370218D01*
X118080964Y-106334847D01*
X118020584Y-106309837D01*
X117889392Y-106222178D01*
X117777822Y-106110608D01*
X117762417Y-106087552D01*
X117690164Y-105979417D01*
X117690163Y-105979416D01*
X117665153Y-105919036D01*
X117629782Y-105833645D01*
X117599000Y-105678891D01*
X117599000Y-105521109D01*
X117629782Y-105366355D01*
X117665153Y-105280964D01*
X117690163Y-105220584D01*
X117777822Y-105089392D01*
X117889392Y-104977822D01*
X118020584Y-104890163D01*
X118080964Y-104865153D01*
X118166355Y-104829782D01*
X118269524Y-104809261D01*
X118321108Y-104799000D01*
X118478892Y-104799000D01*
X118530476Y-104809261D01*
X118530476Y-104809261D01*
G37*
G36*
X106481579Y-102912447D02*
G01*
X106782042Y-103036903D01*
X107052451Y-103217585D01*
X107282415Y-103447549D01*
X107463097Y-103717958D01*
X107587553Y-104018421D01*
X107651000Y-104337391D01*
X107651000Y-104662609D01*
X107587553Y-104981579D01*
X107463097Y-105282042D01*
X107282415Y-105552451D01*
X107052451Y-105782415D01*
X106782042Y-105963097D01*
X106481579Y-106087553D01*
X106162609Y-106151000D01*
X105837391Y-106151000D01*
X105518421Y-106087553D01*
X105217958Y-105963097D01*
X104947549Y-105782415D01*
X104717585Y-105552451D01*
X104536903Y-105282042D01*
X104412447Y-104981579D01*
X104349000Y-104662609D01*
X104349000Y-104337391D01*
X104412447Y-104018421D01*
X104536903Y-103717958D01*
X104717585Y-103447549D01*
X104947549Y-103217585D01*
X105217958Y-103036903D01*
X105518421Y-102912447D01*
X105837391Y-102849000D01*
X106162609Y-102849000D01*
X106481579Y-102912447D01*
X106481579Y-102912447D01*
G37*
G36*
X116251000Y-103101000D02*
G01*
X114949000Y-103101000D01*
X114949000Y-102099000D01*
X116251000Y-102099000D01*
X116251000Y-103101000D01*
X116251000Y-103101000D01*
G37*
G36*
X114051000Y-103051000D02*
G01*
X112749000Y-103051000D01*
X112749000Y-102049000D01*
X114051000Y-102049000D01*
X114051000Y-103051000D01*
X114051000Y-103051000D01*
G37*
G36*
X110649581Y-98162081D02*
G01*
X110748228Y-98181703D01*
X110903100Y-98245853D01*
X111042481Y-98338985D01*
X111161015Y-98457519D01*
X111254147Y-98596900D01*
X111318297Y-98751772D01*
X111351000Y-98916184D01*
X111351000Y-99083816D01*
X111318297Y-99248228D01*
X111254147Y-99403100D01*
X111161015Y-99542481D01*
X111042481Y-99661015D01*
X110903100Y-99754147D01*
X110748228Y-99818297D01*
X110649581Y-99837919D01*
X110583818Y-99851000D01*
X110416182Y-99851000D01*
X110350419Y-99837919D01*
X110251772Y-99818297D01*
X110096900Y-99754147D01*
X109957519Y-99661015D01*
X109838985Y-99542481D01*
X109745853Y-99403100D01*
X109681703Y-99248228D01*
X109649000Y-99083816D01*
X109649000Y-98916184D01*
X109681703Y-98751772D01*
X109745853Y-98596900D01*
X109838985Y-98457519D01*
X109957519Y-98338985D01*
X110096900Y-98245853D01*
X110251772Y-98181703D01*
X110350419Y-98162081D01*
X110416182Y-98149000D01*
X110583818Y-98149000D01*
X110649581Y-98162081D01*
X110649581Y-98162081D01*
G37*
G36*
X107649581Y-98162081D02*
G01*
X107748228Y-98181703D01*
X107903100Y-98245853D01*
X108042481Y-98338985D01*
X108161015Y-98457519D01*
X108254147Y-98596900D01*
X108318297Y-98751772D01*
X108351000Y-98916184D01*
X108351000Y-99083816D01*
X108318297Y-99248228D01*
X108254147Y-99403100D01*
X108161015Y-99542481D01*
X108042481Y-99661015D01*
X107903100Y-99754147D01*
X107748228Y-99818297D01*
X107649581Y-99837919D01*
X107583818Y-99851000D01*
X107416182Y-99851000D01*
X107350419Y-99837919D01*
X107251772Y-99818297D01*
X107096900Y-99754147D01*
X106957519Y-99661015D01*
X106838985Y-99542481D01*
X106745853Y-99403100D01*
X106681703Y-99248228D01*
X106649000Y-99083816D01*
X106649000Y-98916184D01*
X106681703Y-98751772D01*
X106745853Y-98596900D01*
X106838985Y-98457519D01*
X106957519Y-98338985D01*
X107096900Y-98245853D01*
X107251772Y-98181703D01*
X107350419Y-98162081D01*
X107416182Y-98149000D01*
X107583818Y-98149000D01*
X107649581Y-98162081D01*
X107649581Y-98162081D01*
G37*
G36*
X116251000Y-99801000D02*
G01*
X114949000Y-99801000D01*
X114949000Y-98799000D01*
X116251000Y-98799000D01*
X116251000Y-99801000D01*
X116251000Y-99801000D01*
G37*
G36*
X114051000Y-99751000D02*
G01*
X112749000Y-99751000D01*
X112749000Y-98749000D01*
X114051000Y-98749000D01*
X114051000Y-99751000D01*
X114051000Y-99751000D01*
G37*
G36*
X110649581Y-95662081D02*
G01*
X110748228Y-95681703D01*
X110903100Y-95745853D01*
X111042481Y-95838985D01*
X111161015Y-95957519D01*
X111254147Y-96096900D01*
X111318297Y-96251772D01*
X111351000Y-96416184D01*
X111351000Y-96583816D01*
X111318297Y-96748228D01*
X111254147Y-96903100D01*
X111161015Y-97042481D01*
X111042481Y-97161015D01*
X110903100Y-97254147D01*
X110748228Y-97318297D01*
X110649581Y-97337919D01*
X110583818Y-97351000D01*
X110416182Y-97351000D01*
X110350419Y-97337919D01*
X110251772Y-97318297D01*
X110096900Y-97254147D01*
X109957519Y-97161015D01*
X109838985Y-97042481D01*
X109745853Y-96903100D01*
X109681703Y-96748228D01*
X109649000Y-96583816D01*
X109649000Y-96416184D01*
X109681703Y-96251772D01*
X109745853Y-96096900D01*
X109838985Y-95957519D01*
X109957519Y-95838985D01*
X110096900Y-95745853D01*
X110251772Y-95681703D01*
X110350419Y-95662081D01*
X110416182Y-95649000D01*
X110583818Y-95649000D01*
X110649581Y-95662081D01*
X110649581Y-95662081D01*
G37*
G36*
X107649581Y-95662081D02*
G01*
X107748228Y-95681703D01*
X107903100Y-95745853D01*
X108042481Y-95838985D01*
X108161015Y-95957519D01*
X108254147Y-96096900D01*
X108318297Y-96251772D01*
X108351000Y-96416184D01*
X108351000Y-96583816D01*
X108318297Y-96748228D01*
X108254147Y-96903100D01*
X108161015Y-97042481D01*
X108042481Y-97161015D01*
X107903100Y-97254147D01*
X107748228Y-97318297D01*
X107649581Y-97337919D01*
X107583818Y-97351000D01*
X107416182Y-97351000D01*
X107350419Y-97337919D01*
X107251772Y-97318297D01*
X107096900Y-97254147D01*
X106957519Y-97161015D01*
X106838985Y-97042481D01*
X106745853Y-96903100D01*
X106681703Y-96748228D01*
X106649000Y-96583816D01*
X106649000Y-96416184D01*
X106681703Y-96251772D01*
X106745853Y-96096900D01*
X106838985Y-95957519D01*
X106957519Y-95838985D01*
X107096900Y-95745853D01*
X107251772Y-95681703D01*
X107350419Y-95662081D01*
X107416182Y-95649000D01*
X107583818Y-95649000D01*
X107649581Y-95662081D01*
X107649581Y-95662081D01*
G37*
G36*
X118969552Y-95303207D02*
G01*
X119005898Y-95314232D01*
X119039401Y-95332140D01*
X119068763Y-95356237D01*
X119092860Y-95385599D01*
X119110768Y-95419102D01*
X119121793Y-95455448D01*
X119126000Y-95498158D01*
X119126000Y-96076842D01*
X119121793Y-96119552D01*
X119110768Y-96155898D01*
X119092860Y-96189401D01*
X119068763Y-96218763D01*
X119039401Y-96242860D01*
X119005898Y-96260768D01*
X118969552Y-96271793D01*
X118926842Y-96276000D01*
X118273158Y-96276000D01*
X118230448Y-96271793D01*
X118194102Y-96260768D01*
X118160599Y-96242860D01*
X118131237Y-96218763D01*
X118107140Y-96189401D01*
X118089232Y-96155898D01*
X118078207Y-96119552D01*
X118074000Y-96076842D01*
X118074000Y-95498158D01*
X118078207Y-95455448D01*
X118089232Y-95419102D01*
X118107140Y-95385599D01*
X118131237Y-95356237D01*
X118160599Y-95332140D01*
X118194102Y-95314232D01*
X118230448Y-95303207D01*
X118273158Y-95299000D01*
X118926842Y-95299000D01*
X118969552Y-95303207D01*
X118969552Y-95303207D01*
G37*
G36*
X113669552Y-94365707D02*
G01*
X113705898Y-94376732D01*
X113739401Y-94394640D01*
X113768763Y-94418737D01*
X113792860Y-94448099D01*
X113810768Y-94481602D01*
X113821793Y-94517948D01*
X113826000Y-94560658D01*
X113826000Y-95139342D01*
X113821793Y-95182052D01*
X113810768Y-95218398D01*
X113792860Y-95251901D01*
X113768763Y-95281263D01*
X113739401Y-95305360D01*
X113705898Y-95323268D01*
X113669552Y-95334293D01*
X113626842Y-95338500D01*
X112973158Y-95338500D01*
X112930448Y-95334293D01*
X112894102Y-95323268D01*
X112860599Y-95305360D01*
X112831237Y-95281263D01*
X112807140Y-95251901D01*
X112789232Y-95218398D01*
X112778207Y-95182052D01*
X112774000Y-95139342D01*
X112774000Y-94560658D01*
X112778207Y-94517948D01*
X112789232Y-94481602D01*
X112807140Y-94448099D01*
X112831237Y-94418737D01*
X112860599Y-94394640D01*
X112894102Y-94376732D01*
X112930448Y-94365707D01*
X112973158Y-94361500D01*
X113626842Y-94361500D01*
X113669552Y-94365707D01*
X113669552Y-94365707D01*
G37*
G36*
X107649581Y-93162081D02*
G01*
X107748228Y-93181703D01*
X107903100Y-93245853D01*
X108042481Y-93338985D01*
X108161015Y-93457519D01*
X108254147Y-93596900D01*
X108318297Y-93751772D01*
X108329998Y-93810599D01*
X108342765Y-93874780D01*
X108351000Y-93916184D01*
X108351000Y-94083816D01*
X108318297Y-94248228D01*
X108254147Y-94403100D01*
X108161015Y-94542481D01*
X108042481Y-94661015D01*
X107903100Y-94754147D01*
X107748228Y-94818297D01*
X107649581Y-94837919D01*
X107583818Y-94851000D01*
X107416182Y-94851000D01*
X107350419Y-94837919D01*
X107251772Y-94818297D01*
X107096900Y-94754147D01*
X106957519Y-94661015D01*
X106838985Y-94542481D01*
X106745853Y-94403100D01*
X106681703Y-94248228D01*
X106649000Y-94083816D01*
X106649000Y-93916184D01*
X106657236Y-93874780D01*
X106670002Y-93810599D01*
X106681703Y-93751772D01*
X106745853Y-93596900D01*
X106838985Y-93457519D01*
X106957519Y-93338985D01*
X107096900Y-93245853D01*
X107251772Y-93181703D01*
X107350419Y-93162081D01*
X107416182Y-93149000D01*
X107583818Y-93149000D01*
X107649581Y-93162081D01*
X107649581Y-93162081D01*
G37*
G36*
X110649581Y-93162081D02*
G01*
X110748228Y-93181703D01*
X110903100Y-93245853D01*
X111042481Y-93338985D01*
X111161015Y-93457519D01*
X111254147Y-93596900D01*
X111318297Y-93751772D01*
X111329998Y-93810599D01*
X111342765Y-93874780D01*
X111351000Y-93916184D01*
X111351000Y-94083816D01*
X111318297Y-94248228D01*
X111254147Y-94403100D01*
X111161015Y-94542481D01*
X111042481Y-94661015D01*
X110903100Y-94754147D01*
X110748228Y-94818297D01*
X110649581Y-94837919D01*
X110583818Y-94851000D01*
X110416182Y-94851000D01*
X110350419Y-94837919D01*
X110251772Y-94818297D01*
X110096900Y-94754147D01*
X109957519Y-94661015D01*
X109838985Y-94542481D01*
X109745853Y-94403100D01*
X109681703Y-94248228D01*
X109649000Y-94083816D01*
X109649000Y-93916184D01*
X109657236Y-93874780D01*
X109670002Y-93810599D01*
X109681703Y-93751772D01*
X109745853Y-93596900D01*
X109838985Y-93457519D01*
X109957519Y-93338985D01*
X110096900Y-93245853D01*
X110251772Y-93181703D01*
X110350419Y-93162081D01*
X110416182Y-93149000D01*
X110583818Y-93149000D01*
X110649581Y-93162081D01*
X110649581Y-93162081D01*
G37*
G36*
X118969552Y-93728207D02*
G01*
X119005898Y-93739232D01*
X119039401Y-93757140D01*
X119068763Y-93781237D01*
X119092860Y-93810599D01*
X119110768Y-93844102D01*
X119121793Y-93880448D01*
X119126000Y-93923158D01*
X119126000Y-94501842D01*
X119121793Y-94544552D01*
X119110768Y-94580898D01*
X119092860Y-94614401D01*
X119068763Y-94643763D01*
X119039401Y-94667860D01*
X119005898Y-94685768D01*
X118969552Y-94696793D01*
X118926842Y-94701000D01*
X118273158Y-94701000D01*
X118230448Y-94696793D01*
X118194102Y-94685768D01*
X118160599Y-94667860D01*
X118131237Y-94643763D01*
X118107140Y-94614401D01*
X118089232Y-94580898D01*
X118078207Y-94544552D01*
X118074000Y-94501842D01*
X118074000Y-93923158D01*
X118078207Y-93880448D01*
X118089232Y-93844102D01*
X118107140Y-93810599D01*
X118131237Y-93781237D01*
X118160599Y-93757140D01*
X118194102Y-93739232D01*
X118230448Y-93728207D01*
X118273158Y-93724000D01*
X118926842Y-93724000D01*
X118969552Y-93728207D01*
X118969552Y-93728207D01*
G37*
G36*
X113669552Y-92790707D02*
G01*
X113705898Y-92801732D01*
X113739401Y-92819640D01*
X113768763Y-92843737D01*
X113792860Y-92873099D01*
X113810768Y-92906602D01*
X113821793Y-92942948D01*
X113826000Y-92985658D01*
X113826000Y-93564342D01*
X113821793Y-93607052D01*
X113810768Y-93643398D01*
X113792860Y-93676901D01*
X113768763Y-93706263D01*
X113739401Y-93730360D01*
X113705898Y-93748268D01*
X113669552Y-93759293D01*
X113626842Y-93763500D01*
X112973158Y-93763500D01*
X112930448Y-93759293D01*
X112894102Y-93748268D01*
X112860599Y-93730360D01*
X112831237Y-93706263D01*
X112807140Y-93676901D01*
X112789232Y-93643398D01*
X112778207Y-93607052D01*
X112774000Y-93564342D01*
X112774000Y-92985658D01*
X112778207Y-92942948D01*
X112789232Y-92906602D01*
X112807140Y-92873099D01*
X112831237Y-92843737D01*
X112860599Y-92819640D01*
X112894102Y-92801732D01*
X112930448Y-92790707D01*
X112973158Y-92786500D01*
X113626842Y-92786500D01*
X113669552Y-92790707D01*
X113669552Y-92790707D01*
G37*
G36*
X107649581Y-90662081D02*
G01*
X107748228Y-90681703D01*
X107903100Y-90745853D01*
X108042481Y-90838985D01*
X108161015Y-90957519D01*
X108254147Y-91096900D01*
X108318297Y-91251772D01*
X108351000Y-91416184D01*
X108351000Y-91583816D01*
X108318297Y-91748228D01*
X108254147Y-91903100D01*
X108161015Y-92042481D01*
X108042481Y-92161015D01*
X107903100Y-92254147D01*
X107748228Y-92318297D01*
X107649581Y-92337919D01*
X107583818Y-92351000D01*
X107416182Y-92351000D01*
X107350419Y-92337919D01*
X107251772Y-92318297D01*
X107096900Y-92254147D01*
X106957519Y-92161015D01*
X106838985Y-92042481D01*
X106745853Y-91903100D01*
X106681703Y-91748228D01*
X106649000Y-91583816D01*
X106649000Y-91416184D01*
X106681703Y-91251772D01*
X106745853Y-91096900D01*
X106838985Y-90957519D01*
X106957519Y-90838985D01*
X107096900Y-90745853D01*
X107251772Y-90681703D01*
X107350419Y-90662081D01*
X107416182Y-90649000D01*
X107583818Y-90649000D01*
X107649581Y-90662081D01*
X107649581Y-90662081D01*
G37*
G36*
X110649581Y-90662081D02*
G01*
X110748228Y-90681703D01*
X110903100Y-90745853D01*
X111042481Y-90838985D01*
X111161015Y-90957519D01*
X111254147Y-91096900D01*
X111318297Y-91251772D01*
X111351000Y-91416184D01*
X111351000Y-91583816D01*
X111318297Y-91748228D01*
X111254147Y-91903100D01*
X111161015Y-92042481D01*
X111042481Y-92161015D01*
X110903100Y-92254147D01*
X110748228Y-92318297D01*
X110649581Y-92337919D01*
X110583818Y-92351000D01*
X110416182Y-92351000D01*
X110350419Y-92337919D01*
X110251772Y-92318297D01*
X110096900Y-92254147D01*
X109957519Y-92161015D01*
X109838985Y-92042481D01*
X109745853Y-91903100D01*
X109681703Y-91748228D01*
X109649000Y-91583816D01*
X109649000Y-91416184D01*
X109681703Y-91251772D01*
X109745853Y-91096900D01*
X109838985Y-90957519D01*
X109957519Y-90838985D01*
X110096900Y-90745853D01*
X110251772Y-90681703D01*
X110350419Y-90662081D01*
X110416182Y-90649000D01*
X110583818Y-90649000D01*
X110649581Y-90662081D01*
X110649581Y-90662081D01*
G37*
G36*
X107649581Y-88162081D02*
G01*
X107748228Y-88181703D01*
X107903100Y-88245853D01*
X108042481Y-88338985D01*
X108161015Y-88457519D01*
X108254147Y-88596900D01*
X108318297Y-88751772D01*
X108332819Y-88824780D01*
X108349255Y-88907408D01*
X108351000Y-88916184D01*
X108351000Y-89083816D01*
X108318297Y-89248228D01*
X108254147Y-89403100D01*
X108161015Y-89542481D01*
X108042481Y-89661015D01*
X107903100Y-89754147D01*
X107748228Y-89818297D01*
X107649581Y-89837919D01*
X107583818Y-89851000D01*
X107416182Y-89851000D01*
X107350419Y-89837919D01*
X107251772Y-89818297D01*
X107096900Y-89754147D01*
X106957519Y-89661015D01*
X106838985Y-89542481D01*
X106745853Y-89403100D01*
X106681703Y-89248228D01*
X106649000Y-89083816D01*
X106649000Y-88916184D01*
X106650746Y-88907408D01*
X106667181Y-88824780D01*
X106681703Y-88751772D01*
X106745853Y-88596900D01*
X106838985Y-88457519D01*
X106957519Y-88338985D01*
X107096900Y-88245853D01*
X107251772Y-88181703D01*
X107350419Y-88162081D01*
X107416182Y-88149000D01*
X107583818Y-88149000D01*
X107649581Y-88162081D01*
X107649581Y-88162081D01*
G37*
G36*
X110649581Y-88162081D02*
G01*
X110748228Y-88181703D01*
X110903100Y-88245853D01*
X111042481Y-88338985D01*
X111161015Y-88457519D01*
X111254147Y-88596900D01*
X111318297Y-88751772D01*
X111332819Y-88824780D01*
X111349255Y-88907408D01*
X111351000Y-88916184D01*
X111351000Y-89083816D01*
X111318297Y-89248228D01*
X111254147Y-89403100D01*
X111161015Y-89542481D01*
X111042481Y-89661015D01*
X110903100Y-89754147D01*
X110748228Y-89818297D01*
X110649581Y-89837919D01*
X110583818Y-89851000D01*
X110416182Y-89851000D01*
X110350419Y-89837919D01*
X110251772Y-89818297D01*
X110096900Y-89754147D01*
X109957519Y-89661015D01*
X109838985Y-89542481D01*
X109745853Y-89403100D01*
X109681703Y-89248228D01*
X109649000Y-89083816D01*
X109649000Y-88916184D01*
X109650746Y-88907408D01*
X109667181Y-88824780D01*
X109681703Y-88751772D01*
X109745853Y-88596900D01*
X109838985Y-88457519D01*
X109957519Y-88338985D01*
X110096900Y-88245853D01*
X110251772Y-88181703D01*
X110350419Y-88162081D01*
X110416182Y-88149000D01*
X110583818Y-88149000D01*
X110649581Y-88162081D01*
X110649581Y-88162081D01*
G37*
G36*
X119807052Y-88678207D02*
G01*
X119843398Y-88689232D01*
X119876901Y-88707140D01*
X119906263Y-88731237D01*
X119930360Y-88760599D01*
X119948268Y-88794102D01*
X119959293Y-88830448D01*
X119963500Y-88873158D01*
X119963500Y-89526842D01*
X119959293Y-89569552D01*
X119948268Y-89605898D01*
X119930360Y-89639401D01*
X119906263Y-89668763D01*
X119876901Y-89692860D01*
X119843398Y-89710768D01*
X119807052Y-89721793D01*
X119764342Y-89726000D01*
X119185658Y-89726000D01*
X119142948Y-89721793D01*
X119106602Y-89710768D01*
X119073099Y-89692860D01*
X119043737Y-89668763D01*
X119019640Y-89639401D01*
X119001732Y-89605898D01*
X118990707Y-89569552D01*
X118986500Y-89526842D01*
X118986500Y-88873158D01*
X118990707Y-88830448D01*
X119001732Y-88794102D01*
X119019640Y-88760599D01*
X119043737Y-88731237D01*
X119073099Y-88707140D01*
X119106602Y-88689232D01*
X119142948Y-88678207D01*
X119185658Y-88674000D01*
X119764342Y-88674000D01*
X119807052Y-88678207D01*
X119807052Y-88678207D01*
G37*
G36*
X118232052Y-88678207D02*
G01*
X118268398Y-88689232D01*
X118301901Y-88707140D01*
X118331263Y-88731237D01*
X118355360Y-88760599D01*
X118373268Y-88794102D01*
X118384293Y-88830448D01*
X118388500Y-88873158D01*
X118388500Y-89526842D01*
X118384293Y-89569552D01*
X118373268Y-89605898D01*
X118355360Y-89639401D01*
X118331263Y-89668763D01*
X118301901Y-89692860D01*
X118268398Y-89710768D01*
X118232052Y-89721793D01*
X118189342Y-89726000D01*
X117610658Y-89726000D01*
X117567948Y-89721793D01*
X117531602Y-89710768D01*
X117498099Y-89692860D01*
X117468737Y-89668763D01*
X117444640Y-89639401D01*
X117426732Y-89605898D01*
X117415707Y-89569552D01*
X117411500Y-89526842D01*
X117411500Y-88873158D01*
X117415707Y-88830448D01*
X117426732Y-88794102D01*
X117444640Y-88760599D01*
X117468737Y-88731237D01*
X117498099Y-88707140D01*
X117531602Y-88689232D01*
X117567948Y-88678207D01*
X117610658Y-88674000D01*
X118189342Y-88674000D01*
X118232052Y-88678207D01*
X118232052Y-88678207D01*
G37*
G36*
X116319552Y-87878207D02*
G01*
X116355898Y-87889232D01*
X116389401Y-87907140D01*
X116418763Y-87931237D01*
X116442860Y-87960599D01*
X116460768Y-87994102D01*
X116471793Y-88030448D01*
X116476000Y-88073158D01*
X116476000Y-88726842D01*
X116471793Y-88769552D01*
X116460768Y-88805898D01*
X116442860Y-88839401D01*
X116418763Y-88868763D01*
X116389401Y-88892860D01*
X116355898Y-88910768D01*
X116319552Y-88921793D01*
X116276842Y-88926000D01*
X115698158Y-88926000D01*
X115655448Y-88921793D01*
X115619102Y-88910768D01*
X115585599Y-88892860D01*
X115556237Y-88868763D01*
X115532140Y-88839401D01*
X115514232Y-88805898D01*
X115503207Y-88769552D01*
X115499000Y-88726842D01*
X115499000Y-88073158D01*
X115503207Y-88030448D01*
X115514232Y-87994102D01*
X115532140Y-87960599D01*
X115556237Y-87931237D01*
X115585599Y-87907140D01*
X115619102Y-87889232D01*
X115655448Y-87878207D01*
X115698158Y-87874000D01*
X116276842Y-87874000D01*
X116319552Y-87878207D01*
X116319552Y-87878207D01*
G37*
G36*
X114744552Y-87878207D02*
G01*
X114780898Y-87889232D01*
X114814401Y-87907140D01*
X114843763Y-87931237D01*
X114867860Y-87960599D01*
X114885768Y-87994102D01*
X114896793Y-88030448D01*
X114901000Y-88073158D01*
X114901000Y-88726842D01*
X114896793Y-88769552D01*
X114885768Y-88805898D01*
X114867860Y-88839401D01*
X114843763Y-88868763D01*
X114814401Y-88892860D01*
X114780898Y-88910768D01*
X114744552Y-88921793D01*
X114701842Y-88926000D01*
X114123158Y-88926000D01*
X114080448Y-88921793D01*
X114044102Y-88910768D01*
X114010599Y-88892860D01*
X113981237Y-88868763D01*
X113957140Y-88839401D01*
X113939232Y-88805898D01*
X113928207Y-88769552D01*
X113924000Y-88726842D01*
X113924000Y-88073158D01*
X113928207Y-88030448D01*
X113939232Y-87994102D01*
X113957140Y-87960599D01*
X113981237Y-87931237D01*
X114010599Y-87907140D01*
X114044102Y-87889232D01*
X114080448Y-87878207D01*
X114123158Y-87874000D01*
X114701842Y-87874000D01*
X114744552Y-87878207D01*
X114744552Y-87878207D01*
G37*
G36*
X118232052Y-87328207D02*
G01*
X118268398Y-87339232D01*
X118301901Y-87357140D01*
X118331263Y-87381237D01*
X118355360Y-87410599D01*
X118373268Y-87444102D01*
X118384293Y-87480448D01*
X118388500Y-87523158D01*
X118388500Y-88176842D01*
X118384293Y-88219552D01*
X118373268Y-88255898D01*
X118355360Y-88289401D01*
X118331263Y-88318763D01*
X118301901Y-88342860D01*
X118268398Y-88360768D01*
X118232052Y-88371793D01*
X118189342Y-88376000D01*
X117610658Y-88376000D01*
X117567948Y-88371793D01*
X117531602Y-88360768D01*
X117498099Y-88342860D01*
X117468737Y-88318763D01*
X117444640Y-88289401D01*
X117426732Y-88255898D01*
X117415707Y-88219552D01*
X117411500Y-88176842D01*
X117411500Y-87523158D01*
X117415707Y-87480448D01*
X117426732Y-87444102D01*
X117444640Y-87410599D01*
X117468737Y-87381237D01*
X117498099Y-87357140D01*
X117531602Y-87339232D01*
X117567948Y-87328207D01*
X117610658Y-87324000D01*
X118189342Y-87324000D01*
X118232052Y-87328207D01*
X118232052Y-87328207D01*
G37*
G36*
X119807052Y-87328207D02*
G01*
X119843398Y-87339232D01*
X119876901Y-87357140D01*
X119906263Y-87381237D01*
X119930360Y-87410599D01*
X119948268Y-87444102D01*
X119959293Y-87480448D01*
X119963500Y-87523158D01*
X119963500Y-88176842D01*
X119959293Y-88219552D01*
X119948268Y-88255898D01*
X119930360Y-88289401D01*
X119906263Y-88318763D01*
X119876901Y-88342860D01*
X119843398Y-88360768D01*
X119807052Y-88371793D01*
X119764342Y-88376000D01*
X119185658Y-88376000D01*
X119142948Y-88371793D01*
X119106602Y-88360768D01*
X119073099Y-88342860D01*
X119043737Y-88318763D01*
X119019640Y-88289401D01*
X119001732Y-88255898D01*
X118990707Y-88219552D01*
X118986500Y-88176842D01*
X118986500Y-87523158D01*
X118990707Y-87480448D01*
X119001732Y-87444102D01*
X119019640Y-87410599D01*
X119043737Y-87381237D01*
X119073099Y-87357140D01*
X119106602Y-87339232D01*
X119142948Y-87328207D01*
X119185658Y-87324000D01*
X119764342Y-87324000D01*
X119807052Y-87328207D01*
X119807052Y-87328207D01*
G37*
G36*
X116307052Y-86578207D02*
G01*
X116343398Y-86589232D01*
X116376901Y-86607140D01*
X116406263Y-86631237D01*
X116430360Y-86660599D01*
X116448268Y-86694102D01*
X116459293Y-86730448D01*
X116463500Y-86773158D01*
X116463500Y-87426842D01*
X116459293Y-87469552D01*
X116448268Y-87505898D01*
X116430360Y-87539401D01*
X116406263Y-87568763D01*
X116376901Y-87592860D01*
X116343398Y-87610768D01*
X116307052Y-87621793D01*
X116264342Y-87626000D01*
X115685658Y-87626000D01*
X115642948Y-87621793D01*
X115606602Y-87610768D01*
X115573099Y-87592860D01*
X115543737Y-87568763D01*
X115519640Y-87539401D01*
X115501732Y-87505898D01*
X115490707Y-87469552D01*
X115486500Y-87426842D01*
X115486500Y-86773158D01*
X115490707Y-86730448D01*
X115501732Y-86694102D01*
X115519640Y-86660599D01*
X115543737Y-86631237D01*
X115573099Y-86607140D01*
X115606602Y-86589232D01*
X115642948Y-86578207D01*
X115685658Y-86574000D01*
X116264342Y-86574000D01*
X116307052Y-86578207D01*
X116307052Y-86578207D01*
G37*
G36*
X114732052Y-86578207D02*
G01*
X114768398Y-86589232D01*
X114801901Y-86607140D01*
X114831263Y-86631237D01*
X114855360Y-86660599D01*
X114873268Y-86694102D01*
X114884293Y-86730448D01*
X114888500Y-86773158D01*
X114888500Y-87426842D01*
X114884293Y-87469552D01*
X114873268Y-87505898D01*
X114855360Y-87539401D01*
X114831263Y-87568763D01*
X114801901Y-87592860D01*
X114768398Y-87610768D01*
X114732052Y-87621793D01*
X114689342Y-87626000D01*
X114110658Y-87626000D01*
X114067948Y-87621793D01*
X114031602Y-87610768D01*
X113998099Y-87592860D01*
X113968737Y-87568763D01*
X113944640Y-87539401D01*
X113926732Y-87505898D01*
X113915707Y-87469552D01*
X113911500Y-87426842D01*
X113911500Y-86773158D01*
X113915707Y-86730448D01*
X113926732Y-86694102D01*
X113944640Y-86660599D01*
X113968737Y-86631237D01*
X113998099Y-86607140D01*
X114031602Y-86589232D01*
X114067948Y-86578207D01*
X114110658Y-86574000D01*
X114689342Y-86574000D01*
X114732052Y-86578207D01*
X114732052Y-86578207D01*
G37*
G36*
X107649581Y-85662081D02*
G01*
X107748228Y-85681703D01*
X107903100Y-85745853D01*
X108042481Y-85838985D01*
X108161015Y-85957519D01*
X108254147Y-86096900D01*
X108318297Y-86251772D01*
X108337919Y-86350419D01*
X108351000Y-86416182D01*
X108351000Y-86583818D01*
X108346361Y-86607140D01*
X108318297Y-86748228D01*
X108254147Y-86903100D01*
X108161015Y-87042481D01*
X108042481Y-87161015D01*
X107903100Y-87254147D01*
X107748228Y-87318297D01*
X107649581Y-87337919D01*
X107583818Y-87351000D01*
X107416182Y-87351000D01*
X107350419Y-87337919D01*
X107251772Y-87318297D01*
X107096900Y-87254147D01*
X106957519Y-87161015D01*
X106838985Y-87042481D01*
X106745853Y-86903100D01*
X106681703Y-86748228D01*
X106653639Y-86607140D01*
X106649000Y-86583818D01*
X106649000Y-86416182D01*
X106662081Y-86350419D01*
X106681703Y-86251772D01*
X106745853Y-86096900D01*
X106838985Y-85957519D01*
X106957519Y-85838985D01*
X107096900Y-85745853D01*
X107251772Y-85681703D01*
X107350419Y-85662081D01*
X107416182Y-85649000D01*
X107583818Y-85649000D01*
X107649581Y-85662081D01*
X107649581Y-85662081D01*
G37*
G36*
X110649581Y-85662081D02*
G01*
X110748228Y-85681703D01*
X110903100Y-85745853D01*
X111042481Y-85838985D01*
X111161015Y-85957519D01*
X111254147Y-86096900D01*
X111318297Y-86251772D01*
X111337919Y-86350419D01*
X111351000Y-86416182D01*
X111351000Y-86583818D01*
X111346361Y-86607140D01*
X111318297Y-86748228D01*
X111254147Y-86903100D01*
X111161015Y-87042481D01*
X111042481Y-87161015D01*
X110903100Y-87254147D01*
X110748228Y-87318297D01*
X110649581Y-87337919D01*
X110583818Y-87351000D01*
X110416182Y-87351000D01*
X110350419Y-87337919D01*
X110251772Y-87318297D01*
X110096900Y-87254147D01*
X109957519Y-87161015D01*
X109838985Y-87042481D01*
X109745853Y-86903100D01*
X109681703Y-86748228D01*
X109653639Y-86607140D01*
X109649000Y-86583818D01*
X109649000Y-86416182D01*
X109662081Y-86350419D01*
X109681703Y-86251772D01*
X109745853Y-86096900D01*
X109838985Y-85957519D01*
X109957519Y-85838985D01*
X110096900Y-85745853D01*
X110251772Y-85681703D01*
X110350419Y-85662081D01*
X110416182Y-85649000D01*
X110583818Y-85649000D01*
X110649581Y-85662081D01*
X110649581Y-85662081D01*
G37*
G36*
X119807052Y-85978207D02*
G01*
X119843398Y-85989232D01*
X119876901Y-86007140D01*
X119906263Y-86031237D01*
X119930360Y-86060599D01*
X119948268Y-86094102D01*
X119959293Y-86130448D01*
X119963500Y-86173158D01*
X119963500Y-86826842D01*
X119959293Y-86869552D01*
X119948268Y-86905898D01*
X119930360Y-86939401D01*
X119906263Y-86968763D01*
X119876901Y-86992860D01*
X119843398Y-87010768D01*
X119807052Y-87021793D01*
X119764342Y-87026000D01*
X119185658Y-87026000D01*
X119142948Y-87021793D01*
X119106602Y-87010768D01*
X119073099Y-86992860D01*
X119043737Y-86968763D01*
X119019640Y-86939401D01*
X119001732Y-86905898D01*
X118990707Y-86869552D01*
X118986500Y-86826842D01*
X118986500Y-86173158D01*
X118990707Y-86130448D01*
X119001732Y-86094102D01*
X119019640Y-86060599D01*
X119043737Y-86031237D01*
X119073099Y-86007140D01*
X119106602Y-85989232D01*
X119142948Y-85978207D01*
X119185658Y-85974000D01*
X119764342Y-85974000D01*
X119807052Y-85978207D01*
X119807052Y-85978207D01*
G37*
G36*
X118232052Y-85978207D02*
G01*
X118268398Y-85989232D01*
X118301901Y-86007140D01*
X118331263Y-86031237D01*
X118355360Y-86060599D01*
X118373268Y-86094102D01*
X118384293Y-86130448D01*
X118388500Y-86173158D01*
X118388500Y-86826842D01*
X118384293Y-86869552D01*
X118373268Y-86905898D01*
X118355360Y-86939401D01*
X118331263Y-86968763D01*
X118301901Y-86992860D01*
X118268398Y-87010768D01*
X118232052Y-87021793D01*
X118189342Y-87026000D01*
X117610658Y-87026000D01*
X117567948Y-87021793D01*
X117531602Y-87010768D01*
X117498099Y-86992860D01*
X117468737Y-86968763D01*
X117444640Y-86939401D01*
X117426732Y-86905898D01*
X117415707Y-86869552D01*
X117411500Y-86826842D01*
X117411500Y-86173158D01*
X117415707Y-86130448D01*
X117426732Y-86094102D01*
X117444640Y-86060599D01*
X117468737Y-86031237D01*
X117498099Y-86007140D01*
X117531602Y-85989232D01*
X117567948Y-85978207D01*
X117610658Y-85974000D01*
X118189342Y-85974000D01*
X118232052Y-85978207D01*
X118232052Y-85978207D01*
G37*
G36*
X116319552Y-85278207D02*
G01*
X116355898Y-85289232D01*
X116389401Y-85307140D01*
X116418763Y-85331237D01*
X116442860Y-85360599D01*
X116460768Y-85394102D01*
X116471793Y-85430448D01*
X116476000Y-85473158D01*
X116476000Y-86126842D01*
X116471793Y-86169552D01*
X116460768Y-86205898D01*
X116442860Y-86239401D01*
X116418763Y-86268763D01*
X116389401Y-86292860D01*
X116355898Y-86310768D01*
X116319552Y-86321793D01*
X116276842Y-86326000D01*
X115698158Y-86326000D01*
X115655448Y-86321793D01*
X115619102Y-86310768D01*
X115585599Y-86292860D01*
X115556237Y-86268763D01*
X115532140Y-86239401D01*
X115514232Y-86205898D01*
X115503207Y-86169552D01*
X115499000Y-86126842D01*
X115499000Y-85473158D01*
X115503207Y-85430448D01*
X115514232Y-85394102D01*
X115532140Y-85360599D01*
X115556237Y-85331237D01*
X115585599Y-85307140D01*
X115619102Y-85289232D01*
X115655448Y-85278207D01*
X115698158Y-85274000D01*
X116276842Y-85274000D01*
X116319552Y-85278207D01*
X116319552Y-85278207D01*
G37*
G36*
X114744552Y-85278207D02*
G01*
X114780898Y-85289232D01*
X114814401Y-85307140D01*
X114843763Y-85331237D01*
X114867860Y-85360599D01*
X114885768Y-85394102D01*
X114896793Y-85430448D01*
X114901000Y-85473158D01*
X114901000Y-86126842D01*
X114896793Y-86169552D01*
X114885768Y-86205898D01*
X114867860Y-86239401D01*
X114843763Y-86268763D01*
X114814401Y-86292860D01*
X114780898Y-86310768D01*
X114744552Y-86321793D01*
X114701842Y-86326000D01*
X114123158Y-86326000D01*
X114080448Y-86321793D01*
X114044102Y-86310768D01*
X114010599Y-86292860D01*
X113981237Y-86268763D01*
X113957140Y-86239401D01*
X113939232Y-86205898D01*
X113928207Y-86169552D01*
X113924000Y-86126842D01*
X113924000Y-85473158D01*
X113928207Y-85430448D01*
X113939232Y-85394102D01*
X113957140Y-85360599D01*
X113981237Y-85331237D01*
X114010599Y-85307140D01*
X114044102Y-85289232D01*
X114080448Y-85278207D01*
X114123158Y-85274000D01*
X114701842Y-85274000D01*
X114744552Y-85278207D01*
X114744552Y-85278207D01*
G37*
G36*
X119819552Y-84228207D02*
G01*
X119855898Y-84239232D01*
X119889401Y-84257140D01*
X119918763Y-84281237D01*
X119942860Y-84310599D01*
X119960768Y-84344102D01*
X119971793Y-84380448D01*
X119976000Y-84423158D01*
X119976000Y-85076842D01*
X119971793Y-85119552D01*
X119960768Y-85155898D01*
X119942860Y-85189401D01*
X119918763Y-85218763D01*
X119889401Y-85242860D01*
X119855898Y-85260768D01*
X119819552Y-85271793D01*
X119776842Y-85276000D01*
X119198158Y-85276000D01*
X119155448Y-85271793D01*
X119119102Y-85260768D01*
X119085599Y-85242860D01*
X119056237Y-85218763D01*
X119032140Y-85189401D01*
X119014232Y-85155898D01*
X119003207Y-85119552D01*
X118999000Y-85076842D01*
X118999000Y-84423158D01*
X119003207Y-84380448D01*
X119014232Y-84344102D01*
X119032140Y-84310599D01*
X119056237Y-84281237D01*
X119085599Y-84257140D01*
X119119102Y-84239232D01*
X119155448Y-84228207D01*
X119198158Y-84224000D01*
X119776842Y-84224000D01*
X119819552Y-84228207D01*
X119819552Y-84228207D01*
G37*
G36*
X118244552Y-84228207D02*
G01*
X118280898Y-84239232D01*
X118314401Y-84257140D01*
X118343763Y-84281237D01*
X118367860Y-84310599D01*
X118385768Y-84344102D01*
X118396793Y-84380448D01*
X118401000Y-84423158D01*
X118401000Y-85076842D01*
X118396793Y-85119552D01*
X118385768Y-85155898D01*
X118367860Y-85189401D01*
X118343763Y-85218763D01*
X118314401Y-85242860D01*
X118280898Y-85260768D01*
X118244552Y-85271793D01*
X118201842Y-85276000D01*
X117623158Y-85276000D01*
X117580448Y-85271793D01*
X117544102Y-85260768D01*
X117510599Y-85242860D01*
X117481237Y-85218763D01*
X117457140Y-85189401D01*
X117439232Y-85155898D01*
X117428207Y-85119552D01*
X117424000Y-85076842D01*
X117424000Y-84423158D01*
X117428207Y-84380448D01*
X117439232Y-84344102D01*
X117457140Y-84310599D01*
X117481237Y-84281237D01*
X117510599Y-84257140D01*
X117544102Y-84239232D01*
X117580448Y-84228207D01*
X117623158Y-84224000D01*
X118201842Y-84224000D01*
X118244552Y-84228207D01*
X118244552Y-84228207D01*
G37*
G36*
X107649581Y-83162081D02*
G01*
X107748228Y-83181703D01*
X107903100Y-83245853D01*
X108042481Y-83338985D01*
X108161015Y-83457519D01*
X108254147Y-83596900D01*
X108318297Y-83751772D01*
X108333229Y-83826842D01*
X108341725Y-83869552D01*
X108351000Y-83916184D01*
X108351000Y-84083816D01*
X108318297Y-84248228D01*
X108254147Y-84403100D01*
X108161015Y-84542481D01*
X108042481Y-84661015D01*
X107903100Y-84754147D01*
X107748228Y-84818297D01*
X107649581Y-84837919D01*
X107583818Y-84851000D01*
X107416182Y-84851000D01*
X107350419Y-84837919D01*
X107251772Y-84818297D01*
X107096900Y-84754147D01*
X106957519Y-84661015D01*
X106838985Y-84542481D01*
X106745853Y-84403100D01*
X106681703Y-84248228D01*
X106649000Y-84083816D01*
X106649000Y-83916184D01*
X106658276Y-83869552D01*
X106666771Y-83826842D01*
X106681703Y-83751772D01*
X106745853Y-83596900D01*
X106838985Y-83457519D01*
X106957519Y-83338985D01*
X107096900Y-83245853D01*
X107251772Y-83181703D01*
X107350419Y-83162081D01*
X107416182Y-83149000D01*
X107583818Y-83149000D01*
X107649581Y-83162081D01*
X107649581Y-83162081D01*
G37*
G36*
X110649581Y-83162081D02*
G01*
X110748228Y-83181703D01*
X110903100Y-83245853D01*
X111042481Y-83338985D01*
X111161015Y-83457519D01*
X111254147Y-83596900D01*
X111318297Y-83751772D01*
X111333229Y-83826842D01*
X111341725Y-83869552D01*
X111351000Y-83916184D01*
X111351000Y-84083816D01*
X111318297Y-84248228D01*
X111254147Y-84403100D01*
X111161015Y-84542481D01*
X111042481Y-84661015D01*
X110903100Y-84754147D01*
X110748228Y-84818297D01*
X110649581Y-84837919D01*
X110583818Y-84851000D01*
X110416182Y-84851000D01*
X110350419Y-84837919D01*
X110251772Y-84818297D01*
X110096900Y-84754147D01*
X109957519Y-84661015D01*
X109838985Y-84542481D01*
X109745853Y-84403100D01*
X109681703Y-84248228D01*
X109649000Y-84083816D01*
X109649000Y-83916184D01*
X109658276Y-83869552D01*
X109666771Y-83826842D01*
X109681703Y-83751772D01*
X109745853Y-83596900D01*
X109838985Y-83457519D01*
X109957519Y-83338985D01*
X110096900Y-83245853D01*
X110251772Y-83181703D01*
X110350419Y-83162081D01*
X110416182Y-83149000D01*
X110583818Y-83149000D01*
X110649581Y-83162081D01*
X110649581Y-83162081D01*
G37*
G36*
X114744552Y-82978207D02*
G01*
X114780898Y-82989232D01*
X114814401Y-83007140D01*
X114843763Y-83031237D01*
X114867860Y-83060599D01*
X114885768Y-83094102D01*
X114896793Y-83130448D01*
X114901000Y-83173158D01*
X114901000Y-83826842D01*
X114896793Y-83869552D01*
X114885768Y-83905898D01*
X114867860Y-83939401D01*
X114843763Y-83968763D01*
X114814401Y-83992860D01*
X114780898Y-84010768D01*
X114744552Y-84021793D01*
X114701842Y-84026000D01*
X114123158Y-84026000D01*
X114080448Y-84021793D01*
X114044102Y-84010768D01*
X114010599Y-83992860D01*
X113981237Y-83968763D01*
X113957140Y-83939401D01*
X113939232Y-83905898D01*
X113928207Y-83869552D01*
X113924000Y-83826842D01*
X113924000Y-83173158D01*
X113928207Y-83130448D01*
X113939232Y-83094102D01*
X113957140Y-83060599D01*
X113981237Y-83031237D01*
X114010599Y-83007140D01*
X114044102Y-82989232D01*
X114080448Y-82978207D01*
X114123158Y-82974000D01*
X114701842Y-82974000D01*
X114744552Y-82978207D01*
X114744552Y-82978207D01*
G37*
G36*
X116319552Y-82978207D02*
G01*
X116355898Y-82989232D01*
X116389401Y-83007140D01*
X116418763Y-83031237D01*
X116442860Y-83060599D01*
X116460768Y-83094102D01*
X116471793Y-83130448D01*
X116476000Y-83173158D01*
X116476000Y-83826842D01*
X116471793Y-83869552D01*
X116460768Y-83905898D01*
X116442860Y-83939401D01*
X116418763Y-83968763D01*
X116389401Y-83992860D01*
X116355898Y-84010768D01*
X116319552Y-84021793D01*
X116276842Y-84026000D01*
X115698158Y-84026000D01*
X115655448Y-84021793D01*
X115619102Y-84010768D01*
X115585599Y-83992860D01*
X115556237Y-83968763D01*
X115532140Y-83939401D01*
X115514232Y-83905898D01*
X115503207Y-83869552D01*
X115499000Y-83826842D01*
X115499000Y-83173158D01*
X115503207Y-83130448D01*
X115514232Y-83094102D01*
X115532140Y-83060599D01*
X115556237Y-83031237D01*
X115585599Y-83007140D01*
X115619102Y-82989232D01*
X115655448Y-82978207D01*
X115698158Y-82974000D01*
X116276842Y-82974000D01*
X116319552Y-82978207D01*
X116319552Y-82978207D01*
G37*
G36*
X119551000Y-83001000D02*
G01*
X117649000Y-83001000D01*
X117649000Y-81899000D01*
X119551000Y-81899000D01*
X119551000Y-83001000D01*
X119551000Y-83001000D01*
G37*
G36*
X107649581Y-80662081D02*
G01*
X107748228Y-80681703D01*
X107903100Y-80745853D01*
X108042481Y-80838985D01*
X108161015Y-80957519D01*
X108254147Y-81096900D01*
X108318297Y-81251772D01*
X108351000Y-81416184D01*
X108351000Y-81583816D01*
X108318297Y-81748228D01*
X108254147Y-81903100D01*
X108161015Y-82042481D01*
X108042481Y-82161015D01*
X107903100Y-82254147D01*
X107748228Y-82318297D01*
X107649581Y-82337919D01*
X107583818Y-82351000D01*
X107416182Y-82351000D01*
X107350419Y-82337919D01*
X107251772Y-82318297D01*
X107096900Y-82254147D01*
X106957519Y-82161015D01*
X106838985Y-82042481D01*
X106745853Y-81903100D01*
X106681703Y-81748228D01*
X106649000Y-81583816D01*
X106649000Y-81416184D01*
X106681703Y-81251772D01*
X106745853Y-81096900D01*
X106838985Y-80957519D01*
X106957519Y-80838985D01*
X107096900Y-80745853D01*
X107251772Y-80681703D01*
X107350419Y-80662081D01*
X107416182Y-80649000D01*
X107583818Y-80649000D01*
X107649581Y-80662081D01*
X107649581Y-80662081D01*
G37*
G36*
X110649581Y-80662081D02*
G01*
X110748228Y-80681703D01*
X110903100Y-80745853D01*
X111042481Y-80838985D01*
X111161015Y-80957519D01*
X111254147Y-81096900D01*
X111318297Y-81251772D01*
X111351000Y-81416184D01*
X111351000Y-81583816D01*
X111318297Y-81748228D01*
X111254147Y-81903100D01*
X111161015Y-82042481D01*
X111042481Y-82161015D01*
X110903100Y-82254147D01*
X110748228Y-82318297D01*
X110649581Y-82337919D01*
X110583818Y-82351000D01*
X110416182Y-82351000D01*
X110350419Y-82337919D01*
X110251772Y-82318297D01*
X110096900Y-82254147D01*
X109957519Y-82161015D01*
X109838985Y-82042481D01*
X109745853Y-81903100D01*
X109681703Y-81748228D01*
X109649000Y-81583816D01*
X109649000Y-81416184D01*
X109681703Y-81251772D01*
X109745853Y-81096900D01*
X109838985Y-80957519D01*
X109957519Y-80838985D01*
X110096900Y-80745853D01*
X110251772Y-80681703D01*
X110350419Y-80662081D01*
X110416182Y-80649000D01*
X110583818Y-80649000D01*
X110649581Y-80662081D01*
X110649581Y-80662081D01*
G37*
G36*
X117119552Y-81278207D02*
G01*
X117155898Y-81289232D01*
X117189401Y-81307140D01*
X117218763Y-81331237D01*
X117242860Y-81360599D01*
X117260768Y-81394102D01*
X117271793Y-81430448D01*
X117276000Y-81473158D01*
X117276000Y-82126842D01*
X117271793Y-82169552D01*
X117260768Y-82205898D01*
X117242860Y-82239401D01*
X117218763Y-82268763D01*
X117189401Y-82292860D01*
X117155898Y-82310768D01*
X117119552Y-82321793D01*
X117076842Y-82326000D01*
X116498158Y-82326000D01*
X116455448Y-82321793D01*
X116419102Y-82310768D01*
X116385599Y-82292860D01*
X116356237Y-82268763D01*
X116332140Y-82239401D01*
X116314232Y-82205898D01*
X116303207Y-82169552D01*
X116299000Y-82126842D01*
X116299000Y-81473158D01*
X116303207Y-81430448D01*
X116314232Y-81394102D01*
X116332140Y-81360599D01*
X116356237Y-81331237D01*
X116385599Y-81307140D01*
X116419102Y-81289232D01*
X116455448Y-81278207D01*
X116498158Y-81274000D01*
X117076842Y-81274000D01*
X117119552Y-81278207D01*
X117119552Y-81278207D01*
G37*
G36*
X115544552Y-81278207D02*
G01*
X115580898Y-81289232D01*
X115614401Y-81307140D01*
X115643763Y-81331237D01*
X115667860Y-81360599D01*
X115685768Y-81394102D01*
X115696793Y-81430448D01*
X115701000Y-81473158D01*
X115701000Y-82126842D01*
X115696793Y-82169552D01*
X115685768Y-82205898D01*
X115667860Y-82239401D01*
X115643763Y-82268763D01*
X115614401Y-82292860D01*
X115580898Y-82310768D01*
X115544552Y-82321793D01*
X115501842Y-82326000D01*
X114923158Y-82326000D01*
X114880448Y-82321793D01*
X114844102Y-82310768D01*
X114810599Y-82292860D01*
X114781237Y-82268763D01*
X114757140Y-82239401D01*
X114739232Y-82205898D01*
X114728207Y-82169552D01*
X114724000Y-82126842D01*
X114724000Y-81473158D01*
X114728207Y-81430448D01*
X114739232Y-81394102D01*
X114757140Y-81360599D01*
X114781237Y-81331237D01*
X114810599Y-81307140D01*
X114844102Y-81289232D01*
X114880448Y-81278207D01*
X114923158Y-81274000D01*
X115501842Y-81274000D01*
X115544552Y-81278207D01*
X115544552Y-81278207D01*
G37*
G36*
X117132052Y-79678207D02*
G01*
X117168398Y-79689232D01*
X117201901Y-79707140D01*
X117231263Y-79731237D01*
X117255360Y-79760599D01*
X117273268Y-79794102D01*
X117284293Y-79830448D01*
X117288500Y-79873158D01*
X117288500Y-80526842D01*
X117284293Y-80569552D01*
X117273268Y-80605898D01*
X117255360Y-80639401D01*
X117231263Y-80668763D01*
X117201901Y-80692860D01*
X117168398Y-80710768D01*
X117132052Y-80721793D01*
X117089342Y-80726000D01*
X116510658Y-80726000D01*
X116467948Y-80721793D01*
X116431602Y-80710768D01*
X116398099Y-80692860D01*
X116368737Y-80668763D01*
X116344640Y-80639401D01*
X116326732Y-80605898D01*
X116315707Y-80569552D01*
X116311500Y-80526842D01*
X116311500Y-79873158D01*
X116315707Y-79830448D01*
X116326732Y-79794102D01*
X116344640Y-79760599D01*
X116368737Y-79731237D01*
X116398099Y-79707140D01*
X116431602Y-79689232D01*
X116467948Y-79678207D01*
X116510658Y-79674000D01*
X117089342Y-79674000D01*
X117132052Y-79678207D01*
X117132052Y-79678207D01*
G37*
G36*
X115557052Y-79678207D02*
G01*
X115593398Y-79689232D01*
X115626901Y-79707140D01*
X115656263Y-79731237D01*
X115680360Y-79760599D01*
X115698268Y-79794102D01*
X115709293Y-79830448D01*
X115713500Y-79873158D01*
X115713500Y-80526842D01*
X115709293Y-80569552D01*
X115698268Y-80605898D01*
X115680360Y-80639401D01*
X115656263Y-80668763D01*
X115626901Y-80692860D01*
X115593398Y-80710768D01*
X115557052Y-80721793D01*
X115514342Y-80726000D01*
X114935658Y-80726000D01*
X114892948Y-80721793D01*
X114856602Y-80710768D01*
X114823099Y-80692860D01*
X114793737Y-80668763D01*
X114769640Y-80639401D01*
X114751732Y-80605898D01*
X114740707Y-80569552D01*
X114736500Y-80526842D01*
X114736500Y-79873158D01*
X114740707Y-79830448D01*
X114751732Y-79794102D01*
X114769640Y-79760599D01*
X114793737Y-79731237D01*
X114823099Y-79707140D01*
X114856602Y-79689232D01*
X114892948Y-79678207D01*
X114935658Y-79674000D01*
X115514342Y-79674000D01*
X115557052Y-79678207D01*
X115557052Y-79678207D01*
G37*
G36*
X119551000Y-80501000D02*
G01*
X117649000Y-80501000D01*
X117649000Y-79399000D01*
X119551000Y-79399000D01*
X119551000Y-80501000D01*
X119551000Y-80501000D01*
G37*
G36*
X110649581Y-78162081D02*
G01*
X110748228Y-78181703D01*
X110903100Y-78245853D01*
X111042481Y-78338985D01*
X111161015Y-78457519D01*
X111254147Y-78596900D01*
X111318297Y-78751772D01*
X111351000Y-78916184D01*
X111351000Y-79083816D01*
X111318297Y-79248228D01*
X111254147Y-79403100D01*
X111161015Y-79542481D01*
X111042481Y-79661015D01*
X110903100Y-79754147D01*
X110748228Y-79818297D01*
X110649581Y-79837919D01*
X110583818Y-79851000D01*
X110416182Y-79851000D01*
X110350419Y-79837919D01*
X110251772Y-79818297D01*
X110096900Y-79754147D01*
X109957519Y-79661015D01*
X109838985Y-79542481D01*
X109745853Y-79403100D01*
X109681703Y-79248228D01*
X109649000Y-79083816D01*
X109649000Y-78916184D01*
X109681703Y-78751772D01*
X109745853Y-78596900D01*
X109838985Y-78457519D01*
X109957519Y-78338985D01*
X110096900Y-78245853D01*
X110251772Y-78181703D01*
X110350419Y-78162081D01*
X110416182Y-78149000D01*
X110583818Y-78149000D01*
X110649581Y-78162081D01*
X110649581Y-78162081D01*
G37*
G36*
X107649581Y-78162081D02*
G01*
X107748228Y-78181703D01*
X107903100Y-78245853D01*
X108042481Y-78338985D01*
X108161015Y-78457519D01*
X108254147Y-78596900D01*
X108318297Y-78751772D01*
X108351000Y-78916184D01*
X108351000Y-79083816D01*
X108318297Y-79248228D01*
X108254147Y-79403100D01*
X108161015Y-79542481D01*
X108042481Y-79661015D01*
X107903100Y-79754147D01*
X107748228Y-79818297D01*
X107649581Y-79837919D01*
X107583818Y-79851000D01*
X107416182Y-79851000D01*
X107350419Y-79837919D01*
X107251772Y-79818297D01*
X107096900Y-79754147D01*
X106957519Y-79661015D01*
X106838985Y-79542481D01*
X106745853Y-79403100D01*
X106681703Y-79248228D01*
X106649000Y-79083816D01*
X106649000Y-78916184D01*
X106681703Y-78751772D01*
X106745853Y-78596900D01*
X106838985Y-78457519D01*
X106957519Y-78338985D01*
X107096900Y-78245853D01*
X107251772Y-78181703D01*
X107350419Y-78162081D01*
X107416182Y-78149000D01*
X107583818Y-78149000D01*
X107649581Y-78162081D01*
X107649581Y-78162081D01*
G37*
G36*
X113801000Y-79701000D02*
G01*
X112199000Y-79701000D01*
X112199000Y-78099000D01*
X113801000Y-78099000D01*
X113801000Y-79701000D01*
X113801000Y-79701000D01*
G37*
G36*
X113169552Y-76203207D02*
G01*
X113205898Y-76214232D01*
X113239401Y-76232140D01*
X113268763Y-76256237D01*
X113292860Y-76285599D01*
X113310768Y-76319102D01*
X113321793Y-76355448D01*
X113326000Y-76398158D01*
X113326000Y-76976842D01*
X113321793Y-77019552D01*
X113310768Y-77055898D01*
X113292860Y-77089401D01*
X113268763Y-77118763D01*
X113239401Y-77142860D01*
X113205898Y-77160768D01*
X113169552Y-77171793D01*
X113126842Y-77176000D01*
X112473158Y-77176000D01*
X112430448Y-77171793D01*
X112394102Y-77160768D01*
X112360599Y-77142860D01*
X112331237Y-77118763D01*
X112307140Y-77089401D01*
X112289232Y-77055898D01*
X112278207Y-77019552D01*
X112274000Y-76976842D01*
X112274000Y-76398158D01*
X112278207Y-76355448D01*
X112289232Y-76319102D01*
X112307140Y-76285599D01*
X112331237Y-76256237D01*
X112360599Y-76232140D01*
X112394102Y-76214232D01*
X112430448Y-76203207D01*
X112473158Y-76199000D01*
X113126842Y-76199000D01*
X113169552Y-76203207D01*
X113169552Y-76203207D01*
G37*
G36*
X116426000Y-77151000D02*
G01*
X114774000Y-77151000D01*
X114774000Y-74649000D01*
X116426000Y-74649000D01*
X116426000Y-77151000D01*
X116426000Y-77151000D01*
G37*
G36*
X117526000Y-77101000D02*
G01*
X116774000Y-77101000D01*
X116774000Y-74699000D01*
X117526000Y-74699000D01*
X117526000Y-77101000D01*
X117526000Y-77101000D01*
G37*
G36*
X114426000Y-77101000D02*
G01*
X113674000Y-77101000D01*
X113674000Y-74699000D01*
X114426000Y-74699000D01*
X114426000Y-77101000D01*
X114426000Y-77101000D01*
G37*
G36*
X120719552Y-74878207D02*
G01*
X120755898Y-74889232D01*
X120789401Y-74907140D01*
X120818763Y-74931237D01*
X120842860Y-74960599D01*
X120860768Y-74994102D01*
X120871793Y-75030448D01*
X120876000Y-75073158D01*
X120876000Y-75726842D01*
X120871793Y-75769552D01*
X120860768Y-75805898D01*
X120842860Y-75839401D01*
X120818763Y-75868763D01*
X120789401Y-75892860D01*
X120755898Y-75910768D01*
X120719552Y-75921793D01*
X120676842Y-75926000D01*
X120098158Y-75926000D01*
X120055448Y-75921793D01*
X120019102Y-75910768D01*
X119985599Y-75892860D01*
X119956237Y-75868763D01*
X119932140Y-75839401D01*
X119914232Y-75805898D01*
X119903207Y-75769552D01*
X119899000Y-75726842D01*
X119899000Y-75073158D01*
X119903207Y-75030448D01*
X119914232Y-74994102D01*
X119932140Y-74960599D01*
X119956237Y-74931237D01*
X119985599Y-74907140D01*
X120019102Y-74889232D01*
X120055448Y-74878207D01*
X120098158Y-74874000D01*
X120676842Y-74874000D01*
X120719552Y-74878207D01*
X120719552Y-74878207D01*
G37*
G36*
X119144552Y-74878207D02*
G01*
X119180898Y-74889232D01*
X119214401Y-74907140D01*
X119243763Y-74931237D01*
X119267860Y-74960599D01*
X119285768Y-74994102D01*
X119296793Y-75030448D01*
X119301000Y-75073158D01*
X119301000Y-75726842D01*
X119296793Y-75769552D01*
X119285768Y-75805898D01*
X119267860Y-75839401D01*
X119243763Y-75868763D01*
X119214401Y-75892860D01*
X119180898Y-75910768D01*
X119144552Y-75921793D01*
X119101842Y-75926000D01*
X118523158Y-75926000D01*
X118480448Y-75921793D01*
X118444102Y-75910768D01*
X118410599Y-75892860D01*
X118381237Y-75868763D01*
X118357140Y-75839401D01*
X118339232Y-75805898D01*
X118328207Y-75769552D01*
X118324000Y-75726842D01*
X118324000Y-75073158D01*
X118328207Y-75030448D01*
X118339232Y-74994102D01*
X118357140Y-74960599D01*
X118381237Y-74931237D01*
X118410599Y-74907140D01*
X118444102Y-74889232D01*
X118480448Y-74878207D01*
X118523158Y-74874000D01*
X119101842Y-74874000D01*
X119144552Y-74878207D01*
X119144552Y-74878207D01*
G37*
G36*
X113169552Y-74628207D02*
G01*
X113205898Y-74639232D01*
X113239401Y-74657140D01*
X113268763Y-74681237D01*
X113292860Y-74710599D01*
X113310768Y-74744102D01*
X113321793Y-74780448D01*
X113326000Y-74823158D01*
X113326000Y-75401842D01*
X113321793Y-75444552D01*
X113310768Y-75480898D01*
X113292860Y-75514401D01*
X113268763Y-75543763D01*
X113239401Y-75567860D01*
X113205898Y-75585768D01*
X113169552Y-75596793D01*
X113126842Y-75601000D01*
X112473158Y-75601000D01*
X112430448Y-75596793D01*
X112394102Y-75585768D01*
X112360599Y-75567860D01*
X112331237Y-75543763D01*
X112307140Y-75514401D01*
X112289232Y-75480898D01*
X112278207Y-75444552D01*
X112274000Y-75401842D01*
X112274000Y-74823158D01*
X112278207Y-74780448D01*
X112289232Y-74744102D01*
X112307140Y-74710599D01*
X112331237Y-74681237D01*
X112360599Y-74657140D01*
X112394102Y-74639232D01*
X112430448Y-74628207D01*
X112473158Y-74624000D01*
X113126842Y-74624000D01*
X113169552Y-74628207D01*
X113169552Y-74628207D01*
G37*
G36*
X106481579Y-71912447D02*
G01*
X106782042Y-72036903D01*
X107052451Y-72217585D01*
X107282415Y-72447549D01*
X107463097Y-72717958D01*
X107587553Y-73018421D01*
X107651000Y-73337391D01*
X107651000Y-73662609D01*
X107587553Y-73981579D01*
X107463097Y-74282042D01*
X107282415Y-74552451D01*
X107052451Y-74782415D01*
X106782042Y-74963097D01*
X106481579Y-75087553D01*
X106162609Y-75151000D01*
X105837391Y-75151000D01*
X105518421Y-75087553D01*
X105217958Y-74963097D01*
X104947549Y-74782415D01*
X104717585Y-74552451D01*
X104536903Y-74282042D01*
X104412447Y-73981579D01*
X104349000Y-73662609D01*
X104349000Y-73337391D01*
X104412447Y-73018421D01*
X104536903Y-72717958D01*
X104717585Y-72447549D01*
X104947549Y-72217585D01*
X105217958Y-72036903D01*
X105518421Y-71912447D01*
X105837391Y-71849000D01*
X106162609Y-71849000D01*
X106481579Y-71912447D01*
X106481579Y-71912447D01*
G37*
G36*
X114469552Y-73115707D02*
G01*
X114505898Y-73126732D01*
X114539401Y-73144640D01*
X114568763Y-73168737D01*
X114592860Y-73198099D01*
X114610768Y-73231602D01*
X114621793Y-73267948D01*
X114626000Y-73310658D01*
X114626000Y-73889342D01*
X114621793Y-73932052D01*
X114610768Y-73968398D01*
X114592860Y-74001901D01*
X114568763Y-74031263D01*
X114539401Y-74055360D01*
X114505898Y-74073268D01*
X114469552Y-74084293D01*
X114426842Y-74088500D01*
X113773158Y-74088500D01*
X113730448Y-74084293D01*
X113694102Y-74073268D01*
X113660599Y-74055360D01*
X113631237Y-74031263D01*
X113607140Y-74001901D01*
X113589232Y-73968398D01*
X113578207Y-73932052D01*
X113574000Y-73889342D01*
X113574000Y-73310658D01*
X113578207Y-73267948D01*
X113589232Y-73231602D01*
X113607140Y-73198099D01*
X113631237Y-73168737D01*
X113660599Y-73144640D01*
X113694102Y-73126732D01*
X113730448Y-73115707D01*
X113773158Y-73111500D01*
X114426842Y-73111500D01*
X114469552Y-73115707D01*
X114469552Y-73115707D01*
G37*
G36*
X114469552Y-71540707D02*
G01*
X114505898Y-71551732D01*
X114539401Y-71569640D01*
X114568763Y-71593737D01*
X114592860Y-71623099D01*
X114610768Y-71656602D01*
X114621793Y-71692948D01*
X114626000Y-71735658D01*
X114626000Y-72314342D01*
X114621793Y-72357052D01*
X114610768Y-72393398D01*
X114592860Y-72426901D01*
X114568763Y-72456263D01*
X114539401Y-72480360D01*
X114505898Y-72498268D01*
X114469552Y-72509293D01*
X114426842Y-72513500D01*
X113773158Y-72513500D01*
X113730448Y-72509293D01*
X113694102Y-72498268D01*
X113660599Y-72480360D01*
X113631237Y-72456263D01*
X113607140Y-72426901D01*
X113589232Y-72393398D01*
X113578207Y-72357052D01*
X113574000Y-72314342D01*
X113574000Y-71735658D01*
X113578207Y-71692948D01*
X113589232Y-71656602D01*
X113607140Y-71623099D01*
X113631237Y-71593737D01*
X113660599Y-71569640D01*
X113694102Y-71551732D01*
X113730448Y-71540707D01*
X113773158Y-71536500D01*
X114426842Y-71536500D01*
X114469552Y-71540707D01*
X114469552Y-71540707D01*
G37*
M02*
