G04 #@! TF.GenerationSoftware,KiCad,Pcbnew,(5.1.4)-1*
G04 #@! TF.CreationDate,2019-11-29T20:46:52-07:00*
G04 #@! TF.ProjectId,CruiseController,43727569-7365-4436-9f6e-74726f6c6c65,rev?*
G04 #@! TF.SameCoordinates,Original*
G04 #@! TF.FileFunction,Soldermask,Bot*
G04 #@! TF.FilePolarity,Negative*
%FSLAX46Y46*%
G04 Gerber Fmt 4.6, Leading zero omitted, Abs format (unit mm)*
G04 Created by KiCad (PCBNEW (5.1.4)-1) date 2019-11-29 20:46:52*
%MOMM*%
%LPD*%
G04 APERTURE LIST*
%ADD10C,0.100000*%
G04 APERTURE END LIST*
D10*
G36*
X118530476Y-104809261D02*
G01*
X118633645Y-104829782D01*
X118719036Y-104865153D01*
X118779416Y-104890163D01*
X118910608Y-104977822D01*
X119022178Y-105089392D01*
X119109837Y-105220584D01*
X119134847Y-105280964D01*
X119170218Y-105366355D01*
X119201000Y-105521109D01*
X119201000Y-105678891D01*
X119170218Y-105833645D01*
X119134847Y-105919036D01*
X119109837Y-105979416D01*
X119109836Y-105979417D01*
X119037584Y-106087552D01*
X119022178Y-106110608D01*
X118910608Y-106222178D01*
X118779416Y-106309837D01*
X118719036Y-106334847D01*
X118633645Y-106370218D01*
X118530476Y-106390739D01*
X118478892Y-106401000D01*
X118321108Y-106401000D01*
X118269524Y-106390739D01*
X118166355Y-106370218D01*
X118080964Y-106334847D01*
X118020584Y-106309837D01*
X117889392Y-106222178D01*
X117777822Y-106110608D01*
X117762417Y-106087552D01*
X117690164Y-105979417D01*
X117690163Y-105979416D01*
X117665153Y-105919036D01*
X117629782Y-105833645D01*
X117599000Y-105678891D01*
X117599000Y-105521109D01*
X117629782Y-105366355D01*
X117665153Y-105280964D01*
X117690163Y-105220584D01*
X117777822Y-105089392D01*
X117889392Y-104977822D01*
X118020584Y-104890163D01*
X118080964Y-104865153D01*
X118166355Y-104829782D01*
X118269524Y-104809261D01*
X118321108Y-104799000D01*
X118478892Y-104799000D01*
X118530476Y-104809261D01*
X118530476Y-104809261D01*
G37*
G36*
X106481579Y-102912447D02*
G01*
X106782042Y-103036903D01*
X107052451Y-103217585D01*
X107282415Y-103447549D01*
X107463097Y-103717958D01*
X107587553Y-104018421D01*
X107651000Y-104337391D01*
X107651000Y-104662609D01*
X107587553Y-104981579D01*
X107463097Y-105282042D01*
X107282415Y-105552451D01*
X107052451Y-105782415D01*
X106782042Y-105963097D01*
X106481579Y-106087553D01*
X106162609Y-106151000D01*
X105837391Y-106151000D01*
X105518421Y-106087553D01*
X105217958Y-105963097D01*
X104947549Y-105782415D01*
X104717585Y-105552451D01*
X104536903Y-105282042D01*
X104412447Y-104981579D01*
X104349000Y-104662609D01*
X104349000Y-104337391D01*
X104412447Y-104018421D01*
X104536903Y-103717958D01*
X104717585Y-103447549D01*
X104947549Y-103217585D01*
X105217958Y-103036903D01*
X105518421Y-102912447D01*
X105837391Y-102849000D01*
X106162609Y-102849000D01*
X106481579Y-102912447D01*
X106481579Y-102912447D01*
G37*
G36*
X111256554Y-102928518D02*
G01*
X111295931Y-102940463D01*
X111332226Y-102959863D01*
X111364033Y-102985967D01*
X111390137Y-103017774D01*
X111409537Y-103054069D01*
X111421482Y-103093446D01*
X111426000Y-103139317D01*
X111426000Y-104060683D01*
X111421482Y-104106554D01*
X111409537Y-104145931D01*
X111390137Y-104182226D01*
X111364033Y-104214033D01*
X111332226Y-104240137D01*
X111295931Y-104259537D01*
X111256554Y-104271482D01*
X111210683Y-104276000D01*
X109789317Y-104276000D01*
X109743446Y-104271482D01*
X109704069Y-104259537D01*
X109667774Y-104240137D01*
X109635967Y-104214033D01*
X109609863Y-104182226D01*
X109590463Y-104145931D01*
X109578518Y-104106554D01*
X109574000Y-104060683D01*
X109574000Y-103139317D01*
X109578518Y-103093446D01*
X109590463Y-103054069D01*
X109609863Y-103017774D01*
X109635967Y-102985967D01*
X109667774Y-102959863D01*
X109704069Y-102940463D01*
X109743446Y-102928518D01*
X109789317Y-102924000D01*
X111210683Y-102924000D01*
X111256554Y-102928518D01*
X111256554Y-102928518D01*
G37*
G36*
X119969552Y-103011207D02*
G01*
X120005898Y-103022232D01*
X120039401Y-103040140D01*
X120068763Y-103064237D01*
X120092860Y-103093599D01*
X120110768Y-103127102D01*
X120121793Y-103163448D01*
X120126000Y-103206158D01*
X120126000Y-103784842D01*
X120121793Y-103827552D01*
X120110768Y-103863898D01*
X120092860Y-103897401D01*
X120068763Y-103926763D01*
X120039401Y-103950860D01*
X120005898Y-103968768D01*
X119969552Y-103979793D01*
X119926842Y-103984000D01*
X119273158Y-103984000D01*
X119230448Y-103979793D01*
X119194102Y-103968768D01*
X119160599Y-103950860D01*
X119131237Y-103926763D01*
X119107140Y-103897401D01*
X119089232Y-103863898D01*
X119078207Y-103827552D01*
X119074000Y-103784842D01*
X119074000Y-103206158D01*
X119078207Y-103163448D01*
X119089232Y-103127102D01*
X119107140Y-103093599D01*
X119131237Y-103064237D01*
X119160599Y-103040140D01*
X119194102Y-103022232D01*
X119230448Y-103011207D01*
X119273158Y-103007000D01*
X119926842Y-103007000D01*
X119969552Y-103011207D01*
X119969552Y-103011207D01*
G37*
G36*
X115569552Y-102003207D02*
G01*
X115605898Y-102014232D01*
X115639401Y-102032140D01*
X115668763Y-102056237D01*
X115692860Y-102085599D01*
X115710768Y-102119102D01*
X115721793Y-102155448D01*
X115726000Y-102198158D01*
X115726000Y-102776842D01*
X115721793Y-102819552D01*
X115710768Y-102855898D01*
X115692860Y-102889401D01*
X115668763Y-102918763D01*
X115639401Y-102942860D01*
X115605898Y-102960768D01*
X115569552Y-102971793D01*
X115526842Y-102976000D01*
X114873158Y-102976000D01*
X114830448Y-102971793D01*
X114794102Y-102960768D01*
X114760599Y-102942860D01*
X114731237Y-102918763D01*
X114707140Y-102889401D01*
X114689232Y-102855898D01*
X114678207Y-102819552D01*
X114674000Y-102776842D01*
X114674000Y-102198158D01*
X114678207Y-102155448D01*
X114689232Y-102119102D01*
X114707140Y-102085599D01*
X114731237Y-102056237D01*
X114760599Y-102032140D01*
X114794102Y-102014232D01*
X114830448Y-102003207D01*
X114873158Y-101999000D01*
X115526842Y-101999000D01*
X115569552Y-102003207D01*
X115569552Y-102003207D01*
G37*
G36*
X119969552Y-101436207D02*
G01*
X120005898Y-101447232D01*
X120039401Y-101465140D01*
X120068763Y-101489237D01*
X120092860Y-101518599D01*
X120110768Y-101552102D01*
X120121793Y-101588448D01*
X120126000Y-101631158D01*
X120126000Y-102209842D01*
X120121793Y-102252552D01*
X120110768Y-102288898D01*
X120092860Y-102322401D01*
X120068763Y-102351763D01*
X120039401Y-102375860D01*
X120005898Y-102393768D01*
X119969552Y-102404793D01*
X119926842Y-102409000D01*
X119273158Y-102409000D01*
X119230448Y-102404793D01*
X119194102Y-102393768D01*
X119160599Y-102375860D01*
X119131237Y-102351763D01*
X119107140Y-102322401D01*
X119089232Y-102288898D01*
X119078207Y-102252552D01*
X119074000Y-102209842D01*
X119074000Y-101631158D01*
X119078207Y-101588448D01*
X119089232Y-101552102D01*
X119107140Y-101518599D01*
X119131237Y-101489237D01*
X119160599Y-101465140D01*
X119194102Y-101447232D01*
X119230448Y-101436207D01*
X119273158Y-101432000D01*
X119926842Y-101432000D01*
X119969552Y-101436207D01*
X119969552Y-101436207D01*
G37*
G36*
X111256554Y-100128518D02*
G01*
X111295931Y-100140463D01*
X111332226Y-100159863D01*
X111364033Y-100185967D01*
X111390137Y-100217774D01*
X111409537Y-100254069D01*
X111421482Y-100293446D01*
X111426000Y-100339317D01*
X111426000Y-101260683D01*
X111421482Y-101306554D01*
X111409537Y-101345931D01*
X111390137Y-101382226D01*
X111364033Y-101414033D01*
X111332226Y-101440137D01*
X111295931Y-101459537D01*
X111256554Y-101471482D01*
X111210683Y-101476000D01*
X109789317Y-101476000D01*
X109743446Y-101471482D01*
X109704069Y-101459537D01*
X109667774Y-101440137D01*
X109635967Y-101414033D01*
X109609863Y-101382226D01*
X109590463Y-101345931D01*
X109578518Y-101306554D01*
X109574000Y-101260683D01*
X109574000Y-100339317D01*
X109578518Y-100293446D01*
X109590463Y-100254069D01*
X109609863Y-100217774D01*
X109635967Y-100185967D01*
X109667774Y-100159863D01*
X109704069Y-100140463D01*
X109743446Y-100128518D01*
X109789317Y-100124000D01*
X111210683Y-100124000D01*
X111256554Y-100128518D01*
X111256554Y-100128518D01*
G37*
G36*
X105207052Y-100378207D02*
G01*
X105243398Y-100389232D01*
X105276901Y-100407140D01*
X105306263Y-100431237D01*
X105330360Y-100460599D01*
X105348268Y-100494102D01*
X105359293Y-100530448D01*
X105363500Y-100573158D01*
X105363500Y-101226842D01*
X105359293Y-101269552D01*
X105348268Y-101305898D01*
X105330360Y-101339401D01*
X105306263Y-101368763D01*
X105276901Y-101392860D01*
X105243398Y-101410768D01*
X105207052Y-101421793D01*
X105164342Y-101426000D01*
X104585658Y-101426000D01*
X104542948Y-101421793D01*
X104506602Y-101410768D01*
X104473099Y-101392860D01*
X104443737Y-101368763D01*
X104419640Y-101339401D01*
X104401732Y-101305898D01*
X104390707Y-101269552D01*
X104386500Y-101226842D01*
X104386500Y-100573158D01*
X104390707Y-100530448D01*
X104401732Y-100494102D01*
X104419640Y-100460599D01*
X104443737Y-100431237D01*
X104473099Y-100407140D01*
X104506602Y-100389232D01*
X104542948Y-100378207D01*
X104585658Y-100374000D01*
X105164342Y-100374000D01*
X105207052Y-100378207D01*
X105207052Y-100378207D01*
G37*
G36*
X103632052Y-100378207D02*
G01*
X103668398Y-100389232D01*
X103701901Y-100407140D01*
X103731263Y-100431237D01*
X103755360Y-100460599D01*
X103773268Y-100494102D01*
X103784293Y-100530448D01*
X103788500Y-100573158D01*
X103788500Y-101226842D01*
X103784293Y-101269552D01*
X103773268Y-101305898D01*
X103755360Y-101339401D01*
X103731263Y-101368763D01*
X103701901Y-101392860D01*
X103668398Y-101410768D01*
X103632052Y-101421793D01*
X103589342Y-101426000D01*
X103010658Y-101426000D01*
X102967948Y-101421793D01*
X102931602Y-101410768D01*
X102898099Y-101392860D01*
X102868737Y-101368763D01*
X102844640Y-101339401D01*
X102826732Y-101305898D01*
X102815707Y-101269552D01*
X102811500Y-101226842D01*
X102811500Y-100573158D01*
X102815707Y-100530448D01*
X102826732Y-100494102D01*
X102844640Y-100460599D01*
X102868737Y-100431237D01*
X102898099Y-100407140D01*
X102931602Y-100389232D01*
X102967948Y-100378207D01*
X103010658Y-100374000D01*
X103589342Y-100374000D01*
X103632052Y-100378207D01*
X103632052Y-100378207D01*
G37*
G36*
X115569552Y-100428207D02*
G01*
X115605898Y-100439232D01*
X115639401Y-100457140D01*
X115668763Y-100481237D01*
X115692860Y-100510599D01*
X115710768Y-100544102D01*
X115721793Y-100580448D01*
X115726000Y-100623158D01*
X115726000Y-101201842D01*
X115721793Y-101244552D01*
X115710768Y-101280898D01*
X115692860Y-101314401D01*
X115668763Y-101343763D01*
X115639401Y-101367860D01*
X115605898Y-101385768D01*
X115569552Y-101396793D01*
X115526842Y-101401000D01*
X114873158Y-101401000D01*
X114830448Y-101396793D01*
X114794102Y-101385768D01*
X114760599Y-101367860D01*
X114731237Y-101343763D01*
X114707140Y-101314401D01*
X114689232Y-101280898D01*
X114678207Y-101244552D01*
X114674000Y-101201842D01*
X114674000Y-100623158D01*
X114678207Y-100580448D01*
X114689232Y-100544102D01*
X114707140Y-100510599D01*
X114731237Y-100481237D01*
X114760599Y-100457140D01*
X114794102Y-100439232D01*
X114830448Y-100428207D01*
X114873158Y-100424000D01*
X115526842Y-100424000D01*
X115569552Y-100428207D01*
X115569552Y-100428207D01*
G37*
G36*
X114169552Y-100415707D02*
G01*
X114205898Y-100426732D01*
X114239401Y-100444640D01*
X114268763Y-100468737D01*
X114292860Y-100498099D01*
X114310768Y-100531602D01*
X114321793Y-100567948D01*
X114326000Y-100610658D01*
X114326000Y-101189342D01*
X114321793Y-101232052D01*
X114310768Y-101268398D01*
X114292860Y-101301901D01*
X114268763Y-101331263D01*
X114239401Y-101355360D01*
X114205898Y-101373268D01*
X114169552Y-101384293D01*
X114126842Y-101388500D01*
X113473158Y-101388500D01*
X113430448Y-101384293D01*
X113394102Y-101373268D01*
X113360599Y-101355360D01*
X113331237Y-101331263D01*
X113307140Y-101301901D01*
X113289232Y-101268398D01*
X113278207Y-101232052D01*
X113274000Y-101189342D01*
X113274000Y-100610658D01*
X113278207Y-100567948D01*
X113289232Y-100531602D01*
X113307140Y-100498099D01*
X113331237Y-100468737D01*
X113360599Y-100444640D01*
X113394102Y-100426732D01*
X113430448Y-100415707D01*
X113473158Y-100411500D01*
X114126842Y-100411500D01*
X114169552Y-100415707D01*
X114169552Y-100415707D01*
G37*
G36*
X121319552Y-100223707D02*
G01*
X121355898Y-100234732D01*
X121389401Y-100252640D01*
X121418763Y-100276737D01*
X121442860Y-100306099D01*
X121460768Y-100339602D01*
X121471793Y-100375948D01*
X121476000Y-100418658D01*
X121476000Y-100997342D01*
X121471793Y-101040052D01*
X121460768Y-101076398D01*
X121442860Y-101109901D01*
X121418763Y-101139263D01*
X121389401Y-101163360D01*
X121355898Y-101181268D01*
X121319552Y-101192293D01*
X121276842Y-101196500D01*
X120623158Y-101196500D01*
X120580448Y-101192293D01*
X120544102Y-101181268D01*
X120510599Y-101163360D01*
X120481237Y-101139263D01*
X120457140Y-101109901D01*
X120439232Y-101076398D01*
X120428207Y-101040052D01*
X120424000Y-100997342D01*
X120424000Y-100418658D01*
X120428207Y-100375948D01*
X120439232Y-100339602D01*
X120457140Y-100306099D01*
X120481237Y-100276737D01*
X120510599Y-100252640D01*
X120544102Y-100234732D01*
X120580448Y-100223707D01*
X120623158Y-100219500D01*
X121276842Y-100219500D01*
X121319552Y-100223707D01*
X121319552Y-100223707D01*
G37*
G36*
X119919552Y-100078207D02*
G01*
X119955898Y-100089232D01*
X119989401Y-100107140D01*
X120018763Y-100131237D01*
X120042860Y-100160599D01*
X120060768Y-100194102D01*
X120071793Y-100230448D01*
X120076000Y-100273158D01*
X120076000Y-100926842D01*
X120071793Y-100969552D01*
X120060768Y-101005898D01*
X120042860Y-101039401D01*
X120018763Y-101068763D01*
X119989401Y-101092860D01*
X119955898Y-101110768D01*
X119919552Y-101121793D01*
X119876842Y-101126000D01*
X119298158Y-101126000D01*
X119255448Y-101121793D01*
X119219102Y-101110768D01*
X119185599Y-101092860D01*
X119156237Y-101068763D01*
X119132140Y-101039401D01*
X119114232Y-101005898D01*
X119103207Y-100969552D01*
X119099000Y-100926842D01*
X119099000Y-100273158D01*
X119103207Y-100230448D01*
X119114232Y-100194102D01*
X119132140Y-100160599D01*
X119156237Y-100131237D01*
X119185599Y-100107140D01*
X119219102Y-100089232D01*
X119255448Y-100078207D01*
X119298158Y-100074000D01*
X119876842Y-100074000D01*
X119919552Y-100078207D01*
X119919552Y-100078207D01*
G37*
G36*
X118344552Y-100078207D02*
G01*
X118380898Y-100089232D01*
X118414401Y-100107140D01*
X118443763Y-100131237D01*
X118467860Y-100160599D01*
X118485768Y-100194102D01*
X118496793Y-100230448D01*
X118501000Y-100273158D01*
X118501000Y-100926842D01*
X118496793Y-100969552D01*
X118485768Y-101005898D01*
X118467860Y-101039401D01*
X118443763Y-101068763D01*
X118414401Y-101092860D01*
X118380898Y-101110768D01*
X118344552Y-101121793D01*
X118301842Y-101126000D01*
X117723158Y-101126000D01*
X117680448Y-101121793D01*
X117644102Y-101110768D01*
X117610599Y-101092860D01*
X117581237Y-101068763D01*
X117557140Y-101039401D01*
X117539232Y-101005898D01*
X117528207Y-100969552D01*
X117524000Y-100926842D01*
X117524000Y-100273158D01*
X117528207Y-100230448D01*
X117539232Y-100194102D01*
X117557140Y-100160599D01*
X117581237Y-100131237D01*
X117610599Y-100107140D01*
X117644102Y-100089232D01*
X117680448Y-100078207D01*
X117723158Y-100074000D01*
X118301842Y-100074000D01*
X118344552Y-100078207D01*
X118344552Y-100078207D01*
G37*
G36*
X107649581Y-98162081D02*
G01*
X107748228Y-98181703D01*
X107903100Y-98245853D01*
X108042481Y-98338985D01*
X108161015Y-98457519D01*
X108254147Y-98596900D01*
X108318297Y-98751772D01*
X108351000Y-98916184D01*
X108351000Y-99083816D01*
X108318297Y-99248228D01*
X108254147Y-99403100D01*
X108161015Y-99542481D01*
X108042481Y-99661015D01*
X107903100Y-99754147D01*
X107748228Y-99818297D01*
X107649581Y-99837919D01*
X107583818Y-99851000D01*
X107416182Y-99851000D01*
X107350419Y-99837919D01*
X107251772Y-99818297D01*
X107096900Y-99754147D01*
X106957519Y-99661015D01*
X106838985Y-99542481D01*
X106745853Y-99403100D01*
X106681703Y-99248228D01*
X106649000Y-99083816D01*
X106649000Y-98916184D01*
X106681703Y-98751772D01*
X106745853Y-98596900D01*
X106838985Y-98457519D01*
X106957519Y-98338985D01*
X107096900Y-98245853D01*
X107251772Y-98181703D01*
X107350419Y-98162081D01*
X107416182Y-98149000D01*
X107583818Y-98149000D01*
X107649581Y-98162081D01*
X107649581Y-98162081D01*
G37*
G36*
X110649581Y-98162081D02*
G01*
X110748228Y-98181703D01*
X110903100Y-98245853D01*
X111042481Y-98338985D01*
X111161015Y-98457519D01*
X111254147Y-98596900D01*
X111318297Y-98751772D01*
X111351000Y-98916184D01*
X111351000Y-99083816D01*
X111318297Y-99248228D01*
X111254147Y-99403100D01*
X111161015Y-99542481D01*
X111042481Y-99661015D01*
X110903100Y-99754147D01*
X110748228Y-99818297D01*
X110649581Y-99837919D01*
X110583818Y-99851000D01*
X110416182Y-99851000D01*
X110350419Y-99837919D01*
X110251772Y-99818297D01*
X110096900Y-99754147D01*
X109957519Y-99661015D01*
X109838985Y-99542481D01*
X109745853Y-99403100D01*
X109681703Y-99248228D01*
X109649000Y-99083816D01*
X109649000Y-98916184D01*
X109681703Y-98751772D01*
X109745853Y-98596900D01*
X109838985Y-98457519D01*
X109957519Y-98338985D01*
X110096900Y-98245853D01*
X110251772Y-98181703D01*
X110350419Y-98162081D01*
X110416182Y-98149000D01*
X110583818Y-98149000D01*
X110649581Y-98162081D01*
X110649581Y-98162081D01*
G37*
G36*
X117019552Y-98778207D02*
G01*
X117055898Y-98789232D01*
X117089401Y-98807140D01*
X117118763Y-98831237D01*
X117142860Y-98860599D01*
X117160768Y-98894102D01*
X117171793Y-98930448D01*
X117176000Y-98973158D01*
X117176000Y-99626842D01*
X117171793Y-99669552D01*
X117160768Y-99705898D01*
X117142860Y-99739401D01*
X117118763Y-99768763D01*
X117089401Y-99792860D01*
X117055898Y-99810768D01*
X117019552Y-99821793D01*
X116976842Y-99826000D01*
X116398158Y-99826000D01*
X116355448Y-99821793D01*
X116319102Y-99810768D01*
X116285599Y-99792860D01*
X116256237Y-99768763D01*
X116232140Y-99739401D01*
X116214232Y-99705898D01*
X116203207Y-99669552D01*
X116199000Y-99626842D01*
X116199000Y-98973158D01*
X116203207Y-98930448D01*
X116214232Y-98894102D01*
X116232140Y-98860599D01*
X116256237Y-98831237D01*
X116285599Y-98807140D01*
X116319102Y-98789232D01*
X116355448Y-98778207D01*
X116398158Y-98774000D01*
X116976842Y-98774000D01*
X117019552Y-98778207D01*
X117019552Y-98778207D01*
G37*
G36*
X115444552Y-98778207D02*
G01*
X115480898Y-98789232D01*
X115514401Y-98807140D01*
X115543763Y-98831237D01*
X115567860Y-98860599D01*
X115585768Y-98894102D01*
X115596793Y-98930448D01*
X115601000Y-98973158D01*
X115601000Y-99626842D01*
X115596793Y-99669552D01*
X115585768Y-99705898D01*
X115567860Y-99739401D01*
X115543763Y-99768763D01*
X115514401Y-99792860D01*
X115480898Y-99810768D01*
X115444552Y-99821793D01*
X115401842Y-99826000D01*
X114823158Y-99826000D01*
X114780448Y-99821793D01*
X114744102Y-99810768D01*
X114710599Y-99792860D01*
X114681237Y-99768763D01*
X114657140Y-99739401D01*
X114639232Y-99705898D01*
X114628207Y-99669552D01*
X114624000Y-99626842D01*
X114624000Y-98973158D01*
X114628207Y-98930448D01*
X114639232Y-98894102D01*
X114657140Y-98860599D01*
X114681237Y-98831237D01*
X114710599Y-98807140D01*
X114744102Y-98789232D01*
X114780448Y-98778207D01*
X114823158Y-98774000D01*
X115401842Y-98774000D01*
X115444552Y-98778207D01*
X115444552Y-98778207D01*
G37*
G36*
X114169552Y-98840707D02*
G01*
X114205898Y-98851732D01*
X114239401Y-98869640D01*
X114268763Y-98893737D01*
X114292860Y-98923099D01*
X114310768Y-98956602D01*
X114321793Y-98992948D01*
X114326000Y-99035658D01*
X114326000Y-99614342D01*
X114321793Y-99657052D01*
X114310768Y-99693398D01*
X114292860Y-99726901D01*
X114268763Y-99756263D01*
X114239401Y-99780360D01*
X114205898Y-99798268D01*
X114169552Y-99809293D01*
X114126842Y-99813500D01*
X113473158Y-99813500D01*
X113430448Y-99809293D01*
X113394102Y-99798268D01*
X113360599Y-99780360D01*
X113331237Y-99756263D01*
X113307140Y-99726901D01*
X113289232Y-99693398D01*
X113278207Y-99657052D01*
X113274000Y-99614342D01*
X113274000Y-99035658D01*
X113278207Y-98992948D01*
X113289232Y-98956602D01*
X113307140Y-98923099D01*
X113331237Y-98893737D01*
X113360599Y-98869640D01*
X113394102Y-98851732D01*
X113430448Y-98840707D01*
X113473158Y-98836500D01*
X114126842Y-98836500D01*
X114169552Y-98840707D01*
X114169552Y-98840707D01*
G37*
G36*
X119869552Y-98736207D02*
G01*
X119905898Y-98747232D01*
X119939401Y-98765140D01*
X119968763Y-98789237D01*
X119992860Y-98818599D01*
X120010768Y-98852102D01*
X120021793Y-98888448D01*
X120026000Y-98931158D01*
X120026000Y-99584842D01*
X120021793Y-99627552D01*
X120010768Y-99663898D01*
X119992860Y-99697401D01*
X119968763Y-99726763D01*
X119939401Y-99750860D01*
X119905898Y-99768768D01*
X119869552Y-99779793D01*
X119826842Y-99784000D01*
X119248158Y-99784000D01*
X119205448Y-99779793D01*
X119169102Y-99768768D01*
X119135599Y-99750860D01*
X119106237Y-99726763D01*
X119082140Y-99697401D01*
X119064232Y-99663898D01*
X119053207Y-99627552D01*
X119049000Y-99584842D01*
X119049000Y-98931158D01*
X119053207Y-98888448D01*
X119064232Y-98852102D01*
X119082140Y-98818599D01*
X119106237Y-98789237D01*
X119135599Y-98765140D01*
X119169102Y-98747232D01*
X119205448Y-98736207D01*
X119248158Y-98732000D01*
X119826842Y-98732000D01*
X119869552Y-98736207D01*
X119869552Y-98736207D01*
G37*
G36*
X118294552Y-98736207D02*
G01*
X118330898Y-98747232D01*
X118364401Y-98765140D01*
X118393763Y-98789237D01*
X118417860Y-98818599D01*
X118435768Y-98852102D01*
X118446793Y-98888448D01*
X118451000Y-98931158D01*
X118451000Y-99584842D01*
X118446793Y-99627552D01*
X118435768Y-99663898D01*
X118417860Y-99697401D01*
X118393763Y-99726763D01*
X118364401Y-99750860D01*
X118330898Y-99768768D01*
X118294552Y-99779793D01*
X118251842Y-99784000D01*
X117673158Y-99784000D01*
X117630448Y-99779793D01*
X117594102Y-99768768D01*
X117560599Y-99750860D01*
X117531237Y-99726763D01*
X117507140Y-99697401D01*
X117489232Y-99663898D01*
X117478207Y-99627552D01*
X117474000Y-99584842D01*
X117474000Y-98931158D01*
X117478207Y-98888448D01*
X117489232Y-98852102D01*
X117507140Y-98818599D01*
X117531237Y-98789237D01*
X117560599Y-98765140D01*
X117594102Y-98747232D01*
X117630448Y-98736207D01*
X117673158Y-98732000D01*
X118251842Y-98732000D01*
X118294552Y-98736207D01*
X118294552Y-98736207D01*
G37*
G36*
X121319552Y-98648707D02*
G01*
X121355898Y-98659732D01*
X121389401Y-98677640D01*
X121418763Y-98701737D01*
X121442860Y-98731099D01*
X121460768Y-98764602D01*
X121471793Y-98800948D01*
X121476000Y-98843658D01*
X121476000Y-99422342D01*
X121471793Y-99465052D01*
X121460768Y-99501398D01*
X121442860Y-99534901D01*
X121418763Y-99564263D01*
X121389401Y-99588360D01*
X121355898Y-99606268D01*
X121319552Y-99617293D01*
X121276842Y-99621500D01*
X120623158Y-99621500D01*
X120580448Y-99617293D01*
X120544102Y-99606268D01*
X120510599Y-99588360D01*
X120481237Y-99564263D01*
X120457140Y-99534901D01*
X120439232Y-99501398D01*
X120428207Y-99465052D01*
X120424000Y-99422342D01*
X120424000Y-98843658D01*
X120428207Y-98800948D01*
X120439232Y-98764602D01*
X120457140Y-98731099D01*
X120481237Y-98701737D01*
X120510599Y-98677640D01*
X120544102Y-98659732D01*
X120580448Y-98648707D01*
X120623158Y-98644500D01*
X121276842Y-98644500D01*
X121319552Y-98648707D01*
X121319552Y-98648707D01*
G37*
G36*
X105026000Y-99481000D02*
G01*
X102374000Y-99481000D01*
X102374000Y-98319000D01*
X105026000Y-98319000D01*
X105026000Y-99481000D01*
X105026000Y-99481000D01*
G37*
G36*
X114841000Y-94207001D02*
G01*
X114842921Y-94226510D01*
X114848612Y-94245269D01*
X114857853Y-94262557D01*
X114870289Y-94277711D01*
X114885443Y-94290147D01*
X114902731Y-94299388D01*
X114921490Y-94305079D01*
X114940999Y-94307000D01*
X115276000Y-94307000D01*
X115276000Y-94332600D01*
X115277921Y-94352109D01*
X115283612Y-94370868D01*
X115292853Y-94388156D01*
X115305289Y-94403310D01*
X115320443Y-94415746D01*
X115337731Y-94424987D01*
X115356490Y-94430678D01*
X115375999Y-94432599D01*
X115395508Y-94430678D01*
X115414267Y-94424987D01*
X115431555Y-94415746D01*
X115439439Y-94409900D01*
X115440781Y-94408798D01*
X115440789Y-94408789D01*
X115472766Y-94382547D01*
X115509248Y-94363047D01*
X115509250Y-94363046D01*
X115548830Y-94351040D01*
X115548833Y-94351039D01*
X115579685Y-94348000D01*
X116370000Y-94348000D01*
X116370000Y-94542780D01*
X116370480Y-94552556D01*
X116371016Y-94558000D01*
X116370480Y-94563444D01*
X116370000Y-94573220D01*
X116370000Y-95042780D01*
X116370480Y-95052556D01*
X116371016Y-95058000D01*
X116370480Y-95063444D01*
X116370000Y-95073220D01*
X116370000Y-95542780D01*
X116370480Y-95552556D01*
X116371016Y-95558000D01*
X116370480Y-95563444D01*
X116370000Y-95573220D01*
X116370000Y-96042780D01*
X116370480Y-96052556D01*
X116371016Y-96058000D01*
X116370480Y-96063444D01*
X116370000Y-96073220D01*
X116370000Y-96542780D01*
X116370480Y-96552556D01*
X116371016Y-96558000D01*
X116370480Y-96563444D01*
X116370000Y-96573220D01*
X116370000Y-96768000D01*
X115579685Y-96768000D01*
X115548833Y-96764961D01*
X115541462Y-96762725D01*
X115509250Y-96752954D01*
X115509248Y-96752953D01*
X115472766Y-96733453D01*
X115440789Y-96707211D01*
X115440781Y-96707202D01*
X115439439Y-96706100D01*
X115423139Y-96695209D01*
X115405028Y-96687707D01*
X115385802Y-96683883D01*
X115366199Y-96683882D01*
X115346972Y-96687707D01*
X115328861Y-96695208D01*
X115312561Y-96706099D01*
X115298699Y-96719960D01*
X115287808Y-96736260D01*
X115280306Y-96754371D01*
X115276482Y-96773597D01*
X115276000Y-96783400D01*
X115276000Y-96809000D01*
X114940999Y-96809000D01*
X114921490Y-96810921D01*
X114902731Y-96816612D01*
X114885443Y-96825853D01*
X114870289Y-96838289D01*
X114857853Y-96853443D01*
X114848612Y-96870731D01*
X114842921Y-96889490D01*
X114841000Y-96908999D01*
X114841000Y-97509000D01*
X113959000Y-97509000D01*
X113959000Y-96908999D01*
X113957079Y-96889490D01*
X113951388Y-96870731D01*
X113942147Y-96853443D01*
X113929711Y-96838289D01*
X113914557Y-96825853D01*
X113897269Y-96816612D01*
X113878510Y-96810921D01*
X113859001Y-96809000D01*
X113524000Y-96809000D01*
X113524000Y-96783400D01*
X113522079Y-96763891D01*
X113516388Y-96745132D01*
X113507147Y-96727844D01*
X113494711Y-96712690D01*
X113479557Y-96700254D01*
X113462269Y-96691013D01*
X113443510Y-96685322D01*
X113424001Y-96683401D01*
X113404492Y-96685322D01*
X113385733Y-96691013D01*
X113368445Y-96700254D01*
X113360561Y-96706100D01*
X113359219Y-96707202D01*
X113359211Y-96707211D01*
X113327234Y-96733453D01*
X113290752Y-96752953D01*
X113290750Y-96752954D01*
X113258538Y-96762725D01*
X113251167Y-96764961D01*
X113220315Y-96768000D01*
X112430000Y-96768000D01*
X112430000Y-96573220D01*
X112429520Y-96563444D01*
X112428984Y-96558000D01*
X112429520Y-96552556D01*
X112430000Y-96542780D01*
X112430000Y-96298200D01*
X113294509Y-96298200D01*
X113294510Y-96317804D01*
X113298334Y-96337030D01*
X113305837Y-96355141D01*
X113316728Y-96371440D01*
X113330585Y-96385297D01*
X113359211Y-96408789D01*
X113359216Y-96408795D01*
X113360561Y-96409899D01*
X113376860Y-96420790D01*
X113394971Y-96428293D01*
X113414197Y-96432117D01*
X113433801Y-96432118D01*
X113453027Y-96428294D01*
X113471138Y-96420792D01*
X113487438Y-96409902D01*
X113501300Y-96396040D01*
X113512191Y-96379741D01*
X113519694Y-96361630D01*
X113523518Y-96342404D01*
X113524000Y-96332600D01*
X113524000Y-96283400D01*
X115276000Y-96283400D01*
X115276000Y-96332600D01*
X115277921Y-96352109D01*
X115283612Y-96370868D01*
X115292853Y-96388156D01*
X115305289Y-96403310D01*
X115320443Y-96415746D01*
X115337731Y-96424987D01*
X115356490Y-96430678D01*
X115375999Y-96432599D01*
X115395508Y-96430678D01*
X115414267Y-96424987D01*
X115431555Y-96415746D01*
X115439439Y-96409899D01*
X115440784Y-96408795D01*
X115440789Y-96408789D01*
X115469415Y-96385297D01*
X115483275Y-96371437D01*
X115494165Y-96355137D01*
X115501667Y-96337026D01*
X115505491Y-96317800D01*
X115505490Y-96298196D01*
X115501666Y-96278970D01*
X115494163Y-96260859D01*
X115483272Y-96244560D01*
X115469413Y-96230701D01*
X115440789Y-96207211D01*
X115440784Y-96207205D01*
X115439439Y-96206101D01*
X115423140Y-96195210D01*
X115405029Y-96187707D01*
X115385803Y-96183883D01*
X115366199Y-96183882D01*
X115346973Y-96187706D01*
X115328862Y-96195208D01*
X115312562Y-96206098D01*
X115298700Y-96219960D01*
X115287809Y-96236259D01*
X115280306Y-96254370D01*
X115276482Y-96273596D01*
X115276000Y-96283400D01*
X113524000Y-96283400D01*
X113522079Y-96263891D01*
X113516388Y-96245132D01*
X113507147Y-96227844D01*
X113494711Y-96212690D01*
X113479557Y-96200254D01*
X113462269Y-96191013D01*
X113443510Y-96185322D01*
X113424001Y-96183401D01*
X113404492Y-96185322D01*
X113385733Y-96191013D01*
X113368445Y-96200254D01*
X113360561Y-96206101D01*
X113359216Y-96207205D01*
X113359211Y-96207211D01*
X113330587Y-96230701D01*
X113316725Y-96244563D01*
X113305835Y-96260863D01*
X113298333Y-96278974D01*
X113294509Y-96298200D01*
X112430000Y-96298200D01*
X112430000Y-96073220D01*
X112429520Y-96063444D01*
X112428984Y-96058000D01*
X112429520Y-96052556D01*
X112430000Y-96042780D01*
X112430000Y-95798200D01*
X113294509Y-95798200D01*
X113294510Y-95817804D01*
X113298334Y-95837030D01*
X113305837Y-95855141D01*
X113316728Y-95871440D01*
X113330585Y-95885297D01*
X113359211Y-95908789D01*
X113359216Y-95908795D01*
X113360561Y-95909899D01*
X113376860Y-95920790D01*
X113394971Y-95928293D01*
X113414197Y-95932117D01*
X113433801Y-95932118D01*
X113453027Y-95928294D01*
X113471138Y-95920792D01*
X113487438Y-95909902D01*
X113501300Y-95896040D01*
X113512191Y-95879741D01*
X113519694Y-95861630D01*
X113523518Y-95842404D01*
X113524000Y-95832600D01*
X113524000Y-95783400D01*
X115276000Y-95783400D01*
X115276000Y-95832600D01*
X115277921Y-95852109D01*
X115283612Y-95870868D01*
X115292853Y-95888156D01*
X115305289Y-95903310D01*
X115320443Y-95915746D01*
X115337731Y-95924987D01*
X115356490Y-95930678D01*
X115375999Y-95932599D01*
X115395508Y-95930678D01*
X115414267Y-95924987D01*
X115431555Y-95915746D01*
X115439439Y-95909899D01*
X115440784Y-95908795D01*
X115440789Y-95908789D01*
X115469415Y-95885297D01*
X115483275Y-95871437D01*
X115494165Y-95855137D01*
X115501667Y-95837026D01*
X115505491Y-95817800D01*
X115505490Y-95798196D01*
X115501666Y-95778970D01*
X115494163Y-95760859D01*
X115483272Y-95744560D01*
X115469413Y-95730701D01*
X115440789Y-95707211D01*
X115440784Y-95707205D01*
X115439439Y-95706101D01*
X115423140Y-95695210D01*
X115405029Y-95687707D01*
X115385803Y-95683883D01*
X115366199Y-95683882D01*
X115346973Y-95687706D01*
X115328862Y-95695208D01*
X115312562Y-95706098D01*
X115298700Y-95719960D01*
X115287809Y-95736259D01*
X115280306Y-95754370D01*
X115276482Y-95773596D01*
X115276000Y-95783400D01*
X113524000Y-95783400D01*
X113522079Y-95763891D01*
X113516388Y-95745132D01*
X113507147Y-95727844D01*
X113494711Y-95712690D01*
X113479557Y-95700254D01*
X113462269Y-95691013D01*
X113443510Y-95685322D01*
X113424001Y-95683401D01*
X113404492Y-95685322D01*
X113385733Y-95691013D01*
X113368445Y-95700254D01*
X113360561Y-95706101D01*
X113359216Y-95707205D01*
X113359211Y-95707211D01*
X113330587Y-95730701D01*
X113316725Y-95744563D01*
X113305835Y-95760863D01*
X113298333Y-95778974D01*
X113294509Y-95798200D01*
X112430000Y-95798200D01*
X112430000Y-95573220D01*
X112429520Y-95563444D01*
X112428984Y-95558000D01*
X112429520Y-95552556D01*
X112430000Y-95542780D01*
X112430000Y-95298200D01*
X113294509Y-95298200D01*
X113294510Y-95317804D01*
X113298334Y-95337030D01*
X113305837Y-95355141D01*
X113316728Y-95371440D01*
X113330585Y-95385297D01*
X113359211Y-95408789D01*
X113359216Y-95408795D01*
X113360561Y-95409899D01*
X113376860Y-95420790D01*
X113394971Y-95428293D01*
X113414197Y-95432117D01*
X113433801Y-95432118D01*
X113453027Y-95428294D01*
X113471138Y-95420792D01*
X113487438Y-95409902D01*
X113501300Y-95396040D01*
X113512191Y-95379741D01*
X113519694Y-95361630D01*
X113523518Y-95342404D01*
X113524000Y-95332600D01*
X113524000Y-95283400D01*
X115276000Y-95283400D01*
X115276000Y-95332600D01*
X115277921Y-95352109D01*
X115283612Y-95370868D01*
X115292853Y-95388156D01*
X115305289Y-95403310D01*
X115320443Y-95415746D01*
X115337731Y-95424987D01*
X115356490Y-95430678D01*
X115375999Y-95432599D01*
X115395508Y-95430678D01*
X115414267Y-95424987D01*
X115431555Y-95415746D01*
X115439439Y-95409899D01*
X115440784Y-95408795D01*
X115440789Y-95408789D01*
X115469415Y-95385297D01*
X115483275Y-95371437D01*
X115494165Y-95355137D01*
X115501667Y-95337026D01*
X115505491Y-95317800D01*
X115505490Y-95298196D01*
X115501666Y-95278970D01*
X115494163Y-95260859D01*
X115483272Y-95244560D01*
X115469413Y-95230701D01*
X115440789Y-95207211D01*
X115440784Y-95207205D01*
X115439439Y-95206101D01*
X115423140Y-95195210D01*
X115405029Y-95187707D01*
X115385803Y-95183883D01*
X115366199Y-95183882D01*
X115346973Y-95187706D01*
X115328862Y-95195208D01*
X115312562Y-95206098D01*
X115298700Y-95219960D01*
X115287809Y-95236259D01*
X115280306Y-95254370D01*
X115276482Y-95273596D01*
X115276000Y-95283400D01*
X113524000Y-95283400D01*
X113522079Y-95263891D01*
X113516388Y-95245132D01*
X113507147Y-95227844D01*
X113494711Y-95212690D01*
X113479557Y-95200254D01*
X113462269Y-95191013D01*
X113443510Y-95185322D01*
X113424001Y-95183401D01*
X113404492Y-95185322D01*
X113385733Y-95191013D01*
X113368445Y-95200254D01*
X113360561Y-95206101D01*
X113359216Y-95207205D01*
X113359211Y-95207211D01*
X113330587Y-95230701D01*
X113316725Y-95244563D01*
X113305835Y-95260863D01*
X113298333Y-95278974D01*
X113294509Y-95298200D01*
X112430000Y-95298200D01*
X112430000Y-95073220D01*
X112429520Y-95063444D01*
X112428984Y-95058000D01*
X112429520Y-95052556D01*
X112430000Y-95042780D01*
X112430000Y-94798200D01*
X113294509Y-94798200D01*
X113294510Y-94817804D01*
X113298334Y-94837030D01*
X113305837Y-94855141D01*
X113316728Y-94871440D01*
X113330585Y-94885297D01*
X113359211Y-94908789D01*
X113359216Y-94908795D01*
X113360561Y-94909899D01*
X113376860Y-94920790D01*
X113394971Y-94928293D01*
X113414197Y-94932117D01*
X113433801Y-94932118D01*
X113453027Y-94928294D01*
X113471138Y-94920792D01*
X113487438Y-94909902D01*
X113501300Y-94896040D01*
X113512191Y-94879741D01*
X113519694Y-94861630D01*
X113523518Y-94842404D01*
X113524000Y-94832600D01*
X113524000Y-94783400D01*
X115276000Y-94783400D01*
X115276000Y-94832600D01*
X115277921Y-94852109D01*
X115283612Y-94870868D01*
X115292853Y-94888156D01*
X115305289Y-94903310D01*
X115320443Y-94915746D01*
X115337731Y-94924987D01*
X115356490Y-94930678D01*
X115375999Y-94932599D01*
X115395508Y-94930678D01*
X115414267Y-94924987D01*
X115431555Y-94915746D01*
X115439439Y-94909899D01*
X115440784Y-94908795D01*
X115440789Y-94908789D01*
X115469415Y-94885297D01*
X115483275Y-94871437D01*
X115494165Y-94855137D01*
X115501667Y-94837026D01*
X115505491Y-94817800D01*
X115505490Y-94798196D01*
X115501666Y-94778970D01*
X115494163Y-94760859D01*
X115483272Y-94744560D01*
X115469413Y-94730701D01*
X115440789Y-94707211D01*
X115440784Y-94707205D01*
X115439439Y-94706101D01*
X115423140Y-94695210D01*
X115405029Y-94687707D01*
X115385803Y-94683883D01*
X115366199Y-94683882D01*
X115346973Y-94687706D01*
X115328862Y-94695208D01*
X115312562Y-94706098D01*
X115298700Y-94719960D01*
X115287809Y-94736259D01*
X115280306Y-94754370D01*
X115276482Y-94773596D01*
X115276000Y-94783400D01*
X113524000Y-94783400D01*
X113522079Y-94763891D01*
X113516388Y-94745132D01*
X113507147Y-94727844D01*
X113494711Y-94712690D01*
X113479557Y-94700254D01*
X113462269Y-94691013D01*
X113443510Y-94685322D01*
X113424001Y-94683401D01*
X113404492Y-94685322D01*
X113385733Y-94691013D01*
X113368445Y-94700254D01*
X113360561Y-94706101D01*
X113359216Y-94707205D01*
X113359211Y-94707211D01*
X113330587Y-94730701D01*
X113316725Y-94744563D01*
X113305835Y-94760863D01*
X113298333Y-94778974D01*
X113294509Y-94798200D01*
X112430000Y-94798200D01*
X112430000Y-94573220D01*
X112429520Y-94563444D01*
X112428984Y-94558000D01*
X112429520Y-94552556D01*
X112430000Y-94542780D01*
X112430000Y-94348000D01*
X113220315Y-94348000D01*
X113251167Y-94351039D01*
X113251170Y-94351040D01*
X113290750Y-94363046D01*
X113290752Y-94363047D01*
X113327234Y-94382547D01*
X113359211Y-94408789D01*
X113359219Y-94408798D01*
X113360561Y-94409900D01*
X113376861Y-94420791D01*
X113394972Y-94428293D01*
X113414198Y-94432117D01*
X113433801Y-94432118D01*
X113453028Y-94428293D01*
X113471139Y-94420792D01*
X113487439Y-94409901D01*
X113501301Y-94396040D01*
X113512192Y-94379740D01*
X113519694Y-94361629D01*
X113523518Y-94342403D01*
X113524000Y-94332600D01*
X113524000Y-94307000D01*
X113859001Y-94307000D01*
X113878510Y-94305079D01*
X113897269Y-94299388D01*
X113914557Y-94290147D01*
X113929711Y-94277711D01*
X113942147Y-94262557D01*
X113951388Y-94245269D01*
X113957079Y-94226510D01*
X113959000Y-94207001D01*
X113959000Y-93607000D01*
X114841000Y-93607000D01*
X114841000Y-94207001D01*
X114841000Y-94207001D01*
G37*
G36*
X118245317Y-93633204D02*
G01*
X118252356Y-93635340D01*
X118258844Y-93638807D01*
X118264527Y-93643472D01*
X118272699Y-93653429D01*
X118286561Y-93667291D01*
X118302860Y-93678182D01*
X118320971Y-93685684D01*
X118340198Y-93689508D01*
X118359801Y-93689509D01*
X118379028Y-93685684D01*
X118397139Y-93678182D01*
X118413438Y-93667292D01*
X118427301Y-93653429D01*
X118435473Y-93643472D01*
X118441156Y-93638807D01*
X118447644Y-93635340D01*
X118454683Y-93633204D01*
X118466910Y-93632000D01*
X118733090Y-93632000D01*
X118745317Y-93633204D01*
X118752356Y-93635340D01*
X118758844Y-93638807D01*
X118764527Y-93643472D01*
X118772699Y-93653429D01*
X118786561Y-93667291D01*
X118802860Y-93678182D01*
X118820971Y-93685684D01*
X118840198Y-93689508D01*
X118859801Y-93689509D01*
X118879028Y-93685684D01*
X118897139Y-93678182D01*
X118913438Y-93667292D01*
X118927301Y-93653429D01*
X118935473Y-93643472D01*
X118941156Y-93638807D01*
X118947644Y-93635340D01*
X118954683Y-93633204D01*
X118966910Y-93632000D01*
X119233090Y-93632000D01*
X119245317Y-93633204D01*
X119252356Y-93635340D01*
X119258844Y-93638807D01*
X119264527Y-93643472D01*
X119272699Y-93653429D01*
X119286561Y-93667291D01*
X119302860Y-93678182D01*
X119320971Y-93685684D01*
X119340198Y-93689508D01*
X119359801Y-93689509D01*
X119379028Y-93685684D01*
X119397139Y-93678182D01*
X119413438Y-93667292D01*
X119427301Y-93653429D01*
X119435473Y-93643472D01*
X119441156Y-93638807D01*
X119447644Y-93635340D01*
X119454683Y-93633204D01*
X119466910Y-93632000D01*
X119733090Y-93632000D01*
X119745317Y-93633204D01*
X119752356Y-93635340D01*
X119758844Y-93638807D01*
X119764528Y-93643472D01*
X119769193Y-93649156D01*
X119772660Y-93655644D01*
X119774796Y-93662683D01*
X119776000Y-93674910D01*
X119776000Y-94516091D01*
X119775280Y-94523401D01*
X119775279Y-94543004D01*
X119779104Y-94562230D01*
X119786605Y-94580341D01*
X119797496Y-94596641D01*
X119811358Y-94610503D01*
X119827657Y-94621394D01*
X119845768Y-94628896D01*
X119864995Y-94632720D01*
X119884599Y-94632720D01*
X119891909Y-94632000D01*
X120733090Y-94632000D01*
X120745317Y-94633204D01*
X120752356Y-94635340D01*
X120758844Y-94638807D01*
X120764528Y-94643472D01*
X120769193Y-94649156D01*
X120772660Y-94655644D01*
X120774796Y-94662683D01*
X120776000Y-94674910D01*
X120776000Y-94941090D01*
X120774796Y-94953317D01*
X120772660Y-94960356D01*
X120769193Y-94966844D01*
X120764528Y-94972527D01*
X120754571Y-94980699D01*
X120740709Y-94994561D01*
X120729818Y-95010860D01*
X120722316Y-95028971D01*
X120718492Y-95048198D01*
X120718491Y-95067801D01*
X120722316Y-95087028D01*
X120729818Y-95105139D01*
X120740708Y-95121438D01*
X120754571Y-95135301D01*
X120764528Y-95143473D01*
X120769193Y-95149156D01*
X120772660Y-95155644D01*
X120774796Y-95162683D01*
X120776000Y-95174910D01*
X120776000Y-95441090D01*
X120774796Y-95453317D01*
X120772660Y-95460356D01*
X120769193Y-95466844D01*
X120764528Y-95472527D01*
X120754571Y-95480699D01*
X120740709Y-95494561D01*
X120729818Y-95510860D01*
X120722316Y-95528971D01*
X120718492Y-95548198D01*
X120718491Y-95567801D01*
X120722316Y-95587028D01*
X120729818Y-95605139D01*
X120740708Y-95621438D01*
X120754571Y-95635301D01*
X120764528Y-95643473D01*
X120769193Y-95649156D01*
X120772660Y-95655644D01*
X120774796Y-95662683D01*
X120776000Y-95674910D01*
X120776000Y-95941090D01*
X120774796Y-95953317D01*
X120772660Y-95960356D01*
X120769193Y-95966844D01*
X120764528Y-95972527D01*
X120754571Y-95980699D01*
X120740709Y-95994561D01*
X120729818Y-96010860D01*
X120722316Y-96028971D01*
X120718492Y-96048198D01*
X120718491Y-96067801D01*
X120722316Y-96087028D01*
X120729818Y-96105139D01*
X120740708Y-96121438D01*
X120754571Y-96135301D01*
X120764528Y-96143473D01*
X120769193Y-96149156D01*
X120772660Y-96155644D01*
X120774796Y-96162683D01*
X120776000Y-96174910D01*
X120776000Y-96441090D01*
X120774796Y-96453317D01*
X120772660Y-96460356D01*
X120769193Y-96466844D01*
X120764528Y-96472528D01*
X120758844Y-96477193D01*
X120752356Y-96480660D01*
X120745317Y-96482796D01*
X120733090Y-96484000D01*
X119891909Y-96484000D01*
X119884599Y-96483280D01*
X119864996Y-96483279D01*
X119845770Y-96487104D01*
X119827659Y-96494605D01*
X119811359Y-96505496D01*
X119797497Y-96519358D01*
X119786606Y-96535657D01*
X119779104Y-96553768D01*
X119775280Y-96572995D01*
X119775280Y-96592599D01*
X119776000Y-96599909D01*
X119776000Y-97441090D01*
X119774796Y-97453317D01*
X119772660Y-97460356D01*
X119769193Y-97466844D01*
X119764528Y-97472528D01*
X119758844Y-97477193D01*
X119752356Y-97480660D01*
X119745317Y-97482796D01*
X119733090Y-97484000D01*
X119466910Y-97484000D01*
X119454683Y-97482796D01*
X119447644Y-97480660D01*
X119441156Y-97477193D01*
X119435473Y-97472528D01*
X119427301Y-97462571D01*
X119413439Y-97448709D01*
X119397140Y-97437818D01*
X119379029Y-97430316D01*
X119359802Y-97426492D01*
X119340199Y-97426491D01*
X119320972Y-97430316D01*
X119302861Y-97437818D01*
X119286562Y-97448708D01*
X119272699Y-97462571D01*
X119264527Y-97472528D01*
X119258844Y-97477193D01*
X119252356Y-97480660D01*
X119245317Y-97482796D01*
X119233090Y-97484000D01*
X118966910Y-97484000D01*
X118954683Y-97482796D01*
X118947644Y-97480660D01*
X118941156Y-97477193D01*
X118935473Y-97472528D01*
X118927301Y-97462571D01*
X118913439Y-97448709D01*
X118897140Y-97437818D01*
X118879029Y-97430316D01*
X118859802Y-97426492D01*
X118840199Y-97426491D01*
X118820972Y-97430316D01*
X118802861Y-97437818D01*
X118786562Y-97448708D01*
X118772699Y-97462571D01*
X118764527Y-97472528D01*
X118758844Y-97477193D01*
X118752356Y-97480660D01*
X118745317Y-97482796D01*
X118733090Y-97484000D01*
X118466910Y-97484000D01*
X118454683Y-97482796D01*
X118447644Y-97480660D01*
X118441156Y-97477193D01*
X118435473Y-97472528D01*
X118427301Y-97462571D01*
X118413439Y-97448709D01*
X118397140Y-97437818D01*
X118379029Y-97430316D01*
X118359802Y-97426492D01*
X118340199Y-97426491D01*
X118320972Y-97430316D01*
X118302861Y-97437818D01*
X118286562Y-97448708D01*
X118272699Y-97462571D01*
X118264527Y-97472528D01*
X118258844Y-97477193D01*
X118252356Y-97480660D01*
X118245317Y-97482796D01*
X118233090Y-97484000D01*
X117966910Y-97484000D01*
X117954683Y-97482796D01*
X117947644Y-97480660D01*
X117941156Y-97477193D01*
X117935472Y-97472528D01*
X117930807Y-97466844D01*
X117927340Y-97460356D01*
X117925204Y-97453317D01*
X117924000Y-97441090D01*
X117924000Y-96599909D01*
X117924720Y-96592599D01*
X117924721Y-96572996D01*
X117920896Y-96553770D01*
X117913395Y-96535659D01*
X117902504Y-96519359D01*
X117888642Y-96505497D01*
X117872343Y-96494606D01*
X117854232Y-96487104D01*
X117835005Y-96483280D01*
X117815401Y-96483280D01*
X117808091Y-96484000D01*
X116966910Y-96484000D01*
X116954683Y-96482796D01*
X116947644Y-96480660D01*
X116941156Y-96477193D01*
X116935472Y-96472528D01*
X116930807Y-96466844D01*
X116927340Y-96460356D01*
X116925204Y-96453317D01*
X116924000Y-96441090D01*
X116924000Y-96174910D01*
X116925204Y-96162683D01*
X116927340Y-96155644D01*
X116930807Y-96149156D01*
X116935472Y-96143473D01*
X116945429Y-96135301D01*
X116959291Y-96121439D01*
X116970182Y-96105140D01*
X116977684Y-96087029D01*
X116981508Y-96067802D01*
X116981509Y-96048199D01*
X116977684Y-96028972D01*
X116970182Y-96010861D01*
X116959292Y-95994562D01*
X116945429Y-95980699D01*
X116935472Y-95972527D01*
X116930807Y-95966844D01*
X116927340Y-95960356D01*
X116925204Y-95953317D01*
X116924000Y-95941090D01*
X116924000Y-95674910D01*
X116925204Y-95662683D01*
X116927340Y-95655644D01*
X116930807Y-95649156D01*
X116935472Y-95643473D01*
X116945429Y-95635301D01*
X116959291Y-95621439D01*
X116970182Y-95605140D01*
X116977684Y-95587029D01*
X116981508Y-95567802D01*
X116981509Y-95548199D01*
X116977684Y-95528972D01*
X116970182Y-95510861D01*
X116959292Y-95494562D01*
X116945429Y-95480699D01*
X116935472Y-95472527D01*
X116930807Y-95466844D01*
X116927340Y-95460356D01*
X116925204Y-95453317D01*
X116924000Y-95441090D01*
X116924000Y-95174910D01*
X116925204Y-95162683D01*
X116927340Y-95155644D01*
X116930807Y-95149156D01*
X116935472Y-95143473D01*
X116945429Y-95135301D01*
X116959291Y-95121439D01*
X116970182Y-95105140D01*
X116977684Y-95087029D01*
X116981508Y-95067802D01*
X116981509Y-95048199D01*
X116977684Y-95028972D01*
X116970182Y-95010861D01*
X116959292Y-94994562D01*
X116945429Y-94980699D01*
X116935472Y-94972527D01*
X116930807Y-94966844D01*
X116927340Y-94960356D01*
X116925204Y-94953317D01*
X116924000Y-94941090D01*
X116924000Y-94674910D01*
X116925204Y-94662683D01*
X116927340Y-94655644D01*
X116930807Y-94649156D01*
X116935472Y-94643472D01*
X116941156Y-94638807D01*
X116947644Y-94635340D01*
X116954683Y-94633204D01*
X116966910Y-94632000D01*
X117808091Y-94632000D01*
X117815401Y-94632720D01*
X117835004Y-94632721D01*
X117854230Y-94628896D01*
X117872341Y-94621395D01*
X117888641Y-94610504D01*
X117902503Y-94596642D01*
X117913394Y-94580343D01*
X117920896Y-94562232D01*
X117924720Y-94543005D01*
X117924720Y-94523401D01*
X117924000Y-94516091D01*
X117924000Y-93674910D01*
X117925204Y-93662683D01*
X117927340Y-93655644D01*
X117930807Y-93649156D01*
X117935472Y-93643472D01*
X117941156Y-93638807D01*
X117947644Y-93635340D01*
X117954683Y-93633204D01*
X117966910Y-93632000D01*
X118233090Y-93632000D01*
X118245317Y-93633204D01*
X118245317Y-93633204D01*
G37*
G36*
X107627932Y-95657775D02*
G01*
X107748228Y-95681703D01*
X107903100Y-95745853D01*
X108042481Y-95838985D01*
X108161015Y-95957519D01*
X108254147Y-96096900D01*
X108318297Y-96251772D01*
X108337438Y-96348000D01*
X108351000Y-96416182D01*
X108351000Y-96583818D01*
X108342245Y-96627832D01*
X108318297Y-96748228D01*
X108254147Y-96903100D01*
X108161015Y-97042481D01*
X108042481Y-97161015D01*
X107903100Y-97254147D01*
X107748228Y-97318297D01*
X107649581Y-97337919D01*
X107583818Y-97351000D01*
X107416182Y-97351000D01*
X107350419Y-97337919D01*
X107251772Y-97318297D01*
X107096900Y-97254147D01*
X106957519Y-97161015D01*
X106838985Y-97042481D01*
X106745853Y-96903100D01*
X106681703Y-96748228D01*
X106657755Y-96627832D01*
X106649000Y-96583818D01*
X106649000Y-96416182D01*
X106662562Y-96348000D01*
X106681703Y-96251772D01*
X106745853Y-96096900D01*
X106838985Y-95957519D01*
X106957519Y-95838985D01*
X107096900Y-95745853D01*
X107251772Y-95681703D01*
X107372068Y-95657775D01*
X107416182Y-95649000D01*
X107583818Y-95649000D01*
X107627932Y-95657775D01*
X107627932Y-95657775D01*
G37*
G36*
X110627932Y-95657775D02*
G01*
X110748228Y-95681703D01*
X110903100Y-95745853D01*
X111042481Y-95838985D01*
X111161015Y-95957519D01*
X111254147Y-96096900D01*
X111318297Y-96251772D01*
X111337438Y-96348000D01*
X111351000Y-96416182D01*
X111351000Y-96583818D01*
X111342245Y-96627832D01*
X111318297Y-96748228D01*
X111254147Y-96903100D01*
X111161015Y-97042481D01*
X111042481Y-97161015D01*
X110903100Y-97254147D01*
X110748228Y-97318297D01*
X110649581Y-97337919D01*
X110583818Y-97351000D01*
X110416182Y-97351000D01*
X110350419Y-97337919D01*
X110251772Y-97318297D01*
X110096900Y-97254147D01*
X109957519Y-97161015D01*
X109838985Y-97042481D01*
X109745853Y-96903100D01*
X109681703Y-96748228D01*
X109657755Y-96627832D01*
X109649000Y-96583818D01*
X109649000Y-96416182D01*
X109662562Y-96348000D01*
X109681703Y-96251772D01*
X109745853Y-96096900D01*
X109838985Y-95957519D01*
X109957519Y-95838985D01*
X110096900Y-95745853D01*
X110251772Y-95681703D01*
X110372068Y-95657775D01*
X110416182Y-95649000D01*
X110583818Y-95649000D01*
X110627932Y-95657775D01*
X110627932Y-95657775D01*
G37*
G36*
X105026000Y-97281000D02*
G01*
X104274000Y-97281000D01*
X104274000Y-96119000D01*
X105026000Y-96119000D01*
X105026000Y-97281000D01*
X105026000Y-97281000D01*
G37*
G36*
X103126000Y-97281000D02*
G01*
X102374000Y-97281000D01*
X102374000Y-96119000D01*
X103126000Y-96119000D01*
X103126000Y-97281000D01*
X103126000Y-97281000D01*
G37*
G36*
X103532052Y-94478207D02*
G01*
X103568398Y-94489232D01*
X103601901Y-94507140D01*
X103631263Y-94531237D01*
X103655360Y-94560599D01*
X103673268Y-94594102D01*
X103684293Y-94630448D01*
X103688500Y-94673158D01*
X103688500Y-95326842D01*
X103684293Y-95369552D01*
X103673268Y-95405898D01*
X103655360Y-95439401D01*
X103631263Y-95468763D01*
X103601901Y-95492860D01*
X103568398Y-95510768D01*
X103532052Y-95521793D01*
X103489342Y-95526000D01*
X102910658Y-95526000D01*
X102867948Y-95521793D01*
X102831602Y-95510768D01*
X102798099Y-95492860D01*
X102768737Y-95468763D01*
X102744640Y-95439401D01*
X102726732Y-95405898D01*
X102715707Y-95369552D01*
X102711500Y-95326842D01*
X102711500Y-94673158D01*
X102715707Y-94630448D01*
X102726732Y-94594102D01*
X102744640Y-94560599D01*
X102768737Y-94531237D01*
X102798099Y-94507140D01*
X102831602Y-94489232D01*
X102867948Y-94478207D01*
X102910658Y-94474000D01*
X103489342Y-94474000D01*
X103532052Y-94478207D01*
X103532052Y-94478207D01*
G37*
G36*
X101957052Y-94478207D02*
G01*
X101993398Y-94489232D01*
X102026901Y-94507140D01*
X102056263Y-94531237D01*
X102080360Y-94560599D01*
X102098268Y-94594102D01*
X102109293Y-94630448D01*
X102113500Y-94673158D01*
X102113500Y-95326842D01*
X102109293Y-95369552D01*
X102098268Y-95405898D01*
X102080360Y-95439401D01*
X102056263Y-95468763D01*
X102026901Y-95492860D01*
X101993398Y-95510768D01*
X101957052Y-95521793D01*
X101914342Y-95526000D01*
X101335658Y-95526000D01*
X101292948Y-95521793D01*
X101256602Y-95510768D01*
X101223099Y-95492860D01*
X101193737Y-95468763D01*
X101169640Y-95439401D01*
X101151732Y-95405898D01*
X101140707Y-95369552D01*
X101136500Y-95326842D01*
X101136500Y-94673158D01*
X101140707Y-94630448D01*
X101151732Y-94594102D01*
X101169640Y-94560599D01*
X101193737Y-94531237D01*
X101223099Y-94507140D01*
X101256602Y-94489232D01*
X101292948Y-94478207D01*
X101335658Y-94474000D01*
X101914342Y-94474000D01*
X101957052Y-94478207D01*
X101957052Y-94478207D01*
G37*
G36*
X110649581Y-93162081D02*
G01*
X110748228Y-93181703D01*
X110903100Y-93245853D01*
X111042481Y-93338985D01*
X111161015Y-93457519D01*
X111254147Y-93596900D01*
X111318297Y-93751772D01*
X111351000Y-93916184D01*
X111351000Y-94083816D01*
X111318297Y-94248228D01*
X111254147Y-94403100D01*
X111161015Y-94542481D01*
X111042481Y-94661015D01*
X110903100Y-94754147D01*
X110748228Y-94818297D01*
X110654069Y-94837026D01*
X110583818Y-94851000D01*
X110416182Y-94851000D01*
X110345931Y-94837026D01*
X110251772Y-94818297D01*
X110096900Y-94754147D01*
X109957519Y-94661015D01*
X109838985Y-94542481D01*
X109745853Y-94403100D01*
X109681703Y-94248228D01*
X109649000Y-94083816D01*
X109649000Y-93916184D01*
X109681703Y-93751772D01*
X109745853Y-93596900D01*
X109838985Y-93457519D01*
X109957519Y-93338985D01*
X110096900Y-93245853D01*
X110251772Y-93181703D01*
X110350419Y-93162081D01*
X110416182Y-93149000D01*
X110583818Y-93149000D01*
X110649581Y-93162081D01*
X110649581Y-93162081D01*
G37*
G36*
X107649581Y-93162081D02*
G01*
X107748228Y-93181703D01*
X107903100Y-93245853D01*
X108042481Y-93338985D01*
X108161015Y-93457519D01*
X108254147Y-93596900D01*
X108318297Y-93751772D01*
X108351000Y-93916184D01*
X108351000Y-94083816D01*
X108318297Y-94248228D01*
X108254147Y-94403100D01*
X108161015Y-94542481D01*
X108042481Y-94661015D01*
X107903100Y-94754147D01*
X107748228Y-94818297D01*
X107654069Y-94837026D01*
X107583818Y-94851000D01*
X107416182Y-94851000D01*
X107345931Y-94837026D01*
X107251772Y-94818297D01*
X107096900Y-94754147D01*
X106957519Y-94661015D01*
X106838985Y-94542481D01*
X106745853Y-94403100D01*
X106681703Y-94248228D01*
X106649000Y-94083816D01*
X106649000Y-93916184D01*
X106681703Y-93751772D01*
X106745853Y-93596900D01*
X106838985Y-93457519D01*
X106957519Y-93338985D01*
X107096900Y-93245853D01*
X107251772Y-93181703D01*
X107350419Y-93162081D01*
X107416182Y-93149000D01*
X107583818Y-93149000D01*
X107649581Y-93162081D01*
X107649581Y-93162081D01*
G37*
G36*
X101961932Y-92553688D02*
G01*
X102002969Y-92566136D01*
X102040788Y-92586351D01*
X102073941Y-92613559D01*
X102101149Y-92646712D01*
X102121364Y-92684531D01*
X102133812Y-92725568D01*
X102138500Y-92773167D01*
X102138500Y-93826833D01*
X102133812Y-93874432D01*
X102121364Y-93915469D01*
X102101149Y-93953288D01*
X102073941Y-93986441D01*
X102040788Y-94013649D01*
X102002969Y-94033864D01*
X101961932Y-94046312D01*
X101914333Y-94051000D01*
X101285667Y-94051000D01*
X101238068Y-94046312D01*
X101197031Y-94033864D01*
X101159212Y-94013649D01*
X101126059Y-93986441D01*
X101098851Y-93953288D01*
X101078636Y-93915469D01*
X101066188Y-93874432D01*
X101061500Y-93826833D01*
X101061500Y-92773167D01*
X101066188Y-92725568D01*
X101078636Y-92684531D01*
X101098851Y-92646712D01*
X101126059Y-92613559D01*
X101159212Y-92586351D01*
X101197031Y-92566136D01*
X101238068Y-92553688D01*
X101285667Y-92549000D01*
X101914333Y-92549000D01*
X101961932Y-92553688D01*
X101961932Y-92553688D01*
G37*
G36*
X103836932Y-92553688D02*
G01*
X103877969Y-92566136D01*
X103915788Y-92586351D01*
X103948941Y-92613559D01*
X103976149Y-92646712D01*
X103996364Y-92684531D01*
X104008812Y-92725568D01*
X104013500Y-92773167D01*
X104013500Y-93826833D01*
X104008812Y-93874432D01*
X103996364Y-93915469D01*
X103976149Y-93953288D01*
X103948941Y-93986441D01*
X103915788Y-94013649D01*
X103877969Y-94033864D01*
X103836932Y-94046312D01*
X103789333Y-94051000D01*
X103160667Y-94051000D01*
X103113068Y-94046312D01*
X103072031Y-94033864D01*
X103034212Y-94013649D01*
X103001059Y-93986441D01*
X102973851Y-93953288D01*
X102953636Y-93915469D01*
X102941188Y-93874432D01*
X102936500Y-93826833D01*
X102936500Y-92773167D01*
X102941188Y-92725568D01*
X102953636Y-92684531D01*
X102973851Y-92646712D01*
X103001059Y-92613559D01*
X103034212Y-92586351D01*
X103072031Y-92566136D01*
X103113068Y-92553688D01*
X103160667Y-92549000D01*
X103789333Y-92549000D01*
X103836932Y-92553688D01*
X103836932Y-92553688D01*
G37*
G36*
X116032052Y-91486207D02*
G01*
X116068398Y-91497232D01*
X116101901Y-91515140D01*
X116131263Y-91539237D01*
X116155360Y-91568599D01*
X116173268Y-91602102D01*
X116184293Y-91638448D01*
X116188500Y-91681158D01*
X116188500Y-92334842D01*
X116184293Y-92377552D01*
X116173268Y-92413898D01*
X116155360Y-92447401D01*
X116131263Y-92476763D01*
X116101901Y-92500860D01*
X116068398Y-92518768D01*
X116032052Y-92529793D01*
X115989342Y-92534000D01*
X115410658Y-92534000D01*
X115367948Y-92529793D01*
X115331602Y-92518768D01*
X115298099Y-92500860D01*
X115268737Y-92476763D01*
X115244640Y-92447401D01*
X115226732Y-92413898D01*
X115215707Y-92377552D01*
X115211500Y-92334842D01*
X115211500Y-91681158D01*
X115215707Y-91638448D01*
X115226732Y-91602102D01*
X115244640Y-91568599D01*
X115268737Y-91539237D01*
X115298099Y-91515140D01*
X115331602Y-91497232D01*
X115367948Y-91486207D01*
X115410658Y-91482000D01*
X115989342Y-91482000D01*
X116032052Y-91486207D01*
X116032052Y-91486207D01*
G37*
G36*
X117607052Y-91486207D02*
G01*
X117643398Y-91497232D01*
X117676901Y-91515140D01*
X117706263Y-91539237D01*
X117730360Y-91568599D01*
X117748268Y-91602102D01*
X117759293Y-91638448D01*
X117763500Y-91681158D01*
X117763500Y-92334842D01*
X117759293Y-92377552D01*
X117748268Y-92413898D01*
X117730360Y-92447401D01*
X117706263Y-92476763D01*
X117676901Y-92500860D01*
X117643398Y-92518768D01*
X117607052Y-92529793D01*
X117564342Y-92534000D01*
X116985658Y-92534000D01*
X116942948Y-92529793D01*
X116906602Y-92518768D01*
X116873099Y-92500860D01*
X116843737Y-92476763D01*
X116819640Y-92447401D01*
X116801732Y-92413898D01*
X116790707Y-92377552D01*
X116786500Y-92334842D01*
X116786500Y-91681158D01*
X116790707Y-91638448D01*
X116801732Y-91602102D01*
X116819640Y-91568599D01*
X116843737Y-91539237D01*
X116873099Y-91515140D01*
X116906602Y-91497232D01*
X116942948Y-91486207D01*
X116985658Y-91482000D01*
X117564342Y-91482000D01*
X117607052Y-91486207D01*
X117607052Y-91486207D01*
G37*
G36*
X110649581Y-90662081D02*
G01*
X110748228Y-90681703D01*
X110903100Y-90745853D01*
X111042481Y-90838985D01*
X111161015Y-90957519D01*
X111254147Y-91096900D01*
X111318297Y-91251772D01*
X111331779Y-91319552D01*
X111351000Y-91416182D01*
X111351000Y-91583818D01*
X111347363Y-91602102D01*
X111318297Y-91748228D01*
X111254147Y-91903100D01*
X111161015Y-92042481D01*
X111042481Y-92161015D01*
X110903100Y-92254147D01*
X110748228Y-92318297D01*
X110665049Y-92334842D01*
X110583818Y-92351000D01*
X110416182Y-92351000D01*
X110334951Y-92334842D01*
X110251772Y-92318297D01*
X110096900Y-92254147D01*
X109957519Y-92161015D01*
X109838985Y-92042481D01*
X109745853Y-91903100D01*
X109681703Y-91748228D01*
X109652637Y-91602102D01*
X109649000Y-91583818D01*
X109649000Y-91416182D01*
X109668221Y-91319552D01*
X109681703Y-91251772D01*
X109745853Y-91096900D01*
X109838985Y-90957519D01*
X109957519Y-90838985D01*
X110096900Y-90745853D01*
X110251772Y-90681703D01*
X110350419Y-90662081D01*
X110416182Y-90649000D01*
X110583818Y-90649000D01*
X110649581Y-90662081D01*
X110649581Y-90662081D01*
G37*
G36*
X107649581Y-90662081D02*
G01*
X107748228Y-90681703D01*
X107903100Y-90745853D01*
X108042481Y-90838985D01*
X108161015Y-90957519D01*
X108254147Y-91096900D01*
X108318297Y-91251772D01*
X108331779Y-91319552D01*
X108351000Y-91416182D01*
X108351000Y-91583818D01*
X108347363Y-91602102D01*
X108318297Y-91748228D01*
X108254147Y-91903100D01*
X108161015Y-92042481D01*
X108042481Y-92161015D01*
X107903100Y-92254147D01*
X107748228Y-92318297D01*
X107665049Y-92334842D01*
X107583818Y-92351000D01*
X107416182Y-92351000D01*
X107334951Y-92334842D01*
X107251772Y-92318297D01*
X107096900Y-92254147D01*
X106957519Y-92161015D01*
X106838985Y-92042481D01*
X106745853Y-91903100D01*
X106681703Y-91748228D01*
X106652637Y-91602102D01*
X106649000Y-91583818D01*
X106649000Y-91416182D01*
X106668221Y-91319552D01*
X106681703Y-91251772D01*
X106745853Y-91096900D01*
X106838985Y-90957519D01*
X106957519Y-90838985D01*
X107096900Y-90745853D01*
X107251772Y-90681703D01*
X107350419Y-90662081D01*
X107416182Y-90649000D01*
X107583818Y-90649000D01*
X107649581Y-90662081D01*
X107649581Y-90662081D01*
G37*
G36*
X102151000Y-91701000D02*
G01*
X101149000Y-91701000D01*
X101149000Y-90999000D01*
X102151000Y-90999000D01*
X102151000Y-91701000D01*
X102151000Y-91701000D01*
G37*
G36*
X103744552Y-90428207D02*
G01*
X103780898Y-90439232D01*
X103814401Y-90457140D01*
X103843763Y-90481237D01*
X103867860Y-90510599D01*
X103885768Y-90544102D01*
X103896793Y-90580448D01*
X103901000Y-90623158D01*
X103901000Y-91276842D01*
X103896793Y-91319552D01*
X103885768Y-91355898D01*
X103867860Y-91389401D01*
X103843763Y-91418763D01*
X103814401Y-91442860D01*
X103780898Y-91460768D01*
X103744552Y-91471793D01*
X103701842Y-91476000D01*
X103123158Y-91476000D01*
X103080448Y-91471793D01*
X103044102Y-91460768D01*
X103010599Y-91442860D01*
X102981237Y-91418763D01*
X102957140Y-91389401D01*
X102939232Y-91355898D01*
X102928207Y-91319552D01*
X102924000Y-91276842D01*
X102924000Y-90623158D01*
X102928207Y-90580448D01*
X102939232Y-90544102D01*
X102957140Y-90510599D01*
X102981237Y-90481237D01*
X103010599Y-90457140D01*
X103044102Y-90439232D01*
X103080448Y-90428207D01*
X103123158Y-90424000D01*
X103701842Y-90424000D01*
X103744552Y-90428207D01*
X103744552Y-90428207D01*
G37*
G36*
X105319552Y-90428207D02*
G01*
X105355898Y-90439232D01*
X105389401Y-90457140D01*
X105418763Y-90481237D01*
X105442860Y-90510599D01*
X105460768Y-90544102D01*
X105471793Y-90580448D01*
X105476000Y-90623158D01*
X105476000Y-91276842D01*
X105471793Y-91319552D01*
X105460768Y-91355898D01*
X105442860Y-91389401D01*
X105418763Y-91418763D01*
X105389401Y-91442860D01*
X105355898Y-91460768D01*
X105319552Y-91471793D01*
X105276842Y-91476000D01*
X104698158Y-91476000D01*
X104655448Y-91471793D01*
X104619102Y-91460768D01*
X104585599Y-91442860D01*
X104556237Y-91418763D01*
X104532140Y-91389401D01*
X104514232Y-91355898D01*
X104503207Y-91319552D01*
X104499000Y-91276842D01*
X104499000Y-90623158D01*
X104503207Y-90580448D01*
X104514232Y-90544102D01*
X104532140Y-90510599D01*
X104556237Y-90481237D01*
X104585599Y-90457140D01*
X104619102Y-90439232D01*
X104655448Y-90428207D01*
X104698158Y-90424000D01*
X105276842Y-90424000D01*
X105319552Y-90428207D01*
X105319552Y-90428207D01*
G37*
G36*
X116007052Y-90136207D02*
G01*
X116043398Y-90147232D01*
X116076901Y-90165140D01*
X116106263Y-90189237D01*
X116130360Y-90218599D01*
X116148268Y-90252102D01*
X116159293Y-90288448D01*
X116163500Y-90331158D01*
X116163500Y-90984842D01*
X116159293Y-91027552D01*
X116148268Y-91063898D01*
X116130360Y-91097401D01*
X116106263Y-91126763D01*
X116076901Y-91150860D01*
X116043398Y-91168768D01*
X116007052Y-91179793D01*
X115964342Y-91184000D01*
X115385658Y-91184000D01*
X115342948Y-91179793D01*
X115306602Y-91168768D01*
X115273099Y-91150860D01*
X115243737Y-91126763D01*
X115219640Y-91097401D01*
X115201732Y-91063898D01*
X115190707Y-91027552D01*
X115186500Y-90984842D01*
X115186500Y-90331158D01*
X115190707Y-90288448D01*
X115201732Y-90252102D01*
X115219640Y-90218599D01*
X115243737Y-90189237D01*
X115273099Y-90165140D01*
X115306602Y-90147232D01*
X115342948Y-90136207D01*
X115385658Y-90132000D01*
X115964342Y-90132000D01*
X116007052Y-90136207D01*
X116007052Y-90136207D01*
G37*
G36*
X118857052Y-90136207D02*
G01*
X118893398Y-90147232D01*
X118926901Y-90165140D01*
X118956263Y-90189237D01*
X118980360Y-90218599D01*
X118998268Y-90252102D01*
X119009293Y-90288448D01*
X119013500Y-90331158D01*
X119013500Y-90984842D01*
X119009293Y-91027552D01*
X118998268Y-91063898D01*
X118980360Y-91097401D01*
X118956263Y-91126763D01*
X118926901Y-91150860D01*
X118893398Y-91168768D01*
X118857052Y-91179793D01*
X118814342Y-91184000D01*
X118235658Y-91184000D01*
X118192948Y-91179793D01*
X118156602Y-91168768D01*
X118123099Y-91150860D01*
X118093737Y-91126763D01*
X118069640Y-91097401D01*
X118051732Y-91063898D01*
X118040707Y-91027552D01*
X118036500Y-90984842D01*
X118036500Y-90331158D01*
X118040707Y-90288448D01*
X118051732Y-90252102D01*
X118069640Y-90218599D01*
X118093737Y-90189237D01*
X118123099Y-90165140D01*
X118156602Y-90147232D01*
X118192948Y-90136207D01*
X118235658Y-90132000D01*
X118814342Y-90132000D01*
X118857052Y-90136207D01*
X118857052Y-90136207D01*
G37*
G36*
X120432052Y-90136207D02*
G01*
X120468398Y-90147232D01*
X120501901Y-90165140D01*
X120531263Y-90189237D01*
X120555360Y-90218599D01*
X120573268Y-90252102D01*
X120584293Y-90288448D01*
X120588500Y-90331158D01*
X120588500Y-90984842D01*
X120584293Y-91027552D01*
X120573268Y-91063898D01*
X120555360Y-91097401D01*
X120531263Y-91126763D01*
X120501901Y-91150860D01*
X120468398Y-91168768D01*
X120432052Y-91179793D01*
X120389342Y-91184000D01*
X119810658Y-91184000D01*
X119767948Y-91179793D01*
X119731602Y-91168768D01*
X119698099Y-91150860D01*
X119668737Y-91126763D01*
X119644640Y-91097401D01*
X119626732Y-91063898D01*
X119615707Y-91027552D01*
X119611500Y-90984842D01*
X119611500Y-90331158D01*
X119615707Y-90288448D01*
X119626732Y-90252102D01*
X119644640Y-90218599D01*
X119668737Y-90189237D01*
X119698099Y-90165140D01*
X119731602Y-90147232D01*
X119767948Y-90136207D01*
X119810658Y-90132000D01*
X120389342Y-90132000D01*
X120432052Y-90136207D01*
X120432052Y-90136207D01*
G37*
G36*
X117582052Y-90136207D02*
G01*
X117618398Y-90147232D01*
X117651901Y-90165140D01*
X117681263Y-90189237D01*
X117705360Y-90218599D01*
X117723268Y-90252102D01*
X117734293Y-90288448D01*
X117738500Y-90331158D01*
X117738500Y-90984842D01*
X117734293Y-91027552D01*
X117723268Y-91063898D01*
X117705360Y-91097401D01*
X117681263Y-91126763D01*
X117651901Y-91150860D01*
X117618398Y-91168768D01*
X117582052Y-91179793D01*
X117539342Y-91184000D01*
X116960658Y-91184000D01*
X116917948Y-91179793D01*
X116881602Y-91168768D01*
X116848099Y-91150860D01*
X116818737Y-91126763D01*
X116794640Y-91097401D01*
X116776732Y-91063898D01*
X116765707Y-91027552D01*
X116761500Y-90984842D01*
X116761500Y-90331158D01*
X116765707Y-90288448D01*
X116776732Y-90252102D01*
X116794640Y-90218599D01*
X116818737Y-90189237D01*
X116848099Y-90165140D01*
X116881602Y-90147232D01*
X116917948Y-90136207D01*
X116960658Y-90132000D01*
X117539342Y-90132000D01*
X117582052Y-90136207D01*
X117582052Y-90136207D01*
G37*
G36*
X102301000Y-90751000D02*
G01*
X101649000Y-90751000D01*
X101649000Y-89149000D01*
X102301000Y-89149000D01*
X102301000Y-90751000D01*
X102301000Y-90751000D01*
G37*
G36*
X103732052Y-89028207D02*
G01*
X103768398Y-89039232D01*
X103801901Y-89057140D01*
X103831263Y-89081237D01*
X103855360Y-89110599D01*
X103873268Y-89144102D01*
X103884293Y-89180448D01*
X103888500Y-89223158D01*
X103888500Y-89876842D01*
X103884293Y-89919552D01*
X103873268Y-89955898D01*
X103855360Y-89989401D01*
X103831263Y-90018763D01*
X103801901Y-90042860D01*
X103768398Y-90060768D01*
X103732052Y-90071793D01*
X103689342Y-90076000D01*
X103110658Y-90076000D01*
X103067948Y-90071793D01*
X103031602Y-90060768D01*
X102998099Y-90042860D01*
X102968737Y-90018763D01*
X102944640Y-89989401D01*
X102926732Y-89955898D01*
X102915707Y-89919552D01*
X102911500Y-89876842D01*
X102911500Y-89223158D01*
X102915707Y-89180448D01*
X102926732Y-89144102D01*
X102944640Y-89110599D01*
X102968737Y-89081237D01*
X102998099Y-89057140D01*
X103031602Y-89039232D01*
X103067948Y-89028207D01*
X103110658Y-89024000D01*
X103689342Y-89024000D01*
X103732052Y-89028207D01*
X103732052Y-89028207D01*
G37*
G36*
X105307052Y-89028207D02*
G01*
X105343398Y-89039232D01*
X105376901Y-89057140D01*
X105406263Y-89081237D01*
X105430360Y-89110599D01*
X105448268Y-89144102D01*
X105459293Y-89180448D01*
X105463500Y-89223158D01*
X105463500Y-89876842D01*
X105459293Y-89919552D01*
X105448268Y-89955898D01*
X105430360Y-89989401D01*
X105406263Y-90018763D01*
X105376901Y-90042860D01*
X105343398Y-90060768D01*
X105307052Y-90071793D01*
X105264342Y-90076000D01*
X104685658Y-90076000D01*
X104642948Y-90071793D01*
X104606602Y-90060768D01*
X104573099Y-90042860D01*
X104543737Y-90018763D01*
X104519640Y-89989401D01*
X104501732Y-89955898D01*
X104490707Y-89919552D01*
X104486500Y-89876842D01*
X104486500Y-89223158D01*
X104490707Y-89180448D01*
X104501732Y-89144102D01*
X104519640Y-89110599D01*
X104543737Y-89081237D01*
X104573099Y-89057140D01*
X104606602Y-89039232D01*
X104642948Y-89028207D01*
X104685658Y-89024000D01*
X105264342Y-89024000D01*
X105307052Y-89028207D01*
X105307052Y-89028207D01*
G37*
G36*
X110649581Y-88162081D02*
G01*
X110748228Y-88181703D01*
X110903100Y-88245853D01*
X111042481Y-88338985D01*
X111161015Y-88457519D01*
X111254147Y-88596900D01*
X111318297Y-88751772D01*
X111337919Y-88850419D01*
X111351000Y-88916182D01*
X111351000Y-89083818D01*
X111341306Y-89132552D01*
X111318297Y-89248228D01*
X111254147Y-89403100D01*
X111161015Y-89542481D01*
X111042481Y-89661015D01*
X110903100Y-89754147D01*
X110748228Y-89818297D01*
X110649581Y-89837919D01*
X110583818Y-89851000D01*
X110416182Y-89851000D01*
X110350419Y-89837919D01*
X110251772Y-89818297D01*
X110096900Y-89754147D01*
X109957519Y-89661015D01*
X109838985Y-89542481D01*
X109745853Y-89403100D01*
X109681703Y-89248228D01*
X109658694Y-89132552D01*
X109649000Y-89083818D01*
X109649000Y-88916182D01*
X109662081Y-88850419D01*
X109681703Y-88751772D01*
X109745853Y-88596900D01*
X109838985Y-88457519D01*
X109957519Y-88338985D01*
X110096900Y-88245853D01*
X110251772Y-88181703D01*
X110350419Y-88162081D01*
X110416182Y-88149000D01*
X110583818Y-88149000D01*
X110649581Y-88162081D01*
X110649581Y-88162081D01*
G37*
G36*
X107649581Y-88162081D02*
G01*
X107748228Y-88181703D01*
X107903100Y-88245853D01*
X108042481Y-88338985D01*
X108161015Y-88457519D01*
X108254147Y-88596900D01*
X108318297Y-88751772D01*
X108337919Y-88850419D01*
X108351000Y-88916182D01*
X108351000Y-89083818D01*
X108341306Y-89132552D01*
X108318297Y-89248228D01*
X108254147Y-89403100D01*
X108161015Y-89542481D01*
X108042481Y-89661015D01*
X107903100Y-89754147D01*
X107748228Y-89818297D01*
X107649581Y-89837919D01*
X107583818Y-89851000D01*
X107416182Y-89851000D01*
X107350419Y-89837919D01*
X107251772Y-89818297D01*
X107096900Y-89754147D01*
X106957519Y-89661015D01*
X106838985Y-89542481D01*
X106745853Y-89403100D01*
X106681703Y-89248228D01*
X106658694Y-89132552D01*
X106649000Y-89083818D01*
X106649000Y-88916182D01*
X106662081Y-88850419D01*
X106681703Y-88751772D01*
X106745853Y-88596900D01*
X106838985Y-88457519D01*
X106957519Y-88338985D01*
X107096900Y-88245853D01*
X107251772Y-88181703D01*
X107350419Y-88162081D01*
X107416182Y-88149000D01*
X107583818Y-88149000D01*
X107649581Y-88162081D01*
X107649581Y-88162081D01*
G37*
G36*
X114757052Y-88228207D02*
G01*
X114793398Y-88239232D01*
X114826901Y-88257140D01*
X114856263Y-88281237D01*
X114880360Y-88310599D01*
X114898268Y-88344102D01*
X114909293Y-88380448D01*
X114913500Y-88423158D01*
X114913500Y-89076842D01*
X114909293Y-89119552D01*
X114898268Y-89155898D01*
X114880360Y-89189401D01*
X114856263Y-89218763D01*
X114826901Y-89242860D01*
X114793398Y-89260768D01*
X114757052Y-89271793D01*
X114714342Y-89276000D01*
X114135658Y-89276000D01*
X114092948Y-89271793D01*
X114056602Y-89260768D01*
X114023099Y-89242860D01*
X113993737Y-89218763D01*
X113969640Y-89189401D01*
X113951732Y-89155898D01*
X113940707Y-89119552D01*
X113936500Y-89076842D01*
X113936500Y-88423158D01*
X113940707Y-88380448D01*
X113951732Y-88344102D01*
X113969640Y-88310599D01*
X113993737Y-88281237D01*
X114023099Y-88257140D01*
X114056602Y-88239232D01*
X114092948Y-88228207D01*
X114135658Y-88224000D01*
X114714342Y-88224000D01*
X114757052Y-88228207D01*
X114757052Y-88228207D01*
G37*
G36*
X113182052Y-88228207D02*
G01*
X113218398Y-88239232D01*
X113251901Y-88257140D01*
X113281263Y-88281237D01*
X113305360Y-88310599D01*
X113323268Y-88344102D01*
X113334293Y-88380448D01*
X113338500Y-88423158D01*
X113338500Y-89076842D01*
X113334293Y-89119552D01*
X113323268Y-89155898D01*
X113305360Y-89189401D01*
X113281263Y-89218763D01*
X113251901Y-89242860D01*
X113218398Y-89260768D01*
X113182052Y-89271793D01*
X113139342Y-89276000D01*
X112560658Y-89276000D01*
X112517948Y-89271793D01*
X112481602Y-89260768D01*
X112448099Y-89242860D01*
X112418737Y-89218763D01*
X112394640Y-89189401D01*
X112376732Y-89155898D01*
X112365707Y-89119552D01*
X112361500Y-89076842D01*
X112361500Y-88423158D01*
X112365707Y-88380448D01*
X112376732Y-88344102D01*
X112394640Y-88310599D01*
X112418737Y-88281237D01*
X112448099Y-88257140D01*
X112481602Y-88239232D01*
X112517948Y-88228207D01*
X112560658Y-88224000D01*
X113139342Y-88224000D01*
X113182052Y-88228207D01*
X113182052Y-88228207D01*
G37*
G36*
X102151000Y-88901000D02*
G01*
X101149000Y-88901000D01*
X101149000Y-88199000D01*
X102151000Y-88199000D01*
X102151000Y-88901000D01*
X102151000Y-88901000D01*
G37*
G36*
X103744552Y-87628207D02*
G01*
X103780898Y-87639232D01*
X103814401Y-87657140D01*
X103843763Y-87681237D01*
X103867860Y-87710599D01*
X103885768Y-87744102D01*
X103896793Y-87780448D01*
X103901000Y-87823158D01*
X103901000Y-88476842D01*
X103896793Y-88519552D01*
X103885768Y-88555898D01*
X103867860Y-88589401D01*
X103843763Y-88618763D01*
X103814401Y-88642860D01*
X103780898Y-88660768D01*
X103744552Y-88671793D01*
X103701842Y-88676000D01*
X103123158Y-88676000D01*
X103080448Y-88671793D01*
X103044102Y-88660768D01*
X103010599Y-88642860D01*
X102981237Y-88618763D01*
X102957140Y-88589401D01*
X102939232Y-88555898D01*
X102928207Y-88519552D01*
X102924000Y-88476842D01*
X102924000Y-87823158D01*
X102928207Y-87780448D01*
X102939232Y-87744102D01*
X102957140Y-87710599D01*
X102981237Y-87681237D01*
X103010599Y-87657140D01*
X103044102Y-87639232D01*
X103080448Y-87628207D01*
X103123158Y-87624000D01*
X103701842Y-87624000D01*
X103744552Y-87628207D01*
X103744552Y-87628207D01*
G37*
G36*
X105319552Y-87628207D02*
G01*
X105355898Y-87639232D01*
X105389401Y-87657140D01*
X105418763Y-87681237D01*
X105442860Y-87710599D01*
X105460768Y-87744102D01*
X105471793Y-87780448D01*
X105476000Y-87823158D01*
X105476000Y-88476842D01*
X105471793Y-88519552D01*
X105460768Y-88555898D01*
X105442860Y-88589401D01*
X105418763Y-88618763D01*
X105389401Y-88642860D01*
X105355898Y-88660768D01*
X105319552Y-88671793D01*
X105276842Y-88676000D01*
X104698158Y-88676000D01*
X104655448Y-88671793D01*
X104619102Y-88660768D01*
X104585599Y-88642860D01*
X104556237Y-88618763D01*
X104532140Y-88589401D01*
X104514232Y-88555898D01*
X104503207Y-88519552D01*
X104499000Y-88476842D01*
X104499000Y-87823158D01*
X104503207Y-87780448D01*
X104514232Y-87744102D01*
X104532140Y-87710599D01*
X104556237Y-87681237D01*
X104585599Y-87657140D01*
X104619102Y-87639232D01*
X104655448Y-87628207D01*
X104698158Y-87624000D01*
X105276842Y-87624000D01*
X105319552Y-87628207D01*
X105319552Y-87628207D01*
G37*
G36*
X113982817Y-79775204D02*
G01*
X113989856Y-79777340D01*
X113996344Y-79780807D01*
X114002027Y-79785472D01*
X114010199Y-79795429D01*
X114024061Y-79809291D01*
X114040360Y-79820182D01*
X114058471Y-79827684D01*
X114077698Y-79831508D01*
X114097301Y-79831509D01*
X114116528Y-79827684D01*
X114134639Y-79820182D01*
X114150938Y-79809292D01*
X114164801Y-79795429D01*
X114172973Y-79785472D01*
X114178656Y-79780807D01*
X114185144Y-79777340D01*
X114192183Y-79775204D01*
X114204410Y-79774000D01*
X114470590Y-79774000D01*
X114482817Y-79775204D01*
X114489856Y-79777340D01*
X114496344Y-79780807D01*
X114502027Y-79785472D01*
X114510199Y-79795429D01*
X114524061Y-79809291D01*
X114540360Y-79820182D01*
X114558471Y-79827684D01*
X114577698Y-79831508D01*
X114597301Y-79831509D01*
X114616528Y-79827684D01*
X114634639Y-79820182D01*
X114650938Y-79809292D01*
X114664801Y-79795429D01*
X114672973Y-79785472D01*
X114678656Y-79780807D01*
X114685144Y-79777340D01*
X114692183Y-79775204D01*
X114704410Y-79774000D01*
X114970590Y-79774000D01*
X114982817Y-79775204D01*
X114989856Y-79777340D01*
X114996344Y-79780807D01*
X115002027Y-79785472D01*
X115010199Y-79795429D01*
X115024061Y-79809291D01*
X115040360Y-79820182D01*
X115058471Y-79827684D01*
X115077698Y-79831508D01*
X115097301Y-79831509D01*
X115116528Y-79827684D01*
X115134639Y-79820182D01*
X115150938Y-79809292D01*
X115164801Y-79795429D01*
X115172973Y-79785472D01*
X115178656Y-79780807D01*
X115185144Y-79777340D01*
X115192183Y-79775204D01*
X115204410Y-79774000D01*
X115470590Y-79774000D01*
X115482817Y-79775204D01*
X115489856Y-79777340D01*
X115496344Y-79780807D01*
X115502027Y-79785472D01*
X115510199Y-79795429D01*
X115524061Y-79809291D01*
X115540360Y-79820182D01*
X115558471Y-79827684D01*
X115577698Y-79831508D01*
X115597301Y-79831509D01*
X115616528Y-79827684D01*
X115634639Y-79820182D01*
X115650938Y-79809292D01*
X115664801Y-79795429D01*
X115672973Y-79785472D01*
X115678656Y-79780807D01*
X115685144Y-79777340D01*
X115692183Y-79775204D01*
X115704410Y-79774000D01*
X115970590Y-79774000D01*
X115982817Y-79775204D01*
X115989856Y-79777340D01*
X115996344Y-79780807D01*
X116002027Y-79785472D01*
X116010199Y-79795429D01*
X116024061Y-79809291D01*
X116040360Y-79820182D01*
X116058471Y-79827684D01*
X116077698Y-79831508D01*
X116097301Y-79831509D01*
X116116528Y-79827684D01*
X116134639Y-79820182D01*
X116150938Y-79809292D01*
X116164801Y-79795429D01*
X116172973Y-79785472D01*
X116178656Y-79780807D01*
X116185144Y-79777340D01*
X116192183Y-79775204D01*
X116204410Y-79774000D01*
X116470590Y-79774000D01*
X116482817Y-79775204D01*
X116489856Y-79777340D01*
X116496344Y-79780807D01*
X116502027Y-79785472D01*
X116510199Y-79795429D01*
X116524061Y-79809291D01*
X116540360Y-79820182D01*
X116558471Y-79827684D01*
X116577698Y-79831508D01*
X116597301Y-79831509D01*
X116616528Y-79827684D01*
X116634639Y-79820182D01*
X116650938Y-79809292D01*
X116664801Y-79795429D01*
X116672973Y-79785472D01*
X116678656Y-79780807D01*
X116685144Y-79777340D01*
X116692183Y-79775204D01*
X116704410Y-79774000D01*
X116970590Y-79774000D01*
X116982817Y-79775204D01*
X116989856Y-79777340D01*
X116996344Y-79780807D01*
X117002027Y-79785472D01*
X117010199Y-79795429D01*
X117024061Y-79809291D01*
X117040360Y-79820182D01*
X117058471Y-79827684D01*
X117077698Y-79831508D01*
X117097301Y-79831509D01*
X117116528Y-79827684D01*
X117134639Y-79820182D01*
X117150938Y-79809292D01*
X117164801Y-79795429D01*
X117172973Y-79785472D01*
X117178656Y-79780807D01*
X117185144Y-79777340D01*
X117192183Y-79775204D01*
X117204410Y-79774000D01*
X117470590Y-79774000D01*
X117482817Y-79775204D01*
X117489856Y-79777340D01*
X117496344Y-79780807D01*
X117502027Y-79785472D01*
X117510199Y-79795429D01*
X117524061Y-79809291D01*
X117540360Y-79820182D01*
X117558471Y-79827684D01*
X117577698Y-79831508D01*
X117597301Y-79831509D01*
X117616528Y-79827684D01*
X117634639Y-79820182D01*
X117650938Y-79809292D01*
X117664801Y-79795429D01*
X117672973Y-79785472D01*
X117678656Y-79780807D01*
X117685144Y-79777340D01*
X117692183Y-79775204D01*
X117704410Y-79774000D01*
X117970590Y-79774000D01*
X117982817Y-79775204D01*
X117989856Y-79777340D01*
X117996344Y-79780807D01*
X118002027Y-79785472D01*
X118010199Y-79795429D01*
X118024061Y-79809291D01*
X118040360Y-79820182D01*
X118058471Y-79827684D01*
X118077698Y-79831508D01*
X118097301Y-79831509D01*
X118116528Y-79827684D01*
X118134639Y-79820182D01*
X118150938Y-79809292D01*
X118164801Y-79795429D01*
X118172973Y-79785472D01*
X118178656Y-79780807D01*
X118185144Y-79777340D01*
X118192183Y-79775204D01*
X118204410Y-79774000D01*
X118470590Y-79774000D01*
X118482817Y-79775204D01*
X118489856Y-79777340D01*
X118496344Y-79780807D01*
X118502027Y-79785472D01*
X118510199Y-79795429D01*
X118524061Y-79809291D01*
X118540360Y-79820182D01*
X118558471Y-79827684D01*
X118577698Y-79831508D01*
X118597301Y-79831509D01*
X118616528Y-79827684D01*
X118634639Y-79820182D01*
X118650938Y-79809292D01*
X118664801Y-79795429D01*
X118672973Y-79785472D01*
X118678656Y-79780807D01*
X118685144Y-79777340D01*
X118692183Y-79775204D01*
X118704410Y-79774000D01*
X118970590Y-79774000D01*
X118982817Y-79775204D01*
X118989856Y-79777340D01*
X118996344Y-79780807D01*
X119002027Y-79785472D01*
X119010199Y-79795429D01*
X119024061Y-79809291D01*
X119040360Y-79820182D01*
X119058471Y-79827684D01*
X119077698Y-79831508D01*
X119097301Y-79831509D01*
X119116528Y-79827684D01*
X119134639Y-79820182D01*
X119150938Y-79809292D01*
X119164801Y-79795429D01*
X119172973Y-79785472D01*
X119178656Y-79780807D01*
X119185144Y-79777340D01*
X119192183Y-79775204D01*
X119204410Y-79774000D01*
X119470590Y-79774000D01*
X119482817Y-79775204D01*
X119489856Y-79777340D01*
X119496344Y-79780807D01*
X119502028Y-79785472D01*
X119506693Y-79791156D01*
X119510160Y-79797644D01*
X119512296Y-79804683D01*
X119513500Y-79816910D01*
X119513500Y-80674001D01*
X119515421Y-80693510D01*
X119521112Y-80712269D01*
X119530353Y-80729557D01*
X119542789Y-80744711D01*
X119557943Y-80757147D01*
X119575231Y-80766388D01*
X119593990Y-80772079D01*
X119613499Y-80774000D01*
X120470590Y-80774000D01*
X120482817Y-80775204D01*
X120489856Y-80777340D01*
X120496344Y-80780807D01*
X120502028Y-80785472D01*
X120506693Y-80791156D01*
X120510160Y-80797644D01*
X120512296Y-80804683D01*
X120513500Y-80816910D01*
X120513500Y-81083090D01*
X120512296Y-81095317D01*
X120510160Y-81102356D01*
X120506693Y-81108844D01*
X120502028Y-81114527D01*
X120492071Y-81122699D01*
X120478209Y-81136561D01*
X120467318Y-81152860D01*
X120459816Y-81170971D01*
X120455992Y-81190198D01*
X120455991Y-81209801D01*
X120459816Y-81229028D01*
X120467318Y-81247139D01*
X120478208Y-81263438D01*
X120492071Y-81277301D01*
X120502028Y-81285473D01*
X120506693Y-81291156D01*
X120510160Y-81297644D01*
X120512296Y-81304683D01*
X120513500Y-81316910D01*
X120513500Y-81583090D01*
X120512296Y-81595317D01*
X120510160Y-81602356D01*
X120506693Y-81608844D01*
X120502028Y-81614527D01*
X120492071Y-81622699D01*
X120478209Y-81636561D01*
X120467318Y-81652860D01*
X120459816Y-81670971D01*
X120455992Y-81690198D01*
X120455991Y-81709801D01*
X120459816Y-81729028D01*
X120467318Y-81747139D01*
X120478208Y-81763438D01*
X120492071Y-81777301D01*
X120502028Y-81785473D01*
X120506693Y-81791156D01*
X120510160Y-81797644D01*
X120512296Y-81804683D01*
X120513500Y-81816910D01*
X120513500Y-82083090D01*
X120512296Y-82095317D01*
X120510160Y-82102356D01*
X120506693Y-82108844D01*
X120502028Y-82114527D01*
X120492071Y-82122699D01*
X120478209Y-82136561D01*
X120467318Y-82152860D01*
X120459816Y-82170971D01*
X120455992Y-82190198D01*
X120455991Y-82209801D01*
X120459816Y-82229028D01*
X120467318Y-82247139D01*
X120478208Y-82263438D01*
X120492071Y-82277301D01*
X120502028Y-82285473D01*
X120506693Y-82291156D01*
X120510160Y-82297644D01*
X120512296Y-82304683D01*
X120513500Y-82316910D01*
X120513500Y-82583090D01*
X120512296Y-82595317D01*
X120510160Y-82602356D01*
X120506693Y-82608844D01*
X120502028Y-82614527D01*
X120492071Y-82622699D01*
X120478209Y-82636561D01*
X120467318Y-82652860D01*
X120459816Y-82670971D01*
X120455992Y-82690198D01*
X120455991Y-82709801D01*
X120459816Y-82729028D01*
X120467318Y-82747139D01*
X120478208Y-82763438D01*
X120492071Y-82777301D01*
X120502028Y-82785473D01*
X120506693Y-82791156D01*
X120510160Y-82797644D01*
X120512296Y-82804683D01*
X120513500Y-82816910D01*
X120513500Y-83083090D01*
X120512296Y-83095317D01*
X120510160Y-83102356D01*
X120506693Y-83108844D01*
X120502028Y-83114527D01*
X120492071Y-83122699D01*
X120478209Y-83136561D01*
X120467318Y-83152860D01*
X120459816Y-83170971D01*
X120455992Y-83190198D01*
X120455991Y-83209801D01*
X120459816Y-83229028D01*
X120467318Y-83247139D01*
X120478208Y-83263438D01*
X120492071Y-83277301D01*
X120502028Y-83285473D01*
X120506693Y-83291156D01*
X120510160Y-83297644D01*
X120512296Y-83304683D01*
X120513500Y-83316910D01*
X120513500Y-83583090D01*
X120512296Y-83595317D01*
X120510160Y-83602356D01*
X120506693Y-83608844D01*
X120502028Y-83614527D01*
X120492071Y-83622699D01*
X120478209Y-83636561D01*
X120467318Y-83652860D01*
X120459816Y-83670971D01*
X120455992Y-83690198D01*
X120455991Y-83709801D01*
X120459816Y-83729028D01*
X120467318Y-83747139D01*
X120478208Y-83763438D01*
X120492071Y-83777301D01*
X120502028Y-83785473D01*
X120506693Y-83791156D01*
X120510160Y-83797644D01*
X120512296Y-83804683D01*
X120513500Y-83816910D01*
X120513500Y-84083090D01*
X120512296Y-84095317D01*
X120510160Y-84102356D01*
X120506693Y-84108844D01*
X120502028Y-84114527D01*
X120492071Y-84122699D01*
X120478209Y-84136561D01*
X120467318Y-84152860D01*
X120459816Y-84170971D01*
X120455992Y-84190198D01*
X120455991Y-84209801D01*
X120459816Y-84229028D01*
X120467318Y-84247139D01*
X120478208Y-84263438D01*
X120492071Y-84277301D01*
X120502028Y-84285473D01*
X120506693Y-84291156D01*
X120510160Y-84297644D01*
X120512296Y-84304683D01*
X120513500Y-84316910D01*
X120513500Y-84583090D01*
X120512296Y-84595317D01*
X120510160Y-84602356D01*
X120506693Y-84608844D01*
X120502028Y-84614527D01*
X120492071Y-84622699D01*
X120478209Y-84636561D01*
X120467318Y-84652860D01*
X120459816Y-84670971D01*
X120455992Y-84690198D01*
X120455991Y-84709801D01*
X120459816Y-84729028D01*
X120467318Y-84747139D01*
X120478208Y-84763438D01*
X120492071Y-84777301D01*
X120502028Y-84785473D01*
X120506693Y-84791156D01*
X120510160Y-84797644D01*
X120512296Y-84804683D01*
X120513500Y-84816910D01*
X120513500Y-85083090D01*
X120512296Y-85095317D01*
X120510160Y-85102356D01*
X120506693Y-85108844D01*
X120502028Y-85114527D01*
X120492071Y-85122699D01*
X120478209Y-85136561D01*
X120467318Y-85152860D01*
X120459816Y-85170971D01*
X120455992Y-85190198D01*
X120455991Y-85209801D01*
X120459816Y-85229028D01*
X120467318Y-85247139D01*
X120478208Y-85263438D01*
X120492071Y-85277301D01*
X120502028Y-85285473D01*
X120506693Y-85291156D01*
X120510160Y-85297644D01*
X120512296Y-85304683D01*
X120513500Y-85316910D01*
X120513500Y-85583090D01*
X120512296Y-85595317D01*
X120510160Y-85602356D01*
X120506693Y-85608844D01*
X120502028Y-85614527D01*
X120492071Y-85622699D01*
X120478209Y-85636561D01*
X120467318Y-85652860D01*
X120459816Y-85670971D01*
X120455992Y-85690198D01*
X120455991Y-85709801D01*
X120459816Y-85729028D01*
X120467318Y-85747139D01*
X120478208Y-85763438D01*
X120492071Y-85777301D01*
X120502028Y-85785473D01*
X120506693Y-85791156D01*
X120510160Y-85797644D01*
X120512296Y-85804683D01*
X120513500Y-85816910D01*
X120513500Y-86083090D01*
X120512296Y-86095317D01*
X120510160Y-86102356D01*
X120506693Y-86108844D01*
X120502028Y-86114527D01*
X120492071Y-86122699D01*
X120478209Y-86136561D01*
X120467318Y-86152860D01*
X120459816Y-86170971D01*
X120455992Y-86190198D01*
X120455991Y-86209801D01*
X120459816Y-86229028D01*
X120467318Y-86247139D01*
X120478208Y-86263438D01*
X120492071Y-86277301D01*
X120502028Y-86285473D01*
X120506693Y-86291156D01*
X120510160Y-86297644D01*
X120512296Y-86304683D01*
X120513500Y-86316910D01*
X120513500Y-86583090D01*
X120512296Y-86595317D01*
X120510160Y-86602356D01*
X120506693Y-86608844D01*
X120502028Y-86614528D01*
X120496344Y-86619193D01*
X120489856Y-86622660D01*
X120482817Y-86624796D01*
X120470590Y-86626000D01*
X119613499Y-86626000D01*
X119593990Y-86627921D01*
X119575231Y-86633612D01*
X119557943Y-86642853D01*
X119542789Y-86655289D01*
X119530353Y-86670443D01*
X119521112Y-86687731D01*
X119515421Y-86706490D01*
X119513500Y-86725999D01*
X119513500Y-87583090D01*
X119512296Y-87595317D01*
X119510160Y-87602356D01*
X119506693Y-87608844D01*
X119502028Y-87614528D01*
X119496344Y-87619193D01*
X119489856Y-87622660D01*
X119482817Y-87624796D01*
X119470590Y-87626000D01*
X119204410Y-87626000D01*
X119192183Y-87624796D01*
X119185144Y-87622660D01*
X119178656Y-87619193D01*
X119172973Y-87614528D01*
X119164801Y-87604571D01*
X119150939Y-87590709D01*
X119134640Y-87579818D01*
X119116529Y-87572316D01*
X119097302Y-87568492D01*
X119077699Y-87568491D01*
X119058472Y-87572316D01*
X119040361Y-87579818D01*
X119024062Y-87590708D01*
X119010199Y-87604571D01*
X119002027Y-87614528D01*
X118996344Y-87619193D01*
X118989856Y-87622660D01*
X118982817Y-87624796D01*
X118970590Y-87626000D01*
X118704410Y-87626000D01*
X118692183Y-87624796D01*
X118685144Y-87622660D01*
X118678656Y-87619193D01*
X118672973Y-87614528D01*
X118664801Y-87604571D01*
X118650939Y-87590709D01*
X118634640Y-87579818D01*
X118616529Y-87572316D01*
X118597302Y-87568492D01*
X118577699Y-87568491D01*
X118558472Y-87572316D01*
X118540361Y-87579818D01*
X118524062Y-87590708D01*
X118510199Y-87604571D01*
X118502027Y-87614528D01*
X118496344Y-87619193D01*
X118489856Y-87622660D01*
X118482817Y-87624796D01*
X118470590Y-87626000D01*
X118204410Y-87626000D01*
X118192183Y-87624796D01*
X118185144Y-87622660D01*
X118178656Y-87619193D01*
X118172973Y-87614528D01*
X118164801Y-87604571D01*
X118150939Y-87590709D01*
X118134640Y-87579818D01*
X118116529Y-87572316D01*
X118097302Y-87568492D01*
X118077699Y-87568491D01*
X118058472Y-87572316D01*
X118040361Y-87579818D01*
X118024062Y-87590708D01*
X118010199Y-87604571D01*
X118002027Y-87614528D01*
X117996344Y-87619193D01*
X117989856Y-87622660D01*
X117982817Y-87624796D01*
X117970590Y-87626000D01*
X117704410Y-87626000D01*
X117692183Y-87624796D01*
X117685144Y-87622660D01*
X117678656Y-87619193D01*
X117672973Y-87614528D01*
X117664801Y-87604571D01*
X117650939Y-87590709D01*
X117634640Y-87579818D01*
X117616529Y-87572316D01*
X117597302Y-87568492D01*
X117577699Y-87568491D01*
X117558472Y-87572316D01*
X117540361Y-87579818D01*
X117524062Y-87590708D01*
X117510199Y-87604571D01*
X117502027Y-87614528D01*
X117496344Y-87619193D01*
X117489856Y-87622660D01*
X117482817Y-87624796D01*
X117470590Y-87626000D01*
X117204410Y-87626000D01*
X117192183Y-87624796D01*
X117185144Y-87622660D01*
X117178656Y-87619193D01*
X117172973Y-87614528D01*
X117164801Y-87604571D01*
X117150939Y-87590709D01*
X117134640Y-87579818D01*
X117116529Y-87572316D01*
X117097302Y-87568492D01*
X117077699Y-87568491D01*
X117058472Y-87572316D01*
X117040361Y-87579818D01*
X117024062Y-87590708D01*
X117010199Y-87604571D01*
X117002027Y-87614528D01*
X116996344Y-87619193D01*
X116989856Y-87622660D01*
X116982817Y-87624796D01*
X116970590Y-87626000D01*
X116704410Y-87626000D01*
X116692183Y-87624796D01*
X116685144Y-87622660D01*
X116678656Y-87619193D01*
X116672973Y-87614528D01*
X116664801Y-87604571D01*
X116650939Y-87590709D01*
X116634640Y-87579818D01*
X116616529Y-87572316D01*
X116597302Y-87568492D01*
X116577699Y-87568491D01*
X116558472Y-87572316D01*
X116540361Y-87579818D01*
X116524062Y-87590708D01*
X116510199Y-87604571D01*
X116502027Y-87614528D01*
X116496344Y-87619193D01*
X116489856Y-87622660D01*
X116482817Y-87624796D01*
X116470590Y-87626000D01*
X116204410Y-87626000D01*
X116192183Y-87624796D01*
X116185144Y-87622660D01*
X116178656Y-87619193D01*
X116172973Y-87614528D01*
X116164801Y-87604571D01*
X116150939Y-87590709D01*
X116134640Y-87579818D01*
X116116529Y-87572316D01*
X116097302Y-87568492D01*
X116077699Y-87568491D01*
X116058472Y-87572316D01*
X116040361Y-87579818D01*
X116024062Y-87590708D01*
X116010199Y-87604571D01*
X116002027Y-87614528D01*
X115996344Y-87619193D01*
X115989856Y-87622660D01*
X115982817Y-87624796D01*
X115970590Y-87626000D01*
X115704410Y-87626000D01*
X115692183Y-87624796D01*
X115685144Y-87622660D01*
X115678656Y-87619193D01*
X115672973Y-87614528D01*
X115664801Y-87604571D01*
X115650939Y-87590709D01*
X115634640Y-87579818D01*
X115616529Y-87572316D01*
X115597302Y-87568492D01*
X115577699Y-87568491D01*
X115558472Y-87572316D01*
X115540361Y-87579818D01*
X115524062Y-87590708D01*
X115510199Y-87604571D01*
X115502027Y-87614528D01*
X115496344Y-87619193D01*
X115489856Y-87622660D01*
X115482817Y-87624796D01*
X115470590Y-87626000D01*
X115204410Y-87626000D01*
X115192183Y-87624796D01*
X115185144Y-87622660D01*
X115178656Y-87619193D01*
X115172973Y-87614528D01*
X115164801Y-87604571D01*
X115150939Y-87590709D01*
X115134640Y-87579818D01*
X115116529Y-87572316D01*
X115097302Y-87568492D01*
X115077699Y-87568491D01*
X115058472Y-87572316D01*
X115040361Y-87579818D01*
X115024062Y-87590708D01*
X115010199Y-87604571D01*
X115002027Y-87614528D01*
X114996344Y-87619193D01*
X114989856Y-87622660D01*
X114982817Y-87624796D01*
X114970590Y-87626000D01*
X114704410Y-87626000D01*
X114692183Y-87624796D01*
X114685144Y-87622660D01*
X114678656Y-87619193D01*
X114672973Y-87614528D01*
X114664801Y-87604571D01*
X114650939Y-87590709D01*
X114634640Y-87579818D01*
X114616529Y-87572316D01*
X114597302Y-87568492D01*
X114577699Y-87568491D01*
X114558472Y-87572316D01*
X114540361Y-87579818D01*
X114524062Y-87590708D01*
X114510199Y-87604571D01*
X114502027Y-87614528D01*
X114496344Y-87619193D01*
X114489856Y-87622660D01*
X114482817Y-87624796D01*
X114470590Y-87626000D01*
X114204410Y-87626000D01*
X114192183Y-87624796D01*
X114185144Y-87622660D01*
X114178656Y-87619193D01*
X114172973Y-87614528D01*
X114164801Y-87604571D01*
X114150939Y-87590709D01*
X114134640Y-87579818D01*
X114116529Y-87572316D01*
X114097302Y-87568492D01*
X114077699Y-87568491D01*
X114058472Y-87572316D01*
X114040361Y-87579818D01*
X114024062Y-87590708D01*
X114010199Y-87604571D01*
X114002027Y-87614528D01*
X113996344Y-87619193D01*
X113989856Y-87622660D01*
X113982817Y-87624796D01*
X113970590Y-87626000D01*
X113704410Y-87626000D01*
X113692183Y-87624796D01*
X113685144Y-87622660D01*
X113678656Y-87619193D01*
X113672972Y-87614528D01*
X113668307Y-87608844D01*
X113664840Y-87602356D01*
X113662704Y-87595317D01*
X113661500Y-87583090D01*
X113661500Y-86725999D01*
X113659579Y-86706490D01*
X113653888Y-86687731D01*
X113644647Y-86670443D01*
X113632211Y-86655289D01*
X113617057Y-86642853D01*
X113599769Y-86633612D01*
X113581010Y-86627921D01*
X113561501Y-86626000D01*
X112704410Y-86626000D01*
X112692183Y-86624796D01*
X112685144Y-86622660D01*
X112678656Y-86619193D01*
X112672972Y-86614528D01*
X112668307Y-86608844D01*
X112664840Y-86602356D01*
X112662704Y-86595317D01*
X112661500Y-86583090D01*
X112661500Y-86316910D01*
X112662704Y-86304683D01*
X112664840Y-86297644D01*
X112668307Y-86291156D01*
X112672972Y-86285473D01*
X112682929Y-86277301D01*
X112696791Y-86263439D01*
X112707682Y-86247140D01*
X112715184Y-86229029D01*
X112719008Y-86209802D01*
X112719009Y-86190199D01*
X112715184Y-86170972D01*
X112707682Y-86152861D01*
X112696792Y-86136562D01*
X112682929Y-86122699D01*
X112672972Y-86114527D01*
X112668307Y-86108844D01*
X112664840Y-86102356D01*
X112662704Y-86095317D01*
X112661500Y-86083090D01*
X112661500Y-85816910D01*
X112662704Y-85804683D01*
X112664840Y-85797644D01*
X112668307Y-85791156D01*
X112672972Y-85785473D01*
X112682929Y-85777301D01*
X112696791Y-85763439D01*
X112707682Y-85747140D01*
X112715184Y-85729029D01*
X112719008Y-85709802D01*
X112719009Y-85690199D01*
X112715184Y-85670972D01*
X112707682Y-85652861D01*
X112696792Y-85636562D01*
X112682929Y-85622699D01*
X112672972Y-85614527D01*
X112668307Y-85608844D01*
X112664840Y-85602356D01*
X112662704Y-85595317D01*
X112661500Y-85583090D01*
X112661500Y-85316910D01*
X112662704Y-85304683D01*
X112664840Y-85297644D01*
X112668307Y-85291156D01*
X112672972Y-85285473D01*
X112682929Y-85277301D01*
X112696791Y-85263439D01*
X112707682Y-85247140D01*
X112715184Y-85229029D01*
X112719008Y-85209802D01*
X112719009Y-85190199D01*
X112715184Y-85170972D01*
X112707682Y-85152861D01*
X112696792Y-85136562D01*
X112682929Y-85122699D01*
X112672972Y-85114527D01*
X112668307Y-85108844D01*
X112664840Y-85102356D01*
X112662704Y-85095317D01*
X112661500Y-85083090D01*
X112661500Y-84816910D01*
X112662704Y-84804683D01*
X112664840Y-84797644D01*
X112668307Y-84791156D01*
X112672972Y-84785473D01*
X112682929Y-84777301D01*
X112696791Y-84763439D01*
X112707682Y-84747140D01*
X112715184Y-84729029D01*
X112719008Y-84709802D01*
X112719009Y-84690199D01*
X112715184Y-84670972D01*
X112707682Y-84652861D01*
X112696792Y-84636562D01*
X112682929Y-84622699D01*
X112672972Y-84614527D01*
X112668307Y-84608844D01*
X112664840Y-84602356D01*
X112662704Y-84595317D01*
X112661500Y-84583090D01*
X112661500Y-84316910D01*
X112662704Y-84304683D01*
X112664840Y-84297644D01*
X112668307Y-84291156D01*
X112672972Y-84285473D01*
X112682929Y-84277301D01*
X112696791Y-84263439D01*
X112707682Y-84247140D01*
X112715184Y-84229029D01*
X112719008Y-84209802D01*
X112719009Y-84190199D01*
X112715184Y-84170972D01*
X112707682Y-84152861D01*
X112696792Y-84136562D01*
X112682929Y-84122699D01*
X112672972Y-84114527D01*
X112668307Y-84108844D01*
X112664840Y-84102356D01*
X112662704Y-84095317D01*
X112661500Y-84083090D01*
X112661500Y-83816910D01*
X112662704Y-83804683D01*
X112664840Y-83797644D01*
X112668307Y-83791156D01*
X112672972Y-83785473D01*
X112682929Y-83777301D01*
X112696791Y-83763439D01*
X112707682Y-83747140D01*
X112715184Y-83729029D01*
X112719008Y-83709802D01*
X112719009Y-83690199D01*
X112715184Y-83670972D01*
X112707682Y-83652861D01*
X112696792Y-83636562D01*
X112682929Y-83622699D01*
X112672972Y-83614527D01*
X112668307Y-83608844D01*
X112664840Y-83602356D01*
X112662704Y-83595317D01*
X112661500Y-83583090D01*
X112661500Y-83316910D01*
X112662704Y-83304683D01*
X112664840Y-83297644D01*
X112668307Y-83291156D01*
X112672972Y-83285473D01*
X112682929Y-83277301D01*
X112696791Y-83263439D01*
X112707682Y-83247140D01*
X112715184Y-83229029D01*
X112719008Y-83209802D01*
X112719009Y-83190199D01*
X112715184Y-83170972D01*
X112707682Y-83152861D01*
X112696792Y-83136562D01*
X112682929Y-83122699D01*
X112672972Y-83114527D01*
X112668307Y-83108844D01*
X112664840Y-83102356D01*
X112662704Y-83095317D01*
X112661500Y-83083090D01*
X112661500Y-82816910D01*
X112662704Y-82804683D01*
X112664840Y-82797644D01*
X112668307Y-82791156D01*
X112672972Y-82785473D01*
X112682929Y-82777301D01*
X112696791Y-82763439D01*
X112707682Y-82747140D01*
X112715184Y-82729029D01*
X112719008Y-82709802D01*
X112719009Y-82690199D01*
X112715184Y-82670972D01*
X112707682Y-82652861D01*
X112696792Y-82636562D01*
X112682929Y-82622699D01*
X112672972Y-82614527D01*
X112668307Y-82608844D01*
X112664840Y-82602356D01*
X112662704Y-82595317D01*
X112661500Y-82583090D01*
X112661500Y-82316910D01*
X112662704Y-82304683D01*
X112664840Y-82297644D01*
X112668307Y-82291156D01*
X112672972Y-82285473D01*
X112682929Y-82277301D01*
X112696791Y-82263439D01*
X112707682Y-82247140D01*
X112715184Y-82229029D01*
X112719008Y-82209802D01*
X112719009Y-82190199D01*
X112715184Y-82170972D01*
X112707682Y-82152861D01*
X112696792Y-82136562D01*
X112682929Y-82122699D01*
X112672972Y-82114527D01*
X112668307Y-82108844D01*
X112664840Y-82102356D01*
X112662704Y-82095317D01*
X112661500Y-82083090D01*
X112661500Y-81816910D01*
X112662704Y-81804683D01*
X112664840Y-81797644D01*
X112668307Y-81791156D01*
X112672972Y-81785473D01*
X112682929Y-81777301D01*
X112696791Y-81763439D01*
X112707682Y-81747140D01*
X112715184Y-81729029D01*
X112719008Y-81709802D01*
X112719009Y-81690199D01*
X112715184Y-81670972D01*
X112707682Y-81652861D01*
X112696792Y-81636562D01*
X112682929Y-81622699D01*
X112672972Y-81614527D01*
X112668307Y-81608844D01*
X112664840Y-81602356D01*
X112662704Y-81595317D01*
X112661500Y-81583090D01*
X112661500Y-81316910D01*
X112662704Y-81304683D01*
X112664840Y-81297644D01*
X112668307Y-81291156D01*
X112672972Y-81285473D01*
X112682929Y-81277301D01*
X112696791Y-81263439D01*
X112707682Y-81247140D01*
X112715184Y-81229029D01*
X112719008Y-81209802D01*
X112719009Y-81190199D01*
X112715184Y-81170972D01*
X112707682Y-81152861D01*
X112696792Y-81136562D01*
X112682929Y-81122699D01*
X112672972Y-81114527D01*
X112668307Y-81108844D01*
X112664840Y-81102356D01*
X112662704Y-81095317D01*
X112661500Y-81083090D01*
X112661500Y-80816910D01*
X112662704Y-80804683D01*
X112664840Y-80797644D01*
X112668307Y-80791156D01*
X112672972Y-80785472D01*
X112678656Y-80780807D01*
X112685144Y-80777340D01*
X112692183Y-80775204D01*
X112704410Y-80774000D01*
X113561501Y-80774000D01*
X113581010Y-80772079D01*
X113599769Y-80766388D01*
X113617057Y-80757147D01*
X113632211Y-80744711D01*
X113644647Y-80729557D01*
X113653888Y-80712269D01*
X113659579Y-80693510D01*
X113661500Y-80674001D01*
X113661500Y-79816910D01*
X113662704Y-79804683D01*
X113664840Y-79797644D01*
X113668307Y-79791156D01*
X113672972Y-79785472D01*
X113678656Y-79780807D01*
X113685144Y-79777340D01*
X113692183Y-79775204D01*
X113704410Y-79774000D01*
X113970590Y-79774000D01*
X113982817Y-79775204D01*
X113982817Y-79775204D01*
G37*
G36*
X110632140Y-85658612D02*
G01*
X110748228Y-85681703D01*
X110903100Y-85745853D01*
X111042481Y-85838985D01*
X111161015Y-85957519D01*
X111254147Y-86096900D01*
X111318297Y-86251772D01*
X111333524Y-86328324D01*
X111351000Y-86416182D01*
X111351000Y-86583818D01*
X111346022Y-86608844D01*
X111318297Y-86748228D01*
X111254147Y-86903100D01*
X111161015Y-87042481D01*
X111042481Y-87161015D01*
X110903100Y-87254147D01*
X110748228Y-87318297D01*
X110649581Y-87337919D01*
X110583818Y-87351000D01*
X110416182Y-87351000D01*
X110350419Y-87337919D01*
X110251772Y-87318297D01*
X110096900Y-87254147D01*
X109957519Y-87161015D01*
X109838985Y-87042481D01*
X109745853Y-86903100D01*
X109681703Y-86748228D01*
X109653978Y-86608844D01*
X109649000Y-86583818D01*
X109649000Y-86416182D01*
X109666476Y-86328324D01*
X109681703Y-86251772D01*
X109745853Y-86096900D01*
X109838985Y-85957519D01*
X109957519Y-85838985D01*
X110096900Y-85745853D01*
X110251772Y-85681703D01*
X110367860Y-85658612D01*
X110416182Y-85649000D01*
X110583818Y-85649000D01*
X110632140Y-85658612D01*
X110632140Y-85658612D01*
G37*
G36*
X107632140Y-85658612D02*
G01*
X107748228Y-85681703D01*
X107903100Y-85745853D01*
X108042481Y-85838985D01*
X108161015Y-85957519D01*
X108254147Y-86096900D01*
X108318297Y-86251772D01*
X108333524Y-86328324D01*
X108351000Y-86416182D01*
X108351000Y-86583818D01*
X108346022Y-86608844D01*
X108318297Y-86748228D01*
X108254147Y-86903100D01*
X108161015Y-87042481D01*
X108042481Y-87161015D01*
X107903100Y-87254147D01*
X107748228Y-87318297D01*
X107649581Y-87337919D01*
X107583818Y-87351000D01*
X107416182Y-87351000D01*
X107350419Y-87337919D01*
X107251772Y-87318297D01*
X107096900Y-87254147D01*
X106957519Y-87161015D01*
X106838985Y-87042481D01*
X106745853Y-86903100D01*
X106681703Y-86748228D01*
X106653978Y-86608844D01*
X106649000Y-86583818D01*
X106649000Y-86416182D01*
X106666476Y-86328324D01*
X106681703Y-86251772D01*
X106745853Y-86096900D01*
X106838985Y-85957519D01*
X106957519Y-85838985D01*
X107096900Y-85745853D01*
X107251772Y-85681703D01*
X107367860Y-85658612D01*
X107416182Y-85649000D01*
X107583818Y-85649000D01*
X107632140Y-85658612D01*
X107632140Y-85658612D01*
G37*
G36*
X104101000Y-80251000D02*
G01*
X102750999Y-80251000D01*
X102731490Y-80252921D01*
X102712731Y-80258612D01*
X102695443Y-80267853D01*
X102680289Y-80280289D01*
X102667853Y-80295443D01*
X102658612Y-80312731D01*
X102652921Y-80331490D01*
X102651000Y-80350999D01*
X102651000Y-80699001D01*
X102652921Y-80718510D01*
X102658612Y-80737269D01*
X102667853Y-80754557D01*
X102680289Y-80769711D01*
X102695443Y-80782147D01*
X102712731Y-80791388D01*
X102731490Y-80797079D01*
X102750999Y-80799000D01*
X104101000Y-80799000D01*
X104101000Y-84001000D01*
X102750999Y-84001000D01*
X102731490Y-84002921D01*
X102712731Y-84008612D01*
X102695443Y-84017853D01*
X102680289Y-84030289D01*
X102667853Y-84045443D01*
X102658612Y-84062731D01*
X102652921Y-84081490D01*
X102651000Y-84100999D01*
X102651000Y-84449001D01*
X102652921Y-84468510D01*
X102658612Y-84487269D01*
X102667853Y-84504557D01*
X102680289Y-84519711D01*
X102695443Y-84532147D01*
X102712731Y-84541388D01*
X102731490Y-84547079D01*
X102750999Y-84549000D01*
X104101000Y-84549000D01*
X104101000Y-86401000D01*
X102699000Y-86401000D01*
X102699000Y-85750999D01*
X102697079Y-85731490D01*
X102691388Y-85712731D01*
X102682147Y-85695443D01*
X102669711Y-85680289D01*
X102654557Y-85667853D01*
X102637269Y-85658612D01*
X102618510Y-85652921D01*
X102599001Y-85651000D01*
X100249000Y-85651000D01*
X100249000Y-83299000D01*
X102599001Y-83299000D01*
X102618510Y-83297079D01*
X102637269Y-83291388D01*
X102654557Y-83282147D01*
X102669711Y-83269711D01*
X102682147Y-83254557D01*
X102691388Y-83237269D01*
X102697079Y-83218510D01*
X102699000Y-83199001D01*
X102699000Y-81600999D01*
X102697079Y-81581490D01*
X102691388Y-81562731D01*
X102682147Y-81545443D01*
X102669711Y-81530289D01*
X102654557Y-81517853D01*
X102637269Y-81508612D01*
X102618510Y-81502921D01*
X102599001Y-81501000D01*
X100249000Y-81501000D01*
X100249000Y-79149000D01*
X102599001Y-79149000D01*
X102618510Y-79147079D01*
X102637269Y-79141388D01*
X102654557Y-79132147D01*
X102669711Y-79119711D01*
X102682147Y-79104557D01*
X102691388Y-79087269D01*
X102697079Y-79068510D01*
X102699000Y-79049001D01*
X102699000Y-78399000D01*
X104101000Y-78399000D01*
X104101000Y-80251000D01*
X104101000Y-80251000D01*
G37*
G36*
X107649581Y-83162081D02*
G01*
X107748228Y-83181703D01*
X107903100Y-83245853D01*
X108042481Y-83338985D01*
X108161015Y-83457519D01*
X108254147Y-83596900D01*
X108318297Y-83751772D01*
X108333524Y-83828324D01*
X108351000Y-83916182D01*
X108351000Y-84083818D01*
X108343942Y-84119301D01*
X108318297Y-84248228D01*
X108254147Y-84403100D01*
X108161015Y-84542481D01*
X108042481Y-84661015D01*
X107903100Y-84754147D01*
X107748228Y-84818297D01*
X107649581Y-84837919D01*
X107583818Y-84851000D01*
X107416182Y-84851000D01*
X107350419Y-84837919D01*
X107251772Y-84818297D01*
X107096900Y-84754147D01*
X106957519Y-84661015D01*
X106838985Y-84542481D01*
X106745853Y-84403100D01*
X106681703Y-84248228D01*
X106656058Y-84119301D01*
X106649000Y-84083818D01*
X106649000Y-83916182D01*
X106666476Y-83828324D01*
X106681703Y-83751772D01*
X106745853Y-83596900D01*
X106838985Y-83457519D01*
X106957519Y-83338985D01*
X107096900Y-83245853D01*
X107251772Y-83181703D01*
X107350419Y-83162081D01*
X107416182Y-83149000D01*
X107583818Y-83149000D01*
X107649581Y-83162081D01*
X107649581Y-83162081D01*
G37*
G36*
X110649581Y-83162081D02*
G01*
X110748228Y-83181703D01*
X110903100Y-83245853D01*
X111042481Y-83338985D01*
X111161015Y-83457519D01*
X111254147Y-83596900D01*
X111318297Y-83751772D01*
X111333524Y-83828324D01*
X111351000Y-83916182D01*
X111351000Y-84083818D01*
X111343942Y-84119301D01*
X111318297Y-84248228D01*
X111254147Y-84403100D01*
X111161015Y-84542481D01*
X111042481Y-84661015D01*
X110903100Y-84754147D01*
X110748228Y-84818297D01*
X110649581Y-84837919D01*
X110583818Y-84851000D01*
X110416182Y-84851000D01*
X110350419Y-84837919D01*
X110251772Y-84818297D01*
X110096900Y-84754147D01*
X109957519Y-84661015D01*
X109838985Y-84542481D01*
X109745853Y-84403100D01*
X109681703Y-84248228D01*
X109656058Y-84119301D01*
X109649000Y-84083818D01*
X109649000Y-83916182D01*
X109666476Y-83828324D01*
X109681703Y-83751772D01*
X109745853Y-83596900D01*
X109838985Y-83457519D01*
X109957519Y-83338985D01*
X110096900Y-83245853D01*
X110251772Y-83181703D01*
X110350419Y-83162081D01*
X110416182Y-83149000D01*
X110583818Y-83149000D01*
X110649581Y-83162081D01*
X110649581Y-83162081D01*
G37*
G36*
X110649581Y-80662081D02*
G01*
X110748228Y-80681703D01*
X110903100Y-80745853D01*
X111042481Y-80838985D01*
X111161015Y-80957519D01*
X111254147Y-81096900D01*
X111318297Y-81251772D01*
X111333524Y-81328324D01*
X111351000Y-81416182D01*
X111351000Y-81583818D01*
X111343942Y-81619301D01*
X111318297Y-81748228D01*
X111254147Y-81903100D01*
X111161015Y-82042481D01*
X111042481Y-82161015D01*
X110903100Y-82254147D01*
X110748228Y-82318297D01*
X110649581Y-82337919D01*
X110583818Y-82351000D01*
X110416182Y-82351000D01*
X110350419Y-82337919D01*
X110251772Y-82318297D01*
X110096900Y-82254147D01*
X109957519Y-82161015D01*
X109838985Y-82042481D01*
X109745853Y-81903100D01*
X109681703Y-81748228D01*
X109656058Y-81619301D01*
X109649000Y-81583818D01*
X109649000Y-81416182D01*
X109666476Y-81328324D01*
X109681703Y-81251772D01*
X109745853Y-81096900D01*
X109838985Y-80957519D01*
X109957519Y-80838985D01*
X110096900Y-80745853D01*
X110251772Y-80681703D01*
X110350419Y-80662081D01*
X110416182Y-80649000D01*
X110583818Y-80649000D01*
X110649581Y-80662081D01*
X110649581Y-80662081D01*
G37*
G36*
X107649581Y-80662081D02*
G01*
X107748228Y-80681703D01*
X107903100Y-80745853D01*
X108042481Y-80838985D01*
X108161015Y-80957519D01*
X108254147Y-81096900D01*
X108318297Y-81251772D01*
X108333524Y-81328324D01*
X108351000Y-81416182D01*
X108351000Y-81583818D01*
X108343942Y-81619301D01*
X108318297Y-81748228D01*
X108254147Y-81903100D01*
X108161015Y-82042481D01*
X108042481Y-82161015D01*
X107903100Y-82254147D01*
X107748228Y-82318297D01*
X107649581Y-82337919D01*
X107583818Y-82351000D01*
X107416182Y-82351000D01*
X107350419Y-82337919D01*
X107251772Y-82318297D01*
X107096900Y-82254147D01*
X106957519Y-82161015D01*
X106838985Y-82042481D01*
X106745853Y-81903100D01*
X106681703Y-81748228D01*
X106656058Y-81619301D01*
X106649000Y-81583818D01*
X106649000Y-81416182D01*
X106666476Y-81328324D01*
X106681703Y-81251772D01*
X106745853Y-81096900D01*
X106838985Y-80957519D01*
X106957519Y-80838985D01*
X107096900Y-80745853D01*
X107251772Y-80681703D01*
X107350419Y-80662081D01*
X107416182Y-80649000D01*
X107583818Y-80649000D01*
X107649581Y-80662081D01*
X107649581Y-80662081D01*
G37*
G36*
X107649581Y-78162081D02*
G01*
X107748228Y-78181703D01*
X107903100Y-78245853D01*
X108042481Y-78338985D01*
X108161015Y-78457519D01*
X108254147Y-78596900D01*
X108318297Y-78751772D01*
X108319088Y-78755750D01*
X108351000Y-78916182D01*
X108351000Y-79083818D01*
X108343860Y-79119711D01*
X108318297Y-79248228D01*
X108254147Y-79403100D01*
X108161015Y-79542481D01*
X108042481Y-79661015D01*
X107903100Y-79754147D01*
X107748228Y-79818297D01*
X107649581Y-79837919D01*
X107583818Y-79851000D01*
X107416182Y-79851000D01*
X107350419Y-79837919D01*
X107251772Y-79818297D01*
X107096900Y-79754147D01*
X106957519Y-79661015D01*
X106838985Y-79542481D01*
X106745853Y-79403100D01*
X106681703Y-79248228D01*
X106656140Y-79119711D01*
X106649000Y-79083818D01*
X106649000Y-78916182D01*
X106680912Y-78755750D01*
X106681703Y-78751772D01*
X106745853Y-78596900D01*
X106838985Y-78457519D01*
X106957519Y-78338985D01*
X107096900Y-78245853D01*
X107251772Y-78181703D01*
X107350419Y-78162081D01*
X107416182Y-78149000D01*
X107583818Y-78149000D01*
X107649581Y-78162081D01*
X107649581Y-78162081D01*
G37*
G36*
X110649581Y-78162081D02*
G01*
X110748228Y-78181703D01*
X110903100Y-78245853D01*
X111042481Y-78338985D01*
X111161015Y-78457519D01*
X111254147Y-78596900D01*
X111318297Y-78751772D01*
X111319088Y-78755750D01*
X111351000Y-78916182D01*
X111351000Y-79083818D01*
X111343860Y-79119711D01*
X111318297Y-79248228D01*
X111254147Y-79403100D01*
X111161015Y-79542481D01*
X111042481Y-79661015D01*
X110903100Y-79754147D01*
X110748228Y-79818297D01*
X110649581Y-79837919D01*
X110583818Y-79851000D01*
X110416182Y-79851000D01*
X110350419Y-79837919D01*
X110251772Y-79818297D01*
X110096900Y-79754147D01*
X109957519Y-79661015D01*
X109838985Y-79542481D01*
X109745853Y-79403100D01*
X109681703Y-79248228D01*
X109656140Y-79119711D01*
X109649000Y-79083818D01*
X109649000Y-78916182D01*
X109680912Y-78755750D01*
X109681703Y-78751772D01*
X109745853Y-78596900D01*
X109838985Y-78457519D01*
X109957519Y-78338985D01*
X110096900Y-78245853D01*
X110251772Y-78181703D01*
X110350419Y-78162081D01*
X110416182Y-78149000D01*
X110583818Y-78149000D01*
X110649581Y-78162081D01*
X110649581Y-78162081D01*
G37*
G36*
X113269552Y-78515707D02*
G01*
X113305898Y-78526732D01*
X113339401Y-78544640D01*
X113368763Y-78568737D01*
X113392860Y-78598099D01*
X113410768Y-78631602D01*
X113421793Y-78667948D01*
X113426000Y-78710658D01*
X113426000Y-79289342D01*
X113421793Y-79332052D01*
X113410768Y-79368398D01*
X113392860Y-79401901D01*
X113368763Y-79431263D01*
X113339401Y-79455360D01*
X113305898Y-79473268D01*
X113269552Y-79484293D01*
X113226842Y-79488500D01*
X112573158Y-79488500D01*
X112530448Y-79484293D01*
X112494102Y-79473268D01*
X112460599Y-79455360D01*
X112431237Y-79431263D01*
X112407140Y-79401901D01*
X112389232Y-79368398D01*
X112378207Y-79332052D01*
X112374000Y-79289342D01*
X112374000Y-78710658D01*
X112378207Y-78667948D01*
X112389232Y-78631602D01*
X112407140Y-78598099D01*
X112431237Y-78568737D01*
X112460599Y-78544640D01*
X112494102Y-78526732D01*
X112530448Y-78515707D01*
X112573158Y-78511500D01*
X113226842Y-78511500D01*
X113269552Y-78515707D01*
X113269552Y-78515707D01*
G37*
G36*
X119544552Y-77578207D02*
G01*
X119580898Y-77589232D01*
X119614401Y-77607140D01*
X119643763Y-77631237D01*
X119667860Y-77660599D01*
X119685768Y-77694102D01*
X119696793Y-77730448D01*
X119701000Y-77773158D01*
X119701000Y-78426842D01*
X119696793Y-78469552D01*
X119685768Y-78505898D01*
X119667860Y-78539401D01*
X119643763Y-78568763D01*
X119614401Y-78592860D01*
X119580898Y-78610768D01*
X119544552Y-78621793D01*
X119501842Y-78626000D01*
X118923158Y-78626000D01*
X118880448Y-78621793D01*
X118844102Y-78610768D01*
X118810599Y-78592860D01*
X118781237Y-78568763D01*
X118757140Y-78539401D01*
X118739232Y-78505898D01*
X118728207Y-78469552D01*
X118724000Y-78426842D01*
X118724000Y-77773158D01*
X118728207Y-77730448D01*
X118739232Y-77694102D01*
X118757140Y-77660599D01*
X118781237Y-77631237D01*
X118810599Y-77607140D01*
X118844102Y-77589232D01*
X118880448Y-77578207D01*
X118923158Y-77574000D01*
X119501842Y-77574000D01*
X119544552Y-77578207D01*
X119544552Y-77578207D01*
G37*
G36*
X121119552Y-77578207D02*
G01*
X121155898Y-77589232D01*
X121189401Y-77607140D01*
X121218763Y-77631237D01*
X121242860Y-77660599D01*
X121260768Y-77694102D01*
X121271793Y-77730448D01*
X121276000Y-77773158D01*
X121276000Y-78426842D01*
X121271793Y-78469552D01*
X121260768Y-78505898D01*
X121242860Y-78539401D01*
X121218763Y-78568763D01*
X121189401Y-78592860D01*
X121155898Y-78610768D01*
X121119552Y-78621793D01*
X121076842Y-78626000D01*
X120498158Y-78626000D01*
X120455448Y-78621793D01*
X120419102Y-78610768D01*
X120385599Y-78592860D01*
X120356237Y-78568763D01*
X120332140Y-78539401D01*
X120314232Y-78505898D01*
X120303207Y-78469552D01*
X120299000Y-78426842D01*
X120299000Y-77773158D01*
X120303207Y-77730448D01*
X120314232Y-77694102D01*
X120332140Y-77660599D01*
X120356237Y-77631237D01*
X120385599Y-77607140D01*
X120419102Y-77589232D01*
X120455448Y-77578207D01*
X120498158Y-77574000D01*
X121076842Y-77574000D01*
X121119552Y-77578207D01*
X121119552Y-77578207D01*
G37*
G36*
X102332052Y-76878207D02*
G01*
X102368398Y-76889232D01*
X102401901Y-76907140D01*
X102431263Y-76931237D01*
X102455360Y-76960599D01*
X102473268Y-76994102D01*
X102484293Y-77030448D01*
X102488500Y-77073158D01*
X102488500Y-77726842D01*
X102484293Y-77769552D01*
X102473268Y-77805898D01*
X102455360Y-77839401D01*
X102431263Y-77868763D01*
X102401901Y-77892860D01*
X102368398Y-77910768D01*
X102332052Y-77921793D01*
X102289342Y-77926000D01*
X101710658Y-77926000D01*
X101667948Y-77921793D01*
X101631602Y-77910768D01*
X101598099Y-77892860D01*
X101568737Y-77868763D01*
X101544640Y-77839401D01*
X101526732Y-77805898D01*
X101515707Y-77769552D01*
X101511500Y-77726842D01*
X101511500Y-77073158D01*
X101515707Y-77030448D01*
X101526732Y-76994102D01*
X101544640Y-76960599D01*
X101568737Y-76931237D01*
X101598099Y-76907140D01*
X101631602Y-76889232D01*
X101667948Y-76878207D01*
X101710658Y-76874000D01*
X102289342Y-76874000D01*
X102332052Y-76878207D01*
X102332052Y-76878207D01*
G37*
G36*
X103907052Y-76878207D02*
G01*
X103943398Y-76889232D01*
X103976901Y-76907140D01*
X104006263Y-76931237D01*
X104030360Y-76960599D01*
X104048268Y-76994102D01*
X104059293Y-77030448D01*
X104063500Y-77073158D01*
X104063500Y-77726842D01*
X104059293Y-77769552D01*
X104048268Y-77805898D01*
X104030360Y-77839401D01*
X104006263Y-77868763D01*
X103976901Y-77892860D01*
X103943398Y-77910768D01*
X103907052Y-77921793D01*
X103864342Y-77926000D01*
X103285658Y-77926000D01*
X103242948Y-77921793D01*
X103206602Y-77910768D01*
X103173099Y-77892860D01*
X103143737Y-77868763D01*
X103119640Y-77839401D01*
X103101732Y-77805898D01*
X103090707Y-77769552D01*
X103086500Y-77726842D01*
X103086500Y-77073158D01*
X103090707Y-77030448D01*
X103101732Y-76994102D01*
X103119640Y-76960599D01*
X103143737Y-76931237D01*
X103173099Y-76907140D01*
X103206602Y-76889232D01*
X103242948Y-76878207D01*
X103285658Y-76874000D01*
X103864342Y-76874000D01*
X103907052Y-76878207D01*
X103907052Y-76878207D01*
G37*
G36*
X113269552Y-76940707D02*
G01*
X113305898Y-76951732D01*
X113339401Y-76969640D01*
X113368763Y-76993737D01*
X113392860Y-77023099D01*
X113410768Y-77056602D01*
X113421793Y-77092948D01*
X113426000Y-77135658D01*
X113426000Y-77714342D01*
X113421793Y-77757052D01*
X113410768Y-77793398D01*
X113392860Y-77826901D01*
X113368763Y-77856263D01*
X113339401Y-77880360D01*
X113305898Y-77898268D01*
X113269552Y-77909293D01*
X113226842Y-77913500D01*
X112573158Y-77913500D01*
X112530448Y-77909293D01*
X112494102Y-77898268D01*
X112460599Y-77880360D01*
X112431237Y-77856263D01*
X112407140Y-77826901D01*
X112389232Y-77793398D01*
X112378207Y-77757052D01*
X112374000Y-77714342D01*
X112374000Y-77135658D01*
X112378207Y-77092948D01*
X112389232Y-77056602D01*
X112407140Y-77023099D01*
X112431237Y-76993737D01*
X112460599Y-76969640D01*
X112494102Y-76951732D01*
X112530448Y-76940707D01*
X112573158Y-76936500D01*
X113226842Y-76936500D01*
X113269552Y-76940707D01*
X113269552Y-76940707D01*
G37*
G36*
X102344552Y-75578207D02*
G01*
X102380898Y-75589232D01*
X102414401Y-75607140D01*
X102443763Y-75631237D01*
X102467860Y-75660599D01*
X102485768Y-75694102D01*
X102496793Y-75730448D01*
X102501000Y-75773158D01*
X102501000Y-76426842D01*
X102496793Y-76469552D01*
X102485768Y-76505898D01*
X102467860Y-76539401D01*
X102443763Y-76568763D01*
X102414401Y-76592860D01*
X102380898Y-76610768D01*
X102344552Y-76621793D01*
X102301842Y-76626000D01*
X101723158Y-76626000D01*
X101680448Y-76621793D01*
X101644102Y-76610768D01*
X101610599Y-76592860D01*
X101581237Y-76568763D01*
X101557140Y-76539401D01*
X101539232Y-76505898D01*
X101528207Y-76469552D01*
X101524000Y-76426842D01*
X101524000Y-75773158D01*
X101528207Y-75730448D01*
X101539232Y-75694102D01*
X101557140Y-75660599D01*
X101581237Y-75631237D01*
X101610599Y-75607140D01*
X101644102Y-75589232D01*
X101680448Y-75578207D01*
X101723158Y-75574000D01*
X102301842Y-75574000D01*
X102344552Y-75578207D01*
X102344552Y-75578207D01*
G37*
G36*
X103919552Y-75578207D02*
G01*
X103955898Y-75589232D01*
X103989401Y-75607140D01*
X104018763Y-75631237D01*
X104042860Y-75660599D01*
X104060768Y-75694102D01*
X104071793Y-75730448D01*
X104076000Y-75773158D01*
X104076000Y-76426842D01*
X104071793Y-76469552D01*
X104060768Y-76505898D01*
X104042860Y-76539401D01*
X104018763Y-76568763D01*
X103989401Y-76592860D01*
X103955898Y-76610768D01*
X103919552Y-76621793D01*
X103876842Y-76626000D01*
X103298158Y-76626000D01*
X103255448Y-76621793D01*
X103219102Y-76610768D01*
X103185599Y-76592860D01*
X103156237Y-76568763D01*
X103132140Y-76539401D01*
X103114232Y-76505898D01*
X103103207Y-76469552D01*
X103099000Y-76426842D01*
X103099000Y-75773158D01*
X103103207Y-75730448D01*
X103114232Y-75694102D01*
X103132140Y-75660599D01*
X103156237Y-75631237D01*
X103185599Y-75607140D01*
X103219102Y-75589232D01*
X103255448Y-75578207D01*
X103298158Y-75574000D01*
X103876842Y-75574000D01*
X103919552Y-75578207D01*
X103919552Y-75578207D01*
G37*
G36*
X113169552Y-74765707D02*
G01*
X113205898Y-74776732D01*
X113239401Y-74794640D01*
X113268763Y-74818737D01*
X113292860Y-74848099D01*
X113310768Y-74881602D01*
X113321793Y-74917948D01*
X113326000Y-74960658D01*
X113326000Y-75539342D01*
X113321793Y-75582052D01*
X113310768Y-75618398D01*
X113292860Y-75651901D01*
X113268763Y-75681263D01*
X113239401Y-75705360D01*
X113205898Y-75723268D01*
X113169552Y-75734293D01*
X113126842Y-75738500D01*
X112473158Y-75738500D01*
X112430448Y-75734293D01*
X112394102Y-75723268D01*
X112360599Y-75705360D01*
X112331237Y-75681263D01*
X112307140Y-75651901D01*
X112289232Y-75618398D01*
X112278207Y-75582052D01*
X112274000Y-75539342D01*
X112274000Y-74960658D01*
X112278207Y-74917948D01*
X112289232Y-74881602D01*
X112307140Y-74848099D01*
X112331237Y-74818737D01*
X112360599Y-74794640D01*
X112394102Y-74776732D01*
X112430448Y-74765707D01*
X112473158Y-74761500D01*
X113126842Y-74761500D01*
X113169552Y-74765707D01*
X113169552Y-74765707D01*
G37*
G36*
X114569552Y-74765707D02*
G01*
X114605898Y-74776732D01*
X114639401Y-74794640D01*
X114668763Y-74818737D01*
X114692860Y-74848099D01*
X114710768Y-74881602D01*
X114721793Y-74917948D01*
X114726000Y-74960658D01*
X114726000Y-75539342D01*
X114721793Y-75582052D01*
X114710768Y-75618398D01*
X114692860Y-75651901D01*
X114668763Y-75681263D01*
X114639401Y-75705360D01*
X114605898Y-75723268D01*
X114569552Y-75734293D01*
X114526842Y-75738500D01*
X113873158Y-75738500D01*
X113830448Y-75734293D01*
X113794102Y-75723268D01*
X113760599Y-75705360D01*
X113731237Y-75681263D01*
X113707140Y-75651901D01*
X113689232Y-75618398D01*
X113678207Y-75582052D01*
X113674000Y-75539342D01*
X113674000Y-74960658D01*
X113678207Y-74917948D01*
X113689232Y-74881602D01*
X113707140Y-74848099D01*
X113731237Y-74818737D01*
X113760599Y-74794640D01*
X113794102Y-74776732D01*
X113830448Y-74765707D01*
X113873158Y-74761500D01*
X114526842Y-74761500D01*
X114569552Y-74765707D01*
X114569552Y-74765707D01*
G37*
G36*
X115969552Y-74765707D02*
G01*
X116005898Y-74776732D01*
X116039401Y-74794640D01*
X116068763Y-74818737D01*
X116092860Y-74848099D01*
X116110768Y-74881602D01*
X116121793Y-74917948D01*
X116126000Y-74960658D01*
X116126000Y-75539342D01*
X116121793Y-75582052D01*
X116110768Y-75618398D01*
X116092860Y-75651901D01*
X116068763Y-75681263D01*
X116039401Y-75705360D01*
X116005898Y-75723268D01*
X115969552Y-75734293D01*
X115926842Y-75738500D01*
X115273158Y-75738500D01*
X115230448Y-75734293D01*
X115194102Y-75723268D01*
X115160599Y-75705360D01*
X115131237Y-75681263D01*
X115107140Y-75651901D01*
X115089232Y-75618398D01*
X115078207Y-75582052D01*
X115074000Y-75539342D01*
X115074000Y-74960658D01*
X115078207Y-74917948D01*
X115089232Y-74881602D01*
X115107140Y-74848099D01*
X115131237Y-74818737D01*
X115160599Y-74794640D01*
X115194102Y-74776732D01*
X115230448Y-74765707D01*
X115273158Y-74761500D01*
X115926842Y-74761500D01*
X115969552Y-74765707D01*
X115969552Y-74765707D01*
G37*
G36*
X106481579Y-71912447D02*
G01*
X106782042Y-72036903D01*
X107052451Y-72217585D01*
X107282415Y-72447549D01*
X107463097Y-72717958D01*
X107587553Y-73018421D01*
X107651000Y-73337391D01*
X107651000Y-73662609D01*
X107587553Y-73981579D01*
X107463097Y-74282042D01*
X107282415Y-74552451D01*
X107052451Y-74782415D01*
X106782042Y-74963097D01*
X106481579Y-75087553D01*
X106162609Y-75151000D01*
X105837391Y-75151000D01*
X105518421Y-75087553D01*
X105217958Y-74963097D01*
X104947549Y-74782415D01*
X104717585Y-74552451D01*
X104536903Y-74282042D01*
X104412447Y-73981579D01*
X104349000Y-73662609D01*
X104349000Y-73337391D01*
X104412447Y-73018421D01*
X104536903Y-72717958D01*
X104717585Y-72447549D01*
X104947549Y-72217585D01*
X105217958Y-72036903D01*
X105518421Y-71912447D01*
X105837391Y-71849000D01*
X106162609Y-71849000D01*
X106481579Y-71912447D01*
X106481579Y-71912447D01*
G37*
G36*
X113169552Y-73190707D02*
G01*
X113205898Y-73201732D01*
X113239401Y-73219640D01*
X113268763Y-73243737D01*
X113292860Y-73273099D01*
X113310768Y-73306602D01*
X113321793Y-73342948D01*
X113326000Y-73385658D01*
X113326000Y-73964342D01*
X113321793Y-74007052D01*
X113310768Y-74043398D01*
X113292860Y-74076901D01*
X113268763Y-74106263D01*
X113239401Y-74130360D01*
X113205898Y-74148268D01*
X113169552Y-74159293D01*
X113126842Y-74163500D01*
X112473158Y-74163500D01*
X112430448Y-74159293D01*
X112394102Y-74148268D01*
X112360599Y-74130360D01*
X112331237Y-74106263D01*
X112307140Y-74076901D01*
X112289232Y-74043398D01*
X112278207Y-74007052D01*
X112274000Y-73964342D01*
X112274000Y-73385658D01*
X112278207Y-73342948D01*
X112289232Y-73306602D01*
X112307140Y-73273099D01*
X112331237Y-73243737D01*
X112360599Y-73219640D01*
X112394102Y-73201732D01*
X112430448Y-73190707D01*
X112473158Y-73186500D01*
X113126842Y-73186500D01*
X113169552Y-73190707D01*
X113169552Y-73190707D01*
G37*
G36*
X115969552Y-73190707D02*
G01*
X116005898Y-73201732D01*
X116039401Y-73219640D01*
X116068763Y-73243737D01*
X116092860Y-73273099D01*
X116110768Y-73306602D01*
X116121793Y-73342948D01*
X116126000Y-73385658D01*
X116126000Y-73964342D01*
X116121793Y-74007052D01*
X116110768Y-74043398D01*
X116092860Y-74076901D01*
X116068763Y-74106263D01*
X116039401Y-74130360D01*
X116005898Y-74148268D01*
X115969552Y-74159293D01*
X115926842Y-74163500D01*
X115273158Y-74163500D01*
X115230448Y-74159293D01*
X115194102Y-74148268D01*
X115160599Y-74130360D01*
X115131237Y-74106263D01*
X115107140Y-74076901D01*
X115089232Y-74043398D01*
X115078207Y-74007052D01*
X115074000Y-73964342D01*
X115074000Y-73385658D01*
X115078207Y-73342948D01*
X115089232Y-73306602D01*
X115107140Y-73273099D01*
X115131237Y-73243737D01*
X115160599Y-73219640D01*
X115194102Y-73201732D01*
X115230448Y-73190707D01*
X115273158Y-73186500D01*
X115926842Y-73186500D01*
X115969552Y-73190707D01*
X115969552Y-73190707D01*
G37*
G36*
X114569552Y-73190707D02*
G01*
X114605898Y-73201732D01*
X114639401Y-73219640D01*
X114668763Y-73243737D01*
X114692860Y-73273099D01*
X114710768Y-73306602D01*
X114721793Y-73342948D01*
X114726000Y-73385658D01*
X114726000Y-73964342D01*
X114721793Y-74007052D01*
X114710768Y-74043398D01*
X114692860Y-74076901D01*
X114668763Y-74106263D01*
X114639401Y-74130360D01*
X114605898Y-74148268D01*
X114569552Y-74159293D01*
X114526842Y-74163500D01*
X113873158Y-74163500D01*
X113830448Y-74159293D01*
X113794102Y-74148268D01*
X113760599Y-74130360D01*
X113731237Y-74106263D01*
X113707140Y-74076901D01*
X113689232Y-74043398D01*
X113678207Y-74007052D01*
X113674000Y-73964342D01*
X113674000Y-73385658D01*
X113678207Y-73342948D01*
X113689232Y-73306602D01*
X113707140Y-73273099D01*
X113731237Y-73243737D01*
X113760599Y-73219640D01*
X113794102Y-73201732D01*
X113830448Y-73190707D01*
X113873158Y-73186500D01*
X114526842Y-73186500D01*
X114569552Y-73190707D01*
X114569552Y-73190707D01*
G37*
G36*
X113169552Y-71965707D02*
G01*
X113205898Y-71976732D01*
X113239401Y-71994640D01*
X113268763Y-72018737D01*
X113292860Y-72048099D01*
X113310768Y-72081602D01*
X113321793Y-72117948D01*
X113326000Y-72160658D01*
X113326000Y-72739342D01*
X113321793Y-72782052D01*
X113310768Y-72818398D01*
X113292860Y-72851901D01*
X113268763Y-72881263D01*
X113239401Y-72905360D01*
X113205898Y-72923268D01*
X113169552Y-72934293D01*
X113126842Y-72938500D01*
X112473158Y-72938500D01*
X112430448Y-72934293D01*
X112394102Y-72923268D01*
X112360599Y-72905360D01*
X112331237Y-72881263D01*
X112307140Y-72851901D01*
X112289232Y-72818398D01*
X112278207Y-72782052D01*
X112274000Y-72739342D01*
X112274000Y-72160658D01*
X112278207Y-72117948D01*
X112289232Y-72081602D01*
X112307140Y-72048099D01*
X112331237Y-72018737D01*
X112360599Y-71994640D01*
X112394102Y-71976732D01*
X112430448Y-71965707D01*
X112473158Y-71961500D01*
X113126842Y-71961500D01*
X113169552Y-71965707D01*
X113169552Y-71965707D01*
G37*
G36*
X114569552Y-71953207D02*
G01*
X114605898Y-71964232D01*
X114639401Y-71982140D01*
X114668763Y-72006237D01*
X114692860Y-72035599D01*
X114710768Y-72069102D01*
X114721793Y-72105448D01*
X114726000Y-72148158D01*
X114726000Y-72726842D01*
X114721793Y-72769552D01*
X114710768Y-72805898D01*
X114692860Y-72839401D01*
X114668763Y-72868763D01*
X114639401Y-72892860D01*
X114605898Y-72910768D01*
X114569552Y-72921793D01*
X114526842Y-72926000D01*
X113873158Y-72926000D01*
X113830448Y-72921793D01*
X113794102Y-72910768D01*
X113760599Y-72892860D01*
X113731237Y-72868763D01*
X113707140Y-72839401D01*
X113689232Y-72805898D01*
X113678207Y-72769552D01*
X113674000Y-72726842D01*
X113674000Y-72148158D01*
X113678207Y-72105448D01*
X113689232Y-72069102D01*
X113707140Y-72035599D01*
X113731237Y-72006237D01*
X113760599Y-71982140D01*
X113794102Y-71964232D01*
X113830448Y-71953207D01*
X113873158Y-71949000D01*
X114526842Y-71949000D01*
X114569552Y-71953207D01*
X114569552Y-71953207D01*
G37*
G36*
X115969552Y-71915707D02*
G01*
X116005898Y-71926732D01*
X116039401Y-71944640D01*
X116068763Y-71968737D01*
X116092860Y-71998099D01*
X116110768Y-72031602D01*
X116121793Y-72067948D01*
X116126000Y-72110658D01*
X116126000Y-72689342D01*
X116121793Y-72732052D01*
X116110768Y-72768398D01*
X116092860Y-72801901D01*
X116068763Y-72831263D01*
X116039401Y-72855360D01*
X116005898Y-72873268D01*
X115969552Y-72884293D01*
X115926842Y-72888500D01*
X115273158Y-72888500D01*
X115230448Y-72884293D01*
X115194102Y-72873268D01*
X115160599Y-72855360D01*
X115131237Y-72831263D01*
X115107140Y-72801901D01*
X115089232Y-72768398D01*
X115078207Y-72732052D01*
X115074000Y-72689342D01*
X115074000Y-72110658D01*
X115078207Y-72067948D01*
X115089232Y-72031602D01*
X115107140Y-71998099D01*
X115131237Y-71968737D01*
X115160599Y-71944640D01*
X115194102Y-71926732D01*
X115230448Y-71915707D01*
X115273158Y-71911500D01*
X115926842Y-71911500D01*
X115969552Y-71915707D01*
X115969552Y-71915707D01*
G37*
G36*
X113169552Y-70390707D02*
G01*
X113205898Y-70401732D01*
X113239401Y-70419640D01*
X113268763Y-70443737D01*
X113292860Y-70473099D01*
X113310768Y-70506602D01*
X113321793Y-70542948D01*
X113326000Y-70585658D01*
X113326000Y-71164342D01*
X113321793Y-71207052D01*
X113310768Y-71243398D01*
X113292860Y-71276901D01*
X113268763Y-71306263D01*
X113239401Y-71330360D01*
X113205898Y-71348268D01*
X113169552Y-71359293D01*
X113126842Y-71363500D01*
X112473158Y-71363500D01*
X112430448Y-71359293D01*
X112394102Y-71348268D01*
X112360599Y-71330360D01*
X112331237Y-71306263D01*
X112307140Y-71276901D01*
X112289232Y-71243398D01*
X112278207Y-71207052D01*
X112274000Y-71164342D01*
X112274000Y-70585658D01*
X112278207Y-70542948D01*
X112289232Y-70506602D01*
X112307140Y-70473099D01*
X112331237Y-70443737D01*
X112360599Y-70419640D01*
X112394102Y-70401732D01*
X112430448Y-70390707D01*
X112473158Y-70386500D01*
X113126842Y-70386500D01*
X113169552Y-70390707D01*
X113169552Y-70390707D01*
G37*
G36*
X114569552Y-70378207D02*
G01*
X114605898Y-70389232D01*
X114639401Y-70407140D01*
X114668763Y-70431237D01*
X114692860Y-70460599D01*
X114710768Y-70494102D01*
X114721793Y-70530448D01*
X114726000Y-70573158D01*
X114726000Y-71151842D01*
X114721793Y-71194552D01*
X114710768Y-71230898D01*
X114692860Y-71264401D01*
X114668763Y-71293763D01*
X114639401Y-71317860D01*
X114605898Y-71335768D01*
X114569552Y-71346793D01*
X114526842Y-71351000D01*
X113873158Y-71351000D01*
X113830448Y-71346793D01*
X113794102Y-71335768D01*
X113760599Y-71317860D01*
X113731237Y-71293763D01*
X113707140Y-71264401D01*
X113689232Y-71230898D01*
X113678207Y-71194552D01*
X113674000Y-71151842D01*
X113674000Y-70573158D01*
X113678207Y-70530448D01*
X113689232Y-70494102D01*
X113707140Y-70460599D01*
X113731237Y-70431237D01*
X113760599Y-70407140D01*
X113794102Y-70389232D01*
X113830448Y-70378207D01*
X113873158Y-70374000D01*
X114526842Y-70374000D01*
X114569552Y-70378207D01*
X114569552Y-70378207D01*
G37*
G36*
X115969552Y-70340707D02*
G01*
X116005898Y-70351732D01*
X116039401Y-70369640D01*
X116068763Y-70393737D01*
X116092860Y-70423099D01*
X116110768Y-70456602D01*
X116121793Y-70492948D01*
X116126000Y-70535658D01*
X116126000Y-71114342D01*
X116121793Y-71157052D01*
X116110768Y-71193398D01*
X116092860Y-71226901D01*
X116068763Y-71256263D01*
X116039401Y-71280360D01*
X116005898Y-71298268D01*
X115969552Y-71309293D01*
X115926842Y-71313500D01*
X115273158Y-71313500D01*
X115230448Y-71309293D01*
X115194102Y-71298268D01*
X115160599Y-71280360D01*
X115131237Y-71256263D01*
X115107140Y-71226901D01*
X115089232Y-71193398D01*
X115078207Y-71157052D01*
X115074000Y-71114342D01*
X115074000Y-70535658D01*
X115078207Y-70492948D01*
X115089232Y-70456602D01*
X115107140Y-70423099D01*
X115131237Y-70393737D01*
X115160599Y-70369640D01*
X115194102Y-70351732D01*
X115230448Y-70340707D01*
X115273158Y-70336500D01*
X115926842Y-70336500D01*
X115969552Y-70340707D01*
X115969552Y-70340707D01*
G37*
M02*
