G04 #@! TF.GenerationSoftware,KiCad,Pcbnew,(5.1.4)-1*
G04 #@! TF.CreationDate,2019-11-29T20:46:52-07:00*
G04 #@! TF.ProjectId,CruiseController,43727569-7365-4436-9f6e-74726f6c6c65,rev?*
G04 #@! TF.SameCoordinates,Original*
G04 #@! TF.FileFunction,Legend,Bot*
G04 #@! TF.FilePolarity,Positive*
%FSLAX46Y46*%
G04 Gerber Fmt 4.6, Leading zero omitted, Abs format (unit mm)*
G04 Created by KiCad (PCBNEW (5.1.4)-1) date 2019-11-29 20:46:52*
%MOMM*%
%LPD*%
G04 APERTURE LIST*
%ADD10C,0.127000*%
%ADD11C,0.120000*%
%ADD12C,0.050000*%
%ADD13C,0.150000*%
G04 APERTURE END LIST*
D10*
X101700000Y-91900000D02*
G75*
G03X101700000Y-91900000I-50000J0D01*
G01*
X100950001Y-90950000D02*
G75*
G02X100950000Y-88950000I466307J1000000D01*
G01*
X101400000Y-90800000D02*
X101400000Y-89100000D01*
D11*
X113474721Y-88240000D02*
X113800279Y-88240000D01*
X113474721Y-89260000D02*
X113800279Y-89260000D01*
X104362779Y-88660000D02*
X104037221Y-88660000D01*
X104362779Y-87640000D02*
X104037221Y-87640000D01*
X104362779Y-91460000D02*
X104037221Y-91460000D01*
X104362779Y-90440000D02*
X104037221Y-90440000D01*
X104350279Y-90060000D02*
X104024721Y-90060000D01*
X104350279Y-89040000D02*
X104024721Y-89040000D01*
D10*
X98750000Y-78300000D02*
X103901000Y-78300000D01*
X98750000Y-86500000D02*
X98750000Y-78300000D01*
X103901000Y-86500000D02*
X98750000Y-86500000D01*
D11*
X116625279Y-91168000D02*
X116299721Y-91168000D01*
X116625279Y-90148000D02*
X116299721Y-90148000D01*
X113290000Y-100275279D02*
X113290000Y-99949721D01*
X114310000Y-100275279D02*
X114310000Y-99949721D01*
X118912779Y-99768000D02*
X118587221Y-99768000D01*
X118912779Y-98748000D02*
X118587221Y-98748000D01*
X115090000Y-74625279D02*
X115090000Y-74299721D01*
X116110000Y-74625279D02*
X116110000Y-74299721D01*
X112290000Y-71825279D02*
X112290000Y-71499721D01*
X113310000Y-71825279D02*
X113310000Y-71499721D01*
X113690000Y-71812779D02*
X113690000Y-71487221D01*
X114710000Y-71812779D02*
X114710000Y-71487221D01*
X113310000Y-74299721D02*
X113310000Y-74625279D01*
X112290000Y-74299721D02*
X112290000Y-74625279D01*
X112390000Y-78375279D02*
X112390000Y-78049721D01*
X113410000Y-78375279D02*
X113410000Y-78049721D01*
X114710000Y-74299721D02*
X114710000Y-74625279D01*
X113690000Y-74299721D02*
X113690000Y-74625279D01*
X102278922Y-92590000D02*
X102796078Y-92590000D01*
X102278922Y-94010000D02*
X102796078Y-94010000D01*
X120162779Y-78610000D02*
X119837221Y-78610000D01*
X120162779Y-77590000D02*
X119837221Y-77590000D01*
X115090000Y-71775279D02*
X115090000Y-71449721D01*
X116110000Y-71775279D02*
X116110000Y-71449721D01*
X119722500Y-80090000D02*
X120197500Y-80090000D01*
X112977500Y-87310000D02*
X112977500Y-86835000D01*
X113452500Y-87310000D02*
X112977500Y-87310000D01*
X120197500Y-87310000D02*
X120197500Y-86835000D01*
X119722500Y-87310000D02*
X120197500Y-87310000D01*
X112977500Y-80090000D02*
X112977500Y-80565000D01*
X113452500Y-80090000D02*
X112977500Y-80090000D01*
X117240000Y-94423000D02*
X117240000Y-93948000D01*
X120460000Y-97168000D02*
X119985000Y-97168000D01*
X120460000Y-96693000D02*
X120460000Y-97168000D01*
X120460000Y-93948000D02*
X119985000Y-93948000D01*
X120460000Y-94423000D02*
X120460000Y-93948000D01*
X117240000Y-97168000D02*
X117715000Y-97168000D01*
X117240000Y-96693000D02*
X117240000Y-97168000D01*
X102950279Y-77910000D02*
X102624721Y-77910000D01*
X102950279Y-76890000D02*
X102624721Y-76890000D01*
X116025000Y-97183000D02*
X116025000Y-96958000D01*
X112775000Y-96958000D02*
X112775000Y-97183000D01*
X112775000Y-94158000D02*
X112775000Y-93933000D01*
X116025000Y-97183000D02*
X115050000Y-97183000D01*
X113750000Y-93933000D02*
X112775000Y-93933000D01*
X116025000Y-93933000D02*
X115050000Y-93933000D01*
X113750000Y-97183000D02*
X112775000Y-97183000D01*
X102249721Y-94490000D02*
X102575279Y-94490000D01*
X102249721Y-95510000D02*
X102575279Y-95510000D01*
X121460000Y-99757721D02*
X121460000Y-100083279D01*
X120440000Y-99757721D02*
X120440000Y-100083279D01*
X103924721Y-100390000D02*
X104250279Y-100390000D01*
X103924721Y-101410000D02*
X104250279Y-101410000D01*
X116062779Y-99810000D02*
X115737221Y-99810000D01*
X116062779Y-98790000D02*
X115737221Y-98790000D01*
X114690000Y-101862779D02*
X114690000Y-101537221D01*
X115710000Y-101862779D02*
X115710000Y-101537221D01*
X120110000Y-102545221D02*
X120110000Y-102870779D01*
X119090000Y-102545221D02*
X119090000Y-102870779D01*
X118637221Y-100090000D02*
X118962779Y-100090000D01*
X118637221Y-101110000D02*
X118962779Y-101110000D01*
X119475279Y-91168000D02*
X119149721Y-91168000D01*
X119475279Y-90148000D02*
X119149721Y-90148000D01*
X102637221Y-75590000D02*
X102962779Y-75590000D01*
X102637221Y-76610000D02*
X102962779Y-76610000D01*
X116324721Y-91498000D02*
X116650279Y-91498000D01*
X116324721Y-92518000D02*
X116650279Y-92518000D01*
X105310000Y-96900000D02*
X105310000Y-99350000D01*
X102090000Y-98700000D02*
X102090000Y-96900000D01*
X109590000Y-102802064D02*
X109590000Y-101597936D01*
X111410000Y-102802064D02*
X111410000Y-101597936D01*
D12*
X103448271Y-89801830D02*
X102807436Y-89801830D01*
X102807436Y-89954410D01*
X102837952Y-90045958D01*
X102898984Y-90106990D01*
X102960016Y-90137506D01*
X103082080Y-90168022D01*
X103173627Y-90168022D01*
X103295691Y-90137506D01*
X103356723Y-90106990D01*
X103417755Y-90045958D01*
X103448271Y-89954410D01*
X103448271Y-89801830D01*
X103448271Y-90778341D02*
X103448271Y-90412149D01*
X103448271Y-90595245D02*
X102807436Y-90595245D01*
X102898984Y-90534213D01*
X102960016Y-90473181D01*
X102990532Y-90412149D01*
X100889812Y-87561232D02*
X100889812Y-87195152D01*
X100889812Y-87378192D02*
X100249173Y-87378192D01*
X100340693Y-87317179D01*
X100401706Y-87256166D01*
X100432213Y-87195152D01*
X100249173Y-88140857D02*
X100249173Y-87835791D01*
X100554240Y-87805285D01*
X100523733Y-87835791D01*
X100493226Y-87896805D01*
X100493226Y-88049338D01*
X100523733Y-88110351D01*
X100554240Y-88140857D01*
X100615253Y-88171364D01*
X100767786Y-88171364D01*
X100828799Y-88140857D01*
X100859306Y-88110351D01*
X100889812Y-88049338D01*
X100889812Y-87896805D01*
X100859306Y-87835791D01*
X100828799Y-87805285D01*
X100249173Y-88750990D02*
X100249173Y-88445924D01*
X100554240Y-88415417D01*
X100523733Y-88445924D01*
X100493226Y-88506937D01*
X100493226Y-88659470D01*
X100523733Y-88720483D01*
X100554240Y-88750990D01*
X100615253Y-88781496D01*
X100767786Y-88781496D01*
X100828799Y-88750990D01*
X100859306Y-88720483D01*
X100889812Y-88659470D01*
X100889812Y-88506937D01*
X100859306Y-88445924D01*
X100828799Y-88415417D01*
X100889812Y-89391629D02*
X100889812Y-89025549D01*
X100889812Y-89208589D02*
X100249173Y-89208589D01*
X100340693Y-89147576D01*
X100401706Y-89086563D01*
X100432213Y-89025549D01*
X100310187Y-89635682D02*
X100279680Y-89666188D01*
X100249173Y-89727202D01*
X100249173Y-89879735D01*
X100279680Y-89940748D01*
X100310187Y-89971255D01*
X100371200Y-90001761D01*
X100432213Y-90001761D01*
X100523733Y-89971255D01*
X100889812Y-89605175D01*
X100889812Y-90001761D01*
X100462720Y-90550880D02*
X100889812Y-90550880D01*
X100218667Y-90398347D02*
X100676266Y-90245814D01*
X100676266Y-90642400D01*
X100889812Y-90886453D02*
X100249173Y-90886453D01*
X100706773Y-91100000D01*
X100249173Y-91313546D01*
X100889812Y-91313546D01*
X100889812Y-91954185D02*
X100889812Y-91588105D01*
X100889812Y-91771145D02*
X100249173Y-91771145D01*
X100340693Y-91710132D01*
X100401706Y-91649119D01*
X100432213Y-91588105D01*
X100249173Y-92167731D02*
X100249173Y-92594824D01*
X100889812Y-92320264D01*
X100249173Y-92777864D02*
X100249173Y-93174450D01*
X100493226Y-92960903D01*
X100493226Y-93052423D01*
X100523733Y-93113436D01*
X100554240Y-93143943D01*
X100615253Y-93174450D01*
X100767786Y-93174450D01*
X100828799Y-93143943D01*
X100859306Y-93113436D01*
X100889812Y-93052423D01*
X100889812Y-92869383D01*
X100859306Y-92808370D01*
X100828799Y-92777864D01*
X100310187Y-93418503D02*
X100279680Y-93449009D01*
X100249173Y-93510022D01*
X100249173Y-93662556D01*
X100279680Y-93723569D01*
X100310187Y-93754075D01*
X100371200Y-93784582D01*
X100432213Y-93784582D01*
X100523733Y-93754075D01*
X100889812Y-93387996D01*
X100889812Y-93784582D01*
X100249173Y-94181168D02*
X100249173Y-94242181D01*
X100279680Y-94303195D01*
X100310187Y-94333701D01*
X100371200Y-94364208D01*
X100493226Y-94394714D01*
X100645759Y-94394714D01*
X100767786Y-94364208D01*
X100828799Y-94333701D01*
X100859306Y-94303195D01*
X100889812Y-94242181D01*
X100889812Y-94181168D01*
X100859306Y-94120155D01*
X100828799Y-94089648D01*
X100767786Y-94059142D01*
X100645759Y-94028635D01*
X100493226Y-94028635D01*
X100371200Y-94059142D01*
X100310187Y-94089648D01*
X100279680Y-94120155D01*
X100249173Y-94181168D01*
X100249173Y-94791300D02*
X100249173Y-94852314D01*
X100279680Y-94913327D01*
X100310187Y-94943834D01*
X100371200Y-94974340D01*
X100493226Y-95004847D01*
X100645759Y-95004847D01*
X100767786Y-94974340D01*
X100828799Y-94943834D01*
X100859306Y-94913327D01*
X100889812Y-94852314D01*
X100889812Y-94791300D01*
X100859306Y-94730287D01*
X100828799Y-94699781D01*
X100767786Y-94669274D01*
X100645759Y-94638767D01*
X100493226Y-94638767D01*
X100371200Y-94669274D01*
X100310187Y-94699781D01*
X100279680Y-94730287D01*
X100249173Y-94791300D01*
D13*
X116116666Y-89107142D02*
X116164285Y-89154761D01*
X116307142Y-89202380D01*
X116402380Y-89202380D01*
X116545238Y-89154761D01*
X116640476Y-89059523D01*
X116688095Y-88964285D01*
X116735714Y-88773809D01*
X116735714Y-88630952D01*
X116688095Y-88440476D01*
X116640476Y-88345238D01*
X116545238Y-88250000D01*
X116402380Y-88202380D01*
X116307142Y-88202380D01*
X116164285Y-88250000D01*
X116116666Y-88297619D01*
X115164285Y-89202380D02*
X115735714Y-89202380D01*
X115450000Y-89202380D02*
X115450000Y-88202380D01*
X115545238Y-88345238D01*
X115640476Y-88440476D01*
X115735714Y-88488095D01*
X105792857Y-87352380D02*
X106126190Y-86876190D01*
X106364285Y-87352380D02*
X106364285Y-86352380D01*
X105983333Y-86352380D01*
X105888095Y-86400000D01*
X105840476Y-86447619D01*
X105792857Y-86542857D01*
X105792857Y-86685714D01*
X105840476Y-86780952D01*
X105888095Y-86828571D01*
X105983333Y-86876190D01*
X106364285Y-86876190D01*
X105411904Y-86447619D02*
X105364285Y-86400000D01*
X105269047Y-86352380D01*
X105030952Y-86352380D01*
X104935714Y-86400000D01*
X104888095Y-86447619D01*
X104840476Y-86542857D01*
X104840476Y-86638095D01*
X104888095Y-86780952D01*
X105459523Y-87352380D01*
X104840476Y-87352380D01*
X103935714Y-86352380D02*
X104411904Y-86352380D01*
X104459523Y-86828571D01*
X104411904Y-86780952D01*
X104316666Y-86733333D01*
X104078571Y-86733333D01*
X103983333Y-86780952D01*
X103935714Y-86828571D01*
X103888095Y-86923809D01*
X103888095Y-87161904D01*
X103935714Y-87257142D01*
X103983333Y-87304761D01*
X104078571Y-87352380D01*
X104316666Y-87352380D01*
X104411904Y-87304761D01*
X104459523Y-87257142D01*
X109342857Y-90702380D02*
X109676190Y-90226190D01*
X109914285Y-90702380D02*
X109914285Y-89702380D01*
X109533333Y-89702380D01*
X109438095Y-89750000D01*
X109390476Y-89797619D01*
X109342857Y-89892857D01*
X109342857Y-90035714D01*
X109390476Y-90130952D01*
X109438095Y-90178571D01*
X109533333Y-90226190D01*
X109914285Y-90226190D01*
X108961904Y-89797619D02*
X108914285Y-89750000D01*
X108819047Y-89702380D01*
X108580952Y-89702380D01*
X108485714Y-89750000D01*
X108438095Y-89797619D01*
X108390476Y-89892857D01*
X108390476Y-89988095D01*
X108438095Y-90130952D01*
X109009523Y-90702380D01*
X108390476Y-90702380D01*
X107533333Y-90035714D02*
X107533333Y-90702380D01*
X107771428Y-89654761D02*
X108009523Y-90369047D01*
X107390476Y-90369047D01*
X109592857Y-88252380D02*
X109926190Y-87776190D01*
X110164285Y-88252380D02*
X110164285Y-87252380D01*
X109783333Y-87252380D01*
X109688095Y-87300000D01*
X109640476Y-87347619D01*
X109592857Y-87442857D01*
X109592857Y-87585714D01*
X109640476Y-87680952D01*
X109688095Y-87728571D01*
X109783333Y-87776190D01*
X110164285Y-87776190D01*
X109211904Y-87347619D02*
X109164285Y-87300000D01*
X109069047Y-87252380D01*
X108830952Y-87252380D01*
X108735714Y-87300000D01*
X108688095Y-87347619D01*
X108640476Y-87442857D01*
X108640476Y-87538095D01*
X108688095Y-87680952D01*
X109259523Y-88252380D01*
X108640476Y-88252380D01*
X108307142Y-87252380D02*
X107688095Y-87252380D01*
X108021428Y-87633333D01*
X107878571Y-87633333D01*
X107783333Y-87680952D01*
X107735714Y-87728571D01*
X107688095Y-87823809D01*
X107688095Y-88061904D01*
X107735714Y-88157142D01*
X107783333Y-88204761D01*
X107878571Y-88252380D01*
X108164285Y-88252380D01*
X108259523Y-88204761D01*
X108307142Y-88157142D01*
D12*
X101854958Y-87089974D02*
X102305012Y-87089974D01*
X102395023Y-87059971D01*
X102455030Y-86999963D01*
X102485034Y-86909952D01*
X102485034Y-86849945D01*
X102485034Y-87720050D02*
X102485034Y-87360007D01*
X102485034Y-87540028D02*
X101854958Y-87540028D01*
X101944969Y-87480021D01*
X102004976Y-87420014D01*
X102034980Y-87360007D01*
X104354359Y-79444711D02*
X104865306Y-79444711D01*
X104925417Y-79474767D01*
X104955473Y-79504823D01*
X104985528Y-79564934D01*
X104985528Y-79685157D01*
X104955473Y-79745268D01*
X104925417Y-79775324D01*
X104865306Y-79805379D01*
X104354359Y-79805379D01*
X104955473Y-80075880D02*
X104985528Y-80166047D01*
X104985528Y-80316326D01*
X104955473Y-80376437D01*
X104925417Y-80406493D01*
X104865306Y-80436548D01*
X104805194Y-80436548D01*
X104745083Y-80406493D01*
X104715027Y-80376437D01*
X104684972Y-80316326D01*
X104654916Y-80196103D01*
X104624860Y-80135992D01*
X104594805Y-80105936D01*
X104534693Y-80075880D01*
X104474582Y-80075880D01*
X104414471Y-80105936D01*
X104384415Y-80135992D01*
X104354359Y-80196103D01*
X104354359Y-80346381D01*
X104384415Y-80436548D01*
X104654916Y-80917439D02*
X104684972Y-81007606D01*
X104715027Y-81037662D01*
X104775139Y-81067717D01*
X104865306Y-81067717D01*
X104925417Y-81037662D01*
X104955473Y-81007606D01*
X104985528Y-80947495D01*
X104985528Y-80707049D01*
X104354359Y-80707049D01*
X104354359Y-80917439D01*
X104384415Y-80977550D01*
X104414471Y-81007606D01*
X104474582Y-81037662D01*
X104534693Y-81037662D01*
X104594805Y-81007606D01*
X104624860Y-80977550D01*
X104654916Y-80917439D01*
X104654916Y-80707049D01*
X105045640Y-81187940D02*
X105045640Y-81668831D01*
X104654916Y-82029499D02*
X104684972Y-82119666D01*
X104715027Y-82149721D01*
X104775139Y-82179777D01*
X104865306Y-82179777D01*
X104925417Y-82149721D01*
X104955473Y-82119666D01*
X104985528Y-82059554D01*
X104985528Y-81819109D01*
X104354359Y-81819109D01*
X104354359Y-82029499D01*
X104384415Y-82089610D01*
X104414471Y-82119666D01*
X104474582Y-82149721D01*
X104534693Y-82149721D01*
X104594805Y-82119666D01*
X104624860Y-82089610D01*
X104654916Y-82029499D01*
X104654916Y-81819109D01*
X105045640Y-82300000D02*
X105045640Y-82780890D01*
X104985528Y-82931169D02*
X104354359Y-82931169D01*
X104805194Y-83141558D01*
X104354359Y-83351948D01*
X104985528Y-83351948D01*
X104985528Y-83652505D02*
X104564749Y-83652505D01*
X104354359Y-83652505D02*
X104384415Y-83622449D01*
X104414471Y-83652505D01*
X104384415Y-83682560D01*
X104354359Y-83652505D01*
X104414471Y-83652505D01*
X104955473Y-84223562D02*
X104985528Y-84163451D01*
X104985528Y-84043228D01*
X104955473Y-83983117D01*
X104925417Y-83953061D01*
X104865306Y-83923006D01*
X104684972Y-83923006D01*
X104624860Y-83953061D01*
X104594805Y-83983117D01*
X104564749Y-84043228D01*
X104564749Y-84163451D01*
X104594805Y-84223562D01*
X104985528Y-84494063D02*
X104564749Y-84494063D01*
X104684972Y-84494063D02*
X104624860Y-84524119D01*
X104594805Y-84554175D01*
X104564749Y-84614286D01*
X104564749Y-84674397D01*
X104985528Y-84974954D02*
X104955473Y-84914843D01*
X104925417Y-84884787D01*
X104865306Y-84854731D01*
X104684972Y-84854731D01*
X104624860Y-84884787D01*
X104594805Y-84914843D01*
X104564749Y-84974954D01*
X104564749Y-85065121D01*
X104594805Y-85125232D01*
X104624860Y-85155288D01*
X104684972Y-85185344D01*
X104865306Y-85185344D01*
X104925417Y-85155288D01*
X104955473Y-85125232D01*
X104985528Y-85065121D01*
X104985528Y-84974954D01*
D13*
X114166666Y-91007142D02*
X114214285Y-91054761D01*
X114357142Y-91102380D01*
X114452380Y-91102380D01*
X114595238Y-91054761D01*
X114690476Y-90959523D01*
X114738095Y-90864285D01*
X114785714Y-90673809D01*
X114785714Y-90530952D01*
X114738095Y-90340476D01*
X114690476Y-90245238D01*
X114595238Y-90150000D01*
X114452380Y-90102380D01*
X114357142Y-90102380D01*
X114214285Y-90150000D01*
X114166666Y-90197619D01*
X113309523Y-90435714D02*
X113309523Y-91102380D01*
X113547619Y-90054761D02*
X113785714Y-90769047D01*
X113166666Y-90769047D01*
X114257142Y-102283333D02*
X114304761Y-102235714D01*
X114352380Y-102092857D01*
X114352380Y-101997619D01*
X114304761Y-101854761D01*
X114209523Y-101759523D01*
X114114285Y-101711904D01*
X113923809Y-101664285D01*
X113780952Y-101664285D01*
X113590476Y-101711904D01*
X113495238Y-101759523D01*
X113400000Y-101854761D01*
X113352380Y-101997619D01*
X113352380Y-102092857D01*
X113400000Y-102235714D01*
X113447619Y-102283333D01*
X113352380Y-103188095D02*
X113352380Y-102711904D01*
X113828571Y-102664285D01*
X113780952Y-102711904D01*
X113733333Y-102807142D01*
X113733333Y-103045238D01*
X113780952Y-103140476D01*
X113828571Y-103188095D01*
X113923809Y-103235714D01*
X114161904Y-103235714D01*
X114257142Y-103188095D01*
X114304761Y-103140476D01*
X114352380Y-103045238D01*
X114352380Y-102807142D01*
X114304761Y-102711904D01*
X114257142Y-102664285D01*
X119266666Y-98557142D02*
X119314285Y-98604761D01*
X119457142Y-98652380D01*
X119552380Y-98652380D01*
X119695238Y-98604761D01*
X119790476Y-98509523D01*
X119838095Y-98414285D01*
X119885714Y-98223809D01*
X119885714Y-98080952D01*
X119838095Y-97890476D01*
X119790476Y-97795238D01*
X119695238Y-97700000D01*
X119552380Y-97652380D01*
X119457142Y-97652380D01*
X119314285Y-97700000D01*
X119266666Y-97747619D01*
X118933333Y-97652380D02*
X118314285Y-97652380D01*
X118647619Y-98033333D01*
X118504761Y-98033333D01*
X118409523Y-98080952D01*
X118361904Y-98128571D01*
X118314285Y-98223809D01*
X118314285Y-98461904D01*
X118361904Y-98557142D01*
X118409523Y-98604761D01*
X118504761Y-98652380D01*
X118790476Y-98652380D01*
X118885714Y-98604761D01*
X118933333Y-98557142D01*
X117452380Y-73807142D02*
X116976190Y-73473809D01*
X117452380Y-73235714D02*
X116452380Y-73235714D01*
X116452380Y-73616666D01*
X116500000Y-73711904D01*
X116547619Y-73759523D01*
X116642857Y-73807142D01*
X116785714Y-73807142D01*
X116880952Y-73759523D01*
X116928571Y-73711904D01*
X116976190Y-73616666D01*
X116976190Y-73235714D01*
X117452380Y-74759523D02*
X117452380Y-74188095D01*
X117452380Y-74473809D02*
X116452380Y-74473809D01*
X116595238Y-74378571D01*
X116690476Y-74283333D01*
X116738095Y-74188095D01*
X116880952Y-75330952D02*
X116833333Y-75235714D01*
X116785714Y-75188095D01*
X116690476Y-75140476D01*
X116642857Y-75140476D01*
X116547619Y-75188095D01*
X116500000Y-75235714D01*
X116452380Y-75330952D01*
X116452380Y-75521428D01*
X116500000Y-75616666D01*
X116547619Y-75664285D01*
X116642857Y-75711904D01*
X116690476Y-75711904D01*
X116785714Y-75664285D01*
X116833333Y-75616666D01*
X116880952Y-75521428D01*
X116880952Y-75330952D01*
X116928571Y-75235714D01*
X116976190Y-75188095D01*
X117071428Y-75140476D01*
X117261904Y-75140476D01*
X117357142Y-75188095D01*
X117404761Y-75235714D01*
X117452380Y-75330952D01*
X117452380Y-75521428D01*
X117404761Y-75616666D01*
X117357142Y-75664285D01*
X117261904Y-75711904D01*
X117071428Y-75711904D01*
X116976190Y-75664285D01*
X116928571Y-75616666D01*
X116880952Y-75521428D01*
X117452380Y-71019642D02*
X116976190Y-70686309D01*
X117452380Y-70448214D02*
X116452380Y-70448214D01*
X116452380Y-70829166D01*
X116500000Y-70924404D01*
X116547619Y-70972023D01*
X116642857Y-71019642D01*
X116785714Y-71019642D01*
X116880952Y-70972023D01*
X116928571Y-70924404D01*
X116976190Y-70829166D01*
X116976190Y-70448214D01*
X117452380Y-71972023D02*
X117452380Y-71400595D01*
X117452380Y-71686309D02*
X116452380Y-71686309D01*
X116595238Y-71591071D01*
X116690476Y-71495833D01*
X116738095Y-71400595D01*
X116452380Y-72305357D02*
X116452380Y-72972023D01*
X117452380Y-72543452D01*
X118852380Y-71007142D02*
X118376190Y-70673809D01*
X118852380Y-70435714D02*
X117852380Y-70435714D01*
X117852380Y-70816666D01*
X117900000Y-70911904D01*
X117947619Y-70959523D01*
X118042857Y-71007142D01*
X118185714Y-71007142D01*
X118280952Y-70959523D01*
X118328571Y-70911904D01*
X118376190Y-70816666D01*
X118376190Y-70435714D01*
X118852380Y-71959523D02*
X118852380Y-71388095D01*
X118852380Y-71673809D02*
X117852380Y-71673809D01*
X117995238Y-71578571D01*
X118090476Y-71483333D01*
X118138095Y-71388095D01*
X117852380Y-72816666D02*
X117852380Y-72626190D01*
X117900000Y-72530952D01*
X117947619Y-72483333D01*
X118090476Y-72388095D01*
X118280952Y-72340476D01*
X118661904Y-72340476D01*
X118757142Y-72388095D01*
X118804761Y-72435714D01*
X118852380Y-72530952D01*
X118852380Y-72721428D01*
X118804761Y-72816666D01*
X118757142Y-72864285D01*
X118661904Y-72911904D01*
X118423809Y-72911904D01*
X118328571Y-72864285D01*
X118280952Y-72816666D01*
X118233333Y-72721428D01*
X118233333Y-72530952D01*
X118280952Y-72435714D01*
X118328571Y-72388095D01*
X118423809Y-72340476D01*
X120302380Y-73857142D02*
X119826190Y-73523809D01*
X120302380Y-73285714D02*
X119302380Y-73285714D01*
X119302380Y-73666666D01*
X119350000Y-73761904D01*
X119397619Y-73809523D01*
X119492857Y-73857142D01*
X119635714Y-73857142D01*
X119730952Y-73809523D01*
X119778571Y-73761904D01*
X119826190Y-73666666D01*
X119826190Y-73285714D01*
X119397619Y-74238095D02*
X119350000Y-74285714D01*
X119302380Y-74380952D01*
X119302380Y-74619047D01*
X119350000Y-74714285D01*
X119397619Y-74761904D01*
X119492857Y-74809523D01*
X119588095Y-74809523D01*
X119730952Y-74761904D01*
X120302380Y-74190476D01*
X120302380Y-74809523D01*
X119302380Y-75428571D02*
X119302380Y-75523809D01*
X119350000Y-75619047D01*
X119397619Y-75666666D01*
X119492857Y-75714285D01*
X119683333Y-75761904D01*
X119921428Y-75761904D01*
X120111904Y-75714285D01*
X120207142Y-75666666D01*
X120254761Y-75619047D01*
X120302380Y-75523809D01*
X120302380Y-75428571D01*
X120254761Y-75333333D01*
X120207142Y-75285714D01*
X120111904Y-75238095D01*
X119921428Y-75190476D01*
X119683333Y-75190476D01*
X119492857Y-75238095D01*
X119397619Y-75285714D01*
X119350000Y-75333333D01*
X119302380Y-75428571D01*
X114807142Y-77207142D02*
X114854761Y-77159523D01*
X114902380Y-77016666D01*
X114902380Y-76921428D01*
X114854761Y-76778571D01*
X114759523Y-76683333D01*
X114664285Y-76635714D01*
X114473809Y-76588095D01*
X114330952Y-76588095D01*
X114140476Y-76635714D01*
X114045238Y-76683333D01*
X113950000Y-76778571D01*
X113902380Y-76921428D01*
X113902380Y-77016666D01*
X113950000Y-77159523D01*
X113997619Y-77207142D01*
X114902380Y-78159523D02*
X114902380Y-77588095D01*
X114902380Y-77873809D02*
X113902380Y-77873809D01*
X114045238Y-77778571D01*
X114140476Y-77683333D01*
X114188095Y-77588095D01*
X114330952Y-78730952D02*
X114283333Y-78635714D01*
X114235714Y-78588095D01*
X114140476Y-78540476D01*
X114092857Y-78540476D01*
X113997619Y-78588095D01*
X113950000Y-78635714D01*
X113902380Y-78730952D01*
X113902380Y-78921428D01*
X113950000Y-79016666D01*
X113997619Y-79064285D01*
X114092857Y-79111904D01*
X114140476Y-79111904D01*
X114235714Y-79064285D01*
X114283333Y-79016666D01*
X114330952Y-78921428D01*
X114330952Y-78730952D01*
X114378571Y-78635714D01*
X114426190Y-78588095D01*
X114521428Y-78540476D01*
X114711904Y-78540476D01*
X114807142Y-78588095D01*
X114854761Y-78635714D01*
X114902380Y-78730952D01*
X114902380Y-78921428D01*
X114854761Y-79016666D01*
X114807142Y-79064285D01*
X114711904Y-79111904D01*
X114521428Y-79111904D01*
X114426190Y-79064285D01*
X114378571Y-79016666D01*
X114330952Y-78921428D01*
X118902380Y-73807142D02*
X118426190Y-73473809D01*
X118902380Y-73235714D02*
X117902380Y-73235714D01*
X117902380Y-73616666D01*
X117950000Y-73711904D01*
X117997619Y-73759523D01*
X118092857Y-73807142D01*
X118235714Y-73807142D01*
X118330952Y-73759523D01*
X118378571Y-73711904D01*
X118426190Y-73616666D01*
X118426190Y-73235714D01*
X118902380Y-74759523D02*
X118902380Y-74188095D01*
X118902380Y-74473809D02*
X117902380Y-74473809D01*
X118045238Y-74378571D01*
X118140476Y-74283333D01*
X118188095Y-74188095D01*
X118902380Y-75235714D02*
X118902380Y-75426190D01*
X118854761Y-75521428D01*
X118807142Y-75569047D01*
X118664285Y-75664285D01*
X118473809Y-75711904D01*
X118092857Y-75711904D01*
X117997619Y-75664285D01*
X117950000Y-75616666D01*
X117902380Y-75521428D01*
X117902380Y-75330952D01*
X117950000Y-75235714D01*
X117997619Y-75188095D01*
X118092857Y-75140476D01*
X118330952Y-75140476D01*
X118426190Y-75188095D01*
X118473809Y-75235714D01*
X118521428Y-75330952D01*
X118521428Y-75521428D01*
X118473809Y-75616666D01*
X118426190Y-75664285D01*
X118330952Y-75711904D01*
X106192857Y-93057142D02*
X106240476Y-93104761D01*
X106383333Y-93152380D01*
X106478571Y-93152380D01*
X106621428Y-93104761D01*
X106716666Y-93009523D01*
X106764285Y-92914285D01*
X106811904Y-92723809D01*
X106811904Y-92580952D01*
X106764285Y-92390476D01*
X106716666Y-92295238D01*
X106621428Y-92200000D01*
X106478571Y-92152380D01*
X106383333Y-92152380D01*
X106240476Y-92200000D01*
X106192857Y-92247619D01*
X105240476Y-93152380D02*
X105811904Y-93152380D01*
X105526190Y-93152380D02*
X105526190Y-92152380D01*
X105621428Y-92295238D01*
X105716666Y-92390476D01*
X105811904Y-92438095D01*
X104621428Y-92152380D02*
X104526190Y-92152380D01*
X104430952Y-92200000D01*
X104383333Y-92247619D01*
X104335714Y-92342857D01*
X104288095Y-92533333D01*
X104288095Y-92771428D01*
X104335714Y-92961904D01*
X104383333Y-93057142D01*
X104430952Y-93104761D01*
X104526190Y-93152380D01*
X104621428Y-93152380D01*
X104716666Y-93104761D01*
X104764285Y-93057142D01*
X104811904Y-92961904D01*
X104859523Y-92771428D01*
X104859523Y-92533333D01*
X104811904Y-92342857D01*
X104764285Y-92247619D01*
X104716666Y-92200000D01*
X104621428Y-92152380D01*
X117830357Y-77857142D02*
X117877976Y-77904761D01*
X118020833Y-77952380D01*
X118116071Y-77952380D01*
X118258928Y-77904761D01*
X118354166Y-77809523D01*
X118401785Y-77714285D01*
X118449404Y-77523809D01*
X118449404Y-77380952D01*
X118401785Y-77190476D01*
X118354166Y-77095238D01*
X118258928Y-77000000D01*
X118116071Y-76952380D01*
X118020833Y-76952380D01*
X117877976Y-77000000D01*
X117830357Y-77047619D01*
X117449404Y-77047619D02*
X117401785Y-77000000D01*
X117306547Y-76952380D01*
X117068452Y-76952380D01*
X116973214Y-77000000D01*
X116925595Y-77047619D01*
X116877976Y-77142857D01*
X116877976Y-77238095D01*
X116925595Y-77380952D01*
X117497023Y-77952380D01*
X116877976Y-77952380D01*
X115925595Y-77952380D02*
X116497023Y-77952380D01*
X116211309Y-77952380D02*
X116211309Y-76952380D01*
X116306547Y-77095238D01*
X116401785Y-77190476D01*
X116497023Y-77238095D01*
X120352380Y-71007142D02*
X119876190Y-70673809D01*
X120352380Y-70435714D02*
X119352380Y-70435714D01*
X119352380Y-70816666D01*
X119400000Y-70911904D01*
X119447619Y-70959523D01*
X119542857Y-71007142D01*
X119685714Y-71007142D01*
X119780952Y-70959523D01*
X119828571Y-70911904D01*
X119876190Y-70816666D01*
X119876190Y-70435714D01*
X120352380Y-71959523D02*
X120352380Y-71388095D01*
X120352380Y-71673809D02*
X119352380Y-71673809D01*
X119495238Y-71578571D01*
X119590476Y-71483333D01*
X119638095Y-71388095D01*
X119352380Y-72864285D02*
X119352380Y-72388095D01*
X119828571Y-72340476D01*
X119780952Y-72388095D01*
X119733333Y-72483333D01*
X119733333Y-72721428D01*
X119780952Y-72816666D01*
X119828571Y-72864285D01*
X119923809Y-72911904D01*
X120161904Y-72911904D01*
X120257142Y-72864285D01*
X120304761Y-72816666D01*
X120352380Y-72721428D01*
X120352380Y-72483333D01*
X120304761Y-72388095D01*
X120257142Y-72340476D01*
X121411904Y-78852380D02*
X121411904Y-79661904D01*
X121364285Y-79757142D01*
X121316666Y-79804761D01*
X121221428Y-79852380D01*
X121030952Y-79852380D01*
X120935714Y-79804761D01*
X120888095Y-79757142D01*
X120840476Y-79661904D01*
X120840476Y-78852380D01*
X120459523Y-78852380D02*
X119792857Y-78852380D01*
X120221428Y-79852380D01*
X121011904Y-92602380D02*
X121011904Y-93411904D01*
X120964285Y-93507142D01*
X120916666Y-93554761D01*
X120821428Y-93602380D01*
X120630952Y-93602380D01*
X120535714Y-93554761D01*
X120488095Y-93507142D01*
X120440476Y-93411904D01*
X120440476Y-92602380D01*
X120059523Y-92602380D02*
X119440476Y-92602380D01*
X119773809Y-92983333D01*
X119630952Y-92983333D01*
X119535714Y-93030952D01*
X119488095Y-93078571D01*
X119440476Y-93173809D01*
X119440476Y-93411904D01*
X119488095Y-93507142D01*
X119535714Y-93554761D01*
X119630952Y-93602380D01*
X119916666Y-93602380D01*
X120011904Y-93554761D01*
X120059523Y-93507142D01*
X106392857Y-77902380D02*
X106726190Y-77426190D01*
X106964285Y-77902380D02*
X106964285Y-76902380D01*
X106583333Y-76902380D01*
X106488095Y-76950000D01*
X106440476Y-76997619D01*
X106392857Y-77092857D01*
X106392857Y-77235714D01*
X106440476Y-77330952D01*
X106488095Y-77378571D01*
X106583333Y-77426190D01*
X106964285Y-77426190D01*
X106011904Y-76997619D02*
X105964285Y-76950000D01*
X105869047Y-76902380D01*
X105630952Y-76902380D01*
X105535714Y-76950000D01*
X105488095Y-76997619D01*
X105440476Y-77092857D01*
X105440476Y-77188095D01*
X105488095Y-77330952D01*
X106059523Y-77902380D01*
X105440476Y-77902380D01*
X104583333Y-76902380D02*
X104773809Y-76902380D01*
X104869047Y-76950000D01*
X104916666Y-76997619D01*
X105011904Y-77140476D01*
X105059523Y-77330952D01*
X105059523Y-77711904D01*
X105011904Y-77807142D01*
X104964285Y-77854761D01*
X104869047Y-77902380D01*
X104678571Y-77902380D01*
X104583333Y-77854761D01*
X104535714Y-77807142D01*
X104488095Y-77711904D01*
X104488095Y-77473809D01*
X104535714Y-77378571D01*
X104583333Y-77330952D01*
X104678571Y-77283333D01*
X104869047Y-77283333D01*
X104964285Y-77330952D01*
X105011904Y-77378571D01*
X105059523Y-77473809D01*
X113411904Y-92602380D02*
X113411904Y-93411904D01*
X113364285Y-93507142D01*
X113316666Y-93554761D01*
X113221428Y-93602380D01*
X113030952Y-93602380D01*
X112935714Y-93554761D01*
X112888095Y-93507142D01*
X112840476Y-93411904D01*
X112840476Y-92602380D01*
X111935714Y-92935714D02*
X111935714Y-93602380D01*
X112173809Y-92554761D02*
X112411904Y-93269047D01*
X111792857Y-93269047D01*
X105166666Y-95407142D02*
X105214285Y-95454761D01*
X105357142Y-95502380D01*
X105452380Y-95502380D01*
X105595238Y-95454761D01*
X105690476Y-95359523D01*
X105738095Y-95264285D01*
X105785714Y-95073809D01*
X105785714Y-94930952D01*
X105738095Y-94740476D01*
X105690476Y-94645238D01*
X105595238Y-94550000D01*
X105452380Y-94502380D01*
X105357142Y-94502380D01*
X105214285Y-94550000D01*
X105166666Y-94597619D01*
X104690476Y-95502380D02*
X104500000Y-95502380D01*
X104404761Y-95454761D01*
X104357142Y-95407142D01*
X104261904Y-95264285D01*
X104214285Y-95073809D01*
X104214285Y-94692857D01*
X104261904Y-94597619D01*
X104309523Y-94550000D01*
X104404761Y-94502380D01*
X104595238Y-94502380D01*
X104690476Y-94550000D01*
X104738095Y-94597619D01*
X104785714Y-94692857D01*
X104785714Y-94930952D01*
X104738095Y-95026190D01*
X104690476Y-95073809D01*
X104595238Y-95121428D01*
X104404761Y-95121428D01*
X104309523Y-95073809D01*
X104261904Y-95026190D01*
X104214285Y-94930952D01*
X121357142Y-102483333D02*
X121404761Y-102435714D01*
X121452380Y-102292857D01*
X121452380Y-102197619D01*
X121404761Y-102054761D01*
X121309523Y-101959523D01*
X121214285Y-101911904D01*
X121023809Y-101864285D01*
X120880952Y-101864285D01*
X120690476Y-101911904D01*
X120595238Y-101959523D01*
X120500000Y-102054761D01*
X120452380Y-102197619D01*
X120452380Y-102292857D01*
X120500000Y-102435714D01*
X120547619Y-102483333D01*
X120880952Y-103054761D02*
X120833333Y-102959523D01*
X120785714Y-102911904D01*
X120690476Y-102864285D01*
X120642857Y-102864285D01*
X120547619Y-102911904D01*
X120500000Y-102959523D01*
X120452380Y-103054761D01*
X120452380Y-103245238D01*
X120500000Y-103340476D01*
X120547619Y-103388095D01*
X120642857Y-103435714D01*
X120690476Y-103435714D01*
X120785714Y-103388095D01*
X120833333Y-103340476D01*
X120880952Y-103245238D01*
X120880952Y-103054761D01*
X120928571Y-102959523D01*
X120976190Y-102911904D01*
X121071428Y-102864285D01*
X121261904Y-102864285D01*
X121357142Y-102911904D01*
X121404761Y-102959523D01*
X121452380Y-103054761D01*
X121452380Y-103245238D01*
X121404761Y-103340476D01*
X121357142Y-103388095D01*
X121261904Y-103435714D01*
X121071428Y-103435714D01*
X120976190Y-103388095D01*
X120928571Y-103340476D01*
X120880952Y-103245238D01*
X106754166Y-101257142D02*
X106801785Y-101304761D01*
X106944642Y-101352380D01*
X107039880Y-101352380D01*
X107182738Y-101304761D01*
X107277976Y-101209523D01*
X107325595Y-101114285D01*
X107373214Y-100923809D01*
X107373214Y-100780952D01*
X107325595Y-100590476D01*
X107277976Y-100495238D01*
X107182738Y-100400000D01*
X107039880Y-100352380D01*
X106944642Y-100352380D01*
X106801785Y-100400000D01*
X106754166Y-100447619D01*
X105897023Y-100352380D02*
X106087500Y-100352380D01*
X106182738Y-100400000D01*
X106230357Y-100447619D01*
X106325595Y-100590476D01*
X106373214Y-100780952D01*
X106373214Y-101161904D01*
X106325595Y-101257142D01*
X106277976Y-101304761D01*
X106182738Y-101352380D01*
X105992261Y-101352380D01*
X105897023Y-101304761D01*
X105849404Y-101257142D01*
X105801785Y-101161904D01*
X105801785Y-100923809D01*
X105849404Y-100828571D01*
X105897023Y-100780952D01*
X105992261Y-100733333D01*
X106182738Y-100733333D01*
X106277976Y-100780952D01*
X106325595Y-100828571D01*
X106373214Y-100923809D01*
X115966666Y-104302380D02*
X116300000Y-103826190D01*
X116538095Y-104302380D02*
X116538095Y-103302380D01*
X116157142Y-103302380D01*
X116061904Y-103350000D01*
X116014285Y-103397619D01*
X115966666Y-103492857D01*
X115966666Y-103635714D01*
X116014285Y-103730952D01*
X116061904Y-103778571D01*
X116157142Y-103826190D01*
X116538095Y-103826190D01*
X115633333Y-103302380D02*
X114966666Y-103302380D01*
X115395238Y-104302380D01*
X115852380Y-105383333D02*
X115376190Y-105050000D01*
X115852380Y-104811904D02*
X114852380Y-104811904D01*
X114852380Y-105192857D01*
X114900000Y-105288095D01*
X114947619Y-105335714D01*
X115042857Y-105383333D01*
X115185714Y-105383333D01*
X115280952Y-105335714D01*
X115328571Y-105288095D01*
X115376190Y-105192857D01*
X115376190Y-104811904D01*
X114852380Y-105716666D02*
X114852380Y-106335714D01*
X115233333Y-106002380D01*
X115233333Y-106145238D01*
X115280952Y-106240476D01*
X115328571Y-106288095D01*
X115423809Y-106335714D01*
X115661904Y-106335714D01*
X115757142Y-106288095D01*
X115804761Y-106240476D01*
X115852380Y-106145238D01*
X115852380Y-105859523D01*
X115804761Y-105764285D01*
X115757142Y-105716666D01*
X121352380Y-101341333D02*
X120876190Y-101008000D01*
X121352380Y-100769904D02*
X120352380Y-100769904D01*
X120352380Y-101150857D01*
X120400000Y-101246095D01*
X120447619Y-101293714D01*
X120542857Y-101341333D01*
X120685714Y-101341333D01*
X120780952Y-101293714D01*
X120828571Y-101246095D01*
X120876190Y-101150857D01*
X120876190Y-100769904D01*
X120685714Y-102198476D02*
X121352380Y-102198476D01*
X120304761Y-101960380D02*
X121019047Y-101722285D01*
X121019047Y-102341333D01*
X118216666Y-102402380D02*
X118550000Y-101926190D01*
X118788095Y-102402380D02*
X118788095Y-101402380D01*
X118407142Y-101402380D01*
X118311904Y-101450000D01*
X118264285Y-101497619D01*
X118216666Y-101592857D01*
X118216666Y-101735714D01*
X118264285Y-101830952D01*
X118311904Y-101878571D01*
X118407142Y-101926190D01*
X118788095Y-101926190D01*
X117311904Y-101402380D02*
X117788095Y-101402380D01*
X117835714Y-101878571D01*
X117788095Y-101830952D01*
X117692857Y-101783333D01*
X117454761Y-101783333D01*
X117359523Y-101830952D01*
X117311904Y-101878571D01*
X117264285Y-101973809D01*
X117264285Y-102211904D01*
X117311904Y-102307142D01*
X117359523Y-102354761D01*
X117454761Y-102402380D01*
X117692857Y-102402380D01*
X117788095Y-102354761D01*
X117835714Y-102307142D01*
X119316666Y-89652380D02*
X119650000Y-89176190D01*
X119888095Y-89652380D02*
X119888095Y-88652380D01*
X119507142Y-88652380D01*
X119411904Y-88700000D01*
X119364285Y-88747619D01*
X119316666Y-88842857D01*
X119316666Y-88985714D01*
X119364285Y-89080952D01*
X119411904Y-89128571D01*
X119507142Y-89176190D01*
X119888095Y-89176190D01*
X118935714Y-88747619D02*
X118888095Y-88700000D01*
X118792857Y-88652380D01*
X118554761Y-88652380D01*
X118459523Y-88700000D01*
X118411904Y-88747619D01*
X118364285Y-88842857D01*
X118364285Y-88938095D01*
X118411904Y-89080952D01*
X118983333Y-89652380D01*
X118364285Y-89652380D01*
X105316666Y-76502380D02*
X105650000Y-76026190D01*
X105888095Y-76502380D02*
X105888095Y-75502380D01*
X105507142Y-75502380D01*
X105411904Y-75550000D01*
X105364285Y-75597619D01*
X105316666Y-75692857D01*
X105316666Y-75835714D01*
X105364285Y-75930952D01*
X105411904Y-75978571D01*
X105507142Y-76026190D01*
X105888095Y-76026190D01*
X104364285Y-76502380D02*
X104935714Y-76502380D01*
X104650000Y-76502380D02*
X104650000Y-75502380D01*
X104745238Y-75645238D01*
X104840476Y-75740476D01*
X104935714Y-75788095D01*
X114366666Y-92552380D02*
X114700000Y-92076190D01*
X114938095Y-92552380D02*
X114938095Y-91552380D01*
X114557142Y-91552380D01*
X114461904Y-91600000D01*
X114414285Y-91647619D01*
X114366666Y-91742857D01*
X114366666Y-91885714D01*
X114414285Y-91980952D01*
X114461904Y-92028571D01*
X114557142Y-92076190D01*
X114938095Y-92076190D01*
X113509523Y-91552380D02*
X113700000Y-91552380D01*
X113795238Y-91600000D01*
X113842857Y-91647619D01*
X113938095Y-91790476D01*
X113985714Y-91980952D01*
X113985714Y-92361904D01*
X113938095Y-92457142D01*
X113890476Y-92504761D01*
X113795238Y-92552380D01*
X113604761Y-92552380D01*
X113509523Y-92504761D01*
X113461904Y-92457142D01*
X113414285Y-92361904D01*
X113414285Y-92123809D01*
X113461904Y-92028571D01*
X113509523Y-91980952D01*
X113604761Y-91933333D01*
X113795238Y-91933333D01*
X113890476Y-91980952D01*
X113938095Y-92028571D01*
X113985714Y-92123809D01*
X102461904Y-100052380D02*
X102461904Y-100861904D01*
X102414285Y-100957142D01*
X102366666Y-101004761D01*
X102271428Y-101052380D01*
X102080952Y-101052380D01*
X101985714Y-101004761D01*
X101938095Y-100957142D01*
X101890476Y-100861904D01*
X101890476Y-100052380D01*
X100938095Y-100052380D02*
X101414285Y-100052380D01*
X101461904Y-100528571D01*
X101414285Y-100480952D01*
X101319047Y-100433333D01*
X101080952Y-100433333D01*
X100985714Y-100480952D01*
X100938095Y-100528571D01*
X100890476Y-100623809D01*
X100890476Y-100861904D01*
X100938095Y-100957142D01*
X100985714Y-101004761D01*
X101080952Y-101052380D01*
X101319047Y-101052380D01*
X101414285Y-101004761D01*
X101461904Y-100957142D01*
X112278571Y-101816666D02*
X112278571Y-101483333D01*
X112802380Y-101483333D02*
X111802380Y-101483333D01*
X111802380Y-101959523D01*
X112802380Y-102864285D02*
X112802380Y-102292857D01*
X112802380Y-102578571D02*
X111802380Y-102578571D01*
X111945238Y-102483333D01*
X112040476Y-102388095D01*
X112088095Y-102292857D01*
M02*
