M48
; DRILL file {KiCad (5.1.4)-1} date 29-Nov-19 8:46:57 PM
; FORMAT={-:-/ absolute / inch / decimal}
; #@! TF.CreationDate,2019-11-29T20:46:57-07:00
; #@! TF.GenerationSoftware,Kicad,Pcbnew,(5.1.4)-1
; #@! TF.FileFunction,Plated,1,2,PTH
FMAT,2
INCH
T1C0.0118
T2C0.0276
T3C0.0433
%
G90
G05
T1
X3.9921Y-4.0512
X4.0039Y-2.815
X4.0157Y-2.9567
X4.0236Y-3.3898
X4.0236Y-3.4252
X4.0669Y-4.0551
X4.0827Y-3.8504
X4.1181Y-3.122
X4.1339Y-3.6575
X4.1378Y-3.7205
X4.1811Y-3.6496
X4.2717Y-2.8425
X4.2717Y-4.0
X4.2756Y-2.9732
X4.3268Y-2.8504
X4.3307Y-2.8937
X4.3701Y-2.8543
X4.3955Y-3.7462
X4.4291Y-3.5787
X4.4409Y-3.8465
X4.4764Y-3.626
X4.4961Y-3.0984
X4.5039Y-3.2205
X4.5118Y-3.6024
X4.5512Y-3.8386
X4.5906Y-3.3346
X4.5945Y-2.8504
X4.6024Y-2.8937
X4.6063Y-3.0709
X4.6457Y-2.9016
X4.6457Y-3.8661
X4.6457Y-4.0079
X4.6732Y-3.0236
X4.6732Y-3.6535
X4.7087Y-3.6535
X4.7244Y-3.0157
X4.7283Y-2.811
X4.7441Y-3.4843
X4.748Y-3.5197
X4.748Y-3.4409
X4.7638Y-4.0079
X4.7717Y-3.2992
X4.7717Y-3.3386
X4.7732Y-3.2583
X4.7732Y-3.2165
T2
X4.6614Y-4.1575
T3
X4.2323Y-3.1102
X4.2323Y-3.2087
X4.2323Y-3.3071
X4.2323Y-3.4055
X4.2323Y-3.5039
X4.2323Y-3.6024
X4.2323Y-3.7008
X4.2323Y-3.7992
X4.2323Y-3.8976
X4.3504Y-3.1102
X4.3504Y-3.2087
X4.3504Y-3.3071
X4.3504Y-3.4055
X4.3504Y-3.5039
X4.3504Y-3.6024
X4.3504Y-3.7008
X4.3504Y-3.7992
X4.3504Y-3.8976
T0
M30
