G04 #@! TF.GenerationSoftware,KiCad,Pcbnew,(5.1.4)-1*
G04 #@! TF.CreationDate,2019-11-29T20:46:52-07:00*
G04 #@! TF.ProjectId,CruiseController,43727569-7365-4436-9f6e-74726f6c6c65,rev?*
G04 #@! TF.SameCoordinates,Original*
G04 #@! TF.FileFunction,Paste,Top*
G04 #@! TF.FilePolarity,Positive*
%FSLAX46Y46*%
G04 Gerber Fmt 4.6, Leading zero omitted, Abs format (unit mm)*
G04 Created by KiCad (PCBNEW (5.1.4)-1) date 2019-11-29 20:46:52*
%MOMM*%
%LPD*%
G04 APERTURE LIST*
%ADD10C,0.100000*%
%ADD11C,0.875000*%
%ADD12R,1.200000X0.900000*%
%ADD13R,1.800000X1.000000*%
%ADD14R,0.600000X1.000000*%
%ADD15R,0.650000X0.350000*%
G04 APERTURE END LIST*
D10*
G36*
X113077691Y-76251053D02*
G01*
X113098926Y-76254203D01*
X113119750Y-76259419D01*
X113139962Y-76266651D01*
X113159368Y-76275830D01*
X113177781Y-76286866D01*
X113195024Y-76299654D01*
X113210930Y-76314070D01*
X113225346Y-76329976D01*
X113238134Y-76347219D01*
X113249170Y-76365632D01*
X113258349Y-76385038D01*
X113265581Y-76405250D01*
X113270797Y-76426074D01*
X113273947Y-76447309D01*
X113275000Y-76468750D01*
X113275000Y-76906250D01*
X113273947Y-76927691D01*
X113270797Y-76948926D01*
X113265581Y-76969750D01*
X113258349Y-76989962D01*
X113249170Y-77009368D01*
X113238134Y-77027781D01*
X113225346Y-77045024D01*
X113210930Y-77060930D01*
X113195024Y-77075346D01*
X113177781Y-77088134D01*
X113159368Y-77099170D01*
X113139962Y-77108349D01*
X113119750Y-77115581D01*
X113098926Y-77120797D01*
X113077691Y-77123947D01*
X113056250Y-77125000D01*
X112543750Y-77125000D01*
X112522309Y-77123947D01*
X112501074Y-77120797D01*
X112480250Y-77115581D01*
X112460038Y-77108349D01*
X112440632Y-77099170D01*
X112422219Y-77088134D01*
X112404976Y-77075346D01*
X112389070Y-77060930D01*
X112374654Y-77045024D01*
X112361866Y-77027781D01*
X112350830Y-77009368D01*
X112341651Y-76989962D01*
X112334419Y-76969750D01*
X112329203Y-76948926D01*
X112326053Y-76927691D01*
X112325000Y-76906250D01*
X112325000Y-76468750D01*
X112326053Y-76447309D01*
X112329203Y-76426074D01*
X112334419Y-76405250D01*
X112341651Y-76385038D01*
X112350830Y-76365632D01*
X112361866Y-76347219D01*
X112374654Y-76329976D01*
X112389070Y-76314070D01*
X112404976Y-76299654D01*
X112422219Y-76286866D01*
X112440632Y-76275830D01*
X112460038Y-76266651D01*
X112480250Y-76259419D01*
X112501074Y-76254203D01*
X112522309Y-76251053D01*
X112543750Y-76250000D01*
X113056250Y-76250000D01*
X113077691Y-76251053D01*
X113077691Y-76251053D01*
G37*
D11*
X112800000Y-76687500D03*
D10*
G36*
X113077691Y-74676053D02*
G01*
X113098926Y-74679203D01*
X113119750Y-74684419D01*
X113139962Y-74691651D01*
X113159368Y-74700830D01*
X113177781Y-74711866D01*
X113195024Y-74724654D01*
X113210930Y-74739070D01*
X113225346Y-74754976D01*
X113238134Y-74772219D01*
X113249170Y-74790632D01*
X113258349Y-74810038D01*
X113265581Y-74830250D01*
X113270797Y-74851074D01*
X113273947Y-74872309D01*
X113275000Y-74893750D01*
X113275000Y-75331250D01*
X113273947Y-75352691D01*
X113270797Y-75373926D01*
X113265581Y-75394750D01*
X113258349Y-75414962D01*
X113249170Y-75434368D01*
X113238134Y-75452781D01*
X113225346Y-75470024D01*
X113210930Y-75485930D01*
X113195024Y-75500346D01*
X113177781Y-75513134D01*
X113159368Y-75524170D01*
X113139962Y-75533349D01*
X113119750Y-75540581D01*
X113098926Y-75545797D01*
X113077691Y-75548947D01*
X113056250Y-75550000D01*
X112543750Y-75550000D01*
X112522309Y-75548947D01*
X112501074Y-75545797D01*
X112480250Y-75540581D01*
X112460038Y-75533349D01*
X112440632Y-75524170D01*
X112422219Y-75513134D01*
X112404976Y-75500346D01*
X112389070Y-75485930D01*
X112374654Y-75470024D01*
X112361866Y-75452781D01*
X112350830Y-75434368D01*
X112341651Y-75414962D01*
X112334419Y-75394750D01*
X112329203Y-75373926D01*
X112326053Y-75352691D01*
X112325000Y-75331250D01*
X112325000Y-74893750D01*
X112326053Y-74872309D01*
X112329203Y-74851074D01*
X112334419Y-74830250D01*
X112341651Y-74810038D01*
X112350830Y-74790632D01*
X112361866Y-74772219D01*
X112374654Y-74754976D01*
X112389070Y-74739070D01*
X112404976Y-74724654D01*
X112422219Y-74711866D01*
X112440632Y-74700830D01*
X112460038Y-74691651D01*
X112480250Y-74684419D01*
X112501074Y-74679203D01*
X112522309Y-74676053D01*
X112543750Y-74675000D01*
X113056250Y-74675000D01*
X113077691Y-74676053D01*
X113077691Y-74676053D01*
G37*
D11*
X112800000Y-75112500D03*
D12*
X113400000Y-102550000D03*
X113400000Y-99250000D03*
D10*
G36*
X113577691Y-94413553D02*
G01*
X113598926Y-94416703D01*
X113619750Y-94421919D01*
X113639962Y-94429151D01*
X113659368Y-94438330D01*
X113677781Y-94449366D01*
X113695024Y-94462154D01*
X113710930Y-94476570D01*
X113725346Y-94492476D01*
X113738134Y-94509719D01*
X113749170Y-94528132D01*
X113758349Y-94547538D01*
X113765581Y-94567750D01*
X113770797Y-94588574D01*
X113773947Y-94609809D01*
X113775000Y-94631250D01*
X113775000Y-95068750D01*
X113773947Y-95090191D01*
X113770797Y-95111426D01*
X113765581Y-95132250D01*
X113758349Y-95152462D01*
X113749170Y-95171868D01*
X113738134Y-95190281D01*
X113725346Y-95207524D01*
X113710930Y-95223430D01*
X113695024Y-95237846D01*
X113677781Y-95250634D01*
X113659368Y-95261670D01*
X113639962Y-95270849D01*
X113619750Y-95278081D01*
X113598926Y-95283297D01*
X113577691Y-95286447D01*
X113556250Y-95287500D01*
X113043750Y-95287500D01*
X113022309Y-95286447D01*
X113001074Y-95283297D01*
X112980250Y-95278081D01*
X112960038Y-95270849D01*
X112940632Y-95261670D01*
X112922219Y-95250634D01*
X112904976Y-95237846D01*
X112889070Y-95223430D01*
X112874654Y-95207524D01*
X112861866Y-95190281D01*
X112850830Y-95171868D01*
X112841651Y-95152462D01*
X112834419Y-95132250D01*
X112829203Y-95111426D01*
X112826053Y-95090191D01*
X112825000Y-95068750D01*
X112825000Y-94631250D01*
X112826053Y-94609809D01*
X112829203Y-94588574D01*
X112834419Y-94567750D01*
X112841651Y-94547538D01*
X112850830Y-94528132D01*
X112861866Y-94509719D01*
X112874654Y-94492476D01*
X112889070Y-94476570D01*
X112904976Y-94462154D01*
X112922219Y-94449366D01*
X112940632Y-94438330D01*
X112960038Y-94429151D01*
X112980250Y-94421919D01*
X113001074Y-94416703D01*
X113022309Y-94413553D01*
X113043750Y-94412500D01*
X113556250Y-94412500D01*
X113577691Y-94413553D01*
X113577691Y-94413553D01*
G37*
D11*
X113300000Y-94850000D03*
D10*
G36*
X113577691Y-92838553D02*
G01*
X113598926Y-92841703D01*
X113619750Y-92846919D01*
X113639962Y-92854151D01*
X113659368Y-92863330D01*
X113677781Y-92874366D01*
X113695024Y-92887154D01*
X113710930Y-92901570D01*
X113725346Y-92917476D01*
X113738134Y-92934719D01*
X113749170Y-92953132D01*
X113758349Y-92972538D01*
X113765581Y-92992750D01*
X113770797Y-93013574D01*
X113773947Y-93034809D01*
X113775000Y-93056250D01*
X113775000Y-93493750D01*
X113773947Y-93515191D01*
X113770797Y-93536426D01*
X113765581Y-93557250D01*
X113758349Y-93577462D01*
X113749170Y-93596868D01*
X113738134Y-93615281D01*
X113725346Y-93632524D01*
X113710930Y-93648430D01*
X113695024Y-93662846D01*
X113677781Y-93675634D01*
X113659368Y-93686670D01*
X113639962Y-93695849D01*
X113619750Y-93703081D01*
X113598926Y-93708297D01*
X113577691Y-93711447D01*
X113556250Y-93712500D01*
X113043750Y-93712500D01*
X113022309Y-93711447D01*
X113001074Y-93708297D01*
X112980250Y-93703081D01*
X112960038Y-93695849D01*
X112940632Y-93686670D01*
X112922219Y-93675634D01*
X112904976Y-93662846D01*
X112889070Y-93648430D01*
X112874654Y-93632524D01*
X112861866Y-93615281D01*
X112850830Y-93596868D01*
X112841651Y-93577462D01*
X112834419Y-93557250D01*
X112829203Y-93536426D01*
X112826053Y-93515191D01*
X112825000Y-93493750D01*
X112825000Y-93056250D01*
X112826053Y-93034809D01*
X112829203Y-93013574D01*
X112834419Y-92992750D01*
X112841651Y-92972538D01*
X112850830Y-92953132D01*
X112861866Y-92934719D01*
X112874654Y-92917476D01*
X112889070Y-92901570D01*
X112904976Y-92887154D01*
X112922219Y-92874366D01*
X112940632Y-92863330D01*
X112960038Y-92854151D01*
X112980250Y-92846919D01*
X113001074Y-92841703D01*
X113022309Y-92838553D01*
X113043750Y-92837500D01*
X113556250Y-92837500D01*
X113577691Y-92838553D01*
X113577691Y-92838553D01*
G37*
D11*
X113300000Y-93275000D03*
D10*
G36*
X117040191Y-79726053D02*
G01*
X117061426Y-79729203D01*
X117082250Y-79734419D01*
X117102462Y-79741651D01*
X117121868Y-79750830D01*
X117140281Y-79761866D01*
X117157524Y-79774654D01*
X117173430Y-79789070D01*
X117187846Y-79804976D01*
X117200634Y-79822219D01*
X117211670Y-79840632D01*
X117220849Y-79860038D01*
X117228081Y-79880250D01*
X117233297Y-79901074D01*
X117236447Y-79922309D01*
X117237500Y-79943750D01*
X117237500Y-80456250D01*
X117236447Y-80477691D01*
X117233297Y-80498926D01*
X117228081Y-80519750D01*
X117220849Y-80539962D01*
X117211670Y-80559368D01*
X117200634Y-80577781D01*
X117187846Y-80595024D01*
X117173430Y-80610930D01*
X117157524Y-80625346D01*
X117140281Y-80638134D01*
X117121868Y-80649170D01*
X117102462Y-80658349D01*
X117082250Y-80665581D01*
X117061426Y-80670797D01*
X117040191Y-80673947D01*
X117018750Y-80675000D01*
X116581250Y-80675000D01*
X116559809Y-80673947D01*
X116538574Y-80670797D01*
X116517750Y-80665581D01*
X116497538Y-80658349D01*
X116478132Y-80649170D01*
X116459719Y-80638134D01*
X116442476Y-80625346D01*
X116426570Y-80610930D01*
X116412154Y-80595024D01*
X116399366Y-80577781D01*
X116388330Y-80559368D01*
X116379151Y-80539962D01*
X116371919Y-80519750D01*
X116366703Y-80498926D01*
X116363553Y-80477691D01*
X116362500Y-80456250D01*
X116362500Y-79943750D01*
X116363553Y-79922309D01*
X116366703Y-79901074D01*
X116371919Y-79880250D01*
X116379151Y-79860038D01*
X116388330Y-79840632D01*
X116399366Y-79822219D01*
X116412154Y-79804976D01*
X116426570Y-79789070D01*
X116442476Y-79774654D01*
X116459719Y-79761866D01*
X116478132Y-79750830D01*
X116497538Y-79741651D01*
X116517750Y-79734419D01*
X116538574Y-79729203D01*
X116559809Y-79726053D01*
X116581250Y-79725000D01*
X117018750Y-79725000D01*
X117040191Y-79726053D01*
X117040191Y-79726053D01*
G37*
D11*
X116800000Y-80200000D03*
D10*
G36*
X115465191Y-79726053D02*
G01*
X115486426Y-79729203D01*
X115507250Y-79734419D01*
X115527462Y-79741651D01*
X115546868Y-79750830D01*
X115565281Y-79761866D01*
X115582524Y-79774654D01*
X115598430Y-79789070D01*
X115612846Y-79804976D01*
X115625634Y-79822219D01*
X115636670Y-79840632D01*
X115645849Y-79860038D01*
X115653081Y-79880250D01*
X115658297Y-79901074D01*
X115661447Y-79922309D01*
X115662500Y-79943750D01*
X115662500Y-80456250D01*
X115661447Y-80477691D01*
X115658297Y-80498926D01*
X115653081Y-80519750D01*
X115645849Y-80539962D01*
X115636670Y-80559368D01*
X115625634Y-80577781D01*
X115612846Y-80595024D01*
X115598430Y-80610930D01*
X115582524Y-80625346D01*
X115565281Y-80638134D01*
X115546868Y-80649170D01*
X115527462Y-80658349D01*
X115507250Y-80665581D01*
X115486426Y-80670797D01*
X115465191Y-80673947D01*
X115443750Y-80675000D01*
X115006250Y-80675000D01*
X114984809Y-80673947D01*
X114963574Y-80670797D01*
X114942750Y-80665581D01*
X114922538Y-80658349D01*
X114903132Y-80649170D01*
X114884719Y-80638134D01*
X114867476Y-80625346D01*
X114851570Y-80610930D01*
X114837154Y-80595024D01*
X114824366Y-80577781D01*
X114813330Y-80559368D01*
X114804151Y-80539962D01*
X114796919Y-80519750D01*
X114791703Y-80498926D01*
X114788553Y-80477691D01*
X114787500Y-80456250D01*
X114787500Y-79943750D01*
X114788553Y-79922309D01*
X114791703Y-79901074D01*
X114796919Y-79880250D01*
X114804151Y-79860038D01*
X114813330Y-79840632D01*
X114824366Y-79822219D01*
X114837154Y-79804976D01*
X114851570Y-79789070D01*
X114867476Y-79774654D01*
X114884719Y-79761866D01*
X114903132Y-79750830D01*
X114922538Y-79741651D01*
X114942750Y-79734419D01*
X114963574Y-79729203D01*
X114984809Y-79726053D01*
X115006250Y-79725000D01*
X115443750Y-79725000D01*
X115465191Y-79726053D01*
X115465191Y-79726053D01*
G37*
D11*
X115225000Y-80200000D03*
D10*
G36*
X116227691Y-85326053D02*
G01*
X116248926Y-85329203D01*
X116269750Y-85334419D01*
X116289962Y-85341651D01*
X116309368Y-85350830D01*
X116327781Y-85361866D01*
X116345024Y-85374654D01*
X116360930Y-85389070D01*
X116375346Y-85404976D01*
X116388134Y-85422219D01*
X116399170Y-85440632D01*
X116408349Y-85460038D01*
X116415581Y-85480250D01*
X116420797Y-85501074D01*
X116423947Y-85522309D01*
X116425000Y-85543750D01*
X116425000Y-86056250D01*
X116423947Y-86077691D01*
X116420797Y-86098926D01*
X116415581Y-86119750D01*
X116408349Y-86139962D01*
X116399170Y-86159368D01*
X116388134Y-86177781D01*
X116375346Y-86195024D01*
X116360930Y-86210930D01*
X116345024Y-86225346D01*
X116327781Y-86238134D01*
X116309368Y-86249170D01*
X116289962Y-86258349D01*
X116269750Y-86265581D01*
X116248926Y-86270797D01*
X116227691Y-86273947D01*
X116206250Y-86275000D01*
X115768750Y-86275000D01*
X115747309Y-86273947D01*
X115726074Y-86270797D01*
X115705250Y-86265581D01*
X115685038Y-86258349D01*
X115665632Y-86249170D01*
X115647219Y-86238134D01*
X115629976Y-86225346D01*
X115614070Y-86210930D01*
X115599654Y-86195024D01*
X115586866Y-86177781D01*
X115575830Y-86159368D01*
X115566651Y-86139962D01*
X115559419Y-86119750D01*
X115554203Y-86098926D01*
X115551053Y-86077691D01*
X115550000Y-86056250D01*
X115550000Y-85543750D01*
X115551053Y-85522309D01*
X115554203Y-85501074D01*
X115559419Y-85480250D01*
X115566651Y-85460038D01*
X115575830Y-85440632D01*
X115586866Y-85422219D01*
X115599654Y-85404976D01*
X115614070Y-85389070D01*
X115629976Y-85374654D01*
X115647219Y-85361866D01*
X115665632Y-85350830D01*
X115685038Y-85341651D01*
X115705250Y-85334419D01*
X115726074Y-85329203D01*
X115747309Y-85326053D01*
X115768750Y-85325000D01*
X116206250Y-85325000D01*
X116227691Y-85326053D01*
X116227691Y-85326053D01*
G37*
D11*
X115987500Y-85800000D03*
D10*
G36*
X114652691Y-85326053D02*
G01*
X114673926Y-85329203D01*
X114694750Y-85334419D01*
X114714962Y-85341651D01*
X114734368Y-85350830D01*
X114752781Y-85361866D01*
X114770024Y-85374654D01*
X114785930Y-85389070D01*
X114800346Y-85404976D01*
X114813134Y-85422219D01*
X114824170Y-85440632D01*
X114833349Y-85460038D01*
X114840581Y-85480250D01*
X114845797Y-85501074D01*
X114848947Y-85522309D01*
X114850000Y-85543750D01*
X114850000Y-86056250D01*
X114848947Y-86077691D01*
X114845797Y-86098926D01*
X114840581Y-86119750D01*
X114833349Y-86139962D01*
X114824170Y-86159368D01*
X114813134Y-86177781D01*
X114800346Y-86195024D01*
X114785930Y-86210930D01*
X114770024Y-86225346D01*
X114752781Y-86238134D01*
X114734368Y-86249170D01*
X114714962Y-86258349D01*
X114694750Y-86265581D01*
X114673926Y-86270797D01*
X114652691Y-86273947D01*
X114631250Y-86275000D01*
X114193750Y-86275000D01*
X114172309Y-86273947D01*
X114151074Y-86270797D01*
X114130250Y-86265581D01*
X114110038Y-86258349D01*
X114090632Y-86249170D01*
X114072219Y-86238134D01*
X114054976Y-86225346D01*
X114039070Y-86210930D01*
X114024654Y-86195024D01*
X114011866Y-86177781D01*
X114000830Y-86159368D01*
X113991651Y-86139962D01*
X113984419Y-86119750D01*
X113979203Y-86098926D01*
X113976053Y-86077691D01*
X113975000Y-86056250D01*
X113975000Y-85543750D01*
X113976053Y-85522309D01*
X113979203Y-85501074D01*
X113984419Y-85480250D01*
X113991651Y-85460038D01*
X114000830Y-85440632D01*
X114011866Y-85422219D01*
X114024654Y-85404976D01*
X114039070Y-85389070D01*
X114054976Y-85374654D01*
X114072219Y-85361866D01*
X114090632Y-85350830D01*
X114110038Y-85341651D01*
X114130250Y-85334419D01*
X114151074Y-85329203D01*
X114172309Y-85326053D01*
X114193750Y-85325000D01*
X114631250Y-85325000D01*
X114652691Y-85326053D01*
X114652691Y-85326053D01*
G37*
D11*
X114412500Y-85800000D03*
D10*
G36*
X114652691Y-87926053D02*
G01*
X114673926Y-87929203D01*
X114694750Y-87934419D01*
X114714962Y-87941651D01*
X114734368Y-87950830D01*
X114752781Y-87961866D01*
X114770024Y-87974654D01*
X114785930Y-87989070D01*
X114800346Y-88004976D01*
X114813134Y-88022219D01*
X114824170Y-88040632D01*
X114833349Y-88060038D01*
X114840581Y-88080250D01*
X114845797Y-88101074D01*
X114848947Y-88122309D01*
X114850000Y-88143750D01*
X114850000Y-88656250D01*
X114848947Y-88677691D01*
X114845797Y-88698926D01*
X114840581Y-88719750D01*
X114833349Y-88739962D01*
X114824170Y-88759368D01*
X114813134Y-88777781D01*
X114800346Y-88795024D01*
X114785930Y-88810930D01*
X114770024Y-88825346D01*
X114752781Y-88838134D01*
X114734368Y-88849170D01*
X114714962Y-88858349D01*
X114694750Y-88865581D01*
X114673926Y-88870797D01*
X114652691Y-88873947D01*
X114631250Y-88875000D01*
X114193750Y-88875000D01*
X114172309Y-88873947D01*
X114151074Y-88870797D01*
X114130250Y-88865581D01*
X114110038Y-88858349D01*
X114090632Y-88849170D01*
X114072219Y-88838134D01*
X114054976Y-88825346D01*
X114039070Y-88810930D01*
X114024654Y-88795024D01*
X114011866Y-88777781D01*
X114000830Y-88759368D01*
X113991651Y-88739962D01*
X113984419Y-88719750D01*
X113979203Y-88698926D01*
X113976053Y-88677691D01*
X113975000Y-88656250D01*
X113975000Y-88143750D01*
X113976053Y-88122309D01*
X113979203Y-88101074D01*
X113984419Y-88080250D01*
X113991651Y-88060038D01*
X114000830Y-88040632D01*
X114011866Y-88022219D01*
X114024654Y-88004976D01*
X114039070Y-87989070D01*
X114054976Y-87974654D01*
X114072219Y-87961866D01*
X114090632Y-87950830D01*
X114110038Y-87941651D01*
X114130250Y-87934419D01*
X114151074Y-87929203D01*
X114172309Y-87926053D01*
X114193750Y-87925000D01*
X114631250Y-87925000D01*
X114652691Y-87926053D01*
X114652691Y-87926053D01*
G37*
D11*
X114412500Y-88400000D03*
D10*
G36*
X116227691Y-87926053D02*
G01*
X116248926Y-87929203D01*
X116269750Y-87934419D01*
X116289962Y-87941651D01*
X116309368Y-87950830D01*
X116327781Y-87961866D01*
X116345024Y-87974654D01*
X116360930Y-87989070D01*
X116375346Y-88004976D01*
X116388134Y-88022219D01*
X116399170Y-88040632D01*
X116408349Y-88060038D01*
X116415581Y-88080250D01*
X116420797Y-88101074D01*
X116423947Y-88122309D01*
X116425000Y-88143750D01*
X116425000Y-88656250D01*
X116423947Y-88677691D01*
X116420797Y-88698926D01*
X116415581Y-88719750D01*
X116408349Y-88739962D01*
X116399170Y-88759368D01*
X116388134Y-88777781D01*
X116375346Y-88795024D01*
X116360930Y-88810930D01*
X116345024Y-88825346D01*
X116327781Y-88838134D01*
X116309368Y-88849170D01*
X116289962Y-88858349D01*
X116269750Y-88865581D01*
X116248926Y-88870797D01*
X116227691Y-88873947D01*
X116206250Y-88875000D01*
X115768750Y-88875000D01*
X115747309Y-88873947D01*
X115726074Y-88870797D01*
X115705250Y-88865581D01*
X115685038Y-88858349D01*
X115665632Y-88849170D01*
X115647219Y-88838134D01*
X115629976Y-88825346D01*
X115614070Y-88810930D01*
X115599654Y-88795024D01*
X115586866Y-88777781D01*
X115575830Y-88759368D01*
X115566651Y-88739962D01*
X115559419Y-88719750D01*
X115554203Y-88698926D01*
X115551053Y-88677691D01*
X115550000Y-88656250D01*
X115550000Y-88143750D01*
X115551053Y-88122309D01*
X115554203Y-88101074D01*
X115559419Y-88080250D01*
X115566651Y-88060038D01*
X115575830Y-88040632D01*
X115586866Y-88022219D01*
X115599654Y-88004976D01*
X115614070Y-87989070D01*
X115629976Y-87974654D01*
X115647219Y-87961866D01*
X115665632Y-87950830D01*
X115685038Y-87941651D01*
X115705250Y-87934419D01*
X115726074Y-87929203D01*
X115747309Y-87926053D01*
X115768750Y-87925000D01*
X116206250Y-87925000D01*
X116227691Y-87926053D01*
X116227691Y-87926053D01*
G37*
D11*
X115987500Y-88400000D03*
D10*
G36*
X119715191Y-87376053D02*
G01*
X119736426Y-87379203D01*
X119757250Y-87384419D01*
X119777462Y-87391651D01*
X119796868Y-87400830D01*
X119815281Y-87411866D01*
X119832524Y-87424654D01*
X119848430Y-87439070D01*
X119862846Y-87454976D01*
X119875634Y-87472219D01*
X119886670Y-87490632D01*
X119895849Y-87510038D01*
X119903081Y-87530250D01*
X119908297Y-87551074D01*
X119911447Y-87572309D01*
X119912500Y-87593750D01*
X119912500Y-88106250D01*
X119911447Y-88127691D01*
X119908297Y-88148926D01*
X119903081Y-88169750D01*
X119895849Y-88189962D01*
X119886670Y-88209368D01*
X119875634Y-88227781D01*
X119862846Y-88245024D01*
X119848430Y-88260930D01*
X119832524Y-88275346D01*
X119815281Y-88288134D01*
X119796868Y-88299170D01*
X119777462Y-88308349D01*
X119757250Y-88315581D01*
X119736426Y-88320797D01*
X119715191Y-88323947D01*
X119693750Y-88325000D01*
X119256250Y-88325000D01*
X119234809Y-88323947D01*
X119213574Y-88320797D01*
X119192750Y-88315581D01*
X119172538Y-88308349D01*
X119153132Y-88299170D01*
X119134719Y-88288134D01*
X119117476Y-88275346D01*
X119101570Y-88260930D01*
X119087154Y-88245024D01*
X119074366Y-88227781D01*
X119063330Y-88209368D01*
X119054151Y-88189962D01*
X119046919Y-88169750D01*
X119041703Y-88148926D01*
X119038553Y-88127691D01*
X119037500Y-88106250D01*
X119037500Y-87593750D01*
X119038553Y-87572309D01*
X119041703Y-87551074D01*
X119046919Y-87530250D01*
X119054151Y-87510038D01*
X119063330Y-87490632D01*
X119074366Y-87472219D01*
X119087154Y-87454976D01*
X119101570Y-87439070D01*
X119117476Y-87424654D01*
X119134719Y-87411866D01*
X119153132Y-87400830D01*
X119172538Y-87391651D01*
X119192750Y-87384419D01*
X119213574Y-87379203D01*
X119234809Y-87376053D01*
X119256250Y-87375000D01*
X119693750Y-87375000D01*
X119715191Y-87376053D01*
X119715191Y-87376053D01*
G37*
D11*
X119475000Y-87850000D03*
D10*
G36*
X118140191Y-87376053D02*
G01*
X118161426Y-87379203D01*
X118182250Y-87384419D01*
X118202462Y-87391651D01*
X118221868Y-87400830D01*
X118240281Y-87411866D01*
X118257524Y-87424654D01*
X118273430Y-87439070D01*
X118287846Y-87454976D01*
X118300634Y-87472219D01*
X118311670Y-87490632D01*
X118320849Y-87510038D01*
X118328081Y-87530250D01*
X118333297Y-87551074D01*
X118336447Y-87572309D01*
X118337500Y-87593750D01*
X118337500Y-88106250D01*
X118336447Y-88127691D01*
X118333297Y-88148926D01*
X118328081Y-88169750D01*
X118320849Y-88189962D01*
X118311670Y-88209368D01*
X118300634Y-88227781D01*
X118287846Y-88245024D01*
X118273430Y-88260930D01*
X118257524Y-88275346D01*
X118240281Y-88288134D01*
X118221868Y-88299170D01*
X118202462Y-88308349D01*
X118182250Y-88315581D01*
X118161426Y-88320797D01*
X118140191Y-88323947D01*
X118118750Y-88325000D01*
X117681250Y-88325000D01*
X117659809Y-88323947D01*
X117638574Y-88320797D01*
X117617750Y-88315581D01*
X117597538Y-88308349D01*
X117578132Y-88299170D01*
X117559719Y-88288134D01*
X117542476Y-88275346D01*
X117526570Y-88260930D01*
X117512154Y-88245024D01*
X117499366Y-88227781D01*
X117488330Y-88209368D01*
X117479151Y-88189962D01*
X117471919Y-88169750D01*
X117466703Y-88148926D01*
X117463553Y-88127691D01*
X117462500Y-88106250D01*
X117462500Y-87593750D01*
X117463553Y-87572309D01*
X117466703Y-87551074D01*
X117471919Y-87530250D01*
X117479151Y-87510038D01*
X117488330Y-87490632D01*
X117499366Y-87472219D01*
X117512154Y-87454976D01*
X117526570Y-87439070D01*
X117542476Y-87424654D01*
X117559719Y-87411866D01*
X117578132Y-87400830D01*
X117597538Y-87391651D01*
X117617750Y-87384419D01*
X117638574Y-87379203D01*
X117659809Y-87376053D01*
X117681250Y-87375000D01*
X118118750Y-87375000D01*
X118140191Y-87376053D01*
X118140191Y-87376053D01*
G37*
D11*
X117900000Y-87850000D03*
D10*
G36*
X118152691Y-84276053D02*
G01*
X118173926Y-84279203D01*
X118194750Y-84284419D01*
X118214962Y-84291651D01*
X118234368Y-84300830D01*
X118252781Y-84311866D01*
X118270024Y-84324654D01*
X118285930Y-84339070D01*
X118300346Y-84354976D01*
X118313134Y-84372219D01*
X118324170Y-84390632D01*
X118333349Y-84410038D01*
X118340581Y-84430250D01*
X118345797Y-84451074D01*
X118348947Y-84472309D01*
X118350000Y-84493750D01*
X118350000Y-85006250D01*
X118348947Y-85027691D01*
X118345797Y-85048926D01*
X118340581Y-85069750D01*
X118333349Y-85089962D01*
X118324170Y-85109368D01*
X118313134Y-85127781D01*
X118300346Y-85145024D01*
X118285930Y-85160930D01*
X118270024Y-85175346D01*
X118252781Y-85188134D01*
X118234368Y-85199170D01*
X118214962Y-85208349D01*
X118194750Y-85215581D01*
X118173926Y-85220797D01*
X118152691Y-85223947D01*
X118131250Y-85225000D01*
X117693750Y-85225000D01*
X117672309Y-85223947D01*
X117651074Y-85220797D01*
X117630250Y-85215581D01*
X117610038Y-85208349D01*
X117590632Y-85199170D01*
X117572219Y-85188134D01*
X117554976Y-85175346D01*
X117539070Y-85160930D01*
X117524654Y-85145024D01*
X117511866Y-85127781D01*
X117500830Y-85109368D01*
X117491651Y-85089962D01*
X117484419Y-85069750D01*
X117479203Y-85048926D01*
X117476053Y-85027691D01*
X117475000Y-85006250D01*
X117475000Y-84493750D01*
X117476053Y-84472309D01*
X117479203Y-84451074D01*
X117484419Y-84430250D01*
X117491651Y-84410038D01*
X117500830Y-84390632D01*
X117511866Y-84372219D01*
X117524654Y-84354976D01*
X117539070Y-84339070D01*
X117554976Y-84324654D01*
X117572219Y-84311866D01*
X117590632Y-84300830D01*
X117610038Y-84291651D01*
X117630250Y-84284419D01*
X117651074Y-84279203D01*
X117672309Y-84276053D01*
X117693750Y-84275000D01*
X118131250Y-84275000D01*
X118152691Y-84276053D01*
X118152691Y-84276053D01*
G37*
D11*
X117912500Y-84750000D03*
D10*
G36*
X119727691Y-84276053D02*
G01*
X119748926Y-84279203D01*
X119769750Y-84284419D01*
X119789962Y-84291651D01*
X119809368Y-84300830D01*
X119827781Y-84311866D01*
X119845024Y-84324654D01*
X119860930Y-84339070D01*
X119875346Y-84354976D01*
X119888134Y-84372219D01*
X119899170Y-84390632D01*
X119908349Y-84410038D01*
X119915581Y-84430250D01*
X119920797Y-84451074D01*
X119923947Y-84472309D01*
X119925000Y-84493750D01*
X119925000Y-85006250D01*
X119923947Y-85027691D01*
X119920797Y-85048926D01*
X119915581Y-85069750D01*
X119908349Y-85089962D01*
X119899170Y-85109368D01*
X119888134Y-85127781D01*
X119875346Y-85145024D01*
X119860930Y-85160930D01*
X119845024Y-85175346D01*
X119827781Y-85188134D01*
X119809368Y-85199170D01*
X119789962Y-85208349D01*
X119769750Y-85215581D01*
X119748926Y-85220797D01*
X119727691Y-85223947D01*
X119706250Y-85225000D01*
X119268750Y-85225000D01*
X119247309Y-85223947D01*
X119226074Y-85220797D01*
X119205250Y-85215581D01*
X119185038Y-85208349D01*
X119165632Y-85199170D01*
X119147219Y-85188134D01*
X119129976Y-85175346D01*
X119114070Y-85160930D01*
X119099654Y-85145024D01*
X119086866Y-85127781D01*
X119075830Y-85109368D01*
X119066651Y-85089962D01*
X119059419Y-85069750D01*
X119054203Y-85048926D01*
X119051053Y-85027691D01*
X119050000Y-85006250D01*
X119050000Y-84493750D01*
X119051053Y-84472309D01*
X119054203Y-84451074D01*
X119059419Y-84430250D01*
X119066651Y-84410038D01*
X119075830Y-84390632D01*
X119086866Y-84372219D01*
X119099654Y-84354976D01*
X119114070Y-84339070D01*
X119129976Y-84324654D01*
X119147219Y-84311866D01*
X119165632Y-84300830D01*
X119185038Y-84291651D01*
X119205250Y-84284419D01*
X119226074Y-84279203D01*
X119247309Y-84276053D01*
X119268750Y-84275000D01*
X119706250Y-84275000D01*
X119727691Y-84276053D01*
X119727691Y-84276053D01*
G37*
D11*
X119487500Y-84750000D03*
D10*
G36*
X120627691Y-74926053D02*
G01*
X120648926Y-74929203D01*
X120669750Y-74934419D01*
X120689962Y-74941651D01*
X120709368Y-74950830D01*
X120727781Y-74961866D01*
X120745024Y-74974654D01*
X120760930Y-74989070D01*
X120775346Y-75004976D01*
X120788134Y-75022219D01*
X120799170Y-75040632D01*
X120808349Y-75060038D01*
X120815581Y-75080250D01*
X120820797Y-75101074D01*
X120823947Y-75122309D01*
X120825000Y-75143750D01*
X120825000Y-75656250D01*
X120823947Y-75677691D01*
X120820797Y-75698926D01*
X120815581Y-75719750D01*
X120808349Y-75739962D01*
X120799170Y-75759368D01*
X120788134Y-75777781D01*
X120775346Y-75795024D01*
X120760930Y-75810930D01*
X120745024Y-75825346D01*
X120727781Y-75838134D01*
X120709368Y-75849170D01*
X120689962Y-75858349D01*
X120669750Y-75865581D01*
X120648926Y-75870797D01*
X120627691Y-75873947D01*
X120606250Y-75875000D01*
X120168750Y-75875000D01*
X120147309Y-75873947D01*
X120126074Y-75870797D01*
X120105250Y-75865581D01*
X120085038Y-75858349D01*
X120065632Y-75849170D01*
X120047219Y-75838134D01*
X120029976Y-75825346D01*
X120014070Y-75810930D01*
X119999654Y-75795024D01*
X119986866Y-75777781D01*
X119975830Y-75759368D01*
X119966651Y-75739962D01*
X119959419Y-75719750D01*
X119954203Y-75698926D01*
X119951053Y-75677691D01*
X119950000Y-75656250D01*
X119950000Y-75143750D01*
X119951053Y-75122309D01*
X119954203Y-75101074D01*
X119959419Y-75080250D01*
X119966651Y-75060038D01*
X119975830Y-75040632D01*
X119986866Y-75022219D01*
X119999654Y-75004976D01*
X120014070Y-74989070D01*
X120029976Y-74974654D01*
X120047219Y-74961866D01*
X120065632Y-74950830D01*
X120085038Y-74941651D01*
X120105250Y-74934419D01*
X120126074Y-74929203D01*
X120147309Y-74926053D01*
X120168750Y-74925000D01*
X120606250Y-74925000D01*
X120627691Y-74926053D01*
X120627691Y-74926053D01*
G37*
D11*
X120387500Y-75400000D03*
D10*
G36*
X119052691Y-74926053D02*
G01*
X119073926Y-74929203D01*
X119094750Y-74934419D01*
X119114962Y-74941651D01*
X119134368Y-74950830D01*
X119152781Y-74961866D01*
X119170024Y-74974654D01*
X119185930Y-74989070D01*
X119200346Y-75004976D01*
X119213134Y-75022219D01*
X119224170Y-75040632D01*
X119233349Y-75060038D01*
X119240581Y-75080250D01*
X119245797Y-75101074D01*
X119248947Y-75122309D01*
X119250000Y-75143750D01*
X119250000Y-75656250D01*
X119248947Y-75677691D01*
X119245797Y-75698926D01*
X119240581Y-75719750D01*
X119233349Y-75739962D01*
X119224170Y-75759368D01*
X119213134Y-75777781D01*
X119200346Y-75795024D01*
X119185930Y-75810930D01*
X119170024Y-75825346D01*
X119152781Y-75838134D01*
X119134368Y-75849170D01*
X119114962Y-75858349D01*
X119094750Y-75865581D01*
X119073926Y-75870797D01*
X119052691Y-75873947D01*
X119031250Y-75875000D01*
X118593750Y-75875000D01*
X118572309Y-75873947D01*
X118551074Y-75870797D01*
X118530250Y-75865581D01*
X118510038Y-75858349D01*
X118490632Y-75849170D01*
X118472219Y-75838134D01*
X118454976Y-75825346D01*
X118439070Y-75810930D01*
X118424654Y-75795024D01*
X118411866Y-75777781D01*
X118400830Y-75759368D01*
X118391651Y-75739962D01*
X118384419Y-75719750D01*
X118379203Y-75698926D01*
X118376053Y-75677691D01*
X118375000Y-75656250D01*
X118375000Y-75143750D01*
X118376053Y-75122309D01*
X118379203Y-75101074D01*
X118384419Y-75080250D01*
X118391651Y-75060038D01*
X118400830Y-75040632D01*
X118411866Y-75022219D01*
X118424654Y-75004976D01*
X118439070Y-74989070D01*
X118454976Y-74974654D01*
X118472219Y-74961866D01*
X118490632Y-74950830D01*
X118510038Y-74941651D01*
X118530250Y-74934419D01*
X118551074Y-74929203D01*
X118572309Y-74926053D01*
X118593750Y-74925000D01*
X119031250Y-74925000D01*
X119052691Y-74926053D01*
X119052691Y-74926053D01*
G37*
D11*
X118812500Y-75400000D03*
D10*
G36*
X117027691Y-81326053D02*
G01*
X117048926Y-81329203D01*
X117069750Y-81334419D01*
X117089962Y-81341651D01*
X117109368Y-81350830D01*
X117127781Y-81361866D01*
X117145024Y-81374654D01*
X117160930Y-81389070D01*
X117175346Y-81404976D01*
X117188134Y-81422219D01*
X117199170Y-81440632D01*
X117208349Y-81460038D01*
X117215581Y-81480250D01*
X117220797Y-81501074D01*
X117223947Y-81522309D01*
X117225000Y-81543750D01*
X117225000Y-82056250D01*
X117223947Y-82077691D01*
X117220797Y-82098926D01*
X117215581Y-82119750D01*
X117208349Y-82139962D01*
X117199170Y-82159368D01*
X117188134Y-82177781D01*
X117175346Y-82195024D01*
X117160930Y-82210930D01*
X117145024Y-82225346D01*
X117127781Y-82238134D01*
X117109368Y-82249170D01*
X117089962Y-82258349D01*
X117069750Y-82265581D01*
X117048926Y-82270797D01*
X117027691Y-82273947D01*
X117006250Y-82275000D01*
X116568750Y-82275000D01*
X116547309Y-82273947D01*
X116526074Y-82270797D01*
X116505250Y-82265581D01*
X116485038Y-82258349D01*
X116465632Y-82249170D01*
X116447219Y-82238134D01*
X116429976Y-82225346D01*
X116414070Y-82210930D01*
X116399654Y-82195024D01*
X116386866Y-82177781D01*
X116375830Y-82159368D01*
X116366651Y-82139962D01*
X116359419Y-82119750D01*
X116354203Y-82098926D01*
X116351053Y-82077691D01*
X116350000Y-82056250D01*
X116350000Y-81543750D01*
X116351053Y-81522309D01*
X116354203Y-81501074D01*
X116359419Y-81480250D01*
X116366651Y-81460038D01*
X116375830Y-81440632D01*
X116386866Y-81422219D01*
X116399654Y-81404976D01*
X116414070Y-81389070D01*
X116429976Y-81374654D01*
X116447219Y-81361866D01*
X116465632Y-81350830D01*
X116485038Y-81341651D01*
X116505250Y-81334419D01*
X116526074Y-81329203D01*
X116547309Y-81326053D01*
X116568750Y-81325000D01*
X117006250Y-81325000D01*
X117027691Y-81326053D01*
X117027691Y-81326053D01*
G37*
D11*
X116787500Y-81800000D03*
D10*
G36*
X115452691Y-81326053D02*
G01*
X115473926Y-81329203D01*
X115494750Y-81334419D01*
X115514962Y-81341651D01*
X115534368Y-81350830D01*
X115552781Y-81361866D01*
X115570024Y-81374654D01*
X115585930Y-81389070D01*
X115600346Y-81404976D01*
X115613134Y-81422219D01*
X115624170Y-81440632D01*
X115633349Y-81460038D01*
X115640581Y-81480250D01*
X115645797Y-81501074D01*
X115648947Y-81522309D01*
X115650000Y-81543750D01*
X115650000Y-82056250D01*
X115648947Y-82077691D01*
X115645797Y-82098926D01*
X115640581Y-82119750D01*
X115633349Y-82139962D01*
X115624170Y-82159368D01*
X115613134Y-82177781D01*
X115600346Y-82195024D01*
X115585930Y-82210930D01*
X115570024Y-82225346D01*
X115552781Y-82238134D01*
X115534368Y-82249170D01*
X115514962Y-82258349D01*
X115494750Y-82265581D01*
X115473926Y-82270797D01*
X115452691Y-82273947D01*
X115431250Y-82275000D01*
X114993750Y-82275000D01*
X114972309Y-82273947D01*
X114951074Y-82270797D01*
X114930250Y-82265581D01*
X114910038Y-82258349D01*
X114890632Y-82249170D01*
X114872219Y-82238134D01*
X114854976Y-82225346D01*
X114839070Y-82210930D01*
X114824654Y-82195024D01*
X114811866Y-82177781D01*
X114800830Y-82159368D01*
X114791651Y-82139962D01*
X114784419Y-82119750D01*
X114779203Y-82098926D01*
X114776053Y-82077691D01*
X114775000Y-82056250D01*
X114775000Y-81543750D01*
X114776053Y-81522309D01*
X114779203Y-81501074D01*
X114784419Y-81480250D01*
X114791651Y-81460038D01*
X114800830Y-81440632D01*
X114811866Y-81422219D01*
X114824654Y-81404976D01*
X114839070Y-81389070D01*
X114854976Y-81374654D01*
X114872219Y-81361866D01*
X114890632Y-81350830D01*
X114910038Y-81341651D01*
X114930250Y-81334419D01*
X114951074Y-81329203D01*
X114972309Y-81326053D01*
X114993750Y-81325000D01*
X115431250Y-81325000D01*
X115452691Y-81326053D01*
X115452691Y-81326053D01*
G37*
D11*
X115212500Y-81800000D03*
D13*
X118600000Y-82450000D03*
X118600000Y-79950000D03*
D10*
G36*
X118140191Y-88726053D02*
G01*
X118161426Y-88729203D01*
X118182250Y-88734419D01*
X118202462Y-88741651D01*
X118221868Y-88750830D01*
X118240281Y-88761866D01*
X118257524Y-88774654D01*
X118273430Y-88789070D01*
X118287846Y-88804976D01*
X118300634Y-88822219D01*
X118311670Y-88840632D01*
X118320849Y-88860038D01*
X118328081Y-88880250D01*
X118333297Y-88901074D01*
X118336447Y-88922309D01*
X118337500Y-88943750D01*
X118337500Y-89456250D01*
X118336447Y-89477691D01*
X118333297Y-89498926D01*
X118328081Y-89519750D01*
X118320849Y-89539962D01*
X118311670Y-89559368D01*
X118300634Y-89577781D01*
X118287846Y-89595024D01*
X118273430Y-89610930D01*
X118257524Y-89625346D01*
X118240281Y-89638134D01*
X118221868Y-89649170D01*
X118202462Y-89658349D01*
X118182250Y-89665581D01*
X118161426Y-89670797D01*
X118140191Y-89673947D01*
X118118750Y-89675000D01*
X117681250Y-89675000D01*
X117659809Y-89673947D01*
X117638574Y-89670797D01*
X117617750Y-89665581D01*
X117597538Y-89658349D01*
X117578132Y-89649170D01*
X117559719Y-89638134D01*
X117542476Y-89625346D01*
X117526570Y-89610930D01*
X117512154Y-89595024D01*
X117499366Y-89577781D01*
X117488330Y-89559368D01*
X117479151Y-89539962D01*
X117471919Y-89519750D01*
X117466703Y-89498926D01*
X117463553Y-89477691D01*
X117462500Y-89456250D01*
X117462500Y-88943750D01*
X117463553Y-88922309D01*
X117466703Y-88901074D01*
X117471919Y-88880250D01*
X117479151Y-88860038D01*
X117488330Y-88840632D01*
X117499366Y-88822219D01*
X117512154Y-88804976D01*
X117526570Y-88789070D01*
X117542476Y-88774654D01*
X117559719Y-88761866D01*
X117578132Y-88750830D01*
X117597538Y-88741651D01*
X117617750Y-88734419D01*
X117638574Y-88729203D01*
X117659809Y-88726053D01*
X117681250Y-88725000D01*
X118118750Y-88725000D01*
X118140191Y-88726053D01*
X118140191Y-88726053D01*
G37*
D11*
X117900000Y-89200000D03*
D10*
G36*
X119715191Y-88726053D02*
G01*
X119736426Y-88729203D01*
X119757250Y-88734419D01*
X119777462Y-88741651D01*
X119796868Y-88750830D01*
X119815281Y-88761866D01*
X119832524Y-88774654D01*
X119848430Y-88789070D01*
X119862846Y-88804976D01*
X119875634Y-88822219D01*
X119886670Y-88840632D01*
X119895849Y-88860038D01*
X119903081Y-88880250D01*
X119908297Y-88901074D01*
X119911447Y-88922309D01*
X119912500Y-88943750D01*
X119912500Y-89456250D01*
X119911447Y-89477691D01*
X119908297Y-89498926D01*
X119903081Y-89519750D01*
X119895849Y-89539962D01*
X119886670Y-89559368D01*
X119875634Y-89577781D01*
X119862846Y-89595024D01*
X119848430Y-89610930D01*
X119832524Y-89625346D01*
X119815281Y-89638134D01*
X119796868Y-89649170D01*
X119777462Y-89658349D01*
X119757250Y-89665581D01*
X119736426Y-89670797D01*
X119715191Y-89673947D01*
X119693750Y-89675000D01*
X119256250Y-89675000D01*
X119234809Y-89673947D01*
X119213574Y-89670797D01*
X119192750Y-89665581D01*
X119172538Y-89658349D01*
X119153132Y-89649170D01*
X119134719Y-89638134D01*
X119117476Y-89625346D01*
X119101570Y-89610930D01*
X119087154Y-89595024D01*
X119074366Y-89577781D01*
X119063330Y-89559368D01*
X119054151Y-89539962D01*
X119046919Y-89519750D01*
X119041703Y-89498926D01*
X119038553Y-89477691D01*
X119037500Y-89456250D01*
X119037500Y-88943750D01*
X119038553Y-88922309D01*
X119041703Y-88901074D01*
X119046919Y-88880250D01*
X119054151Y-88860038D01*
X119063330Y-88840632D01*
X119074366Y-88822219D01*
X119087154Y-88804976D01*
X119101570Y-88789070D01*
X119117476Y-88774654D01*
X119134719Y-88761866D01*
X119153132Y-88750830D01*
X119172538Y-88741651D01*
X119192750Y-88734419D01*
X119213574Y-88729203D01*
X119234809Y-88726053D01*
X119256250Y-88725000D01*
X119693750Y-88725000D01*
X119715191Y-88726053D01*
X119715191Y-88726053D01*
G37*
D11*
X119475000Y-89200000D03*
D10*
G36*
X114652691Y-83026053D02*
G01*
X114673926Y-83029203D01*
X114694750Y-83034419D01*
X114714962Y-83041651D01*
X114734368Y-83050830D01*
X114752781Y-83061866D01*
X114770024Y-83074654D01*
X114785930Y-83089070D01*
X114800346Y-83104976D01*
X114813134Y-83122219D01*
X114824170Y-83140632D01*
X114833349Y-83160038D01*
X114840581Y-83180250D01*
X114845797Y-83201074D01*
X114848947Y-83222309D01*
X114850000Y-83243750D01*
X114850000Y-83756250D01*
X114848947Y-83777691D01*
X114845797Y-83798926D01*
X114840581Y-83819750D01*
X114833349Y-83839962D01*
X114824170Y-83859368D01*
X114813134Y-83877781D01*
X114800346Y-83895024D01*
X114785930Y-83910930D01*
X114770024Y-83925346D01*
X114752781Y-83938134D01*
X114734368Y-83949170D01*
X114714962Y-83958349D01*
X114694750Y-83965581D01*
X114673926Y-83970797D01*
X114652691Y-83973947D01*
X114631250Y-83975000D01*
X114193750Y-83975000D01*
X114172309Y-83973947D01*
X114151074Y-83970797D01*
X114130250Y-83965581D01*
X114110038Y-83958349D01*
X114090632Y-83949170D01*
X114072219Y-83938134D01*
X114054976Y-83925346D01*
X114039070Y-83910930D01*
X114024654Y-83895024D01*
X114011866Y-83877781D01*
X114000830Y-83859368D01*
X113991651Y-83839962D01*
X113984419Y-83819750D01*
X113979203Y-83798926D01*
X113976053Y-83777691D01*
X113975000Y-83756250D01*
X113975000Y-83243750D01*
X113976053Y-83222309D01*
X113979203Y-83201074D01*
X113984419Y-83180250D01*
X113991651Y-83160038D01*
X114000830Y-83140632D01*
X114011866Y-83122219D01*
X114024654Y-83104976D01*
X114039070Y-83089070D01*
X114054976Y-83074654D01*
X114072219Y-83061866D01*
X114090632Y-83050830D01*
X114110038Y-83041651D01*
X114130250Y-83034419D01*
X114151074Y-83029203D01*
X114172309Y-83026053D01*
X114193750Y-83025000D01*
X114631250Y-83025000D01*
X114652691Y-83026053D01*
X114652691Y-83026053D01*
G37*
D11*
X114412500Y-83500000D03*
D10*
G36*
X116227691Y-83026053D02*
G01*
X116248926Y-83029203D01*
X116269750Y-83034419D01*
X116289962Y-83041651D01*
X116309368Y-83050830D01*
X116327781Y-83061866D01*
X116345024Y-83074654D01*
X116360930Y-83089070D01*
X116375346Y-83104976D01*
X116388134Y-83122219D01*
X116399170Y-83140632D01*
X116408349Y-83160038D01*
X116415581Y-83180250D01*
X116420797Y-83201074D01*
X116423947Y-83222309D01*
X116425000Y-83243750D01*
X116425000Y-83756250D01*
X116423947Y-83777691D01*
X116420797Y-83798926D01*
X116415581Y-83819750D01*
X116408349Y-83839962D01*
X116399170Y-83859368D01*
X116388134Y-83877781D01*
X116375346Y-83895024D01*
X116360930Y-83910930D01*
X116345024Y-83925346D01*
X116327781Y-83938134D01*
X116309368Y-83949170D01*
X116289962Y-83958349D01*
X116269750Y-83965581D01*
X116248926Y-83970797D01*
X116227691Y-83973947D01*
X116206250Y-83975000D01*
X115768750Y-83975000D01*
X115747309Y-83973947D01*
X115726074Y-83970797D01*
X115705250Y-83965581D01*
X115685038Y-83958349D01*
X115665632Y-83949170D01*
X115647219Y-83938134D01*
X115629976Y-83925346D01*
X115614070Y-83910930D01*
X115599654Y-83895024D01*
X115586866Y-83877781D01*
X115575830Y-83859368D01*
X115566651Y-83839962D01*
X115559419Y-83819750D01*
X115554203Y-83798926D01*
X115551053Y-83777691D01*
X115550000Y-83756250D01*
X115550000Y-83243750D01*
X115551053Y-83222309D01*
X115554203Y-83201074D01*
X115559419Y-83180250D01*
X115566651Y-83160038D01*
X115575830Y-83140632D01*
X115586866Y-83122219D01*
X115599654Y-83104976D01*
X115614070Y-83089070D01*
X115629976Y-83074654D01*
X115647219Y-83061866D01*
X115665632Y-83050830D01*
X115685038Y-83041651D01*
X115705250Y-83034419D01*
X115726074Y-83029203D01*
X115747309Y-83026053D01*
X115768750Y-83025000D01*
X116206250Y-83025000D01*
X116227691Y-83026053D01*
X116227691Y-83026053D01*
G37*
D11*
X115987500Y-83500000D03*
D14*
X115987500Y-76500000D03*
X115212500Y-76500000D03*
X115212500Y-75300000D03*
X115987500Y-75300000D03*
D15*
X114050000Y-76875000D03*
X114050000Y-76225000D03*
X114050000Y-75575000D03*
X114050000Y-74925000D03*
X117150000Y-74925000D03*
X117150000Y-75575000D03*
X117150000Y-76225000D03*
X117150000Y-76875000D03*
D10*
G36*
X114377691Y-71588553D02*
G01*
X114398926Y-71591703D01*
X114419750Y-71596919D01*
X114439962Y-71604151D01*
X114459368Y-71613330D01*
X114477781Y-71624366D01*
X114495024Y-71637154D01*
X114510930Y-71651570D01*
X114525346Y-71667476D01*
X114538134Y-71684719D01*
X114549170Y-71703132D01*
X114558349Y-71722538D01*
X114565581Y-71742750D01*
X114570797Y-71763574D01*
X114573947Y-71784809D01*
X114575000Y-71806250D01*
X114575000Y-72243750D01*
X114573947Y-72265191D01*
X114570797Y-72286426D01*
X114565581Y-72307250D01*
X114558349Y-72327462D01*
X114549170Y-72346868D01*
X114538134Y-72365281D01*
X114525346Y-72382524D01*
X114510930Y-72398430D01*
X114495024Y-72412846D01*
X114477781Y-72425634D01*
X114459368Y-72436670D01*
X114439962Y-72445849D01*
X114419750Y-72453081D01*
X114398926Y-72458297D01*
X114377691Y-72461447D01*
X114356250Y-72462500D01*
X113843750Y-72462500D01*
X113822309Y-72461447D01*
X113801074Y-72458297D01*
X113780250Y-72453081D01*
X113760038Y-72445849D01*
X113740632Y-72436670D01*
X113722219Y-72425634D01*
X113704976Y-72412846D01*
X113689070Y-72398430D01*
X113674654Y-72382524D01*
X113661866Y-72365281D01*
X113650830Y-72346868D01*
X113641651Y-72327462D01*
X113634419Y-72307250D01*
X113629203Y-72286426D01*
X113626053Y-72265191D01*
X113625000Y-72243750D01*
X113625000Y-71806250D01*
X113626053Y-71784809D01*
X113629203Y-71763574D01*
X113634419Y-71742750D01*
X113641651Y-71722538D01*
X113650830Y-71703132D01*
X113661866Y-71684719D01*
X113674654Y-71667476D01*
X113689070Y-71651570D01*
X113704976Y-71637154D01*
X113722219Y-71624366D01*
X113740632Y-71613330D01*
X113760038Y-71604151D01*
X113780250Y-71596919D01*
X113801074Y-71591703D01*
X113822309Y-71588553D01*
X113843750Y-71587500D01*
X114356250Y-71587500D01*
X114377691Y-71588553D01*
X114377691Y-71588553D01*
G37*
D11*
X114100000Y-72025000D03*
D10*
G36*
X114377691Y-73163553D02*
G01*
X114398926Y-73166703D01*
X114419750Y-73171919D01*
X114439962Y-73179151D01*
X114459368Y-73188330D01*
X114477781Y-73199366D01*
X114495024Y-73212154D01*
X114510930Y-73226570D01*
X114525346Y-73242476D01*
X114538134Y-73259719D01*
X114549170Y-73278132D01*
X114558349Y-73297538D01*
X114565581Y-73317750D01*
X114570797Y-73338574D01*
X114573947Y-73359809D01*
X114575000Y-73381250D01*
X114575000Y-73818750D01*
X114573947Y-73840191D01*
X114570797Y-73861426D01*
X114565581Y-73882250D01*
X114558349Y-73902462D01*
X114549170Y-73921868D01*
X114538134Y-73940281D01*
X114525346Y-73957524D01*
X114510930Y-73973430D01*
X114495024Y-73987846D01*
X114477781Y-74000634D01*
X114459368Y-74011670D01*
X114439962Y-74020849D01*
X114419750Y-74028081D01*
X114398926Y-74033297D01*
X114377691Y-74036447D01*
X114356250Y-74037500D01*
X113843750Y-74037500D01*
X113822309Y-74036447D01*
X113801074Y-74033297D01*
X113780250Y-74028081D01*
X113760038Y-74020849D01*
X113740632Y-74011670D01*
X113722219Y-74000634D01*
X113704976Y-73987846D01*
X113689070Y-73973430D01*
X113674654Y-73957524D01*
X113661866Y-73940281D01*
X113650830Y-73921868D01*
X113641651Y-73902462D01*
X113634419Y-73882250D01*
X113629203Y-73861426D01*
X113626053Y-73840191D01*
X113625000Y-73818750D01*
X113625000Y-73381250D01*
X113626053Y-73359809D01*
X113629203Y-73338574D01*
X113634419Y-73317750D01*
X113641651Y-73297538D01*
X113650830Y-73278132D01*
X113661866Y-73259719D01*
X113674654Y-73242476D01*
X113689070Y-73226570D01*
X113704976Y-73212154D01*
X113722219Y-73199366D01*
X113740632Y-73188330D01*
X113760038Y-73179151D01*
X113780250Y-73171919D01*
X113801074Y-73166703D01*
X113822309Y-73163553D01*
X113843750Y-73162500D01*
X114356250Y-73162500D01*
X114377691Y-73163553D01*
X114377691Y-73163553D01*
G37*
D11*
X114100000Y-73600000D03*
D10*
G36*
X114640191Y-86626053D02*
G01*
X114661426Y-86629203D01*
X114682250Y-86634419D01*
X114702462Y-86641651D01*
X114721868Y-86650830D01*
X114740281Y-86661866D01*
X114757524Y-86674654D01*
X114773430Y-86689070D01*
X114787846Y-86704976D01*
X114800634Y-86722219D01*
X114811670Y-86740632D01*
X114820849Y-86760038D01*
X114828081Y-86780250D01*
X114833297Y-86801074D01*
X114836447Y-86822309D01*
X114837500Y-86843750D01*
X114837500Y-87356250D01*
X114836447Y-87377691D01*
X114833297Y-87398926D01*
X114828081Y-87419750D01*
X114820849Y-87439962D01*
X114811670Y-87459368D01*
X114800634Y-87477781D01*
X114787846Y-87495024D01*
X114773430Y-87510930D01*
X114757524Y-87525346D01*
X114740281Y-87538134D01*
X114721868Y-87549170D01*
X114702462Y-87558349D01*
X114682250Y-87565581D01*
X114661426Y-87570797D01*
X114640191Y-87573947D01*
X114618750Y-87575000D01*
X114181250Y-87575000D01*
X114159809Y-87573947D01*
X114138574Y-87570797D01*
X114117750Y-87565581D01*
X114097538Y-87558349D01*
X114078132Y-87549170D01*
X114059719Y-87538134D01*
X114042476Y-87525346D01*
X114026570Y-87510930D01*
X114012154Y-87495024D01*
X113999366Y-87477781D01*
X113988330Y-87459368D01*
X113979151Y-87439962D01*
X113971919Y-87419750D01*
X113966703Y-87398926D01*
X113963553Y-87377691D01*
X113962500Y-87356250D01*
X113962500Y-86843750D01*
X113963553Y-86822309D01*
X113966703Y-86801074D01*
X113971919Y-86780250D01*
X113979151Y-86760038D01*
X113988330Y-86740632D01*
X113999366Y-86722219D01*
X114012154Y-86704976D01*
X114026570Y-86689070D01*
X114042476Y-86674654D01*
X114059719Y-86661866D01*
X114078132Y-86650830D01*
X114097538Y-86641651D01*
X114117750Y-86634419D01*
X114138574Y-86629203D01*
X114159809Y-86626053D01*
X114181250Y-86625000D01*
X114618750Y-86625000D01*
X114640191Y-86626053D01*
X114640191Y-86626053D01*
G37*
D11*
X114400000Y-87100000D03*
D10*
G36*
X116215191Y-86626053D02*
G01*
X116236426Y-86629203D01*
X116257250Y-86634419D01*
X116277462Y-86641651D01*
X116296868Y-86650830D01*
X116315281Y-86661866D01*
X116332524Y-86674654D01*
X116348430Y-86689070D01*
X116362846Y-86704976D01*
X116375634Y-86722219D01*
X116386670Y-86740632D01*
X116395849Y-86760038D01*
X116403081Y-86780250D01*
X116408297Y-86801074D01*
X116411447Y-86822309D01*
X116412500Y-86843750D01*
X116412500Y-87356250D01*
X116411447Y-87377691D01*
X116408297Y-87398926D01*
X116403081Y-87419750D01*
X116395849Y-87439962D01*
X116386670Y-87459368D01*
X116375634Y-87477781D01*
X116362846Y-87495024D01*
X116348430Y-87510930D01*
X116332524Y-87525346D01*
X116315281Y-87538134D01*
X116296868Y-87549170D01*
X116277462Y-87558349D01*
X116257250Y-87565581D01*
X116236426Y-87570797D01*
X116215191Y-87573947D01*
X116193750Y-87575000D01*
X115756250Y-87575000D01*
X115734809Y-87573947D01*
X115713574Y-87570797D01*
X115692750Y-87565581D01*
X115672538Y-87558349D01*
X115653132Y-87549170D01*
X115634719Y-87538134D01*
X115617476Y-87525346D01*
X115601570Y-87510930D01*
X115587154Y-87495024D01*
X115574366Y-87477781D01*
X115563330Y-87459368D01*
X115554151Y-87439962D01*
X115546919Y-87419750D01*
X115541703Y-87398926D01*
X115538553Y-87377691D01*
X115537500Y-87356250D01*
X115537500Y-86843750D01*
X115538553Y-86822309D01*
X115541703Y-86801074D01*
X115546919Y-86780250D01*
X115554151Y-86760038D01*
X115563330Y-86740632D01*
X115574366Y-86722219D01*
X115587154Y-86704976D01*
X115601570Y-86689070D01*
X115617476Y-86674654D01*
X115634719Y-86661866D01*
X115653132Y-86650830D01*
X115672538Y-86641651D01*
X115692750Y-86634419D01*
X115713574Y-86629203D01*
X115734809Y-86626053D01*
X115756250Y-86625000D01*
X116193750Y-86625000D01*
X116215191Y-86626053D01*
X116215191Y-86626053D01*
G37*
D11*
X115975000Y-87100000D03*
D10*
G36*
X118877691Y-93776053D02*
G01*
X118898926Y-93779203D01*
X118919750Y-93784419D01*
X118939962Y-93791651D01*
X118959368Y-93800830D01*
X118977781Y-93811866D01*
X118995024Y-93824654D01*
X119010930Y-93839070D01*
X119025346Y-93854976D01*
X119038134Y-93872219D01*
X119049170Y-93890632D01*
X119058349Y-93910038D01*
X119065581Y-93930250D01*
X119070797Y-93951074D01*
X119073947Y-93972309D01*
X119075000Y-93993750D01*
X119075000Y-94431250D01*
X119073947Y-94452691D01*
X119070797Y-94473926D01*
X119065581Y-94494750D01*
X119058349Y-94514962D01*
X119049170Y-94534368D01*
X119038134Y-94552781D01*
X119025346Y-94570024D01*
X119010930Y-94585930D01*
X118995024Y-94600346D01*
X118977781Y-94613134D01*
X118959368Y-94624170D01*
X118939962Y-94633349D01*
X118919750Y-94640581D01*
X118898926Y-94645797D01*
X118877691Y-94648947D01*
X118856250Y-94650000D01*
X118343750Y-94650000D01*
X118322309Y-94648947D01*
X118301074Y-94645797D01*
X118280250Y-94640581D01*
X118260038Y-94633349D01*
X118240632Y-94624170D01*
X118222219Y-94613134D01*
X118204976Y-94600346D01*
X118189070Y-94585930D01*
X118174654Y-94570024D01*
X118161866Y-94552781D01*
X118150830Y-94534368D01*
X118141651Y-94514962D01*
X118134419Y-94494750D01*
X118129203Y-94473926D01*
X118126053Y-94452691D01*
X118125000Y-94431250D01*
X118125000Y-93993750D01*
X118126053Y-93972309D01*
X118129203Y-93951074D01*
X118134419Y-93930250D01*
X118141651Y-93910038D01*
X118150830Y-93890632D01*
X118161866Y-93872219D01*
X118174654Y-93854976D01*
X118189070Y-93839070D01*
X118204976Y-93824654D01*
X118222219Y-93811866D01*
X118240632Y-93800830D01*
X118260038Y-93791651D01*
X118280250Y-93784419D01*
X118301074Y-93779203D01*
X118322309Y-93776053D01*
X118343750Y-93775000D01*
X118856250Y-93775000D01*
X118877691Y-93776053D01*
X118877691Y-93776053D01*
G37*
D11*
X118600000Y-94212500D03*
D10*
G36*
X118877691Y-95351053D02*
G01*
X118898926Y-95354203D01*
X118919750Y-95359419D01*
X118939962Y-95366651D01*
X118959368Y-95375830D01*
X118977781Y-95386866D01*
X118995024Y-95399654D01*
X119010930Y-95414070D01*
X119025346Y-95429976D01*
X119038134Y-95447219D01*
X119049170Y-95465632D01*
X119058349Y-95485038D01*
X119065581Y-95505250D01*
X119070797Y-95526074D01*
X119073947Y-95547309D01*
X119075000Y-95568750D01*
X119075000Y-96006250D01*
X119073947Y-96027691D01*
X119070797Y-96048926D01*
X119065581Y-96069750D01*
X119058349Y-96089962D01*
X119049170Y-96109368D01*
X119038134Y-96127781D01*
X119025346Y-96145024D01*
X119010930Y-96160930D01*
X118995024Y-96175346D01*
X118977781Y-96188134D01*
X118959368Y-96199170D01*
X118939962Y-96208349D01*
X118919750Y-96215581D01*
X118898926Y-96220797D01*
X118877691Y-96223947D01*
X118856250Y-96225000D01*
X118343750Y-96225000D01*
X118322309Y-96223947D01*
X118301074Y-96220797D01*
X118280250Y-96215581D01*
X118260038Y-96208349D01*
X118240632Y-96199170D01*
X118222219Y-96188134D01*
X118204976Y-96175346D01*
X118189070Y-96160930D01*
X118174654Y-96145024D01*
X118161866Y-96127781D01*
X118150830Y-96109368D01*
X118141651Y-96089962D01*
X118134419Y-96069750D01*
X118129203Y-96048926D01*
X118126053Y-96027691D01*
X118125000Y-96006250D01*
X118125000Y-95568750D01*
X118126053Y-95547309D01*
X118129203Y-95526074D01*
X118134419Y-95505250D01*
X118141651Y-95485038D01*
X118150830Y-95465632D01*
X118161866Y-95447219D01*
X118174654Y-95429976D01*
X118189070Y-95414070D01*
X118204976Y-95399654D01*
X118222219Y-95386866D01*
X118240632Y-95375830D01*
X118260038Y-95366651D01*
X118280250Y-95359419D01*
X118301074Y-95354203D01*
X118322309Y-95351053D01*
X118343750Y-95350000D01*
X118856250Y-95350000D01*
X118877691Y-95351053D01*
X118877691Y-95351053D01*
G37*
D11*
X118600000Y-95787500D03*
D10*
G36*
X118140191Y-86026053D02*
G01*
X118161426Y-86029203D01*
X118182250Y-86034419D01*
X118202462Y-86041651D01*
X118221868Y-86050830D01*
X118240281Y-86061866D01*
X118257524Y-86074654D01*
X118273430Y-86089070D01*
X118287846Y-86104976D01*
X118300634Y-86122219D01*
X118311670Y-86140632D01*
X118320849Y-86160038D01*
X118328081Y-86180250D01*
X118333297Y-86201074D01*
X118336447Y-86222309D01*
X118337500Y-86243750D01*
X118337500Y-86756250D01*
X118336447Y-86777691D01*
X118333297Y-86798926D01*
X118328081Y-86819750D01*
X118320849Y-86839962D01*
X118311670Y-86859368D01*
X118300634Y-86877781D01*
X118287846Y-86895024D01*
X118273430Y-86910930D01*
X118257524Y-86925346D01*
X118240281Y-86938134D01*
X118221868Y-86949170D01*
X118202462Y-86958349D01*
X118182250Y-86965581D01*
X118161426Y-86970797D01*
X118140191Y-86973947D01*
X118118750Y-86975000D01*
X117681250Y-86975000D01*
X117659809Y-86973947D01*
X117638574Y-86970797D01*
X117617750Y-86965581D01*
X117597538Y-86958349D01*
X117578132Y-86949170D01*
X117559719Y-86938134D01*
X117542476Y-86925346D01*
X117526570Y-86910930D01*
X117512154Y-86895024D01*
X117499366Y-86877781D01*
X117488330Y-86859368D01*
X117479151Y-86839962D01*
X117471919Y-86819750D01*
X117466703Y-86798926D01*
X117463553Y-86777691D01*
X117462500Y-86756250D01*
X117462500Y-86243750D01*
X117463553Y-86222309D01*
X117466703Y-86201074D01*
X117471919Y-86180250D01*
X117479151Y-86160038D01*
X117488330Y-86140632D01*
X117499366Y-86122219D01*
X117512154Y-86104976D01*
X117526570Y-86089070D01*
X117542476Y-86074654D01*
X117559719Y-86061866D01*
X117578132Y-86050830D01*
X117597538Y-86041651D01*
X117617750Y-86034419D01*
X117638574Y-86029203D01*
X117659809Y-86026053D01*
X117681250Y-86025000D01*
X118118750Y-86025000D01*
X118140191Y-86026053D01*
X118140191Y-86026053D01*
G37*
D11*
X117900000Y-86500000D03*
D10*
G36*
X119715191Y-86026053D02*
G01*
X119736426Y-86029203D01*
X119757250Y-86034419D01*
X119777462Y-86041651D01*
X119796868Y-86050830D01*
X119815281Y-86061866D01*
X119832524Y-86074654D01*
X119848430Y-86089070D01*
X119862846Y-86104976D01*
X119875634Y-86122219D01*
X119886670Y-86140632D01*
X119895849Y-86160038D01*
X119903081Y-86180250D01*
X119908297Y-86201074D01*
X119911447Y-86222309D01*
X119912500Y-86243750D01*
X119912500Y-86756250D01*
X119911447Y-86777691D01*
X119908297Y-86798926D01*
X119903081Y-86819750D01*
X119895849Y-86839962D01*
X119886670Y-86859368D01*
X119875634Y-86877781D01*
X119862846Y-86895024D01*
X119848430Y-86910930D01*
X119832524Y-86925346D01*
X119815281Y-86938134D01*
X119796868Y-86949170D01*
X119777462Y-86958349D01*
X119757250Y-86965581D01*
X119736426Y-86970797D01*
X119715191Y-86973947D01*
X119693750Y-86975000D01*
X119256250Y-86975000D01*
X119234809Y-86973947D01*
X119213574Y-86970797D01*
X119192750Y-86965581D01*
X119172538Y-86958349D01*
X119153132Y-86949170D01*
X119134719Y-86938134D01*
X119117476Y-86925346D01*
X119101570Y-86910930D01*
X119087154Y-86895024D01*
X119074366Y-86877781D01*
X119063330Y-86859368D01*
X119054151Y-86839962D01*
X119046919Y-86819750D01*
X119041703Y-86798926D01*
X119038553Y-86777691D01*
X119037500Y-86756250D01*
X119037500Y-86243750D01*
X119038553Y-86222309D01*
X119041703Y-86201074D01*
X119046919Y-86180250D01*
X119054151Y-86160038D01*
X119063330Y-86140632D01*
X119074366Y-86122219D01*
X119087154Y-86104976D01*
X119101570Y-86089070D01*
X119117476Y-86074654D01*
X119134719Y-86061866D01*
X119153132Y-86050830D01*
X119172538Y-86041651D01*
X119192750Y-86034419D01*
X119213574Y-86029203D01*
X119234809Y-86026053D01*
X119256250Y-86025000D01*
X119693750Y-86025000D01*
X119715191Y-86026053D01*
X119715191Y-86026053D01*
G37*
D11*
X119475000Y-86500000D03*
D12*
X115600000Y-102600000D03*
X115600000Y-99300000D03*
M02*
