G04 #@! TF.GenerationSoftware,KiCad,Pcbnew,(5.1.5)-3*
G04 #@! TF.CreationDate,2020-06-09T15:55:59-06:00*
G04 #@! TF.ProjectId,CruiseController,43727569-7365-4436-9f6e-74726f6c6c65,rev?*
G04 #@! TF.SameCoordinates,Original*
G04 #@! TF.FileFunction,Soldermask,Bot*
G04 #@! TF.FilePolarity,Negative*
%FSLAX46Y46*%
G04 Gerber Fmt 4.6, Leading zero omitted, Abs format (unit mm)*
G04 Created by KiCad (PCBNEW (5.1.5)-3) date 2020-06-09 15:55:59*
%MOMM*%
%LPD*%
G04 APERTURE LIST*
%ADD10C,0.100000*%
G04 APERTURE END LIST*
D10*
G36*
X119984734Y-105065156D02*
G01*
X120106568Y-105089390D01*
X120236558Y-105143234D01*
X120297835Y-105168616D01*
X120297836Y-105168617D01*
X120467588Y-105282041D01*
X120469973Y-105283635D01*
X120616365Y-105430027D01*
X120731384Y-105602165D01*
X120756766Y-105663442D01*
X120810610Y-105793432D01*
X120851000Y-105996488D01*
X120851000Y-106203512D01*
X120810610Y-106406568D01*
X120756766Y-106536558D01*
X120731384Y-106597835D01*
X120616365Y-106769973D01*
X120469973Y-106916365D01*
X120297835Y-107031384D01*
X120236558Y-107056766D01*
X120106568Y-107110610D01*
X119984734Y-107134844D01*
X119903514Y-107151000D01*
X119696486Y-107151000D01*
X119615266Y-107134844D01*
X119493432Y-107110610D01*
X119363442Y-107056766D01*
X119302165Y-107031384D01*
X119130027Y-106916365D01*
X118983635Y-106769973D01*
X118868616Y-106597835D01*
X118843234Y-106536558D01*
X118789390Y-106406568D01*
X118749000Y-106203512D01*
X118749000Y-105996488D01*
X118789390Y-105793432D01*
X118843234Y-105663442D01*
X118868616Y-105602165D01*
X118983635Y-105430027D01*
X119130027Y-105283635D01*
X119132413Y-105282041D01*
X119302164Y-105168617D01*
X119302165Y-105168616D01*
X119363442Y-105143234D01*
X119493432Y-105089390D01*
X119615266Y-105065156D01*
X119696486Y-105049000D01*
X119903514Y-105049000D01*
X119984734Y-105065156D01*
G37*
G36*
X106481579Y-102912447D02*
G01*
X106782042Y-103036903D01*
X107052451Y-103217585D01*
X107282415Y-103447549D01*
X107463097Y-103717958D01*
X107587553Y-104018421D01*
X107651000Y-104337391D01*
X107651000Y-104662609D01*
X107587553Y-104981579D01*
X107463097Y-105282042D01*
X107282415Y-105552451D01*
X107052451Y-105782415D01*
X106782042Y-105963097D01*
X106481579Y-106087553D01*
X106162609Y-106151000D01*
X105837391Y-106151000D01*
X105518421Y-106087553D01*
X105217958Y-105963097D01*
X104947549Y-105782415D01*
X104717585Y-105552451D01*
X104536903Y-105282042D01*
X104412447Y-104981579D01*
X104349000Y-104662609D01*
X104349000Y-104337391D01*
X104412447Y-104018421D01*
X104536903Y-103717958D01*
X104717585Y-103447549D01*
X104947549Y-103217585D01*
X105217958Y-103036903D01*
X105518421Y-102912447D01*
X105837391Y-102849000D01*
X106162609Y-102849000D01*
X106481579Y-102912447D01*
G37*
G36*
X109657052Y-104678207D02*
G01*
X109693398Y-104689232D01*
X109726901Y-104707140D01*
X109756263Y-104731237D01*
X109780360Y-104760599D01*
X109798268Y-104794102D01*
X109809293Y-104830448D01*
X109813500Y-104873158D01*
X109813500Y-105526842D01*
X109809293Y-105569552D01*
X109798268Y-105605898D01*
X109780360Y-105639401D01*
X109756263Y-105668763D01*
X109726901Y-105692860D01*
X109693398Y-105710768D01*
X109657052Y-105721793D01*
X109614342Y-105726000D01*
X109035658Y-105726000D01*
X108992948Y-105721793D01*
X108956602Y-105710768D01*
X108923099Y-105692860D01*
X108893737Y-105668763D01*
X108869640Y-105639401D01*
X108851732Y-105605898D01*
X108840707Y-105569552D01*
X108836500Y-105526842D01*
X108836500Y-104873158D01*
X108840707Y-104830448D01*
X108851732Y-104794102D01*
X108869640Y-104760599D01*
X108893737Y-104731237D01*
X108923099Y-104707140D01*
X108956602Y-104689232D01*
X108992948Y-104678207D01*
X109035658Y-104674000D01*
X109614342Y-104674000D01*
X109657052Y-104678207D01*
G37*
G36*
X111232052Y-104678207D02*
G01*
X111268398Y-104689232D01*
X111301901Y-104707140D01*
X111331263Y-104731237D01*
X111355360Y-104760599D01*
X111373268Y-104794102D01*
X111384293Y-104830448D01*
X111388500Y-104873158D01*
X111388500Y-105526842D01*
X111384293Y-105569552D01*
X111373268Y-105605898D01*
X111355360Y-105639401D01*
X111331263Y-105668763D01*
X111301901Y-105692860D01*
X111268398Y-105710768D01*
X111232052Y-105721793D01*
X111189342Y-105726000D01*
X110610658Y-105726000D01*
X110567948Y-105721793D01*
X110531602Y-105710768D01*
X110498099Y-105692860D01*
X110468737Y-105668763D01*
X110444640Y-105639401D01*
X110426732Y-105605898D01*
X110415707Y-105569552D01*
X110411500Y-105526842D01*
X110411500Y-104873158D01*
X110415707Y-104830448D01*
X110426732Y-104794102D01*
X110444640Y-104760599D01*
X110468737Y-104731237D01*
X110498099Y-104707140D01*
X110531602Y-104689232D01*
X110567948Y-104678207D01*
X110610658Y-104674000D01*
X111189342Y-104674000D01*
X111232052Y-104678207D01*
G37*
G36*
X115957052Y-103778207D02*
G01*
X115993398Y-103789232D01*
X116026901Y-103807140D01*
X116056263Y-103831237D01*
X116080360Y-103860599D01*
X116098268Y-103894102D01*
X116109293Y-103930448D01*
X116113500Y-103973158D01*
X116113500Y-104626842D01*
X116109293Y-104669552D01*
X116098268Y-104705898D01*
X116080360Y-104739401D01*
X116056263Y-104768763D01*
X116026901Y-104792860D01*
X115993398Y-104810768D01*
X115957052Y-104821793D01*
X115914342Y-104826000D01*
X115335658Y-104826000D01*
X115292948Y-104821793D01*
X115256602Y-104810768D01*
X115223099Y-104792860D01*
X115193737Y-104768763D01*
X115169640Y-104739401D01*
X115151732Y-104705898D01*
X115140707Y-104669552D01*
X115136500Y-104626842D01*
X115136500Y-103973158D01*
X115140707Y-103930448D01*
X115151732Y-103894102D01*
X115169640Y-103860599D01*
X115193737Y-103831237D01*
X115223099Y-103807140D01*
X115256602Y-103789232D01*
X115292948Y-103778207D01*
X115335658Y-103774000D01*
X115914342Y-103774000D01*
X115957052Y-103778207D01*
G37*
G36*
X117532052Y-103778207D02*
G01*
X117568398Y-103789232D01*
X117601901Y-103807140D01*
X117631263Y-103831237D01*
X117655360Y-103860599D01*
X117673268Y-103894102D01*
X117684293Y-103930448D01*
X117688500Y-103973158D01*
X117688500Y-104626842D01*
X117684293Y-104669552D01*
X117673268Y-104705898D01*
X117655360Y-104739401D01*
X117631263Y-104768763D01*
X117601901Y-104792860D01*
X117568398Y-104810768D01*
X117532052Y-104821793D01*
X117489342Y-104826000D01*
X116910658Y-104826000D01*
X116867948Y-104821793D01*
X116831602Y-104810768D01*
X116798099Y-104792860D01*
X116768737Y-104768763D01*
X116744640Y-104739401D01*
X116726732Y-104705898D01*
X116715707Y-104669552D01*
X116711500Y-104626842D01*
X116711500Y-103973158D01*
X116715707Y-103930448D01*
X116726732Y-103894102D01*
X116744640Y-103860599D01*
X116768737Y-103831237D01*
X116798099Y-103807140D01*
X116831602Y-103789232D01*
X116867948Y-103778207D01*
X116910658Y-103774000D01*
X117489342Y-103774000D01*
X117532052Y-103778207D01*
G37*
G36*
X109806554Y-102378518D02*
G01*
X109845931Y-102390463D01*
X109882226Y-102409863D01*
X109914033Y-102435967D01*
X109940137Y-102467774D01*
X109959537Y-102504069D01*
X109971482Y-102543446D01*
X109976000Y-102589317D01*
X109976000Y-104010683D01*
X109971482Y-104056554D01*
X109959537Y-104095931D01*
X109940137Y-104132226D01*
X109914033Y-104164033D01*
X109882226Y-104190137D01*
X109845931Y-104209537D01*
X109806554Y-104221482D01*
X109760683Y-104226000D01*
X108839317Y-104226000D01*
X108793446Y-104221482D01*
X108754069Y-104209537D01*
X108717774Y-104190137D01*
X108685967Y-104164033D01*
X108659863Y-104132226D01*
X108640463Y-104095931D01*
X108628518Y-104056554D01*
X108624000Y-104010683D01*
X108624000Y-102589317D01*
X108628518Y-102543446D01*
X108640463Y-102504069D01*
X108659863Y-102467774D01*
X108685967Y-102435967D01*
X108717774Y-102409863D01*
X108754069Y-102390463D01*
X108793446Y-102378518D01*
X108839317Y-102374000D01*
X109760683Y-102374000D01*
X109806554Y-102378518D01*
G37*
G36*
X112606554Y-102378518D02*
G01*
X112645931Y-102390463D01*
X112682226Y-102409863D01*
X112714033Y-102435967D01*
X112740137Y-102467774D01*
X112759537Y-102504069D01*
X112771482Y-102543446D01*
X112776000Y-102589317D01*
X112776000Y-104010683D01*
X112771482Y-104056554D01*
X112759537Y-104095931D01*
X112740137Y-104132226D01*
X112714033Y-104164033D01*
X112682226Y-104190137D01*
X112645931Y-104209537D01*
X112606554Y-104221482D01*
X112560683Y-104226000D01*
X111639317Y-104226000D01*
X111593446Y-104221482D01*
X111554069Y-104209537D01*
X111517774Y-104190137D01*
X111485967Y-104164033D01*
X111459863Y-104132226D01*
X111440463Y-104095931D01*
X111428518Y-104056554D01*
X111424000Y-104010683D01*
X111424000Y-102589317D01*
X111428518Y-102543446D01*
X111440463Y-102504069D01*
X111459863Y-102467774D01*
X111485967Y-102435967D01*
X111517774Y-102409863D01*
X111554069Y-102390463D01*
X111593446Y-102378518D01*
X111639317Y-102374000D01*
X112560683Y-102374000D01*
X112606554Y-102378518D01*
G37*
G36*
X121419552Y-103078207D02*
G01*
X121455898Y-103089232D01*
X121489401Y-103107140D01*
X121518763Y-103131237D01*
X121542860Y-103160599D01*
X121560768Y-103194102D01*
X121571793Y-103230448D01*
X121576000Y-103273158D01*
X121576000Y-103926842D01*
X121571793Y-103969552D01*
X121560768Y-104005898D01*
X121542860Y-104039401D01*
X121518763Y-104068763D01*
X121489401Y-104092860D01*
X121455898Y-104110768D01*
X121419552Y-104121793D01*
X121376842Y-104126000D01*
X120798158Y-104126000D01*
X120755448Y-104121793D01*
X120719102Y-104110768D01*
X120685599Y-104092860D01*
X120656237Y-104068763D01*
X120632140Y-104039401D01*
X120614232Y-104005898D01*
X120603207Y-103969552D01*
X120599000Y-103926842D01*
X120599000Y-103273158D01*
X120603207Y-103230448D01*
X120614232Y-103194102D01*
X120632140Y-103160599D01*
X120656237Y-103131237D01*
X120685599Y-103107140D01*
X120719102Y-103089232D01*
X120755448Y-103078207D01*
X120798158Y-103074000D01*
X121376842Y-103074000D01*
X121419552Y-103078207D01*
G37*
G36*
X119844552Y-103078207D02*
G01*
X119880898Y-103089232D01*
X119914401Y-103107140D01*
X119943763Y-103131237D01*
X119967860Y-103160599D01*
X119985768Y-103194102D01*
X119996793Y-103230448D01*
X120001000Y-103273158D01*
X120001000Y-103926842D01*
X119996793Y-103969552D01*
X119985768Y-104005898D01*
X119967860Y-104039401D01*
X119943763Y-104068763D01*
X119914401Y-104092860D01*
X119880898Y-104110768D01*
X119844552Y-104121793D01*
X119801842Y-104126000D01*
X119223158Y-104126000D01*
X119180448Y-104121793D01*
X119144102Y-104110768D01*
X119110599Y-104092860D01*
X119081237Y-104068763D01*
X119057140Y-104039401D01*
X119039232Y-104005898D01*
X119028207Y-103969552D01*
X119024000Y-103926842D01*
X119024000Y-103273158D01*
X119028207Y-103230448D01*
X119039232Y-103194102D01*
X119057140Y-103160599D01*
X119081237Y-103131237D01*
X119110599Y-103107140D01*
X119144102Y-103089232D01*
X119180448Y-103078207D01*
X119223158Y-103074000D01*
X119801842Y-103074000D01*
X119844552Y-103078207D01*
G37*
G36*
X114169552Y-102790707D02*
G01*
X114205898Y-102801732D01*
X114239401Y-102819640D01*
X114268763Y-102843737D01*
X114292860Y-102873099D01*
X114310768Y-102906602D01*
X114321793Y-102942948D01*
X114326000Y-102985658D01*
X114326000Y-103564342D01*
X114321793Y-103607052D01*
X114310768Y-103643398D01*
X114292860Y-103676901D01*
X114268763Y-103706263D01*
X114239401Y-103730360D01*
X114205898Y-103748268D01*
X114169552Y-103759293D01*
X114126842Y-103763500D01*
X113473158Y-103763500D01*
X113430448Y-103759293D01*
X113394102Y-103748268D01*
X113360599Y-103730360D01*
X113331237Y-103706263D01*
X113307140Y-103676901D01*
X113289232Y-103643398D01*
X113278207Y-103607052D01*
X113274000Y-103564342D01*
X113274000Y-102985658D01*
X113278207Y-102942948D01*
X113289232Y-102906602D01*
X113307140Y-102873099D01*
X113331237Y-102843737D01*
X113360599Y-102819640D01*
X113394102Y-102801732D01*
X113430448Y-102790707D01*
X113473158Y-102786500D01*
X114126842Y-102786500D01*
X114169552Y-102790707D01*
G37*
G36*
X115944552Y-102378207D02*
G01*
X115980898Y-102389232D01*
X116014401Y-102407140D01*
X116043763Y-102431237D01*
X116067860Y-102460599D01*
X116085768Y-102494102D01*
X116096793Y-102530448D01*
X116101000Y-102573158D01*
X116101000Y-103226842D01*
X116096793Y-103269552D01*
X116085768Y-103305898D01*
X116067860Y-103339401D01*
X116043763Y-103368763D01*
X116014401Y-103392860D01*
X115980898Y-103410768D01*
X115944552Y-103421793D01*
X115901842Y-103426000D01*
X115323158Y-103426000D01*
X115280448Y-103421793D01*
X115244102Y-103410768D01*
X115210599Y-103392860D01*
X115181237Y-103368763D01*
X115157140Y-103339401D01*
X115139232Y-103305898D01*
X115128207Y-103269552D01*
X115124000Y-103226842D01*
X115124000Y-102573158D01*
X115128207Y-102530448D01*
X115139232Y-102494102D01*
X115157140Y-102460599D01*
X115181237Y-102431237D01*
X115210599Y-102407140D01*
X115244102Y-102389232D01*
X115280448Y-102378207D01*
X115323158Y-102374000D01*
X115901842Y-102374000D01*
X115944552Y-102378207D01*
G37*
G36*
X117519552Y-102378207D02*
G01*
X117555898Y-102389232D01*
X117589401Y-102407140D01*
X117618763Y-102431237D01*
X117642860Y-102460599D01*
X117660768Y-102494102D01*
X117671793Y-102530448D01*
X117676000Y-102573158D01*
X117676000Y-103226842D01*
X117671793Y-103269552D01*
X117660768Y-103305898D01*
X117642860Y-103339401D01*
X117618763Y-103368763D01*
X117589401Y-103392860D01*
X117555898Y-103410768D01*
X117519552Y-103421793D01*
X117476842Y-103426000D01*
X116898158Y-103426000D01*
X116855448Y-103421793D01*
X116819102Y-103410768D01*
X116785599Y-103392860D01*
X116756237Y-103368763D01*
X116732140Y-103339401D01*
X116714232Y-103305898D01*
X116703207Y-103269552D01*
X116699000Y-103226842D01*
X116699000Y-102573158D01*
X116703207Y-102530448D01*
X116714232Y-102494102D01*
X116732140Y-102460599D01*
X116756237Y-102431237D01*
X116785599Y-102407140D01*
X116819102Y-102389232D01*
X116855448Y-102378207D01*
X116898158Y-102374000D01*
X117476842Y-102374000D01*
X117519552Y-102378207D01*
G37*
G36*
X121419552Y-101678207D02*
G01*
X121455898Y-101689232D01*
X121489401Y-101707140D01*
X121518763Y-101731237D01*
X121542860Y-101760599D01*
X121560768Y-101794102D01*
X121571793Y-101830448D01*
X121576000Y-101873158D01*
X121576000Y-102526842D01*
X121571793Y-102569552D01*
X121560768Y-102605898D01*
X121542860Y-102639401D01*
X121518763Y-102668763D01*
X121489401Y-102692860D01*
X121455898Y-102710768D01*
X121419552Y-102721793D01*
X121376842Y-102726000D01*
X120798158Y-102726000D01*
X120755448Y-102721793D01*
X120719102Y-102710768D01*
X120685599Y-102692860D01*
X120656237Y-102668763D01*
X120632140Y-102639401D01*
X120614232Y-102605898D01*
X120603207Y-102569552D01*
X120599000Y-102526842D01*
X120599000Y-101873158D01*
X120603207Y-101830448D01*
X120614232Y-101794102D01*
X120632140Y-101760599D01*
X120656237Y-101731237D01*
X120685599Y-101707140D01*
X120719102Y-101689232D01*
X120755448Y-101678207D01*
X120798158Y-101674000D01*
X121376842Y-101674000D01*
X121419552Y-101678207D01*
G37*
G36*
X119844552Y-101678207D02*
G01*
X119880898Y-101689232D01*
X119914401Y-101707140D01*
X119943763Y-101731237D01*
X119967860Y-101760599D01*
X119985768Y-101794102D01*
X119996793Y-101830448D01*
X120001000Y-101873158D01*
X120001000Y-102526842D01*
X119996793Y-102569552D01*
X119985768Y-102605898D01*
X119967860Y-102639401D01*
X119943763Y-102668763D01*
X119914401Y-102692860D01*
X119880898Y-102710768D01*
X119844552Y-102721793D01*
X119801842Y-102726000D01*
X119223158Y-102726000D01*
X119180448Y-102721793D01*
X119144102Y-102710768D01*
X119110599Y-102692860D01*
X119081237Y-102668763D01*
X119057140Y-102639401D01*
X119039232Y-102605898D01*
X119028207Y-102569552D01*
X119024000Y-102526842D01*
X119024000Y-101873158D01*
X119028207Y-101830448D01*
X119039232Y-101794102D01*
X119057140Y-101760599D01*
X119081237Y-101731237D01*
X119110599Y-101707140D01*
X119144102Y-101689232D01*
X119180448Y-101678207D01*
X119223158Y-101674000D01*
X119801842Y-101674000D01*
X119844552Y-101678207D01*
G37*
G36*
X114169552Y-101215707D02*
G01*
X114205898Y-101226732D01*
X114239401Y-101244640D01*
X114268763Y-101268737D01*
X114292860Y-101298099D01*
X114310768Y-101331602D01*
X114321793Y-101367948D01*
X114326000Y-101410658D01*
X114326000Y-101989342D01*
X114321793Y-102032052D01*
X114310768Y-102068398D01*
X114292860Y-102101901D01*
X114268763Y-102131263D01*
X114239401Y-102155360D01*
X114205898Y-102173268D01*
X114169552Y-102184293D01*
X114126842Y-102188500D01*
X113473158Y-102188500D01*
X113430448Y-102184293D01*
X113394102Y-102173268D01*
X113360599Y-102155360D01*
X113331237Y-102131263D01*
X113307140Y-102101901D01*
X113289232Y-102068398D01*
X113278207Y-102032052D01*
X113274000Y-101989342D01*
X113274000Y-101410658D01*
X113278207Y-101367948D01*
X113289232Y-101331602D01*
X113307140Y-101298099D01*
X113331237Y-101268737D01*
X113360599Y-101244640D01*
X113394102Y-101226732D01*
X113430448Y-101215707D01*
X113473158Y-101211500D01*
X114126842Y-101211500D01*
X114169552Y-101215707D01*
G37*
G36*
X117507052Y-100978207D02*
G01*
X117543398Y-100989232D01*
X117576901Y-101007140D01*
X117606263Y-101031237D01*
X117630360Y-101060599D01*
X117648268Y-101094102D01*
X117659293Y-101130448D01*
X117663500Y-101173158D01*
X117663500Y-101826842D01*
X117659293Y-101869552D01*
X117648268Y-101905898D01*
X117630360Y-101939401D01*
X117606263Y-101968763D01*
X117576901Y-101992860D01*
X117543398Y-102010768D01*
X117507052Y-102021793D01*
X117464342Y-102026000D01*
X116885658Y-102026000D01*
X116842948Y-102021793D01*
X116806602Y-102010768D01*
X116773099Y-101992860D01*
X116743737Y-101968763D01*
X116719640Y-101939401D01*
X116701732Y-101905898D01*
X116690707Y-101869552D01*
X116686500Y-101826842D01*
X116686500Y-101173158D01*
X116690707Y-101130448D01*
X116701732Y-101094102D01*
X116719640Y-101060599D01*
X116743737Y-101031237D01*
X116773099Y-101007140D01*
X116806602Y-100989232D01*
X116842948Y-100978207D01*
X116885658Y-100974000D01*
X117464342Y-100974000D01*
X117507052Y-100978207D01*
G37*
G36*
X115932052Y-100978207D02*
G01*
X115968398Y-100989232D01*
X116001901Y-101007140D01*
X116031263Y-101031237D01*
X116055360Y-101060599D01*
X116073268Y-101094102D01*
X116084293Y-101130448D01*
X116088500Y-101173158D01*
X116088500Y-101826842D01*
X116084293Y-101869552D01*
X116073268Y-101905898D01*
X116055360Y-101939401D01*
X116031263Y-101968763D01*
X116001901Y-101992860D01*
X115968398Y-102010768D01*
X115932052Y-102021793D01*
X115889342Y-102026000D01*
X115310658Y-102026000D01*
X115267948Y-102021793D01*
X115231602Y-102010768D01*
X115198099Y-101992860D01*
X115168737Y-101968763D01*
X115144640Y-101939401D01*
X115126732Y-101905898D01*
X115115707Y-101869552D01*
X115111500Y-101826842D01*
X115111500Y-101173158D01*
X115115707Y-101130448D01*
X115126732Y-101094102D01*
X115144640Y-101060599D01*
X115168737Y-101031237D01*
X115198099Y-101007140D01*
X115231602Y-100989232D01*
X115267948Y-100978207D01*
X115310658Y-100974000D01*
X115889342Y-100974000D01*
X115932052Y-100978207D01*
G37*
G36*
X107751000Y-101751000D02*
G01*
X106749000Y-101751000D01*
X106749000Y-100449000D01*
X107751000Y-100449000D01*
X107751000Y-101751000D01*
G37*
G36*
X111051000Y-101751000D02*
G01*
X110049000Y-101751000D01*
X110049000Y-100449000D01*
X111051000Y-100449000D01*
X111051000Y-101751000D01*
G37*
G36*
X105386932Y-100053688D02*
G01*
X105427969Y-100066136D01*
X105465788Y-100086351D01*
X105498941Y-100113559D01*
X105526149Y-100146712D01*
X105546364Y-100184531D01*
X105558812Y-100225568D01*
X105563500Y-100273167D01*
X105563500Y-101326833D01*
X105558812Y-101374432D01*
X105546364Y-101415469D01*
X105526149Y-101453288D01*
X105498941Y-101486441D01*
X105465788Y-101513649D01*
X105427969Y-101533864D01*
X105386932Y-101546312D01*
X105339333Y-101551000D01*
X104710667Y-101551000D01*
X104663068Y-101546312D01*
X104622031Y-101533864D01*
X104584212Y-101513649D01*
X104551059Y-101486441D01*
X104523851Y-101453288D01*
X104503636Y-101415469D01*
X104491188Y-101374432D01*
X104486500Y-101326833D01*
X104486500Y-100273167D01*
X104491188Y-100225568D01*
X104503636Y-100184531D01*
X104523851Y-100146712D01*
X104551059Y-100113559D01*
X104584212Y-100086351D01*
X104622031Y-100066136D01*
X104663068Y-100053688D01*
X104710667Y-100049000D01*
X105339333Y-100049000D01*
X105386932Y-100053688D01*
G37*
G36*
X103511932Y-100053688D02*
G01*
X103552969Y-100066136D01*
X103590788Y-100086351D01*
X103623941Y-100113559D01*
X103651149Y-100146712D01*
X103671364Y-100184531D01*
X103683812Y-100225568D01*
X103688500Y-100273167D01*
X103688500Y-101326833D01*
X103683812Y-101374432D01*
X103671364Y-101415469D01*
X103651149Y-101453288D01*
X103623941Y-101486441D01*
X103590788Y-101513649D01*
X103552969Y-101533864D01*
X103511932Y-101546312D01*
X103464333Y-101551000D01*
X102835667Y-101551000D01*
X102788068Y-101546312D01*
X102747031Y-101533864D01*
X102709212Y-101513649D01*
X102676059Y-101486441D01*
X102648851Y-101453288D01*
X102628636Y-101415469D01*
X102616188Y-101374432D01*
X102611500Y-101326833D01*
X102611500Y-100273167D01*
X102616188Y-100225568D01*
X102628636Y-100184531D01*
X102648851Y-100146712D01*
X102676059Y-100113559D01*
X102709212Y-100086351D01*
X102747031Y-100066136D01*
X102788068Y-100053688D01*
X102835667Y-100049000D01*
X103464333Y-100049000D01*
X103511932Y-100053688D01*
G37*
G36*
X107628324Y-98157853D02*
G01*
X107748228Y-98181703D01*
X107903100Y-98245853D01*
X108042481Y-98338985D01*
X108161015Y-98457519D01*
X108254147Y-98596900D01*
X108318297Y-98751772D01*
X108328982Y-98805491D01*
X108343743Y-98879697D01*
X108351000Y-98916184D01*
X108351000Y-99083816D01*
X108318297Y-99248228D01*
X108254147Y-99403100D01*
X108161015Y-99542481D01*
X108042481Y-99661015D01*
X107903100Y-99754147D01*
X107748228Y-99818297D01*
X107649581Y-99837919D01*
X107583818Y-99851000D01*
X107416182Y-99851000D01*
X107350419Y-99837919D01*
X107251772Y-99818297D01*
X107096900Y-99754147D01*
X106957519Y-99661015D01*
X106838985Y-99542481D01*
X106745853Y-99403100D01*
X106681703Y-99248228D01*
X106649000Y-99083816D01*
X106649000Y-98916184D01*
X106656258Y-98879697D01*
X106671018Y-98805491D01*
X106681703Y-98751772D01*
X106745853Y-98596900D01*
X106838985Y-98457519D01*
X106957519Y-98338985D01*
X107096900Y-98245853D01*
X107251772Y-98181703D01*
X107371676Y-98157853D01*
X107416182Y-98149000D01*
X107583818Y-98149000D01*
X107628324Y-98157853D01*
G37*
G36*
X110628324Y-98157853D02*
G01*
X110748228Y-98181703D01*
X110903100Y-98245853D01*
X111042481Y-98338985D01*
X111161015Y-98457519D01*
X111254147Y-98596900D01*
X111318297Y-98751772D01*
X111328982Y-98805491D01*
X111343743Y-98879697D01*
X111351000Y-98916184D01*
X111351000Y-99083816D01*
X111318297Y-99248228D01*
X111254147Y-99403100D01*
X111161015Y-99542481D01*
X111042481Y-99661015D01*
X110903100Y-99754147D01*
X110748228Y-99818297D01*
X110649581Y-99837919D01*
X110583818Y-99851000D01*
X110416182Y-99851000D01*
X110350419Y-99837919D01*
X110251772Y-99818297D01*
X110096900Y-99754147D01*
X109957519Y-99661015D01*
X109838985Y-99542481D01*
X109745853Y-99403100D01*
X109681703Y-99248228D01*
X109649000Y-99083816D01*
X109649000Y-98916184D01*
X109656258Y-98879697D01*
X109671018Y-98805491D01*
X109681703Y-98751772D01*
X109745853Y-98596900D01*
X109838985Y-98457519D01*
X109957519Y-98338985D01*
X110096900Y-98245853D01*
X110251772Y-98181703D01*
X110371676Y-98157853D01*
X110416182Y-98149000D01*
X110583818Y-98149000D01*
X110628324Y-98157853D01*
G37*
G36*
X115305444Y-95729520D02*
G01*
X115315220Y-95730000D01*
X115510000Y-95730000D01*
X115510000Y-96520315D01*
X115506961Y-96551167D01*
X115506960Y-96551169D01*
X115506960Y-96551170D01*
X115497057Y-96583818D01*
X115494953Y-96590752D01*
X115475453Y-96627234D01*
X115449211Y-96659211D01*
X115449202Y-96659219D01*
X115448100Y-96660561D01*
X115437209Y-96676861D01*
X115429707Y-96694972D01*
X115425883Y-96714198D01*
X115425882Y-96733801D01*
X115429707Y-96753028D01*
X115437208Y-96771139D01*
X115448099Y-96787439D01*
X115461960Y-96801301D01*
X115478260Y-96812192D01*
X115496371Y-96819694D01*
X115515597Y-96823518D01*
X115525400Y-96824000D01*
X115551000Y-96824000D01*
X115551000Y-97159001D01*
X115552921Y-97178510D01*
X115558612Y-97197269D01*
X115567853Y-97214557D01*
X115580289Y-97229711D01*
X115595443Y-97242147D01*
X115612731Y-97251388D01*
X115631490Y-97257079D01*
X115650999Y-97259000D01*
X116251000Y-97259000D01*
X116251000Y-98141000D01*
X115650999Y-98141000D01*
X115631490Y-98142921D01*
X115612731Y-98148612D01*
X115595443Y-98157853D01*
X115580289Y-98170289D01*
X115567853Y-98185443D01*
X115558612Y-98202731D01*
X115552921Y-98221490D01*
X115551000Y-98240999D01*
X115551000Y-98576000D01*
X115525400Y-98576000D01*
X115505891Y-98577921D01*
X115487132Y-98583612D01*
X115469844Y-98592853D01*
X115454690Y-98605289D01*
X115442254Y-98620443D01*
X115433013Y-98637731D01*
X115427322Y-98656490D01*
X115425401Y-98675999D01*
X115427322Y-98695508D01*
X115433013Y-98714267D01*
X115442254Y-98731555D01*
X115448100Y-98739439D01*
X115449202Y-98740781D01*
X115449211Y-98740789D01*
X115475453Y-98772766D01*
X115494953Y-98809248D01*
X115506961Y-98848833D01*
X115510000Y-98879685D01*
X115510000Y-99670000D01*
X115315220Y-99670000D01*
X115305443Y-99670480D01*
X115300000Y-99671016D01*
X115294556Y-99670480D01*
X115284780Y-99670000D01*
X114815220Y-99670000D01*
X114805443Y-99670480D01*
X114800000Y-99671016D01*
X114794556Y-99670480D01*
X114784780Y-99670000D01*
X114315220Y-99670000D01*
X114305443Y-99670480D01*
X114300000Y-99671016D01*
X114294556Y-99670480D01*
X114284780Y-99670000D01*
X113815220Y-99670000D01*
X113805443Y-99670480D01*
X113800000Y-99671016D01*
X113794556Y-99670480D01*
X113784780Y-99670000D01*
X113315220Y-99670000D01*
X113305443Y-99670480D01*
X113300000Y-99671016D01*
X113294556Y-99670480D01*
X113284780Y-99670000D01*
X113090000Y-99670000D01*
X113090000Y-99150011D01*
X113090001Y-99150001D01*
X113090001Y-98879685D01*
X113093040Y-98848833D01*
X113105048Y-98809248D01*
X113124548Y-98772766D01*
X113150790Y-98740789D01*
X113150799Y-98740781D01*
X113151901Y-98739439D01*
X113162792Y-98723139D01*
X113170294Y-98705028D01*
X113174118Y-98685802D01*
X113174118Y-98675999D01*
X113425401Y-98675999D01*
X113427322Y-98695508D01*
X113433013Y-98714267D01*
X113442254Y-98731555D01*
X113448100Y-98739438D01*
X113449204Y-98740783D01*
X113449211Y-98740789D01*
X113472708Y-98769421D01*
X113486562Y-98783274D01*
X113502861Y-98794165D01*
X113520972Y-98801667D01*
X113540199Y-98805492D01*
X113559802Y-98805491D01*
X113579028Y-98801667D01*
X113597139Y-98794165D01*
X113613439Y-98783274D01*
X113627300Y-98769413D01*
X113650790Y-98740789D01*
X113650796Y-98740784D01*
X113651900Y-98739439D01*
X113662791Y-98723140D01*
X113670293Y-98705029D01*
X113674118Y-98685803D01*
X113674118Y-98675999D01*
X113925401Y-98675999D01*
X113927322Y-98695508D01*
X113933013Y-98714267D01*
X113942254Y-98731555D01*
X113948100Y-98739438D01*
X113949204Y-98740783D01*
X113949211Y-98740789D01*
X113972708Y-98769421D01*
X113986562Y-98783274D01*
X114002861Y-98794165D01*
X114020972Y-98801667D01*
X114040199Y-98805492D01*
X114059802Y-98805491D01*
X114079028Y-98801667D01*
X114097139Y-98794165D01*
X114113439Y-98783274D01*
X114127300Y-98769413D01*
X114150790Y-98740789D01*
X114150796Y-98740784D01*
X114151900Y-98739439D01*
X114162791Y-98723140D01*
X114170293Y-98705029D01*
X114174118Y-98685803D01*
X114174118Y-98675999D01*
X114425401Y-98675999D01*
X114427322Y-98695508D01*
X114433013Y-98714267D01*
X114442254Y-98731555D01*
X114448100Y-98739438D01*
X114449204Y-98740783D01*
X114449211Y-98740789D01*
X114472708Y-98769421D01*
X114486562Y-98783274D01*
X114502861Y-98794165D01*
X114520972Y-98801667D01*
X114540199Y-98805492D01*
X114559802Y-98805491D01*
X114579028Y-98801667D01*
X114597139Y-98794165D01*
X114613439Y-98783274D01*
X114627300Y-98769413D01*
X114650790Y-98740789D01*
X114650796Y-98740784D01*
X114651900Y-98739439D01*
X114662791Y-98723140D01*
X114670293Y-98705029D01*
X114674118Y-98685803D01*
X114674118Y-98675999D01*
X114925401Y-98675999D01*
X114927322Y-98695508D01*
X114933013Y-98714267D01*
X114942254Y-98731555D01*
X114948100Y-98739438D01*
X114949204Y-98740783D01*
X114949211Y-98740789D01*
X114972708Y-98769421D01*
X114986562Y-98783274D01*
X115002861Y-98794165D01*
X115020972Y-98801667D01*
X115040199Y-98805492D01*
X115059802Y-98805491D01*
X115079028Y-98801667D01*
X115097139Y-98794165D01*
X115113439Y-98783274D01*
X115127300Y-98769413D01*
X115150790Y-98740789D01*
X115150796Y-98740784D01*
X115151900Y-98739439D01*
X115162791Y-98723140D01*
X115170293Y-98705029D01*
X115174118Y-98685803D01*
X115174119Y-98666200D01*
X115170295Y-98646973D01*
X115162793Y-98628862D01*
X115151903Y-98612562D01*
X115138041Y-98598700D01*
X115121742Y-98587809D01*
X115103631Y-98580307D01*
X115084405Y-98576482D01*
X115074601Y-98576000D01*
X115025400Y-98576000D01*
X115005891Y-98577921D01*
X114987132Y-98583612D01*
X114969844Y-98592853D01*
X114954690Y-98605289D01*
X114942254Y-98620443D01*
X114933013Y-98637731D01*
X114927322Y-98656490D01*
X114925401Y-98675999D01*
X114674118Y-98675999D01*
X114674119Y-98666200D01*
X114670295Y-98646973D01*
X114662793Y-98628862D01*
X114651903Y-98612562D01*
X114638041Y-98598700D01*
X114621742Y-98587809D01*
X114603631Y-98580307D01*
X114584405Y-98576482D01*
X114574601Y-98576000D01*
X114525400Y-98576000D01*
X114505891Y-98577921D01*
X114487132Y-98583612D01*
X114469844Y-98592853D01*
X114454690Y-98605289D01*
X114442254Y-98620443D01*
X114433013Y-98637731D01*
X114427322Y-98656490D01*
X114425401Y-98675999D01*
X114174118Y-98675999D01*
X114174119Y-98666200D01*
X114170295Y-98646973D01*
X114162793Y-98628862D01*
X114151903Y-98612562D01*
X114138041Y-98598700D01*
X114121742Y-98587809D01*
X114103631Y-98580307D01*
X114084405Y-98576482D01*
X114074601Y-98576000D01*
X114025400Y-98576000D01*
X114005891Y-98577921D01*
X113987132Y-98583612D01*
X113969844Y-98592853D01*
X113954690Y-98605289D01*
X113942254Y-98620443D01*
X113933013Y-98637731D01*
X113927322Y-98656490D01*
X113925401Y-98675999D01*
X113674118Y-98675999D01*
X113674119Y-98666200D01*
X113670295Y-98646973D01*
X113662793Y-98628862D01*
X113651903Y-98612562D01*
X113638041Y-98598700D01*
X113621742Y-98587809D01*
X113603631Y-98580307D01*
X113584405Y-98576482D01*
X113574601Y-98576000D01*
X113525400Y-98576000D01*
X113505891Y-98577921D01*
X113487132Y-98583612D01*
X113469844Y-98592853D01*
X113454690Y-98605289D01*
X113442254Y-98620443D01*
X113433013Y-98637731D01*
X113427322Y-98656490D01*
X113425401Y-98675999D01*
X113174118Y-98675999D01*
X113174119Y-98666199D01*
X113170294Y-98646972D01*
X113162793Y-98628861D01*
X113151902Y-98612561D01*
X113138041Y-98598699D01*
X113121741Y-98587808D01*
X113103630Y-98580306D01*
X113084404Y-98576482D01*
X113074601Y-98576000D01*
X113049000Y-98576000D01*
X113049000Y-98240999D01*
X113047079Y-98221490D01*
X113041388Y-98202731D01*
X113032147Y-98185443D01*
X113019711Y-98170289D01*
X113004557Y-98157853D01*
X112987269Y-98148612D01*
X112968510Y-98142921D01*
X112949001Y-98141000D01*
X112349000Y-98141000D01*
X112349000Y-97259000D01*
X112949001Y-97259000D01*
X112968510Y-97257079D01*
X112987269Y-97251388D01*
X113004557Y-97242147D01*
X113019711Y-97229711D01*
X113032147Y-97214557D01*
X113041388Y-97197269D01*
X113047079Y-97178510D01*
X113049000Y-97159001D01*
X113049000Y-96824000D01*
X113074600Y-96824000D01*
X113094109Y-96822079D01*
X113112868Y-96816388D01*
X113130156Y-96807147D01*
X113145310Y-96794711D01*
X113157746Y-96779557D01*
X113166987Y-96762269D01*
X113172678Y-96743510D01*
X113173633Y-96733802D01*
X113425882Y-96733802D01*
X113429707Y-96753029D01*
X113437209Y-96771140D01*
X113448100Y-96787439D01*
X113461961Y-96801301D01*
X113478261Y-96812192D01*
X113496372Y-96819694D01*
X113515598Y-96823518D01*
X113525400Y-96824000D01*
X113574600Y-96824000D01*
X113594109Y-96822079D01*
X113612868Y-96816388D01*
X113630156Y-96807147D01*
X113645310Y-96794711D01*
X113657746Y-96779557D01*
X113666987Y-96762269D01*
X113672678Y-96743510D01*
X113673633Y-96733802D01*
X113925882Y-96733802D01*
X113929707Y-96753029D01*
X113937209Y-96771140D01*
X113948100Y-96787439D01*
X113961961Y-96801301D01*
X113978261Y-96812192D01*
X113996372Y-96819694D01*
X114015598Y-96823518D01*
X114025400Y-96824000D01*
X114074600Y-96824000D01*
X114094109Y-96822079D01*
X114112868Y-96816388D01*
X114130156Y-96807147D01*
X114145310Y-96794711D01*
X114157746Y-96779557D01*
X114166987Y-96762269D01*
X114172678Y-96743510D01*
X114173633Y-96733802D01*
X114425882Y-96733802D01*
X114429707Y-96753029D01*
X114437209Y-96771140D01*
X114448100Y-96787439D01*
X114461961Y-96801301D01*
X114478261Y-96812192D01*
X114496372Y-96819694D01*
X114515598Y-96823518D01*
X114525400Y-96824000D01*
X114574600Y-96824000D01*
X114594109Y-96822079D01*
X114612868Y-96816388D01*
X114630156Y-96807147D01*
X114645310Y-96794711D01*
X114657746Y-96779557D01*
X114666987Y-96762269D01*
X114672678Y-96743510D01*
X114673633Y-96733802D01*
X114925882Y-96733802D01*
X114929707Y-96753029D01*
X114937209Y-96771140D01*
X114948100Y-96787439D01*
X114961961Y-96801301D01*
X114978261Y-96812192D01*
X114996372Y-96819694D01*
X115015598Y-96823518D01*
X115025400Y-96824000D01*
X115074600Y-96824000D01*
X115094109Y-96822079D01*
X115112868Y-96816388D01*
X115130156Y-96807147D01*
X115145310Y-96794711D01*
X115157746Y-96779557D01*
X115166987Y-96762269D01*
X115172678Y-96743510D01*
X115174599Y-96724001D01*
X115172678Y-96704492D01*
X115166987Y-96685733D01*
X115157746Y-96668445D01*
X115151900Y-96660562D01*
X115150796Y-96659217D01*
X115150789Y-96659211D01*
X115127297Y-96630584D01*
X115113438Y-96616726D01*
X115097139Y-96605835D01*
X115079028Y-96598333D01*
X115059801Y-96594508D01*
X115040198Y-96594509D01*
X115020972Y-96598333D01*
X115002861Y-96605835D01*
X114986561Y-96616726D01*
X114972708Y-96630579D01*
X114949211Y-96659211D01*
X114949204Y-96659217D01*
X114948100Y-96660562D01*
X114937209Y-96676862D01*
X114929707Y-96694973D01*
X114925883Y-96714199D01*
X114925882Y-96733802D01*
X114673633Y-96733802D01*
X114674599Y-96724001D01*
X114672678Y-96704492D01*
X114666987Y-96685733D01*
X114657746Y-96668445D01*
X114651900Y-96660562D01*
X114650796Y-96659217D01*
X114650789Y-96659211D01*
X114627297Y-96630584D01*
X114613438Y-96616726D01*
X114597139Y-96605835D01*
X114579028Y-96598333D01*
X114559801Y-96594508D01*
X114540198Y-96594509D01*
X114520972Y-96598333D01*
X114502861Y-96605835D01*
X114486561Y-96616726D01*
X114472708Y-96630579D01*
X114449211Y-96659211D01*
X114449204Y-96659217D01*
X114448100Y-96660562D01*
X114437209Y-96676862D01*
X114429707Y-96694973D01*
X114425883Y-96714199D01*
X114425882Y-96733802D01*
X114173633Y-96733802D01*
X114174599Y-96724001D01*
X114172678Y-96704492D01*
X114166987Y-96685733D01*
X114157746Y-96668445D01*
X114151900Y-96660562D01*
X114150796Y-96659217D01*
X114150789Y-96659211D01*
X114127297Y-96630584D01*
X114113438Y-96616726D01*
X114097139Y-96605835D01*
X114079028Y-96598333D01*
X114059801Y-96594508D01*
X114040198Y-96594509D01*
X114020972Y-96598333D01*
X114002861Y-96605835D01*
X113986561Y-96616726D01*
X113972708Y-96630579D01*
X113949211Y-96659211D01*
X113949204Y-96659217D01*
X113948100Y-96660562D01*
X113937209Y-96676862D01*
X113929707Y-96694973D01*
X113925883Y-96714199D01*
X113925882Y-96733802D01*
X113673633Y-96733802D01*
X113674599Y-96724001D01*
X113672678Y-96704492D01*
X113666987Y-96685733D01*
X113657746Y-96668445D01*
X113651900Y-96660562D01*
X113650796Y-96659217D01*
X113650789Y-96659211D01*
X113627297Y-96630584D01*
X113613438Y-96616726D01*
X113597139Y-96605835D01*
X113579028Y-96598333D01*
X113559801Y-96594508D01*
X113540198Y-96594509D01*
X113520972Y-96598333D01*
X113502861Y-96605835D01*
X113486561Y-96616726D01*
X113472708Y-96630579D01*
X113449211Y-96659211D01*
X113449204Y-96659217D01*
X113448100Y-96660562D01*
X113437209Y-96676862D01*
X113429707Y-96694973D01*
X113425883Y-96714199D01*
X113425882Y-96733802D01*
X113173633Y-96733802D01*
X113174599Y-96724001D01*
X113172678Y-96704492D01*
X113166987Y-96685733D01*
X113151900Y-96660562D01*
X113150796Y-96659217D01*
X113150789Y-96659211D01*
X113124547Y-96627233D01*
X113105047Y-96590751D01*
X113093039Y-96551166D01*
X113090000Y-96520314D01*
X113090000Y-95730000D01*
X113284780Y-95730000D01*
X113294557Y-95729520D01*
X113300000Y-95728984D01*
X113305444Y-95729520D01*
X113315220Y-95730000D01*
X113784780Y-95730000D01*
X113794557Y-95729520D01*
X113800000Y-95728984D01*
X113805444Y-95729520D01*
X113815220Y-95730000D01*
X114284780Y-95730000D01*
X114294557Y-95729520D01*
X114300000Y-95728984D01*
X114305444Y-95729520D01*
X114315220Y-95730000D01*
X114784780Y-95730000D01*
X114794557Y-95729520D01*
X114800000Y-95728984D01*
X114805444Y-95729520D01*
X114815220Y-95730000D01*
X115284780Y-95730000D01*
X115294557Y-95729520D01*
X115300000Y-95728984D01*
X115305444Y-95729520D01*
G37*
G36*
X118295317Y-95775204D02*
G01*
X118302356Y-95777340D01*
X118308844Y-95780807D01*
X118314527Y-95785472D01*
X118322699Y-95795429D01*
X118336561Y-95809291D01*
X118352860Y-95820182D01*
X118370971Y-95827684D01*
X118390198Y-95831508D01*
X118409801Y-95831509D01*
X118429028Y-95827684D01*
X118447139Y-95820182D01*
X118463438Y-95809292D01*
X118477301Y-95795429D01*
X118485473Y-95785472D01*
X118491156Y-95780807D01*
X118497644Y-95777340D01*
X118504683Y-95775204D01*
X118516910Y-95774000D01*
X118783090Y-95774000D01*
X118795317Y-95775204D01*
X118802356Y-95777340D01*
X118808844Y-95780807D01*
X118814527Y-95785472D01*
X118822699Y-95795429D01*
X118836561Y-95809291D01*
X118852860Y-95820182D01*
X118870971Y-95827684D01*
X118890198Y-95831508D01*
X118909801Y-95831509D01*
X118929028Y-95827684D01*
X118947139Y-95820182D01*
X118963438Y-95809292D01*
X118977301Y-95795429D01*
X118985473Y-95785472D01*
X118991156Y-95780807D01*
X118997644Y-95777340D01*
X119004683Y-95775204D01*
X119016910Y-95774000D01*
X119283090Y-95774000D01*
X119295317Y-95775204D01*
X119302356Y-95777340D01*
X119308844Y-95780807D01*
X119314527Y-95785472D01*
X119322699Y-95795429D01*
X119336561Y-95809291D01*
X119352860Y-95820182D01*
X119370971Y-95827684D01*
X119390198Y-95831508D01*
X119409801Y-95831509D01*
X119429028Y-95827684D01*
X119447139Y-95820182D01*
X119463438Y-95809292D01*
X119477301Y-95795429D01*
X119485473Y-95785472D01*
X119491156Y-95780807D01*
X119497644Y-95777340D01*
X119504683Y-95775204D01*
X119516910Y-95774000D01*
X119783090Y-95774000D01*
X119795317Y-95775204D01*
X119802356Y-95777340D01*
X119808844Y-95780807D01*
X119814528Y-95785472D01*
X119819193Y-95791156D01*
X119822660Y-95797644D01*
X119824796Y-95804683D01*
X119826000Y-95816910D01*
X119826000Y-96658091D01*
X119825280Y-96665401D01*
X119825279Y-96685004D01*
X119829104Y-96704230D01*
X119836605Y-96722341D01*
X119847496Y-96738641D01*
X119861358Y-96752503D01*
X119877657Y-96763394D01*
X119895768Y-96770896D01*
X119914995Y-96774720D01*
X119934599Y-96774720D01*
X119941909Y-96774000D01*
X120783090Y-96774000D01*
X120795317Y-96775204D01*
X120802356Y-96777340D01*
X120808844Y-96780807D01*
X120814528Y-96785472D01*
X120819193Y-96791156D01*
X120822660Y-96797644D01*
X120824796Y-96804683D01*
X120826000Y-96816910D01*
X120826000Y-97083090D01*
X120824796Y-97095317D01*
X120822660Y-97102356D01*
X120819193Y-97108844D01*
X120814528Y-97114527D01*
X120804571Y-97122699D01*
X120790709Y-97136561D01*
X120779818Y-97152860D01*
X120772316Y-97170971D01*
X120768492Y-97190198D01*
X120768491Y-97209801D01*
X120772316Y-97229028D01*
X120779818Y-97247139D01*
X120790708Y-97263438D01*
X120804571Y-97277301D01*
X120814528Y-97285473D01*
X120819193Y-97291156D01*
X120822660Y-97297644D01*
X120824796Y-97304683D01*
X120826000Y-97316910D01*
X120826000Y-97583090D01*
X120824796Y-97595317D01*
X120822660Y-97602356D01*
X120819193Y-97608844D01*
X120814528Y-97614527D01*
X120804571Y-97622699D01*
X120790709Y-97636561D01*
X120779818Y-97652860D01*
X120772316Y-97670971D01*
X120768492Y-97690198D01*
X120768491Y-97709801D01*
X120772316Y-97729028D01*
X120779818Y-97747139D01*
X120790708Y-97763438D01*
X120804571Y-97777301D01*
X120814528Y-97785473D01*
X120819193Y-97791156D01*
X120822660Y-97797644D01*
X120824796Y-97804683D01*
X120826000Y-97816910D01*
X120826000Y-98083090D01*
X120824796Y-98095317D01*
X120822660Y-98102356D01*
X120819193Y-98108844D01*
X120814528Y-98114527D01*
X120804571Y-98122699D01*
X120790709Y-98136561D01*
X120779818Y-98152860D01*
X120772316Y-98170971D01*
X120768492Y-98190198D01*
X120768491Y-98209801D01*
X120772316Y-98229028D01*
X120779818Y-98247139D01*
X120790708Y-98263438D01*
X120804571Y-98277301D01*
X120814528Y-98285473D01*
X120819193Y-98291156D01*
X120822660Y-98297644D01*
X120824796Y-98304683D01*
X120826000Y-98316910D01*
X120826000Y-98583090D01*
X120824796Y-98595317D01*
X120822660Y-98602356D01*
X120819193Y-98608844D01*
X120814528Y-98614528D01*
X120808844Y-98619193D01*
X120802356Y-98622660D01*
X120795317Y-98624796D01*
X120783090Y-98626000D01*
X119941909Y-98626000D01*
X119934599Y-98625280D01*
X119914996Y-98625279D01*
X119895770Y-98629104D01*
X119877659Y-98636605D01*
X119861359Y-98647496D01*
X119847497Y-98661358D01*
X119836606Y-98677657D01*
X119829104Y-98695768D01*
X119825280Y-98714995D01*
X119825280Y-98734599D01*
X119826000Y-98741909D01*
X119826000Y-99583090D01*
X119824796Y-99595317D01*
X119822660Y-99602356D01*
X119819193Y-99608844D01*
X119814528Y-99614528D01*
X119808844Y-99619193D01*
X119802356Y-99622660D01*
X119795317Y-99624796D01*
X119783090Y-99626000D01*
X119516910Y-99626000D01*
X119504683Y-99624796D01*
X119497644Y-99622660D01*
X119491156Y-99619193D01*
X119485473Y-99614528D01*
X119477301Y-99604571D01*
X119463439Y-99590709D01*
X119447140Y-99579818D01*
X119429029Y-99572316D01*
X119409802Y-99568492D01*
X119390199Y-99568491D01*
X119370972Y-99572316D01*
X119352861Y-99579818D01*
X119336562Y-99590708D01*
X119322699Y-99604571D01*
X119314527Y-99614528D01*
X119308844Y-99619193D01*
X119302356Y-99622660D01*
X119295317Y-99624796D01*
X119283090Y-99626000D01*
X119016910Y-99626000D01*
X119004683Y-99624796D01*
X118997644Y-99622660D01*
X118991156Y-99619193D01*
X118985473Y-99614528D01*
X118977301Y-99604571D01*
X118963439Y-99590709D01*
X118947140Y-99579818D01*
X118929029Y-99572316D01*
X118909802Y-99568492D01*
X118890199Y-99568491D01*
X118870972Y-99572316D01*
X118852861Y-99579818D01*
X118836562Y-99590708D01*
X118822699Y-99604571D01*
X118814527Y-99614528D01*
X118808844Y-99619193D01*
X118802356Y-99622660D01*
X118795317Y-99624796D01*
X118783090Y-99626000D01*
X118516910Y-99626000D01*
X118504683Y-99624796D01*
X118497644Y-99622660D01*
X118491156Y-99619193D01*
X118485473Y-99614528D01*
X118477301Y-99604571D01*
X118463439Y-99590709D01*
X118447140Y-99579818D01*
X118429029Y-99572316D01*
X118409802Y-99568492D01*
X118390199Y-99568491D01*
X118370972Y-99572316D01*
X118352861Y-99579818D01*
X118336562Y-99590708D01*
X118322699Y-99604571D01*
X118314527Y-99614528D01*
X118308844Y-99619193D01*
X118302356Y-99622660D01*
X118295317Y-99624796D01*
X118283090Y-99626000D01*
X118016910Y-99626000D01*
X118004683Y-99624796D01*
X117997644Y-99622660D01*
X117991156Y-99619193D01*
X117985472Y-99614528D01*
X117980807Y-99608844D01*
X117977340Y-99602356D01*
X117975204Y-99595317D01*
X117974000Y-99583090D01*
X117974000Y-98741909D01*
X117974720Y-98734599D01*
X117974721Y-98714996D01*
X117970896Y-98695770D01*
X117963395Y-98677659D01*
X117952504Y-98661359D01*
X117938642Y-98647497D01*
X117922343Y-98636606D01*
X117904232Y-98629104D01*
X117885005Y-98625280D01*
X117865401Y-98625280D01*
X117858091Y-98626000D01*
X117016910Y-98626000D01*
X117004683Y-98624796D01*
X116997644Y-98622660D01*
X116991156Y-98619193D01*
X116985472Y-98614528D01*
X116980807Y-98608844D01*
X116977340Y-98602356D01*
X116975204Y-98595317D01*
X116974000Y-98583090D01*
X116974000Y-98316910D01*
X116975204Y-98304683D01*
X116977340Y-98297644D01*
X116980807Y-98291156D01*
X116985472Y-98285473D01*
X116995429Y-98277301D01*
X117009291Y-98263439D01*
X117020182Y-98247140D01*
X117027684Y-98229029D01*
X117031508Y-98209802D01*
X117031509Y-98190199D01*
X117027684Y-98170972D01*
X117020182Y-98152861D01*
X117009292Y-98136562D01*
X116995429Y-98122699D01*
X116985472Y-98114527D01*
X116980807Y-98108844D01*
X116977340Y-98102356D01*
X116975204Y-98095317D01*
X116974000Y-98083090D01*
X116974000Y-97816910D01*
X116975204Y-97804683D01*
X116977340Y-97797644D01*
X116980807Y-97791156D01*
X116985472Y-97785473D01*
X116995429Y-97777301D01*
X117009291Y-97763439D01*
X117020182Y-97747140D01*
X117027684Y-97729029D01*
X117031508Y-97709802D01*
X117031509Y-97690199D01*
X117027684Y-97670972D01*
X117020182Y-97652861D01*
X117009292Y-97636562D01*
X116995429Y-97622699D01*
X116985472Y-97614527D01*
X116980807Y-97608844D01*
X116977340Y-97602356D01*
X116975204Y-97595317D01*
X116974000Y-97583090D01*
X116974000Y-97316910D01*
X116975204Y-97304683D01*
X116977340Y-97297644D01*
X116980807Y-97291156D01*
X116985472Y-97285473D01*
X116995429Y-97277301D01*
X117009291Y-97263439D01*
X117020182Y-97247140D01*
X117027684Y-97229029D01*
X117031508Y-97209802D01*
X117031509Y-97190199D01*
X117027684Y-97170972D01*
X117020182Y-97152861D01*
X117009292Y-97136562D01*
X116995429Y-97122699D01*
X116985472Y-97114527D01*
X116980807Y-97108844D01*
X116977340Y-97102356D01*
X116975204Y-97095317D01*
X116974000Y-97083090D01*
X116974000Y-96816910D01*
X116975204Y-96804683D01*
X116977340Y-96797644D01*
X116980807Y-96791156D01*
X116985472Y-96785472D01*
X116991156Y-96780807D01*
X116997644Y-96777340D01*
X117004683Y-96775204D01*
X117016910Y-96774000D01*
X117858091Y-96774000D01*
X117865401Y-96774720D01*
X117885004Y-96774721D01*
X117904230Y-96770896D01*
X117922341Y-96763395D01*
X117938641Y-96752504D01*
X117952503Y-96738642D01*
X117963394Y-96722343D01*
X117970896Y-96704232D01*
X117974720Y-96685005D01*
X117974720Y-96665401D01*
X117974000Y-96658091D01*
X117974000Y-95816910D01*
X117975204Y-95804683D01*
X117977340Y-95797644D01*
X117980807Y-95791156D01*
X117985472Y-95785472D01*
X117991156Y-95780807D01*
X117997644Y-95777340D01*
X118004683Y-95775204D01*
X118016910Y-95774000D01*
X118283090Y-95774000D01*
X118295317Y-95775204D01*
G37*
G36*
X105026000Y-99481000D02*
G01*
X102374000Y-99481000D01*
X102374000Y-98319000D01*
X105026000Y-98319000D01*
X105026000Y-99481000D01*
G37*
G36*
X107649581Y-95662081D02*
G01*
X107748228Y-95681703D01*
X107903100Y-95745853D01*
X108042481Y-95838985D01*
X108161015Y-95957519D01*
X108254147Y-96096900D01*
X108318297Y-96251772D01*
X108337919Y-96350419D01*
X108351000Y-96416182D01*
X108351000Y-96583818D01*
X108342364Y-96627233D01*
X108318297Y-96748228D01*
X108254147Y-96903100D01*
X108161015Y-97042481D01*
X108042481Y-97161015D01*
X107903100Y-97254147D01*
X107748228Y-97318297D01*
X107649581Y-97337919D01*
X107583818Y-97351000D01*
X107416182Y-97351000D01*
X107350419Y-97337919D01*
X107251772Y-97318297D01*
X107096900Y-97254147D01*
X106957519Y-97161015D01*
X106838985Y-97042481D01*
X106745853Y-96903100D01*
X106681703Y-96748228D01*
X106657636Y-96627233D01*
X106649000Y-96583818D01*
X106649000Y-96416182D01*
X106662081Y-96350419D01*
X106681703Y-96251772D01*
X106745853Y-96096900D01*
X106838985Y-95957519D01*
X106957519Y-95838985D01*
X107096900Y-95745853D01*
X107251772Y-95681703D01*
X107350419Y-95662081D01*
X107416182Y-95649000D01*
X107583818Y-95649000D01*
X107649581Y-95662081D01*
G37*
G36*
X110649581Y-95662081D02*
G01*
X110748228Y-95681703D01*
X110903100Y-95745853D01*
X111042481Y-95838985D01*
X111161015Y-95957519D01*
X111254147Y-96096900D01*
X111318297Y-96251772D01*
X111337919Y-96350419D01*
X111351000Y-96416182D01*
X111351000Y-96583818D01*
X111342364Y-96627233D01*
X111318297Y-96748228D01*
X111254147Y-96903100D01*
X111161015Y-97042481D01*
X111042481Y-97161015D01*
X110903100Y-97254147D01*
X110748228Y-97318297D01*
X110649581Y-97337919D01*
X110583818Y-97351000D01*
X110416182Y-97351000D01*
X110350419Y-97337919D01*
X110251772Y-97318297D01*
X110096900Y-97254147D01*
X109957519Y-97161015D01*
X109838985Y-97042481D01*
X109745853Y-96903100D01*
X109681703Y-96748228D01*
X109657636Y-96627233D01*
X109649000Y-96583818D01*
X109649000Y-96416182D01*
X109662081Y-96350419D01*
X109681703Y-96251772D01*
X109745853Y-96096900D01*
X109838985Y-95957519D01*
X109957519Y-95838985D01*
X110096900Y-95745853D01*
X110251772Y-95681703D01*
X110350419Y-95662081D01*
X110416182Y-95649000D01*
X110583818Y-95649000D01*
X110649581Y-95662081D01*
G37*
G36*
X105026000Y-97281000D02*
G01*
X104274000Y-97281000D01*
X104274000Y-96119000D01*
X105026000Y-96119000D01*
X105026000Y-97281000D01*
G37*
G36*
X103126000Y-97281000D02*
G01*
X102374000Y-97281000D01*
X102374000Y-96119000D01*
X103126000Y-96119000D01*
X103126000Y-97281000D01*
G37*
G36*
X101957052Y-94478207D02*
G01*
X101993398Y-94489232D01*
X102026901Y-94507140D01*
X102056263Y-94531237D01*
X102080360Y-94560599D01*
X102098268Y-94594102D01*
X102109293Y-94630448D01*
X102113500Y-94673158D01*
X102113500Y-95326842D01*
X102109293Y-95369552D01*
X102098268Y-95405898D01*
X102080360Y-95439401D01*
X102056263Y-95468763D01*
X102026901Y-95492860D01*
X101993398Y-95510768D01*
X101957052Y-95521793D01*
X101914342Y-95526000D01*
X101335658Y-95526000D01*
X101292948Y-95521793D01*
X101256602Y-95510768D01*
X101223099Y-95492860D01*
X101193737Y-95468763D01*
X101169640Y-95439401D01*
X101151732Y-95405898D01*
X101140707Y-95369552D01*
X101136500Y-95326842D01*
X101136500Y-94673158D01*
X101140707Y-94630448D01*
X101151732Y-94594102D01*
X101169640Y-94560599D01*
X101193737Y-94531237D01*
X101223099Y-94507140D01*
X101256602Y-94489232D01*
X101292948Y-94478207D01*
X101335658Y-94474000D01*
X101914342Y-94474000D01*
X101957052Y-94478207D01*
G37*
G36*
X103532052Y-94478207D02*
G01*
X103568398Y-94489232D01*
X103601901Y-94507140D01*
X103631263Y-94531237D01*
X103655360Y-94560599D01*
X103673268Y-94594102D01*
X103684293Y-94630448D01*
X103688500Y-94673158D01*
X103688500Y-95326842D01*
X103684293Y-95369552D01*
X103673268Y-95405898D01*
X103655360Y-95439401D01*
X103631263Y-95468763D01*
X103601901Y-95492860D01*
X103568398Y-95510768D01*
X103532052Y-95521793D01*
X103489342Y-95526000D01*
X102910658Y-95526000D01*
X102867948Y-95521793D01*
X102831602Y-95510768D01*
X102798099Y-95492860D01*
X102768737Y-95468763D01*
X102744640Y-95439401D01*
X102726732Y-95405898D01*
X102715707Y-95369552D01*
X102711500Y-95326842D01*
X102711500Y-94673158D01*
X102715707Y-94630448D01*
X102726732Y-94594102D01*
X102744640Y-94560599D01*
X102768737Y-94531237D01*
X102798099Y-94507140D01*
X102831602Y-94489232D01*
X102867948Y-94478207D01*
X102910658Y-94474000D01*
X103489342Y-94474000D01*
X103532052Y-94478207D01*
G37*
G36*
X115832052Y-93928207D02*
G01*
X115868398Y-93939232D01*
X115901901Y-93957140D01*
X115931263Y-93981237D01*
X115955360Y-94010599D01*
X115973268Y-94044102D01*
X115984293Y-94080448D01*
X115988500Y-94123158D01*
X115988500Y-94776842D01*
X115984293Y-94819552D01*
X115973268Y-94855898D01*
X115955360Y-94889401D01*
X115931263Y-94918763D01*
X115901901Y-94942860D01*
X115868398Y-94960768D01*
X115832052Y-94971793D01*
X115789342Y-94976000D01*
X115210658Y-94976000D01*
X115167948Y-94971793D01*
X115131602Y-94960768D01*
X115098099Y-94942860D01*
X115068737Y-94918763D01*
X115044640Y-94889401D01*
X115026732Y-94855898D01*
X115015707Y-94819552D01*
X115011500Y-94776842D01*
X115011500Y-94123158D01*
X115015707Y-94080448D01*
X115026732Y-94044102D01*
X115044640Y-94010599D01*
X115068737Y-93981237D01*
X115098099Y-93957140D01*
X115131602Y-93939232D01*
X115167948Y-93928207D01*
X115210658Y-93924000D01*
X115789342Y-93924000D01*
X115832052Y-93928207D01*
G37*
G36*
X117407052Y-93928207D02*
G01*
X117443398Y-93939232D01*
X117476901Y-93957140D01*
X117506263Y-93981237D01*
X117530360Y-94010599D01*
X117548268Y-94044102D01*
X117559293Y-94080448D01*
X117563500Y-94123158D01*
X117563500Y-94776842D01*
X117559293Y-94819552D01*
X117548268Y-94855898D01*
X117530360Y-94889401D01*
X117506263Y-94918763D01*
X117476901Y-94942860D01*
X117443398Y-94960768D01*
X117407052Y-94971793D01*
X117364342Y-94976000D01*
X116785658Y-94976000D01*
X116742948Y-94971793D01*
X116706602Y-94960768D01*
X116673099Y-94942860D01*
X116643737Y-94918763D01*
X116619640Y-94889401D01*
X116601732Y-94855898D01*
X116590707Y-94819552D01*
X116586500Y-94776842D01*
X116586500Y-94123158D01*
X116590707Y-94080448D01*
X116601732Y-94044102D01*
X116619640Y-94010599D01*
X116643737Y-93981237D01*
X116673099Y-93957140D01*
X116706602Y-93939232D01*
X116742948Y-93928207D01*
X116785658Y-93924000D01*
X117364342Y-93924000D01*
X117407052Y-93928207D01*
G37*
G36*
X107649581Y-93162081D02*
G01*
X107748228Y-93181703D01*
X107903100Y-93245853D01*
X108042481Y-93338985D01*
X108161015Y-93457519D01*
X108254147Y-93596900D01*
X108318297Y-93751772D01*
X108351000Y-93916184D01*
X108351000Y-94083816D01*
X108318297Y-94248228D01*
X108254147Y-94403100D01*
X108161015Y-94542481D01*
X108042481Y-94661015D01*
X107903100Y-94754147D01*
X107748228Y-94818297D01*
X107649581Y-94837919D01*
X107583818Y-94851000D01*
X107416182Y-94851000D01*
X107350419Y-94837919D01*
X107251772Y-94818297D01*
X107096900Y-94754147D01*
X106957519Y-94661015D01*
X106838985Y-94542481D01*
X106745853Y-94403100D01*
X106681703Y-94248228D01*
X106649000Y-94083816D01*
X106649000Y-93916184D01*
X106681703Y-93751772D01*
X106745853Y-93596900D01*
X106838985Y-93457519D01*
X106957519Y-93338985D01*
X107096900Y-93245853D01*
X107251772Y-93181703D01*
X107350419Y-93162081D01*
X107416182Y-93149000D01*
X107583818Y-93149000D01*
X107649581Y-93162081D01*
G37*
G36*
X110649581Y-93162081D02*
G01*
X110748228Y-93181703D01*
X110903100Y-93245853D01*
X111042481Y-93338985D01*
X111161015Y-93457519D01*
X111254147Y-93596900D01*
X111318297Y-93751772D01*
X111351000Y-93916184D01*
X111351000Y-94083816D01*
X111318297Y-94248228D01*
X111254147Y-94403100D01*
X111161015Y-94542481D01*
X111042481Y-94661015D01*
X110903100Y-94754147D01*
X110748228Y-94818297D01*
X110649581Y-94837919D01*
X110583818Y-94851000D01*
X110416182Y-94851000D01*
X110350419Y-94837919D01*
X110251772Y-94818297D01*
X110096900Y-94754147D01*
X109957519Y-94661015D01*
X109838985Y-94542481D01*
X109745853Y-94403100D01*
X109681703Y-94248228D01*
X109649000Y-94083816D01*
X109649000Y-93916184D01*
X109681703Y-93751772D01*
X109745853Y-93596900D01*
X109838985Y-93457519D01*
X109957519Y-93338985D01*
X110096900Y-93245853D01*
X110251772Y-93181703D01*
X110350419Y-93162081D01*
X110416182Y-93149000D01*
X110583818Y-93149000D01*
X110649581Y-93162081D01*
G37*
G36*
X101961932Y-92553688D02*
G01*
X102002969Y-92566136D01*
X102040788Y-92586351D01*
X102073941Y-92613559D01*
X102101149Y-92646712D01*
X102121364Y-92684531D01*
X102133812Y-92725568D01*
X102138500Y-92773167D01*
X102138500Y-93826833D01*
X102133812Y-93874432D01*
X102121364Y-93915469D01*
X102101149Y-93953288D01*
X102073941Y-93986441D01*
X102040788Y-94013649D01*
X102002969Y-94033864D01*
X101961932Y-94046312D01*
X101914333Y-94051000D01*
X101285667Y-94051000D01*
X101238068Y-94046312D01*
X101197031Y-94033864D01*
X101159212Y-94013649D01*
X101126059Y-93986441D01*
X101098851Y-93953288D01*
X101078636Y-93915469D01*
X101066188Y-93874432D01*
X101061500Y-93826833D01*
X101061500Y-92773167D01*
X101066188Y-92725568D01*
X101078636Y-92684531D01*
X101098851Y-92646712D01*
X101126059Y-92613559D01*
X101159212Y-92586351D01*
X101197031Y-92566136D01*
X101238068Y-92553688D01*
X101285667Y-92549000D01*
X101914333Y-92549000D01*
X101961932Y-92553688D01*
G37*
G36*
X103836932Y-92553688D02*
G01*
X103877969Y-92566136D01*
X103915788Y-92586351D01*
X103948941Y-92613559D01*
X103976149Y-92646712D01*
X103996364Y-92684531D01*
X104008812Y-92725568D01*
X104013500Y-92773167D01*
X104013500Y-93826833D01*
X104008812Y-93874432D01*
X103996364Y-93915469D01*
X103976149Y-93953288D01*
X103948941Y-93986441D01*
X103915788Y-94013649D01*
X103877969Y-94033864D01*
X103836932Y-94046312D01*
X103789333Y-94051000D01*
X103160667Y-94051000D01*
X103113068Y-94046312D01*
X103072031Y-94033864D01*
X103034212Y-94013649D01*
X103001059Y-93986441D01*
X102973851Y-93953288D01*
X102953636Y-93915469D01*
X102941188Y-93874432D01*
X102936500Y-93826833D01*
X102936500Y-92773167D01*
X102941188Y-92725568D01*
X102953636Y-92684531D01*
X102973851Y-92646712D01*
X103001059Y-92613559D01*
X103034212Y-92586351D01*
X103072031Y-92566136D01*
X103113068Y-92553688D01*
X103160667Y-92549000D01*
X103789333Y-92549000D01*
X103836932Y-92553688D01*
G37*
G36*
X115807052Y-92536207D02*
G01*
X115843398Y-92547232D01*
X115876901Y-92565140D01*
X115906263Y-92589237D01*
X115930360Y-92618599D01*
X115948268Y-92652102D01*
X115959293Y-92688448D01*
X115963500Y-92731158D01*
X115963500Y-93384842D01*
X115959293Y-93427552D01*
X115948268Y-93463898D01*
X115930360Y-93497401D01*
X115906263Y-93526763D01*
X115876901Y-93550860D01*
X115843398Y-93568768D01*
X115807052Y-93579793D01*
X115764342Y-93584000D01*
X115185658Y-93584000D01*
X115142948Y-93579793D01*
X115106602Y-93568768D01*
X115073099Y-93550860D01*
X115043737Y-93526763D01*
X115019640Y-93497401D01*
X115001732Y-93463898D01*
X114990707Y-93427552D01*
X114986500Y-93384842D01*
X114986500Y-92731158D01*
X114990707Y-92688448D01*
X115001732Y-92652102D01*
X115019640Y-92618599D01*
X115043737Y-92589237D01*
X115073099Y-92565140D01*
X115106602Y-92547232D01*
X115142948Y-92536207D01*
X115185658Y-92532000D01*
X115764342Y-92532000D01*
X115807052Y-92536207D01*
G37*
G36*
X117382052Y-92536207D02*
G01*
X117418398Y-92547232D01*
X117451901Y-92565140D01*
X117481263Y-92589237D01*
X117505360Y-92618599D01*
X117523268Y-92652102D01*
X117534293Y-92688448D01*
X117538500Y-92731158D01*
X117538500Y-93384842D01*
X117534293Y-93427552D01*
X117523268Y-93463898D01*
X117505360Y-93497401D01*
X117481263Y-93526763D01*
X117451901Y-93550860D01*
X117418398Y-93568768D01*
X117382052Y-93579793D01*
X117339342Y-93584000D01*
X116760658Y-93584000D01*
X116717948Y-93579793D01*
X116681602Y-93568768D01*
X116648099Y-93550860D01*
X116618737Y-93526763D01*
X116594640Y-93497401D01*
X116576732Y-93463898D01*
X116565707Y-93427552D01*
X116561500Y-93384842D01*
X116561500Y-92731158D01*
X116565707Y-92688448D01*
X116576732Y-92652102D01*
X116594640Y-92618599D01*
X116618737Y-92589237D01*
X116648099Y-92565140D01*
X116681602Y-92547232D01*
X116717948Y-92536207D01*
X116760658Y-92532000D01*
X117339342Y-92532000D01*
X117382052Y-92536207D01*
G37*
G36*
X118694552Y-92528207D02*
G01*
X118730898Y-92539232D01*
X118764401Y-92557140D01*
X118793763Y-92581237D01*
X118817860Y-92610599D01*
X118835768Y-92644102D01*
X118846793Y-92680448D01*
X118851000Y-92723158D01*
X118851000Y-93376842D01*
X118846793Y-93419552D01*
X118835768Y-93455898D01*
X118817860Y-93489401D01*
X118793763Y-93518763D01*
X118764401Y-93542860D01*
X118730898Y-93560768D01*
X118694552Y-93571793D01*
X118651842Y-93576000D01*
X118073158Y-93576000D01*
X118030448Y-93571793D01*
X117994102Y-93560768D01*
X117960599Y-93542860D01*
X117931237Y-93518763D01*
X117907140Y-93489401D01*
X117889232Y-93455898D01*
X117878207Y-93419552D01*
X117874000Y-93376842D01*
X117874000Y-92723158D01*
X117878207Y-92680448D01*
X117889232Y-92644102D01*
X117907140Y-92610599D01*
X117931237Y-92581237D01*
X117960599Y-92557140D01*
X117994102Y-92539232D01*
X118030448Y-92528207D01*
X118073158Y-92524000D01*
X118651842Y-92524000D01*
X118694552Y-92528207D01*
G37*
G36*
X120269552Y-92528207D02*
G01*
X120305898Y-92539232D01*
X120339401Y-92557140D01*
X120368763Y-92581237D01*
X120392860Y-92610599D01*
X120410768Y-92644102D01*
X120421793Y-92680448D01*
X120426000Y-92723158D01*
X120426000Y-93376842D01*
X120421793Y-93419552D01*
X120410768Y-93455898D01*
X120392860Y-93489401D01*
X120368763Y-93518763D01*
X120339401Y-93542860D01*
X120305898Y-93560768D01*
X120269552Y-93571793D01*
X120226842Y-93576000D01*
X119648158Y-93576000D01*
X119605448Y-93571793D01*
X119569102Y-93560768D01*
X119535599Y-93542860D01*
X119506237Y-93518763D01*
X119482140Y-93489401D01*
X119464232Y-93455898D01*
X119453207Y-93419552D01*
X119449000Y-93376842D01*
X119449000Y-92723158D01*
X119453207Y-92680448D01*
X119464232Y-92644102D01*
X119482140Y-92610599D01*
X119506237Y-92581237D01*
X119535599Y-92557140D01*
X119569102Y-92539232D01*
X119605448Y-92528207D01*
X119648158Y-92524000D01*
X120226842Y-92524000D01*
X120269552Y-92528207D01*
G37*
G36*
X107649581Y-90662081D02*
G01*
X107748228Y-90681703D01*
X107903100Y-90745853D01*
X108042481Y-90838985D01*
X108161015Y-90957519D01*
X108254147Y-91096900D01*
X108318297Y-91251772D01*
X108351000Y-91416184D01*
X108351000Y-91583816D01*
X108318297Y-91748228D01*
X108254147Y-91903100D01*
X108161015Y-92042481D01*
X108042481Y-92161015D01*
X107903100Y-92254147D01*
X107748228Y-92318297D01*
X107649581Y-92337919D01*
X107583818Y-92351000D01*
X107416182Y-92351000D01*
X107350419Y-92337919D01*
X107251772Y-92318297D01*
X107096900Y-92254147D01*
X106957519Y-92161015D01*
X106838985Y-92042481D01*
X106745853Y-91903100D01*
X106681703Y-91748228D01*
X106649000Y-91583816D01*
X106649000Y-91416184D01*
X106681703Y-91251772D01*
X106745853Y-91096900D01*
X106838985Y-90957519D01*
X106957519Y-90838985D01*
X107096900Y-90745853D01*
X107251772Y-90681703D01*
X107350419Y-90662081D01*
X107416182Y-90649000D01*
X107583818Y-90649000D01*
X107649581Y-90662081D01*
G37*
G36*
X110649581Y-90662081D02*
G01*
X110748228Y-90681703D01*
X110903100Y-90745853D01*
X111042481Y-90838985D01*
X111161015Y-90957519D01*
X111254147Y-91096900D01*
X111318297Y-91251772D01*
X111351000Y-91416184D01*
X111351000Y-91583816D01*
X111318297Y-91748228D01*
X111254147Y-91903100D01*
X111161015Y-92042481D01*
X111042481Y-92161015D01*
X110903100Y-92254147D01*
X110748228Y-92318297D01*
X110649581Y-92337919D01*
X110583818Y-92351000D01*
X110416182Y-92351000D01*
X110350419Y-92337919D01*
X110251772Y-92318297D01*
X110096900Y-92254147D01*
X109957519Y-92161015D01*
X109838985Y-92042481D01*
X109745853Y-91903100D01*
X109681703Y-91748228D01*
X109649000Y-91583816D01*
X109649000Y-91416184D01*
X109681703Y-91251772D01*
X109745853Y-91096900D01*
X109838985Y-90957519D01*
X109957519Y-90838985D01*
X110096900Y-90745853D01*
X110251772Y-90681703D01*
X110350419Y-90662081D01*
X110416182Y-90649000D01*
X110583818Y-90649000D01*
X110649581Y-90662081D01*
G37*
G36*
X105219552Y-91028207D02*
G01*
X105255898Y-91039232D01*
X105289401Y-91057140D01*
X105318763Y-91081237D01*
X105342860Y-91110599D01*
X105360768Y-91144102D01*
X105371793Y-91180448D01*
X105376000Y-91223158D01*
X105376000Y-91876842D01*
X105371793Y-91919552D01*
X105360768Y-91955898D01*
X105342860Y-91989401D01*
X105318763Y-92018763D01*
X105289401Y-92042860D01*
X105255898Y-92060768D01*
X105219552Y-92071793D01*
X105176842Y-92076000D01*
X104598158Y-92076000D01*
X104555448Y-92071793D01*
X104519102Y-92060768D01*
X104485599Y-92042860D01*
X104456237Y-92018763D01*
X104432140Y-91989401D01*
X104414232Y-91955898D01*
X104403207Y-91919552D01*
X104399000Y-91876842D01*
X104399000Y-91223158D01*
X104403207Y-91180448D01*
X104414232Y-91144102D01*
X104432140Y-91110599D01*
X104456237Y-91081237D01*
X104485599Y-91057140D01*
X104519102Y-91039232D01*
X104555448Y-91028207D01*
X104598158Y-91024000D01*
X105176842Y-91024000D01*
X105219552Y-91028207D01*
G37*
G36*
X103644552Y-91028207D02*
G01*
X103680898Y-91039232D01*
X103714401Y-91057140D01*
X103743763Y-91081237D01*
X103767860Y-91110599D01*
X103785768Y-91144102D01*
X103796793Y-91180448D01*
X103801000Y-91223158D01*
X103801000Y-91876842D01*
X103796793Y-91919552D01*
X103785768Y-91955898D01*
X103767860Y-91989401D01*
X103743763Y-92018763D01*
X103714401Y-92042860D01*
X103680898Y-92060768D01*
X103644552Y-92071793D01*
X103601842Y-92076000D01*
X103023158Y-92076000D01*
X102980448Y-92071793D01*
X102944102Y-92060768D01*
X102910599Y-92042860D01*
X102881237Y-92018763D01*
X102857140Y-91989401D01*
X102839232Y-91955898D01*
X102828207Y-91919552D01*
X102824000Y-91876842D01*
X102824000Y-91223158D01*
X102828207Y-91180448D01*
X102839232Y-91144102D01*
X102857140Y-91110599D01*
X102881237Y-91081237D01*
X102910599Y-91057140D01*
X102944102Y-91039232D01*
X102980448Y-91028207D01*
X103023158Y-91024000D01*
X103601842Y-91024000D01*
X103644552Y-91028207D01*
G37*
G36*
X101751000Y-91111000D02*
G01*
X101180999Y-91111000D01*
X101161490Y-91112921D01*
X101142731Y-91118612D01*
X101125443Y-91127853D01*
X101110289Y-91140289D01*
X101097853Y-91155443D01*
X101088612Y-91172731D01*
X101082921Y-91191490D01*
X101081000Y-91210999D01*
X101081000Y-92051000D01*
X100349000Y-92051000D01*
X100349000Y-91289000D01*
X100749001Y-91289000D01*
X100768510Y-91287079D01*
X100787269Y-91281388D01*
X100804557Y-91272147D01*
X100819711Y-91259711D01*
X100832147Y-91244557D01*
X100841388Y-91227269D01*
X100847079Y-91208510D01*
X100849000Y-91189001D01*
X100849000Y-89929000D01*
X101751000Y-89929000D01*
X101751000Y-91111000D01*
G37*
G36*
X114151000Y-91801000D02*
G01*
X112549000Y-91801000D01*
X112549000Y-90199000D01*
X114151000Y-90199000D01*
X114151000Y-91801000D01*
G37*
G36*
X103644552Y-89478207D02*
G01*
X103680898Y-89489232D01*
X103714401Y-89507140D01*
X103743763Y-89531237D01*
X103767860Y-89560599D01*
X103785768Y-89594102D01*
X103796793Y-89630448D01*
X103801000Y-89673158D01*
X103801000Y-90326842D01*
X103796793Y-90369552D01*
X103785768Y-90405898D01*
X103767860Y-90439401D01*
X103743763Y-90468763D01*
X103714401Y-90492860D01*
X103680898Y-90510768D01*
X103644552Y-90521793D01*
X103601842Y-90526000D01*
X103023158Y-90526000D01*
X102980448Y-90521793D01*
X102944102Y-90510768D01*
X102910599Y-90492860D01*
X102881237Y-90468763D01*
X102857140Y-90439401D01*
X102839232Y-90405898D01*
X102828207Y-90369552D01*
X102824000Y-90326842D01*
X102824000Y-89673158D01*
X102828207Y-89630448D01*
X102839232Y-89594102D01*
X102857140Y-89560599D01*
X102881237Y-89531237D01*
X102910599Y-89507140D01*
X102944102Y-89489232D01*
X102980448Y-89478207D01*
X103023158Y-89474000D01*
X103601842Y-89474000D01*
X103644552Y-89478207D01*
G37*
G36*
X105219552Y-89478207D02*
G01*
X105255898Y-89489232D01*
X105289401Y-89507140D01*
X105318763Y-89531237D01*
X105342860Y-89560599D01*
X105360768Y-89594102D01*
X105371793Y-89630448D01*
X105376000Y-89673158D01*
X105376000Y-90326842D01*
X105371793Y-90369552D01*
X105360768Y-90405898D01*
X105342860Y-90439401D01*
X105318763Y-90468763D01*
X105289401Y-90492860D01*
X105255898Y-90510768D01*
X105219552Y-90521793D01*
X105176842Y-90526000D01*
X104598158Y-90526000D01*
X104555448Y-90521793D01*
X104519102Y-90510768D01*
X104485599Y-90492860D01*
X104456237Y-90468763D01*
X104432140Y-90439401D01*
X104414232Y-90405898D01*
X104403207Y-90369552D01*
X104399000Y-90326842D01*
X104399000Y-89673158D01*
X104403207Y-89630448D01*
X104414232Y-89594102D01*
X104432140Y-89560599D01*
X104456237Y-89531237D01*
X104485599Y-89507140D01*
X104519102Y-89489232D01*
X104555448Y-89478207D01*
X104598158Y-89474000D01*
X105176842Y-89474000D01*
X105219552Y-89478207D01*
G37*
G36*
X107637665Y-88159711D02*
G01*
X107748228Y-88181703D01*
X107903100Y-88245853D01*
X108042481Y-88338985D01*
X108161015Y-88457519D01*
X108254147Y-88596900D01*
X108318297Y-88751772D01*
X108337919Y-88850419D01*
X108351000Y-88916182D01*
X108351000Y-89083818D01*
X108339149Y-89143398D01*
X108318297Y-89248228D01*
X108254147Y-89403100D01*
X108161015Y-89542481D01*
X108042481Y-89661015D01*
X107903100Y-89754147D01*
X107748228Y-89818297D01*
X107649581Y-89837919D01*
X107583818Y-89851000D01*
X107416182Y-89851000D01*
X107350419Y-89837919D01*
X107251772Y-89818297D01*
X107096900Y-89754147D01*
X106957519Y-89661015D01*
X106838985Y-89542481D01*
X106745853Y-89403100D01*
X106681703Y-89248228D01*
X106660851Y-89143398D01*
X106649000Y-89083818D01*
X106649000Y-88916182D01*
X106662081Y-88850419D01*
X106681703Y-88751772D01*
X106745853Y-88596900D01*
X106838985Y-88457519D01*
X106957519Y-88338985D01*
X107096900Y-88245853D01*
X107251772Y-88181703D01*
X107362335Y-88159711D01*
X107416182Y-88149000D01*
X107583818Y-88149000D01*
X107637665Y-88159711D01*
G37*
G36*
X110637665Y-88159711D02*
G01*
X110748228Y-88181703D01*
X110903100Y-88245853D01*
X111042481Y-88338985D01*
X111161015Y-88457519D01*
X111254147Y-88596900D01*
X111318297Y-88751772D01*
X111337919Y-88850419D01*
X111351000Y-88916182D01*
X111351000Y-89083818D01*
X111339149Y-89143398D01*
X111318297Y-89248228D01*
X111254147Y-89403100D01*
X111161015Y-89542481D01*
X111042481Y-89661015D01*
X110903100Y-89754147D01*
X110748228Y-89818297D01*
X110649581Y-89837919D01*
X110583818Y-89851000D01*
X110416182Y-89851000D01*
X110350419Y-89837919D01*
X110251772Y-89818297D01*
X110096900Y-89754147D01*
X109957519Y-89661015D01*
X109838985Y-89542481D01*
X109745853Y-89403100D01*
X109681703Y-89248228D01*
X109660851Y-89143398D01*
X109649000Y-89083818D01*
X109649000Y-88916182D01*
X109662081Y-88850419D01*
X109681703Y-88751772D01*
X109745853Y-88596900D01*
X109838985Y-88457519D01*
X109957519Y-88338985D01*
X110096900Y-88245853D01*
X110251772Y-88181703D01*
X110362335Y-88159711D01*
X110416182Y-88149000D01*
X110583818Y-88149000D01*
X110637665Y-88159711D01*
G37*
G36*
X101081000Y-88089001D02*
G01*
X101082921Y-88108510D01*
X101088612Y-88127269D01*
X101097853Y-88144557D01*
X101110289Y-88159711D01*
X101125443Y-88172147D01*
X101142731Y-88181388D01*
X101161490Y-88187079D01*
X101180999Y-88189000D01*
X101751000Y-88189000D01*
X101751000Y-89371000D01*
X100849000Y-89371000D01*
X100849000Y-88110999D01*
X100847079Y-88091490D01*
X100841388Y-88072731D01*
X100832147Y-88055443D01*
X100819711Y-88040289D01*
X100804557Y-88027853D01*
X100787269Y-88018612D01*
X100768510Y-88012921D01*
X100749001Y-88011000D01*
X100349000Y-88011000D01*
X100349000Y-87249000D01*
X101081000Y-87249000D01*
X101081000Y-88089001D01*
G37*
G36*
X114757052Y-88228207D02*
G01*
X114793398Y-88239232D01*
X114826901Y-88257140D01*
X114856263Y-88281237D01*
X114880360Y-88310599D01*
X114898268Y-88344102D01*
X114909293Y-88380448D01*
X114913500Y-88423158D01*
X114913500Y-89076842D01*
X114909293Y-89119552D01*
X114898268Y-89155898D01*
X114880360Y-89189401D01*
X114856263Y-89218763D01*
X114826901Y-89242860D01*
X114793398Y-89260768D01*
X114757052Y-89271793D01*
X114714342Y-89276000D01*
X114135658Y-89276000D01*
X114092948Y-89271793D01*
X114056602Y-89260768D01*
X114023099Y-89242860D01*
X113993737Y-89218763D01*
X113969640Y-89189401D01*
X113951732Y-89155898D01*
X113940707Y-89119552D01*
X113936500Y-89076842D01*
X113936500Y-88423158D01*
X113940707Y-88380448D01*
X113951732Y-88344102D01*
X113969640Y-88310599D01*
X113993737Y-88281237D01*
X114023099Y-88257140D01*
X114056602Y-88239232D01*
X114092948Y-88228207D01*
X114135658Y-88224000D01*
X114714342Y-88224000D01*
X114757052Y-88228207D01*
G37*
G36*
X113182052Y-88228207D02*
G01*
X113218398Y-88239232D01*
X113251901Y-88257140D01*
X113281263Y-88281237D01*
X113305360Y-88310599D01*
X113323268Y-88344102D01*
X113334293Y-88380448D01*
X113338500Y-88423158D01*
X113338500Y-89076842D01*
X113334293Y-89119552D01*
X113323268Y-89155898D01*
X113305360Y-89189401D01*
X113281263Y-89218763D01*
X113251901Y-89242860D01*
X113218398Y-89260768D01*
X113182052Y-89271793D01*
X113139342Y-89276000D01*
X112560658Y-89276000D01*
X112517948Y-89271793D01*
X112481602Y-89260768D01*
X112448099Y-89242860D01*
X112418737Y-89218763D01*
X112394640Y-89189401D01*
X112376732Y-89155898D01*
X112365707Y-89119552D01*
X112361500Y-89076842D01*
X112361500Y-88423158D01*
X112365707Y-88380448D01*
X112376732Y-88344102D01*
X112394640Y-88310599D01*
X112418737Y-88281237D01*
X112448099Y-88257140D01*
X112481602Y-88239232D01*
X112517948Y-88228207D01*
X112560658Y-88224000D01*
X113139342Y-88224000D01*
X113182052Y-88228207D01*
G37*
G36*
X105969552Y-88290707D02*
G01*
X106005898Y-88301732D01*
X106039401Y-88319640D01*
X106068763Y-88343737D01*
X106092860Y-88373099D01*
X106110768Y-88406602D01*
X106121793Y-88442948D01*
X106126000Y-88485658D01*
X106126000Y-89064342D01*
X106121793Y-89107052D01*
X106110768Y-89143398D01*
X106092860Y-89176901D01*
X106068763Y-89206263D01*
X106039401Y-89230360D01*
X106005898Y-89248268D01*
X105969552Y-89259293D01*
X105926842Y-89263500D01*
X105273158Y-89263500D01*
X105230448Y-89259293D01*
X105194102Y-89248268D01*
X105160599Y-89230360D01*
X105131237Y-89206263D01*
X105107140Y-89176901D01*
X105089232Y-89143398D01*
X105078207Y-89107052D01*
X105074000Y-89064342D01*
X105074000Y-88485658D01*
X105078207Y-88442948D01*
X105089232Y-88406602D01*
X105107140Y-88373099D01*
X105131237Y-88343737D01*
X105160599Y-88319640D01*
X105194102Y-88301732D01*
X105230448Y-88290707D01*
X105273158Y-88286500D01*
X105926842Y-88286500D01*
X105969552Y-88290707D01*
G37*
G36*
X105969552Y-86715707D02*
G01*
X106005898Y-86726732D01*
X106039401Y-86744640D01*
X106068763Y-86768737D01*
X106092860Y-86798099D01*
X106110768Y-86831602D01*
X106121793Y-86867948D01*
X106126000Y-86910658D01*
X106126000Y-87489342D01*
X106121793Y-87532052D01*
X106110768Y-87568398D01*
X106092860Y-87601901D01*
X106068763Y-87631263D01*
X106039401Y-87655360D01*
X106005898Y-87673268D01*
X105969552Y-87684293D01*
X105926842Y-87688500D01*
X105273158Y-87688500D01*
X105230448Y-87684293D01*
X105194102Y-87673268D01*
X105160599Y-87655360D01*
X105131237Y-87631263D01*
X105107140Y-87601901D01*
X105089232Y-87568398D01*
X105078207Y-87532052D01*
X105074000Y-87489342D01*
X105074000Y-86910658D01*
X105078207Y-86867948D01*
X105089232Y-86831602D01*
X105107140Y-86798099D01*
X105131237Y-86768737D01*
X105160599Y-86744640D01*
X105194102Y-86726732D01*
X105230448Y-86715707D01*
X105273158Y-86711500D01*
X105926842Y-86711500D01*
X105969552Y-86715707D01*
G37*
G36*
X113982817Y-79775204D02*
G01*
X113989856Y-79777340D01*
X113996344Y-79780807D01*
X114002027Y-79785472D01*
X114010199Y-79795429D01*
X114024061Y-79809291D01*
X114040360Y-79820182D01*
X114058471Y-79827684D01*
X114077698Y-79831508D01*
X114097301Y-79831509D01*
X114116528Y-79827684D01*
X114134639Y-79820182D01*
X114150938Y-79809292D01*
X114164801Y-79795429D01*
X114172973Y-79785472D01*
X114178656Y-79780807D01*
X114185144Y-79777340D01*
X114192183Y-79775204D01*
X114204410Y-79774000D01*
X114470590Y-79774000D01*
X114482817Y-79775204D01*
X114489856Y-79777340D01*
X114496344Y-79780807D01*
X114502027Y-79785472D01*
X114510199Y-79795429D01*
X114524061Y-79809291D01*
X114540360Y-79820182D01*
X114558471Y-79827684D01*
X114577698Y-79831508D01*
X114597301Y-79831509D01*
X114616528Y-79827684D01*
X114634639Y-79820182D01*
X114650938Y-79809292D01*
X114664801Y-79795429D01*
X114672973Y-79785472D01*
X114678656Y-79780807D01*
X114685144Y-79777340D01*
X114692183Y-79775204D01*
X114704410Y-79774000D01*
X114970590Y-79774000D01*
X114982817Y-79775204D01*
X114989856Y-79777340D01*
X114996344Y-79780807D01*
X115002027Y-79785472D01*
X115010199Y-79795429D01*
X115024061Y-79809291D01*
X115040360Y-79820182D01*
X115058471Y-79827684D01*
X115077698Y-79831508D01*
X115097301Y-79831509D01*
X115116528Y-79827684D01*
X115134639Y-79820182D01*
X115150938Y-79809292D01*
X115164801Y-79795429D01*
X115172973Y-79785472D01*
X115178656Y-79780807D01*
X115185144Y-79777340D01*
X115192183Y-79775204D01*
X115204410Y-79774000D01*
X115470590Y-79774000D01*
X115482817Y-79775204D01*
X115489856Y-79777340D01*
X115496344Y-79780807D01*
X115502027Y-79785472D01*
X115510199Y-79795429D01*
X115524061Y-79809291D01*
X115540360Y-79820182D01*
X115558471Y-79827684D01*
X115577698Y-79831508D01*
X115597301Y-79831509D01*
X115616528Y-79827684D01*
X115634639Y-79820182D01*
X115650938Y-79809292D01*
X115664801Y-79795429D01*
X115672973Y-79785472D01*
X115678656Y-79780807D01*
X115685144Y-79777340D01*
X115692183Y-79775204D01*
X115704410Y-79774000D01*
X115970590Y-79774000D01*
X115982817Y-79775204D01*
X115989856Y-79777340D01*
X115996344Y-79780807D01*
X116002027Y-79785472D01*
X116010199Y-79795429D01*
X116024061Y-79809291D01*
X116040360Y-79820182D01*
X116058471Y-79827684D01*
X116077698Y-79831508D01*
X116097301Y-79831509D01*
X116116528Y-79827684D01*
X116134639Y-79820182D01*
X116150938Y-79809292D01*
X116164801Y-79795429D01*
X116172973Y-79785472D01*
X116178656Y-79780807D01*
X116185144Y-79777340D01*
X116192183Y-79775204D01*
X116204410Y-79774000D01*
X116470590Y-79774000D01*
X116482817Y-79775204D01*
X116489856Y-79777340D01*
X116496344Y-79780807D01*
X116502027Y-79785472D01*
X116510199Y-79795429D01*
X116524061Y-79809291D01*
X116540360Y-79820182D01*
X116558471Y-79827684D01*
X116577698Y-79831508D01*
X116597301Y-79831509D01*
X116616528Y-79827684D01*
X116634639Y-79820182D01*
X116650938Y-79809292D01*
X116664801Y-79795429D01*
X116672973Y-79785472D01*
X116678656Y-79780807D01*
X116685144Y-79777340D01*
X116692183Y-79775204D01*
X116704410Y-79774000D01*
X116970590Y-79774000D01*
X116982817Y-79775204D01*
X116989856Y-79777340D01*
X116996344Y-79780807D01*
X117002027Y-79785472D01*
X117010199Y-79795429D01*
X117024061Y-79809291D01*
X117040360Y-79820182D01*
X117058471Y-79827684D01*
X117077698Y-79831508D01*
X117097301Y-79831509D01*
X117116528Y-79827684D01*
X117134639Y-79820182D01*
X117150938Y-79809292D01*
X117164801Y-79795429D01*
X117172973Y-79785472D01*
X117178656Y-79780807D01*
X117185144Y-79777340D01*
X117192183Y-79775204D01*
X117204410Y-79774000D01*
X117470590Y-79774000D01*
X117482817Y-79775204D01*
X117489856Y-79777340D01*
X117496344Y-79780807D01*
X117502027Y-79785472D01*
X117510199Y-79795429D01*
X117524061Y-79809291D01*
X117540360Y-79820182D01*
X117558471Y-79827684D01*
X117577698Y-79831508D01*
X117597301Y-79831509D01*
X117616528Y-79827684D01*
X117634639Y-79820182D01*
X117650938Y-79809292D01*
X117664801Y-79795429D01*
X117672973Y-79785472D01*
X117678656Y-79780807D01*
X117685144Y-79777340D01*
X117692183Y-79775204D01*
X117704410Y-79774000D01*
X117970590Y-79774000D01*
X117982817Y-79775204D01*
X117989856Y-79777340D01*
X117996344Y-79780807D01*
X118002027Y-79785472D01*
X118010199Y-79795429D01*
X118024061Y-79809291D01*
X118040360Y-79820182D01*
X118058471Y-79827684D01*
X118077698Y-79831508D01*
X118097301Y-79831509D01*
X118116528Y-79827684D01*
X118134639Y-79820182D01*
X118150938Y-79809292D01*
X118164801Y-79795429D01*
X118172973Y-79785472D01*
X118178656Y-79780807D01*
X118185144Y-79777340D01*
X118192183Y-79775204D01*
X118204410Y-79774000D01*
X118470590Y-79774000D01*
X118482817Y-79775204D01*
X118489856Y-79777340D01*
X118496344Y-79780807D01*
X118502027Y-79785472D01*
X118510199Y-79795429D01*
X118524061Y-79809291D01*
X118540360Y-79820182D01*
X118558471Y-79827684D01*
X118577698Y-79831508D01*
X118597301Y-79831509D01*
X118616528Y-79827684D01*
X118634639Y-79820182D01*
X118650938Y-79809292D01*
X118664801Y-79795429D01*
X118672973Y-79785472D01*
X118678656Y-79780807D01*
X118685144Y-79777340D01*
X118692183Y-79775204D01*
X118704410Y-79774000D01*
X118970590Y-79774000D01*
X118982817Y-79775204D01*
X118989856Y-79777340D01*
X118996344Y-79780807D01*
X119002027Y-79785472D01*
X119010199Y-79795429D01*
X119024061Y-79809291D01*
X119040360Y-79820182D01*
X119058471Y-79827684D01*
X119077698Y-79831508D01*
X119097301Y-79831509D01*
X119116528Y-79827684D01*
X119134639Y-79820182D01*
X119150938Y-79809292D01*
X119164801Y-79795429D01*
X119172973Y-79785472D01*
X119178656Y-79780807D01*
X119185144Y-79777340D01*
X119192183Y-79775204D01*
X119204410Y-79774000D01*
X119470590Y-79774000D01*
X119482817Y-79775204D01*
X119489856Y-79777340D01*
X119496344Y-79780807D01*
X119502028Y-79785472D01*
X119506693Y-79791156D01*
X119510160Y-79797644D01*
X119512296Y-79804683D01*
X119513500Y-79816910D01*
X119513500Y-80674001D01*
X119515421Y-80693510D01*
X119521112Y-80712269D01*
X119530353Y-80729557D01*
X119542789Y-80744711D01*
X119557943Y-80757147D01*
X119575231Y-80766388D01*
X119593990Y-80772079D01*
X119613499Y-80774000D01*
X120470590Y-80774000D01*
X120482817Y-80775204D01*
X120489856Y-80777340D01*
X120496344Y-80780807D01*
X120502028Y-80785472D01*
X120506693Y-80791156D01*
X120510160Y-80797644D01*
X120512296Y-80804683D01*
X120513500Y-80816910D01*
X120513500Y-81083090D01*
X120512296Y-81095317D01*
X120510160Y-81102356D01*
X120506693Y-81108844D01*
X120502028Y-81114527D01*
X120492071Y-81122699D01*
X120478209Y-81136561D01*
X120467318Y-81152860D01*
X120459816Y-81170971D01*
X120455992Y-81190198D01*
X120455991Y-81209801D01*
X120459816Y-81229028D01*
X120467318Y-81247139D01*
X120478208Y-81263438D01*
X120492071Y-81277301D01*
X120502028Y-81285473D01*
X120506693Y-81291156D01*
X120510160Y-81297644D01*
X120512296Y-81304683D01*
X120513500Y-81316910D01*
X120513500Y-81583090D01*
X120512296Y-81595317D01*
X120510160Y-81602356D01*
X120506693Y-81608844D01*
X120502028Y-81614527D01*
X120492071Y-81622699D01*
X120478209Y-81636561D01*
X120467318Y-81652860D01*
X120459816Y-81670971D01*
X120455992Y-81690198D01*
X120455991Y-81709801D01*
X120459816Y-81729028D01*
X120467318Y-81747139D01*
X120478208Y-81763438D01*
X120492071Y-81777301D01*
X120502028Y-81785473D01*
X120506693Y-81791156D01*
X120510160Y-81797644D01*
X120512296Y-81804683D01*
X120513500Y-81816910D01*
X120513500Y-82083090D01*
X120512296Y-82095317D01*
X120510160Y-82102356D01*
X120506693Y-82108844D01*
X120502028Y-82114527D01*
X120492071Y-82122699D01*
X120478209Y-82136561D01*
X120467318Y-82152860D01*
X120459816Y-82170971D01*
X120455992Y-82190198D01*
X120455991Y-82209801D01*
X120459816Y-82229028D01*
X120467318Y-82247139D01*
X120478208Y-82263438D01*
X120492071Y-82277301D01*
X120502028Y-82285473D01*
X120506693Y-82291156D01*
X120510160Y-82297644D01*
X120512296Y-82304683D01*
X120513500Y-82316910D01*
X120513500Y-82583090D01*
X120512296Y-82595317D01*
X120510160Y-82602356D01*
X120506693Y-82608844D01*
X120502028Y-82614527D01*
X120492071Y-82622699D01*
X120478209Y-82636561D01*
X120467318Y-82652860D01*
X120459816Y-82670971D01*
X120455992Y-82690198D01*
X120455991Y-82709801D01*
X120459816Y-82729028D01*
X120467318Y-82747139D01*
X120478208Y-82763438D01*
X120492071Y-82777301D01*
X120502028Y-82785473D01*
X120506693Y-82791156D01*
X120510160Y-82797644D01*
X120512296Y-82804683D01*
X120513500Y-82816910D01*
X120513500Y-83083090D01*
X120512296Y-83095317D01*
X120510160Y-83102356D01*
X120506693Y-83108844D01*
X120502028Y-83114527D01*
X120492071Y-83122699D01*
X120478209Y-83136561D01*
X120467318Y-83152860D01*
X120459816Y-83170971D01*
X120455992Y-83190198D01*
X120455991Y-83209801D01*
X120459816Y-83229028D01*
X120467318Y-83247139D01*
X120478208Y-83263438D01*
X120492071Y-83277301D01*
X120502028Y-83285473D01*
X120506693Y-83291156D01*
X120510160Y-83297644D01*
X120512296Y-83304683D01*
X120513500Y-83316910D01*
X120513500Y-83583090D01*
X120512296Y-83595317D01*
X120510160Y-83602356D01*
X120506693Y-83608844D01*
X120502028Y-83614527D01*
X120492071Y-83622699D01*
X120478209Y-83636561D01*
X120467318Y-83652860D01*
X120459816Y-83670971D01*
X120455992Y-83690198D01*
X120455991Y-83709801D01*
X120459816Y-83729028D01*
X120467318Y-83747139D01*
X120478208Y-83763438D01*
X120492071Y-83777301D01*
X120502028Y-83785473D01*
X120506693Y-83791156D01*
X120510160Y-83797644D01*
X120512296Y-83804683D01*
X120513500Y-83816910D01*
X120513500Y-84083090D01*
X120512296Y-84095317D01*
X120510160Y-84102356D01*
X120506693Y-84108844D01*
X120502028Y-84114527D01*
X120492071Y-84122699D01*
X120478209Y-84136561D01*
X120467318Y-84152860D01*
X120459816Y-84170971D01*
X120455992Y-84190198D01*
X120455991Y-84209801D01*
X120459816Y-84229028D01*
X120467318Y-84247139D01*
X120478208Y-84263438D01*
X120492071Y-84277301D01*
X120502028Y-84285473D01*
X120506693Y-84291156D01*
X120510160Y-84297644D01*
X120512296Y-84304683D01*
X120513500Y-84316910D01*
X120513500Y-84583090D01*
X120512296Y-84595317D01*
X120510160Y-84602356D01*
X120506693Y-84608844D01*
X120502028Y-84614527D01*
X120492071Y-84622699D01*
X120478209Y-84636561D01*
X120467318Y-84652860D01*
X120459816Y-84670971D01*
X120455992Y-84690198D01*
X120455991Y-84709801D01*
X120459816Y-84729028D01*
X120467318Y-84747139D01*
X120478208Y-84763438D01*
X120492071Y-84777301D01*
X120502028Y-84785473D01*
X120506693Y-84791156D01*
X120510160Y-84797644D01*
X120512296Y-84804683D01*
X120513500Y-84816910D01*
X120513500Y-85083090D01*
X120512296Y-85095317D01*
X120510160Y-85102356D01*
X120506693Y-85108844D01*
X120502028Y-85114527D01*
X120492071Y-85122699D01*
X120478209Y-85136561D01*
X120467318Y-85152860D01*
X120459816Y-85170971D01*
X120455992Y-85190198D01*
X120455991Y-85209801D01*
X120459816Y-85229028D01*
X120467318Y-85247139D01*
X120478208Y-85263438D01*
X120492071Y-85277301D01*
X120502028Y-85285473D01*
X120506693Y-85291156D01*
X120510160Y-85297644D01*
X120512296Y-85304683D01*
X120513500Y-85316910D01*
X120513500Y-85583090D01*
X120512296Y-85595317D01*
X120510160Y-85602356D01*
X120506693Y-85608844D01*
X120502028Y-85614527D01*
X120492071Y-85622699D01*
X120478209Y-85636561D01*
X120467318Y-85652860D01*
X120459816Y-85670971D01*
X120455992Y-85690198D01*
X120455991Y-85709801D01*
X120459816Y-85729028D01*
X120467318Y-85747139D01*
X120478208Y-85763438D01*
X120492071Y-85777301D01*
X120502028Y-85785473D01*
X120506693Y-85791156D01*
X120510160Y-85797644D01*
X120512296Y-85804683D01*
X120513500Y-85816910D01*
X120513500Y-86083090D01*
X120512296Y-86095317D01*
X120510160Y-86102356D01*
X120506693Y-86108844D01*
X120502028Y-86114527D01*
X120492071Y-86122699D01*
X120478209Y-86136561D01*
X120467318Y-86152860D01*
X120459816Y-86170971D01*
X120455992Y-86190198D01*
X120455991Y-86209801D01*
X120459816Y-86229028D01*
X120467318Y-86247139D01*
X120478208Y-86263438D01*
X120492071Y-86277301D01*
X120502028Y-86285473D01*
X120506693Y-86291156D01*
X120510160Y-86297644D01*
X120512296Y-86304683D01*
X120513500Y-86316910D01*
X120513500Y-86583090D01*
X120512296Y-86595317D01*
X120510160Y-86602356D01*
X120506693Y-86608844D01*
X120502028Y-86614528D01*
X120496344Y-86619193D01*
X120489856Y-86622660D01*
X120482817Y-86624796D01*
X120470590Y-86626000D01*
X119613499Y-86626000D01*
X119593990Y-86627921D01*
X119575231Y-86633612D01*
X119557943Y-86642853D01*
X119542789Y-86655289D01*
X119530353Y-86670443D01*
X119521112Y-86687731D01*
X119515421Y-86706490D01*
X119513500Y-86725999D01*
X119513500Y-87583090D01*
X119512296Y-87595317D01*
X119510160Y-87602356D01*
X119506693Y-87608844D01*
X119502028Y-87614528D01*
X119496344Y-87619193D01*
X119489856Y-87622660D01*
X119482817Y-87624796D01*
X119470590Y-87626000D01*
X119204410Y-87626000D01*
X119192183Y-87624796D01*
X119185144Y-87622660D01*
X119178656Y-87619193D01*
X119172973Y-87614528D01*
X119164801Y-87604571D01*
X119150939Y-87590709D01*
X119134640Y-87579818D01*
X119116529Y-87572316D01*
X119097302Y-87568492D01*
X119077699Y-87568491D01*
X119058472Y-87572316D01*
X119040361Y-87579818D01*
X119024062Y-87590708D01*
X119010199Y-87604571D01*
X119002027Y-87614528D01*
X118996344Y-87619193D01*
X118989856Y-87622660D01*
X118982817Y-87624796D01*
X118970590Y-87626000D01*
X118704410Y-87626000D01*
X118692183Y-87624796D01*
X118685144Y-87622660D01*
X118678656Y-87619193D01*
X118672973Y-87614528D01*
X118664801Y-87604571D01*
X118650939Y-87590709D01*
X118634640Y-87579818D01*
X118616529Y-87572316D01*
X118597302Y-87568492D01*
X118577699Y-87568491D01*
X118558472Y-87572316D01*
X118540361Y-87579818D01*
X118524062Y-87590708D01*
X118510199Y-87604571D01*
X118502027Y-87614528D01*
X118496344Y-87619193D01*
X118489856Y-87622660D01*
X118482817Y-87624796D01*
X118470590Y-87626000D01*
X118204410Y-87626000D01*
X118192183Y-87624796D01*
X118185144Y-87622660D01*
X118178656Y-87619193D01*
X118172973Y-87614528D01*
X118164801Y-87604571D01*
X118150939Y-87590709D01*
X118134640Y-87579818D01*
X118116529Y-87572316D01*
X118097302Y-87568492D01*
X118077699Y-87568491D01*
X118058472Y-87572316D01*
X118040361Y-87579818D01*
X118024062Y-87590708D01*
X118010199Y-87604571D01*
X118002027Y-87614528D01*
X117996344Y-87619193D01*
X117989856Y-87622660D01*
X117982817Y-87624796D01*
X117970590Y-87626000D01*
X117704410Y-87626000D01*
X117692183Y-87624796D01*
X117685144Y-87622660D01*
X117678656Y-87619193D01*
X117672973Y-87614528D01*
X117664801Y-87604571D01*
X117650939Y-87590709D01*
X117634640Y-87579818D01*
X117616529Y-87572316D01*
X117597302Y-87568492D01*
X117577699Y-87568491D01*
X117558472Y-87572316D01*
X117540361Y-87579818D01*
X117524062Y-87590708D01*
X117510199Y-87604571D01*
X117502027Y-87614528D01*
X117496344Y-87619193D01*
X117489856Y-87622660D01*
X117482817Y-87624796D01*
X117470590Y-87626000D01*
X117204410Y-87626000D01*
X117192183Y-87624796D01*
X117185144Y-87622660D01*
X117178656Y-87619193D01*
X117172973Y-87614528D01*
X117164801Y-87604571D01*
X117150939Y-87590709D01*
X117134640Y-87579818D01*
X117116529Y-87572316D01*
X117097302Y-87568492D01*
X117077699Y-87568491D01*
X117058472Y-87572316D01*
X117040361Y-87579818D01*
X117024062Y-87590708D01*
X117010199Y-87604571D01*
X117002027Y-87614528D01*
X116996344Y-87619193D01*
X116989856Y-87622660D01*
X116982817Y-87624796D01*
X116970590Y-87626000D01*
X116704410Y-87626000D01*
X116692183Y-87624796D01*
X116685144Y-87622660D01*
X116678656Y-87619193D01*
X116672973Y-87614528D01*
X116664801Y-87604571D01*
X116650939Y-87590709D01*
X116634640Y-87579818D01*
X116616529Y-87572316D01*
X116597302Y-87568492D01*
X116577699Y-87568491D01*
X116558472Y-87572316D01*
X116540361Y-87579818D01*
X116524062Y-87590708D01*
X116510199Y-87604571D01*
X116502027Y-87614528D01*
X116496344Y-87619193D01*
X116489856Y-87622660D01*
X116482817Y-87624796D01*
X116470590Y-87626000D01*
X116204410Y-87626000D01*
X116192183Y-87624796D01*
X116185144Y-87622660D01*
X116178656Y-87619193D01*
X116172973Y-87614528D01*
X116164801Y-87604571D01*
X116150939Y-87590709D01*
X116134640Y-87579818D01*
X116116529Y-87572316D01*
X116097302Y-87568492D01*
X116077699Y-87568491D01*
X116058472Y-87572316D01*
X116040361Y-87579818D01*
X116024062Y-87590708D01*
X116010199Y-87604571D01*
X116002027Y-87614528D01*
X115996344Y-87619193D01*
X115989856Y-87622660D01*
X115982817Y-87624796D01*
X115970590Y-87626000D01*
X115704410Y-87626000D01*
X115692183Y-87624796D01*
X115685144Y-87622660D01*
X115678656Y-87619193D01*
X115672973Y-87614528D01*
X115664801Y-87604571D01*
X115650939Y-87590709D01*
X115634640Y-87579818D01*
X115616529Y-87572316D01*
X115597302Y-87568492D01*
X115577699Y-87568491D01*
X115558472Y-87572316D01*
X115540361Y-87579818D01*
X115524062Y-87590708D01*
X115510199Y-87604571D01*
X115502027Y-87614528D01*
X115496344Y-87619193D01*
X115489856Y-87622660D01*
X115482817Y-87624796D01*
X115470590Y-87626000D01*
X115204410Y-87626000D01*
X115192183Y-87624796D01*
X115185144Y-87622660D01*
X115178656Y-87619193D01*
X115172973Y-87614528D01*
X115164801Y-87604571D01*
X115150939Y-87590709D01*
X115134640Y-87579818D01*
X115116529Y-87572316D01*
X115097302Y-87568492D01*
X115077699Y-87568491D01*
X115058472Y-87572316D01*
X115040361Y-87579818D01*
X115024062Y-87590708D01*
X115010199Y-87604571D01*
X115002027Y-87614528D01*
X114996344Y-87619193D01*
X114989856Y-87622660D01*
X114982817Y-87624796D01*
X114970590Y-87626000D01*
X114704410Y-87626000D01*
X114692183Y-87624796D01*
X114685144Y-87622660D01*
X114678656Y-87619193D01*
X114672973Y-87614528D01*
X114664801Y-87604571D01*
X114650939Y-87590709D01*
X114634640Y-87579818D01*
X114616529Y-87572316D01*
X114597302Y-87568492D01*
X114577699Y-87568491D01*
X114558472Y-87572316D01*
X114540361Y-87579818D01*
X114524062Y-87590708D01*
X114510199Y-87604571D01*
X114502027Y-87614528D01*
X114496344Y-87619193D01*
X114489856Y-87622660D01*
X114482817Y-87624796D01*
X114470590Y-87626000D01*
X114204410Y-87626000D01*
X114192183Y-87624796D01*
X114185144Y-87622660D01*
X114178656Y-87619193D01*
X114172973Y-87614528D01*
X114164801Y-87604571D01*
X114150939Y-87590709D01*
X114134640Y-87579818D01*
X114116529Y-87572316D01*
X114097302Y-87568492D01*
X114077699Y-87568491D01*
X114058472Y-87572316D01*
X114040361Y-87579818D01*
X114024062Y-87590708D01*
X114010199Y-87604571D01*
X114002027Y-87614528D01*
X113996344Y-87619193D01*
X113989856Y-87622660D01*
X113982817Y-87624796D01*
X113970590Y-87626000D01*
X113704410Y-87626000D01*
X113692183Y-87624796D01*
X113685144Y-87622660D01*
X113678656Y-87619193D01*
X113672972Y-87614528D01*
X113668307Y-87608844D01*
X113664840Y-87602356D01*
X113662704Y-87595317D01*
X113661500Y-87583090D01*
X113661500Y-86725999D01*
X113659579Y-86706490D01*
X113653888Y-86687731D01*
X113644647Y-86670443D01*
X113632211Y-86655289D01*
X113617057Y-86642853D01*
X113599769Y-86633612D01*
X113581010Y-86627921D01*
X113561501Y-86626000D01*
X112704410Y-86626000D01*
X112692183Y-86624796D01*
X112685144Y-86622660D01*
X112678656Y-86619193D01*
X112672972Y-86614528D01*
X112668307Y-86608844D01*
X112664840Y-86602356D01*
X112662704Y-86595317D01*
X112661500Y-86583090D01*
X112661500Y-86316910D01*
X112662704Y-86304683D01*
X112664840Y-86297644D01*
X112668307Y-86291156D01*
X112672972Y-86285473D01*
X112682929Y-86277301D01*
X112696791Y-86263439D01*
X112707682Y-86247140D01*
X112715184Y-86229029D01*
X112719008Y-86209802D01*
X112719009Y-86190199D01*
X112715184Y-86170972D01*
X112707682Y-86152861D01*
X112696792Y-86136562D01*
X112682929Y-86122699D01*
X112672972Y-86114527D01*
X112668307Y-86108844D01*
X112664840Y-86102356D01*
X112662704Y-86095317D01*
X112661500Y-86083090D01*
X112661500Y-85816910D01*
X112662704Y-85804683D01*
X112664840Y-85797644D01*
X112668307Y-85791156D01*
X112672972Y-85785473D01*
X112682929Y-85777301D01*
X112696791Y-85763439D01*
X112707682Y-85747140D01*
X112715184Y-85729029D01*
X112719008Y-85709802D01*
X112719009Y-85690199D01*
X112715184Y-85670972D01*
X112707682Y-85652861D01*
X112696792Y-85636562D01*
X112682929Y-85622699D01*
X112672972Y-85614527D01*
X112668307Y-85608844D01*
X112664840Y-85602356D01*
X112662704Y-85595317D01*
X112661500Y-85583090D01*
X112661500Y-85316910D01*
X112662704Y-85304683D01*
X112664840Y-85297644D01*
X112668307Y-85291156D01*
X112672972Y-85285473D01*
X112682929Y-85277301D01*
X112696791Y-85263439D01*
X112707682Y-85247140D01*
X112715184Y-85229029D01*
X112719008Y-85209802D01*
X112719009Y-85190199D01*
X112715184Y-85170972D01*
X112707682Y-85152861D01*
X112696792Y-85136562D01*
X112682929Y-85122699D01*
X112672972Y-85114527D01*
X112668307Y-85108844D01*
X112664840Y-85102356D01*
X112662704Y-85095317D01*
X112661500Y-85083090D01*
X112661500Y-84816910D01*
X112662704Y-84804683D01*
X112664840Y-84797644D01*
X112668307Y-84791156D01*
X112672972Y-84785473D01*
X112682929Y-84777301D01*
X112696791Y-84763439D01*
X112707682Y-84747140D01*
X112715184Y-84729029D01*
X112719008Y-84709802D01*
X112719009Y-84690199D01*
X112715184Y-84670972D01*
X112707682Y-84652861D01*
X112696792Y-84636562D01*
X112682929Y-84622699D01*
X112672972Y-84614527D01*
X112668307Y-84608844D01*
X112664840Y-84602356D01*
X112662704Y-84595317D01*
X112661500Y-84583090D01*
X112661500Y-84316910D01*
X112662704Y-84304683D01*
X112664840Y-84297644D01*
X112668307Y-84291156D01*
X112672972Y-84285473D01*
X112682929Y-84277301D01*
X112696791Y-84263439D01*
X112707682Y-84247140D01*
X112715184Y-84229029D01*
X112719008Y-84209802D01*
X112719009Y-84190199D01*
X112715184Y-84170972D01*
X112707682Y-84152861D01*
X112696792Y-84136562D01*
X112682929Y-84122699D01*
X112672972Y-84114527D01*
X112668307Y-84108844D01*
X112664840Y-84102356D01*
X112662704Y-84095317D01*
X112661500Y-84083090D01*
X112661500Y-83816910D01*
X112662704Y-83804683D01*
X112664840Y-83797644D01*
X112668307Y-83791156D01*
X112672972Y-83785473D01*
X112682929Y-83777301D01*
X112696791Y-83763439D01*
X112707682Y-83747140D01*
X112715184Y-83729029D01*
X112719008Y-83709802D01*
X112719009Y-83690199D01*
X112715184Y-83670972D01*
X112707682Y-83652861D01*
X112696792Y-83636562D01*
X112682929Y-83622699D01*
X112672972Y-83614527D01*
X112668307Y-83608844D01*
X112664840Y-83602356D01*
X112662704Y-83595317D01*
X112661500Y-83583090D01*
X112661500Y-83316910D01*
X112662704Y-83304683D01*
X112664840Y-83297644D01*
X112668307Y-83291156D01*
X112672972Y-83285473D01*
X112682929Y-83277301D01*
X112696791Y-83263439D01*
X112707682Y-83247140D01*
X112715184Y-83229029D01*
X112719008Y-83209802D01*
X112719009Y-83190199D01*
X112715184Y-83170972D01*
X112707682Y-83152861D01*
X112696792Y-83136562D01*
X112682929Y-83122699D01*
X112672972Y-83114527D01*
X112668307Y-83108844D01*
X112664840Y-83102356D01*
X112662704Y-83095317D01*
X112661500Y-83083090D01*
X112661500Y-82816910D01*
X112662704Y-82804683D01*
X112664840Y-82797644D01*
X112668307Y-82791156D01*
X112672972Y-82785473D01*
X112682929Y-82777301D01*
X112696791Y-82763439D01*
X112707682Y-82747140D01*
X112715184Y-82729029D01*
X112719008Y-82709802D01*
X112719009Y-82690199D01*
X112715184Y-82670972D01*
X112707682Y-82652861D01*
X112696792Y-82636562D01*
X112682929Y-82622699D01*
X112672972Y-82614527D01*
X112668307Y-82608844D01*
X112664840Y-82602356D01*
X112662704Y-82595317D01*
X112661500Y-82583090D01*
X112661500Y-82316910D01*
X112662704Y-82304683D01*
X112664840Y-82297644D01*
X112668307Y-82291156D01*
X112672972Y-82285473D01*
X112682929Y-82277301D01*
X112696791Y-82263439D01*
X112707682Y-82247140D01*
X112715184Y-82229029D01*
X112719008Y-82209802D01*
X112719009Y-82190199D01*
X112715184Y-82170972D01*
X112707682Y-82152861D01*
X112696792Y-82136562D01*
X112682929Y-82122699D01*
X112672972Y-82114527D01*
X112668307Y-82108844D01*
X112664840Y-82102356D01*
X112662704Y-82095317D01*
X112661500Y-82083090D01*
X112661500Y-81816910D01*
X112662704Y-81804683D01*
X112664840Y-81797644D01*
X112668307Y-81791156D01*
X112672972Y-81785473D01*
X112682929Y-81777301D01*
X112696791Y-81763439D01*
X112707682Y-81747140D01*
X112715184Y-81729029D01*
X112719008Y-81709802D01*
X112719009Y-81690199D01*
X112715184Y-81670972D01*
X112707682Y-81652861D01*
X112696792Y-81636562D01*
X112682929Y-81622699D01*
X112672972Y-81614527D01*
X112668307Y-81608844D01*
X112664840Y-81602356D01*
X112662704Y-81595317D01*
X112661500Y-81583090D01*
X112661500Y-81316910D01*
X112662704Y-81304683D01*
X112664840Y-81297644D01*
X112668307Y-81291156D01*
X112672972Y-81285473D01*
X112682929Y-81277301D01*
X112696791Y-81263439D01*
X112707682Y-81247140D01*
X112715184Y-81229029D01*
X112719008Y-81209802D01*
X112719009Y-81190199D01*
X112715184Y-81170972D01*
X112707682Y-81152861D01*
X112696792Y-81136562D01*
X112682929Y-81122699D01*
X112672972Y-81114527D01*
X112668307Y-81108844D01*
X112664840Y-81102356D01*
X112662704Y-81095317D01*
X112661500Y-81083090D01*
X112661500Y-80816910D01*
X112662704Y-80804683D01*
X112664840Y-80797644D01*
X112668307Y-80791156D01*
X112672972Y-80785472D01*
X112678656Y-80780807D01*
X112685144Y-80777340D01*
X112692183Y-80775204D01*
X112704410Y-80774000D01*
X113561501Y-80774000D01*
X113581010Y-80772079D01*
X113599769Y-80766388D01*
X113617057Y-80757147D01*
X113632211Y-80744711D01*
X113644647Y-80729557D01*
X113653888Y-80712269D01*
X113659579Y-80693510D01*
X113661500Y-80674001D01*
X113661500Y-79816910D01*
X113662704Y-79804683D01*
X113664840Y-79797644D01*
X113668307Y-79791156D01*
X113672972Y-79785472D01*
X113678656Y-79780807D01*
X113685144Y-79777340D01*
X113692183Y-79775204D01*
X113704410Y-79774000D01*
X113970590Y-79774000D01*
X113982817Y-79775204D01*
G37*
G36*
X107632140Y-85658612D02*
G01*
X107748228Y-85681703D01*
X107903100Y-85745853D01*
X108042481Y-85838985D01*
X108161015Y-85957519D01*
X108254147Y-86096900D01*
X108318297Y-86251772D01*
X108333524Y-86328324D01*
X108351000Y-86416182D01*
X108351000Y-86583818D01*
X108346022Y-86608844D01*
X108318297Y-86748228D01*
X108254147Y-86903100D01*
X108161015Y-87042481D01*
X108042481Y-87161015D01*
X107903100Y-87254147D01*
X107748228Y-87318297D01*
X107649581Y-87337919D01*
X107583818Y-87351000D01*
X107416182Y-87351000D01*
X107350419Y-87337919D01*
X107251772Y-87318297D01*
X107096900Y-87254147D01*
X106957519Y-87161015D01*
X106838985Y-87042481D01*
X106745853Y-86903100D01*
X106681703Y-86748228D01*
X106653978Y-86608844D01*
X106649000Y-86583818D01*
X106649000Y-86416182D01*
X106666476Y-86328324D01*
X106681703Y-86251772D01*
X106745853Y-86096900D01*
X106838985Y-85957519D01*
X106957519Y-85838985D01*
X107096900Y-85745853D01*
X107251772Y-85681703D01*
X107367860Y-85658612D01*
X107416182Y-85649000D01*
X107583818Y-85649000D01*
X107632140Y-85658612D01*
G37*
G36*
X110632140Y-85658612D02*
G01*
X110748228Y-85681703D01*
X110903100Y-85745853D01*
X111042481Y-85838985D01*
X111161015Y-85957519D01*
X111254147Y-86096900D01*
X111318297Y-86251772D01*
X111333524Y-86328324D01*
X111351000Y-86416182D01*
X111351000Y-86583818D01*
X111346022Y-86608844D01*
X111318297Y-86748228D01*
X111254147Y-86903100D01*
X111161015Y-87042481D01*
X111042481Y-87161015D01*
X110903100Y-87254147D01*
X110748228Y-87318297D01*
X110649581Y-87337919D01*
X110583818Y-87351000D01*
X110416182Y-87351000D01*
X110350419Y-87337919D01*
X110251772Y-87318297D01*
X110096900Y-87254147D01*
X109957519Y-87161015D01*
X109838985Y-87042481D01*
X109745853Y-86903100D01*
X109681703Y-86748228D01*
X109653978Y-86608844D01*
X109649000Y-86583818D01*
X109649000Y-86416182D01*
X109666476Y-86328324D01*
X109681703Y-86251772D01*
X109745853Y-86096900D01*
X109838985Y-85957519D01*
X109957519Y-85838985D01*
X110096900Y-85745853D01*
X110251772Y-85681703D01*
X110367860Y-85658612D01*
X110416182Y-85649000D01*
X110583818Y-85649000D01*
X110632140Y-85658612D01*
G37*
G36*
X103201000Y-80251000D02*
G01*
X101850999Y-80251000D01*
X101831490Y-80252921D01*
X101812731Y-80258612D01*
X101795443Y-80267853D01*
X101780289Y-80280289D01*
X101767853Y-80295443D01*
X101758612Y-80312731D01*
X101752921Y-80331490D01*
X101751000Y-80350999D01*
X101751000Y-80699001D01*
X101752921Y-80718510D01*
X101758612Y-80737269D01*
X101767853Y-80754557D01*
X101780289Y-80769711D01*
X101795443Y-80782147D01*
X101812731Y-80791388D01*
X101831490Y-80797079D01*
X101850999Y-80799000D01*
X103201000Y-80799000D01*
X103201000Y-84001000D01*
X101850999Y-84001000D01*
X101831490Y-84002921D01*
X101812731Y-84008612D01*
X101795443Y-84017853D01*
X101780289Y-84030289D01*
X101767853Y-84045443D01*
X101758612Y-84062731D01*
X101752921Y-84081490D01*
X101751000Y-84100999D01*
X101751000Y-84449001D01*
X101752921Y-84468510D01*
X101758612Y-84487269D01*
X101767853Y-84504557D01*
X101780289Y-84519711D01*
X101795443Y-84532147D01*
X101812731Y-84541388D01*
X101831490Y-84547079D01*
X101850999Y-84549000D01*
X103201000Y-84549000D01*
X103201000Y-86401000D01*
X101799000Y-86401000D01*
X101799000Y-85750999D01*
X101797079Y-85731490D01*
X101791388Y-85712731D01*
X101782147Y-85695443D01*
X101769711Y-85680289D01*
X101754557Y-85667853D01*
X101737269Y-85658612D01*
X101718510Y-85652921D01*
X101699001Y-85651000D01*
X99349000Y-85651000D01*
X99349000Y-83299000D01*
X101699001Y-83299000D01*
X101718510Y-83297079D01*
X101737269Y-83291388D01*
X101754557Y-83282147D01*
X101769711Y-83269711D01*
X101782147Y-83254557D01*
X101791388Y-83237269D01*
X101797079Y-83218510D01*
X101799000Y-83199001D01*
X101799000Y-81600999D01*
X101797079Y-81581490D01*
X101791388Y-81562731D01*
X101782147Y-81545443D01*
X101769711Y-81530289D01*
X101754557Y-81517853D01*
X101737269Y-81508612D01*
X101718510Y-81502921D01*
X101699001Y-81501000D01*
X99349000Y-81501000D01*
X99349000Y-79149000D01*
X101699001Y-79149000D01*
X101718510Y-79147079D01*
X101737269Y-79141388D01*
X101754557Y-79132147D01*
X101769711Y-79119711D01*
X101782147Y-79104557D01*
X101791388Y-79087269D01*
X101797079Y-79068510D01*
X101799000Y-79049001D01*
X101799000Y-78399000D01*
X103201000Y-78399000D01*
X103201000Y-80251000D01*
G37*
G36*
X105469552Y-85415707D02*
G01*
X105505898Y-85426732D01*
X105539401Y-85444640D01*
X105568763Y-85468737D01*
X105592860Y-85498099D01*
X105610768Y-85531602D01*
X105621793Y-85567948D01*
X105626000Y-85610658D01*
X105626000Y-86189342D01*
X105621793Y-86232052D01*
X105610768Y-86268398D01*
X105592860Y-86301901D01*
X105568763Y-86331263D01*
X105539401Y-86355360D01*
X105505898Y-86373268D01*
X105469552Y-86384293D01*
X105426842Y-86388500D01*
X104773158Y-86388500D01*
X104730448Y-86384293D01*
X104694102Y-86373268D01*
X104660599Y-86355360D01*
X104631237Y-86331263D01*
X104607140Y-86301901D01*
X104589232Y-86268398D01*
X104578207Y-86232052D01*
X104574000Y-86189342D01*
X104574000Y-85610658D01*
X104578207Y-85567948D01*
X104589232Y-85531602D01*
X104607140Y-85498099D01*
X104631237Y-85468737D01*
X104660599Y-85444640D01*
X104694102Y-85426732D01*
X104730448Y-85415707D01*
X104773158Y-85411500D01*
X105426842Y-85411500D01*
X105469552Y-85415707D01*
G37*
G36*
X107649581Y-83162081D02*
G01*
X107748228Y-83181703D01*
X107903100Y-83245853D01*
X108042481Y-83338985D01*
X108161015Y-83457519D01*
X108254147Y-83596900D01*
X108318297Y-83751772D01*
X108333524Y-83828324D01*
X108351000Y-83916182D01*
X108351000Y-84083818D01*
X108343942Y-84119301D01*
X108318297Y-84248228D01*
X108254147Y-84403100D01*
X108161015Y-84542481D01*
X108042481Y-84661015D01*
X107903100Y-84754147D01*
X107748228Y-84818297D01*
X107649581Y-84837919D01*
X107583818Y-84851000D01*
X107416182Y-84851000D01*
X107350419Y-84837919D01*
X107251772Y-84818297D01*
X107096900Y-84754147D01*
X106957519Y-84661015D01*
X106838985Y-84542481D01*
X106745853Y-84403100D01*
X106681703Y-84248228D01*
X106656058Y-84119301D01*
X106649000Y-84083818D01*
X106649000Y-83916182D01*
X106666476Y-83828324D01*
X106681703Y-83751772D01*
X106745853Y-83596900D01*
X106838985Y-83457519D01*
X106957519Y-83338985D01*
X107096900Y-83245853D01*
X107251772Y-83181703D01*
X107350419Y-83162081D01*
X107416182Y-83149000D01*
X107583818Y-83149000D01*
X107649581Y-83162081D01*
G37*
G36*
X110649581Y-83162081D02*
G01*
X110748228Y-83181703D01*
X110903100Y-83245853D01*
X111042481Y-83338985D01*
X111161015Y-83457519D01*
X111254147Y-83596900D01*
X111318297Y-83751772D01*
X111333524Y-83828324D01*
X111351000Y-83916182D01*
X111351000Y-84083818D01*
X111343942Y-84119301D01*
X111318297Y-84248228D01*
X111254147Y-84403100D01*
X111161015Y-84542481D01*
X111042481Y-84661015D01*
X110903100Y-84754147D01*
X110748228Y-84818297D01*
X110649581Y-84837919D01*
X110583818Y-84851000D01*
X110416182Y-84851000D01*
X110350419Y-84837919D01*
X110251772Y-84818297D01*
X110096900Y-84754147D01*
X109957519Y-84661015D01*
X109838985Y-84542481D01*
X109745853Y-84403100D01*
X109681703Y-84248228D01*
X109656058Y-84119301D01*
X109649000Y-84083818D01*
X109649000Y-83916182D01*
X109666476Y-83828324D01*
X109681703Y-83751772D01*
X109745853Y-83596900D01*
X109838985Y-83457519D01*
X109957519Y-83338985D01*
X110096900Y-83245853D01*
X110251772Y-83181703D01*
X110350419Y-83162081D01*
X110416182Y-83149000D01*
X110583818Y-83149000D01*
X110649581Y-83162081D01*
G37*
G36*
X105469552Y-83840707D02*
G01*
X105505898Y-83851732D01*
X105539401Y-83869640D01*
X105568763Y-83893737D01*
X105592860Y-83923099D01*
X105610768Y-83956602D01*
X105621793Y-83992948D01*
X105626000Y-84035658D01*
X105626000Y-84614342D01*
X105621793Y-84657052D01*
X105610768Y-84693398D01*
X105592860Y-84726901D01*
X105568763Y-84756263D01*
X105539401Y-84780360D01*
X105505898Y-84798268D01*
X105469552Y-84809293D01*
X105426842Y-84813500D01*
X104773158Y-84813500D01*
X104730448Y-84809293D01*
X104694102Y-84798268D01*
X104660599Y-84780360D01*
X104631237Y-84756263D01*
X104607140Y-84726901D01*
X104589232Y-84693398D01*
X104578207Y-84657052D01*
X104574000Y-84614342D01*
X104574000Y-84035658D01*
X104578207Y-83992948D01*
X104589232Y-83956602D01*
X104607140Y-83923099D01*
X104631237Y-83893737D01*
X104660599Y-83869640D01*
X104694102Y-83851732D01*
X104730448Y-83840707D01*
X104773158Y-83836500D01*
X105426842Y-83836500D01*
X105469552Y-83840707D01*
G37*
G36*
X107649581Y-80662081D02*
G01*
X107748228Y-80681703D01*
X107903100Y-80745853D01*
X108042481Y-80838985D01*
X108161015Y-80957519D01*
X108254147Y-81096900D01*
X108318297Y-81251772D01*
X108333524Y-81328324D01*
X108351000Y-81416182D01*
X108351000Y-81583818D01*
X108343942Y-81619301D01*
X108318297Y-81748228D01*
X108254147Y-81903100D01*
X108161015Y-82042481D01*
X108042481Y-82161015D01*
X107903100Y-82254147D01*
X107748228Y-82318297D01*
X107649581Y-82337919D01*
X107583818Y-82351000D01*
X107416182Y-82351000D01*
X107350419Y-82337919D01*
X107251772Y-82318297D01*
X107096900Y-82254147D01*
X106957519Y-82161015D01*
X106838985Y-82042481D01*
X106745853Y-81903100D01*
X106681703Y-81748228D01*
X106656058Y-81619301D01*
X106649000Y-81583818D01*
X106649000Y-81416182D01*
X106666476Y-81328324D01*
X106681703Y-81251772D01*
X106745853Y-81096900D01*
X106838985Y-80957519D01*
X106957519Y-80838985D01*
X107096900Y-80745853D01*
X107251772Y-80681703D01*
X107350419Y-80662081D01*
X107416182Y-80649000D01*
X107583818Y-80649000D01*
X107649581Y-80662081D01*
G37*
G36*
X110649581Y-80662081D02*
G01*
X110748228Y-80681703D01*
X110903100Y-80745853D01*
X111042481Y-80838985D01*
X111161015Y-80957519D01*
X111254147Y-81096900D01*
X111318297Y-81251772D01*
X111333524Y-81328324D01*
X111351000Y-81416182D01*
X111351000Y-81583818D01*
X111343942Y-81619301D01*
X111318297Y-81748228D01*
X111254147Y-81903100D01*
X111161015Y-82042481D01*
X111042481Y-82161015D01*
X110903100Y-82254147D01*
X110748228Y-82318297D01*
X110649581Y-82337919D01*
X110583818Y-82351000D01*
X110416182Y-82351000D01*
X110350419Y-82337919D01*
X110251772Y-82318297D01*
X110096900Y-82254147D01*
X109957519Y-82161015D01*
X109838985Y-82042481D01*
X109745853Y-81903100D01*
X109681703Y-81748228D01*
X109656058Y-81619301D01*
X109649000Y-81583818D01*
X109649000Y-81416182D01*
X109666476Y-81328324D01*
X109681703Y-81251772D01*
X109745853Y-81096900D01*
X109838985Y-80957519D01*
X109957519Y-80838985D01*
X110096900Y-80745853D01*
X110251772Y-80681703D01*
X110350419Y-80662081D01*
X110416182Y-80649000D01*
X110583818Y-80649000D01*
X110649581Y-80662081D01*
G37*
G36*
X107649581Y-78162081D02*
G01*
X107748228Y-78181703D01*
X107903100Y-78245853D01*
X108042481Y-78338985D01*
X108161015Y-78457519D01*
X108254147Y-78596900D01*
X108318297Y-78751772D01*
X108337919Y-78850419D01*
X108351000Y-78916182D01*
X108351000Y-79083818D01*
X108346378Y-79107052D01*
X108318297Y-79248228D01*
X108254147Y-79403100D01*
X108161015Y-79542481D01*
X108042481Y-79661015D01*
X107903100Y-79754147D01*
X107748228Y-79818297D01*
X107649581Y-79837919D01*
X107583818Y-79851000D01*
X107416182Y-79851000D01*
X107350419Y-79837919D01*
X107251772Y-79818297D01*
X107096900Y-79754147D01*
X106957519Y-79661015D01*
X106838985Y-79542481D01*
X106745853Y-79403100D01*
X106681703Y-79248228D01*
X106653622Y-79107052D01*
X106649000Y-79083818D01*
X106649000Y-78916182D01*
X106662081Y-78850419D01*
X106681703Y-78751772D01*
X106745853Y-78596900D01*
X106838985Y-78457519D01*
X106957519Y-78338985D01*
X107096900Y-78245853D01*
X107251772Y-78181703D01*
X107350419Y-78162081D01*
X107416182Y-78149000D01*
X107583818Y-78149000D01*
X107649581Y-78162081D01*
G37*
G36*
X110649581Y-78162081D02*
G01*
X110748228Y-78181703D01*
X110903100Y-78245853D01*
X111042481Y-78338985D01*
X111161015Y-78457519D01*
X111254147Y-78596900D01*
X111318297Y-78751772D01*
X111337919Y-78850419D01*
X111351000Y-78916182D01*
X111351000Y-79083818D01*
X111346378Y-79107052D01*
X111318297Y-79248228D01*
X111254147Y-79403100D01*
X111161015Y-79542481D01*
X111042481Y-79661015D01*
X110903100Y-79754147D01*
X110748228Y-79818297D01*
X110649581Y-79837919D01*
X110583818Y-79851000D01*
X110416182Y-79851000D01*
X110350419Y-79837919D01*
X110251772Y-79818297D01*
X110096900Y-79754147D01*
X109957519Y-79661015D01*
X109838985Y-79542481D01*
X109745853Y-79403100D01*
X109681703Y-79248228D01*
X109653622Y-79107052D01*
X109649000Y-79083818D01*
X109649000Y-78916182D01*
X109662081Y-78850419D01*
X109681703Y-78751772D01*
X109745853Y-78596900D01*
X109838985Y-78457519D01*
X109957519Y-78338985D01*
X110096900Y-78245853D01*
X110251772Y-78181703D01*
X110350419Y-78162081D01*
X110416182Y-78149000D01*
X110583818Y-78149000D01*
X110649581Y-78162081D01*
G37*
G36*
X113319552Y-78290707D02*
G01*
X113355898Y-78301732D01*
X113389401Y-78319640D01*
X113418763Y-78343737D01*
X113442860Y-78373099D01*
X113460768Y-78406602D01*
X113471793Y-78442948D01*
X113476000Y-78485658D01*
X113476000Y-79064342D01*
X113471793Y-79107052D01*
X113460768Y-79143398D01*
X113442860Y-79176901D01*
X113418763Y-79206263D01*
X113389401Y-79230360D01*
X113355898Y-79248268D01*
X113319552Y-79259293D01*
X113276842Y-79263500D01*
X112623158Y-79263500D01*
X112580448Y-79259293D01*
X112544102Y-79248268D01*
X112510599Y-79230360D01*
X112481237Y-79206263D01*
X112457140Y-79176901D01*
X112439232Y-79143398D01*
X112428207Y-79107052D01*
X112424000Y-79064342D01*
X112424000Y-78485658D01*
X112428207Y-78442948D01*
X112439232Y-78406602D01*
X112457140Y-78373099D01*
X112481237Y-78343737D01*
X112510599Y-78319640D01*
X112544102Y-78301732D01*
X112580448Y-78290707D01*
X112623158Y-78286500D01*
X113276842Y-78286500D01*
X113319552Y-78290707D01*
G37*
G36*
X121119552Y-77678207D02*
G01*
X121155898Y-77689232D01*
X121189401Y-77707140D01*
X121218763Y-77731237D01*
X121242860Y-77760599D01*
X121260768Y-77794102D01*
X121271793Y-77830448D01*
X121276000Y-77873158D01*
X121276000Y-78526842D01*
X121271793Y-78569552D01*
X121260768Y-78605898D01*
X121242860Y-78639401D01*
X121218763Y-78668763D01*
X121189401Y-78692860D01*
X121155898Y-78710768D01*
X121119552Y-78721793D01*
X121076842Y-78726000D01*
X120498158Y-78726000D01*
X120455448Y-78721793D01*
X120419102Y-78710768D01*
X120385599Y-78692860D01*
X120356237Y-78668763D01*
X120332140Y-78639401D01*
X120314232Y-78605898D01*
X120303207Y-78569552D01*
X120299000Y-78526842D01*
X120299000Y-77873158D01*
X120303207Y-77830448D01*
X120314232Y-77794102D01*
X120332140Y-77760599D01*
X120356237Y-77731237D01*
X120385599Y-77707140D01*
X120419102Y-77689232D01*
X120455448Y-77678207D01*
X120498158Y-77674000D01*
X121076842Y-77674000D01*
X121119552Y-77678207D01*
G37*
G36*
X119544552Y-77678207D02*
G01*
X119580898Y-77689232D01*
X119614401Y-77707140D01*
X119643763Y-77731237D01*
X119667860Y-77760599D01*
X119685768Y-77794102D01*
X119696793Y-77830448D01*
X119701000Y-77873158D01*
X119701000Y-78526842D01*
X119696793Y-78569552D01*
X119685768Y-78605898D01*
X119667860Y-78639401D01*
X119643763Y-78668763D01*
X119614401Y-78692860D01*
X119580898Y-78710768D01*
X119544552Y-78721793D01*
X119501842Y-78726000D01*
X118923158Y-78726000D01*
X118880448Y-78721793D01*
X118844102Y-78710768D01*
X118810599Y-78692860D01*
X118781237Y-78668763D01*
X118757140Y-78639401D01*
X118739232Y-78605898D01*
X118728207Y-78569552D01*
X118724000Y-78526842D01*
X118724000Y-77873158D01*
X118728207Y-77830448D01*
X118739232Y-77794102D01*
X118757140Y-77760599D01*
X118781237Y-77731237D01*
X118810599Y-77707140D01*
X118844102Y-77689232D01*
X118880448Y-77678207D01*
X118923158Y-77674000D01*
X119501842Y-77674000D01*
X119544552Y-77678207D01*
G37*
G36*
X103907052Y-76878207D02*
G01*
X103943398Y-76889232D01*
X103976901Y-76907140D01*
X104006263Y-76931237D01*
X104030360Y-76960599D01*
X104048268Y-76994102D01*
X104059293Y-77030448D01*
X104063500Y-77073158D01*
X104063500Y-77726842D01*
X104059293Y-77769552D01*
X104048268Y-77805898D01*
X104030360Y-77839401D01*
X104006263Y-77868763D01*
X103976901Y-77892860D01*
X103943398Y-77910768D01*
X103907052Y-77921793D01*
X103864342Y-77926000D01*
X103285658Y-77926000D01*
X103242948Y-77921793D01*
X103206602Y-77910768D01*
X103173099Y-77892860D01*
X103143737Y-77868763D01*
X103119640Y-77839401D01*
X103101732Y-77805898D01*
X103090707Y-77769552D01*
X103086500Y-77726842D01*
X103086500Y-77073158D01*
X103090707Y-77030448D01*
X103101732Y-76994102D01*
X103119640Y-76960599D01*
X103143737Y-76931237D01*
X103173099Y-76907140D01*
X103206602Y-76889232D01*
X103242948Y-76878207D01*
X103285658Y-76874000D01*
X103864342Y-76874000D01*
X103907052Y-76878207D01*
G37*
G36*
X102332052Y-76878207D02*
G01*
X102368398Y-76889232D01*
X102401901Y-76907140D01*
X102431263Y-76931237D01*
X102455360Y-76960599D01*
X102473268Y-76994102D01*
X102484293Y-77030448D01*
X102488500Y-77073158D01*
X102488500Y-77726842D01*
X102484293Y-77769552D01*
X102473268Y-77805898D01*
X102455360Y-77839401D01*
X102431263Y-77868763D01*
X102401901Y-77892860D01*
X102368398Y-77910768D01*
X102332052Y-77921793D01*
X102289342Y-77926000D01*
X101710658Y-77926000D01*
X101667948Y-77921793D01*
X101631602Y-77910768D01*
X101598099Y-77892860D01*
X101568737Y-77868763D01*
X101544640Y-77839401D01*
X101526732Y-77805898D01*
X101515707Y-77769552D01*
X101511500Y-77726842D01*
X101511500Y-77073158D01*
X101515707Y-77030448D01*
X101526732Y-76994102D01*
X101544640Y-76960599D01*
X101568737Y-76931237D01*
X101598099Y-76907140D01*
X101631602Y-76889232D01*
X101667948Y-76878207D01*
X101710658Y-76874000D01*
X102289342Y-76874000D01*
X102332052Y-76878207D01*
G37*
G36*
X113319552Y-76715707D02*
G01*
X113355898Y-76726732D01*
X113389401Y-76744640D01*
X113418763Y-76768737D01*
X113442860Y-76798099D01*
X113460768Y-76831602D01*
X113471793Y-76867948D01*
X113476000Y-76910658D01*
X113476000Y-77489342D01*
X113471793Y-77532052D01*
X113460768Y-77568398D01*
X113442860Y-77601901D01*
X113418763Y-77631263D01*
X113389401Y-77655360D01*
X113355898Y-77673268D01*
X113319552Y-77684293D01*
X113276842Y-77688500D01*
X112623158Y-77688500D01*
X112580448Y-77684293D01*
X112544102Y-77673268D01*
X112510599Y-77655360D01*
X112481237Y-77631263D01*
X112457140Y-77601901D01*
X112439232Y-77568398D01*
X112428207Y-77532052D01*
X112424000Y-77489342D01*
X112424000Y-76910658D01*
X112428207Y-76867948D01*
X112439232Y-76831602D01*
X112457140Y-76798099D01*
X112481237Y-76768737D01*
X112510599Y-76744640D01*
X112544102Y-76726732D01*
X112580448Y-76715707D01*
X112623158Y-76711500D01*
X113276842Y-76711500D01*
X113319552Y-76715707D01*
G37*
G36*
X103919552Y-75328207D02*
G01*
X103955898Y-75339232D01*
X103989401Y-75357140D01*
X104018763Y-75381237D01*
X104042860Y-75410599D01*
X104060768Y-75444102D01*
X104071793Y-75480448D01*
X104076000Y-75523158D01*
X104076000Y-76176842D01*
X104071793Y-76219552D01*
X104060768Y-76255898D01*
X104042860Y-76289401D01*
X104018763Y-76318763D01*
X103989401Y-76342860D01*
X103955898Y-76360768D01*
X103919552Y-76371793D01*
X103876842Y-76376000D01*
X103298158Y-76376000D01*
X103255448Y-76371793D01*
X103219102Y-76360768D01*
X103185599Y-76342860D01*
X103156237Y-76318763D01*
X103132140Y-76289401D01*
X103114232Y-76255898D01*
X103103207Y-76219552D01*
X103099000Y-76176842D01*
X103099000Y-75523158D01*
X103103207Y-75480448D01*
X103114232Y-75444102D01*
X103132140Y-75410599D01*
X103156237Y-75381237D01*
X103185599Y-75357140D01*
X103219102Y-75339232D01*
X103255448Y-75328207D01*
X103298158Y-75324000D01*
X103876842Y-75324000D01*
X103919552Y-75328207D01*
G37*
G36*
X102344552Y-75328207D02*
G01*
X102380898Y-75339232D01*
X102414401Y-75357140D01*
X102443763Y-75381237D01*
X102467860Y-75410599D01*
X102485768Y-75444102D01*
X102496793Y-75480448D01*
X102501000Y-75523158D01*
X102501000Y-76176842D01*
X102496793Y-76219552D01*
X102485768Y-76255898D01*
X102467860Y-76289401D01*
X102443763Y-76318763D01*
X102414401Y-76342860D01*
X102380898Y-76360768D01*
X102344552Y-76371793D01*
X102301842Y-76376000D01*
X101723158Y-76376000D01*
X101680448Y-76371793D01*
X101644102Y-76360768D01*
X101610599Y-76342860D01*
X101581237Y-76318763D01*
X101557140Y-76289401D01*
X101539232Y-76255898D01*
X101528207Y-76219552D01*
X101524000Y-76176842D01*
X101524000Y-75523158D01*
X101528207Y-75480448D01*
X101539232Y-75444102D01*
X101557140Y-75410599D01*
X101581237Y-75381237D01*
X101610599Y-75357140D01*
X101644102Y-75339232D01*
X101680448Y-75328207D01*
X101723158Y-75324000D01*
X102301842Y-75324000D01*
X102344552Y-75328207D01*
G37*
G36*
X111769552Y-75228207D02*
G01*
X111805898Y-75239232D01*
X111839401Y-75257140D01*
X111868763Y-75281237D01*
X111892860Y-75310599D01*
X111910768Y-75344102D01*
X111921793Y-75380448D01*
X111926000Y-75423158D01*
X111926000Y-76076842D01*
X111921793Y-76119552D01*
X111910768Y-76155898D01*
X111892860Y-76189401D01*
X111868763Y-76218763D01*
X111839401Y-76242860D01*
X111805898Y-76260768D01*
X111769552Y-76271793D01*
X111726842Y-76276000D01*
X111148158Y-76276000D01*
X111105448Y-76271793D01*
X111069102Y-76260768D01*
X111035599Y-76242860D01*
X111006237Y-76218763D01*
X110982140Y-76189401D01*
X110964232Y-76155898D01*
X110953207Y-76119552D01*
X110949000Y-76076842D01*
X110949000Y-75423158D01*
X110953207Y-75380448D01*
X110964232Y-75344102D01*
X110982140Y-75310599D01*
X111006237Y-75281237D01*
X111035599Y-75257140D01*
X111069102Y-75239232D01*
X111105448Y-75228207D01*
X111148158Y-75224000D01*
X111726842Y-75224000D01*
X111769552Y-75228207D01*
G37*
G36*
X110194552Y-75228207D02*
G01*
X110230898Y-75239232D01*
X110264401Y-75257140D01*
X110293763Y-75281237D01*
X110317860Y-75310599D01*
X110335768Y-75344102D01*
X110346793Y-75380448D01*
X110351000Y-75423158D01*
X110351000Y-76076842D01*
X110346793Y-76119552D01*
X110335768Y-76155898D01*
X110317860Y-76189401D01*
X110293763Y-76218763D01*
X110264401Y-76242860D01*
X110230898Y-76260768D01*
X110194552Y-76271793D01*
X110151842Y-76276000D01*
X109573158Y-76276000D01*
X109530448Y-76271793D01*
X109494102Y-76260768D01*
X109460599Y-76242860D01*
X109431237Y-76218763D01*
X109407140Y-76189401D01*
X109389232Y-76155898D01*
X109378207Y-76119552D01*
X109374000Y-76076842D01*
X109374000Y-75423158D01*
X109378207Y-75380448D01*
X109389232Y-75344102D01*
X109407140Y-75310599D01*
X109431237Y-75281237D01*
X109460599Y-75257140D01*
X109494102Y-75239232D01*
X109530448Y-75228207D01*
X109573158Y-75224000D01*
X110151842Y-75224000D01*
X110194552Y-75228207D01*
G37*
G36*
X113244552Y-75228207D02*
G01*
X113280898Y-75239232D01*
X113314401Y-75257140D01*
X113343763Y-75281237D01*
X113367860Y-75310599D01*
X113385768Y-75344102D01*
X113396793Y-75380448D01*
X113401000Y-75423158D01*
X113401000Y-76076842D01*
X113396793Y-76119552D01*
X113385768Y-76155898D01*
X113367860Y-76189401D01*
X113343763Y-76218763D01*
X113314401Y-76242860D01*
X113280898Y-76260768D01*
X113244552Y-76271793D01*
X113201842Y-76276000D01*
X112623158Y-76276000D01*
X112580448Y-76271793D01*
X112544102Y-76260768D01*
X112510599Y-76242860D01*
X112481237Y-76218763D01*
X112457140Y-76189401D01*
X112439232Y-76155898D01*
X112428207Y-76119552D01*
X112424000Y-76076842D01*
X112424000Y-75423158D01*
X112428207Y-75380448D01*
X112439232Y-75344102D01*
X112457140Y-75310599D01*
X112481237Y-75281237D01*
X112510599Y-75257140D01*
X112544102Y-75239232D01*
X112580448Y-75228207D01*
X112623158Y-75224000D01*
X113201842Y-75224000D01*
X113244552Y-75228207D01*
G37*
G36*
X114819552Y-75228207D02*
G01*
X114855898Y-75239232D01*
X114889401Y-75257140D01*
X114918763Y-75281237D01*
X114942860Y-75310599D01*
X114960768Y-75344102D01*
X114971793Y-75380448D01*
X114976000Y-75423158D01*
X114976000Y-76076842D01*
X114971793Y-76119552D01*
X114960768Y-76155898D01*
X114942860Y-76189401D01*
X114918763Y-76218763D01*
X114889401Y-76242860D01*
X114855898Y-76260768D01*
X114819552Y-76271793D01*
X114776842Y-76276000D01*
X114198158Y-76276000D01*
X114155448Y-76271793D01*
X114119102Y-76260768D01*
X114085599Y-76242860D01*
X114056237Y-76218763D01*
X114032140Y-76189401D01*
X114014232Y-76155898D01*
X114003207Y-76119552D01*
X113999000Y-76076842D01*
X113999000Y-75423158D01*
X114003207Y-75380448D01*
X114014232Y-75344102D01*
X114032140Y-75310599D01*
X114056237Y-75281237D01*
X114085599Y-75257140D01*
X114119102Y-75239232D01*
X114155448Y-75228207D01*
X114198158Y-75224000D01*
X114776842Y-75224000D01*
X114819552Y-75228207D01*
G37*
G36*
X106481579Y-71912447D02*
G01*
X106782042Y-72036903D01*
X107052451Y-72217585D01*
X107282415Y-72447549D01*
X107463097Y-72717958D01*
X107587553Y-73018421D01*
X107651000Y-73337391D01*
X107651000Y-73662609D01*
X107587553Y-73981579D01*
X107463097Y-74282042D01*
X107282415Y-74552451D01*
X107052451Y-74782415D01*
X106782042Y-74963097D01*
X106481579Y-75087553D01*
X106162609Y-75151000D01*
X105837391Y-75151000D01*
X105518421Y-75087553D01*
X105217958Y-74963097D01*
X104947549Y-74782415D01*
X104717585Y-74552451D01*
X104536903Y-74282042D01*
X104412447Y-73981579D01*
X104349000Y-73662609D01*
X104349000Y-73337391D01*
X104412447Y-73018421D01*
X104536903Y-72717958D01*
X104717585Y-72447549D01*
X104947549Y-72217585D01*
X105217958Y-72036903D01*
X105518421Y-71912447D01*
X105837391Y-71849000D01*
X106162609Y-71849000D01*
X106481579Y-71912447D01*
G37*
G36*
X110194552Y-73678207D02*
G01*
X110230898Y-73689232D01*
X110264401Y-73707140D01*
X110293763Y-73731237D01*
X110317860Y-73760599D01*
X110335768Y-73794102D01*
X110346793Y-73830448D01*
X110351000Y-73873158D01*
X110351000Y-74526842D01*
X110346793Y-74569552D01*
X110335768Y-74605898D01*
X110317860Y-74639401D01*
X110293763Y-74668763D01*
X110264401Y-74692860D01*
X110230898Y-74710768D01*
X110194552Y-74721793D01*
X110151842Y-74726000D01*
X109573158Y-74726000D01*
X109530448Y-74721793D01*
X109494102Y-74710768D01*
X109460599Y-74692860D01*
X109431237Y-74668763D01*
X109407140Y-74639401D01*
X109389232Y-74605898D01*
X109378207Y-74569552D01*
X109374000Y-74526842D01*
X109374000Y-73873158D01*
X109378207Y-73830448D01*
X109389232Y-73794102D01*
X109407140Y-73760599D01*
X109431237Y-73731237D01*
X109460599Y-73707140D01*
X109494102Y-73689232D01*
X109530448Y-73678207D01*
X109573158Y-73674000D01*
X110151842Y-73674000D01*
X110194552Y-73678207D01*
G37*
G36*
X113207052Y-73678207D02*
G01*
X113243398Y-73689232D01*
X113276901Y-73707140D01*
X113306263Y-73731237D01*
X113330360Y-73760599D01*
X113348268Y-73794102D01*
X113359293Y-73830448D01*
X113363500Y-73873158D01*
X113363500Y-74526842D01*
X113359293Y-74569552D01*
X113348268Y-74605898D01*
X113330360Y-74639401D01*
X113306263Y-74668763D01*
X113276901Y-74692860D01*
X113243398Y-74710768D01*
X113207052Y-74721793D01*
X113164342Y-74726000D01*
X112585658Y-74726000D01*
X112542948Y-74721793D01*
X112506602Y-74710768D01*
X112473099Y-74692860D01*
X112443737Y-74668763D01*
X112419640Y-74639401D01*
X112401732Y-74605898D01*
X112390707Y-74569552D01*
X112386500Y-74526842D01*
X112386500Y-73873158D01*
X112390707Y-73830448D01*
X112401732Y-73794102D01*
X112419640Y-73760599D01*
X112443737Y-73731237D01*
X112473099Y-73707140D01*
X112506602Y-73689232D01*
X112542948Y-73678207D01*
X112585658Y-73674000D01*
X113164342Y-73674000D01*
X113207052Y-73678207D01*
G37*
G36*
X114782052Y-73678207D02*
G01*
X114818398Y-73689232D01*
X114851901Y-73707140D01*
X114881263Y-73731237D01*
X114905360Y-73760599D01*
X114923268Y-73794102D01*
X114934293Y-73830448D01*
X114938500Y-73873158D01*
X114938500Y-74526842D01*
X114934293Y-74569552D01*
X114923268Y-74605898D01*
X114905360Y-74639401D01*
X114881263Y-74668763D01*
X114851901Y-74692860D01*
X114818398Y-74710768D01*
X114782052Y-74721793D01*
X114739342Y-74726000D01*
X114160658Y-74726000D01*
X114117948Y-74721793D01*
X114081602Y-74710768D01*
X114048099Y-74692860D01*
X114018737Y-74668763D01*
X113994640Y-74639401D01*
X113976732Y-74605898D01*
X113965707Y-74569552D01*
X113961500Y-74526842D01*
X113961500Y-73873158D01*
X113965707Y-73830448D01*
X113976732Y-73794102D01*
X113994640Y-73760599D01*
X114018737Y-73731237D01*
X114048099Y-73707140D01*
X114081602Y-73689232D01*
X114117948Y-73678207D01*
X114160658Y-73674000D01*
X114739342Y-73674000D01*
X114782052Y-73678207D01*
G37*
G36*
X111769552Y-73678207D02*
G01*
X111805898Y-73689232D01*
X111839401Y-73707140D01*
X111868763Y-73731237D01*
X111892860Y-73760599D01*
X111910768Y-73794102D01*
X111921793Y-73830448D01*
X111926000Y-73873158D01*
X111926000Y-74526842D01*
X111921793Y-74569552D01*
X111910768Y-74605898D01*
X111892860Y-74639401D01*
X111868763Y-74668763D01*
X111839401Y-74692860D01*
X111805898Y-74710768D01*
X111769552Y-74721793D01*
X111726842Y-74726000D01*
X111148158Y-74726000D01*
X111105448Y-74721793D01*
X111069102Y-74710768D01*
X111035599Y-74692860D01*
X111006237Y-74668763D01*
X110982140Y-74639401D01*
X110964232Y-74605898D01*
X110953207Y-74569552D01*
X110949000Y-74526842D01*
X110949000Y-73873158D01*
X110953207Y-73830448D01*
X110964232Y-73794102D01*
X110982140Y-73760599D01*
X111006237Y-73731237D01*
X111035599Y-73707140D01*
X111069102Y-73689232D01*
X111105448Y-73678207D01*
X111148158Y-73674000D01*
X111726842Y-73674000D01*
X111769552Y-73678207D01*
G37*
G36*
X113244552Y-72128207D02*
G01*
X113280898Y-72139232D01*
X113314401Y-72157140D01*
X113343763Y-72181237D01*
X113367860Y-72210599D01*
X113385768Y-72244102D01*
X113396793Y-72280448D01*
X113401000Y-72323158D01*
X113401000Y-72976842D01*
X113396793Y-73019552D01*
X113385768Y-73055898D01*
X113367860Y-73089401D01*
X113343763Y-73118763D01*
X113314401Y-73142860D01*
X113280898Y-73160768D01*
X113244552Y-73171793D01*
X113201842Y-73176000D01*
X112623158Y-73176000D01*
X112580448Y-73171793D01*
X112544102Y-73160768D01*
X112510599Y-73142860D01*
X112481237Y-73118763D01*
X112457140Y-73089401D01*
X112439232Y-73055898D01*
X112428207Y-73019552D01*
X112424000Y-72976842D01*
X112424000Y-72323158D01*
X112428207Y-72280448D01*
X112439232Y-72244102D01*
X112457140Y-72210599D01*
X112481237Y-72181237D01*
X112510599Y-72157140D01*
X112544102Y-72139232D01*
X112580448Y-72128207D01*
X112623158Y-72124000D01*
X113201842Y-72124000D01*
X113244552Y-72128207D01*
G37*
G36*
X110244552Y-72128207D02*
G01*
X110280898Y-72139232D01*
X110314401Y-72157140D01*
X110343763Y-72181237D01*
X110367860Y-72210599D01*
X110385768Y-72244102D01*
X110396793Y-72280448D01*
X110401000Y-72323158D01*
X110401000Y-72976842D01*
X110396793Y-73019552D01*
X110385768Y-73055898D01*
X110367860Y-73089401D01*
X110343763Y-73118763D01*
X110314401Y-73142860D01*
X110280898Y-73160768D01*
X110244552Y-73171793D01*
X110201842Y-73176000D01*
X109623158Y-73176000D01*
X109580448Y-73171793D01*
X109544102Y-73160768D01*
X109510599Y-73142860D01*
X109481237Y-73118763D01*
X109457140Y-73089401D01*
X109439232Y-73055898D01*
X109428207Y-73019552D01*
X109424000Y-72976842D01*
X109424000Y-72323158D01*
X109428207Y-72280448D01*
X109439232Y-72244102D01*
X109457140Y-72210599D01*
X109481237Y-72181237D01*
X109510599Y-72157140D01*
X109544102Y-72139232D01*
X109580448Y-72128207D01*
X109623158Y-72124000D01*
X110201842Y-72124000D01*
X110244552Y-72128207D01*
G37*
G36*
X111819552Y-72128207D02*
G01*
X111855898Y-72139232D01*
X111889401Y-72157140D01*
X111918763Y-72181237D01*
X111942860Y-72210599D01*
X111960768Y-72244102D01*
X111971793Y-72280448D01*
X111976000Y-72323158D01*
X111976000Y-72976842D01*
X111971793Y-73019552D01*
X111960768Y-73055898D01*
X111942860Y-73089401D01*
X111918763Y-73118763D01*
X111889401Y-73142860D01*
X111855898Y-73160768D01*
X111819552Y-73171793D01*
X111776842Y-73176000D01*
X111198158Y-73176000D01*
X111155448Y-73171793D01*
X111119102Y-73160768D01*
X111085599Y-73142860D01*
X111056237Y-73118763D01*
X111032140Y-73089401D01*
X111014232Y-73055898D01*
X111003207Y-73019552D01*
X110999000Y-72976842D01*
X110999000Y-72323158D01*
X111003207Y-72280448D01*
X111014232Y-72244102D01*
X111032140Y-72210599D01*
X111056237Y-72181237D01*
X111085599Y-72157140D01*
X111119102Y-72139232D01*
X111155448Y-72128207D01*
X111198158Y-72124000D01*
X111776842Y-72124000D01*
X111819552Y-72128207D01*
G37*
G36*
X114819552Y-72128207D02*
G01*
X114855898Y-72139232D01*
X114889401Y-72157140D01*
X114918763Y-72181237D01*
X114942860Y-72210599D01*
X114960768Y-72244102D01*
X114971793Y-72280448D01*
X114976000Y-72323158D01*
X114976000Y-72976842D01*
X114971793Y-73019552D01*
X114960768Y-73055898D01*
X114942860Y-73089401D01*
X114918763Y-73118763D01*
X114889401Y-73142860D01*
X114855898Y-73160768D01*
X114819552Y-73171793D01*
X114776842Y-73176000D01*
X114198158Y-73176000D01*
X114155448Y-73171793D01*
X114119102Y-73160768D01*
X114085599Y-73142860D01*
X114056237Y-73118763D01*
X114032140Y-73089401D01*
X114014232Y-73055898D01*
X114003207Y-73019552D01*
X113999000Y-72976842D01*
X113999000Y-72323158D01*
X114003207Y-72280448D01*
X114014232Y-72244102D01*
X114032140Y-72210599D01*
X114056237Y-72181237D01*
X114085599Y-72157140D01*
X114119102Y-72139232D01*
X114155448Y-72128207D01*
X114198158Y-72124000D01*
X114776842Y-72124000D01*
X114819552Y-72128207D01*
G37*
G36*
X120961932Y-71603688D02*
G01*
X121002969Y-71616136D01*
X121040788Y-71636351D01*
X121073941Y-71663559D01*
X121101149Y-71696712D01*
X121121364Y-71734531D01*
X121133812Y-71775568D01*
X121138500Y-71823167D01*
X121138500Y-72876833D01*
X121133812Y-72924432D01*
X121121364Y-72965469D01*
X121101149Y-73003288D01*
X121073941Y-73036441D01*
X121040788Y-73063649D01*
X121002969Y-73083864D01*
X120961932Y-73096312D01*
X120914333Y-73101000D01*
X120285667Y-73101000D01*
X120238068Y-73096312D01*
X120197031Y-73083864D01*
X120159212Y-73063649D01*
X120126059Y-73036441D01*
X120098851Y-73003288D01*
X120078636Y-72965469D01*
X120066188Y-72924432D01*
X120061500Y-72876833D01*
X120061500Y-71823167D01*
X120066188Y-71775568D01*
X120078636Y-71734531D01*
X120098851Y-71696712D01*
X120126059Y-71663559D01*
X120159212Y-71636351D01*
X120197031Y-71616136D01*
X120238068Y-71603688D01*
X120285667Y-71599000D01*
X120914333Y-71599000D01*
X120961932Y-71603688D01*
G37*
G36*
X119086932Y-71603688D02*
G01*
X119127969Y-71616136D01*
X119165788Y-71636351D01*
X119198941Y-71663559D01*
X119226149Y-71696712D01*
X119246364Y-71734531D01*
X119258812Y-71775568D01*
X119263500Y-71823167D01*
X119263500Y-72876833D01*
X119258812Y-72924432D01*
X119246364Y-72965469D01*
X119226149Y-73003288D01*
X119198941Y-73036441D01*
X119165788Y-73063649D01*
X119127969Y-73083864D01*
X119086932Y-73096312D01*
X119039333Y-73101000D01*
X118410667Y-73101000D01*
X118363068Y-73096312D01*
X118322031Y-73083864D01*
X118284212Y-73063649D01*
X118251059Y-73036441D01*
X118223851Y-73003288D01*
X118203636Y-72965469D01*
X118191188Y-72924432D01*
X118186500Y-72876833D01*
X118186500Y-71823167D01*
X118191188Y-71775568D01*
X118203636Y-71734531D01*
X118223851Y-71696712D01*
X118251059Y-71663559D01*
X118284212Y-71636351D01*
X118322031Y-71616136D01*
X118363068Y-71603688D01*
X118410667Y-71599000D01*
X119039333Y-71599000D01*
X119086932Y-71603688D01*
G37*
M02*
