M48
; DRILL file {KiCad (5.1.5)-3} date 09/06/2020 3:56:02 PM
; FORMAT={3:3/ absolute / metric / suppress leading zeros}
; #@! TF.CreationDate,2020-06-09T15:56:02-06:00
; #@! TF.GenerationSoftware,Kicad,Pcbnew,(5.1.5)-3
; #@! TF.FileFunction,Plated,1,2,PTH
FMAT,2
METRIC,TZ
T1C0.300
T2C1.000
T3C1.100
%
G90
G05
T1
X99850Y-82450
X101425Y-106600
X101700Y-71500
X101775Y-96700
X101900Y-74600
X102000Y-100750
X102650Y-87424
X103475Y-74350
X104500Y-79300
X104700Y-99800
X105000Y-92900
X108500Y-72200
X108600Y-75520
X109050Y-101550
X109140Y-77000
X111850Y-80300
X112150Y-72250
X112150Y-73700
X112600Y-95100
X113800Y-104400
X113900Y-100700
X114200Y-77600
X114400Y-94100
X115600Y-100400
X115825Y-85450
X116950Y-91650
X117350Y-72600
X117350Y-90050
X118000Y-73700
X118000Y-95300
X118090Y-100200
X118200Y-91700
X118350Y-85550
X118500Y-101300
X118700Y-94600
X118700Y-76800
X119000Y-91700
X119600Y-90800
X120000Y-74250
X120000Y-76600
X120400Y-89200
X120450Y-91600
X120450Y-94600
X120600Y-87900
X121100Y-82800
X121100Y-101050
X121114Y-82024
X121300Y-85000
X121490Y-81350
T2
X119800Y-106100
T3
X107500Y-79000
X107500Y-81500
X107500Y-84000
X107500Y-86500
X107500Y-89000
X107500Y-91500
X107500Y-94000
X107500Y-96500
X107500Y-99000
X110500Y-79000
X110500Y-81500
X110500Y-84000
X110500Y-86500
X110500Y-89000
X110500Y-91500
X110500Y-94000
X110500Y-96500
X110500Y-99000
T0
M30
