G04 #@! TF.GenerationSoftware,KiCad,Pcbnew,(5.1.5)-3*
G04 #@! TF.CreationDate,2020-06-09T15:55:59-06:00*
G04 #@! TF.ProjectId,CruiseController,43727569-7365-4436-9f6e-74726f6c6c65,rev?*
G04 #@! TF.SameCoordinates,Original*
G04 #@! TF.FileFunction,Paste,Top*
G04 #@! TF.FilePolarity,Positive*
%FSLAX46Y46*%
G04 Gerber Fmt 4.6, Leading zero omitted, Abs format (unit mm)*
G04 Created by KiCad (PCBNEW (5.1.5)-3) date 2020-06-09 15:55:59*
%MOMM*%
%LPD*%
G04 APERTURE LIST*
%ADD10R,1.800000X1.000000*%
%ADD11C,0.100000*%
%ADD12R,0.600000X1.000000*%
%ADD13R,0.650000X0.350000*%
G04 APERTURE END LIST*
D10*
X119400000Y-81400000D03*
X119400000Y-83900000D03*
D11*
G36*
X116265191Y-83126053D02*
G01*
X116286426Y-83129203D01*
X116307250Y-83134419D01*
X116327462Y-83141651D01*
X116346868Y-83150830D01*
X116365281Y-83161866D01*
X116382524Y-83174654D01*
X116398430Y-83189070D01*
X116412846Y-83204976D01*
X116425634Y-83222219D01*
X116436670Y-83240632D01*
X116445849Y-83260038D01*
X116453081Y-83280250D01*
X116458297Y-83301074D01*
X116461447Y-83322309D01*
X116462500Y-83343750D01*
X116462500Y-83856250D01*
X116461447Y-83877691D01*
X116458297Y-83898926D01*
X116453081Y-83919750D01*
X116445849Y-83939962D01*
X116436670Y-83959368D01*
X116425634Y-83977781D01*
X116412846Y-83995024D01*
X116398430Y-84010930D01*
X116382524Y-84025346D01*
X116365281Y-84038134D01*
X116346868Y-84049170D01*
X116327462Y-84058349D01*
X116307250Y-84065581D01*
X116286426Y-84070797D01*
X116265191Y-84073947D01*
X116243750Y-84075000D01*
X115806250Y-84075000D01*
X115784809Y-84073947D01*
X115763574Y-84070797D01*
X115742750Y-84065581D01*
X115722538Y-84058349D01*
X115703132Y-84049170D01*
X115684719Y-84038134D01*
X115667476Y-84025346D01*
X115651570Y-84010930D01*
X115637154Y-83995024D01*
X115624366Y-83977781D01*
X115613330Y-83959368D01*
X115604151Y-83939962D01*
X115596919Y-83919750D01*
X115591703Y-83898926D01*
X115588553Y-83877691D01*
X115587500Y-83856250D01*
X115587500Y-83343750D01*
X115588553Y-83322309D01*
X115591703Y-83301074D01*
X115596919Y-83280250D01*
X115604151Y-83260038D01*
X115613330Y-83240632D01*
X115624366Y-83222219D01*
X115637154Y-83204976D01*
X115651570Y-83189070D01*
X115667476Y-83174654D01*
X115684719Y-83161866D01*
X115703132Y-83150830D01*
X115722538Y-83141651D01*
X115742750Y-83134419D01*
X115763574Y-83129203D01*
X115784809Y-83126053D01*
X115806250Y-83125000D01*
X116243750Y-83125000D01*
X116265191Y-83126053D01*
G37*
G36*
X117840191Y-83126053D02*
G01*
X117861426Y-83129203D01*
X117882250Y-83134419D01*
X117902462Y-83141651D01*
X117921868Y-83150830D01*
X117940281Y-83161866D01*
X117957524Y-83174654D01*
X117973430Y-83189070D01*
X117987846Y-83204976D01*
X118000634Y-83222219D01*
X118011670Y-83240632D01*
X118020849Y-83260038D01*
X118028081Y-83280250D01*
X118033297Y-83301074D01*
X118036447Y-83322309D01*
X118037500Y-83343750D01*
X118037500Y-83856250D01*
X118036447Y-83877691D01*
X118033297Y-83898926D01*
X118028081Y-83919750D01*
X118020849Y-83939962D01*
X118011670Y-83959368D01*
X118000634Y-83977781D01*
X117987846Y-83995024D01*
X117973430Y-84010930D01*
X117957524Y-84025346D01*
X117940281Y-84038134D01*
X117921868Y-84049170D01*
X117902462Y-84058349D01*
X117882250Y-84065581D01*
X117861426Y-84070797D01*
X117840191Y-84073947D01*
X117818750Y-84075000D01*
X117381250Y-84075000D01*
X117359809Y-84073947D01*
X117338574Y-84070797D01*
X117317750Y-84065581D01*
X117297538Y-84058349D01*
X117278132Y-84049170D01*
X117259719Y-84038134D01*
X117242476Y-84025346D01*
X117226570Y-84010930D01*
X117212154Y-83995024D01*
X117199366Y-83977781D01*
X117188330Y-83959368D01*
X117179151Y-83939962D01*
X117171919Y-83919750D01*
X117166703Y-83898926D01*
X117163553Y-83877691D01*
X117162500Y-83856250D01*
X117162500Y-83343750D01*
X117163553Y-83322309D01*
X117166703Y-83301074D01*
X117171919Y-83280250D01*
X117179151Y-83260038D01*
X117188330Y-83240632D01*
X117199366Y-83222219D01*
X117212154Y-83204976D01*
X117226570Y-83189070D01*
X117242476Y-83174654D01*
X117259719Y-83161866D01*
X117278132Y-83150830D01*
X117297538Y-83141651D01*
X117317750Y-83134419D01*
X117338574Y-83129203D01*
X117359809Y-83126053D01*
X117381250Y-83125000D01*
X117818750Y-83125000D01*
X117840191Y-83126053D01*
G37*
G36*
X116240191Y-81226053D02*
G01*
X116261426Y-81229203D01*
X116282250Y-81234419D01*
X116302462Y-81241651D01*
X116321868Y-81250830D01*
X116340281Y-81261866D01*
X116357524Y-81274654D01*
X116373430Y-81289070D01*
X116387846Y-81304976D01*
X116400634Y-81322219D01*
X116411670Y-81340632D01*
X116420849Y-81360038D01*
X116428081Y-81380250D01*
X116433297Y-81401074D01*
X116436447Y-81422309D01*
X116437500Y-81443750D01*
X116437500Y-81956250D01*
X116436447Y-81977691D01*
X116433297Y-81998926D01*
X116428081Y-82019750D01*
X116420849Y-82039962D01*
X116411670Y-82059368D01*
X116400634Y-82077781D01*
X116387846Y-82095024D01*
X116373430Y-82110930D01*
X116357524Y-82125346D01*
X116340281Y-82138134D01*
X116321868Y-82149170D01*
X116302462Y-82158349D01*
X116282250Y-82165581D01*
X116261426Y-82170797D01*
X116240191Y-82173947D01*
X116218750Y-82175000D01*
X115781250Y-82175000D01*
X115759809Y-82173947D01*
X115738574Y-82170797D01*
X115717750Y-82165581D01*
X115697538Y-82158349D01*
X115678132Y-82149170D01*
X115659719Y-82138134D01*
X115642476Y-82125346D01*
X115626570Y-82110930D01*
X115612154Y-82095024D01*
X115599366Y-82077781D01*
X115588330Y-82059368D01*
X115579151Y-82039962D01*
X115571919Y-82019750D01*
X115566703Y-81998926D01*
X115563553Y-81977691D01*
X115562500Y-81956250D01*
X115562500Y-81443750D01*
X115563553Y-81422309D01*
X115566703Y-81401074D01*
X115571919Y-81380250D01*
X115579151Y-81360038D01*
X115588330Y-81340632D01*
X115599366Y-81322219D01*
X115612154Y-81304976D01*
X115626570Y-81289070D01*
X115642476Y-81274654D01*
X115659719Y-81261866D01*
X115678132Y-81250830D01*
X115697538Y-81241651D01*
X115717750Y-81234419D01*
X115738574Y-81229203D01*
X115759809Y-81226053D01*
X115781250Y-81225000D01*
X116218750Y-81225000D01*
X116240191Y-81226053D01*
G37*
G36*
X117815191Y-81226053D02*
G01*
X117836426Y-81229203D01*
X117857250Y-81234419D01*
X117877462Y-81241651D01*
X117896868Y-81250830D01*
X117915281Y-81261866D01*
X117932524Y-81274654D01*
X117948430Y-81289070D01*
X117962846Y-81304976D01*
X117975634Y-81322219D01*
X117986670Y-81340632D01*
X117995849Y-81360038D01*
X118003081Y-81380250D01*
X118008297Y-81401074D01*
X118011447Y-81422309D01*
X118012500Y-81443750D01*
X118012500Y-81956250D01*
X118011447Y-81977691D01*
X118008297Y-81998926D01*
X118003081Y-82019750D01*
X117995849Y-82039962D01*
X117986670Y-82059368D01*
X117975634Y-82077781D01*
X117962846Y-82095024D01*
X117948430Y-82110930D01*
X117932524Y-82125346D01*
X117915281Y-82138134D01*
X117896868Y-82149170D01*
X117877462Y-82158349D01*
X117857250Y-82165581D01*
X117836426Y-82170797D01*
X117815191Y-82173947D01*
X117793750Y-82175000D01*
X117356250Y-82175000D01*
X117334809Y-82173947D01*
X117313574Y-82170797D01*
X117292750Y-82165581D01*
X117272538Y-82158349D01*
X117253132Y-82149170D01*
X117234719Y-82138134D01*
X117217476Y-82125346D01*
X117201570Y-82110930D01*
X117187154Y-82095024D01*
X117174366Y-82077781D01*
X117163330Y-82059368D01*
X117154151Y-82039962D01*
X117146919Y-82019750D01*
X117141703Y-81998926D01*
X117138553Y-81977691D01*
X117137500Y-81956250D01*
X117137500Y-81443750D01*
X117138553Y-81422309D01*
X117141703Y-81401074D01*
X117146919Y-81380250D01*
X117154151Y-81360038D01*
X117163330Y-81340632D01*
X117174366Y-81322219D01*
X117187154Y-81304976D01*
X117201570Y-81289070D01*
X117217476Y-81274654D01*
X117234719Y-81261866D01*
X117253132Y-81250830D01*
X117272538Y-81241651D01*
X117292750Y-81234419D01*
X117313574Y-81229203D01*
X117334809Y-81226053D01*
X117356250Y-81225000D01*
X117793750Y-81225000D01*
X117815191Y-81226053D01*
G37*
G36*
X112830142Y-76351174D02*
G01*
X112853803Y-76354684D01*
X112877007Y-76360496D01*
X112899529Y-76368554D01*
X112921153Y-76378782D01*
X112941670Y-76391079D01*
X112960883Y-76405329D01*
X112978607Y-76421393D01*
X112994671Y-76439117D01*
X113008921Y-76458330D01*
X113021218Y-76478847D01*
X113031446Y-76500471D01*
X113039504Y-76522993D01*
X113045316Y-76546197D01*
X113048826Y-76569858D01*
X113050000Y-76593750D01*
X113050000Y-77081250D01*
X113048826Y-77105142D01*
X113045316Y-77128803D01*
X113039504Y-77152007D01*
X113031446Y-77174529D01*
X113021218Y-77196153D01*
X113008921Y-77216670D01*
X112994671Y-77235883D01*
X112978607Y-77253607D01*
X112960883Y-77269671D01*
X112941670Y-77283921D01*
X112921153Y-77296218D01*
X112899529Y-77306446D01*
X112877007Y-77314504D01*
X112853803Y-77320316D01*
X112830142Y-77323826D01*
X112806250Y-77325000D01*
X111893750Y-77325000D01*
X111869858Y-77323826D01*
X111846197Y-77320316D01*
X111822993Y-77314504D01*
X111800471Y-77306446D01*
X111778847Y-77296218D01*
X111758330Y-77283921D01*
X111739117Y-77269671D01*
X111721393Y-77253607D01*
X111705329Y-77235883D01*
X111691079Y-77216670D01*
X111678782Y-77196153D01*
X111668554Y-77174529D01*
X111660496Y-77152007D01*
X111654684Y-77128803D01*
X111651174Y-77105142D01*
X111650000Y-77081250D01*
X111650000Y-76593750D01*
X111651174Y-76569858D01*
X111654684Y-76546197D01*
X111660496Y-76522993D01*
X111668554Y-76500471D01*
X111678782Y-76478847D01*
X111691079Y-76458330D01*
X111705329Y-76439117D01*
X111721393Y-76421393D01*
X111739117Y-76405329D01*
X111758330Y-76391079D01*
X111778847Y-76378782D01*
X111800471Y-76368554D01*
X111822993Y-76360496D01*
X111846197Y-76354684D01*
X111869858Y-76351174D01*
X111893750Y-76350000D01*
X112806250Y-76350000D01*
X112830142Y-76351174D01*
G37*
G36*
X112830142Y-74476174D02*
G01*
X112853803Y-74479684D01*
X112877007Y-74485496D01*
X112899529Y-74493554D01*
X112921153Y-74503782D01*
X112941670Y-74516079D01*
X112960883Y-74530329D01*
X112978607Y-74546393D01*
X112994671Y-74564117D01*
X113008921Y-74583330D01*
X113021218Y-74603847D01*
X113031446Y-74625471D01*
X113039504Y-74647993D01*
X113045316Y-74671197D01*
X113048826Y-74694858D01*
X113050000Y-74718750D01*
X113050000Y-75206250D01*
X113048826Y-75230142D01*
X113045316Y-75253803D01*
X113039504Y-75277007D01*
X113031446Y-75299529D01*
X113021218Y-75321153D01*
X113008921Y-75341670D01*
X112994671Y-75360883D01*
X112978607Y-75378607D01*
X112960883Y-75394671D01*
X112941670Y-75408921D01*
X112921153Y-75421218D01*
X112899529Y-75431446D01*
X112877007Y-75439504D01*
X112853803Y-75445316D01*
X112830142Y-75448826D01*
X112806250Y-75450000D01*
X111893750Y-75450000D01*
X111869858Y-75448826D01*
X111846197Y-75445316D01*
X111822993Y-75439504D01*
X111800471Y-75431446D01*
X111778847Y-75421218D01*
X111758330Y-75408921D01*
X111739117Y-75394671D01*
X111721393Y-75378607D01*
X111705329Y-75360883D01*
X111691079Y-75341670D01*
X111678782Y-75321153D01*
X111668554Y-75299529D01*
X111660496Y-75277007D01*
X111654684Y-75253803D01*
X111651174Y-75230142D01*
X111650000Y-75206250D01*
X111650000Y-74718750D01*
X111651174Y-74694858D01*
X111654684Y-74671197D01*
X111660496Y-74647993D01*
X111668554Y-74625471D01*
X111678782Y-74603847D01*
X111691079Y-74583330D01*
X111705329Y-74564117D01*
X111721393Y-74546393D01*
X111739117Y-74530329D01*
X111758330Y-74516079D01*
X111778847Y-74503782D01*
X111800471Y-74493554D01*
X111822993Y-74485496D01*
X111846197Y-74479684D01*
X111869858Y-74476174D01*
X111893750Y-74475000D01*
X112806250Y-74475000D01*
X112830142Y-74476174D01*
G37*
G36*
X113865191Y-97126053D02*
G01*
X113886426Y-97129203D01*
X113907250Y-97134419D01*
X113927462Y-97141651D01*
X113946868Y-97150830D01*
X113965281Y-97161866D01*
X113982524Y-97174654D01*
X113998430Y-97189070D01*
X114012846Y-97204976D01*
X114025634Y-97222219D01*
X114036670Y-97240632D01*
X114045849Y-97260038D01*
X114053081Y-97280250D01*
X114058297Y-97301074D01*
X114061447Y-97322309D01*
X114062500Y-97343750D01*
X114062500Y-97856250D01*
X114061447Y-97877691D01*
X114058297Y-97898926D01*
X114053081Y-97919750D01*
X114045849Y-97939962D01*
X114036670Y-97959368D01*
X114025634Y-97977781D01*
X114012846Y-97995024D01*
X113998430Y-98010930D01*
X113982524Y-98025346D01*
X113965281Y-98038134D01*
X113946868Y-98049170D01*
X113927462Y-98058349D01*
X113907250Y-98065581D01*
X113886426Y-98070797D01*
X113865191Y-98073947D01*
X113843750Y-98075000D01*
X113406250Y-98075000D01*
X113384809Y-98073947D01*
X113363574Y-98070797D01*
X113342750Y-98065581D01*
X113322538Y-98058349D01*
X113303132Y-98049170D01*
X113284719Y-98038134D01*
X113267476Y-98025346D01*
X113251570Y-98010930D01*
X113237154Y-97995024D01*
X113224366Y-97977781D01*
X113213330Y-97959368D01*
X113204151Y-97939962D01*
X113196919Y-97919750D01*
X113191703Y-97898926D01*
X113188553Y-97877691D01*
X113187500Y-97856250D01*
X113187500Y-97343750D01*
X113188553Y-97322309D01*
X113191703Y-97301074D01*
X113196919Y-97280250D01*
X113204151Y-97260038D01*
X113213330Y-97240632D01*
X113224366Y-97222219D01*
X113237154Y-97204976D01*
X113251570Y-97189070D01*
X113267476Y-97174654D01*
X113284719Y-97161866D01*
X113303132Y-97150830D01*
X113322538Y-97141651D01*
X113342750Y-97134419D01*
X113363574Y-97129203D01*
X113384809Y-97126053D01*
X113406250Y-97125000D01*
X113843750Y-97125000D01*
X113865191Y-97126053D01*
G37*
G36*
X115440191Y-97126053D02*
G01*
X115461426Y-97129203D01*
X115482250Y-97134419D01*
X115502462Y-97141651D01*
X115521868Y-97150830D01*
X115540281Y-97161866D01*
X115557524Y-97174654D01*
X115573430Y-97189070D01*
X115587846Y-97204976D01*
X115600634Y-97222219D01*
X115611670Y-97240632D01*
X115620849Y-97260038D01*
X115628081Y-97280250D01*
X115633297Y-97301074D01*
X115636447Y-97322309D01*
X115637500Y-97343750D01*
X115637500Y-97856250D01*
X115636447Y-97877691D01*
X115633297Y-97898926D01*
X115628081Y-97919750D01*
X115620849Y-97939962D01*
X115611670Y-97959368D01*
X115600634Y-97977781D01*
X115587846Y-97995024D01*
X115573430Y-98010930D01*
X115557524Y-98025346D01*
X115540281Y-98038134D01*
X115521868Y-98049170D01*
X115502462Y-98058349D01*
X115482250Y-98065581D01*
X115461426Y-98070797D01*
X115440191Y-98073947D01*
X115418750Y-98075000D01*
X114981250Y-98075000D01*
X114959809Y-98073947D01*
X114938574Y-98070797D01*
X114917750Y-98065581D01*
X114897538Y-98058349D01*
X114878132Y-98049170D01*
X114859719Y-98038134D01*
X114842476Y-98025346D01*
X114826570Y-98010930D01*
X114812154Y-97995024D01*
X114799366Y-97977781D01*
X114788330Y-97959368D01*
X114779151Y-97939962D01*
X114771919Y-97919750D01*
X114766703Y-97898926D01*
X114763553Y-97877691D01*
X114762500Y-97856250D01*
X114762500Y-97343750D01*
X114763553Y-97322309D01*
X114766703Y-97301074D01*
X114771919Y-97280250D01*
X114779151Y-97260038D01*
X114788330Y-97240632D01*
X114799366Y-97222219D01*
X114812154Y-97204976D01*
X114826570Y-97189070D01*
X114842476Y-97174654D01*
X114859719Y-97161866D01*
X114878132Y-97150830D01*
X114897538Y-97141651D01*
X114917750Y-97134419D01*
X114938574Y-97129203D01*
X114959809Y-97126053D01*
X114981250Y-97125000D01*
X115418750Y-97125000D01*
X115440191Y-97126053D01*
G37*
G36*
X116377691Y-86726053D02*
G01*
X116398926Y-86729203D01*
X116419750Y-86734419D01*
X116439962Y-86741651D01*
X116459368Y-86750830D01*
X116477781Y-86761866D01*
X116495024Y-86774654D01*
X116510930Y-86789070D01*
X116525346Y-86804976D01*
X116538134Y-86822219D01*
X116549170Y-86840632D01*
X116558349Y-86860038D01*
X116565581Y-86880250D01*
X116570797Y-86901074D01*
X116573947Y-86922309D01*
X116575000Y-86943750D01*
X116575000Y-87381250D01*
X116573947Y-87402691D01*
X116570797Y-87423926D01*
X116565581Y-87444750D01*
X116558349Y-87464962D01*
X116549170Y-87484368D01*
X116538134Y-87502781D01*
X116525346Y-87520024D01*
X116510930Y-87535930D01*
X116495024Y-87550346D01*
X116477781Y-87563134D01*
X116459368Y-87574170D01*
X116439962Y-87583349D01*
X116419750Y-87590581D01*
X116398926Y-87595797D01*
X116377691Y-87598947D01*
X116356250Y-87600000D01*
X115843750Y-87600000D01*
X115822309Y-87598947D01*
X115801074Y-87595797D01*
X115780250Y-87590581D01*
X115760038Y-87583349D01*
X115740632Y-87574170D01*
X115722219Y-87563134D01*
X115704976Y-87550346D01*
X115689070Y-87535930D01*
X115674654Y-87520024D01*
X115661866Y-87502781D01*
X115650830Y-87484368D01*
X115641651Y-87464962D01*
X115634419Y-87444750D01*
X115629203Y-87423926D01*
X115626053Y-87402691D01*
X115625000Y-87381250D01*
X115625000Y-86943750D01*
X115626053Y-86922309D01*
X115629203Y-86901074D01*
X115634419Y-86880250D01*
X115641651Y-86860038D01*
X115650830Y-86840632D01*
X115661866Y-86822219D01*
X115674654Y-86804976D01*
X115689070Y-86789070D01*
X115704976Y-86774654D01*
X115722219Y-86761866D01*
X115740632Y-86750830D01*
X115760038Y-86741651D01*
X115780250Y-86734419D01*
X115801074Y-86729203D01*
X115822309Y-86726053D01*
X115843750Y-86725000D01*
X116356250Y-86725000D01*
X116377691Y-86726053D01*
G37*
G36*
X116377691Y-88301053D02*
G01*
X116398926Y-88304203D01*
X116419750Y-88309419D01*
X116439962Y-88316651D01*
X116459368Y-88325830D01*
X116477781Y-88336866D01*
X116495024Y-88349654D01*
X116510930Y-88364070D01*
X116525346Y-88379976D01*
X116538134Y-88397219D01*
X116549170Y-88415632D01*
X116558349Y-88435038D01*
X116565581Y-88455250D01*
X116570797Y-88476074D01*
X116573947Y-88497309D01*
X116575000Y-88518750D01*
X116575000Y-88956250D01*
X116573947Y-88977691D01*
X116570797Y-88998926D01*
X116565581Y-89019750D01*
X116558349Y-89039962D01*
X116549170Y-89059368D01*
X116538134Y-89077781D01*
X116525346Y-89095024D01*
X116510930Y-89110930D01*
X116495024Y-89125346D01*
X116477781Y-89138134D01*
X116459368Y-89149170D01*
X116439962Y-89158349D01*
X116419750Y-89165581D01*
X116398926Y-89170797D01*
X116377691Y-89173947D01*
X116356250Y-89175000D01*
X115843750Y-89175000D01*
X115822309Y-89173947D01*
X115801074Y-89170797D01*
X115780250Y-89165581D01*
X115760038Y-89158349D01*
X115740632Y-89149170D01*
X115722219Y-89138134D01*
X115704976Y-89125346D01*
X115689070Y-89110930D01*
X115674654Y-89095024D01*
X115661866Y-89077781D01*
X115650830Y-89059368D01*
X115641651Y-89039962D01*
X115634419Y-89019750D01*
X115629203Y-88998926D01*
X115626053Y-88977691D01*
X115625000Y-88956250D01*
X115625000Y-88518750D01*
X115626053Y-88497309D01*
X115629203Y-88476074D01*
X115634419Y-88455250D01*
X115641651Y-88435038D01*
X115650830Y-88415632D01*
X115661866Y-88397219D01*
X115674654Y-88379976D01*
X115689070Y-88364070D01*
X115704976Y-88349654D01*
X115722219Y-88336866D01*
X115740632Y-88325830D01*
X115760038Y-88316651D01*
X115780250Y-88309419D01*
X115801074Y-88304203D01*
X115822309Y-88301053D01*
X115843750Y-88300000D01*
X116356250Y-88300000D01*
X116377691Y-88301053D01*
G37*
G36*
X115077691Y-88301053D02*
G01*
X115098926Y-88304203D01*
X115119750Y-88309419D01*
X115139962Y-88316651D01*
X115159368Y-88325830D01*
X115177781Y-88336866D01*
X115195024Y-88349654D01*
X115210930Y-88364070D01*
X115225346Y-88379976D01*
X115238134Y-88397219D01*
X115249170Y-88415632D01*
X115258349Y-88435038D01*
X115265581Y-88455250D01*
X115270797Y-88476074D01*
X115273947Y-88497309D01*
X115275000Y-88518750D01*
X115275000Y-88956250D01*
X115273947Y-88977691D01*
X115270797Y-88998926D01*
X115265581Y-89019750D01*
X115258349Y-89039962D01*
X115249170Y-89059368D01*
X115238134Y-89077781D01*
X115225346Y-89095024D01*
X115210930Y-89110930D01*
X115195024Y-89125346D01*
X115177781Y-89138134D01*
X115159368Y-89149170D01*
X115139962Y-89158349D01*
X115119750Y-89165581D01*
X115098926Y-89170797D01*
X115077691Y-89173947D01*
X115056250Y-89175000D01*
X114543750Y-89175000D01*
X114522309Y-89173947D01*
X114501074Y-89170797D01*
X114480250Y-89165581D01*
X114460038Y-89158349D01*
X114440632Y-89149170D01*
X114422219Y-89138134D01*
X114404976Y-89125346D01*
X114389070Y-89110930D01*
X114374654Y-89095024D01*
X114361866Y-89077781D01*
X114350830Y-89059368D01*
X114341651Y-89039962D01*
X114334419Y-89019750D01*
X114329203Y-88998926D01*
X114326053Y-88977691D01*
X114325000Y-88956250D01*
X114325000Y-88518750D01*
X114326053Y-88497309D01*
X114329203Y-88476074D01*
X114334419Y-88455250D01*
X114341651Y-88435038D01*
X114350830Y-88415632D01*
X114361866Y-88397219D01*
X114374654Y-88379976D01*
X114389070Y-88364070D01*
X114404976Y-88349654D01*
X114422219Y-88336866D01*
X114440632Y-88325830D01*
X114460038Y-88316651D01*
X114480250Y-88309419D01*
X114501074Y-88304203D01*
X114522309Y-88301053D01*
X114543750Y-88300000D01*
X115056250Y-88300000D01*
X115077691Y-88301053D01*
G37*
G36*
X115077691Y-86726053D02*
G01*
X115098926Y-86729203D01*
X115119750Y-86734419D01*
X115139962Y-86741651D01*
X115159368Y-86750830D01*
X115177781Y-86761866D01*
X115195024Y-86774654D01*
X115210930Y-86789070D01*
X115225346Y-86804976D01*
X115238134Y-86822219D01*
X115249170Y-86840632D01*
X115258349Y-86860038D01*
X115265581Y-86880250D01*
X115270797Y-86901074D01*
X115273947Y-86922309D01*
X115275000Y-86943750D01*
X115275000Y-87381250D01*
X115273947Y-87402691D01*
X115270797Y-87423926D01*
X115265581Y-87444750D01*
X115258349Y-87464962D01*
X115249170Y-87484368D01*
X115238134Y-87502781D01*
X115225346Y-87520024D01*
X115210930Y-87535930D01*
X115195024Y-87550346D01*
X115177781Y-87563134D01*
X115159368Y-87574170D01*
X115139962Y-87583349D01*
X115119750Y-87590581D01*
X115098926Y-87595797D01*
X115077691Y-87598947D01*
X115056250Y-87600000D01*
X114543750Y-87600000D01*
X114522309Y-87598947D01*
X114501074Y-87595797D01*
X114480250Y-87590581D01*
X114460038Y-87583349D01*
X114440632Y-87574170D01*
X114422219Y-87563134D01*
X114404976Y-87550346D01*
X114389070Y-87535930D01*
X114374654Y-87520024D01*
X114361866Y-87502781D01*
X114350830Y-87484368D01*
X114341651Y-87464962D01*
X114334419Y-87444750D01*
X114329203Y-87423926D01*
X114326053Y-87402691D01*
X114325000Y-87381250D01*
X114325000Y-86943750D01*
X114326053Y-86922309D01*
X114329203Y-86901074D01*
X114334419Y-86880250D01*
X114341651Y-86860038D01*
X114350830Y-86840632D01*
X114361866Y-86822219D01*
X114374654Y-86804976D01*
X114389070Y-86789070D01*
X114404976Y-86774654D01*
X114422219Y-86761866D01*
X114440632Y-86750830D01*
X114460038Y-86741651D01*
X114480250Y-86734419D01*
X114501074Y-86729203D01*
X114522309Y-86726053D01*
X114543750Y-86725000D01*
X115056250Y-86725000D01*
X115077691Y-86726053D01*
G37*
G36*
X115877691Y-90363553D02*
G01*
X115898926Y-90366703D01*
X115919750Y-90371919D01*
X115939962Y-90379151D01*
X115959368Y-90388330D01*
X115977781Y-90399366D01*
X115995024Y-90412154D01*
X116010930Y-90426570D01*
X116025346Y-90442476D01*
X116038134Y-90459719D01*
X116049170Y-90478132D01*
X116058349Y-90497538D01*
X116065581Y-90517750D01*
X116070797Y-90538574D01*
X116073947Y-90559809D01*
X116075000Y-90581250D01*
X116075000Y-91018750D01*
X116073947Y-91040191D01*
X116070797Y-91061426D01*
X116065581Y-91082250D01*
X116058349Y-91102462D01*
X116049170Y-91121868D01*
X116038134Y-91140281D01*
X116025346Y-91157524D01*
X116010930Y-91173430D01*
X115995024Y-91187846D01*
X115977781Y-91200634D01*
X115959368Y-91211670D01*
X115939962Y-91220849D01*
X115919750Y-91228081D01*
X115898926Y-91233297D01*
X115877691Y-91236447D01*
X115856250Y-91237500D01*
X115343750Y-91237500D01*
X115322309Y-91236447D01*
X115301074Y-91233297D01*
X115280250Y-91228081D01*
X115260038Y-91220849D01*
X115240632Y-91211670D01*
X115222219Y-91200634D01*
X115204976Y-91187846D01*
X115189070Y-91173430D01*
X115174654Y-91157524D01*
X115161866Y-91140281D01*
X115150830Y-91121868D01*
X115141651Y-91102462D01*
X115134419Y-91082250D01*
X115129203Y-91061426D01*
X115126053Y-91040191D01*
X115125000Y-91018750D01*
X115125000Y-90581250D01*
X115126053Y-90559809D01*
X115129203Y-90538574D01*
X115134419Y-90517750D01*
X115141651Y-90497538D01*
X115150830Y-90478132D01*
X115161866Y-90459719D01*
X115174654Y-90442476D01*
X115189070Y-90426570D01*
X115204976Y-90412154D01*
X115222219Y-90399366D01*
X115240632Y-90388330D01*
X115260038Y-90379151D01*
X115280250Y-90371919D01*
X115301074Y-90366703D01*
X115322309Y-90363553D01*
X115343750Y-90362500D01*
X115856250Y-90362500D01*
X115877691Y-90363553D01*
G37*
G36*
X115877691Y-91938553D02*
G01*
X115898926Y-91941703D01*
X115919750Y-91946919D01*
X115939962Y-91954151D01*
X115959368Y-91963330D01*
X115977781Y-91974366D01*
X115995024Y-91987154D01*
X116010930Y-92001570D01*
X116025346Y-92017476D01*
X116038134Y-92034719D01*
X116049170Y-92053132D01*
X116058349Y-92072538D01*
X116065581Y-92092750D01*
X116070797Y-92113574D01*
X116073947Y-92134809D01*
X116075000Y-92156250D01*
X116075000Y-92593750D01*
X116073947Y-92615191D01*
X116070797Y-92636426D01*
X116065581Y-92657250D01*
X116058349Y-92677462D01*
X116049170Y-92696868D01*
X116038134Y-92715281D01*
X116025346Y-92732524D01*
X116010930Y-92748430D01*
X115995024Y-92762846D01*
X115977781Y-92775634D01*
X115959368Y-92786670D01*
X115939962Y-92795849D01*
X115919750Y-92803081D01*
X115898926Y-92808297D01*
X115877691Y-92811447D01*
X115856250Y-92812500D01*
X115343750Y-92812500D01*
X115322309Y-92811447D01*
X115301074Y-92808297D01*
X115280250Y-92803081D01*
X115260038Y-92795849D01*
X115240632Y-92786670D01*
X115222219Y-92775634D01*
X115204976Y-92762846D01*
X115189070Y-92748430D01*
X115174654Y-92732524D01*
X115161866Y-92715281D01*
X115150830Y-92696868D01*
X115141651Y-92677462D01*
X115134419Y-92657250D01*
X115129203Y-92636426D01*
X115126053Y-92615191D01*
X115125000Y-92593750D01*
X115125000Y-92156250D01*
X115126053Y-92134809D01*
X115129203Y-92113574D01*
X115134419Y-92092750D01*
X115141651Y-92072538D01*
X115150830Y-92053132D01*
X115161866Y-92034719D01*
X115174654Y-92017476D01*
X115189070Y-92001570D01*
X115204976Y-91987154D01*
X115222219Y-91974366D01*
X115240632Y-91963330D01*
X115260038Y-91954151D01*
X115280250Y-91946919D01*
X115301074Y-91941703D01*
X115322309Y-91938553D01*
X115343750Y-91937500D01*
X115856250Y-91937500D01*
X115877691Y-91938553D01*
G37*
G36*
X119852691Y-85626053D02*
G01*
X119873926Y-85629203D01*
X119894750Y-85634419D01*
X119914962Y-85641651D01*
X119934368Y-85650830D01*
X119952781Y-85661866D01*
X119970024Y-85674654D01*
X119985930Y-85689070D01*
X120000346Y-85704976D01*
X120013134Y-85722219D01*
X120024170Y-85740632D01*
X120033349Y-85760038D01*
X120040581Y-85780250D01*
X120045797Y-85801074D01*
X120048947Y-85822309D01*
X120050000Y-85843750D01*
X120050000Y-86356250D01*
X120048947Y-86377691D01*
X120045797Y-86398926D01*
X120040581Y-86419750D01*
X120033349Y-86439962D01*
X120024170Y-86459368D01*
X120013134Y-86477781D01*
X120000346Y-86495024D01*
X119985930Y-86510930D01*
X119970024Y-86525346D01*
X119952781Y-86538134D01*
X119934368Y-86549170D01*
X119914962Y-86558349D01*
X119894750Y-86565581D01*
X119873926Y-86570797D01*
X119852691Y-86573947D01*
X119831250Y-86575000D01*
X119393750Y-86575000D01*
X119372309Y-86573947D01*
X119351074Y-86570797D01*
X119330250Y-86565581D01*
X119310038Y-86558349D01*
X119290632Y-86549170D01*
X119272219Y-86538134D01*
X119254976Y-86525346D01*
X119239070Y-86510930D01*
X119224654Y-86495024D01*
X119211866Y-86477781D01*
X119200830Y-86459368D01*
X119191651Y-86439962D01*
X119184419Y-86419750D01*
X119179203Y-86398926D01*
X119176053Y-86377691D01*
X119175000Y-86356250D01*
X119175000Y-85843750D01*
X119176053Y-85822309D01*
X119179203Y-85801074D01*
X119184419Y-85780250D01*
X119191651Y-85760038D01*
X119200830Y-85740632D01*
X119211866Y-85722219D01*
X119224654Y-85704976D01*
X119239070Y-85689070D01*
X119254976Y-85674654D01*
X119272219Y-85661866D01*
X119290632Y-85650830D01*
X119310038Y-85641651D01*
X119330250Y-85634419D01*
X119351074Y-85629203D01*
X119372309Y-85626053D01*
X119393750Y-85625000D01*
X119831250Y-85625000D01*
X119852691Y-85626053D01*
G37*
G36*
X121427691Y-85626053D02*
G01*
X121448926Y-85629203D01*
X121469750Y-85634419D01*
X121489962Y-85641651D01*
X121509368Y-85650830D01*
X121527781Y-85661866D01*
X121545024Y-85674654D01*
X121560930Y-85689070D01*
X121575346Y-85704976D01*
X121588134Y-85722219D01*
X121599170Y-85740632D01*
X121608349Y-85760038D01*
X121615581Y-85780250D01*
X121620797Y-85801074D01*
X121623947Y-85822309D01*
X121625000Y-85843750D01*
X121625000Y-86356250D01*
X121623947Y-86377691D01*
X121620797Y-86398926D01*
X121615581Y-86419750D01*
X121608349Y-86439962D01*
X121599170Y-86459368D01*
X121588134Y-86477781D01*
X121575346Y-86495024D01*
X121560930Y-86510930D01*
X121545024Y-86525346D01*
X121527781Y-86538134D01*
X121509368Y-86549170D01*
X121489962Y-86558349D01*
X121469750Y-86565581D01*
X121448926Y-86570797D01*
X121427691Y-86573947D01*
X121406250Y-86575000D01*
X120968750Y-86575000D01*
X120947309Y-86573947D01*
X120926074Y-86570797D01*
X120905250Y-86565581D01*
X120885038Y-86558349D01*
X120865632Y-86549170D01*
X120847219Y-86538134D01*
X120829976Y-86525346D01*
X120814070Y-86510930D01*
X120799654Y-86495024D01*
X120786866Y-86477781D01*
X120775830Y-86459368D01*
X120766651Y-86439962D01*
X120759419Y-86419750D01*
X120754203Y-86398926D01*
X120751053Y-86377691D01*
X120750000Y-86356250D01*
X120750000Y-85843750D01*
X120751053Y-85822309D01*
X120754203Y-85801074D01*
X120759419Y-85780250D01*
X120766651Y-85760038D01*
X120775830Y-85740632D01*
X120786866Y-85722219D01*
X120799654Y-85704976D01*
X120814070Y-85689070D01*
X120829976Y-85674654D01*
X120847219Y-85661866D01*
X120865632Y-85650830D01*
X120885038Y-85641651D01*
X120905250Y-85634419D01*
X120926074Y-85629203D01*
X120947309Y-85626053D01*
X120968750Y-85625000D01*
X121406250Y-85625000D01*
X121427691Y-85626053D01*
G37*
G36*
X120627691Y-74926053D02*
G01*
X120648926Y-74929203D01*
X120669750Y-74934419D01*
X120689962Y-74941651D01*
X120709368Y-74950830D01*
X120727781Y-74961866D01*
X120745024Y-74974654D01*
X120760930Y-74989070D01*
X120775346Y-75004976D01*
X120788134Y-75022219D01*
X120799170Y-75040632D01*
X120808349Y-75060038D01*
X120815581Y-75080250D01*
X120820797Y-75101074D01*
X120823947Y-75122309D01*
X120825000Y-75143750D01*
X120825000Y-75656250D01*
X120823947Y-75677691D01*
X120820797Y-75698926D01*
X120815581Y-75719750D01*
X120808349Y-75739962D01*
X120799170Y-75759368D01*
X120788134Y-75777781D01*
X120775346Y-75795024D01*
X120760930Y-75810930D01*
X120745024Y-75825346D01*
X120727781Y-75838134D01*
X120709368Y-75849170D01*
X120689962Y-75858349D01*
X120669750Y-75865581D01*
X120648926Y-75870797D01*
X120627691Y-75873947D01*
X120606250Y-75875000D01*
X120168750Y-75875000D01*
X120147309Y-75873947D01*
X120126074Y-75870797D01*
X120105250Y-75865581D01*
X120085038Y-75858349D01*
X120065632Y-75849170D01*
X120047219Y-75838134D01*
X120029976Y-75825346D01*
X120014070Y-75810930D01*
X119999654Y-75795024D01*
X119986866Y-75777781D01*
X119975830Y-75759368D01*
X119966651Y-75739962D01*
X119959419Y-75719750D01*
X119954203Y-75698926D01*
X119951053Y-75677691D01*
X119950000Y-75656250D01*
X119950000Y-75143750D01*
X119951053Y-75122309D01*
X119954203Y-75101074D01*
X119959419Y-75080250D01*
X119966651Y-75060038D01*
X119975830Y-75040632D01*
X119986866Y-75022219D01*
X119999654Y-75004976D01*
X120014070Y-74989070D01*
X120029976Y-74974654D01*
X120047219Y-74961866D01*
X120065632Y-74950830D01*
X120085038Y-74941651D01*
X120105250Y-74934419D01*
X120126074Y-74929203D01*
X120147309Y-74926053D01*
X120168750Y-74925000D01*
X120606250Y-74925000D01*
X120627691Y-74926053D01*
G37*
G36*
X119052691Y-74926053D02*
G01*
X119073926Y-74929203D01*
X119094750Y-74934419D01*
X119114962Y-74941651D01*
X119134368Y-74950830D01*
X119152781Y-74961866D01*
X119170024Y-74974654D01*
X119185930Y-74989070D01*
X119200346Y-75004976D01*
X119213134Y-75022219D01*
X119224170Y-75040632D01*
X119233349Y-75060038D01*
X119240581Y-75080250D01*
X119245797Y-75101074D01*
X119248947Y-75122309D01*
X119250000Y-75143750D01*
X119250000Y-75656250D01*
X119248947Y-75677691D01*
X119245797Y-75698926D01*
X119240581Y-75719750D01*
X119233349Y-75739962D01*
X119224170Y-75759368D01*
X119213134Y-75777781D01*
X119200346Y-75795024D01*
X119185930Y-75810930D01*
X119170024Y-75825346D01*
X119152781Y-75838134D01*
X119134368Y-75849170D01*
X119114962Y-75858349D01*
X119094750Y-75865581D01*
X119073926Y-75870797D01*
X119052691Y-75873947D01*
X119031250Y-75875000D01*
X118593750Y-75875000D01*
X118572309Y-75873947D01*
X118551074Y-75870797D01*
X118530250Y-75865581D01*
X118510038Y-75858349D01*
X118490632Y-75849170D01*
X118472219Y-75838134D01*
X118454976Y-75825346D01*
X118439070Y-75810930D01*
X118424654Y-75795024D01*
X118411866Y-75777781D01*
X118400830Y-75759368D01*
X118391651Y-75739962D01*
X118384419Y-75719750D01*
X118379203Y-75698926D01*
X118376053Y-75677691D01*
X118375000Y-75656250D01*
X118375000Y-75143750D01*
X118376053Y-75122309D01*
X118379203Y-75101074D01*
X118384419Y-75080250D01*
X118391651Y-75060038D01*
X118400830Y-75040632D01*
X118411866Y-75022219D01*
X118424654Y-75004976D01*
X118439070Y-74989070D01*
X118454976Y-74974654D01*
X118472219Y-74961866D01*
X118490632Y-74950830D01*
X118510038Y-74941651D01*
X118530250Y-74934419D01*
X118551074Y-74929203D01*
X118572309Y-74926053D01*
X118593750Y-74925000D01*
X119031250Y-74925000D01*
X119052691Y-74926053D01*
G37*
G36*
X113077691Y-91951053D02*
G01*
X113098926Y-91954203D01*
X113119750Y-91959419D01*
X113139962Y-91966651D01*
X113159368Y-91975830D01*
X113177781Y-91986866D01*
X113195024Y-91999654D01*
X113210930Y-92014070D01*
X113225346Y-92029976D01*
X113238134Y-92047219D01*
X113249170Y-92065632D01*
X113258349Y-92085038D01*
X113265581Y-92105250D01*
X113270797Y-92126074D01*
X113273947Y-92147309D01*
X113275000Y-92168750D01*
X113275000Y-92606250D01*
X113273947Y-92627691D01*
X113270797Y-92648926D01*
X113265581Y-92669750D01*
X113258349Y-92689962D01*
X113249170Y-92709368D01*
X113238134Y-92727781D01*
X113225346Y-92745024D01*
X113210930Y-92760930D01*
X113195024Y-92775346D01*
X113177781Y-92788134D01*
X113159368Y-92799170D01*
X113139962Y-92808349D01*
X113119750Y-92815581D01*
X113098926Y-92820797D01*
X113077691Y-92823947D01*
X113056250Y-92825000D01*
X112543750Y-92825000D01*
X112522309Y-92823947D01*
X112501074Y-92820797D01*
X112480250Y-92815581D01*
X112460038Y-92808349D01*
X112440632Y-92799170D01*
X112422219Y-92788134D01*
X112404976Y-92775346D01*
X112389070Y-92760930D01*
X112374654Y-92745024D01*
X112361866Y-92727781D01*
X112350830Y-92709368D01*
X112341651Y-92689962D01*
X112334419Y-92669750D01*
X112329203Y-92648926D01*
X112326053Y-92627691D01*
X112325000Y-92606250D01*
X112325000Y-92168750D01*
X112326053Y-92147309D01*
X112329203Y-92126074D01*
X112334419Y-92105250D01*
X112341651Y-92085038D01*
X112350830Y-92065632D01*
X112361866Y-92047219D01*
X112374654Y-92029976D01*
X112389070Y-92014070D01*
X112404976Y-91999654D01*
X112422219Y-91986866D01*
X112440632Y-91975830D01*
X112460038Y-91966651D01*
X112480250Y-91959419D01*
X112501074Y-91954203D01*
X112522309Y-91951053D01*
X112543750Y-91950000D01*
X113056250Y-91950000D01*
X113077691Y-91951053D01*
G37*
G36*
X113077691Y-90376053D02*
G01*
X113098926Y-90379203D01*
X113119750Y-90384419D01*
X113139962Y-90391651D01*
X113159368Y-90400830D01*
X113177781Y-90411866D01*
X113195024Y-90424654D01*
X113210930Y-90439070D01*
X113225346Y-90454976D01*
X113238134Y-90472219D01*
X113249170Y-90490632D01*
X113258349Y-90510038D01*
X113265581Y-90530250D01*
X113270797Y-90551074D01*
X113273947Y-90572309D01*
X113275000Y-90593750D01*
X113275000Y-91031250D01*
X113273947Y-91052691D01*
X113270797Y-91073926D01*
X113265581Y-91094750D01*
X113258349Y-91114962D01*
X113249170Y-91134368D01*
X113238134Y-91152781D01*
X113225346Y-91170024D01*
X113210930Y-91185930D01*
X113195024Y-91200346D01*
X113177781Y-91213134D01*
X113159368Y-91224170D01*
X113139962Y-91233349D01*
X113119750Y-91240581D01*
X113098926Y-91245797D01*
X113077691Y-91248947D01*
X113056250Y-91250000D01*
X112543750Y-91250000D01*
X112522309Y-91248947D01*
X112501074Y-91245797D01*
X112480250Y-91240581D01*
X112460038Y-91233349D01*
X112440632Y-91224170D01*
X112422219Y-91213134D01*
X112404976Y-91200346D01*
X112389070Y-91185930D01*
X112374654Y-91170024D01*
X112361866Y-91152781D01*
X112350830Y-91134368D01*
X112341651Y-91114962D01*
X112334419Y-91094750D01*
X112329203Y-91073926D01*
X112326053Y-91052691D01*
X112325000Y-91031250D01*
X112325000Y-90593750D01*
X112326053Y-90572309D01*
X112329203Y-90551074D01*
X112334419Y-90530250D01*
X112341651Y-90510038D01*
X112350830Y-90490632D01*
X112361866Y-90472219D01*
X112374654Y-90454976D01*
X112389070Y-90439070D01*
X112404976Y-90424654D01*
X112422219Y-90411866D01*
X112440632Y-90400830D01*
X112460038Y-90391651D01*
X112480250Y-90384419D01*
X112501074Y-90379203D01*
X112522309Y-90376053D01*
X112543750Y-90375000D01*
X113056250Y-90375000D01*
X113077691Y-90376053D01*
G37*
G36*
X121352691Y-77113553D02*
G01*
X121373926Y-77116703D01*
X121394750Y-77121919D01*
X121414962Y-77129151D01*
X121434368Y-77138330D01*
X121452781Y-77149366D01*
X121470024Y-77162154D01*
X121485930Y-77176570D01*
X121500346Y-77192476D01*
X121513134Y-77209719D01*
X121524170Y-77228132D01*
X121533349Y-77247538D01*
X121540581Y-77267750D01*
X121545797Y-77288574D01*
X121548947Y-77309809D01*
X121550000Y-77331250D01*
X121550000Y-77768750D01*
X121548947Y-77790191D01*
X121545797Y-77811426D01*
X121540581Y-77832250D01*
X121533349Y-77852462D01*
X121524170Y-77871868D01*
X121513134Y-77890281D01*
X121500346Y-77907524D01*
X121485930Y-77923430D01*
X121470024Y-77937846D01*
X121452781Y-77950634D01*
X121434368Y-77961670D01*
X121414962Y-77970849D01*
X121394750Y-77978081D01*
X121373926Y-77983297D01*
X121352691Y-77986447D01*
X121331250Y-77987500D01*
X120818750Y-77987500D01*
X120797309Y-77986447D01*
X120776074Y-77983297D01*
X120755250Y-77978081D01*
X120735038Y-77970849D01*
X120715632Y-77961670D01*
X120697219Y-77950634D01*
X120679976Y-77937846D01*
X120664070Y-77923430D01*
X120649654Y-77907524D01*
X120636866Y-77890281D01*
X120625830Y-77871868D01*
X120616651Y-77852462D01*
X120609419Y-77832250D01*
X120604203Y-77811426D01*
X120601053Y-77790191D01*
X120600000Y-77768750D01*
X120600000Y-77331250D01*
X120601053Y-77309809D01*
X120604203Y-77288574D01*
X120609419Y-77267750D01*
X120616651Y-77247538D01*
X120625830Y-77228132D01*
X120636866Y-77209719D01*
X120649654Y-77192476D01*
X120664070Y-77176570D01*
X120679976Y-77162154D01*
X120697219Y-77149366D01*
X120715632Y-77138330D01*
X120735038Y-77129151D01*
X120755250Y-77121919D01*
X120776074Y-77116703D01*
X120797309Y-77113553D01*
X120818750Y-77112500D01*
X121331250Y-77112500D01*
X121352691Y-77113553D01*
G37*
G36*
X121352691Y-78688553D02*
G01*
X121373926Y-78691703D01*
X121394750Y-78696919D01*
X121414962Y-78704151D01*
X121434368Y-78713330D01*
X121452781Y-78724366D01*
X121470024Y-78737154D01*
X121485930Y-78751570D01*
X121500346Y-78767476D01*
X121513134Y-78784719D01*
X121524170Y-78803132D01*
X121533349Y-78822538D01*
X121540581Y-78842750D01*
X121545797Y-78863574D01*
X121548947Y-78884809D01*
X121550000Y-78906250D01*
X121550000Y-79343750D01*
X121548947Y-79365191D01*
X121545797Y-79386426D01*
X121540581Y-79407250D01*
X121533349Y-79427462D01*
X121524170Y-79446868D01*
X121513134Y-79465281D01*
X121500346Y-79482524D01*
X121485930Y-79498430D01*
X121470024Y-79512846D01*
X121452781Y-79525634D01*
X121434368Y-79536670D01*
X121414962Y-79545849D01*
X121394750Y-79553081D01*
X121373926Y-79558297D01*
X121352691Y-79561447D01*
X121331250Y-79562500D01*
X120818750Y-79562500D01*
X120797309Y-79561447D01*
X120776074Y-79558297D01*
X120755250Y-79553081D01*
X120735038Y-79545849D01*
X120715632Y-79536670D01*
X120697219Y-79525634D01*
X120679976Y-79512846D01*
X120664070Y-79498430D01*
X120649654Y-79482524D01*
X120636866Y-79465281D01*
X120625830Y-79446868D01*
X120616651Y-79427462D01*
X120609419Y-79407250D01*
X120604203Y-79386426D01*
X120601053Y-79365191D01*
X120600000Y-79343750D01*
X120600000Y-78906250D01*
X120601053Y-78884809D01*
X120604203Y-78863574D01*
X120609419Y-78842750D01*
X120616651Y-78822538D01*
X120625830Y-78803132D01*
X120636866Y-78784719D01*
X120649654Y-78767476D01*
X120664070Y-78751570D01*
X120679976Y-78737154D01*
X120697219Y-78724366D01*
X120715632Y-78713330D01*
X120735038Y-78704151D01*
X120755250Y-78696919D01*
X120776074Y-78691703D01*
X120797309Y-78688553D01*
X120818750Y-78687500D01*
X121331250Y-78687500D01*
X121352691Y-78688553D01*
G37*
D12*
X115987500Y-76500000D03*
X115212500Y-76500000D03*
X115212500Y-75300000D03*
X115987500Y-75300000D03*
D13*
X114050000Y-76875000D03*
X114050000Y-76225000D03*
X114050000Y-75575000D03*
X114050000Y-74925000D03*
X117150000Y-74925000D03*
X117150000Y-75575000D03*
X117150000Y-76225000D03*
X117150000Y-76875000D03*
D11*
G36*
X116340191Y-72776053D02*
G01*
X116361426Y-72779203D01*
X116382250Y-72784419D01*
X116402462Y-72791651D01*
X116421868Y-72800830D01*
X116440281Y-72811866D01*
X116457524Y-72824654D01*
X116473430Y-72839070D01*
X116487846Y-72854976D01*
X116500634Y-72872219D01*
X116511670Y-72890632D01*
X116520849Y-72910038D01*
X116528081Y-72930250D01*
X116533297Y-72951074D01*
X116536447Y-72972309D01*
X116537500Y-72993750D01*
X116537500Y-73506250D01*
X116536447Y-73527691D01*
X116533297Y-73548926D01*
X116528081Y-73569750D01*
X116520849Y-73589962D01*
X116511670Y-73609368D01*
X116500634Y-73627781D01*
X116487846Y-73645024D01*
X116473430Y-73660930D01*
X116457524Y-73675346D01*
X116440281Y-73688134D01*
X116421868Y-73699170D01*
X116402462Y-73708349D01*
X116382250Y-73715581D01*
X116361426Y-73720797D01*
X116340191Y-73723947D01*
X116318750Y-73725000D01*
X115881250Y-73725000D01*
X115859809Y-73723947D01*
X115838574Y-73720797D01*
X115817750Y-73715581D01*
X115797538Y-73708349D01*
X115778132Y-73699170D01*
X115759719Y-73688134D01*
X115742476Y-73675346D01*
X115726570Y-73660930D01*
X115712154Y-73645024D01*
X115699366Y-73627781D01*
X115688330Y-73609368D01*
X115679151Y-73589962D01*
X115671919Y-73569750D01*
X115666703Y-73548926D01*
X115663553Y-73527691D01*
X115662500Y-73506250D01*
X115662500Y-72993750D01*
X115663553Y-72972309D01*
X115666703Y-72951074D01*
X115671919Y-72930250D01*
X115679151Y-72910038D01*
X115688330Y-72890632D01*
X115699366Y-72872219D01*
X115712154Y-72854976D01*
X115726570Y-72839070D01*
X115742476Y-72824654D01*
X115759719Y-72811866D01*
X115778132Y-72800830D01*
X115797538Y-72791651D01*
X115817750Y-72784419D01*
X115838574Y-72779203D01*
X115859809Y-72776053D01*
X115881250Y-72775000D01*
X116318750Y-72775000D01*
X116340191Y-72776053D01*
G37*
G36*
X114765191Y-72776053D02*
G01*
X114786426Y-72779203D01*
X114807250Y-72784419D01*
X114827462Y-72791651D01*
X114846868Y-72800830D01*
X114865281Y-72811866D01*
X114882524Y-72824654D01*
X114898430Y-72839070D01*
X114912846Y-72854976D01*
X114925634Y-72872219D01*
X114936670Y-72890632D01*
X114945849Y-72910038D01*
X114953081Y-72930250D01*
X114958297Y-72951074D01*
X114961447Y-72972309D01*
X114962500Y-72993750D01*
X114962500Y-73506250D01*
X114961447Y-73527691D01*
X114958297Y-73548926D01*
X114953081Y-73569750D01*
X114945849Y-73589962D01*
X114936670Y-73609368D01*
X114925634Y-73627781D01*
X114912846Y-73645024D01*
X114898430Y-73660930D01*
X114882524Y-73675346D01*
X114865281Y-73688134D01*
X114846868Y-73699170D01*
X114827462Y-73708349D01*
X114807250Y-73715581D01*
X114786426Y-73720797D01*
X114765191Y-73723947D01*
X114743750Y-73725000D01*
X114306250Y-73725000D01*
X114284809Y-73723947D01*
X114263574Y-73720797D01*
X114242750Y-73715581D01*
X114222538Y-73708349D01*
X114203132Y-73699170D01*
X114184719Y-73688134D01*
X114167476Y-73675346D01*
X114151570Y-73660930D01*
X114137154Y-73645024D01*
X114124366Y-73627781D01*
X114113330Y-73609368D01*
X114104151Y-73589962D01*
X114096919Y-73569750D01*
X114091703Y-73548926D01*
X114088553Y-73527691D01*
X114087500Y-73506250D01*
X114087500Y-72993750D01*
X114088553Y-72972309D01*
X114091703Y-72951074D01*
X114096919Y-72930250D01*
X114104151Y-72910038D01*
X114113330Y-72890632D01*
X114124366Y-72872219D01*
X114137154Y-72854976D01*
X114151570Y-72839070D01*
X114167476Y-72824654D01*
X114184719Y-72811866D01*
X114203132Y-72800830D01*
X114222538Y-72791651D01*
X114242750Y-72784419D01*
X114263574Y-72779203D01*
X114284809Y-72776053D01*
X114306250Y-72775000D01*
X114743750Y-72775000D01*
X114765191Y-72776053D01*
G37*
G36*
X117677691Y-88313553D02*
G01*
X117698926Y-88316703D01*
X117719750Y-88321919D01*
X117739962Y-88329151D01*
X117759368Y-88338330D01*
X117777781Y-88349366D01*
X117795024Y-88362154D01*
X117810930Y-88376570D01*
X117825346Y-88392476D01*
X117838134Y-88409719D01*
X117849170Y-88428132D01*
X117858349Y-88447538D01*
X117865581Y-88467750D01*
X117870797Y-88488574D01*
X117873947Y-88509809D01*
X117875000Y-88531250D01*
X117875000Y-88968750D01*
X117873947Y-88990191D01*
X117870797Y-89011426D01*
X117865581Y-89032250D01*
X117858349Y-89052462D01*
X117849170Y-89071868D01*
X117838134Y-89090281D01*
X117825346Y-89107524D01*
X117810930Y-89123430D01*
X117795024Y-89137846D01*
X117777781Y-89150634D01*
X117759368Y-89161670D01*
X117739962Y-89170849D01*
X117719750Y-89178081D01*
X117698926Y-89183297D01*
X117677691Y-89186447D01*
X117656250Y-89187500D01*
X117143750Y-89187500D01*
X117122309Y-89186447D01*
X117101074Y-89183297D01*
X117080250Y-89178081D01*
X117060038Y-89170849D01*
X117040632Y-89161670D01*
X117022219Y-89150634D01*
X117004976Y-89137846D01*
X116989070Y-89123430D01*
X116974654Y-89107524D01*
X116961866Y-89090281D01*
X116950830Y-89071868D01*
X116941651Y-89052462D01*
X116934419Y-89032250D01*
X116929203Y-89011426D01*
X116926053Y-88990191D01*
X116925000Y-88968750D01*
X116925000Y-88531250D01*
X116926053Y-88509809D01*
X116929203Y-88488574D01*
X116934419Y-88467750D01*
X116941651Y-88447538D01*
X116950830Y-88428132D01*
X116961866Y-88409719D01*
X116974654Y-88392476D01*
X116989070Y-88376570D01*
X117004976Y-88362154D01*
X117022219Y-88349366D01*
X117040632Y-88338330D01*
X117060038Y-88329151D01*
X117080250Y-88321919D01*
X117101074Y-88316703D01*
X117122309Y-88313553D01*
X117143750Y-88312500D01*
X117656250Y-88312500D01*
X117677691Y-88313553D01*
G37*
G36*
X117677691Y-86738553D02*
G01*
X117698926Y-86741703D01*
X117719750Y-86746919D01*
X117739962Y-86754151D01*
X117759368Y-86763330D01*
X117777781Y-86774366D01*
X117795024Y-86787154D01*
X117810930Y-86801570D01*
X117825346Y-86817476D01*
X117838134Y-86834719D01*
X117849170Y-86853132D01*
X117858349Y-86872538D01*
X117865581Y-86892750D01*
X117870797Y-86913574D01*
X117873947Y-86934809D01*
X117875000Y-86956250D01*
X117875000Y-87393750D01*
X117873947Y-87415191D01*
X117870797Y-87436426D01*
X117865581Y-87457250D01*
X117858349Y-87477462D01*
X117849170Y-87496868D01*
X117838134Y-87515281D01*
X117825346Y-87532524D01*
X117810930Y-87548430D01*
X117795024Y-87562846D01*
X117777781Y-87575634D01*
X117759368Y-87586670D01*
X117739962Y-87595849D01*
X117719750Y-87603081D01*
X117698926Y-87608297D01*
X117677691Y-87611447D01*
X117656250Y-87612500D01*
X117143750Y-87612500D01*
X117122309Y-87611447D01*
X117101074Y-87608297D01*
X117080250Y-87603081D01*
X117060038Y-87595849D01*
X117040632Y-87586670D01*
X117022219Y-87575634D01*
X117004976Y-87562846D01*
X116989070Y-87548430D01*
X116974654Y-87532524D01*
X116961866Y-87515281D01*
X116950830Y-87496868D01*
X116941651Y-87477462D01*
X116934419Y-87457250D01*
X116929203Y-87436426D01*
X116926053Y-87415191D01*
X116925000Y-87393750D01*
X116925000Y-86956250D01*
X116926053Y-86934809D01*
X116929203Y-86913574D01*
X116934419Y-86892750D01*
X116941651Y-86872538D01*
X116950830Y-86853132D01*
X116961866Y-86834719D01*
X116974654Y-86817476D01*
X116989070Y-86801570D01*
X117004976Y-86787154D01*
X117022219Y-86774366D01*
X117040632Y-86763330D01*
X117060038Y-86754151D01*
X117080250Y-86746919D01*
X117101074Y-86741703D01*
X117122309Y-86738553D01*
X117143750Y-86737500D01*
X117656250Y-86737500D01*
X117677691Y-86738553D01*
G37*
G36*
X118977691Y-96076053D02*
G01*
X118998926Y-96079203D01*
X119019750Y-96084419D01*
X119039962Y-96091651D01*
X119059368Y-96100830D01*
X119077781Y-96111866D01*
X119095024Y-96124654D01*
X119110930Y-96139070D01*
X119125346Y-96154976D01*
X119138134Y-96172219D01*
X119149170Y-96190632D01*
X119158349Y-96210038D01*
X119165581Y-96230250D01*
X119170797Y-96251074D01*
X119173947Y-96272309D01*
X119175000Y-96293750D01*
X119175000Y-96731250D01*
X119173947Y-96752691D01*
X119170797Y-96773926D01*
X119165581Y-96794750D01*
X119158349Y-96814962D01*
X119149170Y-96834368D01*
X119138134Y-96852781D01*
X119125346Y-96870024D01*
X119110930Y-96885930D01*
X119095024Y-96900346D01*
X119077781Y-96913134D01*
X119059368Y-96924170D01*
X119039962Y-96933349D01*
X119019750Y-96940581D01*
X118998926Y-96945797D01*
X118977691Y-96948947D01*
X118956250Y-96950000D01*
X118443750Y-96950000D01*
X118422309Y-96948947D01*
X118401074Y-96945797D01*
X118380250Y-96940581D01*
X118360038Y-96933349D01*
X118340632Y-96924170D01*
X118322219Y-96913134D01*
X118304976Y-96900346D01*
X118289070Y-96885930D01*
X118274654Y-96870024D01*
X118261866Y-96852781D01*
X118250830Y-96834368D01*
X118241651Y-96814962D01*
X118234419Y-96794750D01*
X118229203Y-96773926D01*
X118226053Y-96752691D01*
X118225000Y-96731250D01*
X118225000Y-96293750D01*
X118226053Y-96272309D01*
X118229203Y-96251074D01*
X118234419Y-96230250D01*
X118241651Y-96210038D01*
X118250830Y-96190632D01*
X118261866Y-96172219D01*
X118274654Y-96154976D01*
X118289070Y-96139070D01*
X118304976Y-96124654D01*
X118322219Y-96111866D01*
X118340632Y-96100830D01*
X118360038Y-96091651D01*
X118380250Y-96084419D01*
X118401074Y-96079203D01*
X118422309Y-96076053D01*
X118443750Y-96075000D01*
X118956250Y-96075000D01*
X118977691Y-96076053D01*
G37*
G36*
X118977691Y-97651053D02*
G01*
X118998926Y-97654203D01*
X119019750Y-97659419D01*
X119039962Y-97666651D01*
X119059368Y-97675830D01*
X119077781Y-97686866D01*
X119095024Y-97699654D01*
X119110930Y-97714070D01*
X119125346Y-97729976D01*
X119138134Y-97747219D01*
X119149170Y-97765632D01*
X119158349Y-97785038D01*
X119165581Y-97805250D01*
X119170797Y-97826074D01*
X119173947Y-97847309D01*
X119175000Y-97868750D01*
X119175000Y-98306250D01*
X119173947Y-98327691D01*
X119170797Y-98348926D01*
X119165581Y-98369750D01*
X119158349Y-98389962D01*
X119149170Y-98409368D01*
X119138134Y-98427781D01*
X119125346Y-98445024D01*
X119110930Y-98460930D01*
X119095024Y-98475346D01*
X119077781Y-98488134D01*
X119059368Y-98499170D01*
X119039962Y-98508349D01*
X119019750Y-98515581D01*
X118998926Y-98520797D01*
X118977691Y-98523947D01*
X118956250Y-98525000D01*
X118443750Y-98525000D01*
X118422309Y-98523947D01*
X118401074Y-98520797D01*
X118380250Y-98515581D01*
X118360038Y-98508349D01*
X118340632Y-98499170D01*
X118322219Y-98488134D01*
X118304976Y-98475346D01*
X118289070Y-98460930D01*
X118274654Y-98445024D01*
X118261866Y-98427781D01*
X118250830Y-98409368D01*
X118241651Y-98389962D01*
X118234419Y-98369750D01*
X118229203Y-98348926D01*
X118226053Y-98327691D01*
X118225000Y-98306250D01*
X118225000Y-97868750D01*
X118226053Y-97847309D01*
X118229203Y-97826074D01*
X118234419Y-97805250D01*
X118241651Y-97785038D01*
X118250830Y-97765632D01*
X118261866Y-97747219D01*
X118274654Y-97729976D01*
X118289070Y-97714070D01*
X118304976Y-97699654D01*
X118322219Y-97686866D01*
X118340632Y-97675830D01*
X118360038Y-97666651D01*
X118380250Y-97659419D01*
X118401074Y-97654203D01*
X118422309Y-97651053D01*
X118443750Y-97650000D01*
X118956250Y-97650000D01*
X118977691Y-97651053D01*
G37*
G36*
X114477691Y-91938553D02*
G01*
X114498926Y-91941703D01*
X114519750Y-91946919D01*
X114539962Y-91954151D01*
X114559368Y-91963330D01*
X114577781Y-91974366D01*
X114595024Y-91987154D01*
X114610930Y-92001570D01*
X114625346Y-92017476D01*
X114638134Y-92034719D01*
X114649170Y-92053132D01*
X114658349Y-92072538D01*
X114665581Y-92092750D01*
X114670797Y-92113574D01*
X114673947Y-92134809D01*
X114675000Y-92156250D01*
X114675000Y-92593750D01*
X114673947Y-92615191D01*
X114670797Y-92636426D01*
X114665581Y-92657250D01*
X114658349Y-92677462D01*
X114649170Y-92696868D01*
X114638134Y-92715281D01*
X114625346Y-92732524D01*
X114610930Y-92748430D01*
X114595024Y-92762846D01*
X114577781Y-92775634D01*
X114559368Y-92786670D01*
X114539962Y-92795849D01*
X114519750Y-92803081D01*
X114498926Y-92808297D01*
X114477691Y-92811447D01*
X114456250Y-92812500D01*
X113943750Y-92812500D01*
X113922309Y-92811447D01*
X113901074Y-92808297D01*
X113880250Y-92803081D01*
X113860038Y-92795849D01*
X113840632Y-92786670D01*
X113822219Y-92775634D01*
X113804976Y-92762846D01*
X113789070Y-92748430D01*
X113774654Y-92732524D01*
X113761866Y-92715281D01*
X113750830Y-92696868D01*
X113741651Y-92677462D01*
X113734419Y-92657250D01*
X113729203Y-92636426D01*
X113726053Y-92615191D01*
X113725000Y-92593750D01*
X113725000Y-92156250D01*
X113726053Y-92134809D01*
X113729203Y-92113574D01*
X113734419Y-92092750D01*
X113741651Y-92072538D01*
X113750830Y-92053132D01*
X113761866Y-92034719D01*
X113774654Y-92017476D01*
X113789070Y-92001570D01*
X113804976Y-91987154D01*
X113822219Y-91974366D01*
X113840632Y-91963330D01*
X113860038Y-91954151D01*
X113880250Y-91946919D01*
X113901074Y-91941703D01*
X113922309Y-91938553D01*
X113943750Y-91937500D01*
X114456250Y-91937500D01*
X114477691Y-91938553D01*
G37*
G36*
X114477691Y-90363553D02*
G01*
X114498926Y-90366703D01*
X114519750Y-90371919D01*
X114539962Y-90379151D01*
X114559368Y-90388330D01*
X114577781Y-90399366D01*
X114595024Y-90412154D01*
X114610930Y-90426570D01*
X114625346Y-90442476D01*
X114638134Y-90459719D01*
X114649170Y-90478132D01*
X114658349Y-90497538D01*
X114665581Y-90517750D01*
X114670797Y-90538574D01*
X114673947Y-90559809D01*
X114675000Y-90581250D01*
X114675000Y-91018750D01*
X114673947Y-91040191D01*
X114670797Y-91061426D01*
X114665581Y-91082250D01*
X114658349Y-91102462D01*
X114649170Y-91121868D01*
X114638134Y-91140281D01*
X114625346Y-91157524D01*
X114610930Y-91173430D01*
X114595024Y-91187846D01*
X114577781Y-91200634D01*
X114559368Y-91211670D01*
X114539962Y-91220849D01*
X114519750Y-91228081D01*
X114498926Y-91233297D01*
X114477691Y-91236447D01*
X114456250Y-91237500D01*
X113943750Y-91237500D01*
X113922309Y-91236447D01*
X113901074Y-91233297D01*
X113880250Y-91228081D01*
X113860038Y-91220849D01*
X113840632Y-91211670D01*
X113822219Y-91200634D01*
X113804976Y-91187846D01*
X113789070Y-91173430D01*
X113774654Y-91157524D01*
X113761866Y-91140281D01*
X113750830Y-91121868D01*
X113741651Y-91102462D01*
X113734419Y-91082250D01*
X113729203Y-91061426D01*
X113726053Y-91040191D01*
X113725000Y-91018750D01*
X113725000Y-90581250D01*
X113726053Y-90559809D01*
X113729203Y-90538574D01*
X113734419Y-90517750D01*
X113741651Y-90497538D01*
X113750830Y-90478132D01*
X113761866Y-90459719D01*
X113774654Y-90442476D01*
X113789070Y-90426570D01*
X113804976Y-90412154D01*
X113822219Y-90399366D01*
X113840632Y-90388330D01*
X113860038Y-90379151D01*
X113880250Y-90371919D01*
X113901074Y-90366703D01*
X113922309Y-90363553D01*
X113943750Y-90362500D01*
X114456250Y-90362500D01*
X114477691Y-90363553D01*
G37*
M02*
