G04 #@! TF.GenerationSoftware,KiCad,Pcbnew,(5.1.5)-3*
G04 #@! TF.CreationDate,2020-06-09T15:55:59-06:00*
G04 #@! TF.ProjectId,CruiseController,43727569-7365-4436-9f6e-74726f6c6c65,rev?*
G04 #@! TF.SameCoordinates,Original*
G04 #@! TF.FileFunction,Legend,Top*
G04 #@! TF.FilePolarity,Positive*
%FSLAX46Y46*%
G04 Gerber Fmt 4.6, Leading zero omitted, Abs format (unit mm)*
G04 Created by KiCad (PCBNEW (5.1.5)-3) date 2020-06-09 15:55:59*
%MOMM*%
%LPD*%
G04 APERTURE LIST*
%ADD10C,0.120000*%
%ADD11C,0.150000*%
G04 APERTURE END LIST*
D10*
X118500000Y-84600000D02*
X120300000Y-84600000D01*
X120350000Y-83200000D02*
X120350000Y-82100000D01*
X118450000Y-83200000D02*
X118450000Y-82100000D01*
X116975279Y-83090000D02*
X116649721Y-83090000D01*
X116975279Y-84110000D02*
X116649721Y-84110000D01*
X116950279Y-81190000D02*
X116624721Y-81190000D01*
X116950279Y-82210000D02*
X116624721Y-82210000D01*
X121000000Y-106100000D02*
G75*
G03X121000000Y-106100000I-1200000J0D01*
G01*
X112000000Y-70000000D02*
X100000000Y-70000000D01*
X112000000Y-108000000D02*
X112000000Y-70000000D01*
X100000000Y-108000000D02*
X112000000Y-108000000D01*
X100000000Y-70000000D02*
X100000000Y-108000000D01*
X111640000Y-75641422D02*
X111640000Y-76158578D01*
X113060000Y-75641422D02*
X113060000Y-76158578D01*
X114575279Y-97090000D02*
X114249721Y-97090000D01*
X114575279Y-98110000D02*
X114249721Y-98110000D01*
X116610000Y-88112779D02*
X116610000Y-87787221D01*
X115590000Y-88112779D02*
X115590000Y-87787221D01*
X114290000Y-87787221D02*
X114290000Y-88112779D01*
X115310000Y-87787221D02*
X115310000Y-88112779D01*
X116110000Y-91750279D02*
X116110000Y-91424721D01*
X115090000Y-91750279D02*
X115090000Y-91424721D01*
X120562779Y-85590000D02*
X120237221Y-85590000D01*
X120562779Y-86610000D02*
X120237221Y-86610000D01*
X119437221Y-75910000D02*
X119762779Y-75910000D01*
X119437221Y-74890000D02*
X119762779Y-74890000D01*
X112290000Y-91437221D02*
X112290000Y-91762779D01*
X113310000Y-91437221D02*
X113310000Y-91762779D01*
X121585000Y-78500279D02*
X121585000Y-78174721D01*
X120565000Y-78500279D02*
X120565000Y-78174721D01*
X114040000Y-77460000D02*
X114040000Y-77310000D01*
X117160000Y-77460000D02*
X117160000Y-77310000D01*
X117160000Y-74340000D02*
X117160000Y-74490000D01*
X117160000Y-77460000D02*
X114040000Y-77460000D01*
X117160000Y-74340000D02*
X114040000Y-74340000D01*
X114040000Y-74340000D02*
X114040000Y-74490000D01*
X117160000Y-77310000D02*
X117420000Y-77310000D01*
X115149721Y-73760000D02*
X115475279Y-73760000D01*
X115149721Y-72740000D02*
X115475279Y-72740000D01*
X116890000Y-87799721D02*
X116890000Y-88125279D01*
X117910000Y-87799721D02*
X117910000Y-88125279D01*
X119210000Y-97462779D02*
X119210000Y-97137221D01*
X118190000Y-97462779D02*
X118190000Y-97137221D01*
X113690000Y-91424721D02*
X113690000Y-91750279D01*
X114710000Y-91424721D02*
X114710000Y-91750279D01*
D11*
X118823809Y-79976190D02*
X118823809Y-80452380D01*
X118490476Y-79452380D02*
X118823809Y-79976190D01*
X119157142Y-79452380D01*
X120014285Y-80452380D02*
X119442857Y-80452380D01*
X119728571Y-80452380D02*
X119728571Y-79452380D01*
X119633333Y-79595238D01*
X119538095Y-79690476D01*
X119442857Y-79738095D01*
X113257142Y-83957142D02*
X113209523Y-84004761D01*
X113066666Y-84052380D01*
X112971428Y-84052380D01*
X112828571Y-84004761D01*
X112733333Y-83909523D01*
X112685714Y-83814285D01*
X112638095Y-83623809D01*
X112638095Y-83480952D01*
X112685714Y-83290476D01*
X112733333Y-83195238D01*
X112828571Y-83100000D01*
X112971428Y-83052380D01*
X113066666Y-83052380D01*
X113209523Y-83100000D01*
X113257142Y-83147619D01*
X114209523Y-84052380D02*
X113638095Y-84052380D01*
X113923809Y-84052380D02*
X113923809Y-83052380D01*
X113828571Y-83195238D01*
X113733333Y-83290476D01*
X113638095Y-83338095D01*
X115066666Y-83052380D02*
X114876190Y-83052380D01*
X114780952Y-83100000D01*
X114733333Y-83147619D01*
X114638095Y-83290476D01*
X114590476Y-83480952D01*
X114590476Y-83861904D01*
X114638095Y-83957142D01*
X114685714Y-84004761D01*
X114780952Y-84052380D01*
X114971428Y-84052380D01*
X115066666Y-84004761D01*
X115114285Y-83957142D01*
X115161904Y-83861904D01*
X115161904Y-83623809D01*
X115114285Y-83528571D01*
X115066666Y-83480952D01*
X114971428Y-83433333D01*
X114780952Y-83433333D01*
X114685714Y-83480952D01*
X114638095Y-83528571D01*
X114590476Y-83623809D01*
X116157142Y-80557142D02*
X116109523Y-80604761D01*
X115966666Y-80652380D01*
X115871428Y-80652380D01*
X115728571Y-80604761D01*
X115633333Y-80509523D01*
X115585714Y-80414285D01*
X115538095Y-80223809D01*
X115538095Y-80080952D01*
X115585714Y-79890476D01*
X115633333Y-79795238D01*
X115728571Y-79700000D01*
X115871428Y-79652380D01*
X115966666Y-79652380D01*
X116109523Y-79700000D01*
X116157142Y-79747619D01*
X117109523Y-80652380D02*
X116538095Y-80652380D01*
X116823809Y-80652380D02*
X116823809Y-79652380D01*
X116728571Y-79795238D01*
X116633333Y-79890476D01*
X116538095Y-79938095D01*
X118061904Y-80652380D02*
X117490476Y-80652380D01*
X117776190Y-80652380D02*
X117776190Y-79652380D01*
X117680952Y-79795238D01*
X117585714Y-79890476D01*
X117490476Y-79938095D01*
X118538095Y-103554380D02*
X119109523Y-103554380D01*
X118823809Y-104554380D02*
X118823809Y-103554380D01*
X119442857Y-104554380D02*
X119442857Y-103554380D01*
X119823809Y-103554380D01*
X119919047Y-103602000D01*
X119966666Y-103649619D01*
X120014285Y-103744857D01*
X120014285Y-103887714D01*
X119966666Y-103982952D01*
X119919047Y-104030571D01*
X119823809Y-104078190D01*
X119442857Y-104078190D01*
X120966666Y-104554380D02*
X120395238Y-104554380D01*
X120680952Y-104554380D02*
X120680952Y-103554380D01*
X120585714Y-103697238D01*
X120490476Y-103792476D01*
X120395238Y-103840095D01*
X109616666Y-103077380D02*
X109616666Y-103791666D01*
X109569047Y-103934523D01*
X109473809Y-104029761D01*
X109330952Y-104077380D01*
X109235714Y-104077380D01*
X110045238Y-103172619D02*
X110092857Y-103125000D01*
X110188095Y-103077380D01*
X110426190Y-103077380D01*
X110521428Y-103125000D01*
X110569047Y-103172619D01*
X110616666Y-103267857D01*
X110616666Y-103363095D01*
X110569047Y-103505952D01*
X109997619Y-104077380D01*
X110616666Y-104077380D01*
X111127380Y-75366666D02*
X110651190Y-75700000D01*
X111127380Y-75938095D02*
X110127380Y-75938095D01*
X110127380Y-75557142D01*
X110175000Y-75461904D01*
X110222619Y-75414285D01*
X110317857Y-75366666D01*
X110460714Y-75366666D01*
X110555952Y-75414285D01*
X110603571Y-75461904D01*
X110651190Y-75557142D01*
X110651190Y-75938095D01*
X110555952Y-74795238D02*
X110508333Y-74890476D01*
X110460714Y-74938095D01*
X110365476Y-74985714D01*
X110317857Y-74985714D01*
X110222619Y-74938095D01*
X110175000Y-74890476D01*
X110127380Y-74795238D01*
X110127380Y-74604761D01*
X110175000Y-74509523D01*
X110222619Y-74461904D01*
X110317857Y-74414285D01*
X110365476Y-74414285D01*
X110460714Y-74461904D01*
X110508333Y-74509523D01*
X110555952Y-74604761D01*
X110555952Y-74795238D01*
X110603571Y-74890476D01*
X110651190Y-74938095D01*
X110746428Y-74985714D01*
X110936904Y-74985714D01*
X111032142Y-74938095D01*
X111079761Y-74890476D01*
X111127380Y-74795238D01*
X111127380Y-74604761D01*
X111079761Y-74509523D01*
X111032142Y-74461904D01*
X110936904Y-74414285D01*
X110746428Y-74414285D01*
X110651190Y-74461904D01*
X110603571Y-74509523D01*
X110555952Y-74604761D01*
X114833333Y-99157142D02*
X114785714Y-99204761D01*
X114642857Y-99252380D01*
X114547619Y-99252380D01*
X114404761Y-99204761D01*
X114309523Y-99109523D01*
X114261904Y-99014285D01*
X114214285Y-98823809D01*
X114214285Y-98680952D01*
X114261904Y-98490476D01*
X114309523Y-98395238D01*
X114404761Y-98300000D01*
X114547619Y-98252380D01*
X114642857Y-98252380D01*
X114785714Y-98300000D01*
X114833333Y-98347619D01*
X115214285Y-98347619D02*
X115261904Y-98300000D01*
X115357142Y-98252380D01*
X115595238Y-98252380D01*
X115690476Y-98300000D01*
X115738095Y-98347619D01*
X115785714Y-98442857D01*
X115785714Y-98538095D01*
X115738095Y-98680952D01*
X115166666Y-99252380D01*
X115785714Y-99252380D01*
X119152380Y-89342857D02*
X118676190Y-89676190D01*
X119152380Y-89914285D02*
X118152380Y-89914285D01*
X118152380Y-89533333D01*
X118200000Y-89438095D01*
X118247619Y-89390476D01*
X118342857Y-89342857D01*
X118485714Y-89342857D01*
X118580952Y-89390476D01*
X118628571Y-89438095D01*
X118676190Y-89533333D01*
X118676190Y-89914285D01*
X119152380Y-88390476D02*
X119152380Y-88961904D01*
X119152380Y-88676190D02*
X118152380Y-88676190D01*
X118295238Y-88771428D01*
X118390476Y-88866666D01*
X118438095Y-88961904D01*
X118247619Y-88009523D02*
X118200000Y-87961904D01*
X118152380Y-87866666D01*
X118152380Y-87628571D01*
X118200000Y-87533333D01*
X118247619Y-87485714D01*
X118342857Y-87438095D01*
X118438095Y-87438095D01*
X118580952Y-87485714D01*
X119152380Y-88057142D01*
X119152380Y-87438095D01*
X115152380Y-85642857D02*
X114676190Y-85976190D01*
X115152380Y-86214285D02*
X114152380Y-86214285D01*
X114152380Y-85833333D01*
X114200000Y-85738095D01*
X114247619Y-85690476D01*
X114342857Y-85642857D01*
X114485714Y-85642857D01*
X114580952Y-85690476D01*
X114628571Y-85738095D01*
X114676190Y-85833333D01*
X114676190Y-86214285D01*
X115152380Y-84690476D02*
X115152380Y-85261904D01*
X115152380Y-84976190D02*
X114152380Y-84976190D01*
X114295238Y-85071428D01*
X114390476Y-85166666D01*
X114438095Y-85261904D01*
X115152380Y-83738095D02*
X115152380Y-84309523D01*
X115152380Y-84023809D02*
X114152380Y-84023809D01*
X114295238Y-84119047D01*
X114390476Y-84214285D01*
X114438095Y-84309523D01*
X116202380Y-95142857D02*
X115726190Y-95476190D01*
X116202380Y-95714285D02*
X115202380Y-95714285D01*
X115202380Y-95333333D01*
X115250000Y-95238095D01*
X115297619Y-95190476D01*
X115392857Y-95142857D01*
X115535714Y-95142857D01*
X115630952Y-95190476D01*
X115678571Y-95238095D01*
X115726190Y-95333333D01*
X115726190Y-95714285D01*
X116202380Y-94190476D02*
X116202380Y-94761904D01*
X116202380Y-94476190D02*
X115202380Y-94476190D01*
X115345238Y-94571428D01*
X115440476Y-94666666D01*
X115488095Y-94761904D01*
X115535714Y-93333333D02*
X116202380Y-93333333D01*
X115154761Y-93571428D02*
X115869047Y-93809523D01*
X115869047Y-93190476D01*
X116857142Y-85957142D02*
X116809523Y-86004761D01*
X116666666Y-86052380D01*
X116571428Y-86052380D01*
X116428571Y-86004761D01*
X116333333Y-85909523D01*
X116285714Y-85814285D01*
X116238095Y-85623809D01*
X116238095Y-85480952D01*
X116285714Y-85290476D01*
X116333333Y-85195238D01*
X116428571Y-85100000D01*
X116571428Y-85052380D01*
X116666666Y-85052380D01*
X116809523Y-85100000D01*
X116857142Y-85147619D01*
X117238095Y-85147619D02*
X117285714Y-85100000D01*
X117380952Y-85052380D01*
X117619047Y-85052380D01*
X117714285Y-85100000D01*
X117761904Y-85147619D01*
X117809523Y-85242857D01*
X117809523Y-85338095D01*
X117761904Y-85480952D01*
X117190476Y-86052380D01*
X117809523Y-86052380D01*
X118190476Y-85147619D02*
X118238095Y-85100000D01*
X118333333Y-85052380D01*
X118571428Y-85052380D01*
X118666666Y-85100000D01*
X118714285Y-85147619D01*
X118761904Y-85242857D01*
X118761904Y-85338095D01*
X118714285Y-85480952D01*
X118142857Y-86052380D01*
X118761904Y-86052380D01*
X118857142Y-74507142D02*
X118809523Y-74554761D01*
X118666666Y-74602380D01*
X118571428Y-74602380D01*
X118428571Y-74554761D01*
X118333333Y-74459523D01*
X118285714Y-74364285D01*
X118238095Y-74173809D01*
X118238095Y-74030952D01*
X118285714Y-73840476D01*
X118333333Y-73745238D01*
X118428571Y-73650000D01*
X118571428Y-73602380D01*
X118666666Y-73602380D01*
X118809523Y-73650000D01*
X118857142Y-73697619D01*
X119809523Y-74602380D02*
X119238095Y-74602380D01*
X119523809Y-74602380D02*
X119523809Y-73602380D01*
X119428571Y-73745238D01*
X119333333Y-73840476D01*
X119238095Y-73888095D01*
X120666666Y-73935714D02*
X120666666Y-74602380D01*
X120428571Y-73554761D02*
X120190476Y-74269047D01*
X120809523Y-74269047D01*
X113552380Y-95155357D02*
X113076190Y-95488690D01*
X113552380Y-95726785D02*
X112552380Y-95726785D01*
X112552380Y-95345833D01*
X112600000Y-95250595D01*
X112647619Y-95202976D01*
X112742857Y-95155357D01*
X112885714Y-95155357D01*
X112980952Y-95202976D01*
X113028571Y-95250595D01*
X113076190Y-95345833D01*
X113076190Y-95726785D01*
X113552380Y-94202976D02*
X113552380Y-94774404D01*
X113552380Y-94488690D02*
X112552380Y-94488690D01*
X112695238Y-94583928D01*
X112790476Y-94679166D01*
X112838095Y-94774404D01*
X112552380Y-93869642D02*
X112552380Y-93250595D01*
X112933333Y-93583928D01*
X112933333Y-93441071D01*
X112980952Y-93345833D01*
X113028571Y-93298214D01*
X113123809Y-93250595D01*
X113361904Y-93250595D01*
X113457142Y-93298214D01*
X113504761Y-93345833D01*
X113552380Y-93441071D01*
X113552380Y-93726785D01*
X113504761Y-93822023D01*
X113457142Y-93869642D01*
X119957142Y-78342857D02*
X120004761Y-78390476D01*
X120052380Y-78533333D01*
X120052380Y-78628571D01*
X120004761Y-78771428D01*
X119909523Y-78866666D01*
X119814285Y-78914285D01*
X119623809Y-78961904D01*
X119480952Y-78961904D01*
X119290476Y-78914285D01*
X119195238Y-78866666D01*
X119100000Y-78771428D01*
X119052380Y-78628571D01*
X119052380Y-78533333D01*
X119100000Y-78390476D01*
X119147619Y-78342857D01*
X119147619Y-77961904D02*
X119100000Y-77914285D01*
X119052380Y-77819047D01*
X119052380Y-77580952D01*
X119100000Y-77485714D01*
X119147619Y-77438095D01*
X119242857Y-77390476D01*
X119338095Y-77390476D01*
X119480952Y-77438095D01*
X120052380Y-78009523D01*
X120052380Y-77390476D01*
X119052380Y-76771428D02*
X119052380Y-76676190D01*
X119100000Y-76580952D01*
X119147619Y-76533333D01*
X119242857Y-76485714D01*
X119433333Y-76438095D01*
X119671428Y-76438095D01*
X119861904Y-76485714D01*
X119957142Y-76533333D01*
X120004761Y-76580952D01*
X120052380Y-76676190D01*
X120052380Y-76771428D01*
X120004761Y-76866666D01*
X119957142Y-76914285D01*
X119861904Y-76961904D01*
X119671428Y-77009523D01*
X119433333Y-77009523D01*
X119242857Y-76961904D01*
X119147619Y-76914285D01*
X119100000Y-76866666D01*
X119052380Y-76771428D01*
X115938095Y-77852380D02*
X115938095Y-78661904D01*
X115985714Y-78757142D01*
X116033333Y-78804761D01*
X116128571Y-78852380D01*
X116319047Y-78852380D01*
X116414285Y-78804761D01*
X116461904Y-78757142D01*
X116509523Y-78661904D01*
X116509523Y-77852380D01*
X117414285Y-77852380D02*
X117223809Y-77852380D01*
X117128571Y-77900000D01*
X117080952Y-77947619D01*
X116985714Y-78090476D01*
X116938095Y-78280952D01*
X116938095Y-78661904D01*
X116985714Y-78757142D01*
X117033333Y-78804761D01*
X117128571Y-78852380D01*
X117319047Y-78852380D01*
X117414285Y-78804761D01*
X117461904Y-78757142D01*
X117509523Y-78661904D01*
X117509523Y-78423809D01*
X117461904Y-78328571D01*
X117414285Y-78280952D01*
X117319047Y-78233333D01*
X117128571Y-78233333D01*
X117033333Y-78280952D01*
X116985714Y-78328571D01*
X116938095Y-78423809D01*
X114532142Y-72357142D02*
X114484523Y-72404761D01*
X114341666Y-72452380D01*
X114246428Y-72452380D01*
X114103571Y-72404761D01*
X114008333Y-72309523D01*
X113960714Y-72214285D01*
X113913095Y-72023809D01*
X113913095Y-71880952D01*
X113960714Y-71690476D01*
X114008333Y-71595238D01*
X114103571Y-71500000D01*
X114246428Y-71452380D01*
X114341666Y-71452380D01*
X114484523Y-71500000D01*
X114532142Y-71547619D01*
X115484523Y-72452380D02*
X114913095Y-72452380D01*
X115198809Y-72452380D02*
X115198809Y-71452380D01*
X115103571Y-71595238D01*
X115008333Y-71690476D01*
X114913095Y-71738095D01*
X116389285Y-71452380D02*
X115913095Y-71452380D01*
X115865476Y-71928571D01*
X115913095Y-71880952D01*
X116008333Y-71833333D01*
X116246428Y-71833333D01*
X116341666Y-71880952D01*
X116389285Y-71928571D01*
X116436904Y-72023809D01*
X116436904Y-72261904D01*
X116389285Y-72357142D01*
X116341666Y-72404761D01*
X116246428Y-72452380D01*
X116008333Y-72452380D01*
X115913095Y-72404761D01*
X115865476Y-72357142D01*
X120357142Y-89342857D02*
X120404761Y-89390476D01*
X120452380Y-89533333D01*
X120452380Y-89628571D01*
X120404761Y-89771428D01*
X120309523Y-89866666D01*
X120214285Y-89914285D01*
X120023809Y-89961904D01*
X119880952Y-89961904D01*
X119690476Y-89914285D01*
X119595238Y-89866666D01*
X119500000Y-89771428D01*
X119452380Y-89628571D01*
X119452380Y-89533333D01*
X119500000Y-89390476D01*
X119547619Y-89342857D01*
X120452380Y-88390476D02*
X120452380Y-88961904D01*
X120452380Y-88676190D02*
X119452380Y-88676190D01*
X119595238Y-88771428D01*
X119690476Y-88866666D01*
X119738095Y-88961904D01*
X119547619Y-88009523D02*
X119500000Y-87961904D01*
X119452380Y-87866666D01*
X119452380Y-87628571D01*
X119500000Y-87533333D01*
X119547619Y-87485714D01*
X119642857Y-87438095D01*
X119738095Y-87438095D01*
X119880952Y-87485714D01*
X120452380Y-88057142D01*
X120452380Y-87438095D01*
X117657142Y-97766666D02*
X117704761Y-97814285D01*
X117752380Y-97957142D01*
X117752380Y-98052380D01*
X117704761Y-98195238D01*
X117609523Y-98290476D01*
X117514285Y-98338095D01*
X117323809Y-98385714D01*
X117180952Y-98385714D01*
X116990476Y-98338095D01*
X116895238Y-98290476D01*
X116800000Y-98195238D01*
X116752380Y-98052380D01*
X116752380Y-97957142D01*
X116800000Y-97814285D01*
X116847619Y-97766666D01*
X116752380Y-97433333D02*
X116752380Y-96766666D01*
X117752380Y-97195238D01*
X114832142Y-95192857D02*
X114879761Y-95240476D01*
X114927380Y-95383333D01*
X114927380Y-95478571D01*
X114879761Y-95621428D01*
X114784523Y-95716666D01*
X114689285Y-95764285D01*
X114498809Y-95811904D01*
X114355952Y-95811904D01*
X114165476Y-95764285D01*
X114070238Y-95716666D01*
X113975000Y-95621428D01*
X113927380Y-95478571D01*
X113927380Y-95383333D01*
X113975000Y-95240476D01*
X114022619Y-95192857D01*
X114927380Y-94240476D02*
X114927380Y-94811904D01*
X114927380Y-94526190D02*
X113927380Y-94526190D01*
X114070238Y-94621428D01*
X114165476Y-94716666D01*
X114213095Y-94811904D01*
X113927380Y-93907142D02*
X113927380Y-93288095D01*
X114308333Y-93621428D01*
X114308333Y-93478571D01*
X114355952Y-93383333D01*
X114403571Y-93335714D01*
X114498809Y-93288095D01*
X114736904Y-93288095D01*
X114832142Y-93335714D01*
X114879761Y-93383333D01*
X114927380Y-93478571D01*
X114927380Y-93764285D01*
X114879761Y-93859523D01*
X114832142Y-93907142D01*
M02*
