G04 #@! TF.GenerationSoftware,KiCad,Pcbnew,(5.1.5)-3*
G04 #@! TF.CreationDate,2020-06-09T15:55:59-06:00*
G04 #@! TF.ProjectId,CruiseController,43727569-7365-4436-9f6e-74726f6c6c65,rev?*
G04 #@! TF.SameCoordinates,Original*
G04 #@! TF.FileFunction,Soldermask,Top*
G04 #@! TF.FilePolarity,Negative*
%FSLAX46Y46*%
G04 Gerber Fmt 4.6, Leading zero omitted, Abs format (unit mm)*
G04 Created by KiCad (PCBNEW (5.1.5)-3) date 2020-06-09 15:55:59*
%MOMM*%
%LPD*%
G04 APERTURE LIST*
%ADD10C,0.100000*%
G04 APERTURE END LIST*
D10*
G36*
X119984734Y-105065156D02*
G01*
X120106568Y-105089390D01*
X120236558Y-105143234D01*
X120297835Y-105168616D01*
X120297836Y-105168617D01*
X120467588Y-105282041D01*
X120469973Y-105283635D01*
X120616365Y-105430027D01*
X120731384Y-105602165D01*
X120756766Y-105663442D01*
X120810610Y-105793432D01*
X120851000Y-105996488D01*
X120851000Y-106203512D01*
X120810610Y-106406568D01*
X120756766Y-106536558D01*
X120731384Y-106597835D01*
X120616365Y-106769973D01*
X120469973Y-106916365D01*
X120297835Y-107031384D01*
X120236558Y-107056766D01*
X120106568Y-107110610D01*
X119984734Y-107134844D01*
X119903514Y-107151000D01*
X119696486Y-107151000D01*
X119615266Y-107134844D01*
X119493432Y-107110610D01*
X119363442Y-107056766D01*
X119302165Y-107031384D01*
X119130027Y-106916365D01*
X118983635Y-106769973D01*
X118868616Y-106597835D01*
X118843234Y-106536558D01*
X118789390Y-106406568D01*
X118749000Y-106203512D01*
X118749000Y-105996488D01*
X118789390Y-105793432D01*
X118843234Y-105663442D01*
X118868616Y-105602165D01*
X118983635Y-105430027D01*
X119130027Y-105283635D01*
X119132413Y-105282041D01*
X119302164Y-105168617D01*
X119302165Y-105168616D01*
X119363442Y-105143234D01*
X119493432Y-105089390D01*
X119615266Y-105065156D01*
X119696486Y-105049000D01*
X119903514Y-105049000D01*
X119984734Y-105065156D01*
G37*
G36*
X106481579Y-102912447D02*
G01*
X106782042Y-103036903D01*
X107052451Y-103217585D01*
X107282415Y-103447549D01*
X107463097Y-103717958D01*
X107587553Y-104018421D01*
X107651000Y-104337391D01*
X107651000Y-104662609D01*
X107587553Y-104981579D01*
X107463097Y-105282042D01*
X107282415Y-105552451D01*
X107052451Y-105782415D01*
X106782042Y-105963097D01*
X106481579Y-106087553D01*
X106162609Y-106151000D01*
X105837391Y-106151000D01*
X105518421Y-106087553D01*
X105217958Y-105963097D01*
X104947549Y-105782415D01*
X104717585Y-105552451D01*
X104536903Y-105282042D01*
X104412447Y-104981579D01*
X104349000Y-104662609D01*
X104349000Y-104337391D01*
X104412447Y-104018421D01*
X104536903Y-103717958D01*
X104717585Y-103447549D01*
X104947549Y-103217585D01*
X105217958Y-103036903D01*
X105518421Y-102912447D01*
X105837391Y-102849000D01*
X106162609Y-102849000D01*
X106481579Y-102912447D01*
G37*
G36*
X107649581Y-98162081D02*
G01*
X107748228Y-98181703D01*
X107903100Y-98245853D01*
X108042481Y-98338985D01*
X108161015Y-98457519D01*
X108254147Y-98596900D01*
X108318297Y-98751772D01*
X108351000Y-98916184D01*
X108351000Y-99083816D01*
X108318297Y-99248228D01*
X108254147Y-99403100D01*
X108161015Y-99542481D01*
X108042481Y-99661015D01*
X107903100Y-99754147D01*
X107748228Y-99818297D01*
X107649581Y-99837919D01*
X107583818Y-99851000D01*
X107416182Y-99851000D01*
X107350419Y-99837919D01*
X107251772Y-99818297D01*
X107096900Y-99754147D01*
X106957519Y-99661015D01*
X106838985Y-99542481D01*
X106745853Y-99403100D01*
X106681703Y-99248228D01*
X106649000Y-99083816D01*
X106649000Y-98916184D01*
X106681703Y-98751772D01*
X106745853Y-98596900D01*
X106838985Y-98457519D01*
X106957519Y-98338985D01*
X107096900Y-98245853D01*
X107251772Y-98181703D01*
X107350419Y-98162081D01*
X107416182Y-98149000D01*
X107583818Y-98149000D01*
X107649581Y-98162081D01*
G37*
G36*
X110649581Y-98162081D02*
G01*
X110748228Y-98181703D01*
X110903100Y-98245853D01*
X111042481Y-98338985D01*
X111161015Y-98457519D01*
X111254147Y-98596900D01*
X111318297Y-98751772D01*
X111351000Y-98916184D01*
X111351000Y-99083816D01*
X111318297Y-99248228D01*
X111254147Y-99403100D01*
X111161015Y-99542481D01*
X111042481Y-99661015D01*
X110903100Y-99754147D01*
X110748228Y-99818297D01*
X110649581Y-99837919D01*
X110583818Y-99851000D01*
X110416182Y-99851000D01*
X110350419Y-99837919D01*
X110251772Y-99818297D01*
X110096900Y-99754147D01*
X109957519Y-99661015D01*
X109838985Y-99542481D01*
X109745853Y-99403100D01*
X109681703Y-99248228D01*
X109649000Y-99083816D01*
X109649000Y-98916184D01*
X109681703Y-98751772D01*
X109745853Y-98596900D01*
X109838985Y-98457519D01*
X109957519Y-98338985D01*
X110096900Y-98245853D01*
X110251772Y-98181703D01*
X110350419Y-98162081D01*
X110416182Y-98149000D01*
X110583818Y-98149000D01*
X110649581Y-98162081D01*
G37*
G36*
X119069552Y-97603207D02*
G01*
X119105898Y-97614232D01*
X119139401Y-97632140D01*
X119168763Y-97656237D01*
X119192860Y-97685599D01*
X119210768Y-97719102D01*
X119221793Y-97755448D01*
X119226000Y-97798158D01*
X119226000Y-98376842D01*
X119221793Y-98419552D01*
X119210768Y-98455898D01*
X119192860Y-98489401D01*
X119168763Y-98518763D01*
X119139401Y-98542860D01*
X119105898Y-98560768D01*
X119069552Y-98571793D01*
X119026842Y-98576000D01*
X118373158Y-98576000D01*
X118330448Y-98571793D01*
X118294102Y-98560768D01*
X118260599Y-98542860D01*
X118231237Y-98518763D01*
X118207140Y-98489401D01*
X118189232Y-98455898D01*
X118178207Y-98419552D01*
X118174000Y-98376842D01*
X118174000Y-97798158D01*
X118178207Y-97755448D01*
X118189232Y-97719102D01*
X118207140Y-97685599D01*
X118231237Y-97656237D01*
X118260599Y-97632140D01*
X118294102Y-97614232D01*
X118330448Y-97603207D01*
X118373158Y-97599000D01*
X119026842Y-97599000D01*
X119069552Y-97603207D01*
G37*
G36*
X115532052Y-97078207D02*
G01*
X115568398Y-97089232D01*
X115601901Y-97107140D01*
X115631263Y-97131237D01*
X115655360Y-97160599D01*
X115673268Y-97194102D01*
X115684293Y-97230448D01*
X115688500Y-97273158D01*
X115688500Y-97926842D01*
X115684293Y-97969552D01*
X115673268Y-98005898D01*
X115655360Y-98039401D01*
X115631263Y-98068763D01*
X115601901Y-98092860D01*
X115568398Y-98110768D01*
X115532052Y-98121793D01*
X115489342Y-98126000D01*
X114910658Y-98126000D01*
X114867948Y-98121793D01*
X114831602Y-98110768D01*
X114798099Y-98092860D01*
X114768737Y-98068763D01*
X114744640Y-98039401D01*
X114726732Y-98005898D01*
X114715707Y-97969552D01*
X114711500Y-97926842D01*
X114711500Y-97273158D01*
X114715707Y-97230448D01*
X114726732Y-97194102D01*
X114744640Y-97160599D01*
X114768737Y-97131237D01*
X114798099Y-97107140D01*
X114831602Y-97089232D01*
X114867948Y-97078207D01*
X114910658Y-97074000D01*
X115489342Y-97074000D01*
X115532052Y-97078207D01*
G37*
G36*
X113957052Y-97078207D02*
G01*
X113993398Y-97089232D01*
X114026901Y-97107140D01*
X114056263Y-97131237D01*
X114080360Y-97160599D01*
X114098268Y-97194102D01*
X114109293Y-97230448D01*
X114113500Y-97273158D01*
X114113500Y-97926842D01*
X114109293Y-97969552D01*
X114098268Y-98005898D01*
X114080360Y-98039401D01*
X114056263Y-98068763D01*
X114026901Y-98092860D01*
X113993398Y-98110768D01*
X113957052Y-98121793D01*
X113914342Y-98126000D01*
X113335658Y-98126000D01*
X113292948Y-98121793D01*
X113256602Y-98110768D01*
X113223099Y-98092860D01*
X113193737Y-98068763D01*
X113169640Y-98039401D01*
X113151732Y-98005898D01*
X113140707Y-97969552D01*
X113136500Y-97926842D01*
X113136500Y-97273158D01*
X113140707Y-97230448D01*
X113151732Y-97194102D01*
X113169640Y-97160599D01*
X113193737Y-97131237D01*
X113223099Y-97107140D01*
X113256602Y-97089232D01*
X113292948Y-97078207D01*
X113335658Y-97074000D01*
X113914342Y-97074000D01*
X113957052Y-97078207D01*
G37*
G36*
X110649581Y-95662081D02*
G01*
X110748228Y-95681703D01*
X110903100Y-95745853D01*
X111042481Y-95838985D01*
X111161015Y-95957519D01*
X111254147Y-96096900D01*
X111318297Y-96251772D01*
X111351000Y-96416184D01*
X111351000Y-96583816D01*
X111318297Y-96748228D01*
X111254147Y-96903100D01*
X111161015Y-97042481D01*
X111042481Y-97161015D01*
X110903100Y-97254147D01*
X110748228Y-97318297D01*
X110649581Y-97337919D01*
X110583818Y-97351000D01*
X110416182Y-97351000D01*
X110350419Y-97337919D01*
X110251772Y-97318297D01*
X110096900Y-97254147D01*
X109957519Y-97161015D01*
X109838985Y-97042481D01*
X109745853Y-96903100D01*
X109681703Y-96748228D01*
X109649000Y-96583816D01*
X109649000Y-96416184D01*
X109681703Y-96251772D01*
X109745853Y-96096900D01*
X109838985Y-95957519D01*
X109957519Y-95838985D01*
X110096900Y-95745853D01*
X110251772Y-95681703D01*
X110350419Y-95662081D01*
X110416182Y-95649000D01*
X110583818Y-95649000D01*
X110649581Y-95662081D01*
G37*
G36*
X107649581Y-95662081D02*
G01*
X107748228Y-95681703D01*
X107903100Y-95745853D01*
X108042481Y-95838985D01*
X108161015Y-95957519D01*
X108254147Y-96096900D01*
X108318297Y-96251772D01*
X108351000Y-96416184D01*
X108351000Y-96583816D01*
X108318297Y-96748228D01*
X108254147Y-96903100D01*
X108161015Y-97042481D01*
X108042481Y-97161015D01*
X107903100Y-97254147D01*
X107748228Y-97318297D01*
X107649581Y-97337919D01*
X107583818Y-97351000D01*
X107416182Y-97351000D01*
X107350419Y-97337919D01*
X107251772Y-97318297D01*
X107096900Y-97254147D01*
X106957519Y-97161015D01*
X106838985Y-97042481D01*
X106745853Y-96903100D01*
X106681703Y-96748228D01*
X106649000Y-96583816D01*
X106649000Y-96416184D01*
X106681703Y-96251772D01*
X106745853Y-96096900D01*
X106838985Y-95957519D01*
X106957519Y-95838985D01*
X107096900Y-95745853D01*
X107251772Y-95681703D01*
X107350419Y-95662081D01*
X107416182Y-95649000D01*
X107583818Y-95649000D01*
X107649581Y-95662081D01*
G37*
G36*
X119069552Y-96028207D02*
G01*
X119105898Y-96039232D01*
X119139401Y-96057140D01*
X119168763Y-96081237D01*
X119192860Y-96110599D01*
X119210768Y-96144102D01*
X119221793Y-96180448D01*
X119226000Y-96223158D01*
X119226000Y-96801842D01*
X119221793Y-96844552D01*
X119210768Y-96880898D01*
X119192860Y-96914401D01*
X119168763Y-96943763D01*
X119139401Y-96967860D01*
X119105898Y-96985768D01*
X119069552Y-96996793D01*
X119026842Y-97001000D01*
X118373158Y-97001000D01*
X118330448Y-96996793D01*
X118294102Y-96985768D01*
X118260599Y-96967860D01*
X118231237Y-96943763D01*
X118207140Y-96914401D01*
X118189232Y-96880898D01*
X118178207Y-96844552D01*
X118174000Y-96801842D01*
X118174000Y-96223158D01*
X118178207Y-96180448D01*
X118189232Y-96144102D01*
X118207140Y-96110599D01*
X118231237Y-96081237D01*
X118260599Y-96057140D01*
X118294102Y-96039232D01*
X118330448Y-96028207D01*
X118373158Y-96024000D01*
X119026842Y-96024000D01*
X119069552Y-96028207D01*
G37*
G36*
X107649581Y-93162081D02*
G01*
X107748228Y-93181703D01*
X107903100Y-93245853D01*
X108042481Y-93338985D01*
X108161015Y-93457519D01*
X108254147Y-93596900D01*
X108318297Y-93751772D01*
X108351000Y-93916184D01*
X108351000Y-94083816D01*
X108318297Y-94248228D01*
X108254147Y-94403100D01*
X108161015Y-94542481D01*
X108042481Y-94661015D01*
X107903100Y-94754147D01*
X107748228Y-94818297D01*
X107649581Y-94837919D01*
X107583818Y-94851000D01*
X107416182Y-94851000D01*
X107350419Y-94837919D01*
X107251772Y-94818297D01*
X107096900Y-94754147D01*
X106957519Y-94661015D01*
X106838985Y-94542481D01*
X106745853Y-94403100D01*
X106681703Y-94248228D01*
X106649000Y-94083816D01*
X106649000Y-93916184D01*
X106681703Y-93751772D01*
X106745853Y-93596900D01*
X106838985Y-93457519D01*
X106957519Y-93338985D01*
X107096900Y-93245853D01*
X107251772Y-93181703D01*
X107350419Y-93162081D01*
X107416182Y-93149000D01*
X107583818Y-93149000D01*
X107649581Y-93162081D01*
G37*
G36*
X110649581Y-93162081D02*
G01*
X110748228Y-93181703D01*
X110903100Y-93245853D01*
X111042481Y-93338985D01*
X111161015Y-93457519D01*
X111254147Y-93596900D01*
X111318297Y-93751772D01*
X111351000Y-93916184D01*
X111351000Y-94083816D01*
X111318297Y-94248228D01*
X111254147Y-94403100D01*
X111161015Y-94542481D01*
X111042481Y-94661015D01*
X110903100Y-94754147D01*
X110748228Y-94818297D01*
X110649581Y-94837919D01*
X110583818Y-94851000D01*
X110416182Y-94851000D01*
X110350419Y-94837919D01*
X110251772Y-94818297D01*
X110096900Y-94754147D01*
X109957519Y-94661015D01*
X109838985Y-94542481D01*
X109745853Y-94403100D01*
X109681703Y-94248228D01*
X109649000Y-94083816D01*
X109649000Y-93916184D01*
X109681703Y-93751772D01*
X109745853Y-93596900D01*
X109838985Y-93457519D01*
X109957519Y-93338985D01*
X110096900Y-93245853D01*
X110251772Y-93181703D01*
X110350419Y-93162081D01*
X110416182Y-93149000D01*
X110583818Y-93149000D01*
X110649581Y-93162081D01*
G37*
G36*
X113169552Y-91903207D02*
G01*
X113205898Y-91914232D01*
X113239401Y-91932140D01*
X113268763Y-91956237D01*
X113292860Y-91985599D01*
X113310768Y-92019102D01*
X113321793Y-92055448D01*
X113326000Y-92098158D01*
X113326000Y-92676842D01*
X113321793Y-92719552D01*
X113310768Y-92755898D01*
X113292860Y-92789401D01*
X113268763Y-92818763D01*
X113239401Y-92842860D01*
X113205898Y-92860768D01*
X113169552Y-92871793D01*
X113126842Y-92876000D01*
X112473158Y-92876000D01*
X112430448Y-92871793D01*
X112394102Y-92860768D01*
X112360599Y-92842860D01*
X112331237Y-92818763D01*
X112307140Y-92789401D01*
X112289232Y-92755898D01*
X112278207Y-92719552D01*
X112274000Y-92676842D01*
X112274000Y-92098158D01*
X112278207Y-92055448D01*
X112289232Y-92019102D01*
X112307140Y-91985599D01*
X112331237Y-91956237D01*
X112360599Y-91932140D01*
X112394102Y-91914232D01*
X112430448Y-91903207D01*
X112473158Y-91899000D01*
X113126842Y-91899000D01*
X113169552Y-91903207D01*
G37*
G36*
X114569552Y-91890707D02*
G01*
X114605898Y-91901732D01*
X114639401Y-91919640D01*
X114668763Y-91943737D01*
X114692860Y-91973099D01*
X114710768Y-92006602D01*
X114721793Y-92042948D01*
X114726000Y-92085658D01*
X114726000Y-92664342D01*
X114721793Y-92707052D01*
X114710768Y-92743398D01*
X114692860Y-92776901D01*
X114668763Y-92806263D01*
X114639401Y-92830360D01*
X114605898Y-92848268D01*
X114569552Y-92859293D01*
X114526842Y-92863500D01*
X113873158Y-92863500D01*
X113830448Y-92859293D01*
X113794102Y-92848268D01*
X113760599Y-92830360D01*
X113731237Y-92806263D01*
X113707140Y-92776901D01*
X113689232Y-92743398D01*
X113678207Y-92707052D01*
X113674000Y-92664342D01*
X113674000Y-92085658D01*
X113678207Y-92042948D01*
X113689232Y-92006602D01*
X113707140Y-91973099D01*
X113731237Y-91943737D01*
X113760599Y-91919640D01*
X113794102Y-91901732D01*
X113830448Y-91890707D01*
X113873158Y-91886500D01*
X114526842Y-91886500D01*
X114569552Y-91890707D01*
G37*
G36*
X115969552Y-91890707D02*
G01*
X116005898Y-91901732D01*
X116039401Y-91919640D01*
X116068763Y-91943737D01*
X116092860Y-91973099D01*
X116110768Y-92006602D01*
X116121793Y-92042948D01*
X116126000Y-92085658D01*
X116126000Y-92664342D01*
X116121793Y-92707052D01*
X116110768Y-92743398D01*
X116092860Y-92776901D01*
X116068763Y-92806263D01*
X116039401Y-92830360D01*
X116005898Y-92848268D01*
X115969552Y-92859293D01*
X115926842Y-92863500D01*
X115273158Y-92863500D01*
X115230448Y-92859293D01*
X115194102Y-92848268D01*
X115160599Y-92830360D01*
X115131237Y-92806263D01*
X115107140Y-92776901D01*
X115089232Y-92743398D01*
X115078207Y-92707052D01*
X115074000Y-92664342D01*
X115074000Y-92085658D01*
X115078207Y-92042948D01*
X115089232Y-92006602D01*
X115107140Y-91973099D01*
X115131237Y-91943737D01*
X115160599Y-91919640D01*
X115194102Y-91901732D01*
X115230448Y-91890707D01*
X115273158Y-91886500D01*
X115926842Y-91886500D01*
X115969552Y-91890707D01*
G37*
G36*
X107649581Y-90662081D02*
G01*
X107748228Y-90681703D01*
X107903100Y-90745853D01*
X108042481Y-90838985D01*
X108161015Y-90957519D01*
X108254147Y-91096900D01*
X108318297Y-91251772D01*
X108351000Y-91416184D01*
X108351000Y-91583816D01*
X108318297Y-91748228D01*
X108254147Y-91903100D01*
X108161015Y-92042481D01*
X108042481Y-92161015D01*
X107903100Y-92254147D01*
X107748228Y-92318297D01*
X107649581Y-92337919D01*
X107583818Y-92351000D01*
X107416182Y-92351000D01*
X107350419Y-92337919D01*
X107251772Y-92318297D01*
X107096900Y-92254147D01*
X106957519Y-92161015D01*
X106838985Y-92042481D01*
X106745853Y-91903100D01*
X106681703Y-91748228D01*
X106649000Y-91583816D01*
X106649000Y-91416184D01*
X106681703Y-91251772D01*
X106745853Y-91096900D01*
X106838985Y-90957519D01*
X106957519Y-90838985D01*
X107096900Y-90745853D01*
X107251772Y-90681703D01*
X107350419Y-90662081D01*
X107416182Y-90649000D01*
X107583818Y-90649000D01*
X107649581Y-90662081D01*
G37*
G36*
X110649581Y-90662081D02*
G01*
X110748228Y-90681703D01*
X110903100Y-90745853D01*
X111042481Y-90838985D01*
X111161015Y-90957519D01*
X111254147Y-91096900D01*
X111318297Y-91251772D01*
X111351000Y-91416184D01*
X111351000Y-91583816D01*
X111318297Y-91748228D01*
X111254147Y-91903100D01*
X111161015Y-92042481D01*
X111042481Y-92161015D01*
X110903100Y-92254147D01*
X110748228Y-92318297D01*
X110649581Y-92337919D01*
X110583818Y-92351000D01*
X110416182Y-92351000D01*
X110350419Y-92337919D01*
X110251772Y-92318297D01*
X110096900Y-92254147D01*
X109957519Y-92161015D01*
X109838985Y-92042481D01*
X109745853Y-91903100D01*
X109681703Y-91748228D01*
X109649000Y-91583816D01*
X109649000Y-91416184D01*
X109681703Y-91251772D01*
X109745853Y-91096900D01*
X109838985Y-90957519D01*
X109957519Y-90838985D01*
X110096900Y-90745853D01*
X110251772Y-90681703D01*
X110350419Y-90662081D01*
X110416182Y-90649000D01*
X110583818Y-90649000D01*
X110649581Y-90662081D01*
G37*
G36*
X113169552Y-90328207D02*
G01*
X113205898Y-90339232D01*
X113239401Y-90357140D01*
X113268763Y-90381237D01*
X113292860Y-90410599D01*
X113310768Y-90444102D01*
X113321793Y-90480448D01*
X113326000Y-90523158D01*
X113326000Y-91101842D01*
X113321793Y-91144552D01*
X113310768Y-91180898D01*
X113292860Y-91214401D01*
X113268763Y-91243763D01*
X113239401Y-91267860D01*
X113205898Y-91285768D01*
X113169552Y-91296793D01*
X113126842Y-91301000D01*
X112473158Y-91301000D01*
X112430448Y-91296793D01*
X112394102Y-91285768D01*
X112360599Y-91267860D01*
X112331237Y-91243763D01*
X112307140Y-91214401D01*
X112289232Y-91180898D01*
X112278207Y-91144552D01*
X112274000Y-91101842D01*
X112274000Y-90523158D01*
X112278207Y-90480448D01*
X112289232Y-90444102D01*
X112307140Y-90410599D01*
X112331237Y-90381237D01*
X112360599Y-90357140D01*
X112394102Y-90339232D01*
X112430448Y-90328207D01*
X112473158Y-90324000D01*
X113126842Y-90324000D01*
X113169552Y-90328207D01*
G37*
G36*
X115969552Y-90315707D02*
G01*
X116005898Y-90326732D01*
X116039401Y-90344640D01*
X116068763Y-90368737D01*
X116092860Y-90398099D01*
X116110768Y-90431602D01*
X116121793Y-90467948D01*
X116126000Y-90510658D01*
X116126000Y-91089342D01*
X116121793Y-91132052D01*
X116110768Y-91168398D01*
X116092860Y-91201901D01*
X116068763Y-91231263D01*
X116039401Y-91255360D01*
X116005898Y-91273268D01*
X115969552Y-91284293D01*
X115926842Y-91288500D01*
X115273158Y-91288500D01*
X115230448Y-91284293D01*
X115194102Y-91273268D01*
X115160599Y-91255360D01*
X115131237Y-91231263D01*
X115107140Y-91201901D01*
X115089232Y-91168398D01*
X115078207Y-91132052D01*
X115074000Y-91089342D01*
X115074000Y-90510658D01*
X115078207Y-90467948D01*
X115089232Y-90431602D01*
X115107140Y-90398099D01*
X115131237Y-90368737D01*
X115160599Y-90344640D01*
X115194102Y-90326732D01*
X115230448Y-90315707D01*
X115273158Y-90311500D01*
X115926842Y-90311500D01*
X115969552Y-90315707D01*
G37*
G36*
X114569552Y-90315707D02*
G01*
X114605898Y-90326732D01*
X114639401Y-90344640D01*
X114668763Y-90368737D01*
X114692860Y-90398099D01*
X114710768Y-90431602D01*
X114721793Y-90467948D01*
X114726000Y-90510658D01*
X114726000Y-91089342D01*
X114721793Y-91132052D01*
X114710768Y-91168398D01*
X114692860Y-91201901D01*
X114668763Y-91231263D01*
X114639401Y-91255360D01*
X114605898Y-91273268D01*
X114569552Y-91284293D01*
X114526842Y-91288500D01*
X113873158Y-91288500D01*
X113830448Y-91284293D01*
X113794102Y-91273268D01*
X113760599Y-91255360D01*
X113731237Y-91231263D01*
X113707140Y-91201901D01*
X113689232Y-91168398D01*
X113678207Y-91132052D01*
X113674000Y-91089342D01*
X113674000Y-90510658D01*
X113678207Y-90467948D01*
X113689232Y-90431602D01*
X113707140Y-90398099D01*
X113731237Y-90368737D01*
X113760599Y-90344640D01*
X113794102Y-90326732D01*
X113830448Y-90315707D01*
X113873158Y-90311500D01*
X114526842Y-90311500D01*
X114569552Y-90315707D01*
G37*
G36*
X110649581Y-88162081D02*
G01*
X110748228Y-88181703D01*
X110903100Y-88245853D01*
X111042481Y-88338985D01*
X111161015Y-88457519D01*
X111254147Y-88596900D01*
X111318297Y-88751772D01*
X111337919Y-88850419D01*
X111351000Y-88916182D01*
X111351000Y-89083818D01*
X111341824Y-89129948D01*
X111318297Y-89248228D01*
X111254147Y-89403100D01*
X111161015Y-89542481D01*
X111042481Y-89661015D01*
X110903100Y-89754147D01*
X110748228Y-89818297D01*
X110649581Y-89837919D01*
X110583818Y-89851000D01*
X110416182Y-89851000D01*
X110350419Y-89837919D01*
X110251772Y-89818297D01*
X110096900Y-89754147D01*
X109957519Y-89661015D01*
X109838985Y-89542481D01*
X109745853Y-89403100D01*
X109681703Y-89248228D01*
X109658176Y-89129948D01*
X109649000Y-89083818D01*
X109649000Y-88916182D01*
X109662081Y-88850419D01*
X109681703Y-88751772D01*
X109745853Y-88596900D01*
X109838985Y-88457519D01*
X109957519Y-88338985D01*
X110096900Y-88245853D01*
X110251772Y-88181703D01*
X110350419Y-88162081D01*
X110416182Y-88149000D01*
X110583818Y-88149000D01*
X110649581Y-88162081D01*
G37*
G36*
X107649581Y-88162081D02*
G01*
X107748228Y-88181703D01*
X107903100Y-88245853D01*
X108042481Y-88338985D01*
X108161015Y-88457519D01*
X108254147Y-88596900D01*
X108318297Y-88751772D01*
X108337919Y-88850419D01*
X108351000Y-88916182D01*
X108351000Y-89083818D01*
X108341824Y-89129948D01*
X108318297Y-89248228D01*
X108254147Y-89403100D01*
X108161015Y-89542481D01*
X108042481Y-89661015D01*
X107903100Y-89754147D01*
X107748228Y-89818297D01*
X107649581Y-89837919D01*
X107583818Y-89851000D01*
X107416182Y-89851000D01*
X107350419Y-89837919D01*
X107251772Y-89818297D01*
X107096900Y-89754147D01*
X106957519Y-89661015D01*
X106838985Y-89542481D01*
X106745853Y-89403100D01*
X106681703Y-89248228D01*
X106658176Y-89129948D01*
X106649000Y-89083818D01*
X106649000Y-88916182D01*
X106662081Y-88850419D01*
X106681703Y-88751772D01*
X106745853Y-88596900D01*
X106838985Y-88457519D01*
X106957519Y-88338985D01*
X107096900Y-88245853D01*
X107251772Y-88181703D01*
X107350419Y-88162081D01*
X107416182Y-88149000D01*
X107583818Y-88149000D01*
X107649581Y-88162081D01*
G37*
G36*
X117769552Y-88265707D02*
G01*
X117805898Y-88276732D01*
X117839401Y-88294640D01*
X117868763Y-88318737D01*
X117892860Y-88348099D01*
X117910768Y-88381602D01*
X117921793Y-88417948D01*
X117926000Y-88460658D01*
X117926000Y-89039342D01*
X117921793Y-89082052D01*
X117910768Y-89118398D01*
X117892860Y-89151901D01*
X117868763Y-89181263D01*
X117839401Y-89205360D01*
X117805898Y-89223268D01*
X117769552Y-89234293D01*
X117726842Y-89238500D01*
X117073158Y-89238500D01*
X117030448Y-89234293D01*
X116994102Y-89223268D01*
X116960599Y-89205360D01*
X116931237Y-89181263D01*
X116907140Y-89151901D01*
X116889232Y-89118398D01*
X116878207Y-89082052D01*
X116874000Y-89039342D01*
X116874000Y-88460658D01*
X116878207Y-88417948D01*
X116889232Y-88381602D01*
X116907140Y-88348099D01*
X116931237Y-88318737D01*
X116960599Y-88294640D01*
X116994102Y-88276732D01*
X117030448Y-88265707D01*
X117073158Y-88261500D01*
X117726842Y-88261500D01*
X117769552Y-88265707D01*
G37*
G36*
X115169552Y-88253207D02*
G01*
X115205898Y-88264232D01*
X115239401Y-88282140D01*
X115268763Y-88306237D01*
X115292860Y-88335599D01*
X115310768Y-88369102D01*
X115321793Y-88405448D01*
X115326000Y-88448158D01*
X115326000Y-89026842D01*
X115321793Y-89069552D01*
X115310768Y-89105898D01*
X115292860Y-89139401D01*
X115268763Y-89168763D01*
X115239401Y-89192860D01*
X115205898Y-89210768D01*
X115169552Y-89221793D01*
X115126842Y-89226000D01*
X114473158Y-89226000D01*
X114430448Y-89221793D01*
X114394102Y-89210768D01*
X114360599Y-89192860D01*
X114331237Y-89168763D01*
X114307140Y-89139401D01*
X114289232Y-89105898D01*
X114278207Y-89069552D01*
X114274000Y-89026842D01*
X114274000Y-88448158D01*
X114278207Y-88405448D01*
X114289232Y-88369102D01*
X114307140Y-88335599D01*
X114331237Y-88306237D01*
X114360599Y-88282140D01*
X114394102Y-88264232D01*
X114430448Y-88253207D01*
X114473158Y-88249000D01*
X115126842Y-88249000D01*
X115169552Y-88253207D01*
G37*
G36*
X116469552Y-88253207D02*
G01*
X116505898Y-88264232D01*
X116539401Y-88282140D01*
X116568763Y-88306237D01*
X116592860Y-88335599D01*
X116610768Y-88369102D01*
X116621793Y-88405448D01*
X116626000Y-88448158D01*
X116626000Y-89026842D01*
X116621793Y-89069552D01*
X116610768Y-89105898D01*
X116592860Y-89139401D01*
X116568763Y-89168763D01*
X116539401Y-89192860D01*
X116505898Y-89210768D01*
X116469552Y-89221793D01*
X116426842Y-89226000D01*
X115773158Y-89226000D01*
X115730448Y-89221793D01*
X115694102Y-89210768D01*
X115660599Y-89192860D01*
X115631237Y-89168763D01*
X115607140Y-89139401D01*
X115589232Y-89105898D01*
X115578207Y-89069552D01*
X115574000Y-89026842D01*
X115574000Y-88448158D01*
X115578207Y-88405448D01*
X115589232Y-88369102D01*
X115607140Y-88335599D01*
X115631237Y-88306237D01*
X115660599Y-88282140D01*
X115694102Y-88264232D01*
X115730448Y-88253207D01*
X115773158Y-88249000D01*
X116426842Y-88249000D01*
X116469552Y-88253207D01*
G37*
G36*
X117769552Y-86690707D02*
G01*
X117805898Y-86701732D01*
X117839401Y-86719640D01*
X117868763Y-86743737D01*
X117892860Y-86773099D01*
X117910768Y-86806602D01*
X117921793Y-86842948D01*
X117926000Y-86885658D01*
X117926000Y-87464342D01*
X117921793Y-87507052D01*
X117910768Y-87543398D01*
X117892860Y-87576901D01*
X117868763Y-87606263D01*
X117839401Y-87630360D01*
X117805898Y-87648268D01*
X117769552Y-87659293D01*
X117726842Y-87663500D01*
X117073158Y-87663500D01*
X117030448Y-87659293D01*
X116994102Y-87648268D01*
X116960599Y-87630360D01*
X116931237Y-87606263D01*
X116907140Y-87576901D01*
X116889232Y-87543398D01*
X116878207Y-87507052D01*
X116874000Y-87464342D01*
X116874000Y-86885658D01*
X116878207Y-86842948D01*
X116889232Y-86806602D01*
X116907140Y-86773099D01*
X116931237Y-86743737D01*
X116960599Y-86719640D01*
X116994102Y-86701732D01*
X117030448Y-86690707D01*
X117073158Y-86686500D01*
X117726842Y-86686500D01*
X117769552Y-86690707D01*
G37*
G36*
X115169552Y-86678207D02*
G01*
X115205898Y-86689232D01*
X115239401Y-86707140D01*
X115268763Y-86731237D01*
X115292860Y-86760599D01*
X115310768Y-86794102D01*
X115321793Y-86830448D01*
X115326000Y-86873158D01*
X115326000Y-87451842D01*
X115321793Y-87494552D01*
X115310768Y-87530898D01*
X115292860Y-87564401D01*
X115268763Y-87593763D01*
X115239401Y-87617860D01*
X115205898Y-87635768D01*
X115169552Y-87646793D01*
X115126842Y-87651000D01*
X114473158Y-87651000D01*
X114430448Y-87646793D01*
X114394102Y-87635768D01*
X114360599Y-87617860D01*
X114331237Y-87593763D01*
X114307140Y-87564401D01*
X114289232Y-87530898D01*
X114278207Y-87494552D01*
X114274000Y-87451842D01*
X114274000Y-86873158D01*
X114278207Y-86830448D01*
X114289232Y-86794102D01*
X114307140Y-86760599D01*
X114331237Y-86731237D01*
X114360599Y-86707140D01*
X114394102Y-86689232D01*
X114430448Y-86678207D01*
X114473158Y-86674000D01*
X115126842Y-86674000D01*
X115169552Y-86678207D01*
G37*
G36*
X116469552Y-86678207D02*
G01*
X116505898Y-86689232D01*
X116539401Y-86707140D01*
X116568763Y-86731237D01*
X116592860Y-86760599D01*
X116610768Y-86794102D01*
X116621793Y-86830448D01*
X116626000Y-86873158D01*
X116626000Y-87451842D01*
X116621793Y-87494552D01*
X116610768Y-87530898D01*
X116592860Y-87564401D01*
X116568763Y-87593763D01*
X116539401Y-87617860D01*
X116505898Y-87635768D01*
X116469552Y-87646793D01*
X116426842Y-87651000D01*
X115773158Y-87651000D01*
X115730448Y-87646793D01*
X115694102Y-87635768D01*
X115660599Y-87617860D01*
X115631237Y-87593763D01*
X115607140Y-87564401D01*
X115589232Y-87530898D01*
X115578207Y-87494552D01*
X115574000Y-87451842D01*
X115574000Y-86873158D01*
X115578207Y-86830448D01*
X115589232Y-86794102D01*
X115607140Y-86760599D01*
X115631237Y-86731237D01*
X115660599Y-86707140D01*
X115694102Y-86689232D01*
X115730448Y-86678207D01*
X115773158Y-86674000D01*
X116426842Y-86674000D01*
X116469552Y-86678207D01*
G37*
G36*
X107642129Y-85660599D02*
G01*
X107748228Y-85681703D01*
X107903100Y-85745853D01*
X108042481Y-85838985D01*
X108161015Y-85957519D01*
X108254147Y-86096900D01*
X108318297Y-86251772D01*
X108337919Y-86350419D01*
X108351000Y-86416182D01*
X108351000Y-86583818D01*
X108345639Y-86610768D01*
X108318297Y-86748228D01*
X108254147Y-86903100D01*
X108161015Y-87042481D01*
X108042481Y-87161015D01*
X107903100Y-87254147D01*
X107748228Y-87318297D01*
X107649581Y-87337919D01*
X107583818Y-87351000D01*
X107416182Y-87351000D01*
X107350419Y-87337919D01*
X107251772Y-87318297D01*
X107096900Y-87254147D01*
X106957519Y-87161015D01*
X106838985Y-87042481D01*
X106745853Y-86903100D01*
X106681703Y-86748228D01*
X106654361Y-86610768D01*
X106649000Y-86583818D01*
X106649000Y-86416182D01*
X106662081Y-86350419D01*
X106681703Y-86251772D01*
X106745853Y-86096900D01*
X106838985Y-85957519D01*
X106957519Y-85838985D01*
X107096900Y-85745853D01*
X107251772Y-85681703D01*
X107357871Y-85660599D01*
X107416182Y-85649000D01*
X107583818Y-85649000D01*
X107642129Y-85660599D01*
G37*
G36*
X110642129Y-85660599D02*
G01*
X110748228Y-85681703D01*
X110903100Y-85745853D01*
X111042481Y-85838985D01*
X111161015Y-85957519D01*
X111254147Y-86096900D01*
X111318297Y-86251772D01*
X111337919Y-86350419D01*
X111351000Y-86416182D01*
X111351000Y-86583818D01*
X111345639Y-86610768D01*
X111318297Y-86748228D01*
X111254147Y-86903100D01*
X111161015Y-87042481D01*
X111042481Y-87161015D01*
X110903100Y-87254147D01*
X110748228Y-87318297D01*
X110649581Y-87337919D01*
X110583818Y-87351000D01*
X110416182Y-87351000D01*
X110350419Y-87337919D01*
X110251772Y-87318297D01*
X110096900Y-87254147D01*
X109957519Y-87161015D01*
X109838985Y-87042481D01*
X109745853Y-86903100D01*
X109681703Y-86748228D01*
X109654361Y-86610768D01*
X109649000Y-86583818D01*
X109649000Y-86416182D01*
X109662081Y-86350419D01*
X109681703Y-86251772D01*
X109745853Y-86096900D01*
X109838985Y-85957519D01*
X109957519Y-85838985D01*
X110096900Y-85745853D01*
X110251772Y-85681703D01*
X110357871Y-85660599D01*
X110416182Y-85649000D01*
X110583818Y-85649000D01*
X110642129Y-85660599D01*
G37*
G36*
X121519552Y-85578207D02*
G01*
X121555898Y-85589232D01*
X121589401Y-85607140D01*
X121618763Y-85631237D01*
X121642860Y-85660599D01*
X121660768Y-85694102D01*
X121671793Y-85730448D01*
X121676000Y-85773158D01*
X121676000Y-86426842D01*
X121671793Y-86469552D01*
X121660768Y-86505898D01*
X121642860Y-86539401D01*
X121618763Y-86568763D01*
X121589401Y-86592860D01*
X121555898Y-86610768D01*
X121519552Y-86621793D01*
X121476842Y-86626000D01*
X120898158Y-86626000D01*
X120855448Y-86621793D01*
X120819102Y-86610768D01*
X120785599Y-86592860D01*
X120756237Y-86568763D01*
X120732140Y-86539401D01*
X120714232Y-86505898D01*
X120703207Y-86469552D01*
X120699000Y-86426842D01*
X120699000Y-85773158D01*
X120703207Y-85730448D01*
X120714232Y-85694102D01*
X120732140Y-85660599D01*
X120756237Y-85631237D01*
X120785599Y-85607140D01*
X120819102Y-85589232D01*
X120855448Y-85578207D01*
X120898158Y-85574000D01*
X121476842Y-85574000D01*
X121519552Y-85578207D01*
G37*
G36*
X119944552Y-85578207D02*
G01*
X119980898Y-85589232D01*
X120014401Y-85607140D01*
X120043763Y-85631237D01*
X120067860Y-85660599D01*
X120085768Y-85694102D01*
X120096793Y-85730448D01*
X120101000Y-85773158D01*
X120101000Y-86426842D01*
X120096793Y-86469552D01*
X120085768Y-86505898D01*
X120067860Y-86539401D01*
X120043763Y-86568763D01*
X120014401Y-86592860D01*
X119980898Y-86610768D01*
X119944552Y-86621793D01*
X119901842Y-86626000D01*
X119323158Y-86626000D01*
X119280448Y-86621793D01*
X119244102Y-86610768D01*
X119210599Y-86592860D01*
X119181237Y-86568763D01*
X119157140Y-86539401D01*
X119139232Y-86505898D01*
X119128207Y-86469552D01*
X119124000Y-86426842D01*
X119124000Y-85773158D01*
X119128207Y-85730448D01*
X119139232Y-85694102D01*
X119157140Y-85660599D01*
X119181237Y-85631237D01*
X119210599Y-85607140D01*
X119244102Y-85589232D01*
X119280448Y-85578207D01*
X119323158Y-85574000D01*
X119901842Y-85574000D01*
X119944552Y-85578207D01*
G37*
G36*
X110642129Y-83160599D02*
G01*
X110748228Y-83181703D01*
X110903100Y-83245853D01*
X111042481Y-83338985D01*
X111161015Y-83457519D01*
X111254147Y-83596900D01*
X111318297Y-83751772D01*
X111337919Y-83850419D01*
X111351000Y-83916182D01*
X111351000Y-84083818D01*
X111345639Y-84110768D01*
X111318297Y-84248228D01*
X111254147Y-84403100D01*
X111161015Y-84542481D01*
X111042481Y-84661015D01*
X110903100Y-84754147D01*
X110748228Y-84818297D01*
X110649581Y-84837919D01*
X110583818Y-84851000D01*
X110416182Y-84851000D01*
X110350419Y-84837919D01*
X110251772Y-84818297D01*
X110096900Y-84754147D01*
X109957519Y-84661015D01*
X109838985Y-84542481D01*
X109745853Y-84403100D01*
X109681703Y-84248228D01*
X109654361Y-84110768D01*
X109649000Y-84083818D01*
X109649000Y-83916182D01*
X109662081Y-83850419D01*
X109681703Y-83751772D01*
X109745853Y-83596900D01*
X109838985Y-83457519D01*
X109957519Y-83338985D01*
X110096900Y-83245853D01*
X110251772Y-83181703D01*
X110357871Y-83160599D01*
X110416182Y-83149000D01*
X110583818Y-83149000D01*
X110642129Y-83160599D01*
G37*
G36*
X107642129Y-83160599D02*
G01*
X107748228Y-83181703D01*
X107903100Y-83245853D01*
X108042481Y-83338985D01*
X108161015Y-83457519D01*
X108254147Y-83596900D01*
X108318297Y-83751772D01*
X108337919Y-83850419D01*
X108351000Y-83916182D01*
X108351000Y-84083818D01*
X108345639Y-84110768D01*
X108318297Y-84248228D01*
X108254147Y-84403100D01*
X108161015Y-84542481D01*
X108042481Y-84661015D01*
X107903100Y-84754147D01*
X107748228Y-84818297D01*
X107649581Y-84837919D01*
X107583818Y-84851000D01*
X107416182Y-84851000D01*
X107350419Y-84837919D01*
X107251772Y-84818297D01*
X107096900Y-84754147D01*
X106957519Y-84661015D01*
X106838985Y-84542481D01*
X106745853Y-84403100D01*
X106681703Y-84248228D01*
X106654361Y-84110768D01*
X106649000Y-84083818D01*
X106649000Y-83916182D01*
X106662081Y-83850419D01*
X106681703Y-83751772D01*
X106745853Y-83596900D01*
X106838985Y-83457519D01*
X106957519Y-83338985D01*
X107096900Y-83245853D01*
X107251772Y-83181703D01*
X107357871Y-83160599D01*
X107416182Y-83149000D01*
X107583818Y-83149000D01*
X107642129Y-83160599D01*
G37*
G36*
X120351000Y-84451000D02*
G01*
X118449000Y-84451000D01*
X118449000Y-83349000D01*
X120351000Y-83349000D01*
X120351000Y-84451000D01*
G37*
G36*
X117932052Y-83078207D02*
G01*
X117968398Y-83089232D01*
X118001901Y-83107140D01*
X118031263Y-83131237D01*
X118055360Y-83160599D01*
X118073268Y-83194102D01*
X118084293Y-83230448D01*
X118088500Y-83273158D01*
X118088500Y-83926842D01*
X118084293Y-83969552D01*
X118073268Y-84005898D01*
X118055360Y-84039401D01*
X118031263Y-84068763D01*
X118001901Y-84092860D01*
X117968398Y-84110768D01*
X117932052Y-84121793D01*
X117889342Y-84126000D01*
X117310658Y-84126000D01*
X117267948Y-84121793D01*
X117231602Y-84110768D01*
X117198099Y-84092860D01*
X117168737Y-84068763D01*
X117144640Y-84039401D01*
X117126732Y-84005898D01*
X117115707Y-83969552D01*
X117111500Y-83926842D01*
X117111500Y-83273158D01*
X117115707Y-83230448D01*
X117126732Y-83194102D01*
X117144640Y-83160599D01*
X117168737Y-83131237D01*
X117198099Y-83107140D01*
X117231602Y-83089232D01*
X117267948Y-83078207D01*
X117310658Y-83074000D01*
X117889342Y-83074000D01*
X117932052Y-83078207D01*
G37*
G36*
X116357052Y-83078207D02*
G01*
X116393398Y-83089232D01*
X116426901Y-83107140D01*
X116456263Y-83131237D01*
X116480360Y-83160599D01*
X116498268Y-83194102D01*
X116509293Y-83230448D01*
X116513500Y-83273158D01*
X116513500Y-83926842D01*
X116509293Y-83969552D01*
X116498268Y-84005898D01*
X116480360Y-84039401D01*
X116456263Y-84068763D01*
X116426901Y-84092860D01*
X116393398Y-84110768D01*
X116357052Y-84121793D01*
X116314342Y-84126000D01*
X115735658Y-84126000D01*
X115692948Y-84121793D01*
X115656602Y-84110768D01*
X115623099Y-84092860D01*
X115593737Y-84068763D01*
X115569640Y-84039401D01*
X115551732Y-84005898D01*
X115540707Y-83969552D01*
X115536500Y-83926842D01*
X115536500Y-83273158D01*
X115540707Y-83230448D01*
X115551732Y-83194102D01*
X115569640Y-83160599D01*
X115593737Y-83131237D01*
X115623099Y-83107140D01*
X115656602Y-83089232D01*
X115692948Y-83078207D01*
X115735658Y-83074000D01*
X116314342Y-83074000D01*
X116357052Y-83078207D01*
G37*
G36*
X107649581Y-80662081D02*
G01*
X107748228Y-80681703D01*
X107903100Y-80745853D01*
X108042481Y-80838985D01*
X108161015Y-80957519D01*
X108254147Y-81096900D01*
X108318297Y-81251772D01*
X108351000Y-81416184D01*
X108351000Y-81583816D01*
X108318297Y-81748228D01*
X108254147Y-81903100D01*
X108161015Y-82042481D01*
X108042481Y-82161015D01*
X107903100Y-82254147D01*
X107748228Y-82318297D01*
X107649581Y-82337919D01*
X107583818Y-82351000D01*
X107416182Y-82351000D01*
X107350419Y-82337919D01*
X107251772Y-82318297D01*
X107096900Y-82254147D01*
X106957519Y-82161015D01*
X106838985Y-82042481D01*
X106745853Y-81903100D01*
X106681703Y-81748228D01*
X106649000Y-81583816D01*
X106649000Y-81416184D01*
X106681703Y-81251772D01*
X106745853Y-81096900D01*
X106838985Y-80957519D01*
X106957519Y-80838985D01*
X107096900Y-80745853D01*
X107251772Y-80681703D01*
X107350419Y-80662081D01*
X107416182Y-80649000D01*
X107583818Y-80649000D01*
X107649581Y-80662081D01*
G37*
G36*
X110649581Y-80662081D02*
G01*
X110748228Y-80681703D01*
X110903100Y-80745853D01*
X111042481Y-80838985D01*
X111161015Y-80957519D01*
X111254147Y-81096900D01*
X111318297Y-81251772D01*
X111351000Y-81416184D01*
X111351000Y-81583816D01*
X111318297Y-81748228D01*
X111254147Y-81903100D01*
X111161015Y-82042481D01*
X111042481Y-82161015D01*
X110903100Y-82254147D01*
X110748228Y-82318297D01*
X110649581Y-82337919D01*
X110583818Y-82351000D01*
X110416182Y-82351000D01*
X110350419Y-82337919D01*
X110251772Y-82318297D01*
X110096900Y-82254147D01*
X109957519Y-82161015D01*
X109838985Y-82042481D01*
X109745853Y-81903100D01*
X109681703Y-81748228D01*
X109649000Y-81583816D01*
X109649000Y-81416184D01*
X109681703Y-81251772D01*
X109745853Y-81096900D01*
X109838985Y-80957519D01*
X109957519Y-80838985D01*
X110096900Y-80745853D01*
X110251772Y-80681703D01*
X110350419Y-80662081D01*
X110416182Y-80649000D01*
X110583818Y-80649000D01*
X110649581Y-80662081D01*
G37*
G36*
X117907052Y-81178207D02*
G01*
X117943398Y-81189232D01*
X117976901Y-81207140D01*
X118006263Y-81231237D01*
X118030360Y-81260599D01*
X118048268Y-81294102D01*
X118059293Y-81330448D01*
X118063500Y-81373158D01*
X118063500Y-82026842D01*
X118059293Y-82069552D01*
X118048268Y-82105898D01*
X118030360Y-82139401D01*
X118006263Y-82168763D01*
X117976901Y-82192860D01*
X117943398Y-82210768D01*
X117907052Y-82221793D01*
X117864342Y-82226000D01*
X117285658Y-82226000D01*
X117242948Y-82221793D01*
X117206602Y-82210768D01*
X117173099Y-82192860D01*
X117143737Y-82168763D01*
X117119640Y-82139401D01*
X117101732Y-82105898D01*
X117090707Y-82069552D01*
X117086500Y-82026842D01*
X117086500Y-81373158D01*
X117090707Y-81330448D01*
X117101732Y-81294102D01*
X117119640Y-81260599D01*
X117143737Y-81231237D01*
X117173099Y-81207140D01*
X117206602Y-81189232D01*
X117242948Y-81178207D01*
X117285658Y-81174000D01*
X117864342Y-81174000D01*
X117907052Y-81178207D01*
G37*
G36*
X116332052Y-81178207D02*
G01*
X116368398Y-81189232D01*
X116401901Y-81207140D01*
X116431263Y-81231237D01*
X116455360Y-81260599D01*
X116473268Y-81294102D01*
X116484293Y-81330448D01*
X116488500Y-81373158D01*
X116488500Y-82026842D01*
X116484293Y-82069552D01*
X116473268Y-82105898D01*
X116455360Y-82139401D01*
X116431263Y-82168763D01*
X116401901Y-82192860D01*
X116368398Y-82210768D01*
X116332052Y-82221793D01*
X116289342Y-82226000D01*
X115710658Y-82226000D01*
X115667948Y-82221793D01*
X115631602Y-82210768D01*
X115598099Y-82192860D01*
X115568737Y-82168763D01*
X115544640Y-82139401D01*
X115526732Y-82105898D01*
X115515707Y-82069552D01*
X115511500Y-82026842D01*
X115511500Y-81373158D01*
X115515707Y-81330448D01*
X115526732Y-81294102D01*
X115544640Y-81260599D01*
X115568737Y-81231237D01*
X115598099Y-81207140D01*
X115631602Y-81189232D01*
X115667948Y-81178207D01*
X115710658Y-81174000D01*
X116289342Y-81174000D01*
X116332052Y-81178207D01*
G37*
G36*
X120351000Y-81951000D02*
G01*
X118449000Y-81951000D01*
X118449000Y-80849000D01*
X120351000Y-80849000D01*
X120351000Y-81951000D01*
G37*
G36*
X107649581Y-78162081D02*
G01*
X107748228Y-78181703D01*
X107903100Y-78245853D01*
X108042481Y-78338985D01*
X108161015Y-78457519D01*
X108254147Y-78596900D01*
X108318297Y-78751772D01*
X108351000Y-78916184D01*
X108351000Y-79083816D01*
X108318297Y-79248228D01*
X108254147Y-79403100D01*
X108161015Y-79542481D01*
X108042481Y-79661015D01*
X107903100Y-79754147D01*
X107748228Y-79818297D01*
X107649581Y-79837919D01*
X107583818Y-79851000D01*
X107416182Y-79851000D01*
X107350419Y-79837919D01*
X107251772Y-79818297D01*
X107096900Y-79754147D01*
X106957519Y-79661015D01*
X106838985Y-79542481D01*
X106745853Y-79403100D01*
X106681703Y-79248228D01*
X106649000Y-79083816D01*
X106649000Y-78916184D01*
X106681703Y-78751772D01*
X106745853Y-78596900D01*
X106838985Y-78457519D01*
X106957519Y-78338985D01*
X107096900Y-78245853D01*
X107251772Y-78181703D01*
X107350419Y-78162081D01*
X107416182Y-78149000D01*
X107583818Y-78149000D01*
X107649581Y-78162081D01*
G37*
G36*
X110649581Y-78162081D02*
G01*
X110748228Y-78181703D01*
X110903100Y-78245853D01*
X111042481Y-78338985D01*
X111161015Y-78457519D01*
X111254147Y-78596900D01*
X111318297Y-78751772D01*
X111351000Y-78916184D01*
X111351000Y-79083816D01*
X111318297Y-79248228D01*
X111254147Y-79403100D01*
X111161015Y-79542481D01*
X111042481Y-79661015D01*
X110903100Y-79754147D01*
X110748228Y-79818297D01*
X110649581Y-79837919D01*
X110583818Y-79851000D01*
X110416182Y-79851000D01*
X110350419Y-79837919D01*
X110251772Y-79818297D01*
X110096900Y-79754147D01*
X109957519Y-79661015D01*
X109838985Y-79542481D01*
X109745853Y-79403100D01*
X109681703Y-79248228D01*
X109649000Y-79083816D01*
X109649000Y-78916184D01*
X109681703Y-78751772D01*
X109745853Y-78596900D01*
X109838985Y-78457519D01*
X109957519Y-78338985D01*
X110096900Y-78245853D01*
X110251772Y-78181703D01*
X110350419Y-78162081D01*
X110416182Y-78149000D01*
X110583818Y-78149000D01*
X110649581Y-78162081D01*
G37*
G36*
X121444552Y-78640707D02*
G01*
X121480898Y-78651732D01*
X121514401Y-78669640D01*
X121543763Y-78693737D01*
X121567860Y-78723099D01*
X121585768Y-78756602D01*
X121596793Y-78792948D01*
X121601000Y-78835658D01*
X121601000Y-79414342D01*
X121596793Y-79457052D01*
X121585768Y-79493398D01*
X121567860Y-79526901D01*
X121543763Y-79556263D01*
X121514401Y-79580360D01*
X121480898Y-79598268D01*
X121444552Y-79609293D01*
X121401842Y-79613500D01*
X120748158Y-79613500D01*
X120705448Y-79609293D01*
X120669102Y-79598268D01*
X120635599Y-79580360D01*
X120606237Y-79556263D01*
X120582140Y-79526901D01*
X120564232Y-79493398D01*
X120553207Y-79457052D01*
X120549000Y-79414342D01*
X120549000Y-78835658D01*
X120553207Y-78792948D01*
X120564232Y-78756602D01*
X120582140Y-78723099D01*
X120606237Y-78693737D01*
X120635599Y-78669640D01*
X120669102Y-78651732D01*
X120705448Y-78640707D01*
X120748158Y-78636500D01*
X121401842Y-78636500D01*
X121444552Y-78640707D01*
G37*
G36*
X121444552Y-77065707D02*
G01*
X121480898Y-77076732D01*
X121514401Y-77094640D01*
X121543763Y-77118737D01*
X121567860Y-77148099D01*
X121585768Y-77181602D01*
X121596793Y-77217948D01*
X121601000Y-77260658D01*
X121601000Y-77839342D01*
X121596793Y-77882052D01*
X121585768Y-77918398D01*
X121567860Y-77951901D01*
X121543763Y-77981263D01*
X121514401Y-78005360D01*
X121480898Y-78023268D01*
X121444552Y-78034293D01*
X121401842Y-78038500D01*
X120748158Y-78038500D01*
X120705448Y-78034293D01*
X120669102Y-78023268D01*
X120635599Y-78005360D01*
X120606237Y-77981263D01*
X120582140Y-77951901D01*
X120564232Y-77918398D01*
X120553207Y-77882052D01*
X120549000Y-77839342D01*
X120549000Y-77260658D01*
X120553207Y-77217948D01*
X120564232Y-77181602D01*
X120582140Y-77148099D01*
X120606237Y-77118737D01*
X120635599Y-77094640D01*
X120669102Y-77076732D01*
X120705448Y-77065707D01*
X120748158Y-77061500D01*
X121401842Y-77061500D01*
X121444552Y-77065707D01*
G37*
G36*
X112924432Y-76303688D02*
G01*
X112965469Y-76316136D01*
X113003288Y-76336351D01*
X113036441Y-76363559D01*
X113063649Y-76396712D01*
X113083864Y-76434531D01*
X113096312Y-76475568D01*
X113101000Y-76523167D01*
X113101000Y-77151833D01*
X113096312Y-77199432D01*
X113083864Y-77240469D01*
X113063649Y-77278288D01*
X113036441Y-77311441D01*
X113003288Y-77338649D01*
X112965469Y-77358864D01*
X112924432Y-77371312D01*
X112876833Y-77376000D01*
X111823167Y-77376000D01*
X111775568Y-77371312D01*
X111734531Y-77358864D01*
X111696712Y-77338649D01*
X111663559Y-77311441D01*
X111636351Y-77278288D01*
X111616136Y-77240469D01*
X111603688Y-77199432D01*
X111599000Y-77151833D01*
X111599000Y-76523167D01*
X111603688Y-76475568D01*
X111616136Y-76434531D01*
X111636351Y-76396712D01*
X111663559Y-76363559D01*
X111696712Y-76336351D01*
X111734531Y-76316136D01*
X111775568Y-76303688D01*
X111823167Y-76299000D01*
X112876833Y-76299000D01*
X112924432Y-76303688D01*
G37*
G36*
X116426000Y-77151000D02*
G01*
X114774000Y-77151000D01*
X114774000Y-74649000D01*
X116426000Y-74649000D01*
X116426000Y-77151000D01*
G37*
G36*
X117526000Y-77101000D02*
G01*
X116774000Y-77101000D01*
X116774000Y-74699000D01*
X117526000Y-74699000D01*
X117526000Y-77101000D01*
G37*
G36*
X114426000Y-77101000D02*
G01*
X113674000Y-77101000D01*
X113674000Y-74699000D01*
X114426000Y-74699000D01*
X114426000Y-77101000D01*
G37*
G36*
X120719552Y-74878207D02*
G01*
X120755898Y-74889232D01*
X120789401Y-74907140D01*
X120818763Y-74931237D01*
X120842860Y-74960599D01*
X120860768Y-74994102D01*
X120871793Y-75030448D01*
X120876000Y-75073158D01*
X120876000Y-75726842D01*
X120871793Y-75769552D01*
X120860768Y-75805898D01*
X120842860Y-75839401D01*
X120818763Y-75868763D01*
X120789401Y-75892860D01*
X120755898Y-75910768D01*
X120719552Y-75921793D01*
X120676842Y-75926000D01*
X120098158Y-75926000D01*
X120055448Y-75921793D01*
X120019102Y-75910768D01*
X119985599Y-75892860D01*
X119956237Y-75868763D01*
X119932140Y-75839401D01*
X119914232Y-75805898D01*
X119903207Y-75769552D01*
X119899000Y-75726842D01*
X119899000Y-75073158D01*
X119903207Y-75030448D01*
X119914232Y-74994102D01*
X119932140Y-74960599D01*
X119956237Y-74931237D01*
X119985599Y-74907140D01*
X120019102Y-74889232D01*
X120055448Y-74878207D01*
X120098158Y-74874000D01*
X120676842Y-74874000D01*
X120719552Y-74878207D01*
G37*
G36*
X119144552Y-74878207D02*
G01*
X119180898Y-74889232D01*
X119214401Y-74907140D01*
X119243763Y-74931237D01*
X119267860Y-74960599D01*
X119285768Y-74994102D01*
X119296793Y-75030448D01*
X119301000Y-75073158D01*
X119301000Y-75726842D01*
X119296793Y-75769552D01*
X119285768Y-75805898D01*
X119267860Y-75839401D01*
X119243763Y-75868763D01*
X119214401Y-75892860D01*
X119180898Y-75910768D01*
X119144552Y-75921793D01*
X119101842Y-75926000D01*
X118523158Y-75926000D01*
X118480448Y-75921793D01*
X118444102Y-75910768D01*
X118410599Y-75892860D01*
X118381237Y-75868763D01*
X118357140Y-75839401D01*
X118339232Y-75805898D01*
X118328207Y-75769552D01*
X118324000Y-75726842D01*
X118324000Y-75073158D01*
X118328207Y-75030448D01*
X118339232Y-74994102D01*
X118357140Y-74960599D01*
X118381237Y-74931237D01*
X118410599Y-74907140D01*
X118444102Y-74889232D01*
X118480448Y-74878207D01*
X118523158Y-74874000D01*
X119101842Y-74874000D01*
X119144552Y-74878207D01*
G37*
G36*
X112924432Y-74428688D02*
G01*
X112965469Y-74441136D01*
X113003288Y-74461351D01*
X113036441Y-74488559D01*
X113063649Y-74521712D01*
X113083864Y-74559531D01*
X113096312Y-74600568D01*
X113101000Y-74648167D01*
X113101000Y-75276833D01*
X113096312Y-75324432D01*
X113083864Y-75365469D01*
X113063649Y-75403288D01*
X113036441Y-75436441D01*
X113003288Y-75463649D01*
X112965469Y-75483864D01*
X112924432Y-75496312D01*
X112876833Y-75501000D01*
X111823167Y-75501000D01*
X111775568Y-75496312D01*
X111734531Y-75483864D01*
X111696712Y-75463649D01*
X111663559Y-75436441D01*
X111636351Y-75403288D01*
X111616136Y-75365469D01*
X111603688Y-75324432D01*
X111599000Y-75276833D01*
X111599000Y-74648167D01*
X111603688Y-74600568D01*
X111616136Y-74559531D01*
X111636351Y-74521712D01*
X111663559Y-74488559D01*
X111696712Y-74461351D01*
X111734531Y-74441136D01*
X111775568Y-74428688D01*
X111823167Y-74424000D01*
X112876833Y-74424000D01*
X112924432Y-74428688D01*
G37*
G36*
X106481579Y-71912447D02*
G01*
X106782042Y-72036903D01*
X107052451Y-72217585D01*
X107282415Y-72447549D01*
X107463097Y-72717958D01*
X107587553Y-73018421D01*
X107651000Y-73337391D01*
X107651000Y-73662609D01*
X107587553Y-73981579D01*
X107463097Y-74282042D01*
X107282415Y-74552451D01*
X107052451Y-74782415D01*
X106782042Y-74963097D01*
X106481579Y-75087553D01*
X106162609Y-75151000D01*
X105837391Y-75151000D01*
X105518421Y-75087553D01*
X105217958Y-74963097D01*
X104947549Y-74782415D01*
X104717585Y-74552451D01*
X104536903Y-74282042D01*
X104412447Y-73981579D01*
X104349000Y-73662609D01*
X104349000Y-73337391D01*
X104412447Y-73018421D01*
X104536903Y-72717958D01*
X104717585Y-72447549D01*
X104947549Y-72217585D01*
X105217958Y-72036903D01*
X105518421Y-71912447D01*
X105837391Y-71849000D01*
X106162609Y-71849000D01*
X106481579Y-71912447D01*
G37*
G36*
X116432052Y-72728207D02*
G01*
X116468398Y-72739232D01*
X116501901Y-72757140D01*
X116531263Y-72781237D01*
X116555360Y-72810599D01*
X116573268Y-72844102D01*
X116584293Y-72880448D01*
X116588500Y-72923158D01*
X116588500Y-73576842D01*
X116584293Y-73619552D01*
X116573268Y-73655898D01*
X116555360Y-73689401D01*
X116531263Y-73718763D01*
X116501901Y-73742860D01*
X116468398Y-73760768D01*
X116432052Y-73771793D01*
X116389342Y-73776000D01*
X115810658Y-73776000D01*
X115767948Y-73771793D01*
X115731602Y-73760768D01*
X115698099Y-73742860D01*
X115668737Y-73718763D01*
X115644640Y-73689401D01*
X115626732Y-73655898D01*
X115615707Y-73619552D01*
X115611500Y-73576842D01*
X115611500Y-72923158D01*
X115615707Y-72880448D01*
X115626732Y-72844102D01*
X115644640Y-72810599D01*
X115668737Y-72781237D01*
X115698099Y-72757140D01*
X115731602Y-72739232D01*
X115767948Y-72728207D01*
X115810658Y-72724000D01*
X116389342Y-72724000D01*
X116432052Y-72728207D01*
G37*
G36*
X114857052Y-72728207D02*
G01*
X114893398Y-72739232D01*
X114926901Y-72757140D01*
X114956263Y-72781237D01*
X114980360Y-72810599D01*
X114998268Y-72844102D01*
X115009293Y-72880448D01*
X115013500Y-72923158D01*
X115013500Y-73576842D01*
X115009293Y-73619552D01*
X114998268Y-73655898D01*
X114980360Y-73689401D01*
X114956263Y-73718763D01*
X114926901Y-73742860D01*
X114893398Y-73760768D01*
X114857052Y-73771793D01*
X114814342Y-73776000D01*
X114235658Y-73776000D01*
X114192948Y-73771793D01*
X114156602Y-73760768D01*
X114123099Y-73742860D01*
X114093737Y-73718763D01*
X114069640Y-73689401D01*
X114051732Y-73655898D01*
X114040707Y-73619552D01*
X114036500Y-73576842D01*
X114036500Y-72923158D01*
X114040707Y-72880448D01*
X114051732Y-72844102D01*
X114069640Y-72810599D01*
X114093737Y-72781237D01*
X114123099Y-72757140D01*
X114156602Y-72739232D01*
X114192948Y-72728207D01*
X114235658Y-72724000D01*
X114814342Y-72724000D01*
X114857052Y-72728207D01*
G37*
M02*
