G04 #@! TF.GenerationSoftware,KiCad,Pcbnew,(5.1.4)-1*
G04 #@! TF.CreationDate,2019-12-19T16:51:40-07:00*
G04 #@! TF.ProjectId,CruiseController,43727569-7365-4436-9f6e-74726f6c6c65,rev?*
G04 #@! TF.SameCoordinates,Original*
G04 #@! TF.FileFunction,Soldermask,Bot*
G04 #@! TF.FilePolarity,Negative*
%FSLAX46Y46*%
G04 Gerber Fmt 4.6, Leading zero omitted, Abs format (unit mm)*
G04 Created by KiCad (PCBNEW (5.1.4)-1) date 2019-12-19 16:51:40*
%MOMM*%
%LPD*%
G04 APERTURE LIST*
%ADD10C,0.100000*%
G04 APERTURE END LIST*
D10*
G36*
X118530476Y-104809261D02*
G01*
X118633645Y-104829782D01*
X118719036Y-104865153D01*
X118779416Y-104890163D01*
X118910608Y-104977822D01*
X119022178Y-105089392D01*
X119109837Y-105220584D01*
X119134847Y-105280964D01*
X119170218Y-105366355D01*
X119201000Y-105521109D01*
X119201000Y-105678891D01*
X119170218Y-105833645D01*
X119134847Y-105919036D01*
X119109837Y-105979416D01*
X119109836Y-105979417D01*
X119034032Y-106092868D01*
X119022178Y-106110608D01*
X118910608Y-106222178D01*
X118779416Y-106309837D01*
X118719036Y-106334847D01*
X118633645Y-106370218D01*
X118530476Y-106390739D01*
X118478892Y-106401000D01*
X118321108Y-106401000D01*
X118269524Y-106390739D01*
X118166355Y-106370218D01*
X118080964Y-106334847D01*
X118020584Y-106309837D01*
X117889392Y-106222178D01*
X117777822Y-106110608D01*
X117765969Y-106092868D01*
X117690164Y-105979417D01*
X117690163Y-105979416D01*
X117665153Y-105919036D01*
X117629782Y-105833645D01*
X117599000Y-105678891D01*
X117599000Y-105521109D01*
X117629782Y-105366355D01*
X117665153Y-105280964D01*
X117690163Y-105220584D01*
X117777822Y-105089392D01*
X117889392Y-104977822D01*
X118020584Y-104890163D01*
X118080964Y-104865153D01*
X118166355Y-104829782D01*
X118269524Y-104809261D01*
X118321108Y-104799000D01*
X118478892Y-104799000D01*
X118530476Y-104809261D01*
X118530476Y-104809261D01*
G37*
G36*
X106481579Y-102912447D02*
G01*
X106782042Y-103036903D01*
X107052451Y-103217585D01*
X107282415Y-103447549D01*
X107463097Y-103717958D01*
X107587553Y-104018421D01*
X107651000Y-104337391D01*
X107651000Y-104662609D01*
X107587553Y-104981579D01*
X107463097Y-105282042D01*
X107282415Y-105552451D01*
X107052451Y-105782415D01*
X106782042Y-105963097D01*
X106481579Y-106087553D01*
X106162609Y-106151000D01*
X105837391Y-106151000D01*
X105518421Y-106087553D01*
X105217958Y-105963097D01*
X104947549Y-105782415D01*
X104717585Y-105552451D01*
X104536903Y-105282042D01*
X104412447Y-104981579D01*
X104349000Y-104662609D01*
X104349000Y-104337391D01*
X104412447Y-104018421D01*
X104536903Y-103717958D01*
X104717585Y-103447549D01*
X104947549Y-103217585D01*
X105217958Y-103036903D01*
X105518421Y-102912447D01*
X105837391Y-102849000D01*
X106162609Y-102849000D01*
X106481579Y-102912447D01*
X106481579Y-102912447D01*
G37*
G36*
X110634947Y-105446645D02*
G01*
X110656056Y-105453049D01*
X110675513Y-105463449D01*
X110692561Y-105477439D01*
X110706551Y-105494487D01*
X110716951Y-105513944D01*
X110723355Y-105535053D01*
X110726000Y-105561909D01*
X110726000Y-105978091D01*
X110723355Y-106004947D01*
X110716951Y-106026056D01*
X110706551Y-106045513D01*
X110692561Y-106062561D01*
X110675513Y-106076551D01*
X110656056Y-106086951D01*
X110634947Y-106093355D01*
X110608091Y-106096000D01*
X109291909Y-106096000D01*
X109265053Y-106093355D01*
X109243944Y-106086951D01*
X109224487Y-106076551D01*
X109207439Y-106062561D01*
X109193449Y-106045513D01*
X109183049Y-106026056D01*
X109176645Y-106004947D01*
X109174000Y-105978091D01*
X109174000Y-105561909D01*
X109176645Y-105535053D01*
X109183049Y-105513944D01*
X109193449Y-105494487D01*
X109207439Y-105477439D01*
X109224487Y-105463449D01*
X109243944Y-105453049D01*
X109265053Y-105446645D01*
X109291909Y-105444000D01*
X110608091Y-105444000D01*
X110634947Y-105446645D01*
X110634947Y-105446645D01*
G37*
G36*
X116134947Y-105446645D02*
G01*
X116156056Y-105453049D01*
X116175513Y-105463449D01*
X116192561Y-105477439D01*
X116206551Y-105494487D01*
X116216951Y-105513944D01*
X116223355Y-105535053D01*
X116226000Y-105561909D01*
X116226000Y-105978091D01*
X116223355Y-106004947D01*
X116216951Y-106026056D01*
X116206551Y-106045513D01*
X116192561Y-106062561D01*
X116175513Y-106076551D01*
X116156056Y-106086951D01*
X116134947Y-106093355D01*
X116108091Y-106096000D01*
X114791909Y-106096000D01*
X114765053Y-106093355D01*
X114743944Y-106086951D01*
X114724487Y-106076551D01*
X114707439Y-106062561D01*
X114693449Y-106045513D01*
X114683049Y-106026056D01*
X114676645Y-106004947D01*
X114674000Y-105978091D01*
X114674000Y-105561909D01*
X114676645Y-105535053D01*
X114683049Y-105513944D01*
X114693449Y-105494487D01*
X114707439Y-105477439D01*
X114724487Y-105463449D01*
X114743944Y-105453049D01*
X114765053Y-105446645D01*
X114791909Y-105444000D01*
X116108091Y-105444000D01*
X116134947Y-105446645D01*
X116134947Y-105446645D01*
G37*
G36*
X119869552Y-103253207D02*
G01*
X119905898Y-103264232D01*
X119939401Y-103282140D01*
X119968763Y-103306237D01*
X119992860Y-103335599D01*
X120010768Y-103369102D01*
X120021793Y-103405448D01*
X120026000Y-103448158D01*
X120026000Y-104026842D01*
X120021793Y-104069552D01*
X120010768Y-104105898D01*
X119992860Y-104139401D01*
X119968763Y-104168763D01*
X119939401Y-104192860D01*
X119905898Y-104210768D01*
X119869552Y-104221793D01*
X119826842Y-104226000D01*
X119173158Y-104226000D01*
X119130448Y-104221793D01*
X119094102Y-104210768D01*
X119060599Y-104192860D01*
X119031237Y-104168763D01*
X119007140Y-104139401D01*
X118989232Y-104105898D01*
X118978207Y-104069552D01*
X118974000Y-104026842D01*
X118974000Y-103448158D01*
X118978207Y-103405448D01*
X118989232Y-103369102D01*
X119007140Y-103335599D01*
X119031237Y-103306237D01*
X119060599Y-103282140D01*
X119094102Y-103264232D01*
X119130448Y-103253207D01*
X119173158Y-103249000D01*
X119826842Y-103249000D01*
X119869552Y-103253207D01*
X119869552Y-103253207D01*
G37*
G36*
X116134947Y-102906645D02*
G01*
X116156056Y-102913049D01*
X116175513Y-102923449D01*
X116192561Y-102937439D01*
X116206551Y-102954487D01*
X116216951Y-102973944D01*
X116223355Y-102995053D01*
X116226000Y-103021909D01*
X116226000Y-103438091D01*
X116223355Y-103464947D01*
X116216951Y-103486056D01*
X116206551Y-103505513D01*
X116192561Y-103522561D01*
X116175513Y-103536551D01*
X116156056Y-103546951D01*
X116134947Y-103553355D01*
X116108091Y-103556000D01*
X114791909Y-103556000D01*
X114765053Y-103553355D01*
X114743944Y-103546951D01*
X114724487Y-103536551D01*
X114707439Y-103522561D01*
X114693449Y-103505513D01*
X114683049Y-103486056D01*
X114676645Y-103464947D01*
X114674000Y-103438091D01*
X114674000Y-103021909D01*
X114676645Y-102995053D01*
X114683049Y-102973944D01*
X114693449Y-102954487D01*
X114707439Y-102937439D01*
X114724487Y-102923449D01*
X114743944Y-102913049D01*
X114765053Y-102906645D01*
X114791909Y-102904000D01*
X116108091Y-102904000D01*
X116134947Y-102906645D01*
X116134947Y-102906645D01*
G37*
G36*
X110634947Y-102906645D02*
G01*
X110656056Y-102913049D01*
X110675513Y-102923449D01*
X110692561Y-102937439D01*
X110706551Y-102954487D01*
X110716951Y-102973944D01*
X110723355Y-102995053D01*
X110726000Y-103021909D01*
X110726000Y-103438091D01*
X110723355Y-103464947D01*
X110716951Y-103486056D01*
X110706551Y-103505513D01*
X110692561Y-103522561D01*
X110675513Y-103536551D01*
X110656056Y-103546951D01*
X110634947Y-103553355D01*
X110608091Y-103556000D01*
X109291909Y-103556000D01*
X109265053Y-103553355D01*
X109243944Y-103546951D01*
X109224487Y-103536551D01*
X109207439Y-103522561D01*
X109193449Y-103505513D01*
X109183049Y-103486056D01*
X109176645Y-103464947D01*
X109174000Y-103438091D01*
X109174000Y-103021909D01*
X109176645Y-102995053D01*
X109183049Y-102973944D01*
X109193449Y-102954487D01*
X109207439Y-102937439D01*
X109224487Y-102923449D01*
X109243944Y-102913049D01*
X109265053Y-102906645D01*
X109291909Y-102904000D01*
X110608091Y-102904000D01*
X110634947Y-102906645D01*
X110634947Y-102906645D01*
G37*
G36*
X119869552Y-101678207D02*
G01*
X119905898Y-101689232D01*
X119939401Y-101707140D01*
X119968763Y-101731237D01*
X119992860Y-101760599D01*
X120010768Y-101794102D01*
X120021793Y-101830448D01*
X120026000Y-101873158D01*
X120026000Y-102451842D01*
X120021793Y-102494552D01*
X120010768Y-102530898D01*
X119992860Y-102564401D01*
X119968763Y-102593763D01*
X119939401Y-102617860D01*
X119905898Y-102635768D01*
X119869552Y-102646793D01*
X119826842Y-102651000D01*
X119173158Y-102651000D01*
X119130448Y-102646793D01*
X119094102Y-102635768D01*
X119060599Y-102617860D01*
X119031237Y-102593763D01*
X119007140Y-102564401D01*
X118989232Y-102530898D01*
X118978207Y-102494552D01*
X118974000Y-102451842D01*
X118974000Y-101873158D01*
X118978207Y-101830448D01*
X118989232Y-101794102D01*
X119007140Y-101760599D01*
X119031237Y-101731237D01*
X119060599Y-101707140D01*
X119094102Y-101689232D01*
X119130448Y-101678207D01*
X119173158Y-101674000D01*
X119826842Y-101674000D01*
X119869552Y-101678207D01*
X119869552Y-101678207D01*
G37*
G36*
X115332052Y-100778207D02*
G01*
X115368398Y-100789232D01*
X115401901Y-100807140D01*
X115431263Y-100831237D01*
X115455360Y-100860599D01*
X115473268Y-100894102D01*
X115484293Y-100930448D01*
X115488500Y-100973158D01*
X115488500Y-101626842D01*
X115484293Y-101669552D01*
X115473268Y-101705898D01*
X115455360Y-101739401D01*
X115431263Y-101768763D01*
X115401901Y-101792860D01*
X115368398Y-101810768D01*
X115332052Y-101821793D01*
X115289342Y-101826000D01*
X114710658Y-101826000D01*
X114667948Y-101821793D01*
X114631602Y-101810768D01*
X114598099Y-101792860D01*
X114568737Y-101768763D01*
X114544640Y-101739401D01*
X114526732Y-101705898D01*
X114515707Y-101669552D01*
X114511500Y-101626842D01*
X114511500Y-100973158D01*
X114515707Y-100930448D01*
X114526732Y-100894102D01*
X114544640Y-100860599D01*
X114568737Y-100831237D01*
X114598099Y-100807140D01*
X114631602Y-100789232D01*
X114667948Y-100778207D01*
X114710658Y-100774000D01*
X115289342Y-100774000D01*
X115332052Y-100778207D01*
X115332052Y-100778207D01*
G37*
G36*
X116907052Y-100778207D02*
G01*
X116943398Y-100789232D01*
X116976901Y-100807140D01*
X117006263Y-100831237D01*
X117030360Y-100860599D01*
X117048268Y-100894102D01*
X117059293Y-100930448D01*
X117063500Y-100973158D01*
X117063500Y-101626842D01*
X117059293Y-101669552D01*
X117048268Y-101705898D01*
X117030360Y-101739401D01*
X117006263Y-101768763D01*
X116976901Y-101792860D01*
X116943398Y-101810768D01*
X116907052Y-101821793D01*
X116864342Y-101826000D01*
X116285658Y-101826000D01*
X116242948Y-101821793D01*
X116206602Y-101810768D01*
X116173099Y-101792860D01*
X116143737Y-101768763D01*
X116119640Y-101739401D01*
X116101732Y-101705898D01*
X116090707Y-101669552D01*
X116086500Y-101626842D01*
X116086500Y-100973158D01*
X116090707Y-100930448D01*
X116101732Y-100894102D01*
X116119640Y-100860599D01*
X116143737Y-100831237D01*
X116173099Y-100807140D01*
X116206602Y-100789232D01*
X116242948Y-100778207D01*
X116285658Y-100774000D01*
X116864342Y-100774000D01*
X116907052Y-100778207D01*
X116907052Y-100778207D01*
G37*
G36*
X113794552Y-100828207D02*
G01*
X113830898Y-100839232D01*
X113864401Y-100857140D01*
X113893763Y-100881237D01*
X113917860Y-100910599D01*
X113935768Y-100944102D01*
X113946793Y-100980448D01*
X113951000Y-101023158D01*
X113951000Y-101601842D01*
X113946793Y-101644552D01*
X113935768Y-101680898D01*
X113917860Y-101714401D01*
X113893763Y-101743763D01*
X113864401Y-101767860D01*
X113830898Y-101785768D01*
X113794552Y-101796793D01*
X113751842Y-101801000D01*
X113098158Y-101801000D01*
X113055448Y-101796793D01*
X113019102Y-101785768D01*
X112985599Y-101767860D01*
X112956237Y-101743763D01*
X112932140Y-101714401D01*
X112914232Y-101680898D01*
X112903207Y-101644552D01*
X112899000Y-101601842D01*
X112899000Y-101023158D01*
X112903207Y-100980448D01*
X112914232Y-100944102D01*
X112932140Y-100910599D01*
X112956237Y-100881237D01*
X112985599Y-100857140D01*
X113019102Y-100839232D01*
X113055448Y-100828207D01*
X113098158Y-100824000D01*
X113751842Y-100824000D01*
X113794552Y-100828207D01*
X113794552Y-100828207D01*
G37*
G36*
X105136932Y-100003688D02*
G01*
X105177969Y-100016136D01*
X105215788Y-100036351D01*
X105248941Y-100063559D01*
X105276149Y-100096712D01*
X105296364Y-100134531D01*
X105308812Y-100175568D01*
X105313500Y-100223167D01*
X105313500Y-101276833D01*
X105308812Y-101324432D01*
X105296364Y-101365469D01*
X105276149Y-101403288D01*
X105248941Y-101436441D01*
X105215788Y-101463649D01*
X105177969Y-101483864D01*
X105136932Y-101496312D01*
X105089333Y-101501000D01*
X104460667Y-101501000D01*
X104413068Y-101496312D01*
X104372031Y-101483864D01*
X104334212Y-101463649D01*
X104301059Y-101436441D01*
X104273851Y-101403288D01*
X104253636Y-101365469D01*
X104241188Y-101324432D01*
X104236500Y-101276833D01*
X104236500Y-100223167D01*
X104241188Y-100175568D01*
X104253636Y-100134531D01*
X104273851Y-100096712D01*
X104301059Y-100063559D01*
X104334212Y-100036351D01*
X104372031Y-100016136D01*
X104413068Y-100003688D01*
X104460667Y-99999000D01*
X105089333Y-99999000D01*
X105136932Y-100003688D01*
X105136932Y-100003688D01*
G37*
G36*
X103261932Y-100003688D02*
G01*
X103302969Y-100016136D01*
X103340788Y-100036351D01*
X103373941Y-100063559D01*
X103401149Y-100096712D01*
X103421364Y-100134531D01*
X103433812Y-100175568D01*
X103438500Y-100223167D01*
X103438500Y-101276833D01*
X103433812Y-101324432D01*
X103421364Y-101365469D01*
X103401149Y-101403288D01*
X103373941Y-101436441D01*
X103340788Y-101463649D01*
X103302969Y-101483864D01*
X103261932Y-101496312D01*
X103214333Y-101501000D01*
X102585667Y-101501000D01*
X102538068Y-101496312D01*
X102497031Y-101483864D01*
X102459212Y-101463649D01*
X102426059Y-101436441D01*
X102398851Y-101403288D01*
X102378636Y-101365469D01*
X102366188Y-101324432D01*
X102361500Y-101276833D01*
X102361500Y-100223167D01*
X102366188Y-100175568D01*
X102378636Y-100134531D01*
X102398851Y-100096712D01*
X102426059Y-100063559D01*
X102459212Y-100036351D01*
X102497031Y-100016136D01*
X102538068Y-100003688D01*
X102585667Y-99999000D01*
X103214333Y-99999000D01*
X103261932Y-100003688D01*
X103261932Y-100003688D01*
G37*
G36*
X118344552Y-100278207D02*
G01*
X118380898Y-100289232D01*
X118414401Y-100307140D01*
X118443763Y-100331237D01*
X118467860Y-100360599D01*
X118485768Y-100394102D01*
X118496793Y-100430448D01*
X118501000Y-100473158D01*
X118501000Y-101126842D01*
X118496793Y-101169552D01*
X118485768Y-101205898D01*
X118467860Y-101239401D01*
X118443763Y-101268763D01*
X118414401Y-101292860D01*
X118380898Y-101310768D01*
X118344552Y-101321793D01*
X118301842Y-101326000D01*
X117723158Y-101326000D01*
X117680448Y-101321793D01*
X117644102Y-101310768D01*
X117610599Y-101292860D01*
X117581237Y-101268763D01*
X117557140Y-101239401D01*
X117539232Y-101205898D01*
X117528207Y-101169552D01*
X117524000Y-101126842D01*
X117524000Y-100473158D01*
X117528207Y-100430448D01*
X117539232Y-100394102D01*
X117557140Y-100360599D01*
X117581237Y-100331237D01*
X117610599Y-100307140D01*
X117644102Y-100289232D01*
X117680448Y-100278207D01*
X117723158Y-100274000D01*
X118301842Y-100274000D01*
X118344552Y-100278207D01*
X118344552Y-100278207D01*
G37*
G36*
X119919552Y-100278207D02*
G01*
X119955898Y-100289232D01*
X119989401Y-100307140D01*
X120018763Y-100331237D01*
X120042860Y-100360599D01*
X120060768Y-100394102D01*
X120071793Y-100430448D01*
X120076000Y-100473158D01*
X120076000Y-101126842D01*
X120071793Y-101169552D01*
X120060768Y-101205898D01*
X120042860Y-101239401D01*
X120018763Y-101268763D01*
X119989401Y-101292860D01*
X119955898Y-101310768D01*
X119919552Y-101321793D01*
X119876842Y-101326000D01*
X119298158Y-101326000D01*
X119255448Y-101321793D01*
X119219102Y-101310768D01*
X119185599Y-101292860D01*
X119156237Y-101268763D01*
X119132140Y-101239401D01*
X119114232Y-101205898D01*
X119103207Y-101169552D01*
X119099000Y-101126842D01*
X119099000Y-100473158D01*
X119103207Y-100430448D01*
X119114232Y-100394102D01*
X119132140Y-100360599D01*
X119156237Y-100331237D01*
X119185599Y-100307140D01*
X119219102Y-100289232D01*
X119255448Y-100278207D01*
X119298158Y-100274000D01*
X119876842Y-100274000D01*
X119919552Y-100278207D01*
X119919552Y-100278207D01*
G37*
G36*
X121319552Y-100223707D02*
G01*
X121355898Y-100234732D01*
X121389401Y-100252640D01*
X121418763Y-100276737D01*
X121442860Y-100306099D01*
X121460768Y-100339602D01*
X121471793Y-100375948D01*
X121476000Y-100418658D01*
X121476000Y-100997342D01*
X121471793Y-101040052D01*
X121460768Y-101076398D01*
X121442860Y-101109901D01*
X121418763Y-101139263D01*
X121389401Y-101163360D01*
X121355898Y-101181268D01*
X121319552Y-101192293D01*
X121276842Y-101196500D01*
X120623158Y-101196500D01*
X120580448Y-101192293D01*
X120544102Y-101181268D01*
X120510599Y-101163360D01*
X120481237Y-101139263D01*
X120457140Y-101109901D01*
X120439232Y-101076398D01*
X120428207Y-101040052D01*
X120424000Y-100997342D01*
X120424000Y-100418658D01*
X120428207Y-100375948D01*
X120439232Y-100339602D01*
X120457140Y-100306099D01*
X120481237Y-100276737D01*
X120510599Y-100252640D01*
X120544102Y-100234732D01*
X120580448Y-100223707D01*
X120623158Y-100219500D01*
X121276842Y-100219500D01*
X121319552Y-100223707D01*
X121319552Y-100223707D01*
G37*
G36*
X115244552Y-99278207D02*
G01*
X115280898Y-99289232D01*
X115314401Y-99307140D01*
X115343763Y-99331237D01*
X115367860Y-99360599D01*
X115385768Y-99394102D01*
X115396793Y-99430448D01*
X115401000Y-99473158D01*
X115401000Y-100126842D01*
X115396793Y-100169552D01*
X115385768Y-100205898D01*
X115367860Y-100239401D01*
X115343763Y-100268763D01*
X115314401Y-100292860D01*
X115280898Y-100310768D01*
X115244552Y-100321793D01*
X115201842Y-100326000D01*
X114623158Y-100326000D01*
X114580448Y-100321793D01*
X114544102Y-100310768D01*
X114510599Y-100292860D01*
X114481237Y-100268763D01*
X114457140Y-100239401D01*
X114439232Y-100205898D01*
X114428207Y-100169552D01*
X114424000Y-100126842D01*
X114424000Y-99473158D01*
X114428207Y-99430448D01*
X114439232Y-99394102D01*
X114457140Y-99360599D01*
X114481237Y-99331237D01*
X114510599Y-99307140D01*
X114544102Y-99289232D01*
X114580448Y-99278207D01*
X114623158Y-99274000D01*
X115201842Y-99274000D01*
X115244552Y-99278207D01*
X115244552Y-99278207D01*
G37*
G36*
X116819552Y-99278207D02*
G01*
X116855898Y-99289232D01*
X116889401Y-99307140D01*
X116918763Y-99331237D01*
X116942860Y-99360599D01*
X116960768Y-99394102D01*
X116971793Y-99430448D01*
X116976000Y-99473158D01*
X116976000Y-100126842D01*
X116971793Y-100169552D01*
X116960768Y-100205898D01*
X116942860Y-100239401D01*
X116918763Y-100268763D01*
X116889401Y-100292860D01*
X116855898Y-100310768D01*
X116819552Y-100321793D01*
X116776842Y-100326000D01*
X116198158Y-100326000D01*
X116155448Y-100321793D01*
X116119102Y-100310768D01*
X116085599Y-100292860D01*
X116056237Y-100268763D01*
X116032140Y-100239401D01*
X116014232Y-100205898D01*
X116003207Y-100169552D01*
X115999000Y-100126842D01*
X115999000Y-99473158D01*
X116003207Y-99430448D01*
X116014232Y-99394102D01*
X116032140Y-99360599D01*
X116056237Y-99331237D01*
X116085599Y-99307140D01*
X116119102Y-99289232D01*
X116155448Y-99278207D01*
X116198158Y-99274000D01*
X116776842Y-99274000D01*
X116819552Y-99278207D01*
X116819552Y-99278207D01*
G37*
G36*
X113794552Y-99253207D02*
G01*
X113830898Y-99264232D01*
X113864401Y-99282140D01*
X113893763Y-99306237D01*
X113917860Y-99335599D01*
X113935768Y-99369102D01*
X113946793Y-99405448D01*
X113951000Y-99448158D01*
X113951000Y-100026842D01*
X113946793Y-100069552D01*
X113935768Y-100105898D01*
X113917860Y-100139401D01*
X113893763Y-100168763D01*
X113864401Y-100192860D01*
X113830898Y-100210768D01*
X113794552Y-100221793D01*
X113751842Y-100226000D01*
X113098158Y-100226000D01*
X113055448Y-100221793D01*
X113019102Y-100210768D01*
X112985599Y-100192860D01*
X112956237Y-100168763D01*
X112932140Y-100139401D01*
X112914232Y-100105898D01*
X112903207Y-100069552D01*
X112899000Y-100026842D01*
X112899000Y-99448158D01*
X112903207Y-99405448D01*
X112914232Y-99369102D01*
X112932140Y-99335599D01*
X112956237Y-99306237D01*
X112985599Y-99282140D01*
X113019102Y-99264232D01*
X113055448Y-99253207D01*
X113098158Y-99249000D01*
X113751842Y-99249000D01*
X113794552Y-99253207D01*
X113794552Y-99253207D01*
G37*
G36*
X107649581Y-98162081D02*
G01*
X107748228Y-98181703D01*
X107903100Y-98245853D01*
X108042481Y-98338985D01*
X108161015Y-98457519D01*
X108254147Y-98596900D01*
X108318297Y-98751772D01*
X108351000Y-98916184D01*
X108351000Y-99083816D01*
X108318297Y-99248228D01*
X108254147Y-99403100D01*
X108161015Y-99542481D01*
X108042481Y-99661015D01*
X107903100Y-99754147D01*
X107748228Y-99818297D01*
X107649581Y-99837919D01*
X107583818Y-99851000D01*
X107416182Y-99851000D01*
X107350419Y-99837919D01*
X107251772Y-99818297D01*
X107096900Y-99754147D01*
X106957519Y-99661015D01*
X106838985Y-99542481D01*
X106745853Y-99403100D01*
X106681703Y-99248228D01*
X106649000Y-99083816D01*
X106649000Y-98916184D01*
X106681703Y-98751772D01*
X106745853Y-98596900D01*
X106838985Y-98457519D01*
X106957519Y-98338985D01*
X107096900Y-98245853D01*
X107251772Y-98181703D01*
X107350419Y-98162081D01*
X107416182Y-98149000D01*
X107583818Y-98149000D01*
X107649581Y-98162081D01*
X107649581Y-98162081D01*
G37*
G36*
X110649581Y-98162081D02*
G01*
X110748228Y-98181703D01*
X110903100Y-98245853D01*
X111042481Y-98338985D01*
X111161015Y-98457519D01*
X111254147Y-98596900D01*
X111318297Y-98751772D01*
X111351000Y-98916184D01*
X111351000Y-99083816D01*
X111318297Y-99248228D01*
X111254147Y-99403100D01*
X111161015Y-99542481D01*
X111042481Y-99661015D01*
X110903100Y-99754147D01*
X110748228Y-99818297D01*
X110649581Y-99837919D01*
X110583818Y-99851000D01*
X110416182Y-99851000D01*
X110350419Y-99837919D01*
X110251772Y-99818297D01*
X110096900Y-99754147D01*
X109957519Y-99661015D01*
X109838985Y-99542481D01*
X109745853Y-99403100D01*
X109681703Y-99248228D01*
X109649000Y-99083816D01*
X109649000Y-98916184D01*
X109681703Y-98751772D01*
X109745853Y-98596900D01*
X109838985Y-98457519D01*
X109957519Y-98338985D01*
X110096900Y-98245853D01*
X110251772Y-98181703D01*
X110350419Y-98162081D01*
X110416182Y-98149000D01*
X110583818Y-98149000D01*
X110649581Y-98162081D01*
X110649581Y-98162081D01*
G37*
G36*
X119869552Y-98736207D02*
G01*
X119905898Y-98747232D01*
X119939401Y-98765140D01*
X119968763Y-98789237D01*
X119992860Y-98818599D01*
X120010768Y-98852102D01*
X120021793Y-98888448D01*
X120026000Y-98931158D01*
X120026000Y-99584842D01*
X120021793Y-99627552D01*
X120010768Y-99663898D01*
X119992860Y-99697401D01*
X119968763Y-99726763D01*
X119939401Y-99750860D01*
X119905898Y-99768768D01*
X119869552Y-99779793D01*
X119826842Y-99784000D01*
X119248158Y-99784000D01*
X119205448Y-99779793D01*
X119169102Y-99768768D01*
X119135599Y-99750860D01*
X119106237Y-99726763D01*
X119082140Y-99697401D01*
X119064232Y-99663898D01*
X119053207Y-99627552D01*
X119049000Y-99584842D01*
X119049000Y-98931158D01*
X119053207Y-98888448D01*
X119064232Y-98852102D01*
X119082140Y-98818599D01*
X119106237Y-98789237D01*
X119135599Y-98765140D01*
X119169102Y-98747232D01*
X119205448Y-98736207D01*
X119248158Y-98732000D01*
X119826842Y-98732000D01*
X119869552Y-98736207D01*
X119869552Y-98736207D01*
G37*
G36*
X118294552Y-98736207D02*
G01*
X118330898Y-98747232D01*
X118364401Y-98765140D01*
X118393763Y-98789237D01*
X118417860Y-98818599D01*
X118435768Y-98852102D01*
X118446793Y-98888448D01*
X118451000Y-98931158D01*
X118451000Y-99584842D01*
X118446793Y-99627552D01*
X118435768Y-99663898D01*
X118417860Y-99697401D01*
X118393763Y-99726763D01*
X118364401Y-99750860D01*
X118330898Y-99768768D01*
X118294552Y-99779793D01*
X118251842Y-99784000D01*
X117673158Y-99784000D01*
X117630448Y-99779793D01*
X117594102Y-99768768D01*
X117560599Y-99750860D01*
X117531237Y-99726763D01*
X117507140Y-99697401D01*
X117489232Y-99663898D01*
X117478207Y-99627552D01*
X117474000Y-99584842D01*
X117474000Y-98931158D01*
X117478207Y-98888448D01*
X117489232Y-98852102D01*
X117507140Y-98818599D01*
X117531237Y-98789237D01*
X117560599Y-98765140D01*
X117594102Y-98747232D01*
X117630448Y-98736207D01*
X117673158Y-98732000D01*
X118251842Y-98732000D01*
X118294552Y-98736207D01*
X118294552Y-98736207D01*
G37*
G36*
X121319552Y-98648707D02*
G01*
X121355898Y-98659732D01*
X121389401Y-98677640D01*
X121418763Y-98701737D01*
X121442860Y-98731099D01*
X121460768Y-98764602D01*
X121471793Y-98800948D01*
X121476000Y-98843658D01*
X121476000Y-99422342D01*
X121471793Y-99465052D01*
X121460768Y-99501398D01*
X121442860Y-99534901D01*
X121418763Y-99564263D01*
X121389401Y-99588360D01*
X121355898Y-99606268D01*
X121319552Y-99617293D01*
X121276842Y-99621500D01*
X120623158Y-99621500D01*
X120580448Y-99617293D01*
X120544102Y-99606268D01*
X120510599Y-99588360D01*
X120481237Y-99564263D01*
X120457140Y-99534901D01*
X120439232Y-99501398D01*
X120428207Y-99465052D01*
X120424000Y-99422342D01*
X120424000Y-98843658D01*
X120428207Y-98800948D01*
X120439232Y-98764602D01*
X120457140Y-98731099D01*
X120481237Y-98701737D01*
X120510599Y-98677640D01*
X120544102Y-98659732D01*
X120580448Y-98648707D01*
X120623158Y-98644500D01*
X121276842Y-98644500D01*
X121319552Y-98648707D01*
X121319552Y-98648707D01*
G37*
G36*
X105026000Y-99481000D02*
G01*
X102374000Y-99481000D01*
X102374000Y-98319000D01*
X105026000Y-98319000D01*
X105026000Y-99481000D01*
X105026000Y-99481000D01*
G37*
G36*
X115230444Y-93729520D02*
G01*
X115240220Y-93730000D01*
X115435000Y-93730000D01*
X115435000Y-94520315D01*
X115431961Y-94551167D01*
X115431960Y-94551169D01*
X115431960Y-94551170D01*
X115422441Y-94582552D01*
X115419953Y-94590752D01*
X115400453Y-94627234D01*
X115374211Y-94659211D01*
X115374202Y-94659219D01*
X115373100Y-94660561D01*
X115362209Y-94676861D01*
X115354707Y-94694972D01*
X115350883Y-94714198D01*
X115350882Y-94733801D01*
X115354707Y-94753028D01*
X115362208Y-94771139D01*
X115373099Y-94787439D01*
X115386960Y-94801301D01*
X115403260Y-94812192D01*
X115421371Y-94819694D01*
X115440597Y-94823518D01*
X115450400Y-94824000D01*
X115476000Y-94824000D01*
X115476000Y-95159001D01*
X115477921Y-95178510D01*
X115483612Y-95197269D01*
X115492853Y-95214557D01*
X115505289Y-95229711D01*
X115520443Y-95242147D01*
X115537731Y-95251388D01*
X115556490Y-95257079D01*
X115575999Y-95259000D01*
X116176000Y-95259000D01*
X116176000Y-96141000D01*
X115575999Y-96141000D01*
X115556490Y-96142921D01*
X115537731Y-96148612D01*
X115520443Y-96157853D01*
X115505289Y-96170289D01*
X115492853Y-96185443D01*
X115483612Y-96202731D01*
X115477921Y-96221490D01*
X115476000Y-96240999D01*
X115476000Y-96576000D01*
X115450400Y-96576000D01*
X115430891Y-96577921D01*
X115412132Y-96583612D01*
X115394844Y-96592853D01*
X115379690Y-96605289D01*
X115367254Y-96620443D01*
X115358013Y-96637731D01*
X115352322Y-96656490D01*
X115350401Y-96675999D01*
X115352322Y-96695508D01*
X115358013Y-96714267D01*
X115367254Y-96731555D01*
X115373100Y-96739439D01*
X115374202Y-96740781D01*
X115374211Y-96740789D01*
X115400453Y-96772766D01*
X115419953Y-96809248D01*
X115431961Y-96848833D01*
X115435000Y-96879685D01*
X115435000Y-97670000D01*
X115240220Y-97670000D01*
X115230443Y-97670480D01*
X115225000Y-97671016D01*
X115219556Y-97670480D01*
X115209780Y-97670000D01*
X114740220Y-97670000D01*
X114730443Y-97670480D01*
X114725000Y-97671016D01*
X114719556Y-97670480D01*
X114709780Y-97670000D01*
X114240220Y-97670000D01*
X114230443Y-97670480D01*
X114225000Y-97671016D01*
X114219556Y-97670480D01*
X114209780Y-97670000D01*
X113740220Y-97670000D01*
X113730443Y-97670480D01*
X113725000Y-97671016D01*
X113719556Y-97670480D01*
X113709780Y-97670000D01*
X113240220Y-97670000D01*
X113230443Y-97670480D01*
X113225000Y-97671016D01*
X113219556Y-97670480D01*
X113209780Y-97670000D01*
X113015000Y-97670000D01*
X113015000Y-97150011D01*
X113015001Y-97150001D01*
X113015001Y-96879685D01*
X113018040Y-96848833D01*
X113030048Y-96809248D01*
X113049548Y-96772766D01*
X113075790Y-96740789D01*
X113075799Y-96740781D01*
X113076901Y-96739439D01*
X113087792Y-96723139D01*
X113095294Y-96705028D01*
X113099118Y-96685802D01*
X113099118Y-96675999D01*
X113350401Y-96675999D01*
X113352322Y-96695508D01*
X113358013Y-96714267D01*
X113367254Y-96731555D01*
X113373101Y-96739439D01*
X113374205Y-96740784D01*
X113374211Y-96740789D01*
X113397701Y-96769413D01*
X113411564Y-96783276D01*
X113427864Y-96794166D01*
X113445975Y-96801668D01*
X113465202Y-96805492D01*
X113484805Y-96805491D01*
X113504031Y-96801666D01*
X113522142Y-96794164D01*
X113538441Y-96783273D01*
X113552293Y-96769421D01*
X113575790Y-96740789D01*
X113575797Y-96740783D01*
X113576901Y-96739438D01*
X113587792Y-96723138D01*
X113595294Y-96705027D01*
X113599118Y-96685801D01*
X113599118Y-96675999D01*
X113850401Y-96675999D01*
X113852322Y-96695508D01*
X113858013Y-96714267D01*
X113867254Y-96731555D01*
X113873101Y-96739439D01*
X113874205Y-96740784D01*
X113874211Y-96740789D01*
X113897701Y-96769413D01*
X113911564Y-96783276D01*
X113927864Y-96794166D01*
X113945975Y-96801668D01*
X113965202Y-96805492D01*
X113984805Y-96805491D01*
X114004031Y-96801666D01*
X114022142Y-96794164D01*
X114038441Y-96783273D01*
X114052293Y-96769421D01*
X114075790Y-96740789D01*
X114075797Y-96740783D01*
X114076901Y-96739438D01*
X114087792Y-96723138D01*
X114095294Y-96705027D01*
X114099118Y-96685801D01*
X114099118Y-96675999D01*
X114350401Y-96675999D01*
X114352322Y-96695508D01*
X114358013Y-96714267D01*
X114367254Y-96731555D01*
X114373101Y-96739439D01*
X114374205Y-96740784D01*
X114374211Y-96740789D01*
X114397701Y-96769413D01*
X114411564Y-96783276D01*
X114427864Y-96794166D01*
X114445975Y-96801668D01*
X114465202Y-96805492D01*
X114484805Y-96805491D01*
X114504031Y-96801666D01*
X114522142Y-96794164D01*
X114538441Y-96783273D01*
X114552293Y-96769421D01*
X114575790Y-96740789D01*
X114575797Y-96740783D01*
X114576901Y-96739438D01*
X114587792Y-96723138D01*
X114595294Y-96705027D01*
X114599118Y-96685801D01*
X114599118Y-96675999D01*
X114850401Y-96675999D01*
X114852322Y-96695508D01*
X114858013Y-96714267D01*
X114867254Y-96731555D01*
X114873101Y-96739439D01*
X114874205Y-96740784D01*
X114874211Y-96740789D01*
X114897701Y-96769413D01*
X114911564Y-96783276D01*
X114927864Y-96794166D01*
X114945975Y-96801668D01*
X114965202Y-96805492D01*
X114984805Y-96805491D01*
X115004031Y-96801666D01*
X115022142Y-96794164D01*
X115038441Y-96783273D01*
X115052293Y-96769421D01*
X115075790Y-96740789D01*
X115075797Y-96740783D01*
X115076901Y-96739438D01*
X115087792Y-96723138D01*
X115095294Y-96705027D01*
X115099118Y-96685801D01*
X115099119Y-96666198D01*
X115095294Y-96646971D01*
X115087792Y-96628860D01*
X115076901Y-96612561D01*
X115063040Y-96598699D01*
X115046740Y-96587808D01*
X115028629Y-96580306D01*
X115009403Y-96576482D01*
X114999601Y-96576000D01*
X114950400Y-96576000D01*
X114930891Y-96577921D01*
X114912132Y-96583612D01*
X114894844Y-96592853D01*
X114879690Y-96605289D01*
X114867254Y-96620443D01*
X114858013Y-96637731D01*
X114852322Y-96656490D01*
X114850401Y-96675999D01*
X114599118Y-96675999D01*
X114599119Y-96666198D01*
X114595294Y-96646971D01*
X114587792Y-96628860D01*
X114576901Y-96612561D01*
X114563040Y-96598699D01*
X114546740Y-96587808D01*
X114528629Y-96580306D01*
X114509403Y-96576482D01*
X114499601Y-96576000D01*
X114450400Y-96576000D01*
X114430891Y-96577921D01*
X114412132Y-96583612D01*
X114394844Y-96592853D01*
X114379690Y-96605289D01*
X114367254Y-96620443D01*
X114358013Y-96637731D01*
X114352322Y-96656490D01*
X114350401Y-96675999D01*
X114099118Y-96675999D01*
X114099119Y-96666198D01*
X114095294Y-96646971D01*
X114087792Y-96628860D01*
X114076901Y-96612561D01*
X114063040Y-96598699D01*
X114046740Y-96587808D01*
X114028629Y-96580306D01*
X114009403Y-96576482D01*
X113999601Y-96576000D01*
X113950400Y-96576000D01*
X113930891Y-96577921D01*
X113912132Y-96583612D01*
X113894844Y-96592853D01*
X113879690Y-96605289D01*
X113867254Y-96620443D01*
X113858013Y-96637731D01*
X113852322Y-96656490D01*
X113850401Y-96675999D01*
X113599118Y-96675999D01*
X113599119Y-96666198D01*
X113595294Y-96646971D01*
X113587792Y-96628860D01*
X113576901Y-96612561D01*
X113563040Y-96598699D01*
X113546740Y-96587808D01*
X113528629Y-96580306D01*
X113509403Y-96576482D01*
X113499601Y-96576000D01*
X113450400Y-96576000D01*
X113430891Y-96577921D01*
X113412132Y-96583612D01*
X113394844Y-96592853D01*
X113379690Y-96605289D01*
X113367254Y-96620443D01*
X113358013Y-96637731D01*
X113352322Y-96656490D01*
X113350401Y-96675999D01*
X113099118Y-96675999D01*
X113099119Y-96666199D01*
X113095294Y-96646972D01*
X113087793Y-96628861D01*
X113076902Y-96612561D01*
X113063041Y-96598699D01*
X113046741Y-96587808D01*
X113028630Y-96580306D01*
X113009404Y-96576482D01*
X112999601Y-96576000D01*
X112974000Y-96576000D01*
X112974000Y-96240999D01*
X112972079Y-96221490D01*
X112966388Y-96202731D01*
X112957147Y-96185443D01*
X112944711Y-96170289D01*
X112929557Y-96157853D01*
X112912269Y-96148612D01*
X112893510Y-96142921D01*
X112874001Y-96141000D01*
X112274000Y-96141000D01*
X112274000Y-95259000D01*
X112874001Y-95259000D01*
X112893510Y-95257079D01*
X112912269Y-95251388D01*
X112929557Y-95242147D01*
X112944711Y-95229711D01*
X112957147Y-95214557D01*
X112966388Y-95197269D01*
X112972079Y-95178510D01*
X112974000Y-95159001D01*
X112974000Y-94824000D01*
X112999600Y-94824000D01*
X113019109Y-94822079D01*
X113037868Y-94816388D01*
X113055156Y-94807147D01*
X113070310Y-94794711D01*
X113082746Y-94779557D01*
X113091987Y-94762269D01*
X113097678Y-94743510D01*
X113098633Y-94733802D01*
X113350882Y-94733802D01*
X113354707Y-94753029D01*
X113362209Y-94771140D01*
X113373100Y-94787439D01*
X113386961Y-94801301D01*
X113403261Y-94812192D01*
X113421372Y-94819694D01*
X113440598Y-94823518D01*
X113450400Y-94824000D01*
X113499600Y-94824000D01*
X113519109Y-94822079D01*
X113537868Y-94816388D01*
X113555156Y-94807147D01*
X113570310Y-94794711D01*
X113582746Y-94779557D01*
X113591987Y-94762269D01*
X113597678Y-94743510D01*
X113598633Y-94733802D01*
X113850882Y-94733802D01*
X113854707Y-94753029D01*
X113862209Y-94771140D01*
X113873100Y-94787439D01*
X113886961Y-94801301D01*
X113903261Y-94812192D01*
X113921372Y-94819694D01*
X113940598Y-94823518D01*
X113950400Y-94824000D01*
X113999600Y-94824000D01*
X114019109Y-94822079D01*
X114037868Y-94816388D01*
X114055156Y-94807147D01*
X114070310Y-94794711D01*
X114082746Y-94779557D01*
X114091987Y-94762269D01*
X114097678Y-94743510D01*
X114098633Y-94733802D01*
X114350882Y-94733802D01*
X114354707Y-94753029D01*
X114362209Y-94771140D01*
X114373100Y-94787439D01*
X114386961Y-94801301D01*
X114403261Y-94812192D01*
X114421372Y-94819694D01*
X114440598Y-94823518D01*
X114450400Y-94824000D01*
X114499600Y-94824000D01*
X114519109Y-94822079D01*
X114537868Y-94816388D01*
X114555156Y-94807147D01*
X114570310Y-94794711D01*
X114582746Y-94779557D01*
X114591987Y-94762269D01*
X114597678Y-94743510D01*
X114598633Y-94733802D01*
X114850882Y-94733802D01*
X114854707Y-94753029D01*
X114862209Y-94771140D01*
X114873100Y-94787439D01*
X114886961Y-94801301D01*
X114903261Y-94812192D01*
X114921372Y-94819694D01*
X114940598Y-94823518D01*
X114950400Y-94824000D01*
X114999600Y-94824000D01*
X115019109Y-94822079D01*
X115037868Y-94816388D01*
X115055156Y-94807147D01*
X115070310Y-94794711D01*
X115082746Y-94779557D01*
X115091987Y-94762269D01*
X115097678Y-94743510D01*
X115099599Y-94724001D01*
X115097678Y-94704492D01*
X115091987Y-94685733D01*
X115082746Y-94668445D01*
X115076900Y-94660562D01*
X115075796Y-94659217D01*
X115075789Y-94659211D01*
X115052297Y-94630584D01*
X115038438Y-94616726D01*
X115022139Y-94605835D01*
X115004028Y-94598333D01*
X114984801Y-94594508D01*
X114965198Y-94594509D01*
X114945972Y-94598333D01*
X114927861Y-94605835D01*
X114911561Y-94616726D01*
X114897708Y-94630579D01*
X114874211Y-94659211D01*
X114874204Y-94659217D01*
X114873100Y-94660562D01*
X114862209Y-94676862D01*
X114854707Y-94694973D01*
X114850883Y-94714199D01*
X114850882Y-94733802D01*
X114598633Y-94733802D01*
X114599599Y-94724001D01*
X114597678Y-94704492D01*
X114591987Y-94685733D01*
X114582746Y-94668445D01*
X114576900Y-94660562D01*
X114575796Y-94659217D01*
X114575789Y-94659211D01*
X114552297Y-94630584D01*
X114538438Y-94616726D01*
X114522139Y-94605835D01*
X114504028Y-94598333D01*
X114484801Y-94594508D01*
X114465198Y-94594509D01*
X114445972Y-94598333D01*
X114427861Y-94605835D01*
X114411561Y-94616726D01*
X114397708Y-94630579D01*
X114374211Y-94659211D01*
X114374204Y-94659217D01*
X114373100Y-94660562D01*
X114362209Y-94676862D01*
X114354707Y-94694973D01*
X114350883Y-94714199D01*
X114350882Y-94733802D01*
X114098633Y-94733802D01*
X114099599Y-94724001D01*
X114097678Y-94704492D01*
X114091987Y-94685733D01*
X114082746Y-94668445D01*
X114076900Y-94660562D01*
X114075796Y-94659217D01*
X114075789Y-94659211D01*
X114052297Y-94630584D01*
X114038438Y-94616726D01*
X114022139Y-94605835D01*
X114004028Y-94598333D01*
X113984801Y-94594508D01*
X113965198Y-94594509D01*
X113945972Y-94598333D01*
X113927861Y-94605835D01*
X113911561Y-94616726D01*
X113897708Y-94630579D01*
X113874211Y-94659211D01*
X113874204Y-94659217D01*
X113873100Y-94660562D01*
X113862209Y-94676862D01*
X113854707Y-94694973D01*
X113850883Y-94714199D01*
X113850882Y-94733802D01*
X113598633Y-94733802D01*
X113599599Y-94724001D01*
X113597678Y-94704492D01*
X113591987Y-94685733D01*
X113582746Y-94668445D01*
X113576900Y-94660562D01*
X113575796Y-94659217D01*
X113575789Y-94659211D01*
X113552297Y-94630584D01*
X113538438Y-94616726D01*
X113522139Y-94605835D01*
X113504028Y-94598333D01*
X113484801Y-94594508D01*
X113465198Y-94594509D01*
X113445972Y-94598333D01*
X113427861Y-94605835D01*
X113411561Y-94616726D01*
X113397708Y-94630579D01*
X113374211Y-94659211D01*
X113374204Y-94659217D01*
X113373100Y-94660562D01*
X113362209Y-94676862D01*
X113354707Y-94694973D01*
X113350883Y-94714199D01*
X113350882Y-94733802D01*
X113098633Y-94733802D01*
X113099599Y-94724001D01*
X113097678Y-94704492D01*
X113091987Y-94685733D01*
X113076900Y-94660562D01*
X113075796Y-94659217D01*
X113075789Y-94659211D01*
X113049547Y-94627233D01*
X113030047Y-94590751D01*
X113026890Y-94580343D01*
X113018040Y-94551169D01*
X113018039Y-94551166D01*
X113015000Y-94520314D01*
X113015000Y-93730000D01*
X113209780Y-93730000D01*
X113219557Y-93729520D01*
X113225000Y-93728984D01*
X113230444Y-93729520D01*
X113240220Y-93730000D01*
X113709780Y-93730000D01*
X113719557Y-93729520D01*
X113725000Y-93728984D01*
X113730444Y-93729520D01*
X113740220Y-93730000D01*
X114209780Y-93730000D01*
X114219557Y-93729520D01*
X114225000Y-93728984D01*
X114230444Y-93729520D01*
X114240220Y-93730000D01*
X114709780Y-93730000D01*
X114719557Y-93729520D01*
X114725000Y-93728984D01*
X114730444Y-93729520D01*
X114740220Y-93730000D01*
X115209780Y-93730000D01*
X115219557Y-93729520D01*
X115225000Y-93728984D01*
X115230444Y-93729520D01*
X115230444Y-93729520D01*
G37*
G36*
X118245317Y-93633204D02*
G01*
X118252356Y-93635340D01*
X118258844Y-93638807D01*
X118264527Y-93643472D01*
X118272699Y-93653429D01*
X118286561Y-93667291D01*
X118302860Y-93678182D01*
X118320971Y-93685684D01*
X118340198Y-93689508D01*
X118359801Y-93689509D01*
X118379028Y-93685684D01*
X118397139Y-93678182D01*
X118413438Y-93667292D01*
X118427301Y-93653429D01*
X118435473Y-93643472D01*
X118441156Y-93638807D01*
X118447644Y-93635340D01*
X118454683Y-93633204D01*
X118466910Y-93632000D01*
X118733090Y-93632000D01*
X118745317Y-93633204D01*
X118752356Y-93635340D01*
X118758844Y-93638807D01*
X118764527Y-93643472D01*
X118772699Y-93653429D01*
X118786561Y-93667291D01*
X118802860Y-93678182D01*
X118820971Y-93685684D01*
X118840198Y-93689508D01*
X118859801Y-93689509D01*
X118879028Y-93685684D01*
X118897139Y-93678182D01*
X118913438Y-93667292D01*
X118927301Y-93653429D01*
X118935473Y-93643472D01*
X118941156Y-93638807D01*
X118947644Y-93635340D01*
X118954683Y-93633204D01*
X118966910Y-93632000D01*
X119233090Y-93632000D01*
X119245317Y-93633204D01*
X119252356Y-93635340D01*
X119258844Y-93638807D01*
X119264527Y-93643472D01*
X119272699Y-93653429D01*
X119286561Y-93667291D01*
X119302860Y-93678182D01*
X119320971Y-93685684D01*
X119340198Y-93689508D01*
X119359801Y-93689509D01*
X119379028Y-93685684D01*
X119397139Y-93678182D01*
X119413438Y-93667292D01*
X119427301Y-93653429D01*
X119435473Y-93643472D01*
X119441156Y-93638807D01*
X119447644Y-93635340D01*
X119454683Y-93633204D01*
X119466910Y-93632000D01*
X119733090Y-93632000D01*
X119745317Y-93633204D01*
X119752356Y-93635340D01*
X119758844Y-93638807D01*
X119764528Y-93643472D01*
X119769193Y-93649156D01*
X119772660Y-93655644D01*
X119774796Y-93662683D01*
X119776000Y-93674910D01*
X119776000Y-94516091D01*
X119775280Y-94523401D01*
X119775279Y-94543004D01*
X119779104Y-94562230D01*
X119786605Y-94580341D01*
X119797496Y-94596641D01*
X119811358Y-94610503D01*
X119827657Y-94621394D01*
X119845768Y-94628896D01*
X119864995Y-94632720D01*
X119884599Y-94632720D01*
X119891909Y-94632000D01*
X120733090Y-94632000D01*
X120745317Y-94633204D01*
X120752356Y-94635340D01*
X120758844Y-94638807D01*
X120764528Y-94643472D01*
X120769193Y-94649156D01*
X120772660Y-94655644D01*
X120774796Y-94662683D01*
X120776000Y-94674910D01*
X120776000Y-94941090D01*
X120774796Y-94953317D01*
X120772660Y-94960356D01*
X120769193Y-94966844D01*
X120764528Y-94972527D01*
X120754571Y-94980699D01*
X120740709Y-94994561D01*
X120729818Y-95010860D01*
X120722316Y-95028971D01*
X120718492Y-95048198D01*
X120718491Y-95067801D01*
X120722316Y-95087028D01*
X120729818Y-95105139D01*
X120740708Y-95121438D01*
X120754571Y-95135301D01*
X120764528Y-95143473D01*
X120769193Y-95149156D01*
X120772660Y-95155644D01*
X120774796Y-95162683D01*
X120776000Y-95174910D01*
X120776000Y-95441090D01*
X120774796Y-95453317D01*
X120772660Y-95460356D01*
X120769193Y-95466844D01*
X120764528Y-95472527D01*
X120754571Y-95480699D01*
X120740709Y-95494561D01*
X120729818Y-95510860D01*
X120722316Y-95528971D01*
X120718492Y-95548198D01*
X120718491Y-95567801D01*
X120722316Y-95587028D01*
X120729818Y-95605139D01*
X120740708Y-95621438D01*
X120754571Y-95635301D01*
X120764528Y-95643473D01*
X120769193Y-95649156D01*
X120772660Y-95655644D01*
X120774796Y-95662683D01*
X120776000Y-95674910D01*
X120776000Y-95941090D01*
X120774796Y-95953317D01*
X120772660Y-95960356D01*
X120769193Y-95966844D01*
X120764528Y-95972527D01*
X120754571Y-95980699D01*
X120740709Y-95994561D01*
X120729818Y-96010860D01*
X120722316Y-96028971D01*
X120718492Y-96048198D01*
X120718491Y-96067801D01*
X120722316Y-96087028D01*
X120729818Y-96105139D01*
X120740708Y-96121438D01*
X120754571Y-96135301D01*
X120764528Y-96143473D01*
X120769193Y-96149156D01*
X120772660Y-96155644D01*
X120774796Y-96162683D01*
X120776000Y-96174910D01*
X120776000Y-96441090D01*
X120774796Y-96453317D01*
X120772660Y-96460356D01*
X120769193Y-96466844D01*
X120764528Y-96472528D01*
X120758844Y-96477193D01*
X120752356Y-96480660D01*
X120745317Y-96482796D01*
X120733090Y-96484000D01*
X119891909Y-96484000D01*
X119884599Y-96483280D01*
X119864996Y-96483279D01*
X119845770Y-96487104D01*
X119827659Y-96494605D01*
X119811359Y-96505496D01*
X119797497Y-96519358D01*
X119786606Y-96535657D01*
X119779104Y-96553768D01*
X119775280Y-96572995D01*
X119775280Y-96592599D01*
X119776000Y-96599909D01*
X119776000Y-97441090D01*
X119774796Y-97453317D01*
X119772660Y-97460356D01*
X119769193Y-97466844D01*
X119764528Y-97472528D01*
X119758844Y-97477193D01*
X119752356Y-97480660D01*
X119745317Y-97482796D01*
X119733090Y-97484000D01*
X119466910Y-97484000D01*
X119454683Y-97482796D01*
X119447644Y-97480660D01*
X119441156Y-97477193D01*
X119435473Y-97472528D01*
X119427301Y-97462571D01*
X119413439Y-97448709D01*
X119397140Y-97437818D01*
X119379029Y-97430316D01*
X119359802Y-97426492D01*
X119340199Y-97426491D01*
X119320972Y-97430316D01*
X119302861Y-97437818D01*
X119286562Y-97448708D01*
X119272699Y-97462571D01*
X119264527Y-97472528D01*
X119258844Y-97477193D01*
X119252356Y-97480660D01*
X119245317Y-97482796D01*
X119233090Y-97484000D01*
X118966910Y-97484000D01*
X118954683Y-97482796D01*
X118947644Y-97480660D01*
X118941156Y-97477193D01*
X118935473Y-97472528D01*
X118927301Y-97462571D01*
X118913439Y-97448709D01*
X118897140Y-97437818D01*
X118879029Y-97430316D01*
X118859802Y-97426492D01*
X118840199Y-97426491D01*
X118820972Y-97430316D01*
X118802861Y-97437818D01*
X118786562Y-97448708D01*
X118772699Y-97462571D01*
X118764527Y-97472528D01*
X118758844Y-97477193D01*
X118752356Y-97480660D01*
X118745317Y-97482796D01*
X118733090Y-97484000D01*
X118466910Y-97484000D01*
X118454683Y-97482796D01*
X118447644Y-97480660D01*
X118441156Y-97477193D01*
X118435473Y-97472528D01*
X118427301Y-97462571D01*
X118413439Y-97448709D01*
X118397140Y-97437818D01*
X118379029Y-97430316D01*
X118359802Y-97426492D01*
X118340199Y-97426491D01*
X118320972Y-97430316D01*
X118302861Y-97437818D01*
X118286562Y-97448708D01*
X118272699Y-97462571D01*
X118264527Y-97472528D01*
X118258844Y-97477193D01*
X118252356Y-97480660D01*
X118245317Y-97482796D01*
X118233090Y-97484000D01*
X117966910Y-97484000D01*
X117954683Y-97482796D01*
X117947644Y-97480660D01*
X117941156Y-97477193D01*
X117935472Y-97472528D01*
X117930807Y-97466844D01*
X117927340Y-97460356D01*
X117925204Y-97453317D01*
X117924000Y-97441090D01*
X117924000Y-96599909D01*
X117924720Y-96592599D01*
X117924721Y-96572996D01*
X117920896Y-96553770D01*
X117913395Y-96535659D01*
X117902504Y-96519359D01*
X117888642Y-96505497D01*
X117872343Y-96494606D01*
X117854232Y-96487104D01*
X117835005Y-96483280D01*
X117815401Y-96483280D01*
X117808091Y-96484000D01*
X116966910Y-96484000D01*
X116954683Y-96482796D01*
X116947644Y-96480660D01*
X116941156Y-96477193D01*
X116935472Y-96472528D01*
X116930807Y-96466844D01*
X116927340Y-96460356D01*
X116925204Y-96453317D01*
X116924000Y-96441090D01*
X116924000Y-96174910D01*
X116925204Y-96162683D01*
X116927340Y-96155644D01*
X116930807Y-96149156D01*
X116935472Y-96143473D01*
X116945429Y-96135301D01*
X116959291Y-96121439D01*
X116970182Y-96105140D01*
X116977684Y-96087029D01*
X116981508Y-96067802D01*
X116981509Y-96048199D01*
X116977684Y-96028972D01*
X116970182Y-96010861D01*
X116959292Y-95994562D01*
X116945429Y-95980699D01*
X116935472Y-95972527D01*
X116930807Y-95966844D01*
X116927340Y-95960356D01*
X116925204Y-95953317D01*
X116924000Y-95941090D01*
X116924000Y-95674910D01*
X116925204Y-95662683D01*
X116927340Y-95655644D01*
X116930807Y-95649156D01*
X116935472Y-95643473D01*
X116945429Y-95635301D01*
X116959291Y-95621439D01*
X116970182Y-95605140D01*
X116977684Y-95587029D01*
X116981508Y-95567802D01*
X116981509Y-95548199D01*
X116977684Y-95528972D01*
X116970182Y-95510861D01*
X116959292Y-95494562D01*
X116945429Y-95480699D01*
X116935472Y-95472527D01*
X116930807Y-95466844D01*
X116927340Y-95460356D01*
X116925204Y-95453317D01*
X116924000Y-95441090D01*
X116924000Y-95174910D01*
X116925204Y-95162683D01*
X116927340Y-95155644D01*
X116930807Y-95149156D01*
X116935472Y-95143473D01*
X116945429Y-95135301D01*
X116959291Y-95121439D01*
X116970182Y-95105140D01*
X116977684Y-95087029D01*
X116981508Y-95067802D01*
X116981509Y-95048199D01*
X116977684Y-95028972D01*
X116970182Y-95010861D01*
X116959292Y-94994562D01*
X116945429Y-94980699D01*
X116935472Y-94972527D01*
X116930807Y-94966844D01*
X116927340Y-94960356D01*
X116925204Y-94953317D01*
X116924000Y-94941090D01*
X116924000Y-94674910D01*
X116925204Y-94662683D01*
X116927340Y-94655644D01*
X116930807Y-94649156D01*
X116935472Y-94643472D01*
X116941156Y-94638807D01*
X116947644Y-94635340D01*
X116954683Y-94633204D01*
X116966910Y-94632000D01*
X117808091Y-94632000D01*
X117815401Y-94632720D01*
X117835004Y-94632721D01*
X117854230Y-94628896D01*
X117872341Y-94621395D01*
X117888641Y-94610504D01*
X117902503Y-94596642D01*
X117913394Y-94580343D01*
X117920896Y-94562232D01*
X117924720Y-94543005D01*
X117924720Y-94523401D01*
X117924000Y-94516091D01*
X117924000Y-93674910D01*
X117925204Y-93662683D01*
X117927340Y-93655644D01*
X117930807Y-93649156D01*
X117935472Y-93643472D01*
X117941156Y-93638807D01*
X117947644Y-93635340D01*
X117954683Y-93633204D01*
X117966910Y-93632000D01*
X118233090Y-93632000D01*
X118245317Y-93633204D01*
X118245317Y-93633204D01*
G37*
G36*
X110627932Y-95657775D02*
G01*
X110748228Y-95681703D01*
X110903100Y-95745853D01*
X111042481Y-95838985D01*
X111161015Y-95957519D01*
X111254147Y-96096900D01*
X111318297Y-96251772D01*
X111326977Y-96295411D01*
X111351000Y-96416182D01*
X111351000Y-96583818D01*
X111343715Y-96620443D01*
X111318297Y-96748228D01*
X111254147Y-96903100D01*
X111161015Y-97042481D01*
X111042481Y-97161015D01*
X110903100Y-97254147D01*
X110748228Y-97318297D01*
X110649581Y-97337919D01*
X110583818Y-97351000D01*
X110416182Y-97351000D01*
X110350419Y-97337919D01*
X110251772Y-97318297D01*
X110096900Y-97254147D01*
X109957519Y-97161015D01*
X109838985Y-97042481D01*
X109745853Y-96903100D01*
X109681703Y-96748228D01*
X109656285Y-96620443D01*
X109649000Y-96583818D01*
X109649000Y-96416182D01*
X109673023Y-96295411D01*
X109681703Y-96251772D01*
X109745853Y-96096900D01*
X109838985Y-95957519D01*
X109957519Y-95838985D01*
X110096900Y-95745853D01*
X110251772Y-95681703D01*
X110372068Y-95657775D01*
X110416182Y-95649000D01*
X110583818Y-95649000D01*
X110627932Y-95657775D01*
X110627932Y-95657775D01*
G37*
G36*
X107627932Y-95657775D02*
G01*
X107748228Y-95681703D01*
X107903100Y-95745853D01*
X108042481Y-95838985D01*
X108161015Y-95957519D01*
X108254147Y-96096900D01*
X108318297Y-96251772D01*
X108326977Y-96295411D01*
X108351000Y-96416182D01*
X108351000Y-96583818D01*
X108343715Y-96620443D01*
X108318297Y-96748228D01*
X108254147Y-96903100D01*
X108161015Y-97042481D01*
X108042481Y-97161015D01*
X107903100Y-97254147D01*
X107748228Y-97318297D01*
X107649581Y-97337919D01*
X107583818Y-97351000D01*
X107416182Y-97351000D01*
X107350419Y-97337919D01*
X107251772Y-97318297D01*
X107096900Y-97254147D01*
X106957519Y-97161015D01*
X106838985Y-97042481D01*
X106745853Y-96903100D01*
X106681703Y-96748228D01*
X106656285Y-96620443D01*
X106649000Y-96583818D01*
X106649000Y-96416182D01*
X106673023Y-96295411D01*
X106681703Y-96251772D01*
X106745853Y-96096900D01*
X106838985Y-95957519D01*
X106957519Y-95838985D01*
X107096900Y-95745853D01*
X107251772Y-95681703D01*
X107372068Y-95657775D01*
X107416182Y-95649000D01*
X107583818Y-95649000D01*
X107627932Y-95657775D01*
X107627932Y-95657775D01*
G37*
G36*
X103126000Y-97281000D02*
G01*
X102374000Y-97281000D01*
X102374000Y-96119000D01*
X103126000Y-96119000D01*
X103126000Y-97281000D01*
X103126000Y-97281000D01*
G37*
G36*
X105026000Y-97281000D02*
G01*
X104274000Y-97281000D01*
X104274000Y-96119000D01*
X105026000Y-96119000D01*
X105026000Y-97281000D01*
X105026000Y-97281000D01*
G37*
G36*
X103532052Y-94478207D02*
G01*
X103568398Y-94489232D01*
X103601901Y-94507140D01*
X103631263Y-94531237D01*
X103655360Y-94560599D01*
X103673268Y-94594102D01*
X103684293Y-94630448D01*
X103688500Y-94673158D01*
X103688500Y-95326842D01*
X103684293Y-95369552D01*
X103673268Y-95405898D01*
X103655360Y-95439401D01*
X103631263Y-95468763D01*
X103601901Y-95492860D01*
X103568398Y-95510768D01*
X103532052Y-95521793D01*
X103489342Y-95526000D01*
X102910658Y-95526000D01*
X102867948Y-95521793D01*
X102831602Y-95510768D01*
X102798099Y-95492860D01*
X102768737Y-95468763D01*
X102744640Y-95439401D01*
X102726732Y-95405898D01*
X102715707Y-95369552D01*
X102711500Y-95326842D01*
X102711500Y-94673158D01*
X102715707Y-94630448D01*
X102726732Y-94594102D01*
X102744640Y-94560599D01*
X102768737Y-94531237D01*
X102798099Y-94507140D01*
X102831602Y-94489232D01*
X102867948Y-94478207D01*
X102910658Y-94474000D01*
X103489342Y-94474000D01*
X103532052Y-94478207D01*
X103532052Y-94478207D01*
G37*
G36*
X101957052Y-94478207D02*
G01*
X101993398Y-94489232D01*
X102026901Y-94507140D01*
X102056263Y-94531237D01*
X102080360Y-94560599D01*
X102098268Y-94594102D01*
X102109293Y-94630448D01*
X102113500Y-94673158D01*
X102113500Y-95326842D01*
X102109293Y-95369552D01*
X102098268Y-95405898D01*
X102080360Y-95439401D01*
X102056263Y-95468763D01*
X102026901Y-95492860D01*
X101993398Y-95510768D01*
X101957052Y-95521793D01*
X101914342Y-95526000D01*
X101335658Y-95526000D01*
X101292948Y-95521793D01*
X101256602Y-95510768D01*
X101223099Y-95492860D01*
X101193737Y-95468763D01*
X101169640Y-95439401D01*
X101151732Y-95405898D01*
X101140707Y-95369552D01*
X101136500Y-95326842D01*
X101136500Y-94673158D01*
X101140707Y-94630448D01*
X101151732Y-94594102D01*
X101169640Y-94560599D01*
X101193737Y-94531237D01*
X101223099Y-94507140D01*
X101256602Y-94489232D01*
X101292948Y-94478207D01*
X101335658Y-94474000D01*
X101914342Y-94474000D01*
X101957052Y-94478207D01*
X101957052Y-94478207D01*
G37*
G36*
X110649581Y-93162081D02*
G01*
X110748228Y-93181703D01*
X110903100Y-93245853D01*
X111042481Y-93338985D01*
X111161015Y-93457519D01*
X111254147Y-93596900D01*
X111318297Y-93751772D01*
X111351000Y-93916184D01*
X111351000Y-94083816D01*
X111318297Y-94248228D01*
X111254147Y-94403100D01*
X111161015Y-94542481D01*
X111042481Y-94661015D01*
X110903100Y-94754147D01*
X110748228Y-94818297D01*
X110649581Y-94837919D01*
X110583818Y-94851000D01*
X110416182Y-94851000D01*
X110350419Y-94837919D01*
X110251772Y-94818297D01*
X110096900Y-94754147D01*
X109957519Y-94661015D01*
X109838985Y-94542481D01*
X109745853Y-94403100D01*
X109681703Y-94248228D01*
X109649000Y-94083816D01*
X109649000Y-93916184D01*
X109681703Y-93751772D01*
X109745853Y-93596900D01*
X109838985Y-93457519D01*
X109957519Y-93338985D01*
X110096900Y-93245853D01*
X110251772Y-93181703D01*
X110350419Y-93162081D01*
X110416182Y-93149000D01*
X110583818Y-93149000D01*
X110649581Y-93162081D01*
X110649581Y-93162081D01*
G37*
G36*
X107649581Y-93162081D02*
G01*
X107748228Y-93181703D01*
X107903100Y-93245853D01*
X108042481Y-93338985D01*
X108161015Y-93457519D01*
X108254147Y-93596900D01*
X108318297Y-93751772D01*
X108351000Y-93916184D01*
X108351000Y-94083816D01*
X108318297Y-94248228D01*
X108254147Y-94403100D01*
X108161015Y-94542481D01*
X108042481Y-94661015D01*
X107903100Y-94754147D01*
X107748228Y-94818297D01*
X107649581Y-94837919D01*
X107583818Y-94851000D01*
X107416182Y-94851000D01*
X107350419Y-94837919D01*
X107251772Y-94818297D01*
X107096900Y-94754147D01*
X106957519Y-94661015D01*
X106838985Y-94542481D01*
X106745853Y-94403100D01*
X106681703Y-94248228D01*
X106649000Y-94083816D01*
X106649000Y-93916184D01*
X106681703Y-93751772D01*
X106745853Y-93596900D01*
X106838985Y-93457519D01*
X106957519Y-93338985D01*
X107096900Y-93245853D01*
X107251772Y-93181703D01*
X107350419Y-93162081D01*
X107416182Y-93149000D01*
X107583818Y-93149000D01*
X107649581Y-93162081D01*
X107649581Y-93162081D01*
G37*
G36*
X101961932Y-92553688D02*
G01*
X102002969Y-92566136D01*
X102040788Y-92586351D01*
X102073941Y-92613559D01*
X102101149Y-92646712D01*
X102121364Y-92684531D01*
X102133812Y-92725568D01*
X102138500Y-92773167D01*
X102138500Y-93826833D01*
X102133812Y-93874432D01*
X102121364Y-93915469D01*
X102101149Y-93953288D01*
X102073941Y-93986441D01*
X102040788Y-94013649D01*
X102002969Y-94033864D01*
X101961932Y-94046312D01*
X101914333Y-94051000D01*
X101285667Y-94051000D01*
X101238068Y-94046312D01*
X101197031Y-94033864D01*
X101159212Y-94013649D01*
X101126059Y-93986441D01*
X101098851Y-93953288D01*
X101078636Y-93915469D01*
X101066188Y-93874432D01*
X101061500Y-93826833D01*
X101061500Y-92773167D01*
X101066188Y-92725568D01*
X101078636Y-92684531D01*
X101098851Y-92646712D01*
X101126059Y-92613559D01*
X101159212Y-92586351D01*
X101197031Y-92566136D01*
X101238068Y-92553688D01*
X101285667Y-92549000D01*
X101914333Y-92549000D01*
X101961932Y-92553688D01*
X101961932Y-92553688D01*
G37*
G36*
X103836932Y-92553688D02*
G01*
X103877969Y-92566136D01*
X103915788Y-92586351D01*
X103948941Y-92613559D01*
X103976149Y-92646712D01*
X103996364Y-92684531D01*
X104008812Y-92725568D01*
X104013500Y-92773167D01*
X104013500Y-93826833D01*
X104008812Y-93874432D01*
X103996364Y-93915469D01*
X103976149Y-93953288D01*
X103948941Y-93986441D01*
X103915788Y-94013649D01*
X103877969Y-94033864D01*
X103836932Y-94046312D01*
X103789333Y-94051000D01*
X103160667Y-94051000D01*
X103113068Y-94046312D01*
X103072031Y-94033864D01*
X103034212Y-94013649D01*
X103001059Y-93986441D01*
X102973851Y-93953288D01*
X102953636Y-93915469D01*
X102941188Y-93874432D01*
X102936500Y-93826833D01*
X102936500Y-92773167D01*
X102941188Y-92725568D01*
X102953636Y-92684531D01*
X102973851Y-92646712D01*
X103001059Y-92613559D01*
X103034212Y-92586351D01*
X103072031Y-92566136D01*
X103113068Y-92553688D01*
X103160667Y-92549000D01*
X103789333Y-92549000D01*
X103836932Y-92553688D01*
X103836932Y-92553688D01*
G37*
G36*
X117607052Y-91528207D02*
G01*
X117643398Y-91539232D01*
X117676901Y-91557140D01*
X117706263Y-91581237D01*
X117730360Y-91610599D01*
X117748268Y-91644102D01*
X117759293Y-91680448D01*
X117763500Y-91723158D01*
X117763500Y-92376842D01*
X117759293Y-92419552D01*
X117748268Y-92455898D01*
X117730360Y-92489401D01*
X117706263Y-92518763D01*
X117676901Y-92542860D01*
X117643398Y-92560768D01*
X117607052Y-92571793D01*
X117564342Y-92576000D01*
X116985658Y-92576000D01*
X116942948Y-92571793D01*
X116906602Y-92560768D01*
X116873099Y-92542860D01*
X116843737Y-92518763D01*
X116819640Y-92489401D01*
X116801732Y-92455898D01*
X116790707Y-92419552D01*
X116786500Y-92376842D01*
X116786500Y-91723158D01*
X116790707Y-91680448D01*
X116801732Y-91644102D01*
X116819640Y-91610599D01*
X116843737Y-91581237D01*
X116873099Y-91557140D01*
X116906602Y-91539232D01*
X116942948Y-91528207D01*
X116985658Y-91524000D01*
X117564342Y-91524000D01*
X117607052Y-91528207D01*
X117607052Y-91528207D01*
G37*
G36*
X116032052Y-91528207D02*
G01*
X116068398Y-91539232D01*
X116101901Y-91557140D01*
X116131263Y-91581237D01*
X116155360Y-91610599D01*
X116173268Y-91644102D01*
X116184293Y-91680448D01*
X116188500Y-91723158D01*
X116188500Y-92376842D01*
X116184293Y-92419552D01*
X116173268Y-92455898D01*
X116155360Y-92489401D01*
X116131263Y-92518763D01*
X116101901Y-92542860D01*
X116068398Y-92560768D01*
X116032052Y-92571793D01*
X115989342Y-92576000D01*
X115410658Y-92576000D01*
X115367948Y-92571793D01*
X115331602Y-92560768D01*
X115298099Y-92542860D01*
X115268737Y-92518763D01*
X115244640Y-92489401D01*
X115226732Y-92455898D01*
X115215707Y-92419552D01*
X115211500Y-92376842D01*
X115211500Y-91723158D01*
X115215707Y-91680448D01*
X115226732Y-91644102D01*
X115244640Y-91610599D01*
X115268737Y-91581237D01*
X115298099Y-91557140D01*
X115331602Y-91539232D01*
X115367948Y-91528207D01*
X115410658Y-91524000D01*
X115989342Y-91524000D01*
X116032052Y-91528207D01*
X116032052Y-91528207D01*
G37*
G36*
X107649581Y-90662081D02*
G01*
X107748228Y-90681703D01*
X107903100Y-90745853D01*
X108042481Y-90838985D01*
X108161015Y-90957519D01*
X108254147Y-91096900D01*
X108318297Y-91251772D01*
X108332411Y-91322731D01*
X108351000Y-91416182D01*
X108351000Y-91583818D01*
X108345673Y-91610599D01*
X108318297Y-91748228D01*
X108254147Y-91903100D01*
X108161015Y-92042481D01*
X108042481Y-92161015D01*
X107903100Y-92254147D01*
X107748228Y-92318297D01*
X107649581Y-92337919D01*
X107583818Y-92351000D01*
X107416182Y-92351000D01*
X107350419Y-92337919D01*
X107251772Y-92318297D01*
X107096900Y-92254147D01*
X106957519Y-92161015D01*
X106838985Y-92042481D01*
X106745853Y-91903100D01*
X106681703Y-91748228D01*
X106654327Y-91610599D01*
X106649000Y-91583818D01*
X106649000Y-91416182D01*
X106667589Y-91322731D01*
X106681703Y-91251772D01*
X106745853Y-91096900D01*
X106838985Y-90957519D01*
X106957519Y-90838985D01*
X107096900Y-90745853D01*
X107251772Y-90681703D01*
X107350419Y-90662081D01*
X107416182Y-90649000D01*
X107583818Y-90649000D01*
X107649581Y-90662081D01*
X107649581Y-90662081D01*
G37*
G36*
X110649581Y-90662081D02*
G01*
X110748228Y-90681703D01*
X110903100Y-90745853D01*
X111042481Y-90838985D01*
X111161015Y-90957519D01*
X111254147Y-91096900D01*
X111318297Y-91251772D01*
X111332411Y-91322731D01*
X111351000Y-91416182D01*
X111351000Y-91583818D01*
X111345673Y-91610599D01*
X111318297Y-91748228D01*
X111254147Y-91903100D01*
X111161015Y-92042481D01*
X111042481Y-92161015D01*
X110903100Y-92254147D01*
X110748228Y-92318297D01*
X110649581Y-92337919D01*
X110583818Y-92351000D01*
X110416182Y-92351000D01*
X110350419Y-92337919D01*
X110251772Y-92318297D01*
X110096900Y-92254147D01*
X109957519Y-92161015D01*
X109838985Y-92042481D01*
X109745853Y-91903100D01*
X109681703Y-91748228D01*
X109654327Y-91610599D01*
X109649000Y-91583818D01*
X109649000Y-91416182D01*
X109667589Y-91322731D01*
X109681703Y-91251772D01*
X109745853Y-91096900D01*
X109838985Y-90957519D01*
X109957519Y-90838985D01*
X110096900Y-90745853D01*
X110251772Y-90681703D01*
X110350419Y-90662081D01*
X110416182Y-90649000D01*
X110583818Y-90649000D01*
X110649581Y-90662081D01*
X110649581Y-90662081D01*
G37*
G36*
X101751000Y-91261000D02*
G01*
X101180999Y-91261000D01*
X101161490Y-91262921D01*
X101142731Y-91268612D01*
X101125443Y-91277853D01*
X101110289Y-91290289D01*
X101097853Y-91305443D01*
X101088612Y-91322731D01*
X101082921Y-91341490D01*
X101081000Y-91360999D01*
X101081000Y-92201000D01*
X100349000Y-92201000D01*
X100349000Y-91439000D01*
X100749001Y-91439000D01*
X100768510Y-91437079D01*
X100787269Y-91431388D01*
X100804557Y-91422147D01*
X100819711Y-91409711D01*
X100832147Y-91394557D01*
X100841388Y-91377269D01*
X100847079Y-91358510D01*
X100849000Y-91339001D01*
X100849000Y-90079000D01*
X101751000Y-90079000D01*
X101751000Y-91261000D01*
X101751000Y-91261000D01*
G37*
G36*
X105557052Y-90928207D02*
G01*
X105593398Y-90939232D01*
X105626901Y-90957140D01*
X105656263Y-90981237D01*
X105680360Y-91010599D01*
X105698268Y-91044102D01*
X105709293Y-91080448D01*
X105713500Y-91123158D01*
X105713500Y-91776842D01*
X105709293Y-91819552D01*
X105698268Y-91855898D01*
X105680360Y-91889401D01*
X105656263Y-91918763D01*
X105626901Y-91942860D01*
X105593398Y-91960768D01*
X105557052Y-91971793D01*
X105514342Y-91976000D01*
X104935658Y-91976000D01*
X104892948Y-91971793D01*
X104856602Y-91960768D01*
X104823099Y-91942860D01*
X104793737Y-91918763D01*
X104769640Y-91889401D01*
X104751732Y-91855898D01*
X104740707Y-91819552D01*
X104736500Y-91776842D01*
X104736500Y-91123158D01*
X104740707Y-91080448D01*
X104751732Y-91044102D01*
X104769640Y-91010599D01*
X104793737Y-90981237D01*
X104823099Y-90957140D01*
X104856602Y-90939232D01*
X104892948Y-90928207D01*
X104935658Y-90924000D01*
X105514342Y-90924000D01*
X105557052Y-90928207D01*
X105557052Y-90928207D01*
G37*
G36*
X103982052Y-90928207D02*
G01*
X104018398Y-90939232D01*
X104051901Y-90957140D01*
X104081263Y-90981237D01*
X104105360Y-91010599D01*
X104123268Y-91044102D01*
X104134293Y-91080448D01*
X104138500Y-91123158D01*
X104138500Y-91776842D01*
X104134293Y-91819552D01*
X104123268Y-91855898D01*
X104105360Y-91889401D01*
X104081263Y-91918763D01*
X104051901Y-91942860D01*
X104018398Y-91960768D01*
X103982052Y-91971793D01*
X103939342Y-91976000D01*
X103360658Y-91976000D01*
X103317948Y-91971793D01*
X103281602Y-91960768D01*
X103248099Y-91942860D01*
X103218737Y-91918763D01*
X103194640Y-91889401D01*
X103176732Y-91855898D01*
X103165707Y-91819552D01*
X103161500Y-91776842D01*
X103161500Y-91123158D01*
X103165707Y-91080448D01*
X103176732Y-91044102D01*
X103194640Y-91010599D01*
X103218737Y-90981237D01*
X103248099Y-90957140D01*
X103281602Y-90939232D01*
X103317948Y-90928207D01*
X103360658Y-90924000D01*
X103939342Y-90924000D01*
X103982052Y-90928207D01*
X103982052Y-90928207D01*
G37*
G36*
X117582052Y-90136207D02*
G01*
X117618398Y-90147232D01*
X117651901Y-90165140D01*
X117681263Y-90189237D01*
X117705360Y-90218599D01*
X117723268Y-90252102D01*
X117734293Y-90288448D01*
X117738500Y-90331158D01*
X117738500Y-90984842D01*
X117734293Y-91027552D01*
X117723268Y-91063898D01*
X117705360Y-91097401D01*
X117681263Y-91126763D01*
X117651901Y-91150860D01*
X117618398Y-91168768D01*
X117582052Y-91179793D01*
X117539342Y-91184000D01*
X116960658Y-91184000D01*
X116917948Y-91179793D01*
X116881602Y-91168768D01*
X116848099Y-91150860D01*
X116818737Y-91126763D01*
X116794640Y-91097401D01*
X116776732Y-91063898D01*
X116765707Y-91027552D01*
X116761500Y-90984842D01*
X116761500Y-90331158D01*
X116765707Y-90288448D01*
X116776732Y-90252102D01*
X116794640Y-90218599D01*
X116818737Y-90189237D01*
X116848099Y-90165140D01*
X116881602Y-90147232D01*
X116917948Y-90136207D01*
X116960658Y-90132000D01*
X117539342Y-90132000D01*
X117582052Y-90136207D01*
X117582052Y-90136207D01*
G37*
G36*
X116007052Y-90136207D02*
G01*
X116043398Y-90147232D01*
X116076901Y-90165140D01*
X116106263Y-90189237D01*
X116130360Y-90218599D01*
X116148268Y-90252102D01*
X116159293Y-90288448D01*
X116163500Y-90331158D01*
X116163500Y-90984842D01*
X116159293Y-91027552D01*
X116148268Y-91063898D01*
X116130360Y-91097401D01*
X116106263Y-91126763D01*
X116076901Y-91150860D01*
X116043398Y-91168768D01*
X116007052Y-91179793D01*
X115964342Y-91184000D01*
X115385658Y-91184000D01*
X115342948Y-91179793D01*
X115306602Y-91168768D01*
X115273099Y-91150860D01*
X115243737Y-91126763D01*
X115219640Y-91097401D01*
X115201732Y-91063898D01*
X115190707Y-91027552D01*
X115186500Y-90984842D01*
X115186500Y-90331158D01*
X115190707Y-90288448D01*
X115201732Y-90252102D01*
X115219640Y-90218599D01*
X115243737Y-90189237D01*
X115273099Y-90165140D01*
X115306602Y-90147232D01*
X115342948Y-90136207D01*
X115385658Y-90132000D01*
X115964342Y-90132000D01*
X116007052Y-90136207D01*
X116007052Y-90136207D01*
G37*
G36*
X120669552Y-90128207D02*
G01*
X120705898Y-90139232D01*
X120739401Y-90157140D01*
X120768763Y-90181237D01*
X120792860Y-90210599D01*
X120810768Y-90244102D01*
X120821793Y-90280448D01*
X120826000Y-90323158D01*
X120826000Y-90976842D01*
X120821793Y-91019552D01*
X120810768Y-91055898D01*
X120792860Y-91089401D01*
X120768763Y-91118763D01*
X120739401Y-91142860D01*
X120705898Y-91160768D01*
X120669552Y-91171793D01*
X120626842Y-91176000D01*
X120048158Y-91176000D01*
X120005448Y-91171793D01*
X119969102Y-91160768D01*
X119935599Y-91142860D01*
X119906237Y-91118763D01*
X119882140Y-91089401D01*
X119864232Y-91055898D01*
X119853207Y-91019552D01*
X119849000Y-90976842D01*
X119849000Y-90323158D01*
X119853207Y-90280448D01*
X119864232Y-90244102D01*
X119882140Y-90210599D01*
X119906237Y-90181237D01*
X119935599Y-90157140D01*
X119969102Y-90139232D01*
X120005448Y-90128207D01*
X120048158Y-90124000D01*
X120626842Y-90124000D01*
X120669552Y-90128207D01*
X120669552Y-90128207D01*
G37*
G36*
X119094552Y-90128207D02*
G01*
X119130898Y-90139232D01*
X119164401Y-90157140D01*
X119193763Y-90181237D01*
X119217860Y-90210599D01*
X119235768Y-90244102D01*
X119246793Y-90280448D01*
X119251000Y-90323158D01*
X119251000Y-90976842D01*
X119246793Y-91019552D01*
X119235768Y-91055898D01*
X119217860Y-91089401D01*
X119193763Y-91118763D01*
X119164401Y-91142860D01*
X119130898Y-91160768D01*
X119094552Y-91171793D01*
X119051842Y-91176000D01*
X118473158Y-91176000D01*
X118430448Y-91171793D01*
X118394102Y-91160768D01*
X118360599Y-91142860D01*
X118331237Y-91118763D01*
X118307140Y-91089401D01*
X118289232Y-91055898D01*
X118278207Y-91019552D01*
X118274000Y-90976842D01*
X118274000Y-90323158D01*
X118278207Y-90280448D01*
X118289232Y-90244102D01*
X118307140Y-90210599D01*
X118331237Y-90181237D01*
X118360599Y-90157140D01*
X118394102Y-90139232D01*
X118430448Y-90128207D01*
X118473158Y-90124000D01*
X119051842Y-90124000D01*
X119094552Y-90128207D01*
X119094552Y-90128207D01*
G37*
G36*
X105519552Y-89378207D02*
G01*
X105555898Y-89389232D01*
X105589401Y-89407140D01*
X105618763Y-89431237D01*
X105642860Y-89460599D01*
X105660768Y-89494102D01*
X105671793Y-89530448D01*
X105676000Y-89573158D01*
X105676000Y-90226842D01*
X105671793Y-90269552D01*
X105660768Y-90305898D01*
X105642860Y-90339401D01*
X105618763Y-90368763D01*
X105589401Y-90392860D01*
X105555898Y-90410768D01*
X105519552Y-90421793D01*
X105476842Y-90426000D01*
X104898158Y-90426000D01*
X104855448Y-90421793D01*
X104819102Y-90410768D01*
X104785599Y-90392860D01*
X104756237Y-90368763D01*
X104732140Y-90339401D01*
X104714232Y-90305898D01*
X104703207Y-90269552D01*
X104699000Y-90226842D01*
X104699000Y-89573158D01*
X104703207Y-89530448D01*
X104714232Y-89494102D01*
X104732140Y-89460599D01*
X104756237Y-89431237D01*
X104785599Y-89407140D01*
X104819102Y-89389232D01*
X104855448Y-89378207D01*
X104898158Y-89374000D01*
X105476842Y-89374000D01*
X105519552Y-89378207D01*
X105519552Y-89378207D01*
G37*
G36*
X103944552Y-89378207D02*
G01*
X103980898Y-89389232D01*
X104014401Y-89407140D01*
X104043763Y-89431237D01*
X104067860Y-89460599D01*
X104085768Y-89494102D01*
X104096793Y-89530448D01*
X104101000Y-89573158D01*
X104101000Y-90226842D01*
X104096793Y-90269552D01*
X104085768Y-90305898D01*
X104067860Y-90339401D01*
X104043763Y-90368763D01*
X104014401Y-90392860D01*
X103980898Y-90410768D01*
X103944552Y-90421793D01*
X103901842Y-90426000D01*
X103323158Y-90426000D01*
X103280448Y-90421793D01*
X103244102Y-90410768D01*
X103210599Y-90392860D01*
X103181237Y-90368763D01*
X103157140Y-90339401D01*
X103139232Y-90305898D01*
X103128207Y-90269552D01*
X103124000Y-90226842D01*
X103124000Y-89573158D01*
X103128207Y-89530448D01*
X103139232Y-89494102D01*
X103157140Y-89460599D01*
X103181237Y-89431237D01*
X103210599Y-89407140D01*
X103244102Y-89389232D01*
X103280448Y-89378207D01*
X103323158Y-89374000D01*
X103901842Y-89374000D01*
X103944552Y-89378207D01*
X103944552Y-89378207D01*
G37*
G36*
X110644145Y-88161000D02*
G01*
X110748228Y-88181703D01*
X110903100Y-88245853D01*
X111042481Y-88338985D01*
X111161015Y-88457519D01*
X111254147Y-88596900D01*
X111318297Y-88751772D01*
X111328777Y-88804461D01*
X111351000Y-88916182D01*
X111351000Y-89083818D01*
X111337919Y-89149581D01*
X111318297Y-89248228D01*
X111254147Y-89403100D01*
X111161015Y-89542481D01*
X111042481Y-89661015D01*
X110903100Y-89754147D01*
X110748228Y-89818297D01*
X110649581Y-89837919D01*
X110583818Y-89851000D01*
X110416182Y-89851000D01*
X110350419Y-89837919D01*
X110251772Y-89818297D01*
X110096900Y-89754147D01*
X109957519Y-89661015D01*
X109838985Y-89542481D01*
X109745853Y-89403100D01*
X109681703Y-89248228D01*
X109662081Y-89149581D01*
X109649000Y-89083818D01*
X109649000Y-88916182D01*
X109671223Y-88804461D01*
X109681703Y-88751772D01*
X109745853Y-88596900D01*
X109838985Y-88457519D01*
X109957519Y-88338985D01*
X110096900Y-88245853D01*
X110251772Y-88181703D01*
X110355855Y-88161000D01*
X110416182Y-88149000D01*
X110583818Y-88149000D01*
X110644145Y-88161000D01*
X110644145Y-88161000D01*
G37*
G36*
X107644145Y-88161000D02*
G01*
X107748228Y-88181703D01*
X107903100Y-88245853D01*
X108042481Y-88338985D01*
X108161015Y-88457519D01*
X108254147Y-88596900D01*
X108318297Y-88751772D01*
X108328777Y-88804461D01*
X108351000Y-88916182D01*
X108351000Y-89083818D01*
X108337919Y-89149581D01*
X108318297Y-89248228D01*
X108254147Y-89403100D01*
X108161015Y-89542481D01*
X108042481Y-89661015D01*
X107903100Y-89754147D01*
X107748228Y-89818297D01*
X107649581Y-89837919D01*
X107583818Y-89851000D01*
X107416182Y-89851000D01*
X107350419Y-89837919D01*
X107251772Y-89818297D01*
X107096900Y-89754147D01*
X106957519Y-89661015D01*
X106838985Y-89542481D01*
X106745853Y-89403100D01*
X106681703Y-89248228D01*
X106662081Y-89149581D01*
X106649000Y-89083818D01*
X106649000Y-88916182D01*
X106671223Y-88804461D01*
X106681703Y-88751772D01*
X106745853Y-88596900D01*
X106838985Y-88457519D01*
X106957519Y-88338985D01*
X107096900Y-88245853D01*
X107251772Y-88181703D01*
X107355855Y-88161000D01*
X107416182Y-88149000D01*
X107583818Y-88149000D01*
X107644145Y-88161000D01*
X107644145Y-88161000D01*
G37*
G36*
X101081000Y-88239001D02*
G01*
X101082921Y-88258510D01*
X101088612Y-88277269D01*
X101097853Y-88294557D01*
X101110289Y-88309711D01*
X101125443Y-88322147D01*
X101142731Y-88331388D01*
X101161490Y-88337079D01*
X101180999Y-88339000D01*
X101751000Y-88339000D01*
X101751000Y-89521000D01*
X100849000Y-89521000D01*
X100849000Y-88260999D01*
X100847079Y-88241490D01*
X100841388Y-88222731D01*
X100832147Y-88205443D01*
X100819711Y-88190289D01*
X100804557Y-88177853D01*
X100787269Y-88168612D01*
X100768510Y-88162921D01*
X100749001Y-88161000D01*
X100349000Y-88161000D01*
X100349000Y-87399000D01*
X101081000Y-87399000D01*
X101081000Y-88239001D01*
X101081000Y-88239001D01*
G37*
G36*
X114757052Y-88228207D02*
G01*
X114793398Y-88239232D01*
X114826901Y-88257140D01*
X114856263Y-88281237D01*
X114880360Y-88310599D01*
X114898268Y-88344102D01*
X114909293Y-88380448D01*
X114913500Y-88423158D01*
X114913500Y-89076842D01*
X114909293Y-89119552D01*
X114898268Y-89155898D01*
X114880360Y-89189401D01*
X114856263Y-89218763D01*
X114826901Y-89242860D01*
X114793398Y-89260768D01*
X114757052Y-89271793D01*
X114714342Y-89276000D01*
X114135658Y-89276000D01*
X114092948Y-89271793D01*
X114056602Y-89260768D01*
X114023099Y-89242860D01*
X113993737Y-89218763D01*
X113969640Y-89189401D01*
X113951732Y-89155898D01*
X113940707Y-89119552D01*
X113936500Y-89076842D01*
X113936500Y-88423158D01*
X113940707Y-88380448D01*
X113951732Y-88344102D01*
X113969640Y-88310599D01*
X113993737Y-88281237D01*
X114023099Y-88257140D01*
X114056602Y-88239232D01*
X114092948Y-88228207D01*
X114135658Y-88224000D01*
X114714342Y-88224000D01*
X114757052Y-88228207D01*
X114757052Y-88228207D01*
G37*
G36*
X113182052Y-88228207D02*
G01*
X113218398Y-88239232D01*
X113251901Y-88257140D01*
X113281263Y-88281237D01*
X113305360Y-88310599D01*
X113323268Y-88344102D01*
X113334293Y-88380448D01*
X113338500Y-88423158D01*
X113338500Y-89076842D01*
X113334293Y-89119552D01*
X113323268Y-89155898D01*
X113305360Y-89189401D01*
X113281263Y-89218763D01*
X113251901Y-89242860D01*
X113218398Y-89260768D01*
X113182052Y-89271793D01*
X113139342Y-89276000D01*
X112560658Y-89276000D01*
X112517948Y-89271793D01*
X112481602Y-89260768D01*
X112448099Y-89242860D01*
X112418737Y-89218763D01*
X112394640Y-89189401D01*
X112376732Y-89155898D01*
X112365707Y-89119552D01*
X112361500Y-89076842D01*
X112361500Y-88423158D01*
X112365707Y-88380448D01*
X112376732Y-88344102D01*
X112394640Y-88310599D01*
X112418737Y-88281237D01*
X112448099Y-88257140D01*
X112481602Y-88239232D01*
X112517948Y-88228207D01*
X112560658Y-88224000D01*
X113139342Y-88224000D01*
X113182052Y-88228207D01*
X113182052Y-88228207D01*
G37*
G36*
X103894552Y-87828207D02*
G01*
X103930898Y-87839232D01*
X103964401Y-87857140D01*
X103993763Y-87881237D01*
X104017860Y-87910599D01*
X104035768Y-87944102D01*
X104046793Y-87980448D01*
X104051000Y-88023158D01*
X104051000Y-88676842D01*
X104046793Y-88719552D01*
X104035768Y-88755898D01*
X104017860Y-88789401D01*
X103993763Y-88818763D01*
X103964401Y-88842860D01*
X103930898Y-88860768D01*
X103894552Y-88871793D01*
X103851842Y-88876000D01*
X103273158Y-88876000D01*
X103230448Y-88871793D01*
X103194102Y-88860768D01*
X103160599Y-88842860D01*
X103131237Y-88818763D01*
X103107140Y-88789401D01*
X103089232Y-88755898D01*
X103078207Y-88719552D01*
X103074000Y-88676842D01*
X103074000Y-88023158D01*
X103078207Y-87980448D01*
X103089232Y-87944102D01*
X103107140Y-87910599D01*
X103131237Y-87881237D01*
X103160599Y-87857140D01*
X103194102Y-87839232D01*
X103230448Y-87828207D01*
X103273158Y-87824000D01*
X103851842Y-87824000D01*
X103894552Y-87828207D01*
X103894552Y-87828207D01*
G37*
G36*
X105469552Y-87828207D02*
G01*
X105505898Y-87839232D01*
X105539401Y-87857140D01*
X105568763Y-87881237D01*
X105592860Y-87910599D01*
X105610768Y-87944102D01*
X105621793Y-87980448D01*
X105626000Y-88023158D01*
X105626000Y-88676842D01*
X105621793Y-88719552D01*
X105610768Y-88755898D01*
X105592860Y-88789401D01*
X105568763Y-88818763D01*
X105539401Y-88842860D01*
X105505898Y-88860768D01*
X105469552Y-88871793D01*
X105426842Y-88876000D01*
X104848158Y-88876000D01*
X104805448Y-88871793D01*
X104769102Y-88860768D01*
X104735599Y-88842860D01*
X104706237Y-88818763D01*
X104682140Y-88789401D01*
X104664232Y-88755898D01*
X104653207Y-88719552D01*
X104649000Y-88676842D01*
X104649000Y-88023158D01*
X104653207Y-87980448D01*
X104664232Y-87944102D01*
X104682140Y-87910599D01*
X104706237Y-87881237D01*
X104735599Y-87857140D01*
X104769102Y-87839232D01*
X104805448Y-87828207D01*
X104848158Y-87824000D01*
X105426842Y-87824000D01*
X105469552Y-87828207D01*
X105469552Y-87828207D01*
G37*
G36*
X113982817Y-79775204D02*
G01*
X113989856Y-79777340D01*
X113996344Y-79780807D01*
X114002027Y-79785472D01*
X114010199Y-79795429D01*
X114024061Y-79809291D01*
X114040360Y-79820182D01*
X114058471Y-79827684D01*
X114077698Y-79831508D01*
X114097301Y-79831509D01*
X114116528Y-79827684D01*
X114134639Y-79820182D01*
X114150938Y-79809292D01*
X114164801Y-79795429D01*
X114172973Y-79785472D01*
X114178656Y-79780807D01*
X114185144Y-79777340D01*
X114192183Y-79775204D01*
X114204410Y-79774000D01*
X114470590Y-79774000D01*
X114482817Y-79775204D01*
X114489856Y-79777340D01*
X114496344Y-79780807D01*
X114502027Y-79785472D01*
X114510199Y-79795429D01*
X114524061Y-79809291D01*
X114540360Y-79820182D01*
X114558471Y-79827684D01*
X114577698Y-79831508D01*
X114597301Y-79831509D01*
X114616528Y-79827684D01*
X114634639Y-79820182D01*
X114650938Y-79809292D01*
X114664801Y-79795429D01*
X114672973Y-79785472D01*
X114678656Y-79780807D01*
X114685144Y-79777340D01*
X114692183Y-79775204D01*
X114704410Y-79774000D01*
X114970590Y-79774000D01*
X114982817Y-79775204D01*
X114989856Y-79777340D01*
X114996344Y-79780807D01*
X115002027Y-79785472D01*
X115010199Y-79795429D01*
X115024061Y-79809291D01*
X115040360Y-79820182D01*
X115058471Y-79827684D01*
X115077698Y-79831508D01*
X115097301Y-79831509D01*
X115116528Y-79827684D01*
X115134639Y-79820182D01*
X115150938Y-79809292D01*
X115164801Y-79795429D01*
X115172973Y-79785472D01*
X115178656Y-79780807D01*
X115185144Y-79777340D01*
X115192183Y-79775204D01*
X115204410Y-79774000D01*
X115470590Y-79774000D01*
X115482817Y-79775204D01*
X115489856Y-79777340D01*
X115496344Y-79780807D01*
X115502027Y-79785472D01*
X115510199Y-79795429D01*
X115524061Y-79809291D01*
X115540360Y-79820182D01*
X115558471Y-79827684D01*
X115577698Y-79831508D01*
X115597301Y-79831509D01*
X115616528Y-79827684D01*
X115634639Y-79820182D01*
X115650938Y-79809292D01*
X115664801Y-79795429D01*
X115672973Y-79785472D01*
X115678656Y-79780807D01*
X115685144Y-79777340D01*
X115692183Y-79775204D01*
X115704410Y-79774000D01*
X115970590Y-79774000D01*
X115982817Y-79775204D01*
X115989856Y-79777340D01*
X115996344Y-79780807D01*
X116002027Y-79785472D01*
X116010199Y-79795429D01*
X116024061Y-79809291D01*
X116040360Y-79820182D01*
X116058471Y-79827684D01*
X116077698Y-79831508D01*
X116097301Y-79831509D01*
X116116528Y-79827684D01*
X116134639Y-79820182D01*
X116150938Y-79809292D01*
X116164801Y-79795429D01*
X116172973Y-79785472D01*
X116178656Y-79780807D01*
X116185144Y-79777340D01*
X116192183Y-79775204D01*
X116204410Y-79774000D01*
X116470590Y-79774000D01*
X116482817Y-79775204D01*
X116489856Y-79777340D01*
X116496344Y-79780807D01*
X116502027Y-79785472D01*
X116510199Y-79795429D01*
X116524061Y-79809291D01*
X116540360Y-79820182D01*
X116558471Y-79827684D01*
X116577698Y-79831508D01*
X116597301Y-79831509D01*
X116616528Y-79827684D01*
X116634639Y-79820182D01*
X116650938Y-79809292D01*
X116664801Y-79795429D01*
X116672973Y-79785472D01*
X116678656Y-79780807D01*
X116685144Y-79777340D01*
X116692183Y-79775204D01*
X116704410Y-79774000D01*
X116970590Y-79774000D01*
X116982817Y-79775204D01*
X116989856Y-79777340D01*
X116996344Y-79780807D01*
X117002027Y-79785472D01*
X117010199Y-79795429D01*
X117024061Y-79809291D01*
X117040360Y-79820182D01*
X117058471Y-79827684D01*
X117077698Y-79831508D01*
X117097301Y-79831509D01*
X117116528Y-79827684D01*
X117134639Y-79820182D01*
X117150938Y-79809292D01*
X117164801Y-79795429D01*
X117172973Y-79785472D01*
X117178656Y-79780807D01*
X117185144Y-79777340D01*
X117192183Y-79775204D01*
X117204410Y-79774000D01*
X117470590Y-79774000D01*
X117482817Y-79775204D01*
X117489856Y-79777340D01*
X117496344Y-79780807D01*
X117502027Y-79785472D01*
X117510199Y-79795429D01*
X117524061Y-79809291D01*
X117540360Y-79820182D01*
X117558471Y-79827684D01*
X117577698Y-79831508D01*
X117597301Y-79831509D01*
X117616528Y-79827684D01*
X117634639Y-79820182D01*
X117650938Y-79809292D01*
X117664801Y-79795429D01*
X117672973Y-79785472D01*
X117678656Y-79780807D01*
X117685144Y-79777340D01*
X117692183Y-79775204D01*
X117704410Y-79774000D01*
X117970590Y-79774000D01*
X117982817Y-79775204D01*
X117989856Y-79777340D01*
X117996344Y-79780807D01*
X118002027Y-79785472D01*
X118010199Y-79795429D01*
X118024061Y-79809291D01*
X118040360Y-79820182D01*
X118058471Y-79827684D01*
X118077698Y-79831508D01*
X118097301Y-79831509D01*
X118116528Y-79827684D01*
X118134639Y-79820182D01*
X118150938Y-79809292D01*
X118164801Y-79795429D01*
X118172973Y-79785472D01*
X118178656Y-79780807D01*
X118185144Y-79777340D01*
X118192183Y-79775204D01*
X118204410Y-79774000D01*
X118470590Y-79774000D01*
X118482817Y-79775204D01*
X118489856Y-79777340D01*
X118496344Y-79780807D01*
X118502027Y-79785472D01*
X118510199Y-79795429D01*
X118524061Y-79809291D01*
X118540360Y-79820182D01*
X118558471Y-79827684D01*
X118577698Y-79831508D01*
X118597301Y-79831509D01*
X118616528Y-79827684D01*
X118634639Y-79820182D01*
X118650938Y-79809292D01*
X118664801Y-79795429D01*
X118672973Y-79785472D01*
X118678656Y-79780807D01*
X118685144Y-79777340D01*
X118692183Y-79775204D01*
X118704410Y-79774000D01*
X118970590Y-79774000D01*
X118982817Y-79775204D01*
X118989856Y-79777340D01*
X118996344Y-79780807D01*
X119002027Y-79785472D01*
X119010199Y-79795429D01*
X119024061Y-79809291D01*
X119040360Y-79820182D01*
X119058471Y-79827684D01*
X119077698Y-79831508D01*
X119097301Y-79831509D01*
X119116528Y-79827684D01*
X119134639Y-79820182D01*
X119150938Y-79809292D01*
X119164801Y-79795429D01*
X119172973Y-79785472D01*
X119178656Y-79780807D01*
X119185144Y-79777340D01*
X119192183Y-79775204D01*
X119204410Y-79774000D01*
X119470590Y-79774000D01*
X119482817Y-79775204D01*
X119489856Y-79777340D01*
X119496344Y-79780807D01*
X119502028Y-79785472D01*
X119506693Y-79791156D01*
X119510160Y-79797644D01*
X119512296Y-79804683D01*
X119513500Y-79816910D01*
X119513500Y-80674001D01*
X119515421Y-80693510D01*
X119521112Y-80712269D01*
X119530353Y-80729557D01*
X119542789Y-80744711D01*
X119557943Y-80757147D01*
X119575231Y-80766388D01*
X119593990Y-80772079D01*
X119613499Y-80774000D01*
X120470590Y-80774000D01*
X120482817Y-80775204D01*
X120489856Y-80777340D01*
X120496344Y-80780807D01*
X120502028Y-80785472D01*
X120506693Y-80791156D01*
X120510160Y-80797644D01*
X120512296Y-80804683D01*
X120513500Y-80816910D01*
X120513500Y-81083090D01*
X120512296Y-81095317D01*
X120510160Y-81102356D01*
X120506693Y-81108844D01*
X120502028Y-81114527D01*
X120492071Y-81122699D01*
X120478209Y-81136561D01*
X120467318Y-81152860D01*
X120459816Y-81170971D01*
X120455992Y-81190198D01*
X120455991Y-81209801D01*
X120459816Y-81229028D01*
X120467318Y-81247139D01*
X120478208Y-81263438D01*
X120492071Y-81277301D01*
X120502028Y-81285473D01*
X120506693Y-81291156D01*
X120510160Y-81297644D01*
X120512296Y-81304683D01*
X120513500Y-81316910D01*
X120513500Y-81583090D01*
X120512296Y-81595317D01*
X120510160Y-81602356D01*
X120506693Y-81608844D01*
X120502028Y-81614527D01*
X120492071Y-81622699D01*
X120478209Y-81636561D01*
X120467318Y-81652860D01*
X120459816Y-81670971D01*
X120455992Y-81690198D01*
X120455991Y-81709801D01*
X120459816Y-81729028D01*
X120467318Y-81747139D01*
X120478208Y-81763438D01*
X120492071Y-81777301D01*
X120502028Y-81785473D01*
X120506693Y-81791156D01*
X120510160Y-81797644D01*
X120512296Y-81804683D01*
X120513500Y-81816910D01*
X120513500Y-82083090D01*
X120512296Y-82095317D01*
X120510160Y-82102356D01*
X120506693Y-82108844D01*
X120502028Y-82114527D01*
X120492071Y-82122699D01*
X120478209Y-82136561D01*
X120467318Y-82152860D01*
X120459816Y-82170971D01*
X120455992Y-82190198D01*
X120455991Y-82209801D01*
X120459816Y-82229028D01*
X120467318Y-82247139D01*
X120478208Y-82263438D01*
X120492071Y-82277301D01*
X120502028Y-82285473D01*
X120506693Y-82291156D01*
X120510160Y-82297644D01*
X120512296Y-82304683D01*
X120513500Y-82316910D01*
X120513500Y-82583090D01*
X120512296Y-82595317D01*
X120510160Y-82602356D01*
X120506693Y-82608844D01*
X120502028Y-82614527D01*
X120492071Y-82622699D01*
X120478209Y-82636561D01*
X120467318Y-82652860D01*
X120459816Y-82670971D01*
X120455992Y-82690198D01*
X120455991Y-82709801D01*
X120459816Y-82729028D01*
X120467318Y-82747139D01*
X120478208Y-82763438D01*
X120492071Y-82777301D01*
X120502028Y-82785473D01*
X120506693Y-82791156D01*
X120510160Y-82797644D01*
X120512296Y-82804683D01*
X120513500Y-82816910D01*
X120513500Y-83083090D01*
X120512296Y-83095317D01*
X120510160Y-83102356D01*
X120506693Y-83108844D01*
X120502028Y-83114527D01*
X120492071Y-83122699D01*
X120478209Y-83136561D01*
X120467318Y-83152860D01*
X120459816Y-83170971D01*
X120455992Y-83190198D01*
X120455991Y-83209801D01*
X120459816Y-83229028D01*
X120467318Y-83247139D01*
X120478208Y-83263438D01*
X120492071Y-83277301D01*
X120502028Y-83285473D01*
X120506693Y-83291156D01*
X120510160Y-83297644D01*
X120512296Y-83304683D01*
X120513500Y-83316910D01*
X120513500Y-83583090D01*
X120512296Y-83595317D01*
X120510160Y-83602356D01*
X120506693Y-83608844D01*
X120502028Y-83614527D01*
X120492071Y-83622699D01*
X120478209Y-83636561D01*
X120467318Y-83652860D01*
X120459816Y-83670971D01*
X120455992Y-83690198D01*
X120455991Y-83709801D01*
X120459816Y-83729028D01*
X120467318Y-83747139D01*
X120478208Y-83763438D01*
X120492071Y-83777301D01*
X120502028Y-83785473D01*
X120506693Y-83791156D01*
X120510160Y-83797644D01*
X120512296Y-83804683D01*
X120513500Y-83816910D01*
X120513500Y-84083090D01*
X120512296Y-84095317D01*
X120510160Y-84102356D01*
X120506693Y-84108844D01*
X120502028Y-84114527D01*
X120492071Y-84122699D01*
X120478209Y-84136561D01*
X120467318Y-84152860D01*
X120459816Y-84170971D01*
X120455992Y-84190198D01*
X120455991Y-84209801D01*
X120459816Y-84229028D01*
X120467318Y-84247139D01*
X120478208Y-84263438D01*
X120492071Y-84277301D01*
X120502028Y-84285473D01*
X120506693Y-84291156D01*
X120510160Y-84297644D01*
X120512296Y-84304683D01*
X120513500Y-84316910D01*
X120513500Y-84583090D01*
X120512296Y-84595317D01*
X120510160Y-84602356D01*
X120506693Y-84608844D01*
X120502028Y-84614527D01*
X120492071Y-84622699D01*
X120478209Y-84636561D01*
X120467318Y-84652860D01*
X120459816Y-84670971D01*
X120455992Y-84690198D01*
X120455991Y-84709801D01*
X120459816Y-84729028D01*
X120467318Y-84747139D01*
X120478208Y-84763438D01*
X120492071Y-84777301D01*
X120502028Y-84785473D01*
X120506693Y-84791156D01*
X120510160Y-84797644D01*
X120512296Y-84804683D01*
X120513500Y-84816910D01*
X120513500Y-85083090D01*
X120512296Y-85095317D01*
X120510160Y-85102356D01*
X120506693Y-85108844D01*
X120502028Y-85114527D01*
X120492071Y-85122699D01*
X120478209Y-85136561D01*
X120467318Y-85152860D01*
X120459816Y-85170971D01*
X120455992Y-85190198D01*
X120455991Y-85209801D01*
X120459816Y-85229028D01*
X120467318Y-85247139D01*
X120478208Y-85263438D01*
X120492071Y-85277301D01*
X120502028Y-85285473D01*
X120506693Y-85291156D01*
X120510160Y-85297644D01*
X120512296Y-85304683D01*
X120513500Y-85316910D01*
X120513500Y-85583090D01*
X120512296Y-85595317D01*
X120510160Y-85602356D01*
X120506693Y-85608844D01*
X120502028Y-85614527D01*
X120492071Y-85622699D01*
X120478209Y-85636561D01*
X120467318Y-85652860D01*
X120459816Y-85670971D01*
X120455992Y-85690198D01*
X120455991Y-85709801D01*
X120459816Y-85729028D01*
X120467318Y-85747139D01*
X120478208Y-85763438D01*
X120492071Y-85777301D01*
X120502028Y-85785473D01*
X120506693Y-85791156D01*
X120510160Y-85797644D01*
X120512296Y-85804683D01*
X120513500Y-85816910D01*
X120513500Y-86083090D01*
X120512296Y-86095317D01*
X120510160Y-86102356D01*
X120506693Y-86108844D01*
X120502028Y-86114527D01*
X120492071Y-86122699D01*
X120478209Y-86136561D01*
X120467318Y-86152860D01*
X120459816Y-86170971D01*
X120455992Y-86190198D01*
X120455991Y-86209801D01*
X120459816Y-86229028D01*
X120467318Y-86247139D01*
X120478208Y-86263438D01*
X120492071Y-86277301D01*
X120502028Y-86285473D01*
X120506693Y-86291156D01*
X120510160Y-86297644D01*
X120512296Y-86304683D01*
X120513500Y-86316910D01*
X120513500Y-86583090D01*
X120512296Y-86595317D01*
X120510160Y-86602356D01*
X120506693Y-86608844D01*
X120502028Y-86614528D01*
X120496344Y-86619193D01*
X120489856Y-86622660D01*
X120482817Y-86624796D01*
X120470590Y-86626000D01*
X119613499Y-86626000D01*
X119593990Y-86627921D01*
X119575231Y-86633612D01*
X119557943Y-86642853D01*
X119542789Y-86655289D01*
X119530353Y-86670443D01*
X119521112Y-86687731D01*
X119515421Y-86706490D01*
X119513500Y-86725999D01*
X119513500Y-87583090D01*
X119512296Y-87595317D01*
X119510160Y-87602356D01*
X119506693Y-87608844D01*
X119502028Y-87614528D01*
X119496344Y-87619193D01*
X119489856Y-87622660D01*
X119482817Y-87624796D01*
X119470590Y-87626000D01*
X119204410Y-87626000D01*
X119192183Y-87624796D01*
X119185144Y-87622660D01*
X119178656Y-87619193D01*
X119172973Y-87614528D01*
X119164801Y-87604571D01*
X119150939Y-87590709D01*
X119134640Y-87579818D01*
X119116529Y-87572316D01*
X119097302Y-87568492D01*
X119077699Y-87568491D01*
X119058472Y-87572316D01*
X119040361Y-87579818D01*
X119024062Y-87590708D01*
X119010199Y-87604571D01*
X119002027Y-87614528D01*
X118996344Y-87619193D01*
X118989856Y-87622660D01*
X118982817Y-87624796D01*
X118970590Y-87626000D01*
X118704410Y-87626000D01*
X118692183Y-87624796D01*
X118685144Y-87622660D01*
X118678656Y-87619193D01*
X118672973Y-87614528D01*
X118664801Y-87604571D01*
X118650939Y-87590709D01*
X118634640Y-87579818D01*
X118616529Y-87572316D01*
X118597302Y-87568492D01*
X118577699Y-87568491D01*
X118558472Y-87572316D01*
X118540361Y-87579818D01*
X118524062Y-87590708D01*
X118510199Y-87604571D01*
X118502027Y-87614528D01*
X118496344Y-87619193D01*
X118489856Y-87622660D01*
X118482817Y-87624796D01*
X118470590Y-87626000D01*
X118204410Y-87626000D01*
X118192183Y-87624796D01*
X118185144Y-87622660D01*
X118178656Y-87619193D01*
X118172973Y-87614528D01*
X118164801Y-87604571D01*
X118150939Y-87590709D01*
X118134640Y-87579818D01*
X118116529Y-87572316D01*
X118097302Y-87568492D01*
X118077699Y-87568491D01*
X118058472Y-87572316D01*
X118040361Y-87579818D01*
X118024062Y-87590708D01*
X118010199Y-87604571D01*
X118002027Y-87614528D01*
X117996344Y-87619193D01*
X117989856Y-87622660D01*
X117982817Y-87624796D01*
X117970590Y-87626000D01*
X117704410Y-87626000D01*
X117692183Y-87624796D01*
X117685144Y-87622660D01*
X117678656Y-87619193D01*
X117672973Y-87614528D01*
X117664801Y-87604571D01*
X117650939Y-87590709D01*
X117634640Y-87579818D01*
X117616529Y-87572316D01*
X117597302Y-87568492D01*
X117577699Y-87568491D01*
X117558472Y-87572316D01*
X117540361Y-87579818D01*
X117524062Y-87590708D01*
X117510199Y-87604571D01*
X117502027Y-87614528D01*
X117496344Y-87619193D01*
X117489856Y-87622660D01*
X117482817Y-87624796D01*
X117470590Y-87626000D01*
X117204410Y-87626000D01*
X117192183Y-87624796D01*
X117185144Y-87622660D01*
X117178656Y-87619193D01*
X117172973Y-87614528D01*
X117164801Y-87604571D01*
X117150939Y-87590709D01*
X117134640Y-87579818D01*
X117116529Y-87572316D01*
X117097302Y-87568492D01*
X117077699Y-87568491D01*
X117058472Y-87572316D01*
X117040361Y-87579818D01*
X117024062Y-87590708D01*
X117010199Y-87604571D01*
X117002027Y-87614528D01*
X116996344Y-87619193D01*
X116989856Y-87622660D01*
X116982817Y-87624796D01*
X116970590Y-87626000D01*
X116704410Y-87626000D01*
X116692183Y-87624796D01*
X116685144Y-87622660D01*
X116678656Y-87619193D01*
X116672973Y-87614528D01*
X116664801Y-87604571D01*
X116650939Y-87590709D01*
X116634640Y-87579818D01*
X116616529Y-87572316D01*
X116597302Y-87568492D01*
X116577699Y-87568491D01*
X116558472Y-87572316D01*
X116540361Y-87579818D01*
X116524062Y-87590708D01*
X116510199Y-87604571D01*
X116502027Y-87614528D01*
X116496344Y-87619193D01*
X116489856Y-87622660D01*
X116482817Y-87624796D01*
X116470590Y-87626000D01*
X116204410Y-87626000D01*
X116192183Y-87624796D01*
X116185144Y-87622660D01*
X116178656Y-87619193D01*
X116172973Y-87614528D01*
X116164801Y-87604571D01*
X116150939Y-87590709D01*
X116134640Y-87579818D01*
X116116529Y-87572316D01*
X116097302Y-87568492D01*
X116077699Y-87568491D01*
X116058472Y-87572316D01*
X116040361Y-87579818D01*
X116024062Y-87590708D01*
X116010199Y-87604571D01*
X116002027Y-87614528D01*
X115996344Y-87619193D01*
X115989856Y-87622660D01*
X115982817Y-87624796D01*
X115970590Y-87626000D01*
X115704410Y-87626000D01*
X115692183Y-87624796D01*
X115685144Y-87622660D01*
X115678656Y-87619193D01*
X115672973Y-87614528D01*
X115664801Y-87604571D01*
X115650939Y-87590709D01*
X115634640Y-87579818D01*
X115616529Y-87572316D01*
X115597302Y-87568492D01*
X115577699Y-87568491D01*
X115558472Y-87572316D01*
X115540361Y-87579818D01*
X115524062Y-87590708D01*
X115510199Y-87604571D01*
X115502027Y-87614528D01*
X115496344Y-87619193D01*
X115489856Y-87622660D01*
X115482817Y-87624796D01*
X115470590Y-87626000D01*
X115204410Y-87626000D01*
X115192183Y-87624796D01*
X115185144Y-87622660D01*
X115178656Y-87619193D01*
X115172973Y-87614528D01*
X115164801Y-87604571D01*
X115150939Y-87590709D01*
X115134640Y-87579818D01*
X115116529Y-87572316D01*
X115097302Y-87568492D01*
X115077699Y-87568491D01*
X115058472Y-87572316D01*
X115040361Y-87579818D01*
X115024062Y-87590708D01*
X115010199Y-87604571D01*
X115002027Y-87614528D01*
X114996344Y-87619193D01*
X114989856Y-87622660D01*
X114982817Y-87624796D01*
X114970590Y-87626000D01*
X114704410Y-87626000D01*
X114692183Y-87624796D01*
X114685144Y-87622660D01*
X114678656Y-87619193D01*
X114672973Y-87614528D01*
X114664801Y-87604571D01*
X114650939Y-87590709D01*
X114634640Y-87579818D01*
X114616529Y-87572316D01*
X114597302Y-87568492D01*
X114577699Y-87568491D01*
X114558472Y-87572316D01*
X114540361Y-87579818D01*
X114524062Y-87590708D01*
X114510199Y-87604571D01*
X114502027Y-87614528D01*
X114496344Y-87619193D01*
X114489856Y-87622660D01*
X114482817Y-87624796D01*
X114470590Y-87626000D01*
X114204410Y-87626000D01*
X114192183Y-87624796D01*
X114185144Y-87622660D01*
X114178656Y-87619193D01*
X114172973Y-87614528D01*
X114164801Y-87604571D01*
X114150939Y-87590709D01*
X114134640Y-87579818D01*
X114116529Y-87572316D01*
X114097302Y-87568492D01*
X114077699Y-87568491D01*
X114058472Y-87572316D01*
X114040361Y-87579818D01*
X114024062Y-87590708D01*
X114010199Y-87604571D01*
X114002027Y-87614528D01*
X113996344Y-87619193D01*
X113989856Y-87622660D01*
X113982817Y-87624796D01*
X113970590Y-87626000D01*
X113704410Y-87626000D01*
X113692183Y-87624796D01*
X113685144Y-87622660D01*
X113678656Y-87619193D01*
X113672972Y-87614528D01*
X113668307Y-87608844D01*
X113664840Y-87602356D01*
X113662704Y-87595317D01*
X113661500Y-87583090D01*
X113661500Y-86725999D01*
X113659579Y-86706490D01*
X113653888Y-86687731D01*
X113644647Y-86670443D01*
X113632211Y-86655289D01*
X113617057Y-86642853D01*
X113599769Y-86633612D01*
X113581010Y-86627921D01*
X113561501Y-86626000D01*
X112704410Y-86626000D01*
X112692183Y-86624796D01*
X112685144Y-86622660D01*
X112678656Y-86619193D01*
X112672972Y-86614528D01*
X112668307Y-86608844D01*
X112664840Y-86602356D01*
X112662704Y-86595317D01*
X112661500Y-86583090D01*
X112661500Y-86316910D01*
X112662704Y-86304683D01*
X112664840Y-86297644D01*
X112668307Y-86291156D01*
X112672972Y-86285473D01*
X112682929Y-86277301D01*
X112696791Y-86263439D01*
X112707682Y-86247140D01*
X112715184Y-86229029D01*
X112719008Y-86209802D01*
X112719009Y-86190199D01*
X112715184Y-86170972D01*
X112707682Y-86152861D01*
X112696792Y-86136562D01*
X112682929Y-86122699D01*
X112672972Y-86114527D01*
X112668307Y-86108844D01*
X112664840Y-86102356D01*
X112662704Y-86095317D01*
X112661500Y-86083090D01*
X112661500Y-85816910D01*
X112662704Y-85804683D01*
X112664840Y-85797644D01*
X112668307Y-85791156D01*
X112672972Y-85785473D01*
X112682929Y-85777301D01*
X112696791Y-85763439D01*
X112707682Y-85747140D01*
X112715184Y-85729029D01*
X112719008Y-85709802D01*
X112719009Y-85690199D01*
X112715184Y-85670972D01*
X112707682Y-85652861D01*
X112696792Y-85636562D01*
X112682929Y-85622699D01*
X112672972Y-85614527D01*
X112668307Y-85608844D01*
X112664840Y-85602356D01*
X112662704Y-85595317D01*
X112661500Y-85583090D01*
X112661500Y-85316910D01*
X112662704Y-85304683D01*
X112664840Y-85297644D01*
X112668307Y-85291156D01*
X112672972Y-85285473D01*
X112682929Y-85277301D01*
X112696791Y-85263439D01*
X112707682Y-85247140D01*
X112715184Y-85229029D01*
X112719008Y-85209802D01*
X112719009Y-85190199D01*
X112715184Y-85170972D01*
X112707682Y-85152861D01*
X112696792Y-85136562D01*
X112682929Y-85122699D01*
X112672972Y-85114527D01*
X112668307Y-85108844D01*
X112664840Y-85102356D01*
X112662704Y-85095317D01*
X112661500Y-85083090D01*
X112661500Y-84816910D01*
X112662704Y-84804683D01*
X112664840Y-84797644D01*
X112668307Y-84791156D01*
X112672972Y-84785473D01*
X112682929Y-84777301D01*
X112696791Y-84763439D01*
X112707682Y-84747140D01*
X112715184Y-84729029D01*
X112719008Y-84709802D01*
X112719009Y-84690199D01*
X112715184Y-84670972D01*
X112707682Y-84652861D01*
X112696792Y-84636562D01*
X112682929Y-84622699D01*
X112672972Y-84614527D01*
X112668307Y-84608844D01*
X112664840Y-84602356D01*
X112662704Y-84595317D01*
X112661500Y-84583090D01*
X112661500Y-84316910D01*
X112662704Y-84304683D01*
X112664840Y-84297644D01*
X112668307Y-84291156D01*
X112672972Y-84285473D01*
X112682929Y-84277301D01*
X112696791Y-84263439D01*
X112707682Y-84247140D01*
X112715184Y-84229029D01*
X112719008Y-84209802D01*
X112719009Y-84190199D01*
X112715184Y-84170972D01*
X112707682Y-84152861D01*
X112696792Y-84136562D01*
X112682929Y-84122699D01*
X112672972Y-84114527D01*
X112668307Y-84108844D01*
X112664840Y-84102356D01*
X112662704Y-84095317D01*
X112661500Y-84083090D01*
X112661500Y-83816910D01*
X112662704Y-83804683D01*
X112664840Y-83797644D01*
X112668307Y-83791156D01*
X112672972Y-83785473D01*
X112682929Y-83777301D01*
X112696791Y-83763439D01*
X112707682Y-83747140D01*
X112715184Y-83729029D01*
X112719008Y-83709802D01*
X112719009Y-83690199D01*
X112715184Y-83670972D01*
X112707682Y-83652861D01*
X112696792Y-83636562D01*
X112682929Y-83622699D01*
X112672972Y-83614527D01*
X112668307Y-83608844D01*
X112664840Y-83602356D01*
X112662704Y-83595317D01*
X112661500Y-83583090D01*
X112661500Y-83316910D01*
X112662704Y-83304683D01*
X112664840Y-83297644D01*
X112668307Y-83291156D01*
X112672972Y-83285473D01*
X112682929Y-83277301D01*
X112696791Y-83263439D01*
X112707682Y-83247140D01*
X112715184Y-83229029D01*
X112719008Y-83209802D01*
X112719009Y-83190199D01*
X112715184Y-83170972D01*
X112707682Y-83152861D01*
X112696792Y-83136562D01*
X112682929Y-83122699D01*
X112672972Y-83114527D01*
X112668307Y-83108844D01*
X112664840Y-83102356D01*
X112662704Y-83095317D01*
X112661500Y-83083090D01*
X112661500Y-82816910D01*
X112662704Y-82804683D01*
X112664840Y-82797644D01*
X112668307Y-82791156D01*
X112672972Y-82785473D01*
X112682929Y-82777301D01*
X112696791Y-82763439D01*
X112707682Y-82747140D01*
X112715184Y-82729029D01*
X112719008Y-82709802D01*
X112719009Y-82690199D01*
X112715184Y-82670972D01*
X112707682Y-82652861D01*
X112696792Y-82636562D01*
X112682929Y-82622699D01*
X112672972Y-82614527D01*
X112668307Y-82608844D01*
X112664840Y-82602356D01*
X112662704Y-82595317D01*
X112661500Y-82583090D01*
X112661500Y-82316910D01*
X112662704Y-82304683D01*
X112664840Y-82297644D01*
X112668307Y-82291156D01*
X112672972Y-82285473D01*
X112682929Y-82277301D01*
X112696791Y-82263439D01*
X112707682Y-82247140D01*
X112715184Y-82229029D01*
X112719008Y-82209802D01*
X112719009Y-82190199D01*
X112715184Y-82170972D01*
X112707682Y-82152861D01*
X112696792Y-82136562D01*
X112682929Y-82122699D01*
X112672972Y-82114527D01*
X112668307Y-82108844D01*
X112664840Y-82102356D01*
X112662704Y-82095317D01*
X112661500Y-82083090D01*
X112661500Y-81816910D01*
X112662704Y-81804683D01*
X112664840Y-81797644D01*
X112668307Y-81791156D01*
X112672972Y-81785473D01*
X112682929Y-81777301D01*
X112696791Y-81763439D01*
X112707682Y-81747140D01*
X112715184Y-81729029D01*
X112719008Y-81709802D01*
X112719009Y-81690199D01*
X112715184Y-81670972D01*
X112707682Y-81652861D01*
X112696792Y-81636562D01*
X112682929Y-81622699D01*
X112672972Y-81614527D01*
X112668307Y-81608844D01*
X112664840Y-81602356D01*
X112662704Y-81595317D01*
X112661500Y-81583090D01*
X112661500Y-81316910D01*
X112662704Y-81304683D01*
X112664840Y-81297644D01*
X112668307Y-81291156D01*
X112672972Y-81285473D01*
X112682929Y-81277301D01*
X112696791Y-81263439D01*
X112707682Y-81247140D01*
X112715184Y-81229029D01*
X112719008Y-81209802D01*
X112719009Y-81190199D01*
X112715184Y-81170972D01*
X112707682Y-81152861D01*
X112696792Y-81136562D01*
X112682929Y-81122699D01*
X112672972Y-81114527D01*
X112668307Y-81108844D01*
X112664840Y-81102356D01*
X112662704Y-81095317D01*
X112661500Y-81083090D01*
X112661500Y-80816910D01*
X112662704Y-80804683D01*
X112664840Y-80797644D01*
X112668307Y-80791156D01*
X112672972Y-80785472D01*
X112678656Y-80780807D01*
X112685144Y-80777340D01*
X112692183Y-80775204D01*
X112704410Y-80774000D01*
X113561501Y-80774000D01*
X113581010Y-80772079D01*
X113599769Y-80766388D01*
X113617057Y-80757147D01*
X113632211Y-80744711D01*
X113644647Y-80729557D01*
X113653888Y-80712269D01*
X113659579Y-80693510D01*
X113661500Y-80674001D01*
X113661500Y-79816910D01*
X113662704Y-79804683D01*
X113664840Y-79797644D01*
X113668307Y-79791156D01*
X113672972Y-79785472D01*
X113678656Y-79780807D01*
X113685144Y-79777340D01*
X113692183Y-79775204D01*
X113704410Y-79774000D01*
X113970590Y-79774000D01*
X113982817Y-79775204D01*
X113982817Y-79775204D01*
G37*
G36*
X110632140Y-85658612D02*
G01*
X110748228Y-85681703D01*
X110903100Y-85745853D01*
X111042481Y-85838985D01*
X111161015Y-85957519D01*
X111254147Y-86096900D01*
X111318297Y-86251772D01*
X111333524Y-86328324D01*
X111351000Y-86416182D01*
X111351000Y-86583818D01*
X111346022Y-86608844D01*
X111318297Y-86748228D01*
X111254147Y-86903100D01*
X111161015Y-87042481D01*
X111042481Y-87161015D01*
X110903100Y-87254147D01*
X110748228Y-87318297D01*
X110649581Y-87337919D01*
X110583818Y-87351000D01*
X110416182Y-87351000D01*
X110350419Y-87337919D01*
X110251772Y-87318297D01*
X110096900Y-87254147D01*
X109957519Y-87161015D01*
X109838985Y-87042481D01*
X109745853Y-86903100D01*
X109681703Y-86748228D01*
X109653978Y-86608844D01*
X109649000Y-86583818D01*
X109649000Y-86416182D01*
X109666476Y-86328324D01*
X109681703Y-86251772D01*
X109745853Y-86096900D01*
X109838985Y-85957519D01*
X109957519Y-85838985D01*
X110096900Y-85745853D01*
X110251772Y-85681703D01*
X110367860Y-85658612D01*
X110416182Y-85649000D01*
X110583818Y-85649000D01*
X110632140Y-85658612D01*
X110632140Y-85658612D01*
G37*
G36*
X107632140Y-85658612D02*
G01*
X107748228Y-85681703D01*
X107903100Y-85745853D01*
X108042481Y-85838985D01*
X108161015Y-85957519D01*
X108254147Y-86096900D01*
X108318297Y-86251772D01*
X108333524Y-86328324D01*
X108351000Y-86416182D01*
X108351000Y-86583818D01*
X108346022Y-86608844D01*
X108318297Y-86748228D01*
X108254147Y-86903100D01*
X108161015Y-87042481D01*
X108042481Y-87161015D01*
X107903100Y-87254147D01*
X107748228Y-87318297D01*
X107649581Y-87337919D01*
X107583818Y-87351000D01*
X107416182Y-87351000D01*
X107350419Y-87337919D01*
X107251772Y-87318297D01*
X107096900Y-87254147D01*
X106957519Y-87161015D01*
X106838985Y-87042481D01*
X106745853Y-86903100D01*
X106681703Y-86748228D01*
X106653978Y-86608844D01*
X106649000Y-86583818D01*
X106649000Y-86416182D01*
X106666476Y-86328324D01*
X106681703Y-86251772D01*
X106745853Y-86096900D01*
X106838985Y-85957519D01*
X106957519Y-85838985D01*
X107096900Y-85745853D01*
X107251772Y-85681703D01*
X107367860Y-85658612D01*
X107416182Y-85649000D01*
X107583818Y-85649000D01*
X107632140Y-85658612D01*
X107632140Y-85658612D01*
G37*
G36*
X103551000Y-80251000D02*
G01*
X102200999Y-80251000D01*
X102181490Y-80252921D01*
X102162731Y-80258612D01*
X102145443Y-80267853D01*
X102130289Y-80280289D01*
X102117853Y-80295443D01*
X102108612Y-80312731D01*
X102102921Y-80331490D01*
X102101000Y-80350999D01*
X102101000Y-80699001D01*
X102102921Y-80718510D01*
X102108612Y-80737269D01*
X102117853Y-80754557D01*
X102130289Y-80769711D01*
X102145443Y-80782147D01*
X102162731Y-80791388D01*
X102181490Y-80797079D01*
X102200999Y-80799000D01*
X103551000Y-80799000D01*
X103551000Y-84001000D01*
X102200999Y-84001000D01*
X102181490Y-84002921D01*
X102162731Y-84008612D01*
X102145443Y-84017853D01*
X102130289Y-84030289D01*
X102117853Y-84045443D01*
X102108612Y-84062731D01*
X102102921Y-84081490D01*
X102101000Y-84100999D01*
X102101000Y-84449001D01*
X102102921Y-84468510D01*
X102108612Y-84487269D01*
X102117853Y-84504557D01*
X102130289Y-84519711D01*
X102145443Y-84532147D01*
X102162731Y-84541388D01*
X102181490Y-84547079D01*
X102200999Y-84549000D01*
X103551000Y-84549000D01*
X103551000Y-86401000D01*
X102149000Y-86401000D01*
X102149000Y-85750999D01*
X102147079Y-85731490D01*
X102141388Y-85712731D01*
X102132147Y-85695443D01*
X102119711Y-85680289D01*
X102104557Y-85667853D01*
X102087269Y-85658612D01*
X102068510Y-85652921D01*
X102049001Y-85651000D01*
X99699000Y-85651000D01*
X99699000Y-83299000D01*
X102049001Y-83299000D01*
X102068510Y-83297079D01*
X102087269Y-83291388D01*
X102104557Y-83282147D01*
X102119711Y-83269711D01*
X102132147Y-83254557D01*
X102141388Y-83237269D01*
X102147079Y-83218510D01*
X102149000Y-83199001D01*
X102149000Y-81600999D01*
X102147079Y-81581490D01*
X102141388Y-81562731D01*
X102132147Y-81545443D01*
X102119711Y-81530289D01*
X102104557Y-81517853D01*
X102087269Y-81508612D01*
X102068510Y-81502921D01*
X102049001Y-81501000D01*
X99699000Y-81501000D01*
X99699000Y-79149000D01*
X102049001Y-79149000D01*
X102068510Y-79147079D01*
X102087269Y-79141388D01*
X102104557Y-79132147D01*
X102119711Y-79119711D01*
X102132147Y-79104557D01*
X102141388Y-79087269D01*
X102147079Y-79068510D01*
X102149000Y-79049001D01*
X102149000Y-78399000D01*
X103551000Y-78399000D01*
X103551000Y-80251000D01*
X103551000Y-80251000D01*
G37*
G36*
X107649581Y-83162081D02*
G01*
X107748228Y-83181703D01*
X107903100Y-83245853D01*
X108042481Y-83338985D01*
X108161015Y-83457519D01*
X108254147Y-83596900D01*
X108318297Y-83751772D01*
X108333524Y-83828324D01*
X108351000Y-83916182D01*
X108351000Y-84083818D01*
X108343942Y-84119301D01*
X108318297Y-84248228D01*
X108254147Y-84403100D01*
X108161015Y-84542481D01*
X108042481Y-84661015D01*
X107903100Y-84754147D01*
X107748228Y-84818297D01*
X107649581Y-84837919D01*
X107583818Y-84851000D01*
X107416182Y-84851000D01*
X107350419Y-84837919D01*
X107251772Y-84818297D01*
X107096900Y-84754147D01*
X106957519Y-84661015D01*
X106838985Y-84542481D01*
X106745853Y-84403100D01*
X106681703Y-84248228D01*
X106656058Y-84119301D01*
X106649000Y-84083818D01*
X106649000Y-83916182D01*
X106666476Y-83828324D01*
X106681703Y-83751772D01*
X106745853Y-83596900D01*
X106838985Y-83457519D01*
X106957519Y-83338985D01*
X107096900Y-83245853D01*
X107251772Y-83181703D01*
X107350419Y-83162081D01*
X107416182Y-83149000D01*
X107583818Y-83149000D01*
X107649581Y-83162081D01*
X107649581Y-83162081D01*
G37*
G36*
X110649581Y-83162081D02*
G01*
X110748228Y-83181703D01*
X110903100Y-83245853D01*
X111042481Y-83338985D01*
X111161015Y-83457519D01*
X111254147Y-83596900D01*
X111318297Y-83751772D01*
X111333524Y-83828324D01*
X111351000Y-83916182D01*
X111351000Y-84083818D01*
X111343942Y-84119301D01*
X111318297Y-84248228D01*
X111254147Y-84403100D01*
X111161015Y-84542481D01*
X111042481Y-84661015D01*
X110903100Y-84754147D01*
X110748228Y-84818297D01*
X110649581Y-84837919D01*
X110583818Y-84851000D01*
X110416182Y-84851000D01*
X110350419Y-84837919D01*
X110251772Y-84818297D01*
X110096900Y-84754147D01*
X109957519Y-84661015D01*
X109838985Y-84542481D01*
X109745853Y-84403100D01*
X109681703Y-84248228D01*
X109656058Y-84119301D01*
X109649000Y-84083818D01*
X109649000Y-83916182D01*
X109666476Y-83828324D01*
X109681703Y-83751772D01*
X109745853Y-83596900D01*
X109838985Y-83457519D01*
X109957519Y-83338985D01*
X110096900Y-83245853D01*
X110251772Y-83181703D01*
X110350419Y-83162081D01*
X110416182Y-83149000D01*
X110583818Y-83149000D01*
X110649581Y-83162081D01*
X110649581Y-83162081D01*
G37*
G36*
X107649581Y-80662081D02*
G01*
X107748228Y-80681703D01*
X107903100Y-80745853D01*
X108042481Y-80838985D01*
X108161015Y-80957519D01*
X108254147Y-81096900D01*
X108318297Y-81251772D01*
X108333524Y-81328324D01*
X108351000Y-81416182D01*
X108351000Y-81583818D01*
X108344049Y-81618763D01*
X108318297Y-81748228D01*
X108254147Y-81903100D01*
X108161015Y-82042481D01*
X108042481Y-82161015D01*
X107903100Y-82254147D01*
X107748228Y-82318297D01*
X107649581Y-82337919D01*
X107583818Y-82351000D01*
X107416182Y-82351000D01*
X107350419Y-82337919D01*
X107251772Y-82318297D01*
X107096900Y-82254147D01*
X106957519Y-82161015D01*
X106838985Y-82042481D01*
X106745853Y-81903100D01*
X106681703Y-81748228D01*
X106655951Y-81618763D01*
X106649000Y-81583818D01*
X106649000Y-81416182D01*
X106666476Y-81328324D01*
X106681703Y-81251772D01*
X106745853Y-81096900D01*
X106838985Y-80957519D01*
X106957519Y-80838985D01*
X107096900Y-80745853D01*
X107251772Y-80681703D01*
X107350419Y-80662081D01*
X107416182Y-80649000D01*
X107583818Y-80649000D01*
X107649581Y-80662081D01*
X107649581Y-80662081D01*
G37*
G36*
X110649581Y-80662081D02*
G01*
X110748228Y-80681703D01*
X110903100Y-80745853D01*
X111042481Y-80838985D01*
X111161015Y-80957519D01*
X111254147Y-81096900D01*
X111318297Y-81251772D01*
X111333524Y-81328324D01*
X111351000Y-81416182D01*
X111351000Y-81583818D01*
X111344049Y-81618763D01*
X111318297Y-81748228D01*
X111254147Y-81903100D01*
X111161015Y-82042481D01*
X111042481Y-82161015D01*
X110903100Y-82254147D01*
X110748228Y-82318297D01*
X110649581Y-82337919D01*
X110583818Y-82351000D01*
X110416182Y-82351000D01*
X110350419Y-82337919D01*
X110251772Y-82318297D01*
X110096900Y-82254147D01*
X109957519Y-82161015D01*
X109838985Y-82042481D01*
X109745853Y-81903100D01*
X109681703Y-81748228D01*
X109655951Y-81618763D01*
X109649000Y-81583818D01*
X109649000Y-81416182D01*
X109666476Y-81328324D01*
X109681703Y-81251772D01*
X109745853Y-81096900D01*
X109838985Y-80957519D01*
X109957519Y-80838985D01*
X110096900Y-80745853D01*
X110251772Y-80681703D01*
X110350419Y-80662081D01*
X110416182Y-80649000D01*
X110583818Y-80649000D01*
X110649581Y-80662081D01*
X110649581Y-80662081D01*
G37*
G36*
X105519552Y-80703207D02*
G01*
X105555898Y-80714232D01*
X105589401Y-80732140D01*
X105618763Y-80756237D01*
X105642860Y-80785599D01*
X105660768Y-80819102D01*
X105671793Y-80855448D01*
X105676000Y-80898158D01*
X105676000Y-81476842D01*
X105671793Y-81519552D01*
X105660768Y-81555898D01*
X105642860Y-81589401D01*
X105618763Y-81618763D01*
X105589401Y-81642860D01*
X105555898Y-81660768D01*
X105519552Y-81671793D01*
X105476842Y-81676000D01*
X104823158Y-81676000D01*
X104780448Y-81671793D01*
X104744102Y-81660768D01*
X104710599Y-81642860D01*
X104681237Y-81618763D01*
X104657140Y-81589401D01*
X104639232Y-81555898D01*
X104628207Y-81519552D01*
X104624000Y-81476842D01*
X104624000Y-80898158D01*
X104628207Y-80855448D01*
X104639232Y-80819102D01*
X104657140Y-80785599D01*
X104681237Y-80756237D01*
X104710599Y-80732140D01*
X104744102Y-80714232D01*
X104780448Y-80703207D01*
X104823158Y-80699000D01*
X105476842Y-80699000D01*
X105519552Y-80703207D01*
X105519552Y-80703207D01*
G37*
G36*
X105519552Y-79128207D02*
G01*
X105555898Y-79139232D01*
X105589401Y-79157140D01*
X105618763Y-79181237D01*
X105642860Y-79210599D01*
X105660768Y-79244102D01*
X105671793Y-79280448D01*
X105676000Y-79323158D01*
X105676000Y-79901842D01*
X105671793Y-79944552D01*
X105660768Y-79980898D01*
X105642860Y-80014401D01*
X105618763Y-80043763D01*
X105589401Y-80067860D01*
X105555898Y-80085768D01*
X105519552Y-80096793D01*
X105476842Y-80101000D01*
X104823158Y-80101000D01*
X104780448Y-80096793D01*
X104744102Y-80085768D01*
X104710599Y-80067860D01*
X104681237Y-80043763D01*
X104657140Y-80014401D01*
X104639232Y-79980898D01*
X104628207Y-79944552D01*
X104624000Y-79901842D01*
X104624000Y-79323158D01*
X104628207Y-79280448D01*
X104639232Y-79244102D01*
X104657140Y-79210599D01*
X104681237Y-79181237D01*
X104710599Y-79157140D01*
X104744102Y-79139232D01*
X104780448Y-79128207D01*
X104823158Y-79124000D01*
X105476842Y-79124000D01*
X105519552Y-79128207D01*
X105519552Y-79128207D01*
G37*
G36*
X107649581Y-78162081D02*
G01*
X107748228Y-78181703D01*
X107903100Y-78245853D01*
X108042481Y-78338985D01*
X108161015Y-78457519D01*
X108254147Y-78596900D01*
X108318297Y-78751772D01*
X108337919Y-78850419D01*
X108351000Y-78916182D01*
X108351000Y-79083818D01*
X108346378Y-79107052D01*
X108318297Y-79248228D01*
X108254147Y-79403100D01*
X108161015Y-79542481D01*
X108042481Y-79661015D01*
X107903100Y-79754147D01*
X107748228Y-79818297D01*
X107649581Y-79837919D01*
X107583818Y-79851000D01*
X107416182Y-79851000D01*
X107350419Y-79837919D01*
X107251772Y-79818297D01*
X107096900Y-79754147D01*
X106957519Y-79661015D01*
X106838985Y-79542481D01*
X106745853Y-79403100D01*
X106681703Y-79248228D01*
X106653622Y-79107052D01*
X106649000Y-79083818D01*
X106649000Y-78916182D01*
X106662081Y-78850419D01*
X106681703Y-78751772D01*
X106745853Y-78596900D01*
X106838985Y-78457519D01*
X106957519Y-78338985D01*
X107096900Y-78245853D01*
X107251772Y-78181703D01*
X107350419Y-78162081D01*
X107416182Y-78149000D01*
X107583818Y-78149000D01*
X107649581Y-78162081D01*
X107649581Y-78162081D01*
G37*
G36*
X110649581Y-78162081D02*
G01*
X110748228Y-78181703D01*
X110903100Y-78245853D01*
X111042481Y-78338985D01*
X111161015Y-78457519D01*
X111254147Y-78596900D01*
X111318297Y-78751772D01*
X111337919Y-78850419D01*
X111351000Y-78916182D01*
X111351000Y-79083818D01*
X111346378Y-79107052D01*
X111318297Y-79248228D01*
X111254147Y-79403100D01*
X111161015Y-79542481D01*
X111042481Y-79661015D01*
X110903100Y-79754147D01*
X110748228Y-79818297D01*
X110649581Y-79837919D01*
X110583818Y-79851000D01*
X110416182Y-79851000D01*
X110350419Y-79837919D01*
X110251772Y-79818297D01*
X110096900Y-79754147D01*
X109957519Y-79661015D01*
X109838985Y-79542481D01*
X109745853Y-79403100D01*
X109681703Y-79248228D01*
X109653622Y-79107052D01*
X109649000Y-79083818D01*
X109649000Y-78916182D01*
X109662081Y-78850419D01*
X109681703Y-78751772D01*
X109745853Y-78596900D01*
X109838985Y-78457519D01*
X109957519Y-78338985D01*
X110096900Y-78245853D01*
X110251772Y-78181703D01*
X110350419Y-78162081D01*
X110416182Y-78149000D01*
X110583818Y-78149000D01*
X110649581Y-78162081D01*
X110649581Y-78162081D01*
G37*
G36*
X113319552Y-78290707D02*
G01*
X113355898Y-78301732D01*
X113389401Y-78319640D01*
X113418763Y-78343737D01*
X113442860Y-78373099D01*
X113460768Y-78406602D01*
X113471793Y-78442948D01*
X113476000Y-78485658D01*
X113476000Y-79064342D01*
X113471793Y-79107052D01*
X113460768Y-79143398D01*
X113442860Y-79176901D01*
X113418763Y-79206263D01*
X113389401Y-79230360D01*
X113355898Y-79248268D01*
X113319552Y-79259293D01*
X113276842Y-79263500D01*
X112623158Y-79263500D01*
X112580448Y-79259293D01*
X112544102Y-79248268D01*
X112510599Y-79230360D01*
X112481237Y-79206263D01*
X112457140Y-79176901D01*
X112439232Y-79143398D01*
X112428207Y-79107052D01*
X112424000Y-79064342D01*
X112424000Y-78485658D01*
X112428207Y-78442948D01*
X112439232Y-78406602D01*
X112457140Y-78373099D01*
X112481237Y-78343737D01*
X112510599Y-78319640D01*
X112544102Y-78301732D01*
X112580448Y-78290707D01*
X112623158Y-78286500D01*
X113276842Y-78286500D01*
X113319552Y-78290707D01*
X113319552Y-78290707D01*
G37*
G36*
X119544552Y-77578207D02*
G01*
X119580898Y-77589232D01*
X119614401Y-77607140D01*
X119643763Y-77631237D01*
X119667860Y-77660599D01*
X119685768Y-77694102D01*
X119696793Y-77730448D01*
X119701000Y-77773158D01*
X119701000Y-78426842D01*
X119696793Y-78469552D01*
X119685768Y-78505898D01*
X119667860Y-78539401D01*
X119643763Y-78568763D01*
X119614401Y-78592860D01*
X119580898Y-78610768D01*
X119544552Y-78621793D01*
X119501842Y-78626000D01*
X118923158Y-78626000D01*
X118880448Y-78621793D01*
X118844102Y-78610768D01*
X118810599Y-78592860D01*
X118781237Y-78568763D01*
X118757140Y-78539401D01*
X118739232Y-78505898D01*
X118728207Y-78469552D01*
X118724000Y-78426842D01*
X118724000Y-77773158D01*
X118728207Y-77730448D01*
X118739232Y-77694102D01*
X118757140Y-77660599D01*
X118781237Y-77631237D01*
X118810599Y-77607140D01*
X118844102Y-77589232D01*
X118880448Y-77578207D01*
X118923158Y-77574000D01*
X119501842Y-77574000D01*
X119544552Y-77578207D01*
X119544552Y-77578207D01*
G37*
G36*
X121119552Y-77578207D02*
G01*
X121155898Y-77589232D01*
X121189401Y-77607140D01*
X121218763Y-77631237D01*
X121242860Y-77660599D01*
X121260768Y-77694102D01*
X121271793Y-77730448D01*
X121276000Y-77773158D01*
X121276000Y-78426842D01*
X121271793Y-78469552D01*
X121260768Y-78505898D01*
X121242860Y-78539401D01*
X121218763Y-78568763D01*
X121189401Y-78592860D01*
X121155898Y-78610768D01*
X121119552Y-78621793D01*
X121076842Y-78626000D01*
X120498158Y-78626000D01*
X120455448Y-78621793D01*
X120419102Y-78610768D01*
X120385599Y-78592860D01*
X120356237Y-78568763D01*
X120332140Y-78539401D01*
X120314232Y-78505898D01*
X120303207Y-78469552D01*
X120299000Y-78426842D01*
X120299000Y-77773158D01*
X120303207Y-77730448D01*
X120314232Y-77694102D01*
X120332140Y-77660599D01*
X120356237Y-77631237D01*
X120385599Y-77607140D01*
X120419102Y-77589232D01*
X120455448Y-77578207D01*
X120498158Y-77574000D01*
X121076842Y-77574000D01*
X121119552Y-77578207D01*
X121119552Y-77578207D01*
G37*
G36*
X113319552Y-76715707D02*
G01*
X113355898Y-76726732D01*
X113389401Y-76744640D01*
X113418763Y-76768737D01*
X113442860Y-76798099D01*
X113460768Y-76831602D01*
X113471793Y-76867948D01*
X113476000Y-76910658D01*
X113476000Y-77489342D01*
X113471793Y-77532052D01*
X113460768Y-77568398D01*
X113442860Y-77601901D01*
X113418763Y-77631263D01*
X113389401Y-77655360D01*
X113355898Y-77673268D01*
X113319552Y-77684293D01*
X113276842Y-77688500D01*
X112623158Y-77688500D01*
X112580448Y-77684293D01*
X112544102Y-77673268D01*
X112510599Y-77655360D01*
X112481237Y-77631263D01*
X112457140Y-77601901D01*
X112439232Y-77568398D01*
X112428207Y-77532052D01*
X112424000Y-77489342D01*
X112424000Y-76910658D01*
X112428207Y-76867948D01*
X112439232Y-76831602D01*
X112457140Y-76798099D01*
X112481237Y-76768737D01*
X112510599Y-76744640D01*
X112544102Y-76726732D01*
X112580448Y-76715707D01*
X112623158Y-76711500D01*
X113276842Y-76711500D01*
X113319552Y-76715707D01*
X113319552Y-76715707D01*
G37*
G36*
X104244552Y-76578207D02*
G01*
X104280898Y-76589232D01*
X104314401Y-76607140D01*
X104343763Y-76631237D01*
X104367860Y-76660599D01*
X104385768Y-76694102D01*
X104396793Y-76730448D01*
X104401000Y-76773158D01*
X104401000Y-77426842D01*
X104396793Y-77469552D01*
X104385768Y-77505898D01*
X104367860Y-77539401D01*
X104343763Y-77568763D01*
X104314401Y-77592860D01*
X104280898Y-77610768D01*
X104244552Y-77621793D01*
X104201842Y-77626000D01*
X103623158Y-77626000D01*
X103580448Y-77621793D01*
X103544102Y-77610768D01*
X103510599Y-77592860D01*
X103481237Y-77568763D01*
X103457140Y-77539401D01*
X103439232Y-77505898D01*
X103428207Y-77469552D01*
X103424000Y-77426842D01*
X103424000Y-76773158D01*
X103428207Y-76730448D01*
X103439232Y-76694102D01*
X103457140Y-76660599D01*
X103481237Y-76631237D01*
X103510599Y-76607140D01*
X103544102Y-76589232D01*
X103580448Y-76578207D01*
X103623158Y-76574000D01*
X104201842Y-76574000D01*
X104244552Y-76578207D01*
X104244552Y-76578207D01*
G37*
G36*
X105819552Y-76578207D02*
G01*
X105855898Y-76589232D01*
X105889401Y-76607140D01*
X105918763Y-76631237D01*
X105942860Y-76660599D01*
X105960768Y-76694102D01*
X105971793Y-76730448D01*
X105976000Y-76773158D01*
X105976000Y-77426842D01*
X105971793Y-77469552D01*
X105960768Y-77505898D01*
X105942860Y-77539401D01*
X105918763Y-77568763D01*
X105889401Y-77592860D01*
X105855898Y-77610768D01*
X105819552Y-77621793D01*
X105776842Y-77626000D01*
X105198158Y-77626000D01*
X105155448Y-77621793D01*
X105119102Y-77610768D01*
X105085599Y-77592860D01*
X105056237Y-77568763D01*
X105032140Y-77539401D01*
X105014232Y-77505898D01*
X105003207Y-77469552D01*
X104999000Y-77426842D01*
X104999000Y-76773158D01*
X105003207Y-76730448D01*
X105014232Y-76694102D01*
X105032140Y-76660599D01*
X105056237Y-76631237D01*
X105085599Y-76607140D01*
X105119102Y-76589232D01*
X105155448Y-76578207D01*
X105198158Y-76574000D01*
X105776842Y-76574000D01*
X105819552Y-76578207D01*
X105819552Y-76578207D01*
G37*
G36*
X102224432Y-76453688D02*
G01*
X102265469Y-76466136D01*
X102303288Y-76486351D01*
X102336441Y-76513559D01*
X102363649Y-76546712D01*
X102383864Y-76584531D01*
X102396312Y-76625568D01*
X102401000Y-76673167D01*
X102401000Y-77301833D01*
X102396312Y-77349432D01*
X102383864Y-77390469D01*
X102363649Y-77428288D01*
X102336441Y-77461441D01*
X102303288Y-77488649D01*
X102265469Y-77508864D01*
X102224432Y-77521312D01*
X102176833Y-77526000D01*
X101123167Y-77526000D01*
X101075568Y-77521312D01*
X101034531Y-77508864D01*
X100996712Y-77488649D01*
X100963559Y-77461441D01*
X100936351Y-77428288D01*
X100916136Y-77390469D01*
X100903688Y-77349432D01*
X100899000Y-77301833D01*
X100899000Y-76673167D01*
X100903688Y-76625568D01*
X100916136Y-76584531D01*
X100936351Y-76546712D01*
X100963559Y-76513559D01*
X100996712Y-76486351D01*
X101034531Y-76466136D01*
X101075568Y-76453688D01*
X101123167Y-76449000D01*
X102176833Y-76449000D01*
X102224432Y-76453688D01*
X102224432Y-76453688D01*
G37*
G36*
X110194552Y-75228207D02*
G01*
X110230898Y-75239232D01*
X110264401Y-75257140D01*
X110293763Y-75281237D01*
X110317860Y-75310599D01*
X110335768Y-75344102D01*
X110346793Y-75380448D01*
X110351000Y-75423158D01*
X110351000Y-76076842D01*
X110346793Y-76119552D01*
X110335768Y-76155898D01*
X110317860Y-76189401D01*
X110293763Y-76218763D01*
X110264401Y-76242860D01*
X110230898Y-76260768D01*
X110194552Y-76271793D01*
X110151842Y-76276000D01*
X109573158Y-76276000D01*
X109530448Y-76271793D01*
X109494102Y-76260768D01*
X109460599Y-76242860D01*
X109431237Y-76218763D01*
X109407140Y-76189401D01*
X109389232Y-76155898D01*
X109378207Y-76119552D01*
X109374000Y-76076842D01*
X109374000Y-75423158D01*
X109378207Y-75380448D01*
X109389232Y-75344102D01*
X109407140Y-75310599D01*
X109431237Y-75281237D01*
X109460599Y-75257140D01*
X109494102Y-75239232D01*
X109530448Y-75228207D01*
X109573158Y-75224000D01*
X110151842Y-75224000D01*
X110194552Y-75228207D01*
X110194552Y-75228207D01*
G37*
G36*
X113244552Y-75228207D02*
G01*
X113280898Y-75239232D01*
X113314401Y-75257140D01*
X113343763Y-75281237D01*
X113367860Y-75310599D01*
X113385768Y-75344102D01*
X113396793Y-75380448D01*
X113401000Y-75423158D01*
X113401000Y-76076842D01*
X113396793Y-76119552D01*
X113385768Y-76155898D01*
X113367860Y-76189401D01*
X113343763Y-76218763D01*
X113314401Y-76242860D01*
X113280898Y-76260768D01*
X113244552Y-76271793D01*
X113201842Y-76276000D01*
X112623158Y-76276000D01*
X112580448Y-76271793D01*
X112544102Y-76260768D01*
X112510599Y-76242860D01*
X112481237Y-76218763D01*
X112457140Y-76189401D01*
X112439232Y-76155898D01*
X112428207Y-76119552D01*
X112424000Y-76076842D01*
X112424000Y-75423158D01*
X112428207Y-75380448D01*
X112439232Y-75344102D01*
X112457140Y-75310599D01*
X112481237Y-75281237D01*
X112510599Y-75257140D01*
X112544102Y-75239232D01*
X112580448Y-75228207D01*
X112623158Y-75224000D01*
X113201842Y-75224000D01*
X113244552Y-75228207D01*
X113244552Y-75228207D01*
G37*
G36*
X114819552Y-75228207D02*
G01*
X114855898Y-75239232D01*
X114889401Y-75257140D01*
X114918763Y-75281237D01*
X114942860Y-75310599D01*
X114960768Y-75344102D01*
X114971793Y-75380448D01*
X114976000Y-75423158D01*
X114976000Y-76076842D01*
X114971793Y-76119552D01*
X114960768Y-76155898D01*
X114942860Y-76189401D01*
X114918763Y-76218763D01*
X114889401Y-76242860D01*
X114855898Y-76260768D01*
X114819552Y-76271793D01*
X114776842Y-76276000D01*
X114198158Y-76276000D01*
X114155448Y-76271793D01*
X114119102Y-76260768D01*
X114085599Y-76242860D01*
X114056237Y-76218763D01*
X114032140Y-76189401D01*
X114014232Y-76155898D01*
X114003207Y-76119552D01*
X113999000Y-76076842D01*
X113999000Y-75423158D01*
X114003207Y-75380448D01*
X114014232Y-75344102D01*
X114032140Y-75310599D01*
X114056237Y-75281237D01*
X114085599Y-75257140D01*
X114119102Y-75239232D01*
X114155448Y-75228207D01*
X114198158Y-75224000D01*
X114776842Y-75224000D01*
X114819552Y-75228207D01*
X114819552Y-75228207D01*
G37*
G36*
X111769552Y-75228207D02*
G01*
X111805898Y-75239232D01*
X111839401Y-75257140D01*
X111868763Y-75281237D01*
X111892860Y-75310599D01*
X111910768Y-75344102D01*
X111921793Y-75380448D01*
X111926000Y-75423158D01*
X111926000Y-76076842D01*
X111921793Y-76119552D01*
X111910768Y-76155898D01*
X111892860Y-76189401D01*
X111868763Y-76218763D01*
X111839401Y-76242860D01*
X111805898Y-76260768D01*
X111769552Y-76271793D01*
X111726842Y-76276000D01*
X111148158Y-76276000D01*
X111105448Y-76271793D01*
X111069102Y-76260768D01*
X111035599Y-76242860D01*
X111006237Y-76218763D01*
X110982140Y-76189401D01*
X110964232Y-76155898D01*
X110953207Y-76119552D01*
X110949000Y-76076842D01*
X110949000Y-75423158D01*
X110953207Y-75380448D01*
X110964232Y-75344102D01*
X110982140Y-75310599D01*
X111006237Y-75281237D01*
X111035599Y-75257140D01*
X111069102Y-75239232D01*
X111105448Y-75228207D01*
X111148158Y-75224000D01*
X111726842Y-75224000D01*
X111769552Y-75228207D01*
X111769552Y-75228207D01*
G37*
G36*
X102224432Y-74578688D02*
G01*
X102265469Y-74591136D01*
X102303288Y-74611351D01*
X102336441Y-74638559D01*
X102363649Y-74671712D01*
X102383864Y-74709531D01*
X102396312Y-74750568D01*
X102401000Y-74798167D01*
X102401000Y-75426833D01*
X102396312Y-75474432D01*
X102383864Y-75515469D01*
X102363649Y-75553288D01*
X102336441Y-75586441D01*
X102303288Y-75613649D01*
X102265469Y-75633864D01*
X102224432Y-75646312D01*
X102176833Y-75651000D01*
X101123167Y-75651000D01*
X101075568Y-75646312D01*
X101034531Y-75633864D01*
X100996712Y-75613649D01*
X100963559Y-75586441D01*
X100936351Y-75553288D01*
X100916136Y-75515469D01*
X100903688Y-75474432D01*
X100899000Y-75426833D01*
X100899000Y-74798167D01*
X100903688Y-74750568D01*
X100916136Y-74709531D01*
X100936351Y-74671712D01*
X100963559Y-74638559D01*
X100996712Y-74611351D01*
X101034531Y-74591136D01*
X101075568Y-74578688D01*
X101123167Y-74574000D01*
X102176833Y-74574000D01*
X102224432Y-74578688D01*
X102224432Y-74578688D01*
G37*
G36*
X106481579Y-71912447D02*
G01*
X106782042Y-72036903D01*
X107052451Y-72217585D01*
X107282415Y-72447549D01*
X107463097Y-72717958D01*
X107587553Y-73018421D01*
X107651000Y-73337391D01*
X107651000Y-73662609D01*
X107587553Y-73981579D01*
X107463097Y-74282042D01*
X107282415Y-74552451D01*
X107052451Y-74782415D01*
X106782042Y-74963097D01*
X106481579Y-75087553D01*
X106162609Y-75151000D01*
X105837391Y-75151000D01*
X105518421Y-75087553D01*
X105217958Y-74963097D01*
X104947549Y-74782415D01*
X104717585Y-74552451D01*
X104536903Y-74282042D01*
X104412447Y-73981579D01*
X104349000Y-73662609D01*
X104349000Y-73337391D01*
X104412447Y-73018421D01*
X104536903Y-72717958D01*
X104717585Y-72447549D01*
X104947549Y-72217585D01*
X105217958Y-72036903D01*
X105518421Y-71912447D01*
X105837391Y-71849000D01*
X106162609Y-71849000D01*
X106481579Y-71912447D01*
X106481579Y-71912447D01*
G37*
G36*
X113207052Y-73678207D02*
G01*
X113243398Y-73689232D01*
X113276901Y-73707140D01*
X113306263Y-73731237D01*
X113330360Y-73760599D01*
X113348268Y-73794102D01*
X113359293Y-73830448D01*
X113363500Y-73873158D01*
X113363500Y-74526842D01*
X113359293Y-74569552D01*
X113348268Y-74605898D01*
X113330360Y-74639401D01*
X113306263Y-74668763D01*
X113276901Y-74692860D01*
X113243398Y-74710768D01*
X113207052Y-74721793D01*
X113164342Y-74726000D01*
X112585658Y-74726000D01*
X112542948Y-74721793D01*
X112506602Y-74710768D01*
X112473099Y-74692860D01*
X112443737Y-74668763D01*
X112419640Y-74639401D01*
X112401732Y-74605898D01*
X112390707Y-74569552D01*
X112386500Y-74526842D01*
X112386500Y-73873158D01*
X112390707Y-73830448D01*
X112401732Y-73794102D01*
X112419640Y-73760599D01*
X112443737Y-73731237D01*
X112473099Y-73707140D01*
X112506602Y-73689232D01*
X112542948Y-73678207D01*
X112585658Y-73674000D01*
X113164342Y-73674000D01*
X113207052Y-73678207D01*
X113207052Y-73678207D01*
G37*
G36*
X114782052Y-73678207D02*
G01*
X114818398Y-73689232D01*
X114851901Y-73707140D01*
X114881263Y-73731237D01*
X114905360Y-73760599D01*
X114923268Y-73794102D01*
X114934293Y-73830448D01*
X114938500Y-73873158D01*
X114938500Y-74526842D01*
X114934293Y-74569552D01*
X114923268Y-74605898D01*
X114905360Y-74639401D01*
X114881263Y-74668763D01*
X114851901Y-74692860D01*
X114818398Y-74710768D01*
X114782052Y-74721793D01*
X114739342Y-74726000D01*
X114160658Y-74726000D01*
X114117948Y-74721793D01*
X114081602Y-74710768D01*
X114048099Y-74692860D01*
X114018737Y-74668763D01*
X113994640Y-74639401D01*
X113976732Y-74605898D01*
X113965707Y-74569552D01*
X113961500Y-74526842D01*
X113961500Y-73873158D01*
X113965707Y-73830448D01*
X113976732Y-73794102D01*
X113994640Y-73760599D01*
X114018737Y-73731237D01*
X114048099Y-73707140D01*
X114081602Y-73689232D01*
X114117948Y-73678207D01*
X114160658Y-73674000D01*
X114739342Y-73674000D01*
X114782052Y-73678207D01*
X114782052Y-73678207D01*
G37*
G36*
X111769552Y-73678207D02*
G01*
X111805898Y-73689232D01*
X111839401Y-73707140D01*
X111868763Y-73731237D01*
X111892860Y-73760599D01*
X111910768Y-73794102D01*
X111921793Y-73830448D01*
X111926000Y-73873158D01*
X111926000Y-74526842D01*
X111921793Y-74569552D01*
X111910768Y-74605898D01*
X111892860Y-74639401D01*
X111868763Y-74668763D01*
X111839401Y-74692860D01*
X111805898Y-74710768D01*
X111769552Y-74721793D01*
X111726842Y-74726000D01*
X111148158Y-74726000D01*
X111105448Y-74721793D01*
X111069102Y-74710768D01*
X111035599Y-74692860D01*
X111006237Y-74668763D01*
X110982140Y-74639401D01*
X110964232Y-74605898D01*
X110953207Y-74569552D01*
X110949000Y-74526842D01*
X110949000Y-73873158D01*
X110953207Y-73830448D01*
X110964232Y-73794102D01*
X110982140Y-73760599D01*
X111006237Y-73731237D01*
X111035599Y-73707140D01*
X111069102Y-73689232D01*
X111105448Y-73678207D01*
X111148158Y-73674000D01*
X111726842Y-73674000D01*
X111769552Y-73678207D01*
X111769552Y-73678207D01*
G37*
G36*
X110194552Y-73678207D02*
G01*
X110230898Y-73689232D01*
X110264401Y-73707140D01*
X110293763Y-73731237D01*
X110317860Y-73760599D01*
X110335768Y-73794102D01*
X110346793Y-73830448D01*
X110351000Y-73873158D01*
X110351000Y-74526842D01*
X110346793Y-74569552D01*
X110335768Y-74605898D01*
X110317860Y-74639401D01*
X110293763Y-74668763D01*
X110264401Y-74692860D01*
X110230898Y-74710768D01*
X110194552Y-74721793D01*
X110151842Y-74726000D01*
X109573158Y-74726000D01*
X109530448Y-74721793D01*
X109494102Y-74710768D01*
X109460599Y-74692860D01*
X109431237Y-74668763D01*
X109407140Y-74639401D01*
X109389232Y-74605898D01*
X109378207Y-74569552D01*
X109374000Y-74526842D01*
X109374000Y-73873158D01*
X109378207Y-73830448D01*
X109389232Y-73794102D01*
X109407140Y-73760599D01*
X109431237Y-73731237D01*
X109460599Y-73707140D01*
X109494102Y-73689232D01*
X109530448Y-73678207D01*
X109573158Y-73674000D01*
X110151842Y-73674000D01*
X110194552Y-73678207D01*
X110194552Y-73678207D01*
G37*
G36*
X114819552Y-72128207D02*
G01*
X114855898Y-72139232D01*
X114889401Y-72157140D01*
X114918763Y-72181237D01*
X114942860Y-72210599D01*
X114960768Y-72244102D01*
X114971793Y-72280448D01*
X114976000Y-72323158D01*
X114976000Y-72976842D01*
X114971793Y-73019552D01*
X114960768Y-73055898D01*
X114942860Y-73089401D01*
X114918763Y-73118763D01*
X114889401Y-73142860D01*
X114855898Y-73160768D01*
X114819552Y-73171793D01*
X114776842Y-73176000D01*
X114198158Y-73176000D01*
X114155448Y-73171793D01*
X114119102Y-73160768D01*
X114085599Y-73142860D01*
X114056237Y-73118763D01*
X114032140Y-73089401D01*
X114014232Y-73055898D01*
X114003207Y-73019552D01*
X113999000Y-72976842D01*
X113999000Y-72323158D01*
X114003207Y-72280448D01*
X114014232Y-72244102D01*
X114032140Y-72210599D01*
X114056237Y-72181237D01*
X114085599Y-72157140D01*
X114119102Y-72139232D01*
X114155448Y-72128207D01*
X114198158Y-72124000D01*
X114776842Y-72124000D01*
X114819552Y-72128207D01*
X114819552Y-72128207D01*
G37*
G36*
X113244552Y-72128207D02*
G01*
X113280898Y-72139232D01*
X113314401Y-72157140D01*
X113343763Y-72181237D01*
X113367860Y-72210599D01*
X113385768Y-72244102D01*
X113396793Y-72280448D01*
X113401000Y-72323158D01*
X113401000Y-72976842D01*
X113396793Y-73019552D01*
X113385768Y-73055898D01*
X113367860Y-73089401D01*
X113343763Y-73118763D01*
X113314401Y-73142860D01*
X113280898Y-73160768D01*
X113244552Y-73171793D01*
X113201842Y-73176000D01*
X112623158Y-73176000D01*
X112580448Y-73171793D01*
X112544102Y-73160768D01*
X112510599Y-73142860D01*
X112481237Y-73118763D01*
X112457140Y-73089401D01*
X112439232Y-73055898D01*
X112428207Y-73019552D01*
X112424000Y-72976842D01*
X112424000Y-72323158D01*
X112428207Y-72280448D01*
X112439232Y-72244102D01*
X112457140Y-72210599D01*
X112481237Y-72181237D01*
X112510599Y-72157140D01*
X112544102Y-72139232D01*
X112580448Y-72128207D01*
X112623158Y-72124000D01*
X113201842Y-72124000D01*
X113244552Y-72128207D01*
X113244552Y-72128207D01*
G37*
G36*
X110244552Y-72128207D02*
G01*
X110280898Y-72139232D01*
X110314401Y-72157140D01*
X110343763Y-72181237D01*
X110367860Y-72210599D01*
X110385768Y-72244102D01*
X110396793Y-72280448D01*
X110401000Y-72323158D01*
X110401000Y-72976842D01*
X110396793Y-73019552D01*
X110385768Y-73055898D01*
X110367860Y-73089401D01*
X110343763Y-73118763D01*
X110314401Y-73142860D01*
X110280898Y-73160768D01*
X110244552Y-73171793D01*
X110201842Y-73176000D01*
X109623158Y-73176000D01*
X109580448Y-73171793D01*
X109544102Y-73160768D01*
X109510599Y-73142860D01*
X109481237Y-73118763D01*
X109457140Y-73089401D01*
X109439232Y-73055898D01*
X109428207Y-73019552D01*
X109424000Y-72976842D01*
X109424000Y-72323158D01*
X109428207Y-72280448D01*
X109439232Y-72244102D01*
X109457140Y-72210599D01*
X109481237Y-72181237D01*
X109510599Y-72157140D01*
X109544102Y-72139232D01*
X109580448Y-72128207D01*
X109623158Y-72124000D01*
X110201842Y-72124000D01*
X110244552Y-72128207D01*
X110244552Y-72128207D01*
G37*
G36*
X111819552Y-72128207D02*
G01*
X111855898Y-72139232D01*
X111889401Y-72157140D01*
X111918763Y-72181237D01*
X111942860Y-72210599D01*
X111960768Y-72244102D01*
X111971793Y-72280448D01*
X111976000Y-72323158D01*
X111976000Y-72976842D01*
X111971793Y-73019552D01*
X111960768Y-73055898D01*
X111942860Y-73089401D01*
X111918763Y-73118763D01*
X111889401Y-73142860D01*
X111855898Y-73160768D01*
X111819552Y-73171793D01*
X111776842Y-73176000D01*
X111198158Y-73176000D01*
X111155448Y-73171793D01*
X111119102Y-73160768D01*
X111085599Y-73142860D01*
X111056237Y-73118763D01*
X111032140Y-73089401D01*
X111014232Y-73055898D01*
X111003207Y-73019552D01*
X110999000Y-72976842D01*
X110999000Y-72323158D01*
X111003207Y-72280448D01*
X111014232Y-72244102D01*
X111032140Y-72210599D01*
X111056237Y-72181237D01*
X111085599Y-72157140D01*
X111119102Y-72139232D01*
X111155448Y-72128207D01*
X111198158Y-72124000D01*
X111776842Y-72124000D01*
X111819552Y-72128207D01*
X111819552Y-72128207D01*
G37*
M02*
