G04 #@! TF.GenerationSoftware,KiCad,Pcbnew,(5.1.4)-1*
G04 #@! TF.CreationDate,2019-12-23T16:34:00-07:00*
G04 #@! TF.ProjectId,CruiseController,43727569-7365-4436-9f6e-74726f6c6c65,rev?*
G04 #@! TF.SameCoordinates,Original*
G04 #@! TF.FileFunction,Soldermask,Top*
G04 #@! TF.FilePolarity,Negative*
%FSLAX46Y46*%
G04 Gerber Fmt 4.6, Leading zero omitted, Abs format (unit mm)*
G04 Created by KiCad (PCBNEW (5.1.4)-1) date 2019-12-23 16:34:00*
%MOMM*%
%LPD*%
G04 APERTURE LIST*
%ADD10C,0.100000*%
G04 APERTURE END LIST*
D10*
G36*
X117880476Y-105609261D02*
G01*
X117983645Y-105629782D01*
X118069036Y-105665153D01*
X118129416Y-105690163D01*
X118260608Y-105777822D01*
X118372178Y-105889392D01*
X118459837Y-106020584D01*
X118484847Y-106080964D01*
X118520218Y-106166355D01*
X118551000Y-106321109D01*
X118551000Y-106478891D01*
X118520218Y-106633645D01*
X118484847Y-106719036D01*
X118459837Y-106779416D01*
X118372178Y-106910608D01*
X118260608Y-107022178D01*
X118129416Y-107109837D01*
X118069036Y-107134847D01*
X117983645Y-107170218D01*
X117880476Y-107190739D01*
X117828892Y-107201000D01*
X117671108Y-107201000D01*
X117619524Y-107190739D01*
X117516355Y-107170218D01*
X117430964Y-107134847D01*
X117370584Y-107109837D01*
X117239392Y-107022178D01*
X117127822Y-106910608D01*
X117040163Y-106779416D01*
X117015153Y-106719036D01*
X116979782Y-106633645D01*
X116949000Y-106478891D01*
X116949000Y-106321109D01*
X116979782Y-106166355D01*
X117015153Y-106080964D01*
X117040163Y-106020584D01*
X117127822Y-105889392D01*
X117239392Y-105777822D01*
X117370584Y-105690163D01*
X117430964Y-105665153D01*
X117516355Y-105629782D01*
X117619524Y-105609261D01*
X117671108Y-105599000D01*
X117828892Y-105599000D01*
X117880476Y-105609261D01*
X117880476Y-105609261D01*
G37*
G36*
X106481579Y-102912447D02*
G01*
X106782042Y-103036903D01*
X107052451Y-103217585D01*
X107282415Y-103447549D01*
X107463097Y-103717958D01*
X107587553Y-104018421D01*
X107651000Y-104337391D01*
X107651000Y-104662609D01*
X107587553Y-104981579D01*
X107463097Y-105282042D01*
X107282415Y-105552451D01*
X107052451Y-105782415D01*
X106782042Y-105963097D01*
X106481579Y-106087553D01*
X106162609Y-106151000D01*
X105837391Y-106151000D01*
X105518421Y-106087553D01*
X105217958Y-105963097D01*
X104947549Y-105782415D01*
X104717585Y-105552451D01*
X104536903Y-105282042D01*
X104412447Y-104981579D01*
X104349000Y-104662609D01*
X104349000Y-104337391D01*
X104412447Y-104018421D01*
X104536903Y-103717958D01*
X104717585Y-103447549D01*
X104947549Y-103217585D01*
X105217958Y-103036903D01*
X105518421Y-102912447D01*
X105837391Y-102849000D01*
X106162609Y-102849000D01*
X106481579Y-102912447D01*
X106481579Y-102912447D01*
G37*
G36*
X116201000Y-104101000D02*
G01*
X114899000Y-104101000D01*
X114899000Y-103099000D01*
X116201000Y-103099000D01*
X116201000Y-104101000D01*
X116201000Y-104101000D01*
G37*
G36*
X114001000Y-104051000D02*
G01*
X112699000Y-104051000D01*
X112699000Y-103049000D01*
X114001000Y-103049000D01*
X114001000Y-104051000D01*
X114001000Y-104051000D01*
G37*
G36*
X118556554Y-102528518D02*
G01*
X118595931Y-102540463D01*
X118632226Y-102559863D01*
X118664033Y-102585967D01*
X118690137Y-102617774D01*
X118709537Y-102654069D01*
X118721482Y-102693446D01*
X118726000Y-102739317D01*
X118726000Y-103660683D01*
X118721482Y-103706554D01*
X118709537Y-103745931D01*
X118690137Y-103782226D01*
X118664033Y-103814033D01*
X118632226Y-103840137D01*
X118595931Y-103859537D01*
X118556554Y-103871482D01*
X118510683Y-103876000D01*
X117089317Y-103876000D01*
X117043446Y-103871482D01*
X117004069Y-103859537D01*
X116967774Y-103840137D01*
X116935967Y-103814033D01*
X116909863Y-103782226D01*
X116890463Y-103745931D01*
X116878518Y-103706554D01*
X116874000Y-103660683D01*
X116874000Y-102739317D01*
X116878518Y-102693446D01*
X116890463Y-102654069D01*
X116909863Y-102617774D01*
X116935967Y-102585967D01*
X116967774Y-102559863D01*
X117004069Y-102540463D01*
X117043446Y-102528518D01*
X117089317Y-102524000D01*
X118510683Y-102524000D01*
X118556554Y-102528518D01*
X118556554Y-102528518D01*
G37*
G36*
X118556554Y-99728518D02*
G01*
X118595931Y-99740463D01*
X118632226Y-99759863D01*
X118664033Y-99785967D01*
X118690137Y-99817774D01*
X118709537Y-99854069D01*
X118721482Y-99893446D01*
X118726000Y-99939317D01*
X118726000Y-100860683D01*
X118721482Y-100906554D01*
X118709537Y-100945931D01*
X118690137Y-100982226D01*
X118664033Y-101014033D01*
X118632226Y-101040137D01*
X118595931Y-101059537D01*
X118556554Y-101071482D01*
X118510683Y-101076000D01*
X117089317Y-101076000D01*
X117043446Y-101071482D01*
X117004069Y-101059537D01*
X116967774Y-101040137D01*
X116935967Y-101014033D01*
X116909863Y-100982226D01*
X116890463Y-100945931D01*
X116878518Y-100906554D01*
X116874000Y-100860683D01*
X116874000Y-99939317D01*
X116878518Y-99893446D01*
X116890463Y-99854069D01*
X116909863Y-99817774D01*
X116935967Y-99785967D01*
X116967774Y-99759863D01*
X117004069Y-99740463D01*
X117043446Y-99728518D01*
X117089317Y-99724000D01*
X118510683Y-99724000D01*
X118556554Y-99728518D01*
X118556554Y-99728518D01*
G37*
G36*
X116201000Y-100801000D02*
G01*
X114899000Y-100801000D01*
X114899000Y-99799000D01*
X116201000Y-99799000D01*
X116201000Y-100801000D01*
X116201000Y-100801000D01*
G37*
G36*
X114001000Y-100751000D02*
G01*
X112699000Y-100751000D01*
X112699000Y-99749000D01*
X114001000Y-99749000D01*
X114001000Y-100751000D01*
X114001000Y-100751000D01*
G37*
G36*
X107649581Y-98162081D02*
G01*
X107748228Y-98181703D01*
X107903100Y-98245853D01*
X108042481Y-98338985D01*
X108161015Y-98457519D01*
X108254147Y-98596900D01*
X108318297Y-98751772D01*
X108351000Y-98916184D01*
X108351000Y-99083816D01*
X108318297Y-99248228D01*
X108254147Y-99403100D01*
X108161015Y-99542481D01*
X108042481Y-99661015D01*
X107903100Y-99754147D01*
X107748228Y-99818297D01*
X107649581Y-99837919D01*
X107583818Y-99851000D01*
X107416182Y-99851000D01*
X107350419Y-99837919D01*
X107251772Y-99818297D01*
X107096900Y-99754147D01*
X106957519Y-99661015D01*
X106838985Y-99542481D01*
X106745853Y-99403100D01*
X106681703Y-99248228D01*
X106649000Y-99083816D01*
X106649000Y-98916184D01*
X106681703Y-98751772D01*
X106745853Y-98596900D01*
X106838985Y-98457519D01*
X106957519Y-98338985D01*
X107096900Y-98245853D01*
X107251772Y-98181703D01*
X107350419Y-98162081D01*
X107416182Y-98149000D01*
X107583818Y-98149000D01*
X107649581Y-98162081D01*
X107649581Y-98162081D01*
G37*
G36*
X110649581Y-98162081D02*
G01*
X110748228Y-98181703D01*
X110903100Y-98245853D01*
X111042481Y-98338985D01*
X111161015Y-98457519D01*
X111254147Y-98596900D01*
X111318297Y-98751772D01*
X111351000Y-98916184D01*
X111351000Y-99083816D01*
X111318297Y-99248228D01*
X111254147Y-99403100D01*
X111161015Y-99542481D01*
X111042481Y-99661015D01*
X110903100Y-99754147D01*
X110748228Y-99818297D01*
X110649581Y-99837919D01*
X110583818Y-99851000D01*
X110416182Y-99851000D01*
X110350419Y-99837919D01*
X110251772Y-99818297D01*
X110096900Y-99754147D01*
X109957519Y-99661015D01*
X109838985Y-99542481D01*
X109745853Y-99403100D01*
X109681703Y-99248228D01*
X109649000Y-99083816D01*
X109649000Y-98916184D01*
X109681703Y-98751772D01*
X109745853Y-98596900D01*
X109838985Y-98457519D01*
X109957519Y-98338985D01*
X110096900Y-98245853D01*
X110251772Y-98181703D01*
X110350419Y-98162081D01*
X110416182Y-98149000D01*
X110583818Y-98149000D01*
X110649581Y-98162081D01*
X110649581Y-98162081D01*
G37*
G36*
X110649581Y-95662081D02*
G01*
X110748228Y-95681703D01*
X110903100Y-95745853D01*
X111042481Y-95838985D01*
X111161015Y-95957519D01*
X111254147Y-96096900D01*
X111318297Y-96251772D01*
X111351000Y-96416184D01*
X111351000Y-96583816D01*
X111318297Y-96748228D01*
X111254147Y-96903100D01*
X111161015Y-97042481D01*
X111042481Y-97161015D01*
X110903100Y-97254147D01*
X110748228Y-97318297D01*
X110649581Y-97337919D01*
X110583818Y-97351000D01*
X110416182Y-97351000D01*
X110350419Y-97337919D01*
X110251772Y-97318297D01*
X110096900Y-97254147D01*
X109957519Y-97161015D01*
X109838985Y-97042481D01*
X109745853Y-96903100D01*
X109681703Y-96748228D01*
X109649000Y-96583816D01*
X109649000Y-96416184D01*
X109681703Y-96251772D01*
X109745853Y-96096900D01*
X109838985Y-95957519D01*
X109957519Y-95838985D01*
X110096900Y-95745853D01*
X110251772Y-95681703D01*
X110350419Y-95662081D01*
X110416182Y-95649000D01*
X110583818Y-95649000D01*
X110649581Y-95662081D01*
X110649581Y-95662081D01*
G37*
G36*
X107649581Y-95662081D02*
G01*
X107748228Y-95681703D01*
X107903100Y-95745853D01*
X108042481Y-95838985D01*
X108161015Y-95957519D01*
X108254147Y-96096900D01*
X108318297Y-96251772D01*
X108351000Y-96416184D01*
X108351000Y-96583816D01*
X108318297Y-96748228D01*
X108254147Y-96903100D01*
X108161015Y-97042481D01*
X108042481Y-97161015D01*
X107903100Y-97254147D01*
X107748228Y-97318297D01*
X107649581Y-97337919D01*
X107583818Y-97351000D01*
X107416182Y-97351000D01*
X107350419Y-97337919D01*
X107251772Y-97318297D01*
X107096900Y-97254147D01*
X106957519Y-97161015D01*
X106838985Y-97042481D01*
X106745853Y-96903100D01*
X106681703Y-96748228D01*
X106649000Y-96583816D01*
X106649000Y-96416184D01*
X106681703Y-96251772D01*
X106745853Y-96096900D01*
X106838985Y-95957519D01*
X106957519Y-95838985D01*
X107096900Y-95745853D01*
X107251772Y-95681703D01*
X107350419Y-95662081D01*
X107416182Y-95649000D01*
X107583818Y-95649000D01*
X107649581Y-95662081D01*
X107649581Y-95662081D01*
G37*
G36*
X118169552Y-95303207D02*
G01*
X118205898Y-95314232D01*
X118239401Y-95332140D01*
X118268763Y-95356237D01*
X118292860Y-95385599D01*
X118310768Y-95419102D01*
X118321793Y-95455448D01*
X118326000Y-95498158D01*
X118326000Y-96076842D01*
X118321793Y-96119552D01*
X118310768Y-96155898D01*
X118292860Y-96189401D01*
X118268763Y-96218763D01*
X118239401Y-96242860D01*
X118205898Y-96260768D01*
X118169552Y-96271793D01*
X118126842Y-96276000D01*
X117473158Y-96276000D01*
X117430448Y-96271793D01*
X117394102Y-96260768D01*
X117360599Y-96242860D01*
X117331237Y-96218763D01*
X117307140Y-96189401D01*
X117289232Y-96155898D01*
X117278207Y-96119552D01*
X117274000Y-96076842D01*
X117274000Y-95498158D01*
X117278207Y-95455448D01*
X117289232Y-95419102D01*
X117307140Y-95385599D01*
X117331237Y-95356237D01*
X117360599Y-95332140D01*
X117394102Y-95314232D01*
X117430448Y-95303207D01*
X117473158Y-95299000D01*
X118126842Y-95299000D01*
X118169552Y-95303207D01*
X118169552Y-95303207D01*
G37*
G36*
X114419552Y-94578207D02*
G01*
X114455898Y-94589232D01*
X114489401Y-94607140D01*
X114518763Y-94631237D01*
X114542860Y-94660599D01*
X114560768Y-94694102D01*
X114571793Y-94730448D01*
X114576000Y-94773158D01*
X114576000Y-95426842D01*
X114571793Y-95469552D01*
X114560768Y-95505898D01*
X114542860Y-95539401D01*
X114518763Y-95568763D01*
X114489401Y-95592860D01*
X114455898Y-95610768D01*
X114419552Y-95621793D01*
X114376842Y-95626000D01*
X113798158Y-95626000D01*
X113755448Y-95621793D01*
X113719102Y-95610768D01*
X113685599Y-95592860D01*
X113656237Y-95568763D01*
X113632140Y-95539401D01*
X113614232Y-95505898D01*
X113603207Y-95469552D01*
X113599000Y-95426842D01*
X113599000Y-94773158D01*
X113603207Y-94730448D01*
X113614232Y-94694102D01*
X113632140Y-94660599D01*
X113656237Y-94631237D01*
X113685599Y-94607140D01*
X113719102Y-94589232D01*
X113755448Y-94578207D01*
X113798158Y-94574000D01*
X114376842Y-94574000D01*
X114419552Y-94578207D01*
X114419552Y-94578207D01*
G37*
G36*
X112844552Y-94578207D02*
G01*
X112880898Y-94589232D01*
X112914401Y-94607140D01*
X112943763Y-94631237D01*
X112967860Y-94660599D01*
X112985768Y-94694102D01*
X112996793Y-94730448D01*
X113001000Y-94773158D01*
X113001000Y-95426842D01*
X112996793Y-95469552D01*
X112985768Y-95505898D01*
X112967860Y-95539401D01*
X112943763Y-95568763D01*
X112914401Y-95592860D01*
X112880898Y-95610768D01*
X112844552Y-95621793D01*
X112801842Y-95626000D01*
X112223158Y-95626000D01*
X112180448Y-95621793D01*
X112144102Y-95610768D01*
X112110599Y-95592860D01*
X112081237Y-95568763D01*
X112057140Y-95539401D01*
X112039232Y-95505898D01*
X112028207Y-95469552D01*
X112024000Y-95426842D01*
X112024000Y-94773158D01*
X112028207Y-94730448D01*
X112039232Y-94694102D01*
X112057140Y-94660599D01*
X112081237Y-94631237D01*
X112110599Y-94607140D01*
X112144102Y-94589232D01*
X112180448Y-94578207D01*
X112223158Y-94574000D01*
X112801842Y-94574000D01*
X112844552Y-94578207D01*
X112844552Y-94578207D01*
G37*
G36*
X107649581Y-93162081D02*
G01*
X107748228Y-93181703D01*
X107903100Y-93245853D01*
X108042481Y-93338985D01*
X108161015Y-93457519D01*
X108254147Y-93596900D01*
X108318297Y-93751772D01*
X108329998Y-93810599D01*
X108342765Y-93874780D01*
X108351000Y-93916184D01*
X108351000Y-94083816D01*
X108318297Y-94248228D01*
X108254147Y-94403100D01*
X108161015Y-94542481D01*
X108042481Y-94661015D01*
X107903100Y-94754147D01*
X107748228Y-94818297D01*
X107649581Y-94837919D01*
X107583818Y-94851000D01*
X107416182Y-94851000D01*
X107350419Y-94837919D01*
X107251772Y-94818297D01*
X107096900Y-94754147D01*
X106957519Y-94661015D01*
X106838985Y-94542481D01*
X106745853Y-94403100D01*
X106681703Y-94248228D01*
X106649000Y-94083816D01*
X106649000Y-93916184D01*
X106657236Y-93874780D01*
X106670002Y-93810599D01*
X106681703Y-93751772D01*
X106745853Y-93596900D01*
X106838985Y-93457519D01*
X106957519Y-93338985D01*
X107096900Y-93245853D01*
X107251772Y-93181703D01*
X107350419Y-93162081D01*
X107416182Y-93149000D01*
X107583818Y-93149000D01*
X107649581Y-93162081D01*
X107649581Y-93162081D01*
G37*
G36*
X110649581Y-93162081D02*
G01*
X110748228Y-93181703D01*
X110903100Y-93245853D01*
X111042481Y-93338985D01*
X111161015Y-93457519D01*
X111254147Y-93596900D01*
X111318297Y-93751772D01*
X111329998Y-93810599D01*
X111342765Y-93874780D01*
X111351000Y-93916184D01*
X111351000Y-94083816D01*
X111318297Y-94248228D01*
X111254147Y-94403100D01*
X111161015Y-94542481D01*
X111042481Y-94661015D01*
X110903100Y-94754147D01*
X110748228Y-94818297D01*
X110649581Y-94837919D01*
X110583818Y-94851000D01*
X110416182Y-94851000D01*
X110350419Y-94837919D01*
X110251772Y-94818297D01*
X110096900Y-94754147D01*
X109957519Y-94661015D01*
X109838985Y-94542481D01*
X109745853Y-94403100D01*
X109681703Y-94248228D01*
X109649000Y-94083816D01*
X109649000Y-93916184D01*
X109657236Y-93874780D01*
X109670002Y-93810599D01*
X109681703Y-93751772D01*
X109745853Y-93596900D01*
X109838985Y-93457519D01*
X109957519Y-93338985D01*
X110096900Y-93245853D01*
X110251772Y-93181703D01*
X110350419Y-93162081D01*
X110416182Y-93149000D01*
X110583818Y-93149000D01*
X110649581Y-93162081D01*
X110649581Y-93162081D01*
G37*
G36*
X118169552Y-93728207D02*
G01*
X118205898Y-93739232D01*
X118239401Y-93757140D01*
X118268763Y-93781237D01*
X118292860Y-93810599D01*
X118310768Y-93844102D01*
X118321793Y-93880448D01*
X118326000Y-93923158D01*
X118326000Y-94501842D01*
X118321793Y-94544552D01*
X118310768Y-94580898D01*
X118292860Y-94614401D01*
X118268763Y-94643763D01*
X118239401Y-94667860D01*
X118205898Y-94685768D01*
X118169552Y-94696793D01*
X118126842Y-94701000D01*
X117473158Y-94701000D01*
X117430448Y-94696793D01*
X117394102Y-94685768D01*
X117360599Y-94667860D01*
X117331237Y-94643763D01*
X117307140Y-94614401D01*
X117289232Y-94580898D01*
X117278207Y-94544552D01*
X117274000Y-94501842D01*
X117274000Y-93923158D01*
X117278207Y-93880448D01*
X117289232Y-93844102D01*
X117307140Y-93810599D01*
X117331237Y-93781237D01*
X117360599Y-93757140D01*
X117394102Y-93739232D01*
X117430448Y-93728207D01*
X117473158Y-93724000D01*
X118126842Y-93724000D01*
X118169552Y-93728207D01*
X118169552Y-93728207D01*
G37*
G36*
X110649581Y-90662081D02*
G01*
X110748228Y-90681703D01*
X110903100Y-90745853D01*
X111042481Y-90838985D01*
X111161015Y-90957519D01*
X111254147Y-91096900D01*
X111318297Y-91251772D01*
X111335727Y-91339401D01*
X111349255Y-91407408D01*
X111351000Y-91416184D01*
X111351000Y-91583816D01*
X111318297Y-91748228D01*
X111254147Y-91903100D01*
X111161015Y-92042481D01*
X111042481Y-92161015D01*
X110903100Y-92254147D01*
X110748228Y-92318297D01*
X110649581Y-92337919D01*
X110583818Y-92351000D01*
X110416182Y-92351000D01*
X110350419Y-92337919D01*
X110251772Y-92318297D01*
X110096900Y-92254147D01*
X109957519Y-92161015D01*
X109838985Y-92042481D01*
X109745853Y-91903100D01*
X109681703Y-91748228D01*
X109649000Y-91583816D01*
X109649000Y-91416184D01*
X109650746Y-91407408D01*
X109664273Y-91339401D01*
X109681703Y-91251772D01*
X109745853Y-91096900D01*
X109838985Y-90957519D01*
X109957519Y-90838985D01*
X110096900Y-90745853D01*
X110251772Y-90681703D01*
X110350419Y-90662081D01*
X110416182Y-90649000D01*
X110583818Y-90649000D01*
X110649581Y-90662081D01*
X110649581Y-90662081D01*
G37*
G36*
X107649581Y-90662081D02*
G01*
X107748228Y-90681703D01*
X107903100Y-90745853D01*
X108042481Y-90838985D01*
X108161015Y-90957519D01*
X108254147Y-91096900D01*
X108318297Y-91251772D01*
X108335727Y-91339401D01*
X108349255Y-91407408D01*
X108351000Y-91416184D01*
X108351000Y-91583816D01*
X108318297Y-91748228D01*
X108254147Y-91903100D01*
X108161015Y-92042481D01*
X108042481Y-92161015D01*
X107903100Y-92254147D01*
X107748228Y-92318297D01*
X107649581Y-92337919D01*
X107583818Y-92351000D01*
X107416182Y-92351000D01*
X107350419Y-92337919D01*
X107251772Y-92318297D01*
X107096900Y-92254147D01*
X106957519Y-92161015D01*
X106838985Y-92042481D01*
X106745853Y-91903100D01*
X106681703Y-91748228D01*
X106649000Y-91583816D01*
X106649000Y-91416184D01*
X106650746Y-91407408D01*
X106664273Y-91339401D01*
X106681703Y-91251772D01*
X106745853Y-91096900D01*
X106838985Y-90957519D01*
X106957519Y-90838985D01*
X107096900Y-90745853D01*
X107251772Y-90681703D01*
X107350419Y-90662081D01*
X107416182Y-90649000D01*
X107583818Y-90649000D01*
X107649581Y-90662081D01*
X107649581Y-90662081D01*
G37*
G36*
X118232052Y-90378207D02*
G01*
X118268398Y-90389232D01*
X118301901Y-90407140D01*
X118331263Y-90431237D01*
X118355360Y-90460599D01*
X118373268Y-90494102D01*
X118384293Y-90530448D01*
X118388500Y-90573158D01*
X118388500Y-91226842D01*
X118384293Y-91269552D01*
X118373268Y-91305898D01*
X118355360Y-91339401D01*
X118331263Y-91368763D01*
X118301901Y-91392860D01*
X118268398Y-91410768D01*
X118232052Y-91421793D01*
X118189342Y-91426000D01*
X117610658Y-91426000D01*
X117567948Y-91421793D01*
X117531602Y-91410768D01*
X117498099Y-91392860D01*
X117468737Y-91368763D01*
X117444640Y-91339401D01*
X117426732Y-91305898D01*
X117415707Y-91269552D01*
X117411500Y-91226842D01*
X117411500Y-90573158D01*
X117415707Y-90530448D01*
X117426732Y-90494102D01*
X117444640Y-90460599D01*
X117468737Y-90431237D01*
X117498099Y-90407140D01*
X117531602Y-90389232D01*
X117567948Y-90378207D01*
X117610658Y-90374000D01*
X118189342Y-90374000D01*
X118232052Y-90378207D01*
X118232052Y-90378207D01*
G37*
G36*
X119807052Y-90378207D02*
G01*
X119843398Y-90389232D01*
X119876901Y-90407140D01*
X119906263Y-90431237D01*
X119930360Y-90460599D01*
X119948268Y-90494102D01*
X119959293Y-90530448D01*
X119963500Y-90573158D01*
X119963500Y-91226842D01*
X119959293Y-91269552D01*
X119948268Y-91305898D01*
X119930360Y-91339401D01*
X119906263Y-91368763D01*
X119876901Y-91392860D01*
X119843398Y-91410768D01*
X119807052Y-91421793D01*
X119764342Y-91426000D01*
X119185658Y-91426000D01*
X119142948Y-91421793D01*
X119106602Y-91410768D01*
X119073099Y-91392860D01*
X119043737Y-91368763D01*
X119019640Y-91339401D01*
X119001732Y-91305898D01*
X118990707Y-91269552D01*
X118986500Y-91226842D01*
X118986500Y-90573158D01*
X118990707Y-90530448D01*
X119001732Y-90494102D01*
X119019640Y-90460599D01*
X119043737Y-90431237D01*
X119073099Y-90407140D01*
X119106602Y-90389232D01*
X119142948Y-90378207D01*
X119185658Y-90374000D01*
X119764342Y-90374000D01*
X119807052Y-90378207D01*
X119807052Y-90378207D01*
G37*
G36*
X118232052Y-89078207D02*
G01*
X118268398Y-89089232D01*
X118301901Y-89107140D01*
X118331263Y-89131237D01*
X118355360Y-89160599D01*
X118373268Y-89194102D01*
X118384293Y-89230448D01*
X118388500Y-89273158D01*
X118388500Y-89926842D01*
X118384293Y-89969552D01*
X118373268Y-90005898D01*
X118355360Y-90039401D01*
X118331263Y-90068763D01*
X118301901Y-90092860D01*
X118268398Y-90110768D01*
X118232052Y-90121793D01*
X118189342Y-90126000D01*
X117610658Y-90126000D01*
X117567948Y-90121793D01*
X117531602Y-90110768D01*
X117498099Y-90092860D01*
X117468737Y-90068763D01*
X117444640Y-90039401D01*
X117426732Y-90005898D01*
X117415707Y-89969552D01*
X117411500Y-89926842D01*
X117411500Y-89273158D01*
X117415707Y-89230448D01*
X117426732Y-89194102D01*
X117444640Y-89160599D01*
X117468737Y-89131237D01*
X117498099Y-89107140D01*
X117531602Y-89089232D01*
X117567948Y-89078207D01*
X117610658Y-89074000D01*
X118189342Y-89074000D01*
X118232052Y-89078207D01*
X118232052Y-89078207D01*
G37*
G36*
X119807052Y-89078207D02*
G01*
X119843398Y-89089232D01*
X119876901Y-89107140D01*
X119906263Y-89131237D01*
X119930360Y-89160599D01*
X119948268Y-89194102D01*
X119959293Y-89230448D01*
X119963500Y-89273158D01*
X119963500Y-89926842D01*
X119959293Y-89969552D01*
X119948268Y-90005898D01*
X119930360Y-90039401D01*
X119906263Y-90068763D01*
X119876901Y-90092860D01*
X119843398Y-90110768D01*
X119807052Y-90121793D01*
X119764342Y-90126000D01*
X119185658Y-90126000D01*
X119142948Y-90121793D01*
X119106602Y-90110768D01*
X119073099Y-90092860D01*
X119043737Y-90068763D01*
X119019640Y-90039401D01*
X119001732Y-90005898D01*
X118990707Y-89969552D01*
X118986500Y-89926842D01*
X118986500Y-89273158D01*
X118990707Y-89230448D01*
X119001732Y-89194102D01*
X119019640Y-89160599D01*
X119043737Y-89131237D01*
X119073099Y-89107140D01*
X119106602Y-89089232D01*
X119142948Y-89078207D01*
X119185658Y-89074000D01*
X119764342Y-89074000D01*
X119807052Y-89078207D01*
X119807052Y-89078207D01*
G37*
G36*
X110649581Y-88162081D02*
G01*
X110748228Y-88181703D01*
X110903100Y-88245853D01*
X111042481Y-88338985D01*
X111161015Y-88457519D01*
X111254147Y-88596900D01*
X111318297Y-88751772D01*
X111335727Y-88839401D01*
X111351000Y-88916182D01*
X111351000Y-89083818D01*
X111346361Y-89107140D01*
X111318297Y-89248228D01*
X111254147Y-89403100D01*
X111161015Y-89542481D01*
X111042481Y-89661015D01*
X110903100Y-89754147D01*
X110748228Y-89818297D01*
X110649581Y-89837919D01*
X110583818Y-89851000D01*
X110416182Y-89851000D01*
X110350419Y-89837919D01*
X110251772Y-89818297D01*
X110096900Y-89754147D01*
X109957519Y-89661015D01*
X109838985Y-89542481D01*
X109745853Y-89403100D01*
X109681703Y-89248228D01*
X109653639Y-89107140D01*
X109649000Y-89083818D01*
X109649000Y-88916182D01*
X109664273Y-88839401D01*
X109681703Y-88751772D01*
X109745853Y-88596900D01*
X109838985Y-88457519D01*
X109957519Y-88338985D01*
X110096900Y-88245853D01*
X110251772Y-88181703D01*
X110350419Y-88162081D01*
X110416182Y-88149000D01*
X110583818Y-88149000D01*
X110649581Y-88162081D01*
X110649581Y-88162081D01*
G37*
G36*
X107649581Y-88162081D02*
G01*
X107748228Y-88181703D01*
X107903100Y-88245853D01*
X108042481Y-88338985D01*
X108161015Y-88457519D01*
X108254147Y-88596900D01*
X108318297Y-88751772D01*
X108335727Y-88839401D01*
X108351000Y-88916182D01*
X108351000Y-89083818D01*
X108346361Y-89107140D01*
X108318297Y-89248228D01*
X108254147Y-89403100D01*
X108161015Y-89542481D01*
X108042481Y-89661015D01*
X107903100Y-89754147D01*
X107748228Y-89818297D01*
X107649581Y-89837919D01*
X107583818Y-89851000D01*
X107416182Y-89851000D01*
X107350419Y-89837919D01*
X107251772Y-89818297D01*
X107096900Y-89754147D01*
X106957519Y-89661015D01*
X106838985Y-89542481D01*
X106745853Y-89403100D01*
X106681703Y-89248228D01*
X106653639Y-89107140D01*
X106649000Y-89083818D01*
X106649000Y-88916182D01*
X106664273Y-88839401D01*
X106681703Y-88751772D01*
X106745853Y-88596900D01*
X106838985Y-88457519D01*
X106957519Y-88338985D01*
X107096900Y-88245853D01*
X107251772Y-88181703D01*
X107350419Y-88162081D01*
X107416182Y-88149000D01*
X107583818Y-88149000D01*
X107649581Y-88162081D01*
X107649581Y-88162081D01*
G37*
G36*
X116319552Y-87878207D02*
G01*
X116355898Y-87889232D01*
X116389401Y-87907140D01*
X116418763Y-87931237D01*
X116442860Y-87960599D01*
X116460768Y-87994102D01*
X116471793Y-88030448D01*
X116476000Y-88073158D01*
X116476000Y-88726842D01*
X116471793Y-88769552D01*
X116460768Y-88805898D01*
X116442860Y-88839401D01*
X116418763Y-88868763D01*
X116389401Y-88892860D01*
X116355898Y-88910768D01*
X116319552Y-88921793D01*
X116276842Y-88926000D01*
X115698158Y-88926000D01*
X115655448Y-88921793D01*
X115619102Y-88910768D01*
X115585599Y-88892860D01*
X115556237Y-88868763D01*
X115532140Y-88839401D01*
X115514232Y-88805898D01*
X115503207Y-88769552D01*
X115499000Y-88726842D01*
X115499000Y-88073158D01*
X115503207Y-88030448D01*
X115514232Y-87994102D01*
X115532140Y-87960599D01*
X115556237Y-87931237D01*
X115585599Y-87907140D01*
X115619102Y-87889232D01*
X115655448Y-87878207D01*
X115698158Y-87874000D01*
X116276842Y-87874000D01*
X116319552Y-87878207D01*
X116319552Y-87878207D01*
G37*
G36*
X114744552Y-87878207D02*
G01*
X114780898Y-87889232D01*
X114814401Y-87907140D01*
X114843763Y-87931237D01*
X114867860Y-87960599D01*
X114885768Y-87994102D01*
X114896793Y-88030448D01*
X114901000Y-88073158D01*
X114901000Y-88726842D01*
X114896793Y-88769552D01*
X114885768Y-88805898D01*
X114867860Y-88839401D01*
X114843763Y-88868763D01*
X114814401Y-88892860D01*
X114780898Y-88910768D01*
X114744552Y-88921793D01*
X114701842Y-88926000D01*
X114123158Y-88926000D01*
X114080448Y-88921793D01*
X114044102Y-88910768D01*
X114010599Y-88892860D01*
X113981237Y-88868763D01*
X113957140Y-88839401D01*
X113939232Y-88805898D01*
X113928207Y-88769552D01*
X113924000Y-88726842D01*
X113924000Y-88073158D01*
X113928207Y-88030448D01*
X113939232Y-87994102D01*
X113957140Y-87960599D01*
X113981237Y-87931237D01*
X114010599Y-87907140D01*
X114044102Y-87889232D01*
X114080448Y-87878207D01*
X114123158Y-87874000D01*
X114701842Y-87874000D01*
X114744552Y-87878207D01*
X114744552Y-87878207D01*
G37*
G36*
X116307052Y-86578207D02*
G01*
X116343398Y-86589232D01*
X116376901Y-86607140D01*
X116406263Y-86631237D01*
X116430360Y-86660599D01*
X116448268Y-86694102D01*
X116459293Y-86730448D01*
X116463500Y-86773158D01*
X116463500Y-87426842D01*
X116459293Y-87469552D01*
X116448268Y-87505898D01*
X116430360Y-87539401D01*
X116406263Y-87568763D01*
X116376901Y-87592860D01*
X116343398Y-87610768D01*
X116307052Y-87621793D01*
X116264342Y-87626000D01*
X115685658Y-87626000D01*
X115642948Y-87621793D01*
X115606602Y-87610768D01*
X115573099Y-87592860D01*
X115543737Y-87568763D01*
X115519640Y-87539401D01*
X115501732Y-87505898D01*
X115490707Y-87469552D01*
X115486500Y-87426842D01*
X115486500Y-86773158D01*
X115490707Y-86730448D01*
X115501732Y-86694102D01*
X115519640Y-86660599D01*
X115543737Y-86631237D01*
X115573099Y-86607140D01*
X115606602Y-86589232D01*
X115642948Y-86578207D01*
X115685658Y-86574000D01*
X116264342Y-86574000D01*
X116307052Y-86578207D01*
X116307052Y-86578207D01*
G37*
G36*
X114732052Y-86578207D02*
G01*
X114768398Y-86589232D01*
X114801901Y-86607140D01*
X114831263Y-86631237D01*
X114855360Y-86660599D01*
X114873268Y-86694102D01*
X114884293Y-86730448D01*
X114888500Y-86773158D01*
X114888500Y-87426842D01*
X114884293Y-87469552D01*
X114873268Y-87505898D01*
X114855360Y-87539401D01*
X114831263Y-87568763D01*
X114801901Y-87592860D01*
X114768398Y-87610768D01*
X114732052Y-87621793D01*
X114689342Y-87626000D01*
X114110658Y-87626000D01*
X114067948Y-87621793D01*
X114031602Y-87610768D01*
X113998099Y-87592860D01*
X113968737Y-87568763D01*
X113944640Y-87539401D01*
X113926732Y-87505898D01*
X113915707Y-87469552D01*
X113911500Y-87426842D01*
X113911500Y-86773158D01*
X113915707Y-86730448D01*
X113926732Y-86694102D01*
X113944640Y-86660599D01*
X113968737Y-86631237D01*
X113998099Y-86607140D01*
X114031602Y-86589232D01*
X114067948Y-86578207D01*
X114110658Y-86574000D01*
X114689342Y-86574000D01*
X114732052Y-86578207D01*
X114732052Y-86578207D01*
G37*
G36*
X118232052Y-86478207D02*
G01*
X118268398Y-86489232D01*
X118301901Y-86507140D01*
X118331263Y-86531237D01*
X118355360Y-86560599D01*
X118373268Y-86594102D01*
X118384293Y-86630448D01*
X118388500Y-86673158D01*
X118388500Y-87326842D01*
X118384293Y-87369552D01*
X118373268Y-87405898D01*
X118355360Y-87439401D01*
X118331263Y-87468763D01*
X118301901Y-87492860D01*
X118268398Y-87510768D01*
X118232052Y-87521793D01*
X118189342Y-87526000D01*
X117610658Y-87526000D01*
X117567948Y-87521793D01*
X117531602Y-87510768D01*
X117498099Y-87492860D01*
X117468737Y-87468763D01*
X117444640Y-87439401D01*
X117426732Y-87405898D01*
X117415707Y-87369552D01*
X117411500Y-87326842D01*
X117411500Y-86673158D01*
X117415707Y-86630448D01*
X117426732Y-86594102D01*
X117444640Y-86560599D01*
X117468737Y-86531237D01*
X117498099Y-86507140D01*
X117531602Y-86489232D01*
X117567948Y-86478207D01*
X117610658Y-86474000D01*
X118189342Y-86474000D01*
X118232052Y-86478207D01*
X118232052Y-86478207D01*
G37*
G36*
X119807052Y-86478207D02*
G01*
X119843398Y-86489232D01*
X119876901Y-86507140D01*
X119906263Y-86531237D01*
X119930360Y-86560599D01*
X119948268Y-86594102D01*
X119959293Y-86630448D01*
X119963500Y-86673158D01*
X119963500Y-87326842D01*
X119959293Y-87369552D01*
X119948268Y-87405898D01*
X119930360Y-87439401D01*
X119906263Y-87468763D01*
X119876901Y-87492860D01*
X119843398Y-87510768D01*
X119807052Y-87521793D01*
X119764342Y-87526000D01*
X119185658Y-87526000D01*
X119142948Y-87521793D01*
X119106602Y-87510768D01*
X119073099Y-87492860D01*
X119043737Y-87468763D01*
X119019640Y-87439401D01*
X119001732Y-87405898D01*
X118990707Y-87369552D01*
X118986500Y-87326842D01*
X118986500Y-86673158D01*
X118990707Y-86630448D01*
X119001732Y-86594102D01*
X119019640Y-86560599D01*
X119043737Y-86531237D01*
X119073099Y-86507140D01*
X119106602Y-86489232D01*
X119142948Y-86478207D01*
X119185658Y-86474000D01*
X119764342Y-86474000D01*
X119807052Y-86478207D01*
X119807052Y-86478207D01*
G37*
G36*
X110649581Y-85662081D02*
G01*
X110748228Y-85681703D01*
X110903100Y-85745853D01*
X111042481Y-85838985D01*
X111161015Y-85957519D01*
X111254147Y-86096900D01*
X111318297Y-86251772D01*
X111337919Y-86350419D01*
X111351000Y-86416182D01*
X111351000Y-86583818D01*
X111341568Y-86631237D01*
X111318297Y-86748228D01*
X111254147Y-86903100D01*
X111161015Y-87042481D01*
X111042481Y-87161015D01*
X110903100Y-87254147D01*
X110748228Y-87318297D01*
X110649581Y-87337919D01*
X110583818Y-87351000D01*
X110416182Y-87351000D01*
X110350419Y-87337919D01*
X110251772Y-87318297D01*
X110096900Y-87254147D01*
X109957519Y-87161015D01*
X109838985Y-87042481D01*
X109745853Y-86903100D01*
X109681703Y-86748228D01*
X109658432Y-86631237D01*
X109649000Y-86583818D01*
X109649000Y-86416182D01*
X109662081Y-86350419D01*
X109681703Y-86251772D01*
X109745853Y-86096900D01*
X109838985Y-85957519D01*
X109957519Y-85838985D01*
X110096900Y-85745853D01*
X110251772Y-85681703D01*
X110350419Y-85662081D01*
X110416182Y-85649000D01*
X110583818Y-85649000D01*
X110649581Y-85662081D01*
X110649581Y-85662081D01*
G37*
G36*
X107649581Y-85662081D02*
G01*
X107748228Y-85681703D01*
X107903100Y-85745853D01*
X108042481Y-85838985D01*
X108161015Y-85957519D01*
X108254147Y-86096900D01*
X108318297Y-86251772D01*
X108337919Y-86350419D01*
X108351000Y-86416182D01*
X108351000Y-86583818D01*
X108341568Y-86631237D01*
X108318297Y-86748228D01*
X108254147Y-86903100D01*
X108161015Y-87042481D01*
X108042481Y-87161015D01*
X107903100Y-87254147D01*
X107748228Y-87318297D01*
X107649581Y-87337919D01*
X107583818Y-87351000D01*
X107416182Y-87351000D01*
X107350419Y-87337919D01*
X107251772Y-87318297D01*
X107096900Y-87254147D01*
X106957519Y-87161015D01*
X106838985Y-87042481D01*
X106745853Y-86903100D01*
X106681703Y-86748228D01*
X106658432Y-86631237D01*
X106649000Y-86583818D01*
X106649000Y-86416182D01*
X106662081Y-86350419D01*
X106681703Y-86251772D01*
X106745853Y-86096900D01*
X106838985Y-85957519D01*
X106957519Y-85838985D01*
X107096900Y-85745853D01*
X107251772Y-85681703D01*
X107350419Y-85662081D01*
X107416182Y-85649000D01*
X107583818Y-85649000D01*
X107649581Y-85662081D01*
X107649581Y-85662081D01*
G37*
G36*
X116319552Y-85278207D02*
G01*
X116355898Y-85289232D01*
X116389401Y-85307140D01*
X116418763Y-85331237D01*
X116442860Y-85360599D01*
X116460768Y-85394102D01*
X116471793Y-85430448D01*
X116476000Y-85473158D01*
X116476000Y-86126842D01*
X116471793Y-86169552D01*
X116460768Y-86205898D01*
X116442860Y-86239401D01*
X116418763Y-86268763D01*
X116389401Y-86292860D01*
X116355898Y-86310768D01*
X116319552Y-86321793D01*
X116276842Y-86326000D01*
X115698158Y-86326000D01*
X115655448Y-86321793D01*
X115619102Y-86310768D01*
X115585599Y-86292860D01*
X115556237Y-86268763D01*
X115532140Y-86239401D01*
X115514232Y-86205898D01*
X115503207Y-86169552D01*
X115499000Y-86126842D01*
X115499000Y-85473158D01*
X115503207Y-85430448D01*
X115514232Y-85394102D01*
X115532140Y-85360599D01*
X115556237Y-85331237D01*
X115585599Y-85307140D01*
X115619102Y-85289232D01*
X115655448Y-85278207D01*
X115698158Y-85274000D01*
X116276842Y-85274000D01*
X116319552Y-85278207D01*
X116319552Y-85278207D01*
G37*
G36*
X114744552Y-85278207D02*
G01*
X114780898Y-85289232D01*
X114814401Y-85307140D01*
X114843763Y-85331237D01*
X114867860Y-85360599D01*
X114885768Y-85394102D01*
X114896793Y-85430448D01*
X114901000Y-85473158D01*
X114901000Y-86126842D01*
X114896793Y-86169552D01*
X114885768Y-86205898D01*
X114867860Y-86239401D01*
X114843763Y-86268763D01*
X114814401Y-86292860D01*
X114780898Y-86310768D01*
X114744552Y-86321793D01*
X114701842Y-86326000D01*
X114123158Y-86326000D01*
X114080448Y-86321793D01*
X114044102Y-86310768D01*
X114010599Y-86292860D01*
X113981237Y-86268763D01*
X113957140Y-86239401D01*
X113939232Y-86205898D01*
X113928207Y-86169552D01*
X113924000Y-86126842D01*
X113924000Y-85473158D01*
X113928207Y-85430448D01*
X113939232Y-85394102D01*
X113957140Y-85360599D01*
X113981237Y-85331237D01*
X114010599Y-85307140D01*
X114044102Y-85289232D01*
X114080448Y-85278207D01*
X114123158Y-85274000D01*
X114701842Y-85274000D01*
X114744552Y-85278207D01*
X114744552Y-85278207D01*
G37*
G36*
X119819552Y-84228207D02*
G01*
X119855898Y-84239232D01*
X119889401Y-84257140D01*
X119918763Y-84281237D01*
X119942860Y-84310599D01*
X119960768Y-84344102D01*
X119971793Y-84380448D01*
X119976000Y-84423158D01*
X119976000Y-85076842D01*
X119971793Y-85119552D01*
X119960768Y-85155898D01*
X119942860Y-85189401D01*
X119918763Y-85218763D01*
X119889401Y-85242860D01*
X119855898Y-85260768D01*
X119819552Y-85271793D01*
X119776842Y-85276000D01*
X119198158Y-85276000D01*
X119155448Y-85271793D01*
X119119102Y-85260768D01*
X119085599Y-85242860D01*
X119056237Y-85218763D01*
X119032140Y-85189401D01*
X119014232Y-85155898D01*
X119003207Y-85119552D01*
X118999000Y-85076842D01*
X118999000Y-84423158D01*
X119003207Y-84380448D01*
X119014232Y-84344102D01*
X119032140Y-84310599D01*
X119056237Y-84281237D01*
X119085599Y-84257140D01*
X119119102Y-84239232D01*
X119155448Y-84228207D01*
X119198158Y-84224000D01*
X119776842Y-84224000D01*
X119819552Y-84228207D01*
X119819552Y-84228207D01*
G37*
G36*
X118244552Y-84228207D02*
G01*
X118280898Y-84239232D01*
X118314401Y-84257140D01*
X118343763Y-84281237D01*
X118367860Y-84310599D01*
X118385768Y-84344102D01*
X118396793Y-84380448D01*
X118401000Y-84423158D01*
X118401000Y-85076842D01*
X118396793Y-85119552D01*
X118385768Y-85155898D01*
X118367860Y-85189401D01*
X118343763Y-85218763D01*
X118314401Y-85242860D01*
X118280898Y-85260768D01*
X118244552Y-85271793D01*
X118201842Y-85276000D01*
X117623158Y-85276000D01*
X117580448Y-85271793D01*
X117544102Y-85260768D01*
X117510599Y-85242860D01*
X117481237Y-85218763D01*
X117457140Y-85189401D01*
X117439232Y-85155898D01*
X117428207Y-85119552D01*
X117424000Y-85076842D01*
X117424000Y-84423158D01*
X117428207Y-84380448D01*
X117439232Y-84344102D01*
X117457140Y-84310599D01*
X117481237Y-84281237D01*
X117510599Y-84257140D01*
X117544102Y-84239232D01*
X117580448Y-84228207D01*
X117623158Y-84224000D01*
X118201842Y-84224000D01*
X118244552Y-84228207D01*
X118244552Y-84228207D01*
G37*
G36*
X107649581Y-83162081D02*
G01*
X107748228Y-83181703D01*
X107903100Y-83245853D01*
X108042481Y-83338985D01*
X108161015Y-83457519D01*
X108254147Y-83596900D01*
X108318297Y-83751772D01*
X108333229Y-83826842D01*
X108341725Y-83869552D01*
X108351000Y-83916184D01*
X108351000Y-84083816D01*
X108318297Y-84248228D01*
X108254147Y-84403100D01*
X108161015Y-84542481D01*
X108042481Y-84661015D01*
X107903100Y-84754147D01*
X107748228Y-84818297D01*
X107649581Y-84837919D01*
X107583818Y-84851000D01*
X107416182Y-84851000D01*
X107350419Y-84837919D01*
X107251772Y-84818297D01*
X107096900Y-84754147D01*
X106957519Y-84661015D01*
X106838985Y-84542481D01*
X106745853Y-84403100D01*
X106681703Y-84248228D01*
X106649000Y-84083816D01*
X106649000Y-83916184D01*
X106658276Y-83869552D01*
X106666771Y-83826842D01*
X106681703Y-83751772D01*
X106745853Y-83596900D01*
X106838985Y-83457519D01*
X106957519Y-83338985D01*
X107096900Y-83245853D01*
X107251772Y-83181703D01*
X107350419Y-83162081D01*
X107416182Y-83149000D01*
X107583818Y-83149000D01*
X107649581Y-83162081D01*
X107649581Y-83162081D01*
G37*
G36*
X110649581Y-83162081D02*
G01*
X110748228Y-83181703D01*
X110903100Y-83245853D01*
X111042481Y-83338985D01*
X111161015Y-83457519D01*
X111254147Y-83596900D01*
X111318297Y-83751772D01*
X111333229Y-83826842D01*
X111341725Y-83869552D01*
X111351000Y-83916184D01*
X111351000Y-84083816D01*
X111318297Y-84248228D01*
X111254147Y-84403100D01*
X111161015Y-84542481D01*
X111042481Y-84661015D01*
X110903100Y-84754147D01*
X110748228Y-84818297D01*
X110649581Y-84837919D01*
X110583818Y-84851000D01*
X110416182Y-84851000D01*
X110350419Y-84837919D01*
X110251772Y-84818297D01*
X110096900Y-84754147D01*
X109957519Y-84661015D01*
X109838985Y-84542481D01*
X109745853Y-84403100D01*
X109681703Y-84248228D01*
X109649000Y-84083816D01*
X109649000Y-83916184D01*
X109658276Y-83869552D01*
X109666771Y-83826842D01*
X109681703Y-83751772D01*
X109745853Y-83596900D01*
X109838985Y-83457519D01*
X109957519Y-83338985D01*
X110096900Y-83245853D01*
X110251772Y-83181703D01*
X110350419Y-83162081D01*
X110416182Y-83149000D01*
X110583818Y-83149000D01*
X110649581Y-83162081D01*
X110649581Y-83162081D01*
G37*
G36*
X114744552Y-82978207D02*
G01*
X114780898Y-82989232D01*
X114814401Y-83007140D01*
X114843763Y-83031237D01*
X114867860Y-83060599D01*
X114885768Y-83094102D01*
X114896793Y-83130448D01*
X114901000Y-83173158D01*
X114901000Y-83826842D01*
X114896793Y-83869552D01*
X114885768Y-83905898D01*
X114867860Y-83939401D01*
X114843763Y-83968763D01*
X114814401Y-83992860D01*
X114780898Y-84010768D01*
X114744552Y-84021793D01*
X114701842Y-84026000D01*
X114123158Y-84026000D01*
X114080448Y-84021793D01*
X114044102Y-84010768D01*
X114010599Y-83992860D01*
X113981237Y-83968763D01*
X113957140Y-83939401D01*
X113939232Y-83905898D01*
X113928207Y-83869552D01*
X113924000Y-83826842D01*
X113924000Y-83173158D01*
X113928207Y-83130448D01*
X113939232Y-83094102D01*
X113957140Y-83060599D01*
X113981237Y-83031237D01*
X114010599Y-83007140D01*
X114044102Y-82989232D01*
X114080448Y-82978207D01*
X114123158Y-82974000D01*
X114701842Y-82974000D01*
X114744552Y-82978207D01*
X114744552Y-82978207D01*
G37*
G36*
X116319552Y-82978207D02*
G01*
X116355898Y-82989232D01*
X116389401Y-83007140D01*
X116418763Y-83031237D01*
X116442860Y-83060599D01*
X116460768Y-83094102D01*
X116471793Y-83130448D01*
X116476000Y-83173158D01*
X116476000Y-83826842D01*
X116471793Y-83869552D01*
X116460768Y-83905898D01*
X116442860Y-83939401D01*
X116418763Y-83968763D01*
X116389401Y-83992860D01*
X116355898Y-84010768D01*
X116319552Y-84021793D01*
X116276842Y-84026000D01*
X115698158Y-84026000D01*
X115655448Y-84021793D01*
X115619102Y-84010768D01*
X115585599Y-83992860D01*
X115556237Y-83968763D01*
X115532140Y-83939401D01*
X115514232Y-83905898D01*
X115503207Y-83869552D01*
X115499000Y-83826842D01*
X115499000Y-83173158D01*
X115503207Y-83130448D01*
X115514232Y-83094102D01*
X115532140Y-83060599D01*
X115556237Y-83031237D01*
X115585599Y-83007140D01*
X115619102Y-82989232D01*
X115655448Y-82978207D01*
X115698158Y-82974000D01*
X116276842Y-82974000D01*
X116319552Y-82978207D01*
X116319552Y-82978207D01*
G37*
G36*
X119551000Y-83001000D02*
G01*
X117649000Y-83001000D01*
X117649000Y-81899000D01*
X119551000Y-81899000D01*
X119551000Y-83001000D01*
X119551000Y-83001000D01*
G37*
G36*
X107649581Y-80662081D02*
G01*
X107748228Y-80681703D01*
X107903100Y-80745853D01*
X108042481Y-80838985D01*
X108161015Y-80957519D01*
X108254147Y-81096900D01*
X108318297Y-81251772D01*
X108351000Y-81416184D01*
X108351000Y-81583816D01*
X108318297Y-81748228D01*
X108254147Y-81903100D01*
X108161015Y-82042481D01*
X108042481Y-82161015D01*
X107903100Y-82254147D01*
X107748228Y-82318297D01*
X107649581Y-82337919D01*
X107583818Y-82351000D01*
X107416182Y-82351000D01*
X107350419Y-82337919D01*
X107251772Y-82318297D01*
X107096900Y-82254147D01*
X106957519Y-82161015D01*
X106838985Y-82042481D01*
X106745853Y-81903100D01*
X106681703Y-81748228D01*
X106649000Y-81583816D01*
X106649000Y-81416184D01*
X106681703Y-81251772D01*
X106745853Y-81096900D01*
X106838985Y-80957519D01*
X106957519Y-80838985D01*
X107096900Y-80745853D01*
X107251772Y-80681703D01*
X107350419Y-80662081D01*
X107416182Y-80649000D01*
X107583818Y-80649000D01*
X107649581Y-80662081D01*
X107649581Y-80662081D01*
G37*
G36*
X110649581Y-80662081D02*
G01*
X110748228Y-80681703D01*
X110903100Y-80745853D01*
X111042481Y-80838985D01*
X111161015Y-80957519D01*
X111254147Y-81096900D01*
X111318297Y-81251772D01*
X111351000Y-81416184D01*
X111351000Y-81583816D01*
X111318297Y-81748228D01*
X111254147Y-81903100D01*
X111161015Y-82042481D01*
X111042481Y-82161015D01*
X110903100Y-82254147D01*
X110748228Y-82318297D01*
X110649581Y-82337919D01*
X110583818Y-82351000D01*
X110416182Y-82351000D01*
X110350419Y-82337919D01*
X110251772Y-82318297D01*
X110096900Y-82254147D01*
X109957519Y-82161015D01*
X109838985Y-82042481D01*
X109745853Y-81903100D01*
X109681703Y-81748228D01*
X109649000Y-81583816D01*
X109649000Y-81416184D01*
X109681703Y-81251772D01*
X109745853Y-81096900D01*
X109838985Y-80957519D01*
X109957519Y-80838985D01*
X110096900Y-80745853D01*
X110251772Y-80681703D01*
X110350419Y-80662081D01*
X110416182Y-80649000D01*
X110583818Y-80649000D01*
X110649581Y-80662081D01*
X110649581Y-80662081D01*
G37*
G36*
X115544552Y-81278207D02*
G01*
X115580898Y-81289232D01*
X115614401Y-81307140D01*
X115643763Y-81331237D01*
X115667860Y-81360599D01*
X115685768Y-81394102D01*
X115696793Y-81430448D01*
X115701000Y-81473158D01*
X115701000Y-82126842D01*
X115696793Y-82169552D01*
X115685768Y-82205898D01*
X115667860Y-82239401D01*
X115643763Y-82268763D01*
X115614401Y-82292860D01*
X115580898Y-82310768D01*
X115544552Y-82321793D01*
X115501842Y-82326000D01*
X114923158Y-82326000D01*
X114880448Y-82321793D01*
X114844102Y-82310768D01*
X114810599Y-82292860D01*
X114781237Y-82268763D01*
X114757140Y-82239401D01*
X114739232Y-82205898D01*
X114728207Y-82169552D01*
X114724000Y-82126842D01*
X114724000Y-81473158D01*
X114728207Y-81430448D01*
X114739232Y-81394102D01*
X114757140Y-81360599D01*
X114781237Y-81331237D01*
X114810599Y-81307140D01*
X114844102Y-81289232D01*
X114880448Y-81278207D01*
X114923158Y-81274000D01*
X115501842Y-81274000D01*
X115544552Y-81278207D01*
X115544552Y-81278207D01*
G37*
G36*
X117119552Y-81278207D02*
G01*
X117155898Y-81289232D01*
X117189401Y-81307140D01*
X117218763Y-81331237D01*
X117242860Y-81360599D01*
X117260768Y-81394102D01*
X117271793Y-81430448D01*
X117276000Y-81473158D01*
X117276000Y-82126842D01*
X117271793Y-82169552D01*
X117260768Y-82205898D01*
X117242860Y-82239401D01*
X117218763Y-82268763D01*
X117189401Y-82292860D01*
X117155898Y-82310768D01*
X117119552Y-82321793D01*
X117076842Y-82326000D01*
X116498158Y-82326000D01*
X116455448Y-82321793D01*
X116419102Y-82310768D01*
X116385599Y-82292860D01*
X116356237Y-82268763D01*
X116332140Y-82239401D01*
X116314232Y-82205898D01*
X116303207Y-82169552D01*
X116299000Y-82126842D01*
X116299000Y-81473158D01*
X116303207Y-81430448D01*
X116314232Y-81394102D01*
X116332140Y-81360599D01*
X116356237Y-81331237D01*
X116385599Y-81307140D01*
X116419102Y-81289232D01*
X116455448Y-81278207D01*
X116498158Y-81274000D01*
X117076842Y-81274000D01*
X117119552Y-81278207D01*
X117119552Y-81278207D01*
G37*
G36*
X117132052Y-79678207D02*
G01*
X117168398Y-79689232D01*
X117201901Y-79707140D01*
X117231263Y-79731237D01*
X117255360Y-79760599D01*
X117273268Y-79794102D01*
X117284293Y-79830448D01*
X117288500Y-79873158D01*
X117288500Y-80526842D01*
X117284293Y-80569552D01*
X117273268Y-80605898D01*
X117255360Y-80639401D01*
X117231263Y-80668763D01*
X117201901Y-80692860D01*
X117168398Y-80710768D01*
X117132052Y-80721793D01*
X117089342Y-80726000D01*
X116510658Y-80726000D01*
X116467948Y-80721793D01*
X116431602Y-80710768D01*
X116398099Y-80692860D01*
X116368737Y-80668763D01*
X116344640Y-80639401D01*
X116326732Y-80605898D01*
X116315707Y-80569552D01*
X116311500Y-80526842D01*
X116311500Y-79873158D01*
X116315707Y-79830448D01*
X116326732Y-79794102D01*
X116344640Y-79760599D01*
X116368737Y-79731237D01*
X116398099Y-79707140D01*
X116431602Y-79689232D01*
X116467948Y-79678207D01*
X116510658Y-79674000D01*
X117089342Y-79674000D01*
X117132052Y-79678207D01*
X117132052Y-79678207D01*
G37*
G36*
X115557052Y-79678207D02*
G01*
X115593398Y-79689232D01*
X115626901Y-79707140D01*
X115656263Y-79731237D01*
X115680360Y-79760599D01*
X115698268Y-79794102D01*
X115709293Y-79830448D01*
X115713500Y-79873158D01*
X115713500Y-80526842D01*
X115709293Y-80569552D01*
X115698268Y-80605898D01*
X115680360Y-80639401D01*
X115656263Y-80668763D01*
X115626901Y-80692860D01*
X115593398Y-80710768D01*
X115557052Y-80721793D01*
X115514342Y-80726000D01*
X114935658Y-80726000D01*
X114892948Y-80721793D01*
X114856602Y-80710768D01*
X114823099Y-80692860D01*
X114793737Y-80668763D01*
X114769640Y-80639401D01*
X114751732Y-80605898D01*
X114740707Y-80569552D01*
X114736500Y-80526842D01*
X114736500Y-79873158D01*
X114740707Y-79830448D01*
X114751732Y-79794102D01*
X114769640Y-79760599D01*
X114793737Y-79731237D01*
X114823099Y-79707140D01*
X114856602Y-79689232D01*
X114892948Y-79678207D01*
X114935658Y-79674000D01*
X115514342Y-79674000D01*
X115557052Y-79678207D01*
X115557052Y-79678207D01*
G37*
G36*
X119551000Y-80501000D02*
G01*
X117649000Y-80501000D01*
X117649000Y-79399000D01*
X119551000Y-79399000D01*
X119551000Y-80501000D01*
X119551000Y-80501000D01*
G37*
G36*
X110649581Y-78162081D02*
G01*
X110748228Y-78181703D01*
X110903100Y-78245853D01*
X111042481Y-78338985D01*
X111161015Y-78457519D01*
X111254147Y-78596900D01*
X111318297Y-78751772D01*
X111351000Y-78916184D01*
X111351000Y-79083816D01*
X111318297Y-79248228D01*
X111254147Y-79403100D01*
X111161015Y-79542481D01*
X111042481Y-79661015D01*
X110903100Y-79754147D01*
X110748228Y-79818297D01*
X110649581Y-79837919D01*
X110583818Y-79851000D01*
X110416182Y-79851000D01*
X110350419Y-79837919D01*
X110251772Y-79818297D01*
X110096900Y-79754147D01*
X109957519Y-79661015D01*
X109838985Y-79542481D01*
X109745853Y-79403100D01*
X109681703Y-79248228D01*
X109649000Y-79083816D01*
X109649000Y-78916184D01*
X109681703Y-78751772D01*
X109745853Y-78596900D01*
X109838985Y-78457519D01*
X109957519Y-78338985D01*
X110096900Y-78245853D01*
X110251772Y-78181703D01*
X110350419Y-78162081D01*
X110416182Y-78149000D01*
X110583818Y-78149000D01*
X110649581Y-78162081D01*
X110649581Y-78162081D01*
G37*
G36*
X107649581Y-78162081D02*
G01*
X107748228Y-78181703D01*
X107903100Y-78245853D01*
X108042481Y-78338985D01*
X108161015Y-78457519D01*
X108254147Y-78596900D01*
X108318297Y-78751772D01*
X108351000Y-78916184D01*
X108351000Y-79083816D01*
X108318297Y-79248228D01*
X108254147Y-79403100D01*
X108161015Y-79542481D01*
X108042481Y-79661015D01*
X107903100Y-79754147D01*
X107748228Y-79818297D01*
X107649581Y-79837919D01*
X107583818Y-79851000D01*
X107416182Y-79851000D01*
X107350419Y-79837919D01*
X107251772Y-79818297D01*
X107096900Y-79754147D01*
X106957519Y-79661015D01*
X106838985Y-79542481D01*
X106745853Y-79403100D01*
X106681703Y-79248228D01*
X106649000Y-79083816D01*
X106649000Y-78916184D01*
X106681703Y-78751772D01*
X106745853Y-78596900D01*
X106838985Y-78457519D01*
X106957519Y-78338985D01*
X107096900Y-78245853D01*
X107251772Y-78181703D01*
X107350419Y-78162081D01*
X107416182Y-78149000D01*
X107583818Y-78149000D01*
X107649581Y-78162081D01*
X107649581Y-78162081D01*
G37*
G36*
X113801000Y-79701000D02*
G01*
X112199000Y-79701000D01*
X112199000Y-78099000D01*
X113801000Y-78099000D01*
X113801000Y-79701000D01*
X113801000Y-79701000D01*
G37*
G36*
X112924432Y-76303688D02*
G01*
X112965469Y-76316136D01*
X113003288Y-76336351D01*
X113036441Y-76363559D01*
X113063649Y-76396712D01*
X113083864Y-76434531D01*
X113096312Y-76475568D01*
X113101000Y-76523167D01*
X113101000Y-77151833D01*
X113096312Y-77199432D01*
X113083864Y-77240469D01*
X113063649Y-77278288D01*
X113036441Y-77311441D01*
X113003288Y-77338649D01*
X112965469Y-77358864D01*
X112924432Y-77371312D01*
X112876833Y-77376000D01*
X111823167Y-77376000D01*
X111775568Y-77371312D01*
X111734531Y-77358864D01*
X111696712Y-77338649D01*
X111663559Y-77311441D01*
X111636351Y-77278288D01*
X111616136Y-77240469D01*
X111603688Y-77199432D01*
X111599000Y-77151833D01*
X111599000Y-76523167D01*
X111603688Y-76475568D01*
X111616136Y-76434531D01*
X111636351Y-76396712D01*
X111663559Y-76363559D01*
X111696712Y-76336351D01*
X111734531Y-76316136D01*
X111775568Y-76303688D01*
X111823167Y-76299000D01*
X112876833Y-76299000D01*
X112924432Y-76303688D01*
X112924432Y-76303688D01*
G37*
G36*
X116426000Y-77151000D02*
G01*
X114774000Y-77151000D01*
X114774000Y-74649000D01*
X116426000Y-74649000D01*
X116426000Y-77151000D01*
X116426000Y-77151000D01*
G37*
G36*
X117526000Y-77101000D02*
G01*
X116774000Y-77101000D01*
X116774000Y-74699000D01*
X117526000Y-74699000D01*
X117526000Y-77101000D01*
X117526000Y-77101000D01*
G37*
G36*
X114426000Y-77101000D02*
G01*
X113674000Y-77101000D01*
X113674000Y-74699000D01*
X114426000Y-74699000D01*
X114426000Y-77101000D01*
X114426000Y-77101000D01*
G37*
G36*
X120719552Y-74878207D02*
G01*
X120755898Y-74889232D01*
X120789401Y-74907140D01*
X120818763Y-74931237D01*
X120842860Y-74960599D01*
X120860768Y-74994102D01*
X120871793Y-75030448D01*
X120876000Y-75073158D01*
X120876000Y-75726842D01*
X120871793Y-75769552D01*
X120860768Y-75805898D01*
X120842860Y-75839401D01*
X120818763Y-75868763D01*
X120789401Y-75892860D01*
X120755898Y-75910768D01*
X120719552Y-75921793D01*
X120676842Y-75926000D01*
X120098158Y-75926000D01*
X120055448Y-75921793D01*
X120019102Y-75910768D01*
X119985599Y-75892860D01*
X119956237Y-75868763D01*
X119932140Y-75839401D01*
X119914232Y-75805898D01*
X119903207Y-75769552D01*
X119899000Y-75726842D01*
X119899000Y-75073158D01*
X119903207Y-75030448D01*
X119914232Y-74994102D01*
X119932140Y-74960599D01*
X119956237Y-74931237D01*
X119985599Y-74907140D01*
X120019102Y-74889232D01*
X120055448Y-74878207D01*
X120098158Y-74874000D01*
X120676842Y-74874000D01*
X120719552Y-74878207D01*
X120719552Y-74878207D01*
G37*
G36*
X119144552Y-74878207D02*
G01*
X119180898Y-74889232D01*
X119214401Y-74907140D01*
X119243763Y-74931237D01*
X119267860Y-74960599D01*
X119285768Y-74994102D01*
X119296793Y-75030448D01*
X119301000Y-75073158D01*
X119301000Y-75726842D01*
X119296793Y-75769552D01*
X119285768Y-75805898D01*
X119267860Y-75839401D01*
X119243763Y-75868763D01*
X119214401Y-75892860D01*
X119180898Y-75910768D01*
X119144552Y-75921793D01*
X119101842Y-75926000D01*
X118523158Y-75926000D01*
X118480448Y-75921793D01*
X118444102Y-75910768D01*
X118410599Y-75892860D01*
X118381237Y-75868763D01*
X118357140Y-75839401D01*
X118339232Y-75805898D01*
X118328207Y-75769552D01*
X118324000Y-75726842D01*
X118324000Y-75073158D01*
X118328207Y-75030448D01*
X118339232Y-74994102D01*
X118357140Y-74960599D01*
X118381237Y-74931237D01*
X118410599Y-74907140D01*
X118444102Y-74889232D01*
X118480448Y-74878207D01*
X118523158Y-74874000D01*
X119101842Y-74874000D01*
X119144552Y-74878207D01*
X119144552Y-74878207D01*
G37*
G36*
X112924432Y-74428688D02*
G01*
X112965469Y-74441136D01*
X113003288Y-74461351D01*
X113036441Y-74488559D01*
X113063649Y-74521712D01*
X113083864Y-74559531D01*
X113096312Y-74600568D01*
X113101000Y-74648167D01*
X113101000Y-75276833D01*
X113096312Y-75324432D01*
X113083864Y-75365469D01*
X113063649Y-75403288D01*
X113036441Y-75436441D01*
X113003288Y-75463649D01*
X112965469Y-75483864D01*
X112924432Y-75496312D01*
X112876833Y-75501000D01*
X111823167Y-75501000D01*
X111775568Y-75496312D01*
X111734531Y-75483864D01*
X111696712Y-75463649D01*
X111663559Y-75436441D01*
X111636351Y-75403288D01*
X111616136Y-75365469D01*
X111603688Y-75324432D01*
X111599000Y-75276833D01*
X111599000Y-74648167D01*
X111603688Y-74600568D01*
X111616136Y-74559531D01*
X111636351Y-74521712D01*
X111663559Y-74488559D01*
X111696712Y-74461351D01*
X111734531Y-74441136D01*
X111775568Y-74428688D01*
X111823167Y-74424000D01*
X112876833Y-74424000D01*
X112924432Y-74428688D01*
X112924432Y-74428688D01*
G37*
G36*
X106481579Y-71912447D02*
G01*
X106782042Y-72036903D01*
X107052451Y-72217585D01*
X107282415Y-72447549D01*
X107463097Y-72717958D01*
X107587553Y-73018421D01*
X107651000Y-73337391D01*
X107651000Y-73662609D01*
X107587553Y-73981579D01*
X107463097Y-74282042D01*
X107282415Y-74552451D01*
X107052451Y-74782415D01*
X106782042Y-74963097D01*
X106481579Y-75087553D01*
X106162609Y-75151000D01*
X105837391Y-75151000D01*
X105518421Y-75087553D01*
X105217958Y-74963097D01*
X104947549Y-74782415D01*
X104717585Y-74552451D01*
X104536903Y-74282042D01*
X104412447Y-73981579D01*
X104349000Y-73662609D01*
X104349000Y-73337391D01*
X104412447Y-73018421D01*
X104536903Y-72717958D01*
X104717585Y-72447549D01*
X104947549Y-72217585D01*
X105217958Y-72036903D01*
X105518421Y-71912447D01*
X105837391Y-71849000D01*
X106162609Y-71849000D01*
X106481579Y-71912447D01*
X106481579Y-71912447D01*
G37*
G36*
X116432052Y-72728207D02*
G01*
X116468398Y-72739232D01*
X116501901Y-72757140D01*
X116531263Y-72781237D01*
X116555360Y-72810599D01*
X116573268Y-72844102D01*
X116584293Y-72880448D01*
X116588500Y-72923158D01*
X116588500Y-73576842D01*
X116584293Y-73619552D01*
X116573268Y-73655898D01*
X116555360Y-73689401D01*
X116531263Y-73718763D01*
X116501901Y-73742860D01*
X116468398Y-73760768D01*
X116432052Y-73771793D01*
X116389342Y-73776000D01*
X115810658Y-73776000D01*
X115767948Y-73771793D01*
X115731602Y-73760768D01*
X115698099Y-73742860D01*
X115668737Y-73718763D01*
X115644640Y-73689401D01*
X115626732Y-73655898D01*
X115615707Y-73619552D01*
X115611500Y-73576842D01*
X115611500Y-72923158D01*
X115615707Y-72880448D01*
X115626732Y-72844102D01*
X115644640Y-72810599D01*
X115668737Y-72781237D01*
X115698099Y-72757140D01*
X115731602Y-72739232D01*
X115767948Y-72728207D01*
X115810658Y-72724000D01*
X116389342Y-72724000D01*
X116432052Y-72728207D01*
X116432052Y-72728207D01*
G37*
G36*
X114857052Y-72728207D02*
G01*
X114893398Y-72739232D01*
X114926901Y-72757140D01*
X114956263Y-72781237D01*
X114980360Y-72810599D01*
X114998268Y-72844102D01*
X115009293Y-72880448D01*
X115013500Y-72923158D01*
X115013500Y-73576842D01*
X115009293Y-73619552D01*
X114998268Y-73655898D01*
X114980360Y-73689401D01*
X114956263Y-73718763D01*
X114926901Y-73742860D01*
X114893398Y-73760768D01*
X114857052Y-73771793D01*
X114814342Y-73776000D01*
X114235658Y-73776000D01*
X114192948Y-73771793D01*
X114156602Y-73760768D01*
X114123099Y-73742860D01*
X114093737Y-73718763D01*
X114069640Y-73689401D01*
X114051732Y-73655898D01*
X114040707Y-73619552D01*
X114036500Y-73576842D01*
X114036500Y-72923158D01*
X114040707Y-72880448D01*
X114051732Y-72844102D01*
X114069640Y-72810599D01*
X114093737Y-72781237D01*
X114123099Y-72757140D01*
X114156602Y-72739232D01*
X114192948Y-72728207D01*
X114235658Y-72724000D01*
X114814342Y-72724000D01*
X114857052Y-72728207D01*
X114857052Y-72728207D01*
G37*
M02*
