G04 #@! TF.GenerationSoftware,KiCad,Pcbnew,(5.1.4)-1*
G04 #@! TF.CreationDate,2019-12-19T16:51:40-07:00*
G04 #@! TF.ProjectId,CruiseController,43727569-7365-4436-9f6e-74726f6c6c65,rev?*
G04 #@! TF.SameCoordinates,Original*
G04 #@! TF.FileFunction,Legend,Bot*
G04 #@! TF.FilePolarity,Positive*
%FSLAX46Y46*%
G04 Gerber Fmt 4.6, Leading zero omitted, Abs format (unit mm)*
G04 Created by KiCad (PCBNEW (5.1.4)-1) date 2019-12-19 16:51:40*
%MOMM*%
%LPD*%
G04 APERTURE LIST*
%ADD10C,0.120000*%
%ADD11C,0.127000*%
%ADD12C,0.150000*%
%ADD13C,0.050000*%
G04 APERTURE END LIST*
D10*
X100940000Y-76308578D02*
X100940000Y-75791422D01*
X102360000Y-76308578D02*
X102360000Y-75791422D01*
X101910000Y-87340000D02*
X100190000Y-87340000D01*
X101910000Y-92150000D02*
X101910000Y-87340000D01*
X100190000Y-92260000D02*
X100190000Y-87340000D01*
X100650000Y-92260000D02*
X100190000Y-92260000D01*
X114710000Y-102695000D02*
X116175000Y-102695000D01*
X114710000Y-102340000D02*
X114710000Y-102695000D01*
X112700000Y-102340000D02*
X114710000Y-102340000D01*
X110690000Y-102340000D02*
X110690000Y-102695000D01*
X112700000Y-102340000D02*
X110690000Y-102340000D01*
X114710000Y-106660000D02*
X114710000Y-106305000D01*
X112700000Y-106660000D02*
X114710000Y-106660000D01*
X110690000Y-106660000D02*
X110690000Y-106305000D01*
X112700000Y-106660000D02*
X110690000Y-106660000D01*
X104562779Y-90410000D02*
X104237221Y-90410000D01*
X104562779Y-89390000D02*
X104237221Y-89390000D01*
X104512779Y-88860000D02*
X104187221Y-88860000D01*
X104512779Y-87840000D02*
X104187221Y-87840000D01*
X104600279Y-91960000D02*
X104274721Y-91960000D01*
X104600279Y-90940000D02*
X104274721Y-90940000D01*
X115850000Y-94075000D02*
X115625000Y-94075000D01*
X115625000Y-97325000D02*
X115850000Y-97325000D01*
X112825000Y-97325000D02*
X112600000Y-97325000D01*
X115850000Y-94075000D02*
X115850000Y-95050000D01*
X112600000Y-96350000D02*
X112600000Y-97325000D01*
X112600000Y-94075000D02*
X112600000Y-95050000D01*
X115850000Y-96350000D02*
X115850000Y-97325000D01*
X103578922Y-100040000D02*
X104096078Y-100040000D01*
X103578922Y-101460000D02*
X104096078Y-101460000D01*
X113474721Y-88240000D02*
X113800279Y-88240000D01*
X113474721Y-89260000D02*
X113800279Y-89260000D01*
D11*
X98200000Y-78300000D02*
X103351000Y-78300000D01*
X98200000Y-86500000D02*
X98200000Y-78300000D01*
X103351000Y-86500000D02*
X98200000Y-86500000D01*
D10*
X116625279Y-91168000D02*
X116299721Y-91168000D01*
X116625279Y-90148000D02*
X116299721Y-90148000D01*
X112915000Y-100687779D02*
X112915000Y-100362221D01*
X113935000Y-100687779D02*
X113935000Y-100362221D01*
X118912779Y-99768000D02*
X118587221Y-99768000D01*
X118912779Y-98748000D02*
X118587221Y-98748000D01*
X113862779Y-76260000D02*
X113537221Y-76260000D01*
X113862779Y-75240000D02*
X113537221Y-75240000D01*
X110537221Y-72140000D02*
X110862779Y-72140000D01*
X110537221Y-73160000D02*
X110862779Y-73160000D01*
X110487221Y-73690000D02*
X110812779Y-73690000D01*
X110487221Y-74710000D02*
X110812779Y-74710000D01*
X113537221Y-72140000D02*
X113862779Y-72140000D01*
X113537221Y-73160000D02*
X113862779Y-73160000D01*
X112440000Y-78150279D02*
X112440000Y-77824721D01*
X113460000Y-78150279D02*
X113460000Y-77824721D01*
X113499721Y-73690000D02*
X113825279Y-73690000D01*
X113499721Y-74710000D02*
X113825279Y-74710000D01*
X102278922Y-92590000D02*
X102796078Y-92590000D01*
X102278922Y-94010000D02*
X102796078Y-94010000D01*
X120162779Y-78610000D02*
X119837221Y-78610000D01*
X120162779Y-77590000D02*
X119837221Y-77590000D01*
X110487221Y-75240000D02*
X110812779Y-75240000D01*
X110487221Y-76260000D02*
X110812779Y-76260000D01*
X119722500Y-80090000D02*
X120197500Y-80090000D01*
X112977500Y-87310000D02*
X112977500Y-86835000D01*
X113452500Y-87310000D02*
X112977500Y-87310000D01*
X120197500Y-87310000D02*
X120197500Y-86835000D01*
X119722500Y-87310000D02*
X120197500Y-87310000D01*
X112977500Y-80090000D02*
X112977500Y-80565000D01*
X113452500Y-80090000D02*
X112977500Y-80090000D01*
X117240000Y-94423000D02*
X117240000Y-93948000D01*
X120460000Y-97168000D02*
X119985000Y-97168000D01*
X120460000Y-96693000D02*
X120460000Y-97168000D01*
X120460000Y-93948000D02*
X119985000Y-93948000D01*
X120460000Y-94423000D02*
X120460000Y-93948000D01*
X117240000Y-97168000D02*
X117715000Y-97168000D01*
X117240000Y-96693000D02*
X117240000Y-97168000D01*
X104640000Y-80562779D02*
X104640000Y-80237221D01*
X105660000Y-80562779D02*
X105660000Y-80237221D01*
X102249721Y-94490000D02*
X102575279Y-94490000D01*
X102249721Y-95510000D02*
X102575279Y-95510000D01*
X121460000Y-99757721D02*
X121460000Y-100083279D01*
X120440000Y-99757721D02*
X120440000Y-100083279D01*
X115862779Y-100310000D02*
X115537221Y-100310000D01*
X115862779Y-99290000D02*
X115537221Y-99290000D01*
X115950279Y-101810000D02*
X115624721Y-101810000D01*
X115950279Y-100790000D02*
X115624721Y-100790000D01*
X120010000Y-102787221D02*
X120010000Y-103112779D01*
X118990000Y-102787221D02*
X118990000Y-103112779D01*
X118637221Y-100290000D02*
X118962779Y-100290000D01*
X118637221Y-101310000D02*
X118962779Y-101310000D01*
X119712779Y-91160000D02*
X119387221Y-91160000D01*
X119712779Y-90140000D02*
X119387221Y-90140000D01*
X104537221Y-76590000D02*
X104862779Y-76590000D01*
X104537221Y-77610000D02*
X104862779Y-77610000D01*
X116324721Y-91540000D02*
X116650279Y-91540000D01*
X116324721Y-92560000D02*
X116650279Y-92560000D01*
X105310000Y-96900000D02*
X105310000Y-99350000D01*
X102090000Y-98700000D02*
X102090000Y-96900000D01*
D12*
X100157142Y-74107142D02*
X100204761Y-74059523D01*
X100252380Y-73916666D01*
X100252380Y-73821428D01*
X100204761Y-73678571D01*
X100109523Y-73583333D01*
X100014285Y-73535714D01*
X99823809Y-73488095D01*
X99680952Y-73488095D01*
X99490476Y-73535714D01*
X99395238Y-73583333D01*
X99300000Y-73678571D01*
X99252380Y-73821428D01*
X99252380Y-73916666D01*
X99300000Y-74059523D01*
X99347619Y-74107142D01*
X100252380Y-75059523D02*
X100252380Y-74488095D01*
X100252380Y-74773809D02*
X99252380Y-74773809D01*
X99395238Y-74678571D01*
X99490476Y-74583333D01*
X99538095Y-74488095D01*
X100252380Y-76011904D02*
X100252380Y-75440476D01*
X100252380Y-75726190D02*
X99252380Y-75726190D01*
X99395238Y-75630952D01*
X99490476Y-75535714D01*
X99538095Y-75440476D01*
X99702380Y-89061904D02*
X98702380Y-89061904D01*
X98702380Y-89300000D01*
X98750000Y-89442857D01*
X98845238Y-89538095D01*
X98940476Y-89585714D01*
X99130952Y-89633333D01*
X99273809Y-89633333D01*
X99464285Y-89585714D01*
X99559523Y-89538095D01*
X99654761Y-89442857D01*
X99702380Y-89300000D01*
X99702380Y-89061904D01*
X99702380Y-90585714D02*
X99702380Y-90014285D01*
X99702380Y-90300000D02*
X98702380Y-90300000D01*
X98845238Y-90204761D01*
X98940476Y-90109523D01*
X98988095Y-90014285D01*
X113461904Y-103952380D02*
X113461904Y-104761904D01*
X113414285Y-104857142D01*
X113366666Y-104904761D01*
X113271428Y-104952380D01*
X113080952Y-104952380D01*
X112985714Y-104904761D01*
X112938095Y-104857142D01*
X112890476Y-104761904D01*
X112890476Y-103952380D01*
X112461904Y-104047619D02*
X112414285Y-104000000D01*
X112319047Y-103952380D01*
X112080952Y-103952380D01*
X111985714Y-104000000D01*
X111938095Y-104047619D01*
X111890476Y-104142857D01*
X111890476Y-104238095D01*
X111938095Y-104380952D01*
X112509523Y-104952380D01*
X111890476Y-104952380D01*
X105714285Y-87961904D02*
X105980952Y-87580952D01*
X106171428Y-87961904D02*
X106171428Y-87161904D01*
X105866666Y-87161904D01*
X105790476Y-87200000D01*
X105752380Y-87238095D01*
X105714285Y-87314285D01*
X105714285Y-87428571D01*
X105752380Y-87504761D01*
X105790476Y-87542857D01*
X105866666Y-87580952D01*
X106171428Y-87580952D01*
X105409523Y-87238095D02*
X105371428Y-87200000D01*
X105295238Y-87161904D01*
X105104761Y-87161904D01*
X105028571Y-87200000D01*
X104990476Y-87238095D01*
X104952380Y-87314285D01*
X104952380Y-87390476D01*
X104990476Y-87504761D01*
X105447619Y-87961904D01*
X104952380Y-87961904D01*
X104190476Y-87961904D02*
X104647619Y-87961904D01*
X104419047Y-87961904D02*
X104419047Y-87161904D01*
X104495238Y-87276190D01*
X104571428Y-87352380D01*
X104647619Y-87390476D01*
X105639285Y-85936904D02*
X105905952Y-85555952D01*
X106096428Y-85936904D02*
X106096428Y-85136904D01*
X105791666Y-85136904D01*
X105715476Y-85175000D01*
X105677380Y-85213095D01*
X105639285Y-85289285D01*
X105639285Y-85403571D01*
X105677380Y-85479761D01*
X105715476Y-85517857D01*
X105791666Y-85555952D01*
X106096428Y-85555952D01*
X104877380Y-85936904D02*
X105334523Y-85936904D01*
X105105952Y-85936904D02*
X105105952Y-85136904D01*
X105182142Y-85251190D01*
X105258333Y-85327380D01*
X105334523Y-85365476D01*
X104382142Y-85136904D02*
X104305952Y-85136904D01*
X104229761Y-85175000D01*
X104191666Y-85213095D01*
X104153571Y-85289285D01*
X104115476Y-85441666D01*
X104115476Y-85632142D01*
X104153571Y-85784523D01*
X104191666Y-85860714D01*
X104229761Y-85898809D01*
X104305952Y-85936904D01*
X104382142Y-85936904D01*
X104458333Y-85898809D01*
X104496428Y-85860714D01*
X104534523Y-85784523D01*
X104572619Y-85632142D01*
X104572619Y-85441666D01*
X104534523Y-85289285D01*
X104496428Y-85213095D01*
X104458333Y-85175000D01*
X104382142Y-85136904D01*
X105483333Y-93011904D02*
X105750000Y-92630952D01*
X105940476Y-93011904D02*
X105940476Y-92211904D01*
X105635714Y-92211904D01*
X105559523Y-92250000D01*
X105521428Y-92288095D01*
X105483333Y-92364285D01*
X105483333Y-92478571D01*
X105521428Y-92554761D01*
X105559523Y-92592857D01*
X105635714Y-92630952D01*
X105940476Y-92630952D01*
X105102380Y-93011904D02*
X104950000Y-93011904D01*
X104873809Y-92973809D01*
X104835714Y-92935714D01*
X104759523Y-92821428D01*
X104721428Y-92669047D01*
X104721428Y-92364285D01*
X104759523Y-92288095D01*
X104797619Y-92250000D01*
X104873809Y-92211904D01*
X105026190Y-92211904D01*
X105102380Y-92250000D01*
X105140476Y-92288095D01*
X105178571Y-92364285D01*
X105178571Y-92554761D01*
X105140476Y-92630952D01*
X105102380Y-92669047D01*
X105026190Y-92707142D01*
X104873809Y-92707142D01*
X104797619Y-92669047D01*
X104759523Y-92630952D01*
X104721428Y-92554761D01*
X111661904Y-97640476D02*
X112309523Y-97640476D01*
X112385714Y-97678571D01*
X112423809Y-97716666D01*
X112461904Y-97792857D01*
X112461904Y-97945238D01*
X112423809Y-98021428D01*
X112385714Y-98059523D01*
X112309523Y-98097619D01*
X111661904Y-98097619D01*
X112461904Y-98897619D02*
X112461904Y-98440476D01*
X112461904Y-98669047D02*
X111661904Y-98669047D01*
X111776190Y-98592857D01*
X111852380Y-98516666D01*
X111890476Y-98440476D01*
X103970833Y-102685714D02*
X104008928Y-102723809D01*
X104123214Y-102761904D01*
X104199404Y-102761904D01*
X104313690Y-102723809D01*
X104389880Y-102647619D01*
X104427976Y-102571428D01*
X104466071Y-102419047D01*
X104466071Y-102304761D01*
X104427976Y-102152380D01*
X104389880Y-102076190D01*
X104313690Y-102000000D01*
X104199404Y-101961904D01*
X104123214Y-101961904D01*
X104008928Y-102000000D01*
X103970833Y-102038095D01*
X103285119Y-101961904D02*
X103437500Y-101961904D01*
X103513690Y-102000000D01*
X103551785Y-102038095D01*
X103627976Y-102152380D01*
X103666071Y-102304761D01*
X103666071Y-102609523D01*
X103627976Y-102685714D01*
X103589880Y-102723809D01*
X103513690Y-102761904D01*
X103361309Y-102761904D01*
X103285119Y-102723809D01*
X103247023Y-102685714D01*
X103208928Y-102609523D01*
X103208928Y-102419047D01*
X103247023Y-102342857D01*
X103285119Y-102304761D01*
X103361309Y-102266666D01*
X103513690Y-102266666D01*
X103589880Y-102304761D01*
X103627976Y-102342857D01*
X103666071Y-102419047D01*
X116083333Y-89035714D02*
X116121428Y-89073809D01*
X116235714Y-89111904D01*
X116311904Y-89111904D01*
X116426190Y-89073809D01*
X116502380Y-88997619D01*
X116540476Y-88921428D01*
X116578571Y-88769047D01*
X116578571Y-88654761D01*
X116540476Y-88502380D01*
X116502380Y-88426190D01*
X116426190Y-88350000D01*
X116311904Y-88311904D01*
X116235714Y-88311904D01*
X116121428Y-88350000D01*
X116083333Y-88388095D01*
X115321428Y-89111904D02*
X115778571Y-89111904D01*
X115550000Y-89111904D02*
X115550000Y-88311904D01*
X115626190Y-88426190D01*
X115702380Y-88502380D01*
X115778571Y-88540476D01*
D13*
X101211904Y-87033333D02*
X101783333Y-87033333D01*
X101897619Y-86995238D01*
X101973809Y-86919047D01*
X102011904Y-86804761D01*
X102011904Y-86728571D01*
X102011904Y-87833333D02*
X102011904Y-87376190D01*
X102011904Y-87604761D02*
X101211904Y-87604761D01*
X101326190Y-87528571D01*
X101402380Y-87452380D01*
X101440476Y-87376190D01*
X103804359Y-79444711D02*
X104315306Y-79444711D01*
X104375417Y-79474767D01*
X104405473Y-79504823D01*
X104435528Y-79564934D01*
X104435528Y-79685157D01*
X104405473Y-79745268D01*
X104375417Y-79775324D01*
X104315306Y-79805379D01*
X103804359Y-79805379D01*
X104405473Y-80075880D02*
X104435528Y-80166047D01*
X104435528Y-80316326D01*
X104405473Y-80376437D01*
X104375417Y-80406493D01*
X104315306Y-80436548D01*
X104255194Y-80436548D01*
X104195083Y-80406493D01*
X104165027Y-80376437D01*
X104134972Y-80316326D01*
X104104916Y-80196103D01*
X104074860Y-80135992D01*
X104044805Y-80105936D01*
X103984693Y-80075880D01*
X103924582Y-80075880D01*
X103864471Y-80105936D01*
X103834415Y-80135992D01*
X103804359Y-80196103D01*
X103804359Y-80346381D01*
X103834415Y-80436548D01*
X104104916Y-80917439D02*
X104134972Y-81007606D01*
X104165027Y-81037662D01*
X104225139Y-81067717D01*
X104315306Y-81067717D01*
X104375417Y-81037662D01*
X104405473Y-81007606D01*
X104435528Y-80947495D01*
X104435528Y-80707049D01*
X103804359Y-80707049D01*
X103804359Y-80917439D01*
X103834415Y-80977550D01*
X103864471Y-81007606D01*
X103924582Y-81037662D01*
X103984693Y-81037662D01*
X104044805Y-81007606D01*
X104074860Y-80977550D01*
X104104916Y-80917439D01*
X104104916Y-80707049D01*
X104495640Y-81187940D02*
X104495640Y-81668831D01*
X104104916Y-82029499D02*
X104134972Y-82119666D01*
X104165027Y-82149721D01*
X104225139Y-82179777D01*
X104315306Y-82179777D01*
X104375417Y-82149721D01*
X104405473Y-82119666D01*
X104435528Y-82059554D01*
X104435528Y-81819109D01*
X103804359Y-81819109D01*
X103804359Y-82029499D01*
X103834415Y-82089610D01*
X103864471Y-82119666D01*
X103924582Y-82149721D01*
X103984693Y-82149721D01*
X104044805Y-82119666D01*
X104074860Y-82089610D01*
X104104916Y-82029499D01*
X104104916Y-81819109D01*
X104495640Y-82300000D02*
X104495640Y-82780890D01*
X104435528Y-82931169D02*
X103804359Y-82931169D01*
X104255194Y-83141558D01*
X103804359Y-83351948D01*
X104435528Y-83351948D01*
X104435528Y-83652505D02*
X104014749Y-83652505D01*
X103804359Y-83652505D02*
X103834415Y-83622449D01*
X103864471Y-83652505D01*
X103834415Y-83682560D01*
X103804359Y-83652505D01*
X103864471Y-83652505D01*
X104405473Y-84223562D02*
X104435528Y-84163451D01*
X104435528Y-84043228D01*
X104405473Y-83983117D01*
X104375417Y-83953061D01*
X104315306Y-83923006D01*
X104134972Y-83923006D01*
X104074860Y-83953061D01*
X104044805Y-83983117D01*
X104014749Y-84043228D01*
X104014749Y-84163451D01*
X104044805Y-84223562D01*
X104435528Y-84494063D02*
X104014749Y-84494063D01*
X104134972Y-84494063D02*
X104074860Y-84524119D01*
X104044805Y-84554175D01*
X104014749Y-84614286D01*
X104014749Y-84674397D01*
X104435528Y-84974954D02*
X104405473Y-84914843D01*
X104375417Y-84884787D01*
X104315306Y-84854731D01*
X104134972Y-84854731D01*
X104074860Y-84884787D01*
X104044805Y-84914843D01*
X104014749Y-84974954D01*
X104014749Y-85065121D01*
X104044805Y-85125232D01*
X104074860Y-85155288D01*
X104134972Y-85185344D01*
X104315306Y-85185344D01*
X104375417Y-85155288D01*
X104405473Y-85125232D01*
X104435528Y-85065121D01*
X104435528Y-84974954D01*
D12*
X114133333Y-90935714D02*
X114171428Y-90973809D01*
X114285714Y-91011904D01*
X114361904Y-91011904D01*
X114476190Y-90973809D01*
X114552380Y-90897619D01*
X114590476Y-90821428D01*
X114628571Y-90669047D01*
X114628571Y-90554761D01*
X114590476Y-90402380D01*
X114552380Y-90326190D01*
X114476190Y-90250000D01*
X114361904Y-90211904D01*
X114285714Y-90211904D01*
X114171428Y-90250000D01*
X114133333Y-90288095D01*
X113447619Y-90478571D02*
X113447619Y-91011904D01*
X113638095Y-90173809D02*
X113828571Y-90745238D01*
X113333333Y-90745238D01*
X112385714Y-99666666D02*
X112423809Y-99628571D01*
X112461904Y-99514285D01*
X112461904Y-99438095D01*
X112423809Y-99323809D01*
X112347619Y-99247619D01*
X112271428Y-99209523D01*
X112119047Y-99171428D01*
X112004761Y-99171428D01*
X111852380Y-99209523D01*
X111776190Y-99247619D01*
X111700000Y-99323809D01*
X111661904Y-99438095D01*
X111661904Y-99514285D01*
X111700000Y-99628571D01*
X111738095Y-99666666D01*
X111661904Y-100390476D02*
X111661904Y-100009523D01*
X112042857Y-99971428D01*
X112004761Y-100009523D01*
X111966666Y-100085714D01*
X111966666Y-100276190D01*
X112004761Y-100352380D01*
X112042857Y-100390476D01*
X112119047Y-100428571D01*
X112309523Y-100428571D01*
X112385714Y-100390476D01*
X112423809Y-100352380D01*
X112461904Y-100276190D01*
X112461904Y-100085714D01*
X112423809Y-100009523D01*
X112385714Y-99971428D01*
X119233333Y-98485714D02*
X119271428Y-98523809D01*
X119385714Y-98561904D01*
X119461904Y-98561904D01*
X119576190Y-98523809D01*
X119652380Y-98447619D01*
X119690476Y-98371428D01*
X119728571Y-98219047D01*
X119728571Y-98104761D01*
X119690476Y-97952380D01*
X119652380Y-97876190D01*
X119576190Y-97800000D01*
X119461904Y-97761904D01*
X119385714Y-97761904D01*
X119271428Y-97800000D01*
X119233333Y-97838095D01*
X118966666Y-97761904D02*
X118471428Y-97761904D01*
X118738095Y-98066666D01*
X118623809Y-98066666D01*
X118547619Y-98104761D01*
X118509523Y-98142857D01*
X118471428Y-98219047D01*
X118471428Y-98409523D01*
X118509523Y-98485714D01*
X118547619Y-98523809D01*
X118623809Y-98561904D01*
X118852380Y-98561904D01*
X118928571Y-98523809D01*
X118966666Y-98485714D01*
X120214285Y-76011904D02*
X120480952Y-75630952D01*
X120671428Y-76011904D02*
X120671428Y-75211904D01*
X120366666Y-75211904D01*
X120290476Y-75250000D01*
X120252380Y-75288095D01*
X120214285Y-75364285D01*
X120214285Y-75478571D01*
X120252380Y-75554761D01*
X120290476Y-75592857D01*
X120366666Y-75630952D01*
X120671428Y-75630952D01*
X119452380Y-76011904D02*
X119909523Y-76011904D01*
X119680952Y-76011904D02*
X119680952Y-75211904D01*
X119757142Y-75326190D01*
X119833333Y-75402380D01*
X119909523Y-75440476D01*
X118995238Y-75554761D02*
X119071428Y-75516666D01*
X119109523Y-75478571D01*
X119147619Y-75402380D01*
X119147619Y-75364285D01*
X119109523Y-75288095D01*
X119071428Y-75250000D01*
X118995238Y-75211904D01*
X118842857Y-75211904D01*
X118766666Y-75250000D01*
X118728571Y-75288095D01*
X118690476Y-75364285D01*
X118690476Y-75402380D01*
X118728571Y-75478571D01*
X118766666Y-75516666D01*
X118842857Y-75554761D01*
X118995238Y-75554761D01*
X119071428Y-75592857D01*
X119109523Y-75630952D01*
X119147619Y-75707142D01*
X119147619Y-75859523D01*
X119109523Y-75935714D01*
X119071428Y-75973809D01*
X118995238Y-76011904D01*
X118842857Y-76011904D01*
X118766666Y-75973809D01*
X118728571Y-75935714D01*
X118690476Y-75859523D01*
X118690476Y-75707142D01*
X118728571Y-75630952D01*
X118766666Y-75592857D01*
X118842857Y-75554761D01*
X116989285Y-73036904D02*
X117255952Y-72655952D01*
X117446428Y-73036904D02*
X117446428Y-72236904D01*
X117141666Y-72236904D01*
X117065476Y-72275000D01*
X117027380Y-72313095D01*
X116989285Y-72389285D01*
X116989285Y-72503571D01*
X117027380Y-72579761D01*
X117065476Y-72617857D01*
X117141666Y-72655952D01*
X117446428Y-72655952D01*
X116227380Y-73036904D02*
X116684523Y-73036904D01*
X116455952Y-73036904D02*
X116455952Y-72236904D01*
X116532142Y-72351190D01*
X116608333Y-72427380D01*
X116684523Y-72465476D01*
X115960714Y-72236904D02*
X115427380Y-72236904D01*
X115770238Y-73036904D01*
X116964285Y-74611904D02*
X117230952Y-74230952D01*
X117421428Y-74611904D02*
X117421428Y-73811904D01*
X117116666Y-73811904D01*
X117040476Y-73850000D01*
X117002380Y-73888095D01*
X116964285Y-73964285D01*
X116964285Y-74078571D01*
X117002380Y-74154761D01*
X117040476Y-74192857D01*
X117116666Y-74230952D01*
X117421428Y-74230952D01*
X116202380Y-74611904D02*
X116659523Y-74611904D01*
X116430952Y-74611904D02*
X116430952Y-73811904D01*
X116507142Y-73926190D01*
X116583333Y-74002380D01*
X116659523Y-74040476D01*
X115516666Y-73811904D02*
X115669047Y-73811904D01*
X115745238Y-73850000D01*
X115783333Y-73888095D01*
X115859523Y-74002380D01*
X115897619Y-74154761D01*
X115897619Y-74459523D01*
X115859523Y-74535714D01*
X115821428Y-74573809D01*
X115745238Y-74611904D01*
X115592857Y-74611904D01*
X115516666Y-74573809D01*
X115478571Y-74535714D01*
X115440476Y-74459523D01*
X115440476Y-74269047D01*
X115478571Y-74192857D01*
X115516666Y-74154761D01*
X115592857Y-74116666D01*
X115745238Y-74116666D01*
X115821428Y-74154761D01*
X115859523Y-74192857D01*
X115897619Y-74269047D01*
X120164285Y-73261904D02*
X120430952Y-72880952D01*
X120621428Y-73261904D02*
X120621428Y-72461904D01*
X120316666Y-72461904D01*
X120240476Y-72500000D01*
X120202380Y-72538095D01*
X120164285Y-72614285D01*
X120164285Y-72728571D01*
X120202380Y-72804761D01*
X120240476Y-72842857D01*
X120316666Y-72880952D01*
X120621428Y-72880952D01*
X119859523Y-72538095D02*
X119821428Y-72500000D01*
X119745238Y-72461904D01*
X119554761Y-72461904D01*
X119478571Y-72500000D01*
X119440476Y-72538095D01*
X119402380Y-72614285D01*
X119402380Y-72690476D01*
X119440476Y-72804761D01*
X119897619Y-73261904D01*
X119402380Y-73261904D01*
X118907142Y-72461904D02*
X118830952Y-72461904D01*
X118754761Y-72500000D01*
X118716666Y-72538095D01*
X118678571Y-72614285D01*
X118640476Y-72766666D01*
X118640476Y-72957142D01*
X118678571Y-73109523D01*
X118716666Y-73185714D01*
X118754761Y-73223809D01*
X118830952Y-73261904D01*
X118907142Y-73261904D01*
X118983333Y-73223809D01*
X119021428Y-73185714D01*
X119059523Y-73109523D01*
X119097619Y-72957142D01*
X119097619Y-72766666D01*
X119059523Y-72614285D01*
X119021428Y-72538095D01*
X118983333Y-72500000D01*
X118907142Y-72461904D01*
X114785714Y-77110714D02*
X114823809Y-77072619D01*
X114861904Y-76958333D01*
X114861904Y-76882142D01*
X114823809Y-76767857D01*
X114747619Y-76691666D01*
X114671428Y-76653571D01*
X114519047Y-76615476D01*
X114404761Y-76615476D01*
X114252380Y-76653571D01*
X114176190Y-76691666D01*
X114100000Y-76767857D01*
X114061904Y-76882142D01*
X114061904Y-76958333D01*
X114100000Y-77072619D01*
X114138095Y-77110714D01*
X114861904Y-77872619D02*
X114861904Y-77415476D01*
X114861904Y-77644047D02*
X114061904Y-77644047D01*
X114176190Y-77567857D01*
X114252380Y-77491666D01*
X114290476Y-77415476D01*
X114404761Y-78329761D02*
X114366666Y-78253571D01*
X114328571Y-78215476D01*
X114252380Y-78177380D01*
X114214285Y-78177380D01*
X114138095Y-78215476D01*
X114100000Y-78253571D01*
X114061904Y-78329761D01*
X114061904Y-78482142D01*
X114100000Y-78558333D01*
X114138095Y-78596428D01*
X114214285Y-78634523D01*
X114252380Y-78634523D01*
X114328571Y-78596428D01*
X114366666Y-78558333D01*
X114404761Y-78482142D01*
X114404761Y-78329761D01*
X114442857Y-78253571D01*
X114480952Y-78215476D01*
X114557142Y-78177380D01*
X114709523Y-78177380D01*
X114785714Y-78215476D01*
X114823809Y-78253571D01*
X114861904Y-78329761D01*
X114861904Y-78482142D01*
X114823809Y-78558333D01*
X114785714Y-78596428D01*
X114709523Y-78634523D01*
X114557142Y-78634523D01*
X114480952Y-78596428D01*
X114442857Y-78558333D01*
X114404761Y-78482142D01*
X120239285Y-74711904D02*
X120505952Y-74330952D01*
X120696428Y-74711904D02*
X120696428Y-73911904D01*
X120391666Y-73911904D01*
X120315476Y-73950000D01*
X120277380Y-73988095D01*
X120239285Y-74064285D01*
X120239285Y-74178571D01*
X120277380Y-74254761D01*
X120315476Y-74292857D01*
X120391666Y-74330952D01*
X120696428Y-74330952D01*
X119477380Y-74711904D02*
X119934523Y-74711904D01*
X119705952Y-74711904D02*
X119705952Y-73911904D01*
X119782142Y-74026190D01*
X119858333Y-74102380D01*
X119934523Y-74140476D01*
X119096428Y-74711904D02*
X118944047Y-74711904D01*
X118867857Y-74673809D01*
X118829761Y-74635714D01*
X118753571Y-74521428D01*
X118715476Y-74369047D01*
X118715476Y-74064285D01*
X118753571Y-73988095D01*
X118791666Y-73950000D01*
X118867857Y-73911904D01*
X119020238Y-73911904D01*
X119096428Y-73950000D01*
X119134523Y-73988095D01*
X119172619Y-74064285D01*
X119172619Y-74254761D01*
X119134523Y-74330952D01*
X119096428Y-74369047D01*
X119020238Y-74407142D01*
X118867857Y-74407142D01*
X118791666Y-74369047D01*
X118753571Y-74330952D01*
X118715476Y-74254761D01*
X105914285Y-94135714D02*
X105952380Y-94173809D01*
X106066666Y-94211904D01*
X106142857Y-94211904D01*
X106257142Y-94173809D01*
X106333333Y-94097619D01*
X106371428Y-94021428D01*
X106409523Y-93869047D01*
X106409523Y-93754761D01*
X106371428Y-93602380D01*
X106333333Y-93526190D01*
X106257142Y-93450000D01*
X106142857Y-93411904D01*
X106066666Y-93411904D01*
X105952380Y-93450000D01*
X105914285Y-93488095D01*
X105152380Y-94211904D02*
X105609523Y-94211904D01*
X105380952Y-94211904D02*
X105380952Y-93411904D01*
X105457142Y-93526190D01*
X105533333Y-93602380D01*
X105609523Y-93640476D01*
X104657142Y-93411904D02*
X104580952Y-93411904D01*
X104504761Y-93450000D01*
X104466666Y-93488095D01*
X104428571Y-93564285D01*
X104390476Y-93716666D01*
X104390476Y-93907142D01*
X104428571Y-94059523D01*
X104466666Y-94135714D01*
X104504761Y-94173809D01*
X104580952Y-94211904D01*
X104657142Y-94211904D01*
X104733333Y-94173809D01*
X104771428Y-94135714D01*
X104809523Y-94059523D01*
X104847619Y-93907142D01*
X104847619Y-93716666D01*
X104809523Y-93564285D01*
X104771428Y-93488095D01*
X104733333Y-93450000D01*
X104657142Y-93411904D01*
X117764285Y-78460714D02*
X117802380Y-78498809D01*
X117916666Y-78536904D01*
X117992857Y-78536904D01*
X118107142Y-78498809D01*
X118183333Y-78422619D01*
X118221428Y-78346428D01*
X118259523Y-78194047D01*
X118259523Y-78079761D01*
X118221428Y-77927380D01*
X118183333Y-77851190D01*
X118107142Y-77775000D01*
X117992857Y-77736904D01*
X117916666Y-77736904D01*
X117802380Y-77775000D01*
X117764285Y-77813095D01*
X117459523Y-77813095D02*
X117421428Y-77775000D01*
X117345238Y-77736904D01*
X117154761Y-77736904D01*
X117078571Y-77775000D01*
X117040476Y-77813095D01*
X117002380Y-77889285D01*
X117002380Y-77965476D01*
X117040476Y-78079761D01*
X117497619Y-78536904D01*
X117002380Y-78536904D01*
X116240476Y-78536904D02*
X116697619Y-78536904D01*
X116469047Y-78536904D02*
X116469047Y-77736904D01*
X116545238Y-77851190D01*
X116621428Y-77927380D01*
X116697619Y-77965476D01*
X117089285Y-76036904D02*
X117355952Y-75655952D01*
X117546428Y-76036904D02*
X117546428Y-75236904D01*
X117241666Y-75236904D01*
X117165476Y-75275000D01*
X117127380Y-75313095D01*
X117089285Y-75389285D01*
X117089285Y-75503571D01*
X117127380Y-75579761D01*
X117165476Y-75617857D01*
X117241666Y-75655952D01*
X117546428Y-75655952D01*
X116327380Y-76036904D02*
X116784523Y-76036904D01*
X116555952Y-76036904D02*
X116555952Y-75236904D01*
X116632142Y-75351190D01*
X116708333Y-75427380D01*
X116784523Y-75465476D01*
X115603571Y-75236904D02*
X115984523Y-75236904D01*
X116022619Y-75617857D01*
X115984523Y-75579761D01*
X115908333Y-75541666D01*
X115717857Y-75541666D01*
X115641666Y-75579761D01*
X115603571Y-75617857D01*
X115565476Y-75694047D01*
X115565476Y-75884523D01*
X115603571Y-75960714D01*
X115641666Y-75998809D01*
X115717857Y-76036904D01*
X115908333Y-76036904D01*
X115984523Y-75998809D01*
X116022619Y-75960714D01*
X121259523Y-78961904D02*
X121259523Y-79609523D01*
X121221428Y-79685714D01*
X121183333Y-79723809D01*
X121107142Y-79761904D01*
X120954761Y-79761904D01*
X120878571Y-79723809D01*
X120840476Y-79685714D01*
X120802380Y-79609523D01*
X120802380Y-78961904D01*
X120497619Y-78961904D02*
X119964285Y-78961904D01*
X120307142Y-79761904D01*
X120859523Y-92711904D02*
X120859523Y-93359523D01*
X120821428Y-93435714D01*
X120783333Y-93473809D01*
X120707142Y-93511904D01*
X120554761Y-93511904D01*
X120478571Y-93473809D01*
X120440476Y-93435714D01*
X120402380Y-93359523D01*
X120402380Y-92711904D01*
X120097619Y-92711904D02*
X119602380Y-92711904D01*
X119869047Y-93016666D01*
X119754761Y-93016666D01*
X119678571Y-93054761D01*
X119640476Y-93092857D01*
X119602380Y-93169047D01*
X119602380Y-93359523D01*
X119640476Y-93435714D01*
X119678571Y-93473809D01*
X119754761Y-93511904D01*
X119983333Y-93511904D01*
X120059523Y-93473809D01*
X120097619Y-93435714D01*
X105461904Y-82848214D02*
X105080952Y-82581547D01*
X105461904Y-82391071D02*
X104661904Y-82391071D01*
X104661904Y-82695833D01*
X104700000Y-82772023D01*
X104738095Y-82810119D01*
X104814285Y-82848214D01*
X104928571Y-82848214D01*
X105004761Y-82810119D01*
X105042857Y-82772023D01*
X105080952Y-82695833D01*
X105080952Y-82391071D01*
X104738095Y-83152976D02*
X104700000Y-83191071D01*
X104661904Y-83267261D01*
X104661904Y-83457738D01*
X104700000Y-83533928D01*
X104738095Y-83572023D01*
X104814285Y-83610119D01*
X104890476Y-83610119D01*
X105004761Y-83572023D01*
X105461904Y-83114880D01*
X105461904Y-83610119D01*
X104661904Y-84295833D02*
X104661904Y-84143452D01*
X104700000Y-84067261D01*
X104738095Y-84029166D01*
X104852380Y-83952976D01*
X105004761Y-83914880D01*
X105309523Y-83914880D01*
X105385714Y-83952976D01*
X105423809Y-83991071D01*
X105461904Y-84067261D01*
X105461904Y-84219642D01*
X105423809Y-84295833D01*
X105385714Y-84333928D01*
X105309523Y-84372023D01*
X105119047Y-84372023D01*
X105042857Y-84333928D01*
X105004761Y-84295833D01*
X104966666Y-84219642D01*
X104966666Y-84067261D01*
X105004761Y-83991071D01*
X105042857Y-83952976D01*
X105119047Y-83914880D01*
X105133333Y-95335714D02*
X105171428Y-95373809D01*
X105285714Y-95411904D01*
X105361904Y-95411904D01*
X105476190Y-95373809D01*
X105552380Y-95297619D01*
X105590476Y-95221428D01*
X105628571Y-95069047D01*
X105628571Y-94954761D01*
X105590476Y-94802380D01*
X105552380Y-94726190D01*
X105476190Y-94650000D01*
X105361904Y-94611904D01*
X105285714Y-94611904D01*
X105171428Y-94650000D01*
X105133333Y-94688095D01*
X104752380Y-95411904D02*
X104600000Y-95411904D01*
X104523809Y-95373809D01*
X104485714Y-95335714D01*
X104409523Y-95221428D01*
X104371428Y-95069047D01*
X104371428Y-94764285D01*
X104409523Y-94688095D01*
X104447619Y-94650000D01*
X104523809Y-94611904D01*
X104676190Y-94611904D01*
X104752380Y-94650000D01*
X104790476Y-94688095D01*
X104828571Y-94764285D01*
X104828571Y-94954761D01*
X104790476Y-95030952D01*
X104752380Y-95069047D01*
X104676190Y-95107142D01*
X104523809Y-95107142D01*
X104447619Y-95069047D01*
X104409523Y-95030952D01*
X104371428Y-94954761D01*
X121585714Y-102066666D02*
X121623809Y-102028571D01*
X121661904Y-101914285D01*
X121661904Y-101838095D01*
X121623809Y-101723809D01*
X121547619Y-101647619D01*
X121471428Y-101609523D01*
X121319047Y-101571428D01*
X121204761Y-101571428D01*
X121052380Y-101609523D01*
X120976190Y-101647619D01*
X120900000Y-101723809D01*
X120861904Y-101838095D01*
X120861904Y-101914285D01*
X120900000Y-102028571D01*
X120938095Y-102066666D01*
X121204761Y-102523809D02*
X121166666Y-102447619D01*
X121128571Y-102409523D01*
X121052380Y-102371428D01*
X121014285Y-102371428D01*
X120938095Y-102409523D01*
X120900000Y-102447619D01*
X120861904Y-102523809D01*
X120861904Y-102676190D01*
X120900000Y-102752380D01*
X120938095Y-102790476D01*
X121014285Y-102828571D01*
X121052380Y-102828571D01*
X121128571Y-102790476D01*
X121166666Y-102752380D01*
X121204761Y-102676190D01*
X121204761Y-102523809D01*
X121242857Y-102447619D01*
X121280952Y-102409523D01*
X121357142Y-102371428D01*
X121509523Y-102371428D01*
X121585714Y-102409523D01*
X121623809Y-102447619D01*
X121661904Y-102523809D01*
X121661904Y-102676190D01*
X121623809Y-102752380D01*
X121585714Y-102790476D01*
X121509523Y-102828571D01*
X121357142Y-102828571D01*
X121280952Y-102790476D01*
X121242857Y-102752380D01*
X121204761Y-102676190D01*
X116558333Y-98836904D02*
X116825000Y-98455952D01*
X117015476Y-98836904D02*
X117015476Y-98036904D01*
X116710714Y-98036904D01*
X116634523Y-98075000D01*
X116596428Y-98113095D01*
X116558333Y-98189285D01*
X116558333Y-98303571D01*
X116596428Y-98379761D01*
X116634523Y-98417857D01*
X116710714Y-98455952D01*
X117015476Y-98455952D01*
X116291666Y-98036904D02*
X115758333Y-98036904D01*
X116101190Y-98836904D01*
X116633333Y-102861904D02*
X116900000Y-102480952D01*
X117090476Y-102861904D02*
X117090476Y-102061904D01*
X116785714Y-102061904D01*
X116709523Y-102100000D01*
X116671428Y-102138095D01*
X116633333Y-102214285D01*
X116633333Y-102328571D01*
X116671428Y-102404761D01*
X116709523Y-102442857D01*
X116785714Y-102480952D01*
X117090476Y-102480952D01*
X116366666Y-102061904D02*
X115871428Y-102061904D01*
X116138095Y-102366666D01*
X116023809Y-102366666D01*
X115947619Y-102404761D01*
X115909523Y-102442857D01*
X115871428Y-102519047D01*
X115871428Y-102709523D01*
X115909523Y-102785714D01*
X115947619Y-102823809D01*
X116023809Y-102861904D01*
X116252380Y-102861904D01*
X116328571Y-102823809D01*
X116366666Y-102785714D01*
X120436904Y-105116666D02*
X120055952Y-104850000D01*
X120436904Y-104659523D02*
X119636904Y-104659523D01*
X119636904Y-104964285D01*
X119675000Y-105040476D01*
X119713095Y-105078571D01*
X119789285Y-105116666D01*
X119903571Y-105116666D01*
X119979761Y-105078571D01*
X120017857Y-105040476D01*
X120055952Y-104964285D01*
X120055952Y-104659523D01*
X119903571Y-105802380D02*
X120436904Y-105802380D01*
X119598809Y-105611904D02*
X120170238Y-105421428D01*
X120170238Y-105916666D01*
X118033333Y-102761904D02*
X118300000Y-102380952D01*
X118490476Y-102761904D02*
X118490476Y-101961904D01*
X118185714Y-101961904D01*
X118109523Y-102000000D01*
X118071428Y-102038095D01*
X118033333Y-102114285D01*
X118033333Y-102228571D01*
X118071428Y-102304761D01*
X118109523Y-102342857D01*
X118185714Y-102380952D01*
X118490476Y-102380952D01*
X117309523Y-101961904D02*
X117690476Y-101961904D01*
X117728571Y-102342857D01*
X117690476Y-102304761D01*
X117614285Y-102266666D01*
X117423809Y-102266666D01*
X117347619Y-102304761D01*
X117309523Y-102342857D01*
X117271428Y-102419047D01*
X117271428Y-102609523D01*
X117309523Y-102685714D01*
X117347619Y-102723809D01*
X117423809Y-102761904D01*
X117614285Y-102761904D01*
X117690476Y-102723809D01*
X117728571Y-102685714D01*
X119520833Y-89553904D02*
X119787500Y-89172952D01*
X119977976Y-89553904D02*
X119977976Y-88753904D01*
X119673214Y-88753904D01*
X119597023Y-88792000D01*
X119558928Y-88830095D01*
X119520833Y-88906285D01*
X119520833Y-89020571D01*
X119558928Y-89096761D01*
X119597023Y-89134857D01*
X119673214Y-89172952D01*
X119977976Y-89172952D01*
X119216071Y-88830095D02*
X119177976Y-88792000D01*
X119101785Y-88753904D01*
X118911309Y-88753904D01*
X118835119Y-88792000D01*
X118797023Y-88830095D01*
X118758928Y-88906285D01*
X118758928Y-88982476D01*
X118797023Y-89096761D01*
X119254166Y-89553904D01*
X118758928Y-89553904D01*
X107183333Y-77411904D02*
X107450000Y-77030952D01*
X107640476Y-77411904D02*
X107640476Y-76611904D01*
X107335714Y-76611904D01*
X107259523Y-76650000D01*
X107221428Y-76688095D01*
X107183333Y-76764285D01*
X107183333Y-76878571D01*
X107221428Y-76954761D01*
X107259523Y-76992857D01*
X107335714Y-77030952D01*
X107640476Y-77030952D01*
X106421428Y-77411904D02*
X106878571Y-77411904D01*
X106650000Y-77411904D02*
X106650000Y-76611904D01*
X106726190Y-76726190D01*
X106802380Y-76802380D01*
X106878571Y-76840476D01*
X114333333Y-92503904D02*
X114600000Y-92122952D01*
X114790476Y-92503904D02*
X114790476Y-91703904D01*
X114485714Y-91703904D01*
X114409523Y-91742000D01*
X114371428Y-91780095D01*
X114333333Y-91856285D01*
X114333333Y-91970571D01*
X114371428Y-92046761D01*
X114409523Y-92084857D01*
X114485714Y-92122952D01*
X114790476Y-92122952D01*
X113647619Y-91703904D02*
X113800000Y-91703904D01*
X113876190Y-91742000D01*
X113914285Y-91780095D01*
X113990476Y-91894380D01*
X114028571Y-92046761D01*
X114028571Y-92351523D01*
X113990476Y-92427714D01*
X113952380Y-92465809D01*
X113876190Y-92503904D01*
X113723809Y-92503904D01*
X113647619Y-92465809D01*
X113609523Y-92427714D01*
X113571428Y-92351523D01*
X113571428Y-92161047D01*
X113609523Y-92084857D01*
X113647619Y-92046761D01*
X113723809Y-92008666D01*
X113876190Y-92008666D01*
X113952380Y-92046761D01*
X113990476Y-92084857D01*
X114028571Y-92161047D01*
X106609523Y-97411904D02*
X106609523Y-98059523D01*
X106571428Y-98135714D01*
X106533333Y-98173809D01*
X106457142Y-98211904D01*
X106304761Y-98211904D01*
X106228571Y-98173809D01*
X106190476Y-98135714D01*
X106152380Y-98059523D01*
X106152380Y-97411904D01*
X105390476Y-97411904D02*
X105771428Y-97411904D01*
X105809523Y-97792857D01*
X105771428Y-97754761D01*
X105695238Y-97716666D01*
X105504761Y-97716666D01*
X105428571Y-97754761D01*
X105390476Y-97792857D01*
X105352380Y-97869047D01*
X105352380Y-98059523D01*
X105390476Y-98135714D01*
X105428571Y-98173809D01*
X105504761Y-98211904D01*
X105695238Y-98211904D01*
X105771428Y-98173809D01*
X105809523Y-98135714D01*
M02*
