M48
; DRILL file {KiCad (5.1.4)-1} date 19-Dec-19 4:51:43 PM
; FORMAT={-:-/ absolute / inch / decimal}
; #@! TF.CreationDate,2019-12-19T16:51:43-07:00
; #@! TF.GenerationSoftware,Kicad,Pcbnew,(5.1.4)-1
; #@! TF.FileFunction,Plated,1,2,PTH
FMAT,2
INCH
T1C0.0118
T2C0.0276
T3C0.0433
%
G90
G05
T1
X3.937Y-3.2441
X3.9547Y-3.6732
X3.9921Y-4.0512
X4.0039Y-2.815
X4.0236Y-3.3898
X4.0413Y-3.4419
X4.0669Y-4.0551
X4.0827Y-3.8504
X4.1083Y-3.0866
X4.1339Y-3.6575
X4.1378Y-3.7205
X4.1811Y-3.6496
X4.2717Y-2.8425
X4.2756Y-2.9732
X4.2874Y-3.8543
X4.2968Y-3.0315
X4.3858Y-4.1142
X4.4035Y-3.1614
X4.4154Y-2.8445
X4.4154Y-2.9016
X4.4193Y-3.6752
X4.4291Y-3.5787
X4.4528Y-3.5433
X4.4947Y-3.8681
X4.4961Y-3.0551
X4.4961Y-3.0984
X4.4961Y-3.7795
X4.502Y-3.6339
X4.5039Y-3.2205
X4.5433Y-4.2008
X4.5492Y-3.8711
X4.5866Y-3.6673
X4.5906Y-3.3346
X4.6063Y-3.0709
X4.6161Y-2.872
X4.628Y-4.0925
X4.6357Y-3.4742
X4.6457Y-2.9016
X4.6457Y-3.8661
X4.6457Y-4.0079
X4.6732Y-3.0236
X4.6772Y-3.7717
X4.6929Y-3.6554
X4.7244Y-2.9232
X4.7244Y-3.0157
X4.7343Y-2.8189
X4.7441Y-3.4843
X4.748Y-3.5197
X4.748Y-4.1732
X4.748Y-3.4409
X4.7638Y-4.0079
X4.7717Y-3.2992
X4.7717Y-3.3386
X4.7732Y-3.2583
X4.7732Y-3.2165
T2
X4.6614Y-4.1575
T3
X4.2323Y-3.1102
X4.2323Y-3.2087
X4.2323Y-3.3071
X4.2323Y-3.4055
X4.2323Y-3.5039
X4.2323Y-3.6024
X4.2323Y-3.7008
X4.2323Y-3.7992
X4.2323Y-3.8976
X4.3504Y-3.1102
X4.3504Y-3.2087
X4.3504Y-3.3071
X4.3504Y-3.4055
X4.3504Y-3.5039
X4.3504Y-3.6024
X4.3504Y-3.7008
X4.3504Y-3.7992
X4.3504Y-3.8976
T0
M30
