G04 #@! TF.GenerationSoftware,KiCad,Pcbnew,(5.1.4)-1*
G04 #@! TF.CreationDate,2019-12-19T16:51:40-07:00*
G04 #@! TF.ProjectId,CruiseController,43727569-7365-4436-9f6e-74726f6c6c65,rev?*
G04 #@! TF.SameCoordinates,Original*
G04 #@! TF.FileFunction,Legend,Top*
G04 #@! TF.FilePolarity,Positive*
%FSLAX46Y46*%
G04 Gerber Fmt 4.6, Leading zero omitted, Abs format (unit mm)*
G04 Created by KiCad (PCBNEW (5.1.4)-1) date 2019-12-19 16:51:40*
%MOMM*%
%LPD*%
G04 APERTURE LIST*
%ADD10C,0.120000*%
%ADD11C,0.150000*%
G04 APERTURE END LIST*
D10*
X112000000Y-70000000D02*
X100000000Y-70000000D01*
X112000000Y-108000000D02*
X112000000Y-70000000D01*
X100000000Y-108000000D02*
X112000000Y-108000000D01*
X100000000Y-70000000D02*
X100000000Y-108000000D01*
X120910000Y-104250279D02*
X120910000Y-103924721D01*
X119890000Y-104250279D02*
X119890000Y-103924721D01*
X120310000Y-101262779D02*
X120310000Y-100937221D01*
X119290000Y-101262779D02*
X119290000Y-100937221D01*
X111640000Y-75641422D02*
X111640000Y-76158578D01*
X113060000Y-75641422D02*
X113060000Y-76158578D01*
X112050000Y-79850000D02*
X112050000Y-77950000D01*
X113950000Y-79850000D02*
X112050000Y-79850000D01*
X113950000Y-77950000D02*
X113950000Y-79850000D01*
X112050000Y-77950000D02*
X113950000Y-77950000D01*
X119350000Y-105600000D02*
G75*
G03X119350000Y-105600000I-950000J0D01*
G01*
X114350000Y-99650000D02*
X114350000Y-103550000D01*
X112350000Y-99650000D02*
X112350000Y-103550000D01*
X114350000Y-99650000D02*
X112350000Y-99650000D01*
X113462779Y-94590000D02*
X113137221Y-94590000D01*
X113462779Y-95610000D02*
X113137221Y-95610000D01*
X115849721Y-80710000D02*
X116175279Y-80710000D01*
X115849721Y-79690000D02*
X116175279Y-79690000D01*
X115037221Y-86310000D02*
X115362779Y-86310000D01*
X115037221Y-85290000D02*
X115362779Y-85290000D01*
X115362779Y-87890000D02*
X115037221Y-87890000D01*
X115362779Y-88910000D02*
X115037221Y-88910000D01*
X118524721Y-87510000D02*
X118850279Y-87510000D01*
X118524721Y-86490000D02*
X118850279Y-86490000D01*
X118862779Y-84240000D02*
X118537221Y-84240000D01*
X118862779Y-85260000D02*
X118537221Y-85260000D01*
X119437221Y-75910000D02*
X119762779Y-75910000D01*
X119437221Y-74890000D02*
X119762779Y-74890000D01*
X115837221Y-82310000D02*
X116162779Y-82310000D01*
X115837221Y-81290000D02*
X116162779Y-81290000D01*
X119500000Y-79250000D02*
X117700000Y-79250000D01*
X117650000Y-80650000D02*
X117650000Y-81750000D01*
X119550000Y-80650000D02*
X119550000Y-81750000D01*
X118850279Y-90390000D02*
X118524721Y-90390000D01*
X118850279Y-91410000D02*
X118524721Y-91410000D01*
X115362779Y-82990000D02*
X115037221Y-82990000D01*
X115362779Y-84010000D02*
X115037221Y-84010000D01*
X114040000Y-77460000D02*
X114040000Y-77310000D01*
X117160000Y-77460000D02*
X117160000Y-77310000D01*
X117160000Y-74340000D02*
X117160000Y-74490000D01*
X117160000Y-77460000D02*
X114040000Y-77460000D01*
X117160000Y-74340000D02*
X114040000Y-74340000D01*
X114040000Y-74340000D02*
X114040000Y-74490000D01*
X117160000Y-77310000D02*
X117420000Y-77310000D01*
X115149721Y-73760000D02*
X115475279Y-73760000D01*
X115149721Y-72740000D02*
X115475279Y-72740000D01*
X115350279Y-86590000D02*
X115024721Y-86590000D01*
X115350279Y-87610000D02*
X115024721Y-87610000D01*
X118310000Y-95162779D02*
X118310000Y-94837221D01*
X117290000Y-95162779D02*
X117290000Y-94837221D01*
X118850279Y-89090000D02*
X118524721Y-89090000D01*
X118850279Y-90110000D02*
X118524721Y-90110000D01*
X116550000Y-99700000D02*
X116550000Y-103600000D01*
X114550000Y-99700000D02*
X114550000Y-103600000D01*
X116550000Y-99700000D02*
X114550000Y-99700000D01*
X118710000Y-102402064D02*
X118710000Y-101197936D01*
X116890000Y-102402064D02*
X116890000Y-101197936D01*
D11*
X109616666Y-103077380D02*
X109616666Y-103791666D01*
X109569047Y-103934523D01*
X109473809Y-104029761D01*
X109330952Y-104077380D01*
X109235714Y-104077380D01*
X110045238Y-103172619D02*
X110092857Y-103125000D01*
X110188095Y-103077380D01*
X110426190Y-103077380D01*
X110521428Y-103125000D01*
X110569047Y-103172619D01*
X110616666Y-103267857D01*
X110616666Y-103363095D01*
X110569047Y-103505952D01*
X109997619Y-104077380D01*
X110616666Y-104077380D01*
X122052380Y-104742857D02*
X121576190Y-105076190D01*
X122052380Y-105314285D02*
X121052380Y-105314285D01*
X121052380Y-104933333D01*
X121100000Y-104838095D01*
X121147619Y-104790476D01*
X121242857Y-104742857D01*
X121385714Y-104742857D01*
X121480952Y-104790476D01*
X121528571Y-104838095D01*
X121576190Y-104933333D01*
X121576190Y-105314285D01*
X121147619Y-104361904D02*
X121100000Y-104314285D01*
X121052380Y-104219047D01*
X121052380Y-103980952D01*
X121100000Y-103885714D01*
X121147619Y-103838095D01*
X121242857Y-103790476D01*
X121338095Y-103790476D01*
X121480952Y-103838095D01*
X122052380Y-104409523D01*
X122052380Y-103790476D01*
X121052380Y-103457142D02*
X121052380Y-102838095D01*
X121433333Y-103171428D01*
X121433333Y-103028571D01*
X121480952Y-102933333D01*
X121528571Y-102885714D01*
X121623809Y-102838095D01*
X121861904Y-102838095D01*
X121957142Y-102885714D01*
X122004761Y-102933333D01*
X122052380Y-103028571D01*
X122052380Y-103314285D01*
X122004761Y-103409523D01*
X121957142Y-103457142D01*
X121652380Y-100242857D02*
X121176190Y-100576190D01*
X121652380Y-100814285D02*
X120652380Y-100814285D01*
X120652380Y-100433333D01*
X120700000Y-100338095D01*
X120747619Y-100290476D01*
X120842857Y-100242857D01*
X120985714Y-100242857D01*
X121080952Y-100290476D01*
X121128571Y-100338095D01*
X121176190Y-100433333D01*
X121176190Y-100814285D01*
X120747619Y-99861904D02*
X120700000Y-99814285D01*
X120652380Y-99719047D01*
X120652380Y-99480952D01*
X120700000Y-99385714D01*
X120747619Y-99338095D01*
X120842857Y-99290476D01*
X120938095Y-99290476D01*
X121080952Y-99338095D01*
X121652380Y-99909523D01*
X121652380Y-99290476D01*
X120747619Y-98909523D02*
X120700000Y-98861904D01*
X120652380Y-98766666D01*
X120652380Y-98528571D01*
X120700000Y-98433333D01*
X120747619Y-98385714D01*
X120842857Y-98338095D01*
X120938095Y-98338095D01*
X121080952Y-98385714D01*
X121652380Y-98957142D01*
X121652380Y-98338095D01*
X111127380Y-75366666D02*
X110651190Y-75700000D01*
X111127380Y-75938095D02*
X110127380Y-75938095D01*
X110127380Y-75557142D01*
X110175000Y-75461904D01*
X110222619Y-75414285D01*
X110317857Y-75366666D01*
X110460714Y-75366666D01*
X110555952Y-75414285D01*
X110603571Y-75461904D01*
X110651190Y-75557142D01*
X110651190Y-75938095D01*
X110555952Y-74795238D02*
X110508333Y-74890476D01*
X110460714Y-74938095D01*
X110365476Y-74985714D01*
X110317857Y-74985714D01*
X110222619Y-74938095D01*
X110175000Y-74890476D01*
X110127380Y-74795238D01*
X110127380Y-74604761D01*
X110175000Y-74509523D01*
X110222619Y-74461904D01*
X110317857Y-74414285D01*
X110365476Y-74414285D01*
X110460714Y-74461904D01*
X110508333Y-74509523D01*
X110555952Y-74604761D01*
X110555952Y-74795238D01*
X110603571Y-74890476D01*
X110651190Y-74938095D01*
X110746428Y-74985714D01*
X110936904Y-74985714D01*
X111032142Y-74938095D01*
X111079761Y-74890476D01*
X111127380Y-74795238D01*
X111127380Y-74604761D01*
X111079761Y-74509523D01*
X111032142Y-74461904D01*
X110936904Y-74414285D01*
X110746428Y-74414285D01*
X110651190Y-74461904D01*
X110603571Y-74509523D01*
X110555952Y-74604761D01*
X108938095Y-76704380D02*
X109509523Y-76704380D01*
X109223809Y-77704380D02*
X109223809Y-76704380D01*
X109842857Y-77704380D02*
X109842857Y-76704380D01*
X110223809Y-76704380D01*
X110319047Y-76752000D01*
X110366666Y-76799619D01*
X110414285Y-76894857D01*
X110414285Y-77037714D01*
X110366666Y-77132952D01*
X110319047Y-77180571D01*
X110223809Y-77228190D01*
X109842857Y-77228190D01*
X110795238Y-76799619D02*
X110842857Y-76752000D01*
X110938095Y-76704380D01*
X111176190Y-76704380D01*
X111271428Y-76752000D01*
X111319047Y-76799619D01*
X111366666Y-76894857D01*
X111366666Y-76990095D01*
X111319047Y-77132952D01*
X110747619Y-77704380D01*
X111366666Y-77704380D01*
X117288095Y-106852380D02*
X117859523Y-106852380D01*
X117573809Y-107852380D02*
X117573809Y-106852380D01*
X118192857Y-107852380D02*
X118192857Y-106852380D01*
X118573809Y-106852380D01*
X118669047Y-106900000D01*
X118716666Y-106947619D01*
X118764285Y-107042857D01*
X118764285Y-107185714D01*
X118716666Y-107280952D01*
X118669047Y-107328571D01*
X118573809Y-107376190D01*
X118192857Y-107376190D01*
X119716666Y-107852380D02*
X119145238Y-107852380D01*
X119430952Y-107852380D02*
X119430952Y-106852380D01*
X119335714Y-106995238D01*
X119240476Y-107090476D01*
X119145238Y-107138095D01*
X113827380Y-105888095D02*
X112827380Y-105888095D01*
X112827380Y-105650000D01*
X112875000Y-105507142D01*
X112970238Y-105411904D01*
X113065476Y-105364285D01*
X113255952Y-105316666D01*
X113398809Y-105316666D01*
X113589285Y-105364285D01*
X113684523Y-105411904D01*
X113779761Y-105507142D01*
X113827380Y-105650000D01*
X113827380Y-105888095D01*
X112827380Y-104983333D02*
X112827380Y-104364285D01*
X113208333Y-104697619D01*
X113208333Y-104554761D01*
X113255952Y-104459523D01*
X113303571Y-104411904D01*
X113398809Y-104364285D01*
X113636904Y-104364285D01*
X113732142Y-104411904D01*
X113779761Y-104459523D01*
X113827380Y-104554761D01*
X113827380Y-104840476D01*
X113779761Y-104935714D01*
X113732142Y-104983333D01*
X113195833Y-93932142D02*
X113148214Y-93979761D01*
X113005357Y-94027380D01*
X112910119Y-94027380D01*
X112767261Y-93979761D01*
X112672023Y-93884523D01*
X112624404Y-93789285D01*
X112576785Y-93598809D01*
X112576785Y-93455952D01*
X112624404Y-93265476D01*
X112672023Y-93170238D01*
X112767261Y-93075000D01*
X112910119Y-93027380D01*
X113005357Y-93027380D01*
X113148214Y-93075000D01*
X113195833Y-93122619D01*
X113576785Y-93122619D02*
X113624404Y-93075000D01*
X113719642Y-93027380D01*
X113957738Y-93027380D01*
X114052976Y-93075000D01*
X114100595Y-93122619D01*
X114148214Y-93217857D01*
X114148214Y-93313095D01*
X114100595Y-93455952D01*
X113529166Y-94027380D01*
X114148214Y-94027380D01*
X112607142Y-80957142D02*
X112559523Y-81004761D01*
X112416666Y-81052380D01*
X112321428Y-81052380D01*
X112178571Y-81004761D01*
X112083333Y-80909523D01*
X112035714Y-80814285D01*
X111988095Y-80623809D01*
X111988095Y-80480952D01*
X112035714Y-80290476D01*
X112083333Y-80195238D01*
X112178571Y-80100000D01*
X112321428Y-80052380D01*
X112416666Y-80052380D01*
X112559523Y-80100000D01*
X112607142Y-80147619D01*
X113559523Y-81052380D02*
X112988095Y-81052380D01*
X113273809Y-81052380D02*
X113273809Y-80052380D01*
X113178571Y-80195238D01*
X113083333Y-80290476D01*
X112988095Y-80338095D01*
X114416666Y-80052380D02*
X114226190Y-80052380D01*
X114130952Y-80100000D01*
X114083333Y-80147619D01*
X113988095Y-80290476D01*
X113940476Y-80480952D01*
X113940476Y-80861904D01*
X113988095Y-80957142D01*
X114035714Y-81004761D01*
X114130952Y-81052380D01*
X114321428Y-81052380D01*
X114416666Y-81004761D01*
X114464285Y-80957142D01*
X114511904Y-80861904D01*
X114511904Y-80623809D01*
X114464285Y-80528571D01*
X114416666Y-80480952D01*
X114321428Y-80433333D01*
X114130952Y-80433333D01*
X114035714Y-80480952D01*
X113988095Y-80528571D01*
X113940476Y-80623809D01*
X111744642Y-86152380D02*
X111411309Y-85676190D01*
X111173214Y-86152380D02*
X111173214Y-85152380D01*
X111554166Y-85152380D01*
X111649404Y-85200000D01*
X111697023Y-85247619D01*
X111744642Y-85342857D01*
X111744642Y-85485714D01*
X111697023Y-85580952D01*
X111649404Y-85628571D01*
X111554166Y-85676190D01*
X111173214Y-85676190D01*
X112697023Y-86152380D02*
X112125595Y-86152380D01*
X112411309Y-86152380D02*
X112411309Y-85152380D01*
X112316071Y-85295238D01*
X112220833Y-85390476D01*
X112125595Y-85438095D01*
X113077976Y-85247619D02*
X113125595Y-85200000D01*
X113220833Y-85152380D01*
X113458928Y-85152380D01*
X113554166Y-85200000D01*
X113601785Y-85247619D01*
X113649404Y-85342857D01*
X113649404Y-85438095D01*
X113601785Y-85580952D01*
X113030357Y-86152380D01*
X113649404Y-86152380D01*
X111957142Y-89352380D02*
X111623809Y-88876190D01*
X111385714Y-89352380D02*
X111385714Y-88352380D01*
X111766666Y-88352380D01*
X111861904Y-88400000D01*
X111909523Y-88447619D01*
X111957142Y-88542857D01*
X111957142Y-88685714D01*
X111909523Y-88780952D01*
X111861904Y-88828571D01*
X111766666Y-88876190D01*
X111385714Y-88876190D01*
X112909523Y-89352380D02*
X112338095Y-89352380D01*
X112623809Y-89352380D02*
X112623809Y-88352380D01*
X112528571Y-88495238D01*
X112433333Y-88590476D01*
X112338095Y-88638095D01*
X113861904Y-89352380D02*
X113290476Y-89352380D01*
X113576190Y-89352380D02*
X113576190Y-88352380D01*
X113480952Y-88495238D01*
X113385714Y-88590476D01*
X113290476Y-88638095D01*
X118057142Y-86352380D02*
X117723809Y-85876190D01*
X117485714Y-86352380D02*
X117485714Y-85352380D01*
X117866666Y-85352380D01*
X117961904Y-85400000D01*
X118009523Y-85447619D01*
X118057142Y-85542857D01*
X118057142Y-85685714D01*
X118009523Y-85780952D01*
X117961904Y-85828571D01*
X117866666Y-85876190D01*
X117485714Y-85876190D01*
X119009523Y-86352380D02*
X118438095Y-86352380D01*
X118723809Y-86352380D02*
X118723809Y-85352380D01*
X118628571Y-85495238D01*
X118533333Y-85590476D01*
X118438095Y-85638095D01*
X119866666Y-85685714D02*
X119866666Y-86352380D01*
X119628571Y-85304761D02*
X119390476Y-86019047D01*
X120009523Y-86019047D01*
X120249173Y-84046482D02*
X120201554Y-84094101D01*
X120058697Y-84141720D01*
X119963459Y-84141720D01*
X119820602Y-84094101D01*
X119725364Y-83998863D01*
X119677745Y-83903625D01*
X119630126Y-83713149D01*
X119630126Y-83570292D01*
X119677745Y-83379816D01*
X119725364Y-83284578D01*
X119820602Y-83189340D01*
X119963459Y-83141720D01*
X120058697Y-83141720D01*
X120201554Y-83189340D01*
X120249173Y-83236959D01*
X120630126Y-83236959D02*
X120677745Y-83189340D01*
X120772983Y-83141720D01*
X121011078Y-83141720D01*
X121106316Y-83189340D01*
X121153935Y-83236959D01*
X121201554Y-83332197D01*
X121201554Y-83427435D01*
X121153935Y-83570292D01*
X120582507Y-84141720D01*
X121201554Y-84141720D01*
X121582507Y-83236959D02*
X121630126Y-83189340D01*
X121725364Y-83141720D01*
X121963459Y-83141720D01*
X122058697Y-83189340D01*
X122106316Y-83236959D01*
X122153935Y-83332197D01*
X122153935Y-83427435D01*
X122106316Y-83570292D01*
X121534888Y-84141720D01*
X122153935Y-84141720D01*
X118969642Y-77157142D02*
X118922023Y-77204761D01*
X118779166Y-77252380D01*
X118683928Y-77252380D01*
X118541071Y-77204761D01*
X118445833Y-77109523D01*
X118398214Y-77014285D01*
X118350595Y-76823809D01*
X118350595Y-76680952D01*
X118398214Y-76490476D01*
X118445833Y-76395238D01*
X118541071Y-76300000D01*
X118683928Y-76252380D01*
X118779166Y-76252380D01*
X118922023Y-76300000D01*
X118969642Y-76347619D01*
X119922023Y-77252380D02*
X119350595Y-77252380D01*
X119636309Y-77252380D02*
X119636309Y-76252380D01*
X119541071Y-76395238D01*
X119445833Y-76490476D01*
X119350595Y-76538095D01*
X120779166Y-76585714D02*
X120779166Y-77252380D01*
X120541071Y-76204761D02*
X120302976Y-76919047D01*
X120922023Y-76919047D01*
X112457142Y-82282142D02*
X112409523Y-82329761D01*
X112266666Y-82377380D01*
X112171428Y-82377380D01*
X112028571Y-82329761D01*
X111933333Y-82234523D01*
X111885714Y-82139285D01*
X111838095Y-81948809D01*
X111838095Y-81805952D01*
X111885714Y-81615476D01*
X111933333Y-81520238D01*
X112028571Y-81425000D01*
X112171428Y-81377380D01*
X112266666Y-81377380D01*
X112409523Y-81425000D01*
X112457142Y-81472619D01*
X113409523Y-82377380D02*
X112838095Y-82377380D01*
X113123809Y-82377380D02*
X113123809Y-81377380D01*
X113028571Y-81520238D01*
X112933333Y-81615476D01*
X112838095Y-81663095D01*
X113742857Y-81377380D02*
X114409523Y-81377380D01*
X113980952Y-82377380D01*
X120276190Y-81776190D02*
X120752380Y-81776190D01*
X119752380Y-82109523D02*
X120276190Y-81776190D01*
X119752380Y-81442857D01*
X120752380Y-80585714D02*
X120752380Y-81157142D01*
X120752380Y-80871428D02*
X119752380Y-80871428D01*
X119895238Y-80966666D01*
X119990476Y-81061904D01*
X120038095Y-81157142D01*
X119657142Y-93952380D02*
X119323809Y-93476190D01*
X119085714Y-93952380D02*
X119085714Y-92952380D01*
X119466666Y-92952380D01*
X119561904Y-93000000D01*
X119609523Y-93047619D01*
X119657142Y-93142857D01*
X119657142Y-93285714D01*
X119609523Y-93380952D01*
X119561904Y-93428571D01*
X119466666Y-93476190D01*
X119085714Y-93476190D01*
X120609523Y-93952380D02*
X120038095Y-93952380D01*
X120323809Y-93952380D02*
X120323809Y-92952380D01*
X120228571Y-93095238D01*
X120133333Y-93190476D01*
X120038095Y-93238095D01*
X120942857Y-92952380D02*
X121561904Y-92952380D01*
X121228571Y-93333333D01*
X121371428Y-93333333D01*
X121466666Y-93380952D01*
X121514285Y-93428571D01*
X121561904Y-93523809D01*
X121561904Y-93761904D01*
X121514285Y-93857142D01*
X121466666Y-93904761D01*
X121371428Y-93952380D01*
X121085714Y-93952380D01*
X120990476Y-93904761D01*
X120942857Y-93857142D01*
X111940847Y-84069274D02*
X111893228Y-84116893D01*
X111750371Y-84164512D01*
X111655133Y-84164512D01*
X111512276Y-84116893D01*
X111417038Y-84021655D01*
X111369419Y-83926417D01*
X111321800Y-83735941D01*
X111321800Y-83593084D01*
X111369419Y-83402608D01*
X111417038Y-83307370D01*
X111512276Y-83212132D01*
X111655133Y-83164512D01*
X111750371Y-83164512D01*
X111893228Y-83212132D01*
X111940847Y-83259751D01*
X112321800Y-83259751D02*
X112369419Y-83212132D01*
X112464657Y-83164512D01*
X112702752Y-83164512D01*
X112797990Y-83212132D01*
X112845609Y-83259751D01*
X112893228Y-83354989D01*
X112893228Y-83450227D01*
X112845609Y-83593084D01*
X112274181Y-84164512D01*
X112893228Y-84164512D01*
X113512276Y-83164512D02*
X113607514Y-83164512D01*
X113702752Y-83212132D01*
X113750371Y-83259751D01*
X113797990Y-83354989D01*
X113845609Y-83545465D01*
X113845609Y-83783560D01*
X113797990Y-83974036D01*
X113750371Y-84069274D01*
X113702752Y-84116893D01*
X113607514Y-84164512D01*
X113512276Y-84164512D01*
X113417038Y-84116893D01*
X113369419Y-84069274D01*
X113321800Y-83974036D01*
X113274181Y-83783560D01*
X113274181Y-83545465D01*
X113321800Y-83354989D01*
X113369419Y-83259751D01*
X113417038Y-83212132D01*
X113512276Y-83164512D01*
X116688095Y-77752380D02*
X116688095Y-78561904D01*
X116735714Y-78657142D01*
X116783333Y-78704761D01*
X116878571Y-78752380D01*
X117069047Y-78752380D01*
X117164285Y-78704761D01*
X117211904Y-78657142D01*
X117259523Y-78561904D01*
X117259523Y-77752380D01*
X118164285Y-77752380D02*
X117973809Y-77752380D01*
X117878571Y-77800000D01*
X117830952Y-77847619D01*
X117735714Y-77990476D01*
X117688095Y-78180952D01*
X117688095Y-78561904D01*
X117735714Y-78657142D01*
X117783333Y-78704761D01*
X117878571Y-78752380D01*
X118069047Y-78752380D01*
X118164285Y-78704761D01*
X118211904Y-78657142D01*
X118259523Y-78561904D01*
X118259523Y-78323809D01*
X118211904Y-78228571D01*
X118164285Y-78180952D01*
X118069047Y-78133333D01*
X117878571Y-78133333D01*
X117783333Y-78180952D01*
X117735714Y-78228571D01*
X117688095Y-78323809D01*
X114532142Y-72357142D02*
X114484523Y-72404761D01*
X114341666Y-72452380D01*
X114246428Y-72452380D01*
X114103571Y-72404761D01*
X114008333Y-72309523D01*
X113960714Y-72214285D01*
X113913095Y-72023809D01*
X113913095Y-71880952D01*
X113960714Y-71690476D01*
X114008333Y-71595238D01*
X114103571Y-71500000D01*
X114246428Y-71452380D01*
X114341666Y-71452380D01*
X114484523Y-71500000D01*
X114532142Y-71547619D01*
X115484523Y-72452380D02*
X114913095Y-72452380D01*
X115198809Y-72452380D02*
X115198809Y-71452380D01*
X115103571Y-71595238D01*
X115008333Y-71690476D01*
X114913095Y-71738095D01*
X116389285Y-71452380D02*
X115913095Y-71452380D01*
X115865476Y-71928571D01*
X115913095Y-71880952D01*
X116008333Y-71833333D01*
X116246428Y-71833333D01*
X116341666Y-71880952D01*
X116389285Y-71928571D01*
X116436904Y-72023809D01*
X116436904Y-72261904D01*
X116389285Y-72357142D01*
X116341666Y-72404761D01*
X116246428Y-72452380D01*
X116008333Y-72452380D01*
X115913095Y-72404761D01*
X115865476Y-72357142D01*
X111782142Y-87957142D02*
X111734523Y-88004761D01*
X111591666Y-88052380D01*
X111496428Y-88052380D01*
X111353571Y-88004761D01*
X111258333Y-87909523D01*
X111210714Y-87814285D01*
X111163095Y-87623809D01*
X111163095Y-87480952D01*
X111210714Y-87290476D01*
X111258333Y-87195238D01*
X111353571Y-87100000D01*
X111496428Y-87052380D01*
X111591666Y-87052380D01*
X111734523Y-87100000D01*
X111782142Y-87147619D01*
X112734523Y-88052380D02*
X112163095Y-88052380D01*
X112448809Y-88052380D02*
X112448809Y-87052380D01*
X112353571Y-87195238D01*
X112258333Y-87290476D01*
X112163095Y-87338095D01*
X113115476Y-87147619D02*
X113163095Y-87100000D01*
X113258333Y-87052380D01*
X113496428Y-87052380D01*
X113591666Y-87100000D01*
X113639285Y-87147619D01*
X113686904Y-87242857D01*
X113686904Y-87338095D01*
X113639285Y-87480952D01*
X113067857Y-88052380D01*
X113686904Y-88052380D01*
X116757142Y-95466666D02*
X116804761Y-95514285D01*
X116852380Y-95657142D01*
X116852380Y-95752380D01*
X116804761Y-95895238D01*
X116709523Y-95990476D01*
X116614285Y-96038095D01*
X116423809Y-96085714D01*
X116280952Y-96085714D01*
X116090476Y-96038095D01*
X115995238Y-95990476D01*
X115900000Y-95895238D01*
X115852380Y-95752380D01*
X115852380Y-95657142D01*
X115900000Y-95514285D01*
X115947619Y-95466666D01*
X115852380Y-95133333D02*
X115852380Y-94466666D01*
X116852380Y-94895238D01*
X117757142Y-92657142D02*
X117709523Y-92704761D01*
X117566666Y-92752380D01*
X117471428Y-92752380D01*
X117328571Y-92704761D01*
X117233333Y-92609523D01*
X117185714Y-92514285D01*
X117138095Y-92323809D01*
X117138095Y-92180952D01*
X117185714Y-91990476D01*
X117233333Y-91895238D01*
X117328571Y-91800000D01*
X117471428Y-91752380D01*
X117566666Y-91752380D01*
X117709523Y-91800000D01*
X117757142Y-91847619D01*
X118709523Y-92752380D02*
X118138095Y-92752380D01*
X118423809Y-92752380D02*
X118423809Y-91752380D01*
X118328571Y-91895238D01*
X118233333Y-91990476D01*
X118138095Y-92038095D01*
X119042857Y-91752380D02*
X119661904Y-91752380D01*
X119328571Y-92133333D01*
X119471428Y-92133333D01*
X119566666Y-92180952D01*
X119614285Y-92228571D01*
X119661904Y-92323809D01*
X119661904Y-92561904D01*
X119614285Y-92657142D01*
X119566666Y-92704761D01*
X119471428Y-92752380D01*
X119185714Y-92752380D01*
X119090476Y-92704761D01*
X119042857Y-92657142D01*
X116052380Y-105988095D02*
X115052380Y-105988095D01*
X115052380Y-105750000D01*
X115100000Y-105607142D01*
X115195238Y-105511904D01*
X115290476Y-105464285D01*
X115480952Y-105416666D01*
X115623809Y-105416666D01*
X115814285Y-105464285D01*
X115909523Y-105511904D01*
X116004761Y-105607142D01*
X116052380Y-105750000D01*
X116052380Y-105988095D01*
X115147619Y-105035714D02*
X115100000Y-104988095D01*
X115052380Y-104892857D01*
X115052380Y-104654761D01*
X115100000Y-104559523D01*
X115147619Y-104511904D01*
X115242857Y-104464285D01*
X115338095Y-104464285D01*
X115480952Y-104511904D01*
X116052380Y-105083333D01*
X116052380Y-104464285D01*
X116933333Y-98742857D02*
X116666666Y-98742857D01*
X116666666Y-99161904D02*
X116666666Y-98361904D01*
X117047619Y-98361904D01*
X117771428Y-99161904D02*
X117314285Y-99161904D01*
X117542857Y-99161904D02*
X117542857Y-98361904D01*
X117466666Y-98476190D01*
X117390476Y-98552380D01*
X117314285Y-98590476D01*
M02*
